<?xml version="1.0" encoding="UTF-8" standalone="no"?>
<!DOCTYPE svg PUBLIC "-//W3C//DTD SVG 1.1//EN"
 "http://www.w3.org/Graphics/SVG/1.1/DTD/svg11.dtd">
<!-- Generated by graphviz version 2.47.1 (20210417.1919)
 -->
<!-- Title: Quiz.AstralBodyDict&lt; T &gt; Pages: 1 -->
<svg width="168pt" height="398pt"
 viewBox="0.00 0.00 168.00 398.00" xmlns="http://www.w3.org/2000/svg" xmlns:xlink="http://www.w3.org/1999/xlink">
<g id="graph0" class="graph" transform="scale(1 1) rotate(0) translate(4 394)">
<title>Quiz.AstralBodyDict&lt; T &gt;</title>
<polygon fill="white" stroke="transparent" points="-4,4 -4,-394 164,-394 164,4 -4,4"/>
<!-- Node1 -->
<g id="node1" class="node">
<title>Node1</title>
<g id="a_node1"><a xlink:title="星体数据传递">
<polygon fill="#bfbfbf" stroke="black" points="1.5,-288.5 1.5,-389.5 138.5,-389.5 138.5,-288.5 1.5,-288.5"/>
<text text-anchor="middle" x="70" y="-377.5" font-family="Helvetica,sans-Serif" font-size="10.00">Quiz.AstralBodyDict&lt; T &gt;</text>
<polyline fill="none" stroke="black" points="1.5,-370.5 138.5,-370.5 "/>
<text text-anchor="start" x="9.5" y="-358.5" font-family="Helvetica,sans-Serif" font-size="10.00">+ bool isCore</text>
<text text-anchor="start" x="9.5" y="-347.5" font-family="Helvetica,sans-Serif" font-size="10.00">+ T astralBody</text>
<text text-anchor="start" x="9.5" y="-336.5" font-family="Helvetica,sans-Serif" font-size="10.00">+ Transform transform</text>
<polyline fill="none" stroke="black" points="1.5,-329.5 138.5,-329.5 "/>
<text text-anchor="start" x="9.5" y="-317.5" font-family="Helvetica,sans-Serif" font-size="10.00">+ AstralBodyDict(Transform</text>
<text text-anchor="start" x="9.5" y="-306.5" font-family="Helvetica,sans-Serif" font-size="10.00"> transform, T astralBody,</text>
<text text-anchor="start" x="9.5" y="-295.5" font-family="Helvetica,sans-Serif" font-size="10.00"> bool isCore)</text>
</a>
</g>
</g>
<!-- Node2 -->
<g id="node2" class="node">
<title>Node2</title>
<g id="a_node2"><a xlink:href="class_quiz_1_1_astral_body_dict.html" target="_top" xlink:title=" ">
<polygon fill="white" stroke="black" points="1.5,-128.5 1.5,-240.5 138.5,-240.5 138.5,-128.5 1.5,-128.5"/>
<text text-anchor="start" x="9.5" y="-228.5" font-family="Helvetica,sans-Serif" font-size="10.00">Quiz.AstralBodyDict</text>
<text text-anchor="middle" x="70" y="-217.5" font-family="Helvetica,sans-Serif" font-size="10.00">&lt; QuizAstralBody &gt;</text>
<polyline fill="none" stroke="black" points="1.5,-210.5 138.5,-210.5 "/>
<text text-anchor="start" x="9.5" y="-198.5" font-family="Helvetica,sans-Serif" font-size="10.00">+ bool isCore</text>
<text text-anchor="start" x="9.5" y="-187.5" font-family="Helvetica,sans-Serif" font-size="10.00">+ T astralBody</text>
<text text-anchor="start" x="9.5" y="-176.5" font-family="Helvetica,sans-Serif" font-size="10.00">+ Transform transform</text>
<polyline fill="none" stroke="black" points="1.5,-169.5 138.5,-169.5 "/>
<text text-anchor="start" x="9.5" y="-157.5" font-family="Helvetica,sans-Serif" font-size="10.00">+ AstralBodyDict(Transform</text>
<text text-anchor="start" x="9.5" y="-146.5" font-family="Helvetica,sans-Serif" font-size="10.00"> transform, T astralBody,</text>
<text text-anchor="start" x="9.5" y="-135.5" font-family="Helvetica,sans-Serif" font-size="10.00"> bool isCore)</text>
</a>
</g>
</g>
<!-- Node1&#45;&gt;Node2 -->
<g id="edge1" class="edge">
<title>Node1&#45;&gt;Node2</title>
<path fill="none" stroke="orange" d="M70,-278.24C70,-265.83 70,-252.8 70,-240.57"/>
<polygon fill="orange" stroke="orange" points="66.5,-278.49 70,-288.49 73.5,-278.49 66.5,-278.49"/>
<text text-anchor="middle" x="115" y="-262" font-family="Helvetica,sans-Serif" font-size="10.00"> &lt; QuizAstralBody &gt;</text>
</g>
<!-- Node3 -->
<g id="node3" class="node">
<title>Node3</title>
<g id="a_node3"><a xlink:href="class_quiz_1_1_quiz_astral_body_dict.html" target="_top" xlink:title="问题星体传递">
<polygon fill="white" stroke="black" points="0,-0.5 0,-90.5 140,-90.5 140,-0.5 0,-0.5"/>
<text text-anchor="middle" x="70" y="-78.5" font-family="Helvetica,sans-Serif" font-size="10.00">Quiz.QuizAstralBodyDict</text>
<polyline fill="none" stroke="black" points="0,-71.5 140,-71.5 "/>
<text text-anchor="start" x="8" y="-59.5" font-family="Helvetica,sans-Serif" font-size="10.00">+ bool isTarget</text>
<polyline fill="none" stroke="black" points="0,-52.5 140,-52.5 "/>
<text text-anchor="start" x="8" y="-40.5" font-family="Helvetica,sans-Serif" font-size="10.00">+ QuizAstralBodyDict</text>
<text text-anchor="start" x="8" y="-29.5" font-family="Helvetica,sans-Serif" font-size="10.00">(Transform transform,</text>
<text text-anchor="start" x="8" y="-18.5" font-family="Helvetica,sans-Serif" font-size="10.00"> QuizAstralBody astralBody,</text>
<text text-anchor="start" x="8" y="-7.5" font-family="Helvetica,sans-Serif" font-size="10.00"> bool isTarget, bool isCore)</text>
</a>
</g>
</g>
<!-- Node2&#45;&gt;Node3 -->
<g id="edge2" class="edge">
<title>Node2&#45;&gt;Node3</title>
<path fill="none" stroke="midnightblue" d="M70,-118.13C70,-108.83 70,-99.44 70,-90.67"/>
<polygon fill="none" stroke="midnightblue" points="66.5,-118.17 70,-128.17 73.5,-118.17 66.5,-118.17"/>
</g>
</g>
</svg>
