<?xml version="1.0" encoding="UTF-8" standalone="no"?>
<!DOCTYPE svg PUBLIC "-//W3C//DTD SVG 1.1//EN"
 "http://www.w3.org/Graphics/SVG/1.1/DTD/svg11.dtd">
<!-- Generated by graphviz version 2.47.1 (20210417.1919)
 -->
<!-- Title: Quiz.QuizAstralBody.UpdateQuizAstralBodyPer Pages: 1 -->
<svg width="480pt" height="39pt"
 viewBox="0.00 0.00 480.00 39.00" xmlns="http://www.w3.org/2000/svg" xmlns:xlink="http://www.w3.org/1999/xlink">
<g id="graph0" class="graph" transform="scale(1 1) rotate(0) translate(4 35)">
<title>Quiz.QuizAstralBody.UpdateQuizAstralBodyPer</title>
<polygon fill="white" stroke="transparent" points="-4,4 -4,-35 476,-35 476,4 -4,4"/>
<!-- Node1 -->
<g id="node1" class="node">
<title>Node1</title>
<g id="a_node1"><a xlink:title=" ">
<polygon fill="#bfbfbf" stroke="black" points="330,-0.5 330,-30.5 472,-30.5 472,-0.5 330,-0.5"/>
<text text-anchor="start" x="338" y="-18.5" font-family="Helvetica,sans-Serif" font-size="10.00">Quiz.QuizAstralBody.Update</text>
<text text-anchor="middle" x="401" y="-7.5" font-family="Helvetica,sans-Serif" font-size="10.00">QuizAstralBodyPer</text>
</a>
</g>
</g>
<!-- Node2 -->
<g id="node2" class="node">
<title>Node2</title>
<g id="a_node2"><a xlink:href="class_quiz_1_1_quiz_base.html#a844c34a243886e8781983ee0f1175a5e" target="_top" xlink:title=" ">
<polygon fill="white" stroke="black" points="143,-0.5 143,-30.5 294,-30.5 294,-0.5 143,-0.5"/>
<text text-anchor="start" x="151" y="-18.5" font-family="Helvetica,sans-Serif" font-size="10.00">Quiz.QuizBase.GenerateAstral</text>
<text text-anchor="middle" x="218.5" y="-7.5" font-family="Helvetica,sans-Serif" font-size="10.00">BodiesWithoutPrefab</text>
</a>
</g>
</g>
<!-- Node1&#45;&gt;Node2 -->
<g id="edge1" class="edge">
<title>Node1&#45;&gt;Node2</title>
<path fill="none" stroke="midnightblue" d="M319.72,-15.5C311.26,-15.5 302.68,-15.5 294.29,-15.5"/>
<polygon fill="midnightblue" stroke="midnightblue" points="319.96,-19 329.96,-15.5 319.96,-12 319.96,-19"/>
</g>
<!-- Node3 -->
<g id="node3" class="node">
<title>Node3</title>
<g id="a_node3"><a xlink:href="class_quiz_1_1_quiz_base.html#a62bd75950b67b8daa323ace19bc8cc7c" target="_top" xlink:title="是否加载完成">
<polygon fill="white" stroke="black" points="0,-6 0,-25 107,-25 107,-6 0,-6"/>
<text text-anchor="middle" x="53.5" y="-13" font-family="Helvetica,sans-Serif" font-size="10.00">Quiz.QuizBase.Start</text>
</a>
</g>
</g>
<!-- Node2&#45;&gt;Node3 -->
<g id="edge2" class="edge">
<title>Node2&#45;&gt;Node3</title>
<path fill="none" stroke="midnightblue" d="M132.63,-15.5C124.07,-15.5 115.56,-15.5 107.47,-15.5"/>
<polygon fill="midnightblue" stroke="midnightblue" points="132.68,-19 142.68,-15.5 132.68,-12 132.68,-19"/>
</g>
</g>
</svg>
