<?xml version="1.0" encoding="UTF-8" standalone="no"?>
<!DOCTYPE svg PUBLIC "-//W3C//DTD SVG 1.1//EN"
 "http://www.w3.org/Graphics/SVG/1.1/DTD/svg11.dtd">
<!-- Generated by graphviz version 2.47.1 (20210417.1919)
 -->
<!-- Title: CustomUI.AstralBodyEditor.AstralBodyPlacementUI Pages: 1 -->
<svg width="562pt" height="937pt"
 viewBox="0.00 0.00 562.30 937.00" xmlns="http://www.w3.org/2000/svg" xmlns:xlink="http://www.w3.org/1999/xlink">
<g id="graph0" class="graph" transform="scale(1 1) rotate(0) translate(4 933)">
<title>CustomUI.AstralBodyEditor.AstralBodyPlacementUI</title>
<polygon fill="white" stroke="transparent" points="-4,4 -4,-933 558.3,-933 558.3,4 -4,4"/>
<!-- Node1 -->
<g id="node1" class="node">
<title>Node1</title>
<g id="a_node1"><a xlink:title=" ">
<polygon fill="#bfbfbf" stroke="black" points="14.3,-413.5 14.3,-481.5 153.3,-481.5 153.3,-413.5 14.3,-413.5"/>
<text text-anchor="start" x="22.3" y="-469.5" font-family="Helvetica,sans-Serif" font-size="10.00">CustomUI.AstralBodyEditor.</text>
<text text-anchor="middle" x="83.8" y="-458.5" font-family="Helvetica,sans-Serif" font-size="10.00">AstralBodyPlacementUI</text>
<polyline fill="none" stroke="black" points="14.3,-451.5 153.3,-451.5 "/>
<text text-anchor="start" x="22.3" y="-439.5" font-family="Helvetica,sans-Serif" font-size="10.00">+ Vector3 Target</text>
<polyline fill="none" stroke="black" points="14.3,-432.5 153.3,-432.5 "/>
<text text-anchor="start" x="22.3" y="-420.5" font-family="Helvetica,sans-Serif" font-size="10.00">+ void SetPlacing()</text>
</a>
</g>
</g>
<!-- Node3 -->
<g id="node3" class="node">
<title>Node3</title>
<g id="a_node3"><a xlink:href="class_custom_u_i_1_1_astral_body_editor_1_1_astral_body_add_u_i.html" target="_top" xlink:title=" ">
<polygon fill="white" stroke="black" points="112.3,-0.5 112.3,-112.5 251.3,-112.5 251.3,-0.5 112.3,-0.5"/>
<text text-anchor="start" x="120.3" y="-100.5" font-family="Helvetica,sans-Serif" font-size="10.00">CustomUI.AstralBodyEditor.</text>
<text text-anchor="middle" x="181.8" y="-89.5" font-family="Helvetica,sans-Serif" font-size="10.00">AstralBodyAddUI</text>
<polyline fill="none" stroke="black" points="112.3,-82.5 251.3,-82.5 "/>
<text text-anchor="start" x="120.3" y="-70.5" font-family="Helvetica,sans-Serif" font-size="10.00">+ bool isQuizEditMode</text>
<text text-anchor="start" x="120.3" y="-59.5" font-family="Helvetica,sans-Serif" font-size="10.00">+ List&lt; GameObject &gt;</text>
<text text-anchor="start" x="120.3" y="-48.5" font-family="Helvetica,sans-Serif" font-size="10.00"> setActiveList</text>
<text text-anchor="start" x="120.3" y="-37.5" font-family="Helvetica,sans-Serif" font-size="10.00">+ Transform OrbitCore</text>
<polyline fill="none" stroke="black" points="112.3,-30.5 251.3,-30.5 "/>
<text text-anchor="start" x="120.3" y="-18.5" font-family="Helvetica,sans-Serif" font-size="10.00">+ void Switch2Placement()</text>
<text text-anchor="start" x="120.3" y="-7.5" font-family="Helvetica,sans-Serif" font-size="10.00">+ void Switch2Normal()</text>
</a>
</g>
</g>
<!-- Node1&#45;&gt;Node3 -->
<g id="edge4" class="edge">
<title>Node1&#45;&gt;Node3</title>
<path fill="none" stroke="#404040" d="M63.09,-413.18C28.12,-352.22 -33.46,-220.79 23.8,-131 41.03,-103.98 71.06,-86.73 100.34,-75.8"/>
<polygon fill="none" stroke="#404040" points="100.6,-75.71 104.95,-69.97 111.93,-71.77 107.58,-77.52 100.6,-75.71"/>
<text text-anchor="middle" x="79.8" y="-134" font-family="Helvetica,sans-Serif" font-size="10.00"> +astralBodyPlacementUI</text>
</g>
<!-- Node2 -->
<g id="node2" class="node">
<title>Node2</title>
<g id="a_node2"><a xlink:title=" ">
<polygon fill="white" stroke="#bfbfbf" points="174.3,-822 174.3,-879 257.3,-879 257.3,-822 174.3,-822"/>
<text text-anchor="middle" x="215.8" y="-867" font-family="Helvetica,sans-Serif" font-size="10.00">MonoBehaviour</text>
<polyline fill="none" stroke="#bfbfbf" points="174.3,-860 257.3,-860 "/>
<text text-anchor="middle" x="215.8" y="-848" font-family="Helvetica,sans-Serif" font-size="10.00"> </text>
<polyline fill="none" stroke="#bfbfbf" points="174.3,-841 257.3,-841 "/>
<text text-anchor="middle" x="215.8" y="-829" font-family="Helvetica,sans-Serif" font-size="10.00"> </text>
</a>
</g>
</g>
<!-- Node2&#45;&gt;Node1 -->
<g id="edge1" class="edge">
<title>Node2&#45;&gt;Node1</title>
<path fill="none" stroke="midnightblue" d="M195.07,-812.51C185.88,-795.12 175.44,-773.88 167.8,-754 130.79,-657.73 102.93,-538.6 90.68,-481.74"/>
<polygon fill="none" stroke="midnightblue" points="192.21,-814.59 200.02,-821.75 198.38,-811.28 192.21,-814.59"/>
</g>
<!-- Node2&#45;&gt;Node3 -->
<g id="edge3" class="edge">
<title>Node2&#45;&gt;Node3</title>
<path fill="none" stroke="midnightblue" d="M209.87,-811.76C206.62,-789.49 202.84,-760.71 200.8,-735 182.52,-504.51 181.11,-228.69 181.44,-112.93"/>
<polygon fill="none" stroke="midnightblue" points="206.43,-812.44 211.37,-821.82 213.36,-811.41 206.43,-812.44"/>
</g>
<!-- Node4 -->
<g id="node4" class="node">
<title>Node4</title>
<g id="a_node4"><a xlink:href="class_space_physic_1_1_gravity_tracing.html" target="_top" xlink:title="引力追踪">
<polygon fill="white" stroke="black" points="210.3,-336.5 210.3,-558.5 375.3,-558.5 375.3,-336.5 210.3,-336.5"/>
<text text-anchor="middle" x="292.8" y="-546.5" font-family="Helvetica,sans-Serif" font-size="10.00">SpacePhysic.GravityTracing</text>
<polyline fill="none" stroke="black" points="210.3,-539.5 375.3,-539.5 "/>
<text text-anchor="start" x="218.3" y="-527.5" font-family="Helvetica,sans-Serif" font-size="10.00">+ int sample</text>
<text text-anchor="start" x="218.3" y="-516.5" font-family="Helvetica,sans-Serif" font-size="10.00">+ float timeScale</text>
<text text-anchor="start" x="218.3" y="-505.5" font-family="Helvetica,sans-Serif" font-size="10.00">+ SplineComputer splineComputer</text>
<text text-anchor="start" x="218.3" y="-494.5" font-family="Helvetica,sans-Serif" font-size="10.00">+ bool isFreezing</text>
<text text-anchor="start" x="218.3" y="-483.5" font-family="Helvetica,sans-Serif" font-size="10.00">+ bool isShowOrbit</text>
<polyline fill="none" stroke="black" points="210.3,-476.5 375.3,-476.5 "/>
<text text-anchor="start" x="218.3" y="-464.5" font-family="Helvetica,sans-Serif" font-size="10.00">+ void Awake()</text>
<text text-anchor="start" x="218.3" y="-453.5" font-family="Helvetica,sans-Serif" font-size="10.00">+ void Dispatch()</text>
<text text-anchor="start" x="218.3" y="-442.5" font-family="Helvetica,sans-Serif" font-size="10.00">+ void AddTracingTarget</text>
<text text-anchor="start" x="218.3" y="-431.5" font-family="Helvetica,sans-Serif" font-size="10.00">(ITraceable traceable)</text>
<text text-anchor="start" x="218.3" y="-420.5" font-family="Helvetica,sans-Serif" font-size="10.00">+ void Freeze(bool isFreezing)</text>
<text text-anchor="start" x="218.3" y="-409.5" font-family="Helvetica,sans-Serif" font-size="10.00">+ void RemoveAstralBody</text>
<text text-anchor="start" x="218.3" y="-398.5" font-family="Helvetica,sans-Serif" font-size="10.00">(AstralBody astralBody)</text>
<text text-anchor="start" x="218.3" y="-387.5" font-family="Helvetica,sans-Serif" font-size="10.00">+ ConicSection GetConicSection</text>
<text text-anchor="start" x="218.3" y="-376.5" font-family="Helvetica,sans-Serif" font-size="10.00">(ITraceable astralBody)</text>
<text text-anchor="start" x="218.3" y="-365.5" font-family="Helvetica,sans-Serif" font-size="10.00">+ void DrawMathOrbit</text>
<text text-anchor="start" x="218.3" y="-354.5" font-family="Helvetica,sans-Serif" font-size="10.00">(ConicSection conicSection,</text>
<text text-anchor="start" x="218.3" y="-343.5" font-family="Helvetica,sans-Serif" font-size="10.00"> int sam)</text>
</a>
</g>
</g>
<!-- Node2&#45;&gt;Node4 -->
<g id="edge6" class="edge">
<title>Node2&#45;&gt;Node4</title>
<path fill="none" stroke="midnightblue" d="M223.02,-811.89C234.02,-754.63 255.39,-643.32 271.6,-558.91"/>
<polygon fill="none" stroke="midnightblue" points="219.54,-811.46 221.09,-821.94 226.42,-812.78 219.54,-811.46"/>
</g>
<!-- Node5 -->
<g id="node5" class="node">
<title>Node5</title>
<g id="a_node5"><a xlink:href="class_space_physic_1_1_astral_body.html" target="_top" xlink:title="星体物理实体">
<polygon fill="white" stroke="black" points="393.3,-160.5 393.3,-734.5 554.3,-734.5 554.3,-160.5 393.3,-160.5"/>
<text text-anchor="middle" x="473.8" y="-722.5" font-family="Helvetica,sans-Serif" font-size="10.00">SpacePhysic.AstralBody</text>
<polyline fill="none" stroke="black" points="393.3,-715.5 554.3,-715.5 "/>
<text text-anchor="start" x="401.3" y="-703.5" font-family="Helvetica,sans-Serif" font-size="10.00">+ List&lt; AstralBody &gt;</text>
<text text-anchor="start" x="401.3" y="-692.5" font-family="Helvetica,sans-Serif" font-size="10.00"> affectedPlanets</text>
<text text-anchor="start" x="401.3" y="-681.5" font-family="Helvetica,sans-Serif" font-size="10.00">+ float affectRadius</text>
<text text-anchor="start" x="401.3" y="-670.5" font-family="Helvetica,sans-Serif" font-size="10.00">+ Vector3 angularVelocity</text>
<text text-anchor="start" x="401.3" y="-659.5" font-family="Helvetica,sans-Serif" font-size="10.00">+ List&lt; AstralBody &gt;</text>
<text text-anchor="start" x="401.3" y="-648.5" font-family="Helvetica,sans-Serif" font-size="10.00"> banAffectedPlanets</text>
<text text-anchor="start" x="401.3" y="-637.5" font-family="Helvetica,sans-Serif" font-size="10.00">+ SphereCollider defaultCollider</text>
<text text-anchor="start" x="401.3" y="-626.5" font-family="Helvetica,sans-Serif" font-size="10.00">+ bool enableAffect</text>
<text text-anchor="start" x="401.3" y="-615.5" font-family="Helvetica,sans-Serif" font-size="10.00">+ bool enableTracing</text>
<text text-anchor="start" x="401.3" y="-604.5" font-family="Helvetica,sans-Serif" font-size="10.00">+ Vector3 oriVelocity</text>
<text text-anchor="start" x="401.3" y="-593.5" font-family="Helvetica,sans-Serif" font-size="10.00">+ SphereCollider triggerCollider</text>
<text text-anchor="start" x="401.3" y="-582.5" font-family="Helvetica,sans-Serif" font-size="10.00">+ UnityEvent&lt; Vector3</text>
<text text-anchor="start" x="401.3" y="-571.5" font-family="Helvetica,sans-Serif" font-size="10.00"> &gt; velocityChangedEvent</text>
<text text-anchor="start" x="401.3" y="-560.5" font-family="Helvetica,sans-Serif" font-size="10.00">+ UnityEvent astralBodyDestroy</text>
<text text-anchor="start" x="401.3" y="-549.5" font-family="Helvetica,sans-Serif" font-size="10.00">Event</text>
<text text-anchor="start" x="401.3" y="-538.5" font-family="Helvetica,sans-Serif" font-size="10.00">+ bool isUseScaler</text>
<text text-anchor="start" x="401.3" y="-527.5" font-family="Helvetica,sans-Serif" font-size="10.00">+ float? Mass</text>
<text text-anchor="start" x="401.3" y="-516.5" font-family="Helvetica,sans-Serif" font-size="10.00">+ Rigidbody astralBodyRigidbody</text>
<text text-anchor="start" x="401.3" y="-505.5" font-family="Helvetica,sans-Serif" font-size="10.00">+ Vector3 Force</text>
<text text-anchor="start" x="401.3" y="-494.5" font-family="Helvetica,sans-Serif" font-size="10.00">+ float gravity</text>
<text text-anchor="start" x="401.3" y="-483.5" font-family="Helvetica,sans-Serif" font-size="10.00">+ int meshNum</text>
<text text-anchor="start" x="401.3" y="-472.5" font-family="Helvetica,sans-Serif" font-size="10.00">+ float size</text>
<text text-anchor="start" x="401.3" y="-461.5" font-family="Helvetica,sans-Serif" font-size="10.00">+ double realMass</text>
<text text-anchor="start" x="401.3" y="-450.5" font-family="Helvetica,sans-Serif" font-size="10.00">+ double density</text>
<text text-anchor="start" x="401.3" y="-439.5" font-family="Helvetica,sans-Serif" font-size="10.00">+ Vector3 lastVelocity</text>
<text text-anchor="start" x="401.3" y="-428.5" font-family="Helvetica,sans-Serif" font-size="10.00">+ bool isLoadDone</text>
<polyline fill="none" stroke="black" points="393.3,-421.5 554.3,-421.5 "/>
<text text-anchor="start" x="401.3" y="-409.5" font-family="Helvetica,sans-Serif" font-size="10.00">+ virtual void OnCollision</text>
<text text-anchor="start" x="401.3" y="-398.5" font-family="Helvetica,sans-Serif" font-size="10.00">Enter(Collision other)</text>
<text text-anchor="start" x="401.3" y="-387.5" font-family="Helvetica,sans-Serif" font-size="10.00">+ Transform GetTransform()</text>
<text text-anchor="start" x="401.3" y="-376.5" font-family="Helvetica,sans-Serif" font-size="10.00">+ Vector3 GetPosition()</text>
<text text-anchor="start" x="401.3" y="-365.5" font-family="Helvetica,sans-Serif" font-size="10.00">+ GameObject GetGameObject()</text>
<text text-anchor="start" x="401.3" y="-354.5" font-family="Helvetica,sans-Serif" font-size="10.00">+ bool GetEnableTracing()</text>
<text text-anchor="start" x="401.3" y="-343.5" font-family="Helvetica,sans-Serif" font-size="10.00">+ virtual float GetMass()</text>
<text text-anchor="start" x="401.3" y="-332.5" font-family="Helvetica,sans-Serif" font-size="10.00">+ Rigidbody GetRigidbody()</text>
<text text-anchor="start" x="401.3" y="-321.5" font-family="Helvetica,sans-Serif" font-size="10.00">+ Vector3 GetVelocity()</text>
<text text-anchor="start" x="401.3" y="-310.5" font-family="Helvetica,sans-Serif" font-size="10.00">+ List&lt; AstralBody &gt;</text>
<text text-anchor="start" x="401.3" y="-299.5" font-family="Helvetica,sans-Serif" font-size="10.00"> GetAffectedPlanets()</text>
<text text-anchor="start" x="401.3" y="-288.5" font-family="Helvetica,sans-Serif" font-size="10.00">+ AstralBody GetAstralBody()</text>
<text text-anchor="start" x="401.3" y="-277.5" font-family="Helvetica,sans-Serif" font-size="10.00">+ void ChangeVelocity</text>
<text text-anchor="start" x="401.3" y="-266.5" font-family="Helvetica,sans-Serif" font-size="10.00">(Vector3 velocity)</text>
<text text-anchor="start" x="401.3" y="-255.5" font-family="Helvetica,sans-Serif" font-size="10.00">+ void ChangeVelocity</text>
<text text-anchor="start" x="401.3" y="-244.5" font-family="Helvetica,sans-Serif" font-size="10.00">(double realSpeed)</text>
<text text-anchor="start" x="401.3" y="-233.5" font-family="Helvetica,sans-Serif" font-size="10.00">+ Vector3 CalculateForce()</text>
<text text-anchor="start" x="401.3" y="-222.5" font-family="Helvetica,sans-Serif" font-size="10.00">+ void SetCircleVelocity()</text>
<text text-anchor="start" x="401.3" y="-211.5" font-family="Helvetica,sans-Serif" font-size="10.00">+ void SetCircleVelocityMenu()</text>
<text text-anchor="start" x="401.3" y="-200.5" font-family="Helvetica,sans-Serif" font-size="10.00"># virtual void Start()</text>
<text text-anchor="start" x="401.3" y="-189.5" font-family="Helvetica,sans-Serif" font-size="10.00"># void Generate()</text>
<text text-anchor="start" x="401.3" y="-178.5" font-family="Helvetica,sans-Serif" font-size="10.00"># virtual void FixedUpdate()</text>
<text text-anchor="start" x="401.3" y="-167.5" font-family="Helvetica,sans-Serif" font-size="10.00"># virtual void SetMass()</text>
</a>
</g>
</g>
<!-- Node2&#45;&gt;Node5 -->
<g id="edge8" class="edge">
<title>Node2&#45;&gt;Node5</title>
<path fill="none" stroke="midnightblue" d="M266.87,-826.57C304.53,-807.21 354.34,-776.06 384.8,-735 387.67,-731.13 390.45,-727.17 393.14,-723.12"/>
<polygon fill="none" stroke="midnightblue" points="264.94,-823.63 257.57,-831.24 268.08,-829.88 264.94,-823.63"/>
</g>
<!-- Node3&#45;&gt;Node1 -->
<g id="edge2" class="edge">
<title>Node3&#45;&gt;Node1</title>
<path fill="none" stroke="#404040" d="M149.33,-112.83C146.51,-118.85 143.93,-124.97 141.8,-131 108.95,-223.83 93.81,-338.94 87.59,-401.27"/>
<polygon fill="none" stroke="#404040" points="87.57,-401.43 90.98,-407.78 86.43,-413.37 83.02,-407.02 87.57,-401.43"/>
<text text-anchor="middle" x="154.8" y="-134" font-family="Helvetica,sans-Serif" font-size="10.00"> +root</text>
</g>
<!-- Node4&#45;&gt;Node3 -->
<g id="edge5" class="edge">
<title>Node4&#45;&gt;Node3</title>
<path fill="none" stroke="#404040" d="M261.36,-336.33C241.87,-268.02 217.47,-182.51 200.87,-124.32"/>
<polygon fill="none" stroke="#404040" points="200.84,-124.24 195.35,-119.56 197.55,-112.7 203.04,-117.37 200.84,-124.24"/>
<text text-anchor="middle" x="222.8" y="-134" font-family="Helvetica,sans-Serif" font-size="10.00"> +orbits</text>
</g>
<!-- Node5&#45;&gt;Node3 -->
<g id="edge7" class="edge">
<title>Node5&#45;&gt;Node3</title>
<path fill="none" stroke="#404040" d="M393.11,-170.4C390.43,-166.85 387.66,-163.38 384.8,-160 353.15,-122.59 304.47,-97.36 262.72,-81.29"/>
<polygon fill="none" stroke="#404040" points="262.67,-81.28 255.66,-82.94 251.42,-77.1 258.44,-75.44 262.67,-81.28"/>
<text text-anchor="middle" x="393.3" y="-134" font-family="Helvetica,sans-Serif" font-size="10.00"> +placePrefab</text>
</g>
<!-- Node6 -->
<g id="node6" class="node">
<title>Node6</title>
<g id="a_node6"><a xlink:href="interface_space_physic_1_1_i_traceable.html" target="_top" xlink:title="可追踪接口">
<polygon fill="white" stroke="black" points="393.8,-772.5 393.8,-928.5 553.8,-928.5 553.8,-772.5 393.8,-772.5"/>
<text text-anchor="middle" x="473.8" y="-916.5" font-family="Helvetica,sans-Serif" font-size="10.00">ITraceable</text>
<polyline fill="none" stroke="black" points="393.8,-909.5 553.8,-909.5 "/>
<text text-anchor="middle" x="473.8" y="-897.5" font-family="Helvetica,sans-Serif" font-size="10.00"> </text>
<polyline fill="none" stroke="black" points="393.8,-890.5 553.8,-890.5 "/>
<text text-anchor="start" x="401.8" y="-878.5" font-family="Helvetica,sans-Serif" font-size="10.00">+ Transform GetTransform()</text>
<text text-anchor="start" x="401.8" y="-867.5" font-family="Helvetica,sans-Serif" font-size="10.00">+ Vector3 GetPosition()</text>
<text text-anchor="start" x="401.8" y="-856.5" font-family="Helvetica,sans-Serif" font-size="10.00">+ GameObject GetGameObject()</text>
<text text-anchor="start" x="401.8" y="-845.5" font-family="Helvetica,sans-Serif" font-size="10.00">+ bool GetEnableTracing()</text>
<text text-anchor="start" x="401.8" y="-834.5" font-family="Helvetica,sans-Serif" font-size="10.00">+ float GetMass()</text>
<text text-anchor="start" x="401.8" y="-823.5" font-family="Helvetica,sans-Serif" font-size="10.00">+ Rigidbody GetRigidbody()</text>
<text text-anchor="start" x="401.8" y="-812.5" font-family="Helvetica,sans-Serif" font-size="10.00">+ Vector3 GetVelocity()</text>
<text text-anchor="start" x="401.8" y="-801.5" font-family="Helvetica,sans-Serif" font-size="10.00">+ List&lt; AstralBody &gt;</text>
<text text-anchor="start" x="401.8" y="-790.5" font-family="Helvetica,sans-Serif" font-size="10.00"> GetAffectedPlanets()</text>
<text text-anchor="start" x="401.8" y="-779.5" font-family="Helvetica,sans-Serif" font-size="10.00">+ AstralBody GetAstralBody()</text>
</a>
</g>
</g>
<!-- Node6&#45;&gt;Node5 -->
<g id="edge9" class="edge">
<title>Node6&#45;&gt;Node5</title>
<path fill="none" stroke="midnightblue" d="M473.8,-762.08C473.8,-753.3 473.8,-744.1 473.8,-734.57"/>
<polygon fill="none" stroke="midnightblue" points="470.3,-762.18 473.8,-772.18 477.3,-762.18 470.3,-762.18"/>
</g>
</g>
</svg>
