<?xml version="1.0" encoding="UTF-8" standalone="no"?>
<!DOCTYPE svg PUBLIC "-//W3C//DTD SVG 1.1//EN"
 "http://www.w3.org/Graphics/SVG/1.1/DTD/svg11.dtd">
<!-- Generated by graphviz version 2.47.1 (20210417.1919)
 -->
<!-- Title: Satellite.SatelliteController Pages: 1 -->
<svg width="416pt" height="1203pt"
 viewBox="0.00 0.00 416.00 1203.00" xmlns="http://www.w3.org/2000/svg" xmlns:xlink="http://www.w3.org/1999/xlink">
<g id="graph0" class="graph" transform="scale(1 1) rotate(0) translate(4 1199)">
<title>Satellite.SatelliteController</title>
<polygon fill="white" stroke="transparent" points="-4,4 -4,-1199 412,-1199 412,4 -4,4"/>
<!-- Node1 -->
<g id="node1" class="node">
<title>Node1</title>
<g id="a_node1"><a xlink:title="卫星控制器">
<polygon fill="#bfbfbf" stroke="black" points="0,-277.5 0,-367.5 131,-367.5 131,-277.5 0,-277.5"/>
<text text-anchor="middle" x="65.5" y="-355.5" font-family="Helvetica,sans-Serif" font-size="10.00">Satellite.SatelliteController</text>
<polyline fill="none" stroke="black" points="0,-348.5 131,-348.5 "/>
<text text-anchor="start" x="8" y="-336.5" font-family="Helvetica,sans-Serif" font-size="10.00">+ float angularSpeed</text>
<text text-anchor="start" x="8" y="-325.5" font-family="Helvetica,sans-Serif" font-size="10.00">+ float speed</text>
<polyline fill="none" stroke="black" points="0,-318.5 131,-318.5 "/>
<text text-anchor="start" x="8" y="-306.5" font-family="Helvetica,sans-Serif" font-size="10.00">+ void SetCurDirVelocity</text>
<text text-anchor="start" x="8" y="-295.5" font-family="Helvetica,sans-Serif" font-size="10.00">(float newSpeed)</text>
<text text-anchor="start" x="8" y="-284.5" font-family="Helvetica,sans-Serif" font-size="10.00">+ void SeparateControl()</text>
</a>
</g>
</g>
<!-- Node2 -->
<g id="node2" class="node">
<title>Node2</title>
<g id="a_node2"><a xlink:title=" ">
<polygon fill="white" stroke="#bfbfbf" points="119,-1088 119,-1145 202,-1145 202,-1088 119,-1088"/>
<text text-anchor="middle" x="160.5" y="-1133" font-family="Helvetica,sans-Serif" font-size="10.00">MonoBehaviour</text>
<polyline fill="none" stroke="#bfbfbf" points="119,-1126 202,-1126 "/>
<text text-anchor="middle" x="160.5" y="-1114" font-family="Helvetica,sans-Serif" font-size="10.00"> </text>
<polyline fill="none" stroke="#bfbfbf" points="119,-1107 202,-1107 "/>
<text text-anchor="middle" x="160.5" y="-1095" font-family="Helvetica,sans-Serif" font-size="10.00"> </text>
</a>
</g>
</g>
<!-- Node2&#45;&gt;Node1 -->
<g id="edge1" class="edge">
<title>Node2&#45;&gt;Node1</title>
<path fill="none" stroke="midnightblue" d="M128.88,-1080C111.99,-1058.69 92.81,-1030.14 83.5,-1001 10.44,-772.36 42.39,-477.89 58.38,-367.7"/>
<polygon fill="none" stroke="midnightblue" points="126.19,-1082.24 135.21,-1087.8 131.62,-1077.83 126.19,-1082.24"/>
</g>
<!-- Node3 -->
<g id="node3" class="node">
<title>Node3</title>
<g id="a_node3"><a xlink:href="class_satellite_1_1_satellite.html" target="_top" xlink:title="卫星整体">
<polygon fill="white" stroke="black" points="92.5,-685 92.5,-775 228.5,-775 228.5,-685 92.5,-685"/>
<text text-anchor="middle" x="160.5" y="-763" font-family="Helvetica,sans-Serif" font-size="10.00">Satellite.Satellite</text>
<polyline fill="none" stroke="black" points="92.5,-756 228.5,-756 "/>
<text text-anchor="start" x="100.5" y="-744" font-family="Helvetica,sans-Serif" font-size="10.00">+ List&lt; SatellitePart</text>
<text text-anchor="start" x="100.5" y="-733" font-family="Helvetica,sans-Serif" font-size="10.00"> &gt; satelliteParts</text>
<polyline fill="none" stroke="black" points="92.5,-726 228.5,-726 "/>
<text text-anchor="start" x="100.5" y="-714" font-family="Helvetica,sans-Serif" font-size="10.00">+ float GetMass()</text>
<text text-anchor="start" x="100.5" y="-703" font-family="Helvetica,sans-Serif" font-size="10.00">+ Transform GetTransform()</text>
<text text-anchor="start" x="100.5" y="-692" font-family="Helvetica,sans-Serif" font-size="10.00">+ Vector3 GetVelocity()</text>
</a>
</g>
</g>
<!-- Node2&#45;&gt;Node3 -->
<g id="edge3" class="edge">
<title>Node2&#45;&gt;Node3</title>
<path fill="none" stroke="midnightblue" d="M160.5,-1077.5C160.5,-1005.92 160.5,-851.46 160.5,-775.3"/>
<polygon fill="none" stroke="midnightblue" points="157,-1077.85 160.5,-1087.85 164,-1077.85 157,-1077.85"/>
</g>
<!-- Node7 -->
<g id="node7" class="node">
<title>Node7</title>
<g id="a_node7"><a xlink:href="class_space_physic_1_1_astral_body.html" target="_top" xlink:title="星体物理实体">
<polygon fill="white" stroke="black" points="247,-459.5 247,-1000.5 408,-1000.5 408,-459.5 247,-459.5"/>
<text text-anchor="middle" x="327.5" y="-988.5" font-family="Helvetica,sans-Serif" font-size="10.00">AstralBody</text>
<polyline fill="none" stroke="black" points="247,-981.5 408,-981.5 "/>
<text text-anchor="start" x="255" y="-969.5" font-family="Helvetica,sans-Serif" font-size="10.00">+ List&lt; AstralBody &gt;</text>
<text text-anchor="start" x="255" y="-958.5" font-family="Helvetica,sans-Serif" font-size="10.00"> affectedPlanets</text>
<text text-anchor="start" x="255" y="-947.5" font-family="Helvetica,sans-Serif" font-size="10.00">+ float affectRadius</text>
<text text-anchor="start" x="255" y="-936.5" font-family="Helvetica,sans-Serif" font-size="10.00">+ Vector3 angularVelocity</text>
<text text-anchor="start" x="255" y="-925.5" font-family="Helvetica,sans-Serif" font-size="10.00">+ List&lt; AstralBody &gt;</text>
<text text-anchor="start" x="255" y="-914.5" font-family="Helvetica,sans-Serif" font-size="10.00"> banAffectedPlanets</text>
<text text-anchor="start" x="255" y="-903.5" font-family="Helvetica,sans-Serif" font-size="10.00">+ SphereCollider defaultCollider</text>
<text text-anchor="start" x="255" y="-892.5" font-family="Helvetica,sans-Serif" font-size="10.00">+ bool enableAffect</text>
<text text-anchor="start" x="255" y="-881.5" font-family="Helvetica,sans-Serif" font-size="10.00">+ bool enableTracing</text>
<text text-anchor="start" x="255" y="-870.5" font-family="Helvetica,sans-Serif" font-size="10.00">+ Vector3 oriVelocity</text>
<text text-anchor="start" x="255" y="-859.5" font-family="Helvetica,sans-Serif" font-size="10.00">+ SphereCollider triggerCollider</text>
<text text-anchor="start" x="255" y="-848.5" font-family="Helvetica,sans-Serif" font-size="10.00">+ UnityEvent&lt; Vector3</text>
<text text-anchor="start" x="255" y="-837.5" font-family="Helvetica,sans-Serif" font-size="10.00"> &gt; velocityChangedEvent</text>
<text text-anchor="start" x="255" y="-826.5" font-family="Helvetica,sans-Serif" font-size="10.00">+ float? Mass</text>
<text text-anchor="start" x="255" y="-815.5" font-family="Helvetica,sans-Serif" font-size="10.00">+ Rigidbody astralBodyRigidbody</text>
<text text-anchor="start" x="255" y="-804.5" font-family="Helvetica,sans-Serif" font-size="10.00">+ Vector3 Force</text>
<text text-anchor="start" x="255" y="-793.5" font-family="Helvetica,sans-Serif" font-size="10.00">+ float gravity</text>
<text text-anchor="start" x="255" y="-782.5" font-family="Helvetica,sans-Serif" font-size="10.00">+ int meshNum</text>
<text text-anchor="start" x="255" y="-771.5" font-family="Helvetica,sans-Serif" font-size="10.00">+ float size</text>
<text text-anchor="start" x="255" y="-760.5" font-family="Helvetica,sans-Serif" font-size="10.00">+ double realMass</text>
<text text-anchor="start" x="255" y="-749.5" font-family="Helvetica,sans-Serif" font-size="10.00">+ double density</text>
<text text-anchor="start" x="255" y="-738.5" font-family="Helvetica,sans-Serif" font-size="10.00">+ Vector3 lastVelocity</text>
<text text-anchor="start" x="255" y="-727.5" font-family="Helvetica,sans-Serif" font-size="10.00">+ bool isLoadDone</text>
<polyline fill="none" stroke="black" points="247,-720.5 408,-720.5 "/>
<text text-anchor="start" x="255" y="-708.5" font-family="Helvetica,sans-Serif" font-size="10.00">+ virtual void OnCollision</text>
<text text-anchor="start" x="255" y="-697.5" font-family="Helvetica,sans-Serif" font-size="10.00">Enter(Collision other)</text>
<text text-anchor="start" x="255" y="-686.5" font-family="Helvetica,sans-Serif" font-size="10.00">+ Transform GetTransform()</text>
<text text-anchor="start" x="255" y="-675.5" font-family="Helvetica,sans-Serif" font-size="10.00">+ Vector3 GetPosition()</text>
<text text-anchor="start" x="255" y="-664.5" font-family="Helvetica,sans-Serif" font-size="10.00">+ GameObject GetGameObject()</text>
<text text-anchor="start" x="255" y="-653.5" font-family="Helvetica,sans-Serif" font-size="10.00">+ bool GetEnableTracing()</text>
<text text-anchor="start" x="255" y="-642.5" font-family="Helvetica,sans-Serif" font-size="10.00">+ virtual float GetMass()</text>
<text text-anchor="start" x="255" y="-631.5" font-family="Helvetica,sans-Serif" font-size="10.00">+ Rigidbody GetRigidbody()</text>
<text text-anchor="start" x="255" y="-620.5" font-family="Helvetica,sans-Serif" font-size="10.00">+ Vector3 GetVelocity()</text>
<text text-anchor="start" x="255" y="-609.5" font-family="Helvetica,sans-Serif" font-size="10.00">+ List&lt; AstralBody &gt;</text>
<text text-anchor="start" x="255" y="-598.5" font-family="Helvetica,sans-Serif" font-size="10.00"> GetAffectedPlanets()</text>
<text text-anchor="start" x="255" y="-587.5" font-family="Helvetica,sans-Serif" font-size="10.00">+ AstralBody GetAstralBody()</text>
<text text-anchor="start" x="255" y="-576.5" font-family="Helvetica,sans-Serif" font-size="10.00">+ void ChangeVelocity</text>
<text text-anchor="start" x="255" y="-565.5" font-family="Helvetica,sans-Serif" font-size="10.00">(Vector3 velocity)</text>
<text text-anchor="start" x="255" y="-554.5" font-family="Helvetica,sans-Serif" font-size="10.00">+ void ChangeVelocity</text>
<text text-anchor="start" x="255" y="-543.5" font-family="Helvetica,sans-Serif" font-size="10.00">(double realSpeed)</text>
<text text-anchor="start" x="255" y="-532.5" font-family="Helvetica,sans-Serif" font-size="10.00">+ Vector3 CalculateForce()</text>
<text text-anchor="start" x="255" y="-521.5" font-family="Helvetica,sans-Serif" font-size="10.00">+ void SetCircleVelocity()</text>
<text text-anchor="start" x="255" y="-510.5" font-family="Helvetica,sans-Serif" font-size="10.00">+ void SetCircleVelocityMenu()</text>
<text text-anchor="start" x="255" y="-499.5" font-family="Helvetica,sans-Serif" font-size="10.00"># virtual void Start()</text>
<text text-anchor="start" x="255" y="-488.5" font-family="Helvetica,sans-Serif" font-size="10.00"># void Generate()</text>
<text text-anchor="start" x="255" y="-477.5" font-family="Helvetica,sans-Serif" font-size="10.00"># virtual void FixedUpdate()</text>
<text text-anchor="start" x="255" y="-466.5" font-family="Helvetica,sans-Serif" font-size="10.00"># virtual void SetMass()</text>
</a>
</g>
</g>
<!-- Node2&#45;&gt;Node7 -->
<g id="edge8" class="edge">
<title>Node2&#45;&gt;Node7</title>
<path fill="none" stroke="midnightblue" d="M188.52,-1079.34C204.45,-1057.54 223.88,-1028.71 237.5,-1001 240.72,-994.46 243.86,-987.78 246.93,-980.99"/>
<polygon fill="none" stroke="midnightblue" points="185.52,-1077.51 182.39,-1087.63 191.15,-1081.68 185.52,-1077.51"/>
</g>
<!-- Node3&#45;&gt;Node1 -->
<g id="edge2" class="edge">
<title>Node3&#45;&gt;Node1</title>
<path fill="none" stroke="#404040" d="M150.15,-684.83C132.75,-610.56 97.67,-460.82 78.59,-379.36"/>
<polygon fill="none" stroke="#404040" points="78.57,-379.3 73.31,-374.37 75.83,-367.61 81.1,-372.54 78.57,-379.3"/>
<text text-anchor="middle" x="113" y="-433" font-family="Helvetica,sans-Serif" font-size="10.00"> +satellite</text>
</g>
<!-- Node4 -->
<g id="node4" class="node">
<title>Node4</title>
<g id="a_node4"><a xlink:href="class_satellite_1_1_satellite_core.html" target="_top" xlink:title="卫星核心">
<polygon fill="white" stroke="black" points="162.5,-0.5 162.5,-68.5 290.5,-68.5 290.5,-0.5 162.5,-0.5"/>
<text text-anchor="middle" x="226.5" y="-56.5" font-family="Helvetica,sans-Serif" font-size="10.00">Satellite.SatelliteCore</text>
<polyline fill="none" stroke="black" points="162.5,-49.5 290.5,-49.5 "/>
<text text-anchor="middle" x="226.5" y="-37.5" font-family="Helvetica,sans-Serif" font-size="10.00"> </text>
<polyline fill="none" stroke="black" points="162.5,-30.5 290.5,-30.5 "/>
<text text-anchor="start" x="170.5" y="-18.5" font-family="Helvetica,sans-Serif" font-size="10.00">+ override float GetMass()</text>
<text text-anchor="start" x="170.5" y="-7.5" font-family="Helvetica,sans-Serif" font-size="10.00"># void Awake()</text>
</a>
</g>
</g>
<!-- Node3&#45;&gt;Node4 -->
<g id="edge10" class="edge">
<title>Node3&#45;&gt;Node4</title>
<path fill="none" stroke="#404040" d="M155.41,-684.95C146.06,-594.08 129.92,-379.65 162.5,-204 170.62,-160.24 189.47,-113.09 204.62,-79.83"/>
<polygon fill="none" stroke="#404040" points="204.75,-79.55 203.65,-72.43 209.81,-68.67 210.91,-75.8 204.75,-79.55"/>
<text text-anchor="middle" x="184" y="-207" font-family="Helvetica,sans-Serif" font-size="10.00"> +satellite</text>
</g>
<!-- Node4&#45;&gt;Node3 -->
<g id="edge4" class="edge">
<title>Node4&#45;&gt;Node3</title>
<path fill="none" stroke="#404040" d="M223.34,-68.66C212.86,-178.85 179.1,-533.56 165.88,-672.46"/>
<polygon fill="none" stroke="#404040" points="165.84,-672.88 169.25,-679.23 164.7,-684.83 161.29,-678.48 165.84,-672.88"/>
<text text-anchor="middle" x="242.5" y="-207" font-family="Helvetica,sans-Serif" font-size="10.00"> +satelliteCore</text>
</g>
<!-- Node5 -->
<g id="node5" class="node">
<title>Node5</title>
<g id="a_node5"><a xlink:href="class_satellite_1_1_satellite_engine.html" target="_top" xlink:title="卫星引擎">
<polygon fill="white" stroke="black" points="255.5,-106.5 255.5,-185.5 377.5,-185.5 377.5,-106.5 255.5,-106.5"/>
<text text-anchor="middle" x="316.5" y="-173.5" font-family="Helvetica,sans-Serif" font-size="10.00">SatelliteEngine</text>
<polyline fill="none" stroke="black" points="255.5,-166.5 377.5,-166.5 "/>
<text text-anchor="start" x="263.5" y="-154.5" font-family="Helvetica,sans-Serif" font-size="10.00">+ int engineStage</text>
<polyline fill="none" stroke="black" points="255.5,-147.5 377.5,-147.5 "/>
<text text-anchor="start" x="263.5" y="-135.5" font-family="Helvetica,sans-Serif" font-size="10.00">+ void SetCurDirVelocity</text>
<text text-anchor="start" x="263.5" y="-124.5" font-family="Helvetica,sans-Serif" font-size="10.00">(float speed)</text>
<text text-anchor="start" x="263.5" y="-113.5" font-family="Helvetica,sans-Serif" font-size="10.00"># void Awake()</text>
</a>
</g>
</g>
<!-- Node5&#45;&gt;Node4 -->
<g id="edge5" class="edge">
<title>Node5&#45;&gt;Node4</title>
<path fill="none" stroke="midnightblue" d="M278.25,-98.47C270.02,-88.45 261.48,-78.06 253.77,-68.67"/>
<polygon fill="none" stroke="midnightblue" points="275.72,-100.89 284.77,-106.39 281.12,-96.45 275.72,-100.89"/>
</g>
<!-- Node6 -->
<g id="node6" class="node">
<title>Node6</title>
<g id="a_node6"><a xlink:href="class_satellite_1_1_satellite_part.html" target="_top" xlink:title="卫星部件">
<polygon fill="white" stroke="black" points="259,-233.5 259,-411.5 386,-411.5 386,-233.5 259,-233.5"/>
<text text-anchor="middle" x="322.5" y="-399.5" font-family="Helvetica,sans-Serif" font-size="10.00">SatellitePart</text>
<polyline fill="none" stroke="black" points="259,-392.5 386,-392.5 "/>
<text text-anchor="start" x="267" y="-380.5" font-family="Helvetica,sans-Serif" font-size="10.00">+ List&lt; SatellitePart</text>
<text text-anchor="start" x="267" y="-369.5" font-family="Helvetica,sans-Serif" font-size="10.00"> &gt; connectedPartList</text>
<text text-anchor="start" x="267" y="-358.5" font-family="Helvetica,sans-Serif" font-size="10.00">+ string satelliteName</text>
<text text-anchor="start" x="267" y="-347.5" font-family="Helvetica,sans-Serif" font-size="10.00">+ SatelliteType PartType</text>
<polyline fill="none" stroke="black" points="259,-340.5 386,-340.5 "/>
<text text-anchor="start" x="267" y="-328.5" font-family="Helvetica,sans-Serif" font-size="10.00">+ void Push(Vector3 dir)</text>
<text text-anchor="start" x="267" y="-317.5" font-family="Helvetica,sans-Serif" font-size="10.00">+ void Rotate(Vector3 dir)</text>
<text text-anchor="start" x="267" y="-306.5" font-family="Helvetica,sans-Serif" font-size="10.00">+ void GenerateJoint()</text>
<text text-anchor="start" x="267" y="-295.5" font-family="Helvetica,sans-Serif" font-size="10.00">+ void GetPartName()</text>
<text text-anchor="start" x="267" y="-284.5" font-family="Helvetica,sans-Serif" font-size="10.00">+ void Separate(string</text>
<text text-anchor="start" x="267" y="-273.5" font-family="Helvetica,sans-Serif" font-size="10.00"> partName)</text>
<text text-anchor="start" x="267" y="-262.5" font-family="Helvetica,sans-Serif" font-size="10.00">+ void Separate(bool</text>
<text text-anchor="start" x="267" y="-251.5" font-family="Helvetica,sans-Serif" font-size="10.00"> separateAll)</text>
<text text-anchor="start" x="267" y="-240.5" font-family="Helvetica,sans-Serif" font-size="10.00"># override void SetMass()</text>
</a>
</g>
</g>
<!-- Node6&#45;&gt;Node5 -->
<g id="edge6" class="edge">
<title>Node6&#45;&gt;Node5</title>
<path fill="none" stroke="midnightblue" d="M319.12,-223.29C318.67,-210.02 318.22,-197.09 317.83,-185.76"/>
<polygon fill="none" stroke="midnightblue" points="315.63,-223.61 319.47,-233.48 322.63,-223.37 315.63,-223.61"/>
</g>
<!-- Node7&#45;&gt;Node6 -->
<g id="edge7" class="edge">
<title>Node7&#45;&gt;Node6</title>
<path fill="none" stroke="midnightblue" d="M324.05,-449.23C323.89,-436.09 323.73,-423.45 323.59,-411.6"/>
<polygon fill="none" stroke="midnightblue" points="320.55,-449.42 324.18,-459.37 327.55,-449.33 320.55,-449.42"/>
</g>
<!-- Node8 -->
<g id="node8" class="node">
<title>Node8</title>
<g id="a_node8"><a xlink:href="interface_space_physic_1_1_i_traceable.html" target="_top" xlink:title="可追踪接口">
<polygon fill="white" stroke="black" points="247.5,-1038.5 247.5,-1194.5 407.5,-1194.5 407.5,-1038.5 247.5,-1038.5"/>
<text text-anchor="middle" x="327.5" y="-1182.5" font-family="Helvetica,sans-Serif" font-size="10.00">ITraceable</text>
<polyline fill="none" stroke="black" points="247.5,-1175.5 407.5,-1175.5 "/>
<text text-anchor="middle" x="327.5" y="-1163.5" font-family="Helvetica,sans-Serif" font-size="10.00"> </text>
<polyline fill="none" stroke="black" points="247.5,-1156.5 407.5,-1156.5 "/>
<text text-anchor="start" x="255.5" y="-1144.5" font-family="Helvetica,sans-Serif" font-size="10.00">+ Transform GetTransform()</text>
<text text-anchor="start" x="255.5" y="-1133.5" font-family="Helvetica,sans-Serif" font-size="10.00">+ Vector3 GetPosition()</text>
<text text-anchor="start" x="255.5" y="-1122.5" font-family="Helvetica,sans-Serif" font-size="10.00">+ GameObject GetGameObject()</text>
<text text-anchor="start" x="255.5" y="-1111.5" font-family="Helvetica,sans-Serif" font-size="10.00">+ bool GetEnableTracing()</text>
<text text-anchor="start" x="255.5" y="-1100.5" font-family="Helvetica,sans-Serif" font-size="10.00">+ float GetMass()</text>
<text text-anchor="start" x="255.5" y="-1089.5" font-family="Helvetica,sans-Serif" font-size="10.00">+ Rigidbody GetRigidbody()</text>
<text text-anchor="start" x="255.5" y="-1078.5" font-family="Helvetica,sans-Serif" font-size="10.00">+ Vector3 GetVelocity()</text>
<text text-anchor="start" x="255.5" y="-1067.5" font-family="Helvetica,sans-Serif" font-size="10.00">+ List&lt; AstralBody &gt;</text>
<text text-anchor="start" x="255.5" y="-1056.5" font-family="Helvetica,sans-Serif" font-size="10.00"> GetAffectedPlanets()</text>
<text text-anchor="start" x="255.5" y="-1045.5" font-family="Helvetica,sans-Serif" font-size="10.00">+ AstralBody GetAstralBody()</text>
</a>
</g>
</g>
<!-- Node8&#45;&gt;Node7 -->
<g id="edge9" class="edge">
<title>Node8&#45;&gt;Node7</title>
<path fill="none" stroke="midnightblue" d="M327.5,-1028.05C327.5,-1019.27 327.5,-1010.07 327.5,-1000.57"/>
<polygon fill="none" stroke="midnightblue" points="324,-1028.15 327.5,-1038.15 331,-1028.15 324,-1028.15"/>
</g>
</g>
</svg>
