<?xml version="1.0" encoding="UTF-8" standalone="no"?>
<!DOCTYPE svg PUBLIC "-//W3C//DTD SVG 1.1//EN"
 "http://www.w3.org/Graphics/SVG/1.1/DTD/svg11.dtd">
<!-- Generated by graphviz version 2.47.1 (20210417.1919)
 -->
<!-- Title: XmlSaver.SceneEditor.SaveScene Pages: 1 -->
<svg width="320pt" height="78pt"
 viewBox="0.00 0.00 320.00 77.50" xmlns="http://www.w3.org/2000/svg" xmlns:xlink="http://www.w3.org/1999/xlink">
<g id="graph0" class="graph" transform="scale(1 1) rotate(0) translate(4 73.5)">
<title>XmlSaver.SceneEditor.SaveScene</title>
<polygon fill="white" stroke="transparent" points="-4,4 -4,-73.5 316,-73.5 316,4 -4,4"/>
<!-- Node1 -->
<g id="node1" class="node">
<title>Node1</title>
<g id="a_node1"><a xlink:title="保存场景">
<polygon fill="#bfbfbf" stroke="black" points="0,-17 0,-47 137,-47 137,-17 0,-17"/>
<text text-anchor="start" x="8" y="-35" font-family="Helvetica,sans-Serif" font-size="10.00">XmlSaver.SceneEditor.Save</text>
<text text-anchor="middle" x="68.5" y="-24" font-family="Helvetica,sans-Serif" font-size="10.00">Scene</text>
</a>
</g>
</g>
<!-- Node2 -->
<g id="node2" class="node">
<title>Node2</title>
<g id="a_node2"><a xlink:href="class_xml_saver_1_1_xml_saver.html#a004492bfe0f6e4074241457f1817778e" target="_top" xlink:title="将星体群转为XML文档">
<polygon fill="white" stroke="black" points="175.5,-39 175.5,-69 309.5,-69 309.5,-39 175.5,-39"/>
<text text-anchor="start" x="183.5" y="-57" font-family="Helvetica,sans-Serif" font-size="10.00">XmlSaver.XmlSaver.Convert</text>
<text text-anchor="middle" x="242.5" y="-46" font-family="Helvetica,sans-Serif" font-size="10.00">Orbit2Xml</text>
</a>
</g>
</g>
<!-- Node1&#45;&gt;Node2 -->
<g id="edge1" class="edge">
<title>Node1&#45;&gt;Node2</title>
<path fill="none" stroke="midnightblue" d="M137.48,-40.69C146.65,-41.87 156.11,-43.08 165.41,-44.27"/>
<polygon fill="midnightblue" stroke="midnightblue" points="165.06,-47.75 175.42,-45.55 165.94,-40.81 165.06,-47.75"/>
</g>
<!-- Node3 -->
<g id="node3" class="node">
<title>Node3</title>
<g id="a_node3"><a xlink:href="class_xml_saver_1_1_xml_saver.html#a51890e4e8f1a1d320f35a980aadbec6a" target="_top" xlink:title="保存XML">
<polygon fill="white" stroke="black" points="173,-0.5 173,-19.5 312,-19.5 312,-0.5 173,-0.5"/>
<text text-anchor="middle" x="242.5" y="-7.5" font-family="Helvetica,sans-Serif" font-size="10.00">XmlSaver.XmlSaver.SaveXml</text>
</a>
</g>
</g>
<!-- Node1&#45;&gt;Node3 -->
<g id="edge2" class="edge">
<title>Node1&#45;&gt;Node3</title>
<path fill="none" stroke="midnightblue" d="M137.48,-23.31C145.85,-22.23 154.46,-21.13 162.96,-20.05"/>
<polygon fill="midnightblue" stroke="midnightblue" points="163.41,-23.52 172.89,-18.78 162.52,-16.57 163.41,-23.52"/>
</g>
</g>
</svg>
