<?xml version="1.0" encoding="UTF-8" standalone="no"?>
<!DOCTYPE svg PUBLIC "-//W3C//DTD SVG 1.1//EN"
 "http://www.w3.org/Graphics/SVG/1.1/DTD/svg11.dtd">
<!-- Generated by graphviz version 2.47.1 (20210417.1919)
 -->
<!-- Title: Satellite.SatelliteChallengeManger Pages: 1 -->
<svg width="541pt" height="1203pt"
 viewBox="0.00 0.00 540.50 1203.00" xmlns="http://www.w3.org/2000/svg" xmlns:xlink="http://www.w3.org/1999/xlink">
<g id="graph0" class="graph" transform="scale(1 1) rotate(0) translate(4 1199)">
<title>Satellite.SatelliteChallengeManger</title>
<polygon fill="white" stroke="transparent" points="-4,4 -4,-1199 536.5,-1199 536.5,4 -4,4"/>
<!-- Node1 -->
<g id="node1" class="node">
<title>Node1</title>
<g id="a_node1"><a xlink:title="航天挑战管理">
<polygon fill="#bfbfbf" stroke="black" points="99.5,-261 99.5,-384 232.5,-384 232.5,-261 99.5,-261"/>
<text text-anchor="start" x="107.5" y="-372" font-family="Helvetica,sans-Serif" font-size="10.00">Satellite.SatelliteChallenge</text>
<text text-anchor="middle" x="166" y="-361" font-family="Helvetica,sans-Serif" font-size="10.00">Manger</text>
<polyline fill="none" stroke="black" points="99.5,-354 232.5,-354 "/>
<text text-anchor="start" x="107.5" y="-342" font-family="Helvetica,sans-Serif" font-size="10.00">+ float angleThreshold</text>
<text text-anchor="start" x="107.5" y="-331" font-family="Helvetica,sans-Serif" font-size="10.00">+ float checkTime</text>
<text text-anchor="start" x="107.5" y="-320" font-family="Helvetica,sans-Serif" font-size="10.00">+ bool isSuccess</text>
<text text-anchor="start" x="107.5" y="-309" font-family="Helvetica,sans-Serif" font-size="10.00">+ bool isCheckEnd</text>
<text text-anchor="start" x="107.5" y="-298" font-family="Helvetica,sans-Serif" font-size="10.00">+ SatelliteResultType</text>
<text text-anchor="start" x="107.5" y="-287" font-family="Helvetica,sans-Serif" font-size="10.00"> satelliteResultType</text>
<polyline fill="none" stroke="black" points="99.5,-280 232.5,-280 "/>
<text text-anchor="start" x="107.5" y="-268" font-family="Helvetica,sans-Serif" font-size="10.00">+ void CallCheck()</text>
</a>
</g>
</g>
<!-- Node2 -->
<g id="node2" class="node">
<title>Node2</title>
<g id="a_node2"><a xlink:title=" ">
<polygon fill="white" stroke="#bfbfbf" points="151.5,-1088 151.5,-1145 234.5,-1145 234.5,-1088 151.5,-1088"/>
<text text-anchor="middle" x="193" y="-1133" font-family="Helvetica,sans-Serif" font-size="10.00">MonoBehaviour</text>
<polyline fill="none" stroke="#bfbfbf" points="151.5,-1126 234.5,-1126 "/>
<text text-anchor="middle" x="193" y="-1114" font-family="Helvetica,sans-Serif" font-size="10.00"> </text>
<polyline fill="none" stroke="#bfbfbf" points="151.5,-1107 234.5,-1107 "/>
<text text-anchor="middle" x="193" y="-1095" font-family="Helvetica,sans-Serif" font-size="10.00"> </text>
</a>
</g>
</g>
<!-- Node2&#45;&gt;Node1 -->
<g id="edge1" class="edge">
<title>Node2&#45;&gt;Node1</title>
<path fill="none" stroke="midnightblue" d="M189.11,-1077.7C186.96,-1055.41 184.44,-1026.63 183,-1001 170.23,-773.69 167.05,-502.94 166.26,-384.28"/>
<polygon fill="none" stroke="midnightblue" points="185.63,-1078.16 190.09,-1087.77 192.6,-1077.48 185.63,-1078.16"/>
</g>
<!-- Node3 -->
<g id="node3" class="node">
<title>Node3</title>
<g id="a_node3"><a xlink:href="class_space_physic_1_1_astral_body.html" target="_top" xlink:title="星体物理实体">
<polygon fill="white" stroke="black" points="192.5,-459.5 192.5,-1000.5 353.5,-1000.5 353.5,-459.5 192.5,-459.5"/>
<text text-anchor="middle" x="273" y="-988.5" font-family="Helvetica,sans-Serif" font-size="10.00">SpacePhysic.AstralBody</text>
<polyline fill="none" stroke="black" points="192.5,-981.5 353.5,-981.5 "/>
<text text-anchor="start" x="200.5" y="-969.5" font-family="Helvetica,sans-Serif" font-size="10.00">+ List&lt; AstralBody &gt;</text>
<text text-anchor="start" x="200.5" y="-958.5" font-family="Helvetica,sans-Serif" font-size="10.00"> affectedPlanets</text>
<text text-anchor="start" x="200.5" y="-947.5" font-family="Helvetica,sans-Serif" font-size="10.00">+ float affectRadius</text>
<text text-anchor="start" x="200.5" y="-936.5" font-family="Helvetica,sans-Serif" font-size="10.00">+ Vector3 angularVelocity</text>
<text text-anchor="start" x="200.5" y="-925.5" font-family="Helvetica,sans-Serif" font-size="10.00">+ List&lt; AstralBody &gt;</text>
<text text-anchor="start" x="200.5" y="-914.5" font-family="Helvetica,sans-Serif" font-size="10.00"> banAffectedPlanets</text>
<text text-anchor="start" x="200.5" y="-903.5" font-family="Helvetica,sans-Serif" font-size="10.00">+ SphereCollider defaultCollider</text>
<text text-anchor="start" x="200.5" y="-892.5" font-family="Helvetica,sans-Serif" font-size="10.00">+ bool enableAffect</text>
<text text-anchor="start" x="200.5" y="-881.5" font-family="Helvetica,sans-Serif" font-size="10.00">+ bool enableTracing</text>
<text text-anchor="start" x="200.5" y="-870.5" font-family="Helvetica,sans-Serif" font-size="10.00">+ Vector3 oriVelocity</text>
<text text-anchor="start" x="200.5" y="-859.5" font-family="Helvetica,sans-Serif" font-size="10.00">+ SphereCollider triggerCollider</text>
<text text-anchor="start" x="200.5" y="-848.5" font-family="Helvetica,sans-Serif" font-size="10.00">+ UnityEvent&lt; Vector3</text>
<text text-anchor="start" x="200.5" y="-837.5" font-family="Helvetica,sans-Serif" font-size="10.00"> &gt; velocityChangedEvent</text>
<text text-anchor="start" x="200.5" y="-826.5" font-family="Helvetica,sans-Serif" font-size="10.00">+ float? Mass</text>
<text text-anchor="start" x="200.5" y="-815.5" font-family="Helvetica,sans-Serif" font-size="10.00">+ Rigidbody astralBodyRigidbody</text>
<text text-anchor="start" x="200.5" y="-804.5" font-family="Helvetica,sans-Serif" font-size="10.00">+ Vector3 Force</text>
<text text-anchor="start" x="200.5" y="-793.5" font-family="Helvetica,sans-Serif" font-size="10.00">+ float gravity</text>
<text text-anchor="start" x="200.5" y="-782.5" font-family="Helvetica,sans-Serif" font-size="10.00">+ int meshNum</text>
<text text-anchor="start" x="200.5" y="-771.5" font-family="Helvetica,sans-Serif" font-size="10.00">+ float size</text>
<text text-anchor="start" x="200.5" y="-760.5" font-family="Helvetica,sans-Serif" font-size="10.00">+ double realMass</text>
<text text-anchor="start" x="200.5" y="-749.5" font-family="Helvetica,sans-Serif" font-size="10.00">+ double density</text>
<text text-anchor="start" x="200.5" y="-738.5" font-family="Helvetica,sans-Serif" font-size="10.00">+ Vector3 lastVelocity</text>
<text text-anchor="start" x="200.5" y="-727.5" font-family="Helvetica,sans-Serif" font-size="10.00">+ bool isLoadDone</text>
<polyline fill="none" stroke="black" points="192.5,-720.5 353.5,-720.5 "/>
<text text-anchor="start" x="200.5" y="-708.5" font-family="Helvetica,sans-Serif" font-size="10.00">+ virtual void OnCollision</text>
<text text-anchor="start" x="200.5" y="-697.5" font-family="Helvetica,sans-Serif" font-size="10.00">Enter(Collision other)</text>
<text text-anchor="start" x="200.5" y="-686.5" font-family="Helvetica,sans-Serif" font-size="10.00">+ Transform GetTransform()</text>
<text text-anchor="start" x="200.5" y="-675.5" font-family="Helvetica,sans-Serif" font-size="10.00">+ Vector3 GetPosition()</text>
<text text-anchor="start" x="200.5" y="-664.5" font-family="Helvetica,sans-Serif" font-size="10.00">+ GameObject GetGameObject()</text>
<text text-anchor="start" x="200.5" y="-653.5" font-family="Helvetica,sans-Serif" font-size="10.00">+ bool GetEnableTracing()</text>
<text text-anchor="start" x="200.5" y="-642.5" font-family="Helvetica,sans-Serif" font-size="10.00">+ virtual float GetMass()</text>
<text text-anchor="start" x="200.5" y="-631.5" font-family="Helvetica,sans-Serif" font-size="10.00">+ Rigidbody GetRigidbody()</text>
<text text-anchor="start" x="200.5" y="-620.5" font-family="Helvetica,sans-Serif" font-size="10.00">+ Vector3 GetVelocity()</text>
<text text-anchor="start" x="200.5" y="-609.5" font-family="Helvetica,sans-Serif" font-size="10.00">+ List&lt; AstralBody &gt;</text>
<text text-anchor="start" x="200.5" y="-598.5" font-family="Helvetica,sans-Serif" font-size="10.00"> GetAffectedPlanets()</text>
<text text-anchor="start" x="200.5" y="-587.5" font-family="Helvetica,sans-Serif" font-size="10.00">+ AstralBody GetAstralBody()</text>
<text text-anchor="start" x="200.5" y="-576.5" font-family="Helvetica,sans-Serif" font-size="10.00">+ void ChangeVelocity</text>
<text text-anchor="start" x="200.5" y="-565.5" font-family="Helvetica,sans-Serif" font-size="10.00">(Vector3 velocity)</text>
<text text-anchor="start" x="200.5" y="-554.5" font-family="Helvetica,sans-Serif" font-size="10.00">+ void ChangeVelocity</text>
<text text-anchor="start" x="200.5" y="-543.5" font-family="Helvetica,sans-Serif" font-size="10.00">(double realSpeed)</text>
<text text-anchor="start" x="200.5" y="-532.5" font-family="Helvetica,sans-Serif" font-size="10.00">+ Vector3 CalculateForce()</text>
<text text-anchor="start" x="200.5" y="-521.5" font-family="Helvetica,sans-Serif" font-size="10.00">+ void SetCircleVelocity()</text>
<text text-anchor="start" x="200.5" y="-510.5" font-family="Helvetica,sans-Serif" font-size="10.00">+ void SetCircleVelocityMenu()</text>
<text text-anchor="start" x="200.5" y="-499.5" font-family="Helvetica,sans-Serif" font-size="10.00"># virtual void Start()</text>
<text text-anchor="start" x="200.5" y="-488.5" font-family="Helvetica,sans-Serif" font-size="10.00"># void Generate()</text>
<text text-anchor="start" x="200.5" y="-477.5" font-family="Helvetica,sans-Serif" font-size="10.00"># virtual void FixedUpdate()</text>
<text text-anchor="start" x="200.5" y="-466.5" font-family="Helvetica,sans-Serif" font-size="10.00"># virtual void SetMass()</text>
</a>
</g>
</g>
<!-- Node2&#45;&gt;Node3 -->
<g id="edge3" class="edge">
<title>Node2&#45;&gt;Node3</title>
<path fill="none" stroke="midnightblue" d="M200.83,-1077.88C205.05,-1057.61 210.66,-1030.61 216.91,-1000.59"/>
<polygon fill="none" stroke="midnightblue" points="197.36,-1077.34 198.75,-1087.85 204.22,-1078.77 197.36,-1077.34"/>
</g>
<!-- Node5 -->
<g id="node5" class="node">
<title>Node5</title>
<g id="a_node5"><a xlink:href="class_satellite_1_1_satellite.html" target="_top" xlink:title="卫星整体">
<polygon fill="white" stroke="black" points="0,-685 0,-775 136,-775 136,-685 0,-685"/>
<text text-anchor="middle" x="68" y="-763" font-family="Helvetica,sans-Serif" font-size="10.00">Satellite.Satellite</text>
<polyline fill="none" stroke="black" points="0,-756 136,-756 "/>
<text text-anchor="start" x="8" y="-744" font-family="Helvetica,sans-Serif" font-size="10.00">+ List&lt; SatellitePart</text>
<text text-anchor="start" x="8" y="-733" font-family="Helvetica,sans-Serif" font-size="10.00"> &gt; satelliteParts</text>
<polyline fill="none" stroke="black" points="0,-726 136,-726 "/>
<text text-anchor="start" x="8" y="-714" font-family="Helvetica,sans-Serif" font-size="10.00">+ float GetMass()</text>
<text text-anchor="start" x="8" y="-703" font-family="Helvetica,sans-Serif" font-size="10.00">+ Transform GetTransform()</text>
<text text-anchor="start" x="8" y="-692" font-family="Helvetica,sans-Serif" font-size="10.00">+ Vector3 GetVelocity()</text>
</a>
</g>
</g>
<!-- Node2&#45;&gt;Node5 -->
<g id="edge6" class="edge">
<title>Node2&#45;&gt;Node5</title>
<path fill="none" stroke="midnightblue" d="M174.88,-1078.65C166.67,-1061.13 157.2,-1039.75 150,-1020 118.99,-934.99 92.35,-832.46 78.4,-775.21"/>
<polygon fill="none" stroke="midnightblue" points="171.85,-1080.41 179.3,-1087.95 178.17,-1077.41 171.85,-1080.41"/>
</g>
<!-- Node9 -->
<g id="node9" class="node">
<title>Node9</title>
<g id="a_node9"><a xlink:href="class_space_physic_1_1_astral_body.html" target="_top" xlink:title="星体物理实体">
<polygon fill="white" stroke="black" points="371.5,-459.5 371.5,-1000.5 532.5,-1000.5 532.5,-459.5 371.5,-459.5"/>
<text text-anchor="middle" x="452" y="-988.5" font-family="Helvetica,sans-Serif" font-size="10.00">AstralBody</text>
<polyline fill="none" stroke="black" points="371.5,-981.5 532.5,-981.5 "/>
<text text-anchor="start" x="379.5" y="-969.5" font-family="Helvetica,sans-Serif" font-size="10.00">+ List&lt; AstralBody &gt;</text>
<text text-anchor="start" x="379.5" y="-958.5" font-family="Helvetica,sans-Serif" font-size="10.00"> affectedPlanets</text>
<text text-anchor="start" x="379.5" y="-947.5" font-family="Helvetica,sans-Serif" font-size="10.00">+ float affectRadius</text>
<text text-anchor="start" x="379.5" y="-936.5" font-family="Helvetica,sans-Serif" font-size="10.00">+ Vector3 angularVelocity</text>
<text text-anchor="start" x="379.5" y="-925.5" font-family="Helvetica,sans-Serif" font-size="10.00">+ List&lt; AstralBody &gt;</text>
<text text-anchor="start" x="379.5" y="-914.5" font-family="Helvetica,sans-Serif" font-size="10.00"> banAffectedPlanets</text>
<text text-anchor="start" x="379.5" y="-903.5" font-family="Helvetica,sans-Serif" font-size="10.00">+ SphereCollider defaultCollider</text>
<text text-anchor="start" x="379.5" y="-892.5" font-family="Helvetica,sans-Serif" font-size="10.00">+ bool enableAffect</text>
<text text-anchor="start" x="379.5" y="-881.5" font-family="Helvetica,sans-Serif" font-size="10.00">+ bool enableTracing</text>
<text text-anchor="start" x="379.5" y="-870.5" font-family="Helvetica,sans-Serif" font-size="10.00">+ Vector3 oriVelocity</text>
<text text-anchor="start" x="379.5" y="-859.5" font-family="Helvetica,sans-Serif" font-size="10.00">+ SphereCollider triggerCollider</text>
<text text-anchor="start" x="379.5" y="-848.5" font-family="Helvetica,sans-Serif" font-size="10.00">+ UnityEvent&lt; Vector3</text>
<text text-anchor="start" x="379.5" y="-837.5" font-family="Helvetica,sans-Serif" font-size="10.00"> &gt; velocityChangedEvent</text>
<text text-anchor="start" x="379.5" y="-826.5" font-family="Helvetica,sans-Serif" font-size="10.00">+ float? Mass</text>
<text text-anchor="start" x="379.5" y="-815.5" font-family="Helvetica,sans-Serif" font-size="10.00">+ Rigidbody astralBodyRigidbody</text>
<text text-anchor="start" x="379.5" y="-804.5" font-family="Helvetica,sans-Serif" font-size="10.00">+ Vector3 Force</text>
<text text-anchor="start" x="379.5" y="-793.5" font-family="Helvetica,sans-Serif" font-size="10.00">+ float gravity</text>
<text text-anchor="start" x="379.5" y="-782.5" font-family="Helvetica,sans-Serif" font-size="10.00">+ int meshNum</text>
<text text-anchor="start" x="379.5" y="-771.5" font-family="Helvetica,sans-Serif" font-size="10.00">+ float size</text>
<text text-anchor="start" x="379.5" y="-760.5" font-family="Helvetica,sans-Serif" font-size="10.00">+ double realMass</text>
<text text-anchor="start" x="379.5" y="-749.5" font-family="Helvetica,sans-Serif" font-size="10.00">+ double density</text>
<text text-anchor="start" x="379.5" y="-738.5" font-family="Helvetica,sans-Serif" font-size="10.00">+ Vector3 lastVelocity</text>
<text text-anchor="start" x="379.5" y="-727.5" font-family="Helvetica,sans-Serif" font-size="10.00">+ bool isLoadDone</text>
<polyline fill="none" stroke="black" points="371.5,-720.5 532.5,-720.5 "/>
<text text-anchor="start" x="379.5" y="-708.5" font-family="Helvetica,sans-Serif" font-size="10.00">+ virtual void OnCollision</text>
<text text-anchor="start" x="379.5" y="-697.5" font-family="Helvetica,sans-Serif" font-size="10.00">Enter(Collision other)</text>
<text text-anchor="start" x="379.5" y="-686.5" font-family="Helvetica,sans-Serif" font-size="10.00">+ Transform GetTransform()</text>
<text text-anchor="start" x="379.5" y="-675.5" font-family="Helvetica,sans-Serif" font-size="10.00">+ Vector3 GetPosition()</text>
<text text-anchor="start" x="379.5" y="-664.5" font-family="Helvetica,sans-Serif" font-size="10.00">+ GameObject GetGameObject()</text>
<text text-anchor="start" x="379.5" y="-653.5" font-family="Helvetica,sans-Serif" font-size="10.00">+ bool GetEnableTracing()</text>
<text text-anchor="start" x="379.5" y="-642.5" font-family="Helvetica,sans-Serif" font-size="10.00">+ virtual float GetMass()</text>
<text text-anchor="start" x="379.5" y="-631.5" font-family="Helvetica,sans-Serif" font-size="10.00">+ Rigidbody GetRigidbody()</text>
<text text-anchor="start" x="379.5" y="-620.5" font-family="Helvetica,sans-Serif" font-size="10.00">+ Vector3 GetVelocity()</text>
<text text-anchor="start" x="379.5" y="-609.5" font-family="Helvetica,sans-Serif" font-size="10.00">+ List&lt; AstralBody &gt;</text>
<text text-anchor="start" x="379.5" y="-598.5" font-family="Helvetica,sans-Serif" font-size="10.00"> GetAffectedPlanets()</text>
<text text-anchor="start" x="379.5" y="-587.5" font-family="Helvetica,sans-Serif" font-size="10.00">+ AstralBody GetAstralBody()</text>
<text text-anchor="start" x="379.5" y="-576.5" font-family="Helvetica,sans-Serif" font-size="10.00">+ void ChangeVelocity</text>
<text text-anchor="start" x="379.5" y="-565.5" font-family="Helvetica,sans-Serif" font-size="10.00">(Vector3 velocity)</text>
<text text-anchor="start" x="379.5" y="-554.5" font-family="Helvetica,sans-Serif" font-size="10.00">+ void ChangeVelocity</text>
<text text-anchor="start" x="379.5" y="-543.5" font-family="Helvetica,sans-Serif" font-size="10.00">(double realSpeed)</text>
<text text-anchor="start" x="379.5" y="-532.5" font-family="Helvetica,sans-Serif" font-size="10.00">+ Vector3 CalculateForce()</text>
<text text-anchor="start" x="379.5" y="-521.5" font-family="Helvetica,sans-Serif" font-size="10.00">+ void SetCircleVelocity()</text>
<text text-anchor="start" x="379.5" y="-510.5" font-family="Helvetica,sans-Serif" font-size="10.00">+ void SetCircleVelocityMenu()</text>
<text text-anchor="start" x="379.5" y="-499.5" font-family="Helvetica,sans-Serif" font-size="10.00"># virtual void Start()</text>
<text text-anchor="start" x="379.5" y="-488.5" font-family="Helvetica,sans-Serif" font-size="10.00"># void Generate()</text>
<text text-anchor="start" x="379.5" y="-477.5" font-family="Helvetica,sans-Serif" font-size="10.00"># virtual void FixedUpdate()</text>
<text text-anchor="start" x="379.5" y="-466.5" font-family="Helvetica,sans-Serif" font-size="10.00"># virtual void SetMass()</text>
</a>
</g>
</g>
<!-- Node2&#45;&gt;Node9 -->
<g id="edge11" class="edge">
<title>Node2&#45;&gt;Node9</title>
<path fill="none" stroke="midnightblue" d="M239.43,-1081.85C258.88,-1067.99 281.85,-1051.95 303,-1038 329.15,-1020.75 343.59,-1025.59 363,-1001 365.91,-997.32 368.72,-993.54 371.44,-989.68"/>
<polygon fill="none" stroke="midnightblue" points="237.14,-1079.18 231.04,-1087.84 241.21,-1084.87 237.14,-1079.18"/>
</g>
<!-- Node3&#45;&gt;Node1 -->
<g id="edge2" class="edge">
<title>Node3&#45;&gt;Node1</title>
<path fill="none" stroke="#404040" d="M201.85,-459.37C195.82,-436.5 190.12,-414.91 185.12,-395.96"/>
<polygon fill="none" stroke="#404040" points="185.08,-395.81 179.68,-391.03 182.02,-384.2 187.42,-388.98 185.08,-395.81"/>
<text text-anchor="middle" x="212" y="-433" font-family="Helvetica,sans-Serif" font-size="10.00"> +target</text>
</g>
<!-- Node4 -->
<g id="node4" class="node">
<title>Node4</title>
<g id="a_node4"><a xlink:href="interface_space_physic_1_1_i_traceable.html" target="_top" xlink:title="可追踪接口">
<polygon fill="white" stroke="black" points="312,-1038.5 312,-1194.5 472,-1194.5 472,-1038.5 312,-1038.5"/>
<text text-anchor="middle" x="392" y="-1182.5" font-family="Helvetica,sans-Serif" font-size="10.00">ITraceable</text>
<polyline fill="none" stroke="black" points="312,-1175.5 472,-1175.5 "/>
<text text-anchor="middle" x="392" y="-1163.5" font-family="Helvetica,sans-Serif" font-size="10.00"> </text>
<polyline fill="none" stroke="black" points="312,-1156.5 472,-1156.5 "/>
<text text-anchor="start" x="320" y="-1144.5" font-family="Helvetica,sans-Serif" font-size="10.00">+ Transform GetTransform()</text>
<text text-anchor="start" x="320" y="-1133.5" font-family="Helvetica,sans-Serif" font-size="10.00">+ Vector3 GetPosition()</text>
<text text-anchor="start" x="320" y="-1122.5" font-family="Helvetica,sans-Serif" font-size="10.00">+ GameObject GetGameObject()</text>
<text text-anchor="start" x="320" y="-1111.5" font-family="Helvetica,sans-Serif" font-size="10.00">+ bool GetEnableTracing()</text>
<text text-anchor="start" x="320" y="-1100.5" font-family="Helvetica,sans-Serif" font-size="10.00">+ float GetMass()</text>
<text text-anchor="start" x="320" y="-1089.5" font-family="Helvetica,sans-Serif" font-size="10.00">+ Rigidbody GetRigidbody()</text>
<text text-anchor="start" x="320" y="-1078.5" font-family="Helvetica,sans-Serif" font-size="10.00">+ Vector3 GetVelocity()</text>
<text text-anchor="start" x="320" y="-1067.5" font-family="Helvetica,sans-Serif" font-size="10.00">+ List&lt; AstralBody &gt;</text>
<text text-anchor="start" x="320" y="-1056.5" font-family="Helvetica,sans-Serif" font-size="10.00"> GetAffectedPlanets()</text>
<text text-anchor="start" x="320" y="-1045.5" font-family="Helvetica,sans-Serif" font-size="10.00">+ AstralBody GetAstralBody()</text>
</a>
</g>
</g>
<!-- Node4&#45;&gt;Node3 -->
<g id="edge4" class="edge">
<title>Node4&#45;&gt;Node3</title>
<path fill="none" stroke="midnightblue" d="M365.06,-1028.46C361.43,-1016.71 357.55,-1004.2 353.53,-991.21"/>
<polygon fill="none" stroke="midnightblue" points="361.76,-1029.64 368.06,-1038.15 368.45,-1027.57 361.76,-1029.64"/>
</g>
<!-- Node4&#45;&gt;Node9 -->
<g id="edge12" class="edge">
<title>Node4&#45;&gt;Node9</title>
<path fill="none" stroke="midnightblue" d="M405.65,-1028.05C407.02,-1019.27 408.45,-1010.07 409.93,-1000.57"/>
<polygon fill="none" stroke="midnightblue" points="402.15,-1027.73 404.07,-1038.15 409.07,-1028.81 402.15,-1027.73"/>
</g>
<!-- Node5&#45;&gt;Node1 -->
<g id="edge5" class="edge">
<title>Node5&#45;&gt;Node1</title>
<path fill="none" stroke="#404040" d="M68.63,-684.79C70.62,-625.41 78.29,-517.27 107,-430 110.85,-418.28 116.02,-406.38 121.69,-394.97"/>
<polygon fill="none" stroke="#404040" points="121.74,-394.87 120.95,-387.7 127.26,-384.21 128.05,-391.38 121.74,-394.87"/>
<text text-anchor="middle" x="128.5" y="-433" font-family="Helvetica,sans-Serif" font-size="10.00"> +satellite</text>
</g>
<!-- Node6 -->
<g id="node6" class="node">
<title>Node6</title>
<g id="a_node6"><a xlink:href="class_satellite_1_1_satellite_core.html" target="_top" xlink:title="卫星核心">
<polygon fill="white" stroke="black" points="7,-0.5 7,-68.5 135,-68.5 135,-0.5 7,-0.5"/>
<text text-anchor="middle" x="71" y="-56.5" font-family="Helvetica,sans-Serif" font-size="10.00">Satellite.SatelliteCore</text>
<polyline fill="none" stroke="black" points="7,-49.5 135,-49.5 "/>
<text text-anchor="middle" x="71" y="-37.5" font-family="Helvetica,sans-Serif" font-size="10.00"> </text>
<polyline fill="none" stroke="black" points="7,-30.5 135,-30.5 "/>
<text text-anchor="start" x="15" y="-18.5" font-family="Helvetica,sans-Serif" font-size="10.00">+ override float GetMass()</text>
<text text-anchor="start" x="15" y="-7.5" font-family="Helvetica,sans-Serif" font-size="10.00"># void Awake()</text>
</a>
</g>
</g>
<!-- Node5&#45;&gt;Node6 -->
<g id="edge13" class="edge">
<title>Node5&#45;&gt;Node6</title>
<path fill="none" stroke="#404040" d="M57.8,-684.93C38.3,-594.46 -0.28,-381.39 24,-204 29.87,-161.12 43.77,-113.77 54.94,-80.21"/>
<polygon fill="none" stroke="#404040" points="55.05,-79.87 53.19,-72.9 58.91,-68.5 60.77,-75.47 55.05,-79.87"/>
<text text-anchor="middle" x="45.5" y="-207" font-family="Helvetica,sans-Serif" font-size="10.00"> +satellite</text>
</g>
<!-- Node6&#45;&gt;Node5 -->
<g id="edge7" class="edge">
<title>Node6&#45;&gt;Node5</title>
<path fill="none" stroke="#404040" d="M70.86,-68.66C70.38,-178.85 68.85,-533.56 68.24,-672.46"/>
<polygon fill="none" stroke="#404040" points="68.24,-672.83 72.22,-678.85 68.19,-684.83 64.22,-678.81 68.24,-672.83"/>
<text text-anchor="middle" x="103" y="-207" font-family="Helvetica,sans-Serif" font-size="10.00"> +satelliteCore</text>
</g>
<!-- Node7 -->
<g id="node7" class="node">
<title>Node7</title>
<g id="a_node7"><a xlink:href="class_satellite_1_1_satellite_engine.html" target="_top" xlink:title="卫星引擎">
<polygon fill="white" stroke="black" points="137,-106.5 137,-185.5 259,-185.5 259,-106.5 137,-106.5"/>
<text text-anchor="middle" x="198" y="-173.5" font-family="Helvetica,sans-Serif" font-size="10.00">SatelliteEngine</text>
<polyline fill="none" stroke="black" points="137,-166.5 259,-166.5 "/>
<text text-anchor="start" x="145" y="-154.5" font-family="Helvetica,sans-Serif" font-size="10.00">+ int engineStage</text>
<polyline fill="none" stroke="black" points="137,-147.5 259,-147.5 "/>
<text text-anchor="start" x="145" y="-135.5" font-family="Helvetica,sans-Serif" font-size="10.00">+ void SetCurDirVelocity</text>
<text text-anchor="start" x="145" y="-124.5" font-family="Helvetica,sans-Serif" font-size="10.00">(float speed)</text>
<text text-anchor="start" x="145" y="-113.5" font-family="Helvetica,sans-Serif" font-size="10.00"># void Awake()</text>
</a>
</g>
</g>
<!-- Node7&#45;&gt;Node6 -->
<g id="edge8" class="edge">
<title>Node7&#45;&gt;Node6</title>
<path fill="none" stroke="midnightblue" d="M145.41,-99.66C133.37,-89.28 120.79,-78.43 109.48,-68.67"/>
<polygon fill="none" stroke="midnightblue" points="143.37,-102.52 153.22,-106.39 147.94,-97.21 143.37,-102.52"/>
</g>
<!-- Node8 -->
<g id="node8" class="node">
<title>Node8</title>
<g id="a_node8"><a xlink:href="class_satellite_1_1_satellite_part.html" target="_top" xlink:title="卫星部件">
<polygon fill="white" stroke="black" points="255.5,-233.5 255.5,-411.5 382.5,-411.5 382.5,-233.5 255.5,-233.5"/>
<text text-anchor="middle" x="319" y="-399.5" font-family="Helvetica,sans-Serif" font-size="10.00">SatellitePart</text>
<polyline fill="none" stroke="black" points="255.5,-392.5 382.5,-392.5 "/>
<text text-anchor="start" x="263.5" y="-380.5" font-family="Helvetica,sans-Serif" font-size="10.00">+ List&lt; SatellitePart</text>
<text text-anchor="start" x="263.5" y="-369.5" font-family="Helvetica,sans-Serif" font-size="10.00"> &gt; connectedPartList</text>
<text text-anchor="start" x="263.5" y="-358.5" font-family="Helvetica,sans-Serif" font-size="10.00">+ string satelliteName</text>
<text text-anchor="start" x="263.5" y="-347.5" font-family="Helvetica,sans-Serif" font-size="10.00">+ SatelliteType PartType</text>
<polyline fill="none" stroke="black" points="255.5,-340.5 382.5,-340.5 "/>
<text text-anchor="start" x="263.5" y="-328.5" font-family="Helvetica,sans-Serif" font-size="10.00">+ void Push(Vector3 dir)</text>
<text text-anchor="start" x="263.5" y="-317.5" font-family="Helvetica,sans-Serif" font-size="10.00">+ void Rotate(Vector3 dir)</text>
<text text-anchor="start" x="263.5" y="-306.5" font-family="Helvetica,sans-Serif" font-size="10.00">+ void GenerateJoint()</text>
<text text-anchor="start" x="263.5" y="-295.5" font-family="Helvetica,sans-Serif" font-size="10.00">+ void GetPartName()</text>
<text text-anchor="start" x="263.5" y="-284.5" font-family="Helvetica,sans-Serif" font-size="10.00">+ void Separate(string</text>
<text text-anchor="start" x="263.5" y="-273.5" font-family="Helvetica,sans-Serif" font-size="10.00"> partName)</text>
<text text-anchor="start" x="263.5" y="-262.5" font-family="Helvetica,sans-Serif" font-size="10.00">+ void Separate(bool</text>
<text text-anchor="start" x="263.5" y="-251.5" font-family="Helvetica,sans-Serif" font-size="10.00"> separateAll)</text>
<text text-anchor="start" x="263.5" y="-240.5" font-family="Helvetica,sans-Serif" font-size="10.00"># override void SetMass()</text>
</a>
</g>
</g>
<!-- Node8&#45;&gt;Node7 -->
<g id="edge9" class="edge">
<title>Node8&#45;&gt;Node7</title>
<path fill="none" stroke="midnightblue" d="M252.25,-225.24C242.58,-211.29 233.12,-197.65 224.88,-185.76"/>
<polygon fill="none" stroke="midnightblue" points="249.39,-227.26 257.97,-233.48 255.15,-223.27 249.39,-227.26"/>
</g>
<!-- Node9&#45;&gt;Node8 -->
<g id="edge10" class="edge">
<title>Node9&#45;&gt;Node8</title>
<path fill="none" stroke="midnightblue" d="M368.35,-473.96C361.11,-451.9 354.17,-430.72 347.89,-411.57"/>
<polygon fill="none" stroke="midnightblue" points="365.03,-475.06 371.47,-483.47 371.68,-472.88 365.03,-475.06"/>
</g>
</g>
</svg>
