<?xml version="1.0" encoding="UTF-8" standalone="no"?>
<!DOCTYPE svg PUBLIC "-//W3C//DTD SVG 1.1//EN"
 "http://www.w3.org/Graphics/SVG/1.1/DTD/svg11.dtd">
<!-- Generated by graphviz version 2.47.1 (20210417.1919)
 -->
<!-- Title: XmlSaver.SceneLoadBase.Start Pages: 1 -->
<svg width="743pt" height="211pt"
 viewBox="0.00 0.00 743.00 211.00" xmlns="http://www.w3.org/2000/svg" xmlns:xlink="http://www.w3.org/1999/xlink">
<g id="graph0" class="graph" transform="scale(1 1) rotate(0) translate(4 207)">
<title>XmlSaver.SceneLoadBase.Start</title>
<polygon fill="white" stroke="transparent" points="-4,4 -4,-207 739,-207 739,4 -4,4"/>
<!-- Node1 -->
<g id="node1" class="node">
<title>Node1</title>
<g id="a_node1"><a xlink:title=" ">
<polygon fill="#bfbfbf" stroke="black" points="0,-79 0,-98 155,-98 155,-79 0,-79"/>
<text text-anchor="middle" x="77.5" y="-86" font-family="Helvetica,sans-Serif" font-size="10.00">XmlSaver.SceneLoadBase.Start</text>
</a>
</g>
</g>
<!-- Node2 -->
<g id="node2" class="node">
<title>Node2</title>
<g id="a_node2"><a xlink:href="class_game_managers_1_1_game_manager.html#ab809f66044771ece537c01978381610f" target="_top" xlink:title="计算质量缩放">
<polygon fill="white" stroke="black" points="200,-147.5 200,-177.5 355,-177.5 355,-147.5 200,-147.5"/>
<text text-anchor="start" x="208" y="-165.5" font-family="Helvetica,sans-Serif" font-size="10.00">GameManagers.GameManager.</text>
<text text-anchor="middle" x="277.5" y="-154.5" font-family="Helvetica,sans-Serif" font-size="10.00">CalculateMassScales</text>
</a>
</g>
</g>
<!-- Node1&#45;&gt;Node2 -->
<g id="edge1" class="edge">
<title>Node1&#45;&gt;Node2</title>
<path fill="none" stroke="midnightblue" d="M97.66,-98.04C119.78,-108.81 157.42,-126.4 191,-138.5 196.81,-140.59 202.89,-142.62 209.02,-144.55"/>
<polygon fill="midnightblue" stroke="midnightblue" points="208.06,-147.91 218.65,-147.49 210.11,-141.22 208.06,-147.91"/>
</g>
<!-- Node3 -->
<g id="node3" class="node">
<title>Node3</title>
<g id="a_node3"><a xlink:href="class_xml_saver_1_1_scene_load_base.html#a0048dec421f94641813fb6ed80eca811" target="_top" xlink:title=" ">
<polygon fill="white" stroke="black" points="191,-49.5 191,-79.5 364,-79.5 364,-49.5 191,-49.5"/>
<text text-anchor="start" x="199" y="-67.5" font-family="Helvetica,sans-Serif" font-size="10.00">XmlSaver.SceneLoadBase.Generate</text>
<text text-anchor="middle" x="277.5" y="-56.5" font-family="Helvetica,sans-Serif" font-size="10.00">AstralBodiesWithoutPrefab</text>
</a>
</g>
</g>
<!-- Node1&#45;&gt;Node3 -->
<g id="edge2" class="edge">
<title>Node1&#45;&gt;Node3</title>
<path fill="none" stroke="midnightblue" d="M155.05,-79.22C163.5,-78.2 172.18,-77.15 180.82,-76.1"/>
<polygon fill="midnightblue" stroke="midnightblue" points="181.43,-79.55 190.94,-74.87 180.59,-72.6 181.43,-79.55"/>
</g>
<!-- Node10 -->
<g id="node10" class="node">
<title>Node10</title>
<g id="a_node10"><a xlink:href="class_xml_saver_1_1_scene_load_base.html#a0a4b9b672c83faa8953a3ea9e89886de" target="_top" xlink:title=" ">
<polygon fill="white" stroke="black" points="191,-98.5 191,-128.5 364,-128.5 364,-98.5 191,-98.5"/>
<text text-anchor="start" x="199" y="-116.5" font-family="Helvetica,sans-Serif" font-size="10.00">XmlSaver.SceneLoadBase.Generate</text>
<text text-anchor="middle" x="277.5" y="-105.5" font-family="Helvetica,sans-Serif" font-size="10.00">AstralBodiesWithPrefab</text>
</a>
</g>
</g>
<!-- Node1&#45;&gt;Node10 -->
<g id="edge9" class="edge">
<title>Node1&#45;&gt;Node10</title>
<path fill="none" stroke="midnightblue" d="M153.92,-98.02C162.65,-99.13 171.65,-100.26 180.61,-101.39"/>
<polygon fill="midnightblue" stroke="midnightblue" points="180.34,-104.89 190.7,-102.67 181.21,-97.94 180.34,-104.89"/>
</g>
<!-- Node11 -->
<g id="node11" class="node">
<title>Node11</title>
<g id="a_node11"><a xlink:href="class_xml_saver_1_1_scene_load_base.html#add21a8421c2f0287aca508f1fa61d120" target="_top" xlink:title=" ">
<polygon fill="white" stroke="black" points="200,-0.5 200,-30.5 355,-30.5 355,-0.5 200,-0.5"/>
<text text-anchor="start" x="208" y="-18.5" font-family="Helvetica,sans-Serif" font-size="10.00">XmlSaver.SceneLoadBase.Load</text>
<text text-anchor="middle" x="277.5" y="-7.5" font-family="Helvetica,sans-Serif" font-size="10.00">Scene</text>
</a>
</g>
</g>
<!-- Node1&#45;&gt;Node11 -->
<g id="edge11" class="edge">
<title>Node1&#45;&gt;Node11</title>
<path fill="none" stroke="midnightblue" d="M98.08,-78.99C120.27,-68.45 157.69,-51.37 191,-39.5 196.81,-37.43 202.9,-35.42 209.03,-33.5"/>
<polygon fill="midnightblue" stroke="midnightblue" points="210.12,-36.83 218.67,-30.57 208.09,-30.13 210.12,-36.83"/>
</g>
<!-- Node4 -->
<g id="node4" class="node">
<title>Node4</title>
<g id="a_node4"><a xlink:href="class_space_physic_1_1_gravity_tracing.html#a3d63db3c84aef11ca64e85e99d32cbd3" target="_top" xlink:title="增加追踪实体">
<polygon fill="white" stroke="black" points="408.5,-98.5 408.5,-128.5 550.5,-128.5 550.5,-98.5 408.5,-98.5"/>
<text text-anchor="start" x="416.5" y="-116.5" font-family="Helvetica,sans-Serif" font-size="10.00">SpacePhysic.GravityTracing.</text>
<text text-anchor="middle" x="479.5" y="-105.5" font-family="Helvetica,sans-Serif" font-size="10.00">AddTracingTarget</text>
</a>
</g>
</g>
<!-- Node3&#45;&gt;Node4 -->
<g id="edge3" class="edge">
<title>Node3&#45;&gt;Node4</title>
<path fill="none" stroke="midnightblue" d="M339.87,-79.53C361.17,-84.76 385.25,-90.65 407.29,-96.05"/>
<polygon fill="midnightblue" stroke="midnightblue" points="406.7,-99.51 417.25,-98.49 408.37,-92.71 406.7,-99.51"/>
</g>
<!-- Node9 -->
<g id="node9" class="node">
<title>Node9</title>
<g id="a_node9"><a xlink:href="class_xml_saver_1_1_scene_load_base.html#af64d887f786cc6524c2f6a90eb2fa859" target="_top" xlink:title="星体数据处理委托">
<polygon fill="white" stroke="black" points="400,-49.5 400,-79.5 559,-79.5 559,-49.5 400,-49.5"/>
<text text-anchor="start" x="408" y="-67.5" font-family="Helvetica,sans-Serif" font-size="10.00">XmlSaver.SceneLoadBase.Astral</text>
<text text-anchor="middle" x="479.5" y="-56.5" font-family="Helvetica,sans-Serif" font-size="10.00">BodyDataDictProcessHandler</text>
</a>
</g>
</g>
<!-- Node3&#45;&gt;Node9 -->
<g id="edge8" class="edge">
<title>Node3&#45;&gt;Node9</title>
<path fill="none" stroke="midnightblue" d="M364.19,-64.5C372.63,-64.5 381.21,-64.5 389.68,-64.5"/>
<polygon fill="midnightblue" stroke="midnightblue" points="389.95,-68 399.95,-64.5 389.95,-61 389.95,-68"/>
</g>
<!-- Node5 -->
<g id="node5" class="node">
<title>Node5</title>
<g id="a_node5"><a xlink:href="interface_space_physic_1_1_i_traceable.html#ac1691c3526225e0c42f1cfc696605730" target="_top" xlink:title=" ">
<polygon fill="white" stroke="black" points="595,-172.5 595,-202.5 735,-202.5 735,-172.5 595,-172.5"/>
<text text-anchor="start" x="603" y="-190.5" font-family="Helvetica,sans-Serif" font-size="10.00">SpacePhysic.ITraceable.Get</text>
<text text-anchor="middle" x="665" y="-179.5" font-family="Helvetica,sans-Serif" font-size="10.00">EnableTracing</text>
</a>
</g>
</g>
<!-- Node4&#45;&gt;Node5 -->
<g id="edge4" class="edge">
<title>Node4&#45;&gt;Node5</title>
<path fill="none" stroke="midnightblue" d="M513.29,-128.62C536.03,-138.91 567.13,-152.59 595,-163.5 599.68,-165.33 604.56,-167.17 609.47,-168.97"/>
<polygon fill="midnightblue" stroke="midnightblue" points="608.31,-172.27 618.91,-172.38 610.69,-165.69 608.31,-172.27"/>
</g>
<!-- Node6 -->
<g id="node6" class="node">
<title>Node6</title>
<g id="a_node6"><a xlink:href="interface_space_physic_1_1_i_traceable.html#aa78b28ab82f702a832d0004bd13eb227" target="_top" xlink:title=" ">
<polygon fill="white" stroke="black" points="595,-123.5 595,-153.5 735,-153.5 735,-123.5 595,-123.5"/>
<text text-anchor="start" x="603" y="-141.5" font-family="Helvetica,sans-Serif" font-size="10.00">SpacePhysic.ITraceable.Get</text>
<text text-anchor="middle" x="665" y="-130.5" font-family="Helvetica,sans-Serif" font-size="10.00">Rigidbody</text>
</a>
</g>
</g>
<!-- Node4&#45;&gt;Node6 -->
<g id="edge5" class="edge">
<title>Node4&#45;&gt;Node6</title>
<path fill="none" stroke="midnightblue" d="M550.66,-123.06C561.85,-124.58 573.49,-126.17 584.87,-127.72"/>
<polygon fill="midnightblue" stroke="midnightblue" points="584.41,-131.19 594.79,-129.07 585.35,-124.25 584.41,-131.19"/>
</g>
<!-- Node7 -->
<g id="node7" class="node">
<title>Node7</title>
<g id="a_node7"><a xlink:href="interface_space_physic_1_1_i_traceable.html#a53c8890effec964fa2245908e79016c4" target="_top" xlink:title=" ">
<polygon fill="white" stroke="black" points="595,-74.5 595,-104.5 735,-104.5 735,-74.5 595,-74.5"/>
<text text-anchor="start" x="603" y="-92.5" font-family="Helvetica,sans-Serif" font-size="10.00">SpacePhysic.ITraceable.Get</text>
<text text-anchor="middle" x="665" y="-81.5" font-family="Helvetica,sans-Serif" font-size="10.00">Transform</text>
</a>
</g>
</g>
<!-- Node4&#45;&gt;Node7 -->
<g id="edge6" class="edge">
<title>Node4&#45;&gt;Node7</title>
<path fill="none" stroke="midnightblue" d="M550.66,-104.32C561.74,-102.88 573.26,-101.37 584.53,-99.89"/>
<polygon fill="midnightblue" stroke="midnightblue" points="585.33,-103.32 594.79,-98.55 584.42,-96.38 585.33,-103.32"/>
</g>
<!-- Node8 -->
<g id="node8" class="node">
<title>Node8</title>
<g id="a_node8"><a xlink:href="interface_space_physic_1_1_i_traceable.html#a8c908476fbe6acf4aaf2e7594537dddb" target="_top" xlink:title=" ">
<polygon fill="white" stroke="black" points="595,-25.5 595,-55.5 735,-55.5 735,-25.5 595,-25.5"/>
<text text-anchor="start" x="603" y="-43.5" font-family="Helvetica,sans-Serif" font-size="10.00">SpacePhysic.ITraceable.Get</text>
<text text-anchor="middle" x="665" y="-32.5" font-family="Helvetica,sans-Serif" font-size="10.00">Velocity</text>
</a>
</g>
</g>
<!-- Node4&#45;&gt;Node8 -->
<g id="edge7" class="edge">
<title>Node4&#45;&gt;Node8</title>
<path fill="none" stroke="midnightblue" d="M537,-98.41C544.53,-95.77 552.05,-92.79 559,-89.5 576.38,-81.27 577.84,-74.17 595,-65.5 599.25,-63.35 603.74,-61.3 608.29,-59.35"/>
<polygon fill="midnightblue" stroke="midnightblue" points="609.75,-62.54 617.7,-55.53 607.11,-56.06 609.75,-62.54"/>
</g>
<!-- Node10&#45;&gt;Node4 -->
<g id="edge10" class="edge">
<title>Node10&#45;&gt;Node4</title>
<path fill="none" stroke="midnightblue" d="M364.19,-113.5C375.47,-113.5 387,-113.5 398.19,-113.5"/>
<polygon fill="midnightblue" stroke="midnightblue" points="398.35,-117 408.35,-113.5 398.35,-110 398.35,-117"/>
</g>
</g>
</svg>
