<?xml version="1.0" encoding="UTF-8" standalone="no"?>
<!DOCTYPE svg PUBLIC "-//W3C//DTD SVG 1.1//EN"
 "http://www.w3.org/Graphics/SVG/1.1/DTD/svg11.dtd">
<!-- Generated by graphviz version 2.47.1 (20210417.1919)
 -->
<!-- Title: Quiz.QuizSolver Pages: 1 -->
<svg width="451pt" height="2117pt"
 viewBox="0.00 0.00 451.23 2117.00" xmlns="http://www.w3.org/2000/svg" xmlns:xlink="http://www.w3.org/1999/xlink">
<g id="graph0" class="graph" transform="scale(1 1) rotate(0) translate(4 2113)">
<title>Quiz.QuizSolver</title>
<polygon fill="white" stroke="transparent" points="-4,4 -4,-2113 447.23,-2113 447.23,4 -4,4"/>
<!-- Node1 -->
<g id="node1" class="node">
<title>Node1</title>
<g id="a_node1"><a xlink:title="解题管理">
<polygon fill="#bfbfbf" stroke="black" points="56.73,-171.5 56.73,-316.5 192.73,-316.5 192.73,-171.5 56.73,-171.5"/>
<text text-anchor="middle" x="124.73" y="-304.5" font-family="Helvetica,sans-Serif" font-size="10.00">Quiz.QuizSolver</text>
<polyline fill="none" stroke="black" points="56.73,-297.5 192.73,-297.5 "/>
<text text-anchor="start" x="64.73" y="-285.5" font-family="Helvetica,sans-Serif" font-size="10.00">+ UnityEvent answerEvent</text>
<text text-anchor="start" x="64.73" y="-274.5" font-family="Helvetica,sans-Serif" font-size="10.00">+ float radiusOffset</text>
<text text-anchor="start" x="64.73" y="-263.5" font-family="Helvetica,sans-Serif" font-size="10.00">+ UnityEvent resultEvent</text>
<text text-anchor="start" x="64.73" y="-252.5" font-family="Helvetica,sans-Serif" font-size="10.00">+ float waitTime</text>
<text text-anchor="start" x="64.73" y="-241.5" font-family="Helvetica,sans-Serif" font-size="10.00">+ bool isRight</text>
<text text-anchor="start" x="64.73" y="-230.5" font-family="Helvetica,sans-Serif" font-size="10.00">+ float tmpAnswer</text>
<text text-anchor="start" x="64.73" y="-219.5" font-family="Helvetica,sans-Serif" font-size="10.00">+ Reason reason</text>
<text text-anchor="start" x="64.73" y="-208.5" font-family="Helvetica,sans-Serif" font-size="10.00">+ bool isAnswered</text>
<polyline fill="none" stroke="black" points="56.73,-201.5 192.73,-201.5 "/>
<text text-anchor="start" x="64.73" y="-189.5" font-family="Helvetica,sans-Serif" font-size="10.00">+ string GetQuizSentence()</text>
<text text-anchor="start" x="64.73" y="-178.5" font-family="Helvetica,sans-Serif" font-size="10.00"># override void Start()</text>
</a>
</g>
</g>
<!-- Node7 -->
<g id="node7" class="node">
<title>Node7</title>
<g id="a_node7"><a xlink:href="class_custom_u_i_1_1_quiz_1_1_quiz_u_i.html" target="_top" xlink:title=" ">
<polygon fill="white" stroke="black" points="192.73,-0.5 192.73,-101.5 314.73,-101.5 314.73,-0.5 192.73,-0.5"/>
<text text-anchor="middle" x="253.73" y="-89.5" font-family="Helvetica,sans-Serif" font-size="10.00">CustomUI.Quiz.QuizUI</text>
<polyline fill="none" stroke="black" points="192.73,-82.5 314.73,-82.5 "/>
<text text-anchor="start" x="200.73" y="-70.5" font-family="Helvetica,sans-Serif" font-size="10.00">+ Button confirm</text>
<text text-anchor="start" x="200.73" y="-59.5" font-family="Helvetica,sans-Serif" font-size="10.00">+ Slider quizSlider</text>
<text text-anchor="start" x="200.73" y="-48.5" font-family="Helvetica,sans-Serif" font-size="10.00">+ QuizType quizType</text>
<polyline fill="none" stroke="black" points="192.73,-41.5 314.73,-41.5 "/>
<text text-anchor="start" x="200.73" y="-29.5" font-family="Helvetica,sans-Serif" font-size="10.00">+ void Generate()</text>
<text text-anchor="start" x="200.73" y="-18.5" font-family="Helvetica,sans-Serif" font-size="10.00">+ void OnValueChange()</text>
<text text-anchor="start" x="200.73" y="-7.5" font-family="Helvetica,sans-Serif" font-size="10.00">+ void Confirm()</text>
</a>
</g>
</g>
<!-- Node1&#45;&gt;Node7 -->
<g id="edge9" class="edge">
<title>Node1&#45;&gt;Node7</title>
<path fill="none" stroke="#404040" d="M111.4,-171.5C111.39,-153.64 114.49,-135.25 123.73,-120 136.71,-98.57 158.91,-83.56 181.33,-73.21"/>
<polygon fill="none" stroke="#404040" points="181.64,-73.08 185.58,-67.04 192.67,-68.36 188.73,-74.4 181.64,-73.08"/>
<text text-anchor="middle" x="150.73" y="-134" font-family="Helvetica,sans-Serif" font-size="10.00"> +quizSolver</text>
</g>
<!-- Node2 -->
<g id="node2" class="node">
<title>Node2</title>
<g id="a_node2"><a xlink:href="class_quiz_1_1_quiz_base.html" target="_top" xlink:title="问题管理">
<polygon fill="white" stroke="black" points="14.23,-354.5 14.23,-532.5 225.23,-532.5 225.23,-354.5 14.23,-354.5"/>
<text text-anchor="middle" x="119.73" y="-520.5" font-family="Helvetica,sans-Serif" font-size="10.00">QuizBase</text>
<polyline fill="none" stroke="black" points="14.23,-513.5 225.23,-513.5 "/>
<text text-anchor="start" x="22.23" y="-501.5" font-family="Helvetica,sans-Serif" font-size="10.00">+ float answer</text>
<text text-anchor="start" x="22.23" y="-490.5" font-family="Helvetica,sans-Serif" font-size="10.00">+ QuizType quizType</text>
<text text-anchor="start" x="22.23" y="-479.5" font-family="Helvetica,sans-Serif" font-size="10.00">+ QuizAstralBody target</text>
<polyline fill="none" stroke="black" points="14.23,-472.5 225.23,-472.5 "/>
<text text-anchor="start" x="22.23" y="-460.5" font-family="Helvetica,sans-Serif" font-size="10.00"># override void Start()</text>
<text text-anchor="start" x="22.23" y="-449.5" font-family="Helvetica,sans-Serif" font-size="10.00"># override void GenerateAstral</text>
<text text-anchor="start" x="22.23" y="-438.5" font-family="Helvetica,sans-Serif" font-size="10.00">BodiesWithPrefab()</text>
<text text-anchor="start" x="22.23" y="-427.5" font-family="Helvetica,sans-Serif" font-size="10.00"># override void GenerateAstral</text>
<text text-anchor="start" x="22.23" y="-416.5" font-family="Helvetica,sans-Serif" font-size="10.00">BodiesWithoutPrefab(AstralBodyData</text>
<text text-anchor="start" x="22.23" y="-405.5" font-family="Helvetica,sans-Serif" font-size="10.00">DictProcessHandler dataDictProcessHandler</text>
<text text-anchor="start" x="22.23" y="-394.5" font-family="Helvetica,sans-Serif" font-size="10.00">=null, AstralBodyDataDictProcessHandler</text>
<text text-anchor="start" x="22.23" y="-383.5" font-family="Helvetica,sans-Serif" font-size="10.00"> afterDictProcessHandler=null)</text>
<text text-anchor="start" x="22.23" y="-372.5" font-family="Helvetica,sans-Serif" font-size="10.00"># override void LoadScene</text>
<text text-anchor="start" x="22.23" y="-361.5" font-family="Helvetica,sans-Serif" font-size="10.00">(string fileName)</text>
</a>
</g>
</g>
<!-- Node2&#45;&gt;Node1 -->
<g id="edge1" class="edge">
<title>Node2&#45;&gt;Node1</title>
<path fill="none" stroke="midnightblue" d="M122.21,-344.32C122.45,-334.98 122.69,-325.63 122.92,-316.61"/>
<polygon fill="none" stroke="midnightblue" points="118.71,-344.35 121.96,-354.44 125.71,-344.53 118.71,-344.35"/>
</g>
<!-- Node3 -->
<g id="node3" class="node">
<title>Node3</title>
<g id="a_node3"><a xlink:href="class_xml_saver_1_1_scene_load_base.html" target="_top" xlink:title=" ">
<polygon fill="white" stroke="black" points="14.23,-580.5 14.23,-923.5 225.23,-923.5 225.23,-580.5 14.23,-580.5"/>
<text text-anchor="start" x="22.23" y="-911.5" font-family="Helvetica,sans-Serif" font-size="10.00">SceneLoadBase&lt; QuizAstral</text>
<text text-anchor="middle" x="119.73" y="-900.5" font-family="Helvetica,sans-Serif" font-size="10.00">Body &gt;</text>
<polyline fill="none" stroke="black" points="14.23,-893.5 225.23,-893.5 "/>
<text text-anchor="start" x="22.23" y="-881.5" font-family="Helvetica,sans-Serif" font-size="10.00">+ T astralBodyPrefab</text>
<text text-anchor="start" x="22.23" y="-870.5" font-family="Helvetica,sans-Serif" font-size="10.00">+ T core</text>
<text text-anchor="start" x="22.23" y="-859.5" font-family="Helvetica,sans-Serif" font-size="10.00">+ bool isLoadByPrefab</text>
<text text-anchor="start" x="22.23" y="-848.5" font-family="Helvetica,sans-Serif" font-size="10.00">+ UnityEvent loadDoneEvent</text>
<text text-anchor="start" x="22.23" y="-837.5" font-family="Helvetica,sans-Serif" font-size="10.00">+ string loadTarget</text>
<text text-anchor="start" x="22.23" y="-826.5" font-family="Helvetica,sans-Serif" font-size="10.00">+ GravityTracing orbitBase</text>
<text text-anchor="start" x="22.23" y="-815.5" font-family="Helvetica,sans-Serif" font-size="10.00">+ Transform OrbitRoot</text>
<text text-anchor="start" x="22.23" y="-804.5" font-family="Helvetica,sans-Serif" font-size="10.00">+ bool isLoadDone</text>
<text text-anchor="start" x="22.23" y="-793.5" font-family="Helvetica,sans-Serif" font-size="10.00"># List&lt; AstralBodyDict</text>
<text text-anchor="start" x="22.23" y="-782.5" font-family="Helvetica,sans-Serif" font-size="10.00">&lt; T &gt; &gt; astralBodiesDict</text>
<text text-anchor="start" x="22.23" y="-771.5" font-family="Helvetica,sans-Serif" font-size="10.00"># List&lt; AstralBodyDataDict</text>
<text text-anchor="start" x="22.23" y="-760.5" font-family="Helvetica,sans-Serif" font-size="10.00">&lt; T &gt; &gt; _astralBodyStructDictList</text>
<polyline fill="none" stroke="black" points="14.23,-753.5 225.23,-753.5 "/>
<text text-anchor="start" x="22.23" y="-741.5" font-family="Helvetica,sans-Serif" font-size="10.00"># delegate void AstralBody</text>
<text text-anchor="start" x="22.23" y="-730.5" font-family="Helvetica,sans-Serif" font-size="10.00">DataDictProcessHandler</text>
<text text-anchor="start" x="22.23" y="-719.5" font-family="Helvetica,sans-Serif" font-size="10.00">(T prefab, AstralBodyDataDict</text>
<text text-anchor="start" x="22.23" y="-708.5" font-family="Helvetica,sans-Serif" font-size="10.00">&lt; T &gt; astralBodyDataDict, List</text>
<text text-anchor="start" x="22.23" y="-697.5" font-family="Helvetica,sans-Serif" font-size="10.00">&lt; AstralBodyDict&lt; T &gt;&gt; astralBodyDictList)</text>
<text text-anchor="start" x="22.23" y="-686.5" font-family="Helvetica,sans-Serif" font-size="10.00"># virtual void Start()</text>
<text text-anchor="start" x="22.23" y="-675.5" font-family="Helvetica,sans-Serif" font-size="10.00"># virtual void LoadScene</text>
<text text-anchor="start" x="22.23" y="-664.5" font-family="Helvetica,sans-Serif" font-size="10.00">(string fileName)</text>
<text text-anchor="start" x="22.23" y="-653.5" font-family="Helvetica,sans-Serif" font-size="10.00"># virtual void GenerateAstral</text>
<text text-anchor="start" x="22.23" y="-642.5" font-family="Helvetica,sans-Serif" font-size="10.00">BodiesWithPrefab()</text>
<text text-anchor="start" x="22.23" y="-631.5" font-family="Helvetica,sans-Serif" font-size="10.00"># virtual void GenerateAstral</text>
<text text-anchor="start" x="22.23" y="-620.5" font-family="Helvetica,sans-Serif" font-size="10.00">BodiesWithoutPrefab(AstralBodyData</text>
<text text-anchor="start" x="22.23" y="-609.5" font-family="Helvetica,sans-Serif" font-size="10.00">DictProcessHandler dataDictProcessHandler</text>
<text text-anchor="start" x="22.23" y="-598.5" font-family="Helvetica,sans-Serif" font-size="10.00">=null, AstralBodyDataDictProcessHandler</text>
<text text-anchor="start" x="22.23" y="-587.5" font-family="Helvetica,sans-Serif" font-size="10.00"> afterDictProcessHandler=null)</text>
</a>
</g>
</g>
<!-- Node3&#45;&gt;Node2 -->
<g id="edge2" class="edge">
<title>Node3&#45;&gt;Node2</title>
<path fill="none" stroke="midnightblue" d="M119.73,-569.97C119.73,-557.18 119.73,-544.65 119.73,-532.77"/>
<polygon fill="none" stroke="midnightblue" points="116.23,-570.27 119.73,-580.27 123.23,-570.27 116.23,-570.27"/>
</g>
<!-- Node4 -->
<g id="node4" class="node">
<title>Node4</title>
<g id="a_node4"><a xlink:href="class_xml_saver_1_1_scene_load_base.html" target="_top" xlink:title="存档加载管理">
<polygon fill="white" stroke="black" points="14.23,-971.5 14.23,-1292.5 225.23,-1292.5 225.23,-971.5 14.23,-971.5"/>
<text text-anchor="middle" x="119.73" y="-1280.5" font-family="Helvetica,sans-Serif" font-size="10.00">XmlSaver.SceneLoadBase&lt; T &gt;</text>
<polyline fill="none" stroke="black" points="14.23,-1273.5 225.23,-1273.5 "/>
<text text-anchor="start" x="22.23" y="-1261.5" font-family="Helvetica,sans-Serif" font-size="10.00">+ T astralBodyPrefab</text>
<text text-anchor="start" x="22.23" y="-1250.5" font-family="Helvetica,sans-Serif" font-size="10.00">+ T core</text>
<text text-anchor="start" x="22.23" y="-1239.5" font-family="Helvetica,sans-Serif" font-size="10.00">+ bool isLoadByPrefab</text>
<text text-anchor="start" x="22.23" y="-1228.5" font-family="Helvetica,sans-Serif" font-size="10.00">+ UnityEvent loadDoneEvent</text>
<text text-anchor="start" x="22.23" y="-1217.5" font-family="Helvetica,sans-Serif" font-size="10.00">+ string loadTarget</text>
<text text-anchor="start" x="22.23" y="-1206.5" font-family="Helvetica,sans-Serif" font-size="10.00">+ Transform OrbitRoot</text>
<text text-anchor="start" x="22.23" y="-1195.5" font-family="Helvetica,sans-Serif" font-size="10.00">+ bool isLoadDone</text>
<text text-anchor="start" x="22.23" y="-1184.5" font-family="Helvetica,sans-Serif" font-size="10.00"># List&lt; AstralBodyDict</text>
<text text-anchor="start" x="22.23" y="-1173.5" font-family="Helvetica,sans-Serif" font-size="10.00">&lt; T &gt; &gt; astralBodiesDict</text>
<text text-anchor="start" x="22.23" y="-1162.5" font-family="Helvetica,sans-Serif" font-size="10.00"># List&lt; AstralBodyDataDict</text>
<text text-anchor="start" x="22.23" y="-1151.5" font-family="Helvetica,sans-Serif" font-size="10.00">&lt; T &gt; &gt; _astralBodyStructDictList</text>
<polyline fill="none" stroke="black" points="14.23,-1144.5 225.23,-1144.5 "/>
<text text-anchor="start" x="22.23" y="-1132.5" font-family="Helvetica,sans-Serif" font-size="10.00"># delegate void AstralBody</text>
<text text-anchor="start" x="22.23" y="-1121.5" font-family="Helvetica,sans-Serif" font-size="10.00">DataDictProcessHandler</text>
<text text-anchor="start" x="22.23" y="-1110.5" font-family="Helvetica,sans-Serif" font-size="10.00">(T prefab, AstralBodyDataDict</text>
<text text-anchor="start" x="22.23" y="-1099.5" font-family="Helvetica,sans-Serif" font-size="10.00">&lt; T &gt; astralBodyDataDict, List</text>
<text text-anchor="start" x="22.23" y="-1088.5" font-family="Helvetica,sans-Serif" font-size="10.00">&lt; AstralBodyDict&lt; T &gt;&gt; astralBodyDictList)</text>
<text text-anchor="start" x="22.23" y="-1077.5" font-family="Helvetica,sans-Serif" font-size="10.00"># virtual void Start()</text>
<text text-anchor="start" x="22.23" y="-1066.5" font-family="Helvetica,sans-Serif" font-size="10.00"># virtual void LoadScene</text>
<text text-anchor="start" x="22.23" y="-1055.5" font-family="Helvetica,sans-Serif" font-size="10.00">(string fileName)</text>
<text text-anchor="start" x="22.23" y="-1044.5" font-family="Helvetica,sans-Serif" font-size="10.00"># virtual void GenerateAstral</text>
<text text-anchor="start" x="22.23" y="-1033.5" font-family="Helvetica,sans-Serif" font-size="10.00">BodiesWithPrefab()</text>
<text text-anchor="start" x="22.23" y="-1022.5" font-family="Helvetica,sans-Serif" font-size="10.00"># virtual void GenerateAstral</text>
<text text-anchor="start" x="22.23" y="-1011.5" font-family="Helvetica,sans-Serif" font-size="10.00">BodiesWithoutPrefab(AstralBodyData</text>
<text text-anchor="start" x="22.23" y="-1000.5" font-family="Helvetica,sans-Serif" font-size="10.00">DictProcessHandler dataDictProcessHandler</text>
<text text-anchor="start" x="22.23" y="-989.5" font-family="Helvetica,sans-Serif" font-size="10.00">=null, AstralBodyDataDictProcessHandler</text>
<text text-anchor="start" x="22.23" y="-978.5" font-family="Helvetica,sans-Serif" font-size="10.00"> afterDictProcessHandler=null)</text>
</a>
</g>
</g>
<!-- Node4&#45;&gt;Node3 -->
<g id="edge3" class="edge">
<title>Node4&#45;&gt;Node3</title>
<path fill="none" stroke="orange" d="M119.73,-960.89C119.73,-948.54 119.73,-936.07 119.73,-923.71"/>
<polygon fill="orange" stroke="orange" points="116.23,-961.24 119.73,-971.24 123.23,-961.24 116.23,-961.24"/>
<text text-anchor="middle" x="164.73" y="-945" font-family="Helvetica,sans-Serif" font-size="10.00"> &lt; QuizAstralBody &gt;</text>
</g>
<!-- Node5 -->
<g id="node5" class="node">
<title>Node5</title>
<g id="a_node5"><a xlink:title=" ">
<polygon fill="white" stroke="#bfbfbf" points="141.23,-2002 141.23,-2059 224.23,-2059 224.23,-2002 141.23,-2002"/>
<text text-anchor="middle" x="182.73" y="-2047" font-family="Helvetica,sans-Serif" font-size="10.00">MonoBehaviour</text>
<polyline fill="none" stroke="#bfbfbf" points="141.23,-2040 224.23,-2040 "/>
<text text-anchor="middle" x="182.73" y="-2028" font-family="Helvetica,sans-Serif" font-size="10.00"> </text>
<polyline fill="none" stroke="#bfbfbf" points="141.23,-2021 224.23,-2021 "/>
<text text-anchor="middle" x="182.73" y="-2009" font-family="Helvetica,sans-Serif" font-size="10.00"> </text>
</a>
</g>
</g>
<!-- Node5&#45;&gt;Node4 -->
<g id="edge4" class="edge">
<title>Node5&#45;&gt;Node4</title>
<path fill="none" stroke="midnightblue" d="M132.42,-2001.17C102.63,-1981.33 67.52,-1951.8 50.73,-1915 -40.59,-1714.91 10.64,-1456.34 60.99,-1292.53"/>
<polygon fill="none" stroke="midnightblue" points="130.77,-2004.27 141.07,-2006.77 134.57,-1998.4 130.77,-2004.27"/>
</g>
<!-- Node6 -->
<g id="node6" class="node">
<title>Node6</title>
<g id="a_node6"><a xlink:href="class_space_physic_1_1_gravity_tracing.html" target="_top" xlink:title="引力追踪">
<polygon fill="white" stroke="black" points="60.23,-1516.5 60.23,-1738.5 225.23,-1738.5 225.23,-1516.5 60.23,-1516.5"/>
<text text-anchor="middle" x="142.73" y="-1726.5" font-family="Helvetica,sans-Serif" font-size="10.00">SpacePhysic.GravityTracing</text>
<polyline fill="none" stroke="black" points="60.23,-1719.5 225.23,-1719.5 "/>
<text text-anchor="start" x="68.23" y="-1707.5" font-family="Helvetica,sans-Serif" font-size="10.00">+ int sample</text>
<text text-anchor="start" x="68.23" y="-1696.5" font-family="Helvetica,sans-Serif" font-size="10.00">+ float timeScale</text>
<text text-anchor="start" x="68.23" y="-1685.5" font-family="Helvetica,sans-Serif" font-size="10.00">+ SplineComputer splineComputer</text>
<text text-anchor="start" x="68.23" y="-1674.5" font-family="Helvetica,sans-Serif" font-size="10.00">+ bool isFreezing</text>
<text text-anchor="start" x="68.23" y="-1663.5" font-family="Helvetica,sans-Serif" font-size="10.00">+ bool isShowOrbit</text>
<polyline fill="none" stroke="black" points="60.23,-1656.5 225.23,-1656.5 "/>
<text text-anchor="start" x="68.23" y="-1644.5" font-family="Helvetica,sans-Serif" font-size="10.00">+ void Awake()</text>
<text text-anchor="start" x="68.23" y="-1633.5" font-family="Helvetica,sans-Serif" font-size="10.00">+ void Dispatch()</text>
<text text-anchor="start" x="68.23" y="-1622.5" font-family="Helvetica,sans-Serif" font-size="10.00">+ void AddTracingTarget</text>
<text text-anchor="start" x="68.23" y="-1611.5" font-family="Helvetica,sans-Serif" font-size="10.00">(ITraceable traceable)</text>
<text text-anchor="start" x="68.23" y="-1600.5" font-family="Helvetica,sans-Serif" font-size="10.00">+ void Freeze(bool isFreezing)</text>
<text text-anchor="start" x="68.23" y="-1589.5" font-family="Helvetica,sans-Serif" font-size="10.00">+ void RemoveAstralBody</text>
<text text-anchor="start" x="68.23" y="-1578.5" font-family="Helvetica,sans-Serif" font-size="10.00">(AstralBody astralBody)</text>
<text text-anchor="start" x="68.23" y="-1567.5" font-family="Helvetica,sans-Serif" font-size="10.00">+ ConicSection GetConicSection</text>
<text text-anchor="start" x="68.23" y="-1556.5" font-family="Helvetica,sans-Serif" font-size="10.00">(ITraceable astralBody)</text>
<text text-anchor="start" x="68.23" y="-1545.5" font-family="Helvetica,sans-Serif" font-size="10.00">+ void DrawMathOrbit</text>
<text text-anchor="start" x="68.23" y="-1534.5" font-family="Helvetica,sans-Serif" font-size="10.00">(ConicSection conicSection,</text>
<text text-anchor="start" x="68.23" y="-1523.5" font-family="Helvetica,sans-Serif" font-size="10.00"> int sam)</text>
</a>
</g>
</g>
<!-- Node5&#45;&gt;Node6 -->
<g id="edge6" class="edge">
<title>Node5&#45;&gt;Node6</title>
<path fill="none" stroke="midnightblue" d="M178.98,-1991.89C173.27,-1934.63 162.16,-1823.32 153.74,-1738.91"/>
<polygon fill="none" stroke="midnightblue" points="175.5,-1992.33 179.98,-2001.94 182.47,-1991.64 175.5,-1992.33"/>
</g>
<!-- Node5&#45;&gt;Node7 -->
<g id="edge8" class="edge">
<title>Node5&#45;&gt;Node7</title>
<path fill="none" stroke="midnightblue" d="M203.45,-1992.9C214.79,-1971.01 227.88,-1942.23 234.73,-1915 265.84,-1791.24 253.73,-1756.11 253.73,-1628.5 253.73,-1628.5 253.73,-1628.5 253.73,-243 253.73,-195.08 253.73,-140.41 253.73,-101.87"/>
<polygon fill="none" stroke="midnightblue" points="200.31,-1991.36 198.73,-2001.83 206.5,-1994.63 200.31,-1991.36"/>
</g>
<!-- Node9 -->
<g id="node9" class="node">
<title>Node9</title>
<g id="a_node9"><a xlink:href="class_space_physic_1_1_astral_body.html" target="_top" xlink:title="星体物理实体">
<polygon fill="white" stroke="black" points="282.23,-1340.5 282.23,-1914.5 443.23,-1914.5 443.23,-1340.5 282.23,-1340.5"/>
<text text-anchor="middle" x="362.73" y="-1902.5" font-family="Helvetica,sans-Serif" font-size="10.00">SpacePhysic.AstralBody</text>
<polyline fill="none" stroke="black" points="282.23,-1895.5 443.23,-1895.5 "/>
<text text-anchor="start" x="290.23" y="-1883.5" font-family="Helvetica,sans-Serif" font-size="10.00">+ List&lt; AstralBody &gt;</text>
<text text-anchor="start" x="290.23" y="-1872.5" font-family="Helvetica,sans-Serif" font-size="10.00"> affectedPlanets</text>
<text text-anchor="start" x="290.23" y="-1861.5" font-family="Helvetica,sans-Serif" font-size="10.00">+ float affectRadius</text>
<text text-anchor="start" x="290.23" y="-1850.5" font-family="Helvetica,sans-Serif" font-size="10.00">+ Vector3 angularVelocity</text>
<text text-anchor="start" x="290.23" y="-1839.5" font-family="Helvetica,sans-Serif" font-size="10.00">+ List&lt; AstralBody &gt;</text>
<text text-anchor="start" x="290.23" y="-1828.5" font-family="Helvetica,sans-Serif" font-size="10.00"> banAffectedPlanets</text>
<text text-anchor="start" x="290.23" y="-1817.5" font-family="Helvetica,sans-Serif" font-size="10.00">+ SphereCollider defaultCollider</text>
<text text-anchor="start" x="290.23" y="-1806.5" font-family="Helvetica,sans-Serif" font-size="10.00">+ bool enableAffect</text>
<text text-anchor="start" x="290.23" y="-1795.5" font-family="Helvetica,sans-Serif" font-size="10.00">+ bool enableTracing</text>
<text text-anchor="start" x="290.23" y="-1784.5" font-family="Helvetica,sans-Serif" font-size="10.00">+ Vector3 oriVelocity</text>
<text text-anchor="start" x="290.23" y="-1773.5" font-family="Helvetica,sans-Serif" font-size="10.00">+ SphereCollider triggerCollider</text>
<text text-anchor="start" x="290.23" y="-1762.5" font-family="Helvetica,sans-Serif" font-size="10.00">+ UnityEvent&lt; Vector3</text>
<text text-anchor="start" x="290.23" y="-1751.5" font-family="Helvetica,sans-Serif" font-size="10.00"> &gt; velocityChangedEvent</text>
<text text-anchor="start" x="290.23" y="-1740.5" font-family="Helvetica,sans-Serif" font-size="10.00">+ UnityEvent astralBodyDestroy</text>
<text text-anchor="start" x="290.23" y="-1729.5" font-family="Helvetica,sans-Serif" font-size="10.00">Event</text>
<text text-anchor="start" x="290.23" y="-1718.5" font-family="Helvetica,sans-Serif" font-size="10.00">+ bool isUseScaler</text>
<text text-anchor="start" x="290.23" y="-1707.5" font-family="Helvetica,sans-Serif" font-size="10.00">+ float? Mass</text>
<text text-anchor="start" x="290.23" y="-1696.5" font-family="Helvetica,sans-Serif" font-size="10.00">+ Rigidbody astralBodyRigidbody</text>
<text text-anchor="start" x="290.23" y="-1685.5" font-family="Helvetica,sans-Serif" font-size="10.00">+ Vector3 Force</text>
<text text-anchor="start" x="290.23" y="-1674.5" font-family="Helvetica,sans-Serif" font-size="10.00">+ float gravity</text>
<text text-anchor="start" x="290.23" y="-1663.5" font-family="Helvetica,sans-Serif" font-size="10.00">+ int meshNum</text>
<text text-anchor="start" x="290.23" y="-1652.5" font-family="Helvetica,sans-Serif" font-size="10.00">+ float size</text>
<text text-anchor="start" x="290.23" y="-1641.5" font-family="Helvetica,sans-Serif" font-size="10.00">+ double realMass</text>
<text text-anchor="start" x="290.23" y="-1630.5" font-family="Helvetica,sans-Serif" font-size="10.00">+ double density</text>
<text text-anchor="start" x="290.23" y="-1619.5" font-family="Helvetica,sans-Serif" font-size="10.00">+ Vector3 lastVelocity</text>
<text text-anchor="start" x="290.23" y="-1608.5" font-family="Helvetica,sans-Serif" font-size="10.00">+ bool isLoadDone</text>
<polyline fill="none" stroke="black" points="282.23,-1601.5 443.23,-1601.5 "/>
<text text-anchor="start" x="290.23" y="-1589.5" font-family="Helvetica,sans-Serif" font-size="10.00">+ virtual void OnCollision</text>
<text text-anchor="start" x="290.23" y="-1578.5" font-family="Helvetica,sans-Serif" font-size="10.00">Enter(Collision other)</text>
<text text-anchor="start" x="290.23" y="-1567.5" font-family="Helvetica,sans-Serif" font-size="10.00">+ Transform GetTransform()</text>
<text text-anchor="start" x="290.23" y="-1556.5" font-family="Helvetica,sans-Serif" font-size="10.00">+ Vector3 GetPosition()</text>
<text text-anchor="start" x="290.23" y="-1545.5" font-family="Helvetica,sans-Serif" font-size="10.00">+ GameObject GetGameObject()</text>
<text text-anchor="start" x="290.23" y="-1534.5" font-family="Helvetica,sans-Serif" font-size="10.00">+ bool GetEnableTracing()</text>
<text text-anchor="start" x="290.23" y="-1523.5" font-family="Helvetica,sans-Serif" font-size="10.00">+ virtual float GetMass()</text>
<text text-anchor="start" x="290.23" y="-1512.5" font-family="Helvetica,sans-Serif" font-size="10.00">+ Rigidbody GetRigidbody()</text>
<text text-anchor="start" x="290.23" y="-1501.5" font-family="Helvetica,sans-Serif" font-size="10.00">+ Vector3 GetVelocity()</text>
<text text-anchor="start" x="290.23" y="-1490.5" font-family="Helvetica,sans-Serif" font-size="10.00">+ List&lt; AstralBody &gt;</text>
<text text-anchor="start" x="290.23" y="-1479.5" font-family="Helvetica,sans-Serif" font-size="10.00"> GetAffectedPlanets()</text>
<text text-anchor="start" x="290.23" y="-1468.5" font-family="Helvetica,sans-Serif" font-size="10.00">+ AstralBody GetAstralBody()</text>
<text text-anchor="start" x="290.23" y="-1457.5" font-family="Helvetica,sans-Serif" font-size="10.00">+ void ChangeVelocity</text>
<text text-anchor="start" x="290.23" y="-1446.5" font-family="Helvetica,sans-Serif" font-size="10.00">(Vector3 velocity)</text>
<text text-anchor="start" x="290.23" y="-1435.5" font-family="Helvetica,sans-Serif" font-size="10.00">+ void ChangeVelocity</text>
<text text-anchor="start" x="290.23" y="-1424.5" font-family="Helvetica,sans-Serif" font-size="10.00">(double realSpeed)</text>
<text text-anchor="start" x="290.23" y="-1413.5" font-family="Helvetica,sans-Serif" font-size="10.00">+ Vector3 CalculateForce()</text>
<text text-anchor="start" x="290.23" y="-1402.5" font-family="Helvetica,sans-Serif" font-size="10.00">+ void SetCircleVelocity()</text>
<text text-anchor="start" x="290.23" y="-1391.5" font-family="Helvetica,sans-Serif" font-size="10.00">+ void SetCircleVelocityMenu()</text>
<text text-anchor="start" x="290.23" y="-1380.5" font-family="Helvetica,sans-Serif" font-size="10.00"># virtual void Start()</text>
<text text-anchor="start" x="290.23" y="-1369.5" font-family="Helvetica,sans-Serif" font-size="10.00"># void Generate()</text>
<text text-anchor="start" x="290.23" y="-1358.5" font-family="Helvetica,sans-Serif" font-size="10.00"># virtual void FixedUpdate()</text>
<text text-anchor="start" x="290.23" y="-1347.5" font-family="Helvetica,sans-Serif" font-size="10.00"># virtual void SetMass()</text>
</a>
</g>
</g>
<!-- Node5&#45;&gt;Node9 -->
<g id="edge12" class="edge">
<title>Node5&#45;&gt;Node9</title>
<path fill="none" stroke="midnightblue" d="M220.48,-1994.49C236.91,-1977.55 255.23,-1956.12 267.73,-1934 272.78,-1925.05 277.61,-1915.81 282.2,-1906.35"/>
<polygon fill="none" stroke="midnightblue" points="217.65,-1992.38 213.09,-2001.94 222.62,-1997.3 217.65,-1992.38"/>
</g>
<!-- Node6&#45;&gt;Node4 -->
<g id="edge5" class="edge">
<title>Node6&#45;&gt;Node4</title>
<path fill="none" stroke="#404040" d="M137.6,-1516.36C134.7,-1454.2 131.01,-1375.14 127.74,-1304.98"/>
<polygon fill="none" stroke="#404040" points="127.74,-1304.89 123.46,-1299.08 127.18,-1292.9 131.46,-1298.71 127.74,-1304.89"/>
<text text-anchor="middle" x="154.23" y="-1314" font-family="Helvetica,sans-Serif" font-size="10.00"> +orbitBase</text>
</g>
<!-- Node7&#45;&gt;Node1 -->
<g id="edge7" class="edge">
<title>Node7&#45;&gt;Node1</title>
<path fill="none" stroke="#404040" d="M215.68,-101.81C211.24,-107.89 206.84,-114.05 202.73,-120 193.68,-133.1 184.37,-147.19 175.47,-161"/>
<polygon fill="none" stroke="#404040" points="175.23,-161.38 175.36,-168.59 168.75,-171.48 168.62,-164.27 175.23,-161.38"/>
<text text-anchor="middle" x="221.23" y="-134" font-family="Helvetica,sans-Serif" font-size="10.00"> +quizUI</text>
</g>
<!-- Node8 -->
<g id="node8" class="node">
<title>Node8</title>
<g id="a_node8"><a xlink:title=" ">
<polygon fill="white" stroke="#bfbfbf" points="320.23,-215.5 320.23,-272.5 355.23,-272.5 355.23,-215.5 320.23,-215.5"/>
<text text-anchor="middle" x="337.73" y="-260.5" font-family="Helvetica,sans-Serif" font-size="10.00">Text</text>
<polyline fill="none" stroke="#bfbfbf" points="320.23,-253.5 355.23,-253.5 "/>
<text text-anchor="middle" x="337.73" y="-241.5" font-family="Helvetica,sans-Serif" font-size="10.00"> </text>
<polyline fill="none" stroke="#bfbfbf" points="320.23,-234.5 355.23,-234.5 "/>
<text text-anchor="middle" x="337.73" y="-222.5" font-family="Helvetica,sans-Serif" font-size="10.00"> </text>
</a>
</g>
</g>
<!-- Node8&#45;&gt;Node7 -->
<g id="edge10" class="edge">
<title>Node8&#45;&gt;Node7</title>
<path fill="none" stroke="#404040" d="M333.72,-215.03C329.29,-189.35 320.72,-150.74 305.73,-120 304.46,-117.41 303.09,-114.82 301.64,-112.24"/>
<polygon fill="none" stroke="#404040" points="301.51,-112.03 294.97,-109 295.25,-101.8 301.79,-104.83 301.51,-112.03"/>
<text text-anchor="middle" x="350.23" y="-145" font-family="Helvetica,sans-Serif" font-size="10.00"> +ansText</text>
<text text-anchor="middle" x="350.23" y="-134" font-family="Helvetica,sans-Serif" font-size="10.00">+quizCondition</text>
<text text-anchor="middle" x="350.23" y="-123" font-family="Helvetica,sans-Serif" font-size="10.00">+title</text>
</g>
<!-- Node9&#45;&gt;Node7 -->
<g id="edge11" class="edge">
<title>Node9&#45;&gt;Node7</title>
<path fill="none" stroke="#404040" d="M307.49,-1340.45C298.32,-1272.7 291.73,-1200.52 291.73,-1133 291.73,-1133 291.73,-1133 291.73,-243 291.73,-199.07 281.94,-150.53 272.3,-113.37"/>
<polygon fill="none" stroke="#404040" points="272.28,-113.32 266.87,-108.56 269.18,-101.73 274.6,-106.49 272.28,-113.32"/>
<text text-anchor="middle" x="308.73" y="-554" font-family="Helvetica,sans-Serif" font-size="10.00"> +target</text>
</g>
<!-- Node10 -->
<g id="node10" class="node">
<title>Node10</title>
<g id="a_node10"><a xlink:href="interface_space_physic_1_1_i_traceable.html" target="_top" xlink:title="可追踪接口">
<polygon fill="white" stroke="black" points="282.73,-1952.5 282.73,-2108.5 442.73,-2108.5 442.73,-1952.5 282.73,-1952.5"/>
<text text-anchor="middle" x="362.73" y="-2096.5" font-family="Helvetica,sans-Serif" font-size="10.00">ITraceable</text>
<polyline fill="none" stroke="black" points="282.73,-2089.5 442.73,-2089.5 "/>
<text text-anchor="middle" x="362.73" y="-2077.5" font-family="Helvetica,sans-Serif" font-size="10.00"> </text>
<polyline fill="none" stroke="black" points="282.73,-2070.5 442.73,-2070.5 "/>
<text text-anchor="start" x="290.73" y="-2058.5" font-family="Helvetica,sans-Serif" font-size="10.00">+ Transform GetTransform()</text>
<text text-anchor="start" x="290.73" y="-2047.5" font-family="Helvetica,sans-Serif" font-size="10.00">+ Vector3 GetPosition()</text>
<text text-anchor="start" x="290.73" y="-2036.5" font-family="Helvetica,sans-Serif" font-size="10.00">+ GameObject GetGameObject()</text>
<text text-anchor="start" x="290.73" y="-2025.5" font-family="Helvetica,sans-Serif" font-size="10.00">+ bool GetEnableTracing()</text>
<text text-anchor="start" x="290.73" y="-2014.5" font-family="Helvetica,sans-Serif" font-size="10.00">+ float GetMass()</text>
<text text-anchor="start" x="290.73" y="-2003.5" font-family="Helvetica,sans-Serif" font-size="10.00">+ Rigidbody GetRigidbody()</text>
<text text-anchor="start" x="290.73" y="-1992.5" font-family="Helvetica,sans-Serif" font-size="10.00">+ Vector3 GetVelocity()</text>
<text text-anchor="start" x="290.73" y="-1981.5" font-family="Helvetica,sans-Serif" font-size="10.00">+ List&lt; AstralBody &gt;</text>
<text text-anchor="start" x="290.73" y="-1970.5" font-family="Helvetica,sans-Serif" font-size="10.00"> GetAffectedPlanets()</text>
<text text-anchor="start" x="290.73" y="-1959.5" font-family="Helvetica,sans-Serif" font-size="10.00">+ AstralBody GetAstralBody()</text>
</a>
</g>
</g>
<!-- Node10&#45;&gt;Node9 -->
<g id="edge13" class="edge">
<title>Node10&#45;&gt;Node9</title>
<path fill="none" stroke="midnightblue" d="M362.73,-1942.08C362.73,-1933.3 362.73,-1924.1 362.73,-1914.57"/>
<polygon fill="none" stroke="midnightblue" points="359.23,-1942.18 362.73,-1952.18 366.23,-1942.18 359.23,-1942.18"/>
</g>
</g>
</svg>
