<?xml version="1.0" encoding="UTF-8" standalone="no"?>
<!DOCTYPE svg PUBLIC "-//W3C//DTD SVG 1.1//EN"
 "http://www.w3.org/Graphics/SVG/1.1/DTD/svg11.dtd">
<!-- Generated by graphviz version 2.47.1 (20210417.1919)
 -->
<!-- Title: PostProcessing.Dof Pages: 1 -->
<svg width="296pt" height="332pt"
 viewBox="0.00 0.00 296.00 332.00" xmlns="http://www.w3.org/2000/svg" xmlns:xlink="http://www.w3.org/1999/xlink">
<g id="graph0" class="graph" transform="scale(1 1) rotate(0) translate(4 328)">
<title>PostProcessing.Dof</title>
<polygon fill="white" stroke="transparent" points="-4,4 -4,-328 292,-328 292,4 -4,4"/>
<!-- Node1 -->
<g id="node1" class="node">
<title>Node1</title>
<g id="a_node1"><a xlink:title="景深效果">
<polygon fill="#bfbfbf" stroke="black" points="20.5,-0.5 20.5,-101.5 205.5,-101.5 205.5,-0.5 20.5,-0.5"/>
<text text-anchor="middle" x="113" y="-89.5" font-family="Helvetica,sans-Serif" font-size="10.00">PostProcessing.Dof</text>
<polyline fill="none" stroke="black" points="20.5,-82.5 205.5,-82.5 "/>
<text text-anchor="start" x="28.5" y="-70.5" font-family="Helvetica,sans-Serif" font-size="10.00">+ FloatParameter aperture</text>
<text text-anchor="start" x="28.5" y="-59.5" font-family="Helvetica,sans-Serif" font-size="10.00">+ FloatParameter focalLength</text>
<text text-anchor="start" x="28.5" y="-48.5" font-family="Helvetica,sans-Serif" font-size="10.00">+ FloatParameter focusDistance</text>
<polyline fill="none" stroke="black" points="20.5,-41.5 205.5,-41.5 "/>
<text text-anchor="start" x="28.5" y="-29.5" font-family="Helvetica,sans-Serif" font-size="10.00">+ override bool IsEnabledAnd</text>
<text text-anchor="start" x="28.5" y="-18.5" font-family="Helvetica,sans-Serif" font-size="10.00">Supported(PostProcessRenderContext</text>
<text text-anchor="start" x="28.5" y="-7.5" font-family="Helvetica,sans-Serif" font-size="10.00"> context)</text>
</a>
</g>
</g>
<!-- Node2 -->
<g id="node2" class="node">
<title>Node2</title>
<g id="a_node2"><a xlink:title=" ">
<polygon fill="white" stroke="#bfbfbf" points="0,-155 0,-212 134,-212 134,-155 0,-155"/>
<text text-anchor="middle" x="67" y="-200" font-family="Helvetica,sans-Serif" font-size="10.00">PostProcessEffectSettings</text>
<polyline fill="none" stroke="#bfbfbf" points="0,-193 134,-193 "/>
<text text-anchor="middle" x="67" y="-181" font-family="Helvetica,sans-Serif" font-size="10.00"> </text>
<polyline fill="none" stroke="#bfbfbf" points="0,-174 134,-174 "/>
<text text-anchor="middle" x="67" y="-162" font-family="Helvetica,sans-Serif" font-size="10.00"> </text>
</a>
</g>
</g>
<!-- Node2&#45;&gt;Node1 -->
<g id="edge1" class="edge">
<title>Node2&#45;&gt;Node1</title>
<path fill="none" stroke="midnightblue" d="M80.11,-145.3C84.91,-131.68 90.43,-116.04 95.55,-101.51"/>
<polygon fill="none" stroke="midnightblue" points="76.78,-144.23 76.76,-154.82 83.38,-146.56 76.78,-144.23"/>
</g>
<!-- Node3 -->
<g id="node3" class="node">
<title>Node3</title>
<g id="a_node3"><a xlink:href="class_post_processing_1_1_kernel_size_parameter.html" target="_top" xlink:title="A volume parameter holding a KernelSize value.">
<polygon fill="white" stroke="black" points="152,-149.5 152,-217.5 288,-217.5 288,-149.5 152,-149.5"/>
<text text-anchor="start" x="160" y="-205.5" font-family="Helvetica,sans-Serif" font-size="10.00">PostProcessing.KernelSize</text>
<text text-anchor="middle" x="220" y="-194.5" font-family="Helvetica,sans-Serif" font-size="10.00">Parameter</text>
<polyline fill="none" stroke="black" points="152,-187.5 288,-187.5 "/>
<text text-anchor="middle" x="220" y="-175.5" font-family="Helvetica,sans-Serif" font-size="10.00"> </text>
<polyline fill="none" stroke="black" points="152,-168.5 288,-168.5 "/>
<text text-anchor="middle" x="220" y="-156.5" font-family="Helvetica,sans-Serif" font-size="10.00"> </text>
</a>
</g>
</g>
<!-- Node3&#45;&gt;Node1 -->
<g id="edge2" class="edge">
<title>Node3&#45;&gt;Node1</title>
<path fill="none" stroke="#404040" d="M192.72,-149.23C183.26,-137.69 172.33,-124.37 161.67,-111.36"/>
<polygon fill="none" stroke="#404040" points="161.58,-111.25 154.69,-109.15 153.98,-101.98 160.87,-104.08 161.58,-111.25"/>
<text text-anchor="middle" x="203.5" y="-123" font-family="Helvetica,sans-Serif" font-size="10.00"> +kernelSize</text>
</g>
<!-- Node4 -->
<g id="node4" class="node">
<title>Node4</title>
<g id="a_node4"><a xlink:title=" ">
<polygon fill="white" stroke="#bfbfbf" points="168.5,-255.5 168.5,-323.5 271.5,-323.5 271.5,-255.5 168.5,-255.5"/>
<text text-anchor="start" x="176.5" y="-311.5" font-family="Helvetica,sans-Serif" font-size="10.00">ParameterOverride&lt;</text>
<text text-anchor="middle" x="220" y="-300.5" font-family="Helvetica,sans-Serif" font-size="10.00"> KernelSize &gt;</text>
<polyline fill="none" stroke="#bfbfbf" points="168.5,-293.5 271.5,-293.5 "/>
<text text-anchor="middle" x="220" y="-281.5" font-family="Helvetica,sans-Serif" font-size="10.00"> </text>
<polyline fill="none" stroke="#bfbfbf" points="168.5,-274.5 271.5,-274.5 "/>
<text text-anchor="middle" x="220" y="-262.5" font-family="Helvetica,sans-Serif" font-size="10.00"> </text>
</a>
</g>
</g>
<!-- Node4&#45;&gt;Node3 -->
<g id="edge3" class="edge">
<title>Node4&#45;&gt;Node3</title>
<path fill="none" stroke="midnightblue" d="M220,-245.17C220,-236 220,-226.46 220,-217.73"/>
<polygon fill="none" stroke="midnightblue" points="216.5,-245.31 220,-255.31 223.5,-245.31 216.5,-245.31"/>
</g>
</g>
</svg>
