<?xml version="1.0" encoding="UTF-8" standalone="no"?>
<!DOCTYPE svg PUBLIC "-//W3C//DTD SVG 1.1//EN"
 "http://www.w3.org/Graphics/SVG/1.1/DTD/svg11.dtd">
<!-- Generated by graphviz version 2.47.1 (20210417.1919)
 -->
<!-- Title: CustomUI.Quiz.VarLineUI.OnDragEnd Pages: 1 -->
<svg width="317pt" height="39pt"
 viewBox="0.00 0.00 317.00 39.00" xmlns="http://www.w3.org/2000/svg" xmlns:xlink="http://www.w3.org/1999/xlink">
<g id="graph0" class="graph" transform="scale(1 1) rotate(0) translate(4 35)">
<title>CustomUI.Quiz.VarLineUI.OnDragEnd</title>
<polygon fill="white" stroke="transparent" points="-4,4 -4,-35 313,-35 313,4 -4,4"/>
<!-- Node1 -->
<g id="node1" class="node">
<title>Node1</title>
<g id="a_node1"><a xlink:title=" ">
<polygon fill="#bfbfbf" stroke="black" points="0,-0.5 0,-30.5 131,-30.5 131,-0.5 0,-0.5"/>
<text text-anchor="start" x="8" y="-18.5" font-family="Helvetica,sans-Serif" font-size="10.00">CustomUI.Quiz.VarLineUI.</text>
<text text-anchor="middle" x="65.5" y="-7.5" font-family="Helvetica,sans-Serif" font-size="10.00">OnDragEnd</text>
</a>
</g>
</g>
<!-- Node2 -->
<g id="node2" class="node">
<title>Node2</title>
<g id="a_node2"><a xlink:href="class_space_physic_1_1_gravity_tracing.html#a53a5ce46b114fde8399fd0379aa020ca" target="_top" xlink:title="冻结">
<polygon fill="white" stroke="black" points="167,-0.5 167,-30.5 309,-30.5 309,-0.5 167,-0.5"/>
<text text-anchor="start" x="175" y="-18.5" font-family="Helvetica,sans-Serif" font-size="10.00">SpacePhysic.GravityTracing.</text>
<text text-anchor="middle" x="238" y="-7.5" font-family="Helvetica,sans-Serif" font-size="10.00">Freeze</text>
</a>
</g>
</g>
<!-- Node1&#45;&gt;Node2 -->
<g id="edge1" class="edge">
<title>Node1&#45;&gt;Node2</title>
<path fill="none" stroke="midnightblue" d="M131.45,-15.5C139.67,-15.5 148.17,-15.5 156.61,-15.5"/>
<polygon fill="midnightblue" stroke="midnightblue" points="156.84,-19 166.84,-15.5 156.84,-12 156.84,-19"/>
</g>
</g>
</svg>
