<?xml version="1.0" encoding="UTF-8" standalone="no"?>
<!DOCTYPE svg PUBLIC "-//W3C//DTD SVG 1.1//EN"
 "http://www.w3.org/Graphics/SVG/1.1/DTD/svg11.dtd">
<!-- Generated by graphviz version 2.47.1 (20210417.1919)
 -->
<!-- Title: SpacePhysic.GravityTracing.GetConicSection Pages: 1 -->
<svg width="350pt" height="176pt"
 viewBox="0.00 0.00 350.00 176.00" xmlns="http://www.w3.org/2000/svg" xmlns:xlink="http://www.w3.org/1999/xlink">
<g id="graph0" class="graph" transform="scale(1 1) rotate(0) translate(4 172)">
<title>SpacePhysic.GravityTracing.GetConicSection</title>
<polygon fill="white" stroke="transparent" points="-4,4 -4,-172 346,-172 346,4 -4,4"/>
<!-- Node1 -->
<g id="node1" class="node">
<title>Node1</title>
<g id="a_node1"><a xlink:title="获取轨道圆锥曲线">
<polygon fill="#bfbfbf" stroke="black" points="0,-71.5 0,-101.5 142,-101.5 142,-71.5 0,-71.5"/>
<text text-anchor="start" x="8" y="-89.5" font-family="Helvetica,sans-Serif" font-size="10.00">SpacePhysic.GravityTracing.</text>
<text text-anchor="middle" x="71" y="-78.5" font-family="Helvetica,sans-Serif" font-size="10.00">GetConicSection</text>
</a>
</g>
</g>
<!-- Node2 -->
<g id="node2" class="node">
<title>Node2</title>
<g id="a_node2"><a xlink:href="interface_space_physic_1_1_i_traceable.html#af984b78fd839b5b3d34758ca05353213" target="_top" xlink:title=" ">
<polygon fill="white" stroke="black" points="190,-137.5 190,-167.5 330,-167.5 330,-137.5 190,-137.5"/>
<text text-anchor="start" x="198" y="-155.5" font-family="Helvetica,sans-Serif" font-size="10.00">SpacePhysic.ITraceable.Get</text>
<text text-anchor="middle" x="260" y="-144.5" font-family="Helvetica,sans-Serif" font-size="10.00">AffectedPlanets</text>
</a>
</g>
</g>
<!-- Node1&#45;&gt;Node2 -->
<g id="edge1" class="edge">
<title>Node1&#45;&gt;Node2</title>
<path fill="none" stroke="midnightblue" d="M109.05,-101.56C129.29,-109.6 154.89,-119.47 178,-127.5 184.54,-129.77 191.41,-132.05 198.27,-134.26"/>
<polygon fill="midnightblue" stroke="midnightblue" points="197.68,-137.75 208.27,-137.44 199.8,-131.07 197.68,-137.75"/>
</g>
<!-- Node3 -->
<g id="node3" class="node">
<title>Node3</title>
<g id="a_node3"><a xlink:href="interface_space_physic_1_1_i_traceable.html#a7a61c09595bedc638b0268d8277e8873" target="_top" xlink:title=" ">
<polygon fill="white" stroke="black" points="178,-99 178,-118 342,-118 342,-99 178,-99"/>
<text text-anchor="middle" x="260" y="-106" font-family="Helvetica,sans-Serif" font-size="10.00">SpacePhysic.ITraceable.GetMass</text>
</a>
</g>
</g>
<!-- Node1&#45;&gt;Node3 -->
<g id="edge2" class="edge">
<title>Node1&#45;&gt;Node3</title>
<path fill="none" stroke="midnightblue" d="M142.16,-94.75C150.58,-95.74 159.27,-96.77 167.93,-97.79"/>
<polygon fill="midnightblue" stroke="midnightblue" points="167.72,-101.29 178.06,-98.98 168.54,-94.33 167.72,-101.29"/>
</g>
<!-- Node4 -->
<g id="node4" class="node">
<title>Node4</title>
<g id="a_node4"><a xlink:href="interface_space_physic_1_1_i_traceable.html#a53c8890effec964fa2245908e79016c4" target="_top" xlink:title=" ">
<polygon fill="white" stroke="black" points="190,-49.5 190,-79.5 330,-79.5 330,-49.5 190,-49.5"/>
<text text-anchor="start" x="198" y="-67.5" font-family="Helvetica,sans-Serif" font-size="10.00">SpacePhysic.ITraceable.Get</text>
<text text-anchor="middle" x="260" y="-56.5" font-family="Helvetica,sans-Serif" font-size="10.00">Transform</text>
</a>
</g>
</g>
<!-- Node1&#45;&gt;Node4 -->
<g id="edge3" class="edge">
<title>Node1&#45;&gt;Node4</title>
<path fill="none" stroke="midnightblue" d="M142.16,-78.25C154.51,-76.79 167.44,-75.27 180.01,-73.79"/>
<polygon fill="midnightblue" stroke="midnightblue" points="180.47,-77.26 190,-72.62 179.66,-70.31 180.47,-77.26"/>
</g>
<!-- Node5 -->
<g id="node5" class="node">
<title>Node5</title>
<g id="a_node5"><a xlink:href="interface_space_physic_1_1_i_traceable.html#a8c908476fbe6acf4aaf2e7594537dddb" target="_top" xlink:title=" ">
<polygon fill="white" stroke="black" points="190,-0.5 190,-30.5 330,-30.5 330,-0.5 190,-0.5"/>
<text text-anchor="start" x="198" y="-18.5" font-family="Helvetica,sans-Serif" font-size="10.00">SpacePhysic.ITraceable.Get</text>
<text text-anchor="middle" x="260" y="-7.5" font-family="Helvetica,sans-Serif" font-size="10.00">Velocity</text>
</a>
</g>
</g>
<!-- Node1&#45;&gt;Node5 -->
<g id="edge4" class="edge">
<title>Node1&#45;&gt;Node5</title>
<path fill="none" stroke="midnightblue" d="M104.1,-71.47C124.93,-61.99 152.79,-49.83 178,-40.5 184.31,-38.17 190.94,-35.87 197.59,-33.67"/>
<polygon fill="midnightblue" stroke="midnightblue" points="198.86,-36.94 207.29,-30.53 196.7,-30.28 198.86,-36.94"/>
</g>
</g>
</svg>
