<?xml version="1.0" encoding="UTF-8" standalone="no"?>
<!DOCTYPE svg PUBLIC "-//W3C//DTD SVG 1.1//EN"
 "http://www.w3.org/Graphics/SVG/1.1/DTD/svg11.dtd">
<!-- Generated by graphviz version 2.47.1 (20210417.1919)
 -->
<!-- Title: SpacePhysic.AstralBody.GetVelocity Pages: 1 -->
<svg width="746pt" height="323pt"
 viewBox="0.00 0.00 746.00 323.00" xmlns="http://www.w3.org/2000/svg" xmlns:xlink="http://www.w3.org/1999/xlink">
<g id="graph0" class="graph" transform="scale(1 1) rotate(0) translate(4 319)">
<title>SpacePhysic.AstralBody.GetVelocity</title>
<polygon fill="white" stroke="transparent" points="-4,4 -4,-319 742,-319 742,4 -4,4"/>
<!-- Node1 -->
<g id="node1" class="node">
<title>Node1</title>
<g id="a_node1"><a xlink:title=" ">
<polygon fill="#bfbfbf" stroke="black" points="594,-147.5 594,-177.5 738,-177.5 738,-147.5 594,-147.5"/>
<text text-anchor="start" x="602" y="-165.5" font-family="Helvetica,sans-Serif" font-size="10.00">SpacePhysic.AstralBody.Get</text>
<text text-anchor="middle" x="666" y="-154.5" font-family="Helvetica,sans-Serif" font-size="10.00">Velocity</text>
</a>
</g>
</g>
<!-- Node2 -->
<g id="node2" class="node">
<title>Node2</title>
<g id="a_node2"><a xlink:href="class_space_physic_1_1_astral_body.html#a13a5ee93bb01019b6b62111ce696f9b2" target="_top" xlink:title="保持当前速度方向调整速度">
<polygon fill="white" stroke="black" points="397,-284.5 397,-314.5 558,-314.5 558,-284.5 397,-284.5"/>
<text text-anchor="start" x="405" y="-302.5" font-family="Helvetica,sans-Serif" font-size="10.00">SpacePhysic.AstralBody.Change</text>
<text text-anchor="middle" x="477.5" y="-291.5" font-family="Helvetica,sans-Serif" font-size="10.00">Velocity</text>
</a>
</g>
</g>
<!-- Node1&#45;&gt;Node2 -->
<g id="edge1" class="edge">
<title>Node1&#45;&gt;Node2</title>
<path fill="none" stroke="midnightblue" d="M648.6,-186.08C629.62,-211.68 596.05,-252.02 558,-275.5 552.48,-278.91 546.44,-281.86 540.24,-284.41"/>
<polygon fill="midnightblue" stroke="midnightblue" points="651.65,-187.85 654.69,-177.7 645.98,-183.73 651.65,-187.85"/>
</g>
<!-- Node3 -->
<g id="node3" class="node">
<title>Node3</title>
<g id="a_node3"><a xlink:href="class_quiz_1_1_quiz_astral_body.html#a4aa95a8b5358b10d4b3d7220469f6c50" target="_top" xlink:title="获取星球条件文本">
<polygon fill="white" stroke="black" points="404,-235.5 404,-265.5 551,-265.5 551,-235.5 404,-235.5"/>
<text text-anchor="start" x="412" y="-253.5" font-family="Helvetica,sans-Serif" font-size="10.00">Quiz.QuizAstralBody.GetQuiz</text>
<text text-anchor="middle" x="477.5" y="-242.5" font-family="Helvetica,sans-Serif" font-size="10.00">ConditionString</text>
</a>
</g>
</g>
<!-- Node1&#45;&gt;Node3 -->
<g id="edge2" class="edge">
<title>Node1&#45;&gt;Node3</title>
<path fill="none" stroke="midnightblue" d="M634.4,-183.05C613.52,-196.43 584.89,-213.54 558,-225.5 549.8,-229.14 540.91,-232.49 532.15,-235.47"/>
<polygon fill="midnightblue" stroke="midnightblue" points="636.36,-185.95 642.84,-177.57 632.55,-180.08 636.36,-185.95"/>
</g>
<!-- Node6 -->
<g id="node6" class="node">
<title>Node6</title>
<g id="a_node6"><a xlink:href="class_satellite_1_1_satellite.html#a82630d95c2e9c227668c31e362e84003" target="_top" xlink:title="获取速度">
<polygon fill="white" stroke="black" points="405.5,-197 405.5,-216 549.5,-216 549.5,-197 405.5,-197"/>
<text text-anchor="middle" x="477.5" y="-204" font-family="Helvetica,sans-Serif" font-size="10.00">Satellite.Satellite.GetVelocity</text>
</a>
</g>
</g>
<!-- Node1&#45;&gt;Node6 -->
<g id="edge5" class="edge">
<title>Node1&#45;&gt;Node6</title>
<path fill="none" stroke="midnightblue" d="M591.59,-179.82C566.81,-185.66 540.07,-191.97 518.82,-196.99"/>
<polygon fill="midnightblue" stroke="midnightblue" points="592.41,-183.22 601.34,-177.52 590.8,-176.41 592.41,-183.22"/>
</g>
<!-- Node7 -->
<g id="node7" class="node">
<title>Node7</title>
<g id="a_node7"><a xlink:href="class_custom_u_i_1_1_quiz_1_1_var_line_u_i.html#adfa12854be919178096c58aa61e50ff6" target="_top" xlink:title=" ">
<polygon fill="white" stroke="black" points="412,-147.5 412,-177.5 543,-177.5 543,-147.5 412,-147.5"/>
<text text-anchor="start" x="420" y="-165.5" font-family="Helvetica,sans-Serif" font-size="10.00">CustomUI.Quiz.VarLineUI.</text>
<text text-anchor="middle" x="477.5" y="-154.5" font-family="Helvetica,sans-Serif" font-size="10.00">OnEditEnd</text>
</a>
</g>
</g>
<!-- Node1&#45;&gt;Node7 -->
<g id="edge6" class="edge">
<title>Node1&#45;&gt;Node7</title>
<path fill="none" stroke="midnightblue" d="M583.69,-162.5C570.15,-162.5 556.27,-162.5 543.22,-162.5"/>
<polygon fill="midnightblue" stroke="midnightblue" points="583.96,-166 593.96,-162.5 583.96,-159 583.96,-166"/>
</g>
<!-- Node9 -->
<g id="node9" class="node">
<title>Node9</title>
<g id="a_node9"><a xlink:href="class_satellite_1_1_satellite_engine.html#abe746f09fff6ac3d0577c2c40e9fabb2" target="_top" xlink:title=" ">
<polygon fill="white" stroke="black" points="416,-98.5 416,-128.5 539,-128.5 539,-98.5 416,-98.5"/>
<text text-anchor="start" x="424" y="-116.5" font-family="Helvetica,sans-Serif" font-size="10.00">Satellite.SatelliteEngine.</text>
<text text-anchor="middle" x="477.5" y="-105.5" font-family="Helvetica,sans-Serif" font-size="10.00">SetCurDirVelocity</text>
</a>
</g>
</g>
<!-- Node1&#45;&gt;Node9 -->
<g id="edge8" class="edge">
<title>Node1&#45;&gt;Node9</title>
<path fill="none" stroke="midnightblue" d="M597.93,-144.88C577.52,-139.52 555.3,-133.68 535.62,-128.51"/>
<polygon fill="midnightblue" stroke="midnightblue" points="597.22,-148.31 607.78,-147.47 598.99,-141.54 597.22,-148.31"/>
</g>
<!-- Node10 -->
<g id="node10" class="node">
<title>Node10</title>
<g id="a_node10"><a xlink:href="class_quiz_1_1_quiz_astral_body.html#a41716d9876ed4fb8cbb1913d83982d2d" target="_top" xlink:title="更新独立天体数据">
<polygon fill="white" stroke="black" points="406.5,-49.5 406.5,-79.5 548.5,-79.5 548.5,-49.5 406.5,-49.5"/>
<text text-anchor="start" x="414.5" y="-67.5" font-family="Helvetica,sans-Serif" font-size="10.00">Quiz.QuizAstralBody.Update</text>
<text text-anchor="middle" x="477.5" y="-56.5" font-family="Helvetica,sans-Serif" font-size="10.00">HighCost</text>
</a>
</g>
</g>
<!-- Node1&#45;&gt;Node10 -->
<g id="edge9" class="edge">
<title>Node1&#45;&gt;Node10</title>
<path fill="none" stroke="midnightblue" d="M638.27,-140.97C617.41,-125.01 587.16,-103.65 558,-89.5 550.32,-85.77 541.96,-82.44 533.63,-79.51"/>
<polygon fill="midnightblue" stroke="midnightblue" points="636.29,-143.86 646.33,-147.23 640.58,-138.33 636.29,-143.86"/>
</g>
<!-- Node11 -->
<g id="node11" class="node">
<title>Node11</title>
<g id="a_node11"><a xlink:href="class_quiz_1_1_quiz_astral_body.html#a03a56d66cf7a3c2fbbea70a297229e76" target="_top" xlink:title="更新天体数据">
<polygon fill="white" stroke="black" points="406.5,-0.5 406.5,-30.5 548.5,-30.5 548.5,-0.5 406.5,-0.5"/>
<text text-anchor="start" x="414.5" y="-18.5" font-family="Helvetica,sans-Serif" font-size="10.00">Quiz.QuizAstralBody.Update</text>
<text text-anchor="middle" x="477.5" y="-7.5" font-family="Helvetica,sans-Serif" font-size="10.00">QuizAstralBody</text>
</a>
</g>
</g>
<!-- Node1&#45;&gt;Node11 -->
<g id="edge10" class="edge">
<title>Node1&#45;&gt;Node11</title>
<path fill="none" stroke="midnightblue" d="M650.21,-138.49C631.89,-110.71 598.14,-65.46 558,-39.5 552.67,-36.06 546.83,-33.09 540.8,-30.53"/>
<polygon fill="midnightblue" stroke="midnightblue" points="647.46,-140.68 655.82,-147.19 653.34,-136.89 647.46,-140.68"/>
</g>
<!-- Node4 -->
<g id="node4" class="node">
<title>Node4</title>
<g id="a_node4"><a xlink:href="class_quiz_1_1_quiz_solver.html#afc4ef823ad1220a4aea4f7d2f5cf23dd" target="_top" xlink:title="获取问题">
<polygon fill="white" stroke="black" points="194,-241 194,-260 361,-260 361,-241 194,-241"/>
<text text-anchor="middle" x="277.5" y="-248" font-family="Helvetica,sans-Serif" font-size="10.00">Quiz.QuizSolver.GetQuizSentence</text>
</a>
</g>
</g>
<!-- Node3&#45;&gt;Node4 -->
<g id="edge3" class="edge">
<title>Node3&#45;&gt;Node4</title>
<path fill="none" stroke="midnightblue" d="M393.68,-250.5C382.92,-250.5 371.9,-250.5 361.14,-250.5"/>
<polygon fill="midnightblue" stroke="midnightblue" points="393.9,-254 403.9,-250.5 393.9,-247 393.9,-254"/>
</g>
<!-- Node5 -->
<g id="node5" class="node">
<title>Node5</title>
<g id="a_node5"><a xlink:href="class_custom_u_i_1_1_quiz_1_1_quiz_u_i.html#ac238c7b368d3c183e8e479fc77c48d08" target="_top" xlink:title=" ">
<polygon fill="white" stroke="black" points="0,-241 0,-260 158,-260 158,-241 0,-241"/>
<text text-anchor="middle" x="79" y="-248" font-family="Helvetica,sans-Serif" font-size="10.00">CustomUI.Quiz.QuizUI.Generate</text>
</a>
</g>
</g>
<!-- Node4&#45;&gt;Node5 -->
<g id="edge4" class="edge">
<title>Node4&#45;&gt;Node5</title>
<path fill="none" stroke="midnightblue" d="M183.49,-250.5C175.05,-250.5 166.57,-250.5 158.28,-250.5"/>
<polygon fill="midnightblue" stroke="midnightblue" points="183.74,-254 193.74,-250.5 183.74,-247 183.74,-254"/>
</g>
<!-- Node8 -->
<g id="node8" class="node">
<title>Node8</title>
<g id="a_node8"><a xlink:href="class_custom_u_i_1_1_quiz_1_1_var_line_u_i.html#aac47d0852e69724a11cc6c9979eeda9a" target="_top" xlink:title=" ">
<polygon fill="white" stroke="black" points="212,-147.5 212,-177.5 343,-177.5 343,-147.5 212,-147.5"/>
<text text-anchor="start" x="220" y="-165.5" font-family="Helvetica,sans-Serif" font-size="10.00">CustomUI.Quiz.VarLineUI.</text>
<text text-anchor="middle" x="277.5" y="-154.5" font-family="Helvetica,sans-Serif" font-size="10.00">WhileInputFieldDrag</text>
</a>
</g>
</g>
<!-- Node7&#45;&gt;Node8 -->
<g id="edge7" class="edge">
<title>Node7&#45;&gt;Node8</title>
<path fill="none" stroke="midnightblue" d="M401.72,-162.5C382.5,-162.5 361.98,-162.5 343.31,-162.5"/>
<polygon fill="midnightblue" stroke="midnightblue" points="401.94,-166 411.94,-162.5 401.94,-159 401.94,-166"/>
</g>
<!-- Node12 -->
<g id="node12" class="node">
<title>Node12</title>
<g id="a_node12"><a xlink:href="class_quiz_1_1_quiz_astral_body.html#a5a3cf8e859c9f5592c2a2c17f3b814a1" target="_top" xlink:title=" ">
<polygon fill="white" stroke="black" points="210,-0.5 210,-30.5 345,-30.5 345,-0.5 210,-0.5"/>
<text text-anchor="start" x="218" y="-18.5" font-family="Helvetica,sans-Serif" font-size="10.00">Quiz.QuizAstralBody.Fixed</text>
<text text-anchor="middle" x="277.5" y="-7.5" font-family="Helvetica,sans-Serif" font-size="10.00">Update</text>
</a>
</g>
</g>
<!-- Node11&#45;&gt;Node12 -->
<g id="edge11" class="edge">
<title>Node11&#45;&gt;Node12</title>
<path fill="none" stroke="midnightblue" d="M396.01,-15.5C379.12,-15.5 361.49,-15.5 345.17,-15.5"/>
<polygon fill="midnightblue" stroke="midnightblue" points="396.41,-19 406.41,-15.5 396.41,-12 396.41,-19"/>
</g>
</g>
</svg>
