<?xml version="1.0" encoding="UTF-8" standalone="no"?>
<!DOCTYPE svg PUBLIC "-//W3C//DTD SVG 1.1//EN"
 "http://www.w3.org/Graphics/SVG/1.1/DTD/svg11.dtd">
<!-- Generated by graphviz version 2.47.1 (20210417.1919)
 -->
<!-- Title: CustomUI.AstralBodyEditor.OrbitPanelUI Pages: 1 -->
<svg width="535pt" height="1152pt"
 viewBox="0.00 0.00 535.18 1152.00" xmlns="http://www.w3.org/2000/svg" xmlns:xlink="http://www.w3.org/1999/xlink">
<g id="graph0" class="graph" transform="scale(1 1) rotate(0) translate(4 1148)">
<title>CustomUI.AstralBodyEditor.OrbitPanelUI</title>
<polygon fill="white" stroke="transparent" points="-4,4 -4,-1148 531.18,-1148 531.18,4 -4,4"/>
<!-- Node1 -->
<g id="node1" class="node">
<title>Node1</title>
<g id="a_node1"><a xlink:title=" ">
<polygon fill="#bfbfbf" stroke="black" points="340.5,-0.5 340.5,-101.5 480.5,-101.5 480.5,-0.5 340.5,-0.5"/>
<text text-anchor="start" x="348.5" y="-89.5" font-family="Helvetica,sans-Serif" font-size="10.00">CustomUI.AstralBodyEditor.</text>
<text text-anchor="middle" x="410.5" y="-78.5" font-family="Helvetica,sans-Serif" font-size="10.00">OrbitPanelUI</text>
<polyline fill="none" stroke="black" points="340.5,-71.5 480.5,-71.5 "/>
<text text-anchor="start" x="348.5" y="-59.5" font-family="Helvetica,sans-Serif" font-size="10.00">+ GameObject contentPanel</text>
<text text-anchor="start" x="348.5" y="-48.5" font-family="Helvetica,sans-Serif" font-size="10.00">+ bool isConicSection</text>
<text text-anchor="start" x="348.5" y="-37.5" font-family="Helvetica,sans-Serif" font-size="10.00">+ GameObject nullPanel</text>
<text text-anchor="start" x="348.5" y="-26.5" font-family="Helvetica,sans-Serif" font-size="10.00">+ AstralBody astralBody</text>
<polyline fill="none" stroke="black" points="340.5,-19.5 480.5,-19.5 "/>
<text text-anchor="middle" x="410.5" y="-7.5" font-family="Helvetica,sans-Serif" font-size="10.00"> </text>
</a>
</g>
</g>
<!-- Node2 -->
<g id="node2" class="node">
<title>Node2</title>
<g id="a_node2"><a xlink:title=" ">
<polygon fill="white" stroke="#bfbfbf" points="315,-1037 315,-1094 398,-1094 398,-1037 315,-1037"/>
<text text-anchor="middle" x="356.5" y="-1082" font-family="Helvetica,sans-Serif" font-size="10.00">MonoBehaviour</text>
<polyline fill="none" stroke="#bfbfbf" points="315,-1075 398,-1075 "/>
<text text-anchor="middle" x="356.5" y="-1063" font-family="Helvetica,sans-Serif" font-size="10.00"> </text>
<polyline fill="none" stroke="#bfbfbf" points="315,-1056 398,-1056 "/>
<text text-anchor="middle" x="356.5" y="-1044" font-family="Helvetica,sans-Serif" font-size="10.00"> </text>
</a>
</g>
</g>
<!-- Node2&#45;&gt;Node1 -->
<g id="edge1" class="edge">
<title>Node2&#45;&gt;Node1</title>
<path fill="none" stroke="midnightblue" d="M395.79,-1029.83C416.7,-1008.93 440.68,-980.51 453.5,-950 564.88,-684.99 500.15,-593.15 513.5,-306 516.74,-236.3 541.17,-213.06 513.5,-149 505.85,-131.3 493.21,-115.33 479.36,-101.7"/>
<polygon fill="none" stroke="midnightblue" points="393.26,-1027.41 388.55,-1036.89 398.15,-1032.42 393.26,-1027.41"/>
</g>
<!-- Node3 -->
<g id="node3" class="node">
<title>Node3</title>
<g id="a_node3"><a xlink:href="class_custom_u_i_1_1_astral_body_editor_1_1_orbit_graph_u_i.html" target="_top" xlink:title=" ">
<polygon fill="white" stroke="black" points="255,-149.5 255,-305.5 398,-305.5 398,-149.5 255,-149.5"/>
<text text-anchor="start" x="263" y="-293.5" font-family="Helvetica,sans-Serif" font-size="10.00">CustomUI.AstralBodyEditor.</text>
<text text-anchor="middle" x="326.5" y="-282.5" font-family="Helvetica,sans-Serif" font-size="10.00">OrbitGraphUI</text>
<polyline fill="none" stroke="black" points="255,-275.5 398,-275.5 "/>
<text text-anchor="start" x="263" y="-263.5" font-family="Helvetica,sans-Serif" font-size="10.00">+ float conHeight</text>
<text text-anchor="start" x="263" y="-252.5" font-family="Helvetica,sans-Serif" font-size="10.00">+ Image ellipseImage</text>
<text text-anchor="start" x="263" y="-241.5" font-family="Helvetica,sans-Serif" font-size="10.00">+ Image fillImage</text>
<text text-anchor="start" x="263" y="-230.5" font-family="Helvetica,sans-Serif" font-size="10.00">+ RectTransform fillMask</text>
<text text-anchor="start" x="263" y="-219.5" font-family="Helvetica,sans-Serif" font-size="10.00">+ Image leftFociImage</text>
<text text-anchor="start" x="263" y="-208.5" font-family="Helvetica,sans-Serif" font-size="10.00">+ Image oriImage</text>
<text text-anchor="start" x="263" y="-197.5" font-family="Helvetica,sans-Serif" font-size="10.00">+ Image rightFociImage</text>
<text text-anchor="start" x="263" y="-186.5" font-family="Helvetica,sans-Serif" font-size="10.00">+ Image targetImage</text>
<text text-anchor="start" x="263" y="-175.5" font-family="Helvetica,sans-Serif" font-size="10.00">+ Vector3 angularMomentum</text>
<polyline fill="none" stroke="black" points="255,-168.5 398,-168.5 "/>
<text text-anchor="start" x="263" y="-156.5" font-family="Helvetica,sans-Serif" font-size="10.00">+ void Init()</text>
</a>
</g>
</g>
<!-- Node2&#45;&gt;Node3 -->
<g id="edge3" class="edge">
<title>Node2&#45;&gt;Node3</title>
<path fill="none" stroke="midnightblue" d="M356.09,-1026.58C354.81,-922.46 350.24,-623.34 337.5,-375 336.34,-352.46 334.67,-327.99 332.98,-305.63"/>
<polygon fill="none" stroke="midnightblue" points="352.59,-1026.94 356.21,-1036.89 359.59,-1026.85 352.59,-1026.94"/>
</g>
<!-- Node6 -->
<g id="node6" class="node">
<title>Node6</title>
<g id="a_node6"><a xlink:href="class_space_physic_1_1_astral_body.html" target="_top" xlink:title="星体物理实体">
<polygon fill="white" stroke="black" points="0,-375.5 0,-949.5 161,-949.5 161,-375.5 0,-375.5"/>
<text text-anchor="middle" x="80.5" y="-937.5" font-family="Helvetica,sans-Serif" font-size="10.00">SpacePhysic.AstralBody</text>
<polyline fill="none" stroke="black" points="0,-930.5 161,-930.5 "/>
<text text-anchor="start" x="8" y="-918.5" font-family="Helvetica,sans-Serif" font-size="10.00">+ List&lt; AstralBody &gt;</text>
<text text-anchor="start" x="8" y="-907.5" font-family="Helvetica,sans-Serif" font-size="10.00"> affectedPlanets</text>
<text text-anchor="start" x="8" y="-896.5" font-family="Helvetica,sans-Serif" font-size="10.00">+ float affectRadius</text>
<text text-anchor="start" x="8" y="-885.5" font-family="Helvetica,sans-Serif" font-size="10.00">+ Vector3 angularVelocity</text>
<text text-anchor="start" x="8" y="-874.5" font-family="Helvetica,sans-Serif" font-size="10.00">+ List&lt; AstralBody &gt;</text>
<text text-anchor="start" x="8" y="-863.5" font-family="Helvetica,sans-Serif" font-size="10.00"> banAffectedPlanets</text>
<text text-anchor="start" x="8" y="-852.5" font-family="Helvetica,sans-Serif" font-size="10.00">+ SphereCollider defaultCollider</text>
<text text-anchor="start" x="8" y="-841.5" font-family="Helvetica,sans-Serif" font-size="10.00">+ bool enableAffect</text>
<text text-anchor="start" x="8" y="-830.5" font-family="Helvetica,sans-Serif" font-size="10.00">+ bool enableTracing</text>
<text text-anchor="start" x="8" y="-819.5" font-family="Helvetica,sans-Serif" font-size="10.00">+ Vector3 oriVelocity</text>
<text text-anchor="start" x="8" y="-808.5" font-family="Helvetica,sans-Serif" font-size="10.00">+ SphereCollider triggerCollider</text>
<text text-anchor="start" x="8" y="-797.5" font-family="Helvetica,sans-Serif" font-size="10.00">+ UnityEvent&lt; Vector3</text>
<text text-anchor="start" x="8" y="-786.5" font-family="Helvetica,sans-Serif" font-size="10.00"> &gt; velocityChangedEvent</text>
<text text-anchor="start" x="8" y="-775.5" font-family="Helvetica,sans-Serif" font-size="10.00">+ UnityEvent astralBodyDestroy</text>
<text text-anchor="start" x="8" y="-764.5" font-family="Helvetica,sans-Serif" font-size="10.00">Event</text>
<text text-anchor="start" x="8" y="-753.5" font-family="Helvetica,sans-Serif" font-size="10.00">+ bool isUseScaler</text>
<text text-anchor="start" x="8" y="-742.5" font-family="Helvetica,sans-Serif" font-size="10.00">+ float? Mass</text>
<text text-anchor="start" x="8" y="-731.5" font-family="Helvetica,sans-Serif" font-size="10.00">+ Rigidbody astralBodyRigidbody</text>
<text text-anchor="start" x="8" y="-720.5" font-family="Helvetica,sans-Serif" font-size="10.00">+ Vector3 Force</text>
<text text-anchor="start" x="8" y="-709.5" font-family="Helvetica,sans-Serif" font-size="10.00">+ float gravity</text>
<text text-anchor="start" x="8" y="-698.5" font-family="Helvetica,sans-Serif" font-size="10.00">+ int meshNum</text>
<text text-anchor="start" x="8" y="-687.5" font-family="Helvetica,sans-Serif" font-size="10.00">+ float size</text>
<text text-anchor="start" x="8" y="-676.5" font-family="Helvetica,sans-Serif" font-size="10.00">+ double realMass</text>
<text text-anchor="start" x="8" y="-665.5" font-family="Helvetica,sans-Serif" font-size="10.00">+ double density</text>
<text text-anchor="start" x="8" y="-654.5" font-family="Helvetica,sans-Serif" font-size="10.00">+ Vector3 lastVelocity</text>
<text text-anchor="start" x="8" y="-643.5" font-family="Helvetica,sans-Serif" font-size="10.00">+ bool isLoadDone</text>
<polyline fill="none" stroke="black" points="0,-636.5 161,-636.5 "/>
<text text-anchor="start" x="8" y="-624.5" font-family="Helvetica,sans-Serif" font-size="10.00">+ virtual void OnCollision</text>
<text text-anchor="start" x="8" y="-613.5" font-family="Helvetica,sans-Serif" font-size="10.00">Enter(Collision other)</text>
<text text-anchor="start" x="8" y="-602.5" font-family="Helvetica,sans-Serif" font-size="10.00">+ Transform GetTransform()</text>
<text text-anchor="start" x="8" y="-591.5" font-family="Helvetica,sans-Serif" font-size="10.00">+ Vector3 GetPosition()</text>
<text text-anchor="start" x="8" y="-580.5" font-family="Helvetica,sans-Serif" font-size="10.00">+ GameObject GetGameObject()</text>
<text text-anchor="start" x="8" y="-569.5" font-family="Helvetica,sans-Serif" font-size="10.00">+ bool GetEnableTracing()</text>
<text text-anchor="start" x="8" y="-558.5" font-family="Helvetica,sans-Serif" font-size="10.00">+ virtual float GetMass()</text>
<text text-anchor="start" x="8" y="-547.5" font-family="Helvetica,sans-Serif" font-size="10.00">+ Rigidbody GetRigidbody()</text>
<text text-anchor="start" x="8" y="-536.5" font-family="Helvetica,sans-Serif" font-size="10.00">+ Vector3 GetVelocity()</text>
<text text-anchor="start" x="8" y="-525.5" font-family="Helvetica,sans-Serif" font-size="10.00">+ List&lt; AstralBody &gt;</text>
<text text-anchor="start" x="8" y="-514.5" font-family="Helvetica,sans-Serif" font-size="10.00"> GetAffectedPlanets()</text>
<text text-anchor="start" x="8" y="-503.5" font-family="Helvetica,sans-Serif" font-size="10.00">+ AstralBody GetAstralBody()</text>
<text text-anchor="start" x="8" y="-492.5" font-family="Helvetica,sans-Serif" font-size="10.00">+ void ChangeVelocity</text>
<text text-anchor="start" x="8" y="-481.5" font-family="Helvetica,sans-Serif" font-size="10.00">(Vector3 velocity)</text>
<text text-anchor="start" x="8" y="-470.5" font-family="Helvetica,sans-Serif" font-size="10.00">+ void ChangeVelocity</text>
<text text-anchor="start" x="8" y="-459.5" font-family="Helvetica,sans-Serif" font-size="10.00">(double realSpeed)</text>
<text text-anchor="start" x="8" y="-448.5" font-family="Helvetica,sans-Serif" font-size="10.00">+ Vector3 CalculateForce()</text>
<text text-anchor="start" x="8" y="-437.5" font-family="Helvetica,sans-Serif" font-size="10.00">+ void SetCircleVelocity()</text>
<text text-anchor="start" x="8" y="-426.5" font-family="Helvetica,sans-Serif" font-size="10.00">+ void SetCircleVelocityMenu()</text>
<text text-anchor="start" x="8" y="-415.5" font-family="Helvetica,sans-Serif" font-size="10.00"># virtual void Start()</text>
<text text-anchor="start" x="8" y="-404.5" font-family="Helvetica,sans-Serif" font-size="10.00"># void Generate()</text>
<text text-anchor="start" x="8" y="-393.5" font-family="Helvetica,sans-Serif" font-size="10.00"># virtual void FixedUpdate()</text>
<text text-anchor="start" x="8" y="-382.5" font-family="Helvetica,sans-Serif" font-size="10.00"># virtual void SetMass()</text>
</a>
</g>
</g>
<!-- Node2&#45;&gt;Node6 -->
<g id="edge7" class="edge">
<title>Node2&#45;&gt;Node6</title>
<path fill="none" stroke="midnightblue" d="M305.73,-1045.17C263.77,-1026.73 205.59,-995.06 170.5,-950 167.22,-945.78 164.05,-941.45 161,-937"/>
<polygon fill="none" stroke="midnightblue" points="304.38,-1048.4 314.95,-1049.13 307.14,-1041.97 304.38,-1048.4"/>
</g>
<!-- Node3&#45;&gt;Node1 -->
<g id="edge2" class="edge">
<title>Node3&#45;&gt;Node1</title>
<path fill="none" stroke="#404040" d="M358.74,-149.29C363.21,-139.36 367.86,-129.39 372.5,-120 373.69,-117.59 374.93,-115.14 376.19,-112.67"/>
<polygon fill="none" stroke="#404040" points="376.31,-112.45 375.57,-105.27 381.9,-101.83 382.65,-109 376.31,-112.45"/>
<text text-anchor="middle" x="404.5" y="-123" font-family="Helvetica,sans-Serif" font-size="10.00"> +orbitGraphUI</text>
</g>
<!-- Node4 -->
<g id="node4" class="node">
<title>Node4</title>
<g id="a_node4"><a xlink:href="class_static_classes_1_1_math_plus_1_1_conic_section.html" target="_top" xlink:title="圆锥曲线">
<polygon fill="white" stroke="black" points="179,-496.5 179,-828.5 328,-828.5 328,-496.5 179,-496.5"/>
<text text-anchor="start" x="187" y="-816.5" font-family="Helvetica,sans-Serif" font-size="10.00">StaticClasses.MathPlus.Conic</text>
<text text-anchor="middle" x="253.5" y="-805.5" font-family="Helvetica,sans-Serif" font-size="10.00">Section</text>
<polyline fill="none" stroke="black" points="179,-798.5 328,-798.5 "/>
<text text-anchor="start" x="187" y="-786.5" font-family="Helvetica,sans-Serif" font-size="10.00">+ float a</text>
<text text-anchor="start" x="187" y="-775.5" font-family="Helvetica,sans-Serif" font-size="10.00">+ float angle</text>
<text text-anchor="start" x="187" y="-764.5" font-family="Helvetica,sans-Serif" font-size="10.00">+ float b</text>
<text text-anchor="start" x="187" y="-753.5" font-family="Helvetica,sans-Serif" font-size="10.00">+ float c</text>
<text text-anchor="start" x="187" y="-742.5" font-family="Helvetica,sans-Serif" font-size="10.00">+ float d</text>
<text text-anchor="start" x="187" y="-731.5" font-family="Helvetica,sans-Serif" font-size="10.00">+ float e</text>
<text text-anchor="start" x="187" y="-720.5" font-family="Helvetica,sans-Serif" font-size="10.00">+ float eccentricity</text>
<text text-anchor="start" x="187" y="-709.5" font-family="Helvetica,sans-Serif" font-size="10.00">+ float f</text>
<text text-anchor="start" x="187" y="-698.5" font-family="Helvetica,sans-Serif" font-size="10.00">+ float focalLength</text>
<text text-anchor="start" x="187" y="-687.5" font-family="Helvetica,sans-Serif" font-size="10.00">+ Vector2 geoCenter</text>
<text text-anchor="start" x="187" y="-676.5" font-family="Helvetica,sans-Serif" font-size="10.00">+ bool isEllipse</text>
<text text-anchor="start" x="187" y="-665.5" font-family="Helvetica,sans-Serif" font-size="10.00">+ float semiMajorAxis</text>
<text text-anchor="start" x="187" y="-654.5" font-family="Helvetica,sans-Serif" font-size="10.00">+ float semiMinorAxis</text>
<polyline fill="none" stroke="black" points="179,-647.5 328,-647.5 "/>
<text text-anchor="start" x="187" y="-635.5" font-family="Helvetica,sans-Serif" font-size="10.00">+ ConicSection(float</text>
<text text-anchor="start" x="187" y="-624.5" font-family="Helvetica,sans-Serif" font-size="10.00"> a, float b, float c,</text>
<text text-anchor="start" x="187" y="-613.5" font-family="Helvetica,sans-Serif" font-size="10.00"> float d, float e, float f)</text>
<text text-anchor="start" x="187" y="-602.5" font-family="Helvetica,sans-Serif" font-size="10.00">+ ConicSection(float</text>
<text text-anchor="start" x="187" y="-591.5" font-family="Helvetica,sans-Serif" font-size="10.00"> a, float b, float c,</text>
<text text-anchor="start" x="187" y="-580.5" font-family="Helvetica,sans-Serif" font-size="10.00"> float theta, Vector2</text>
<text text-anchor="start" x="187" y="-569.5" font-family="Helvetica,sans-Serif" font-size="10.00"> geoCenter)</text>
<text text-anchor="start" x="187" y="-558.5" font-family="Helvetica,sans-Serif" font-size="10.00">+ float[] GetY(float x)</text>
<text text-anchor="start" x="187" y="-547.5" font-family="Helvetica,sans-Serif" font-size="10.00">+ float[] GetX(float y)</text>
<text text-anchor="start" x="187" y="-536.5" font-family="Helvetica,sans-Serif" font-size="10.00">+ Vector2 GetPolarPos</text>
<text text-anchor="start" x="187" y="-525.5" font-family="Helvetica,sans-Serif" font-size="10.00">(float ag)</text>
<text text-anchor="start" x="187" y="-514.5" font-family="Helvetica,sans-Serif" font-size="10.00">+ float GetT(float m)</text>
<text text-anchor="start" x="187" y="-503.5" font-family="Helvetica,sans-Serif" font-size="10.00">+ override string ToString()</text>
</a>
</g>
</g>
<!-- Node4&#45;&gt;Node3 -->
<g id="edge4" class="edge">
<title>Node4&#45;&gt;Node3</title>
<path fill="none" stroke="#404040" d="M258.02,-496.17C262.35,-440.78 270.25,-379.12 284.5,-324 285.09,-321.73 285.72,-319.45 286.4,-317.16"/>
<polygon fill="none" stroke="#404040" points="286.42,-317.1 284.45,-310.16 290.1,-305.68 292.06,-312.61 286.42,-317.1"/>
<text text-anchor="middle" x="298.5" y="-338" font-family="Helvetica,sans-Serif" font-size="10.00"> +orbit</text>
</g>
<!-- Node5 -->
<g id="node5" class="node">
<title>Node5</title>
<g id="a_node5"><a xlink:title=" ">
<polygon fill="white" stroke="#bfbfbf" points="409,-634 409,-691 444,-691 444,-634 409,-634"/>
<text text-anchor="middle" x="426.5" y="-679" font-family="Helvetica,sans-Serif" font-size="10.00">Text</text>
<polyline fill="none" stroke="#bfbfbf" points="409,-672 444,-672 "/>
<text text-anchor="middle" x="426.5" y="-660" font-family="Helvetica,sans-Serif" font-size="10.00"> </text>
<polyline fill="none" stroke="#bfbfbf" points="409,-653 444,-653 "/>
<text text-anchor="middle" x="426.5" y="-641" font-family="Helvetica,sans-Serif" font-size="10.00"> </text>
</a>
</g>
</g>
<!-- Node5&#45;&gt;Node1 -->
<g id="edge9" class="edge">
<title>Node5&#45;&gt;Node1</title>
<path fill="none" stroke="#404040" d="M430.87,-633.85C442.73,-553.59 472.31,-313.94 436.5,-120 436.08,-117.72 435.58,-115.41 435.03,-113.1"/>
<polygon fill="none" stroke="#404040" points="435.03,-113.09 429.56,-108.39 431.8,-101.53 437.27,-106.24 435.03,-113.09"/>
<text text-anchor="middle" x="481" y="-263.5" font-family="Helvetica,sans-Serif" font-size="10.00"> +angle</text>
<text text-anchor="middle" x="481" y="-252.5" font-family="Helvetica,sans-Serif" font-size="10.00">+eccentricity</text>
<text text-anchor="middle" x="481" y="-241.5" font-family="Helvetica,sans-Serif" font-size="10.00">+focalLength</text>
<text text-anchor="middle" x="481" y="-230.5" font-family="Helvetica,sans-Serif" font-size="10.00">+geoCenter</text>
<text text-anchor="middle" x="481" y="-219.5" font-family="Helvetica,sans-Serif" font-size="10.00">+k</text>
<text text-anchor="middle" x="481" y="-208.5" font-family="Helvetica,sans-Serif" font-size="10.00">+majorAxis</text>
<text text-anchor="middle" x="481" y="-197.5" font-family="Helvetica,sans-Serif" font-size="10.00">+minorAxis</text>
<text text-anchor="middle" x="481" y="-186.5" font-family="Helvetica,sans-Serif" font-size="10.00">+period</text>
</g>
<!-- Node5&#45;&gt;Node3 -->
<g id="edge5" class="edge">
<title>Node5&#45;&gt;Node3</title>
<path fill="none" stroke="#404040" d="M424.01,-633.87C418.69,-581.86 403.87,-466.41 370.5,-375 367.36,-366.4 363.92,-365.49 360.5,-357 355.43,-344.42 350.9,-330.84 346.92,-317.38"/>
<polygon fill="none" stroke="#404040" points="346.86,-317.16 341.37,-312.49 343.57,-305.62 349.06,-310.29 346.86,-317.16"/>
<text text-anchor="middle" x="398.5" y="-349" font-family="Helvetica,sans-Serif" font-size="10.00"> +angularVelocity</text>
<text text-anchor="middle" x="398.5" y="-338" font-family="Helvetica,sans-Serif" font-size="10.00">+area</text>
<text text-anchor="middle" x="398.5" y="-327" font-family="Helvetica,sans-Serif" font-size="10.00">+distance</text>
</g>
<!-- Node6&#45;&gt;Node1 -->
<g id="edge10" class="edge">
<title>Node6&#45;&gt;Node1</title>
<path fill="none" stroke="#404040" d="M90.44,-375.48C105.39,-295.26 133.7,-212.67 185.5,-149 221.02,-105.33 279.95,-80.89 328.59,-67.47"/>
<polygon fill="none" stroke="#404040" points="328.78,-67.41 333.57,-62.02 340.39,-64.37 335.6,-69.76 328.78,-67.41"/>
<text text-anchor="middle" x="216" y="-225" font-family="Helvetica,sans-Serif" font-size="10.00"> +_astralBody</text>
</g>
<!-- Node6&#45;&gt;Node3 -->
<g id="edge6" class="edge">
<title>Node6&#45;&gt;Node3</title>
<path fill="none" stroke="#404040" d="M161.02,-392.29C164.08,-386.41 167.24,-380.64 170.5,-375 189.47,-342.21 218.08,-312.29 245.64,-288.17"/>
<polygon fill="none" stroke="#404040" points="245.82,-288.02 247.77,-281.08 254.93,-280.21 252.98,-287.15 245.82,-288.02"/>
<text text-anchor="middle" x="232.5" y="-338" font-family="Helvetica,sans-Serif" font-size="10.00"> +astralBody</text>
</g>
<!-- Node7 -->
<g id="node7" class="node">
<title>Node7</title>
<g id="a_node7"><a xlink:href="interface_space_physic_1_1_i_traceable.html" target="_top" xlink:title="可追踪接口">
<polygon fill="white" stroke="black" points="0.5,-987.5 0.5,-1143.5 160.5,-1143.5 160.5,-987.5 0.5,-987.5"/>
<text text-anchor="middle" x="80.5" y="-1131.5" font-family="Helvetica,sans-Serif" font-size="10.00">ITraceable</text>
<polyline fill="none" stroke="black" points="0.5,-1124.5 160.5,-1124.5 "/>
<text text-anchor="middle" x="80.5" y="-1112.5" font-family="Helvetica,sans-Serif" font-size="10.00"> </text>
<polyline fill="none" stroke="black" points="0.5,-1105.5 160.5,-1105.5 "/>
<text text-anchor="start" x="8.5" y="-1093.5" font-family="Helvetica,sans-Serif" font-size="10.00">+ Transform GetTransform()</text>
<text text-anchor="start" x="8.5" y="-1082.5" font-family="Helvetica,sans-Serif" font-size="10.00">+ Vector3 GetPosition()</text>
<text text-anchor="start" x="8.5" y="-1071.5" font-family="Helvetica,sans-Serif" font-size="10.00">+ GameObject GetGameObject()</text>
<text text-anchor="start" x="8.5" y="-1060.5" font-family="Helvetica,sans-Serif" font-size="10.00">+ bool GetEnableTracing()</text>
<text text-anchor="start" x="8.5" y="-1049.5" font-family="Helvetica,sans-Serif" font-size="10.00">+ float GetMass()</text>
<text text-anchor="start" x="8.5" y="-1038.5" font-family="Helvetica,sans-Serif" font-size="10.00">+ Rigidbody GetRigidbody()</text>
<text text-anchor="start" x="8.5" y="-1027.5" font-family="Helvetica,sans-Serif" font-size="10.00">+ Vector3 GetVelocity()</text>
<text text-anchor="start" x="8.5" y="-1016.5" font-family="Helvetica,sans-Serif" font-size="10.00">+ List&lt; AstralBody &gt;</text>
<text text-anchor="start" x="8.5" y="-1005.5" font-family="Helvetica,sans-Serif" font-size="10.00"> GetAffectedPlanets()</text>
<text text-anchor="start" x="8.5" y="-994.5" font-family="Helvetica,sans-Serif" font-size="10.00">+ AstralBody GetAstralBody()</text>
</a>
</g>
</g>
<!-- Node7&#45;&gt;Node6 -->
<g id="edge8" class="edge">
<title>Node7&#45;&gt;Node6</title>
<path fill="none" stroke="midnightblue" d="M80.5,-977.08C80.5,-968.3 80.5,-959.1 80.5,-949.57"/>
<polygon fill="none" stroke="midnightblue" points="77,-977.18 80.5,-987.18 84,-977.18 77,-977.18"/>
</g>
</g>
</svg>
