<?xml version="1.0" encoding="UTF-8" standalone="no"?>
<!DOCTYPE svg PUBLIC "-//W3C//DTD SVG 1.1//EN"
 "http://www.w3.org/Graphics/SVG/1.1/DTD/svg11.dtd">
<!-- Generated by graphviz version 2.47.1 (20210417.1919)
 -->
<!-- Title: Quiz.QuizSaver.ConvertAstralBody2XmlElement Pages: 1 -->
<svg width="516pt" height="39pt"
 viewBox="0.00 0.00 516.00 39.00" xmlns="http://www.w3.org/2000/svg" xmlns:xlink="http://www.w3.org/1999/xlink">
<g id="graph0" class="graph" transform="scale(1 1) rotate(0) translate(4 35)">
<title>Quiz.QuizSaver.ConvertAstralBody2XmlElement</title>
<polygon fill="white" stroke="transparent" points="-4,4 -4,-35 512,-35 512,4 -4,4"/>
<!-- Node1 -->
<g id="node1" class="node">
<title>Node1</title>
<g id="a_node1"><a xlink:title=" ">
<polygon fill="#bfbfbf" stroke="black" points="363,-0.5 363,-30.5 508,-30.5 508,-0.5 363,-0.5"/>
<text text-anchor="start" x="371" y="-18.5" font-family="Helvetica,sans-Serif" font-size="10.00">Quiz.QuizSaver.ConvertAstral</text>
<text text-anchor="middle" x="435.5" y="-7.5" font-family="Helvetica,sans-Serif" font-size="10.00">Body2XmlElement</text>
</a>
</g>
</g>
<!-- Node2 -->
<g id="node2" class="node">
<title>Node2</title>
<g id="a_node2"><a xlink:href="class_quiz_1_1_quiz_saver.html#a2085ac4d9d04a7cbd1f245edc6aa08e1" target="_top" xlink:title="将星体群转为XML文档">
<polygon fill="white" stroke="black" points="166,-6 166,-25 327,-25 327,-6 166,-6"/>
<text text-anchor="middle" x="246.5" y="-13" font-family="Helvetica,sans-Serif" font-size="10.00">Quiz.QuizSaver.ConvertOrbit2Xml</text>
</a>
</g>
</g>
<!-- Node1&#45;&gt;Node2 -->
<g id="edge1" class="edge">
<title>Node1&#45;&gt;Node2</title>
<path fill="none" stroke="midnightblue" d="M352.54,-15.5C344.12,-15.5 335.57,-15.5 327.17,-15.5"/>
<polygon fill="midnightblue" stroke="midnightblue" points="352.74,-19 362.74,-15.5 352.74,-12 352.74,-19"/>
</g>
<!-- Node3 -->
<g id="node3" class="node">
<title>Node3</title>
<g id="a_node3"><a xlink:href="class_quiz_1_1_quiz_editor.html#a018a7ec6f35c49aa66938aef92f9b608" target="_top" xlink:title="保存问题">
<polygon fill="white" stroke="black" points="0,-6 0,-25 130,-25 130,-6 0,-6"/>
<text text-anchor="middle" x="65" y="-13" font-family="Helvetica,sans-Serif" font-size="10.00">Quiz.QuizEditor.SaveQuiz</text>
</a>
</g>
</g>
<!-- Node2&#45;&gt;Node3 -->
<g id="edge2" class="edge">
<title>Node2&#45;&gt;Node3</title>
<path fill="none" stroke="midnightblue" d="M155.82,-15.5C147.14,-15.5 138.46,-15.5 130.11,-15.5"/>
<polygon fill="midnightblue" stroke="midnightblue" points="155.98,-19 165.98,-15.5 155.98,-12 155.98,-19"/>
</g>
</g>
</svg>
