<?xml version="1.0" encoding="UTF-8" standalone="no"?>
<!DOCTYPE svg PUBLIC "-//W3C//DTD SVG 1.1//EN"
 "http://www.w3.org/Graphics/SVG/1.1/DTD/svg11.dtd">
<!-- Generated by graphviz version 2.47.1 (20210417.1919)
 -->
<!-- Title: Quiz.QuizAstralBody.FixedUpdate Pages: 1 -->
<svg width="701pt" height="176pt"
 viewBox="0.00 0.00 701.00 176.00" xmlns="http://www.w3.org/2000/svg" xmlns:xlink="http://www.w3.org/1999/xlink">
<g id="graph0" class="graph" transform="scale(1 1) rotate(0) translate(4 172)">
<title>Quiz.QuizAstralBody.FixedUpdate</title>
<polygon fill="white" stroke="transparent" points="-4,4 -4,-172 697,-172 697,4 -4,4"/>
<!-- Node1 -->
<g id="node1" class="node">
<title>Node1</title>
<g id="a_node1"><a xlink:title=" ">
<polygon fill="#bfbfbf" stroke="black" points="0,-46.5 0,-76.5 135,-76.5 135,-46.5 0,-46.5"/>
<text text-anchor="start" x="8" y="-64.5" font-family="Helvetica,sans-Serif" font-size="10.00">Quiz.QuizAstralBody.Fixed</text>
<text text-anchor="middle" x="67.5" y="-53.5" font-family="Helvetica,sans-Serif" font-size="10.00">Update</text>
</a>
</g>
</g>
<!-- Node2 -->
<g id="node2" class="node">
<title>Node2</title>
<g id="a_node2"><a xlink:href="class_quiz_1_1_quiz_astral_body.html#a03a56d66cf7a3c2fbbea70a297229e76" target="_top" xlink:title="更新天体数据">
<polygon fill="white" stroke="black" points="171,-46.5 171,-76.5 313,-76.5 313,-46.5 171,-46.5"/>
<text text-anchor="start" x="179" y="-64.5" font-family="Helvetica,sans-Serif" font-size="10.00">Quiz.QuizAstralBody.Update</text>
<text text-anchor="middle" x="242" y="-53.5" font-family="Helvetica,sans-Serif" font-size="10.00">QuizAstralBody</text>
</a>
</g>
</g>
<!-- Node1&#45;&gt;Node2 -->
<g id="edge1" class="edge">
<title>Node1&#45;&gt;Node2</title>
<path fill="none" stroke="midnightblue" d="M135.19,-61.5C143.48,-61.5 152.03,-61.5 160.5,-61.5"/>
<polygon fill="midnightblue" stroke="midnightblue" points="160.77,-65 170.77,-61.5 160.77,-58 160.77,-65"/>
</g>
<!-- Node3 -->
<g id="node3" class="node">
<title>Node3</title>
<g id="a_node3"><a xlink:href="class_space_physic_1_1_gravity_tracing.html#a02741a5f2ab9b583440a9ebba2e2d685" target="_top" xlink:title="获取轨道圆锥曲线">
<polygon fill="white" stroke="black" points="350,-71.5 350,-101.5 492,-101.5 492,-71.5 350,-71.5"/>
<text text-anchor="start" x="358" y="-89.5" font-family="Helvetica,sans-Serif" font-size="10.00">SpacePhysic.GravityTracing.</text>
<text text-anchor="middle" x="421" y="-78.5" font-family="Helvetica,sans-Serif" font-size="10.00">GetConicSection</text>
</a>
</g>
</g>
<!-- Node2&#45;&gt;Node3 -->
<g id="edge2" class="edge">
<title>Node2&#45;&gt;Node3</title>
<path fill="none" stroke="midnightblue" d="M313.21,-71.42C321.98,-72.65 330.99,-73.93 339.89,-75.19"/>
<polygon fill="midnightblue" stroke="midnightblue" points="339.48,-78.66 349.88,-76.6 340.46,-71.73 339.48,-78.66"/>
</g>
<!-- Node8 -->
<g id="node8" class="node">
<title>Node8</title>
<g id="a_node8"><a xlink:href="class_space_physic_1_1_astral_body.html#a49a47294cf00916a50c42a62cda119f0" target="_top" xlink:title=" ">
<polygon fill="white" stroke="black" points="349,-22.5 349,-52.5 493,-52.5 493,-22.5 349,-22.5"/>
<text text-anchor="start" x="357" y="-40.5" font-family="Helvetica,sans-Serif" font-size="10.00">SpacePhysic.AstralBody.Get</text>
<text text-anchor="middle" x="421" y="-29.5" font-family="Helvetica,sans-Serif" font-size="10.00">Velocity</text>
</a>
</g>
</g>
<!-- Node2&#45;&gt;Node8 -->
<g id="edge7" class="edge">
<title>Node2&#45;&gt;Node8</title>
<path fill="none" stroke="midnightblue" d="M313.21,-51.98C321.6,-50.84 330.23,-49.67 338.76,-48.52"/>
<polygon fill="midnightblue" stroke="midnightblue" points="339.28,-51.98 348.72,-47.17 338.34,-45.04 339.28,-51.98"/>
</g>
<!-- Node4 -->
<g id="node4" class="node">
<title>Node4</title>
<g id="a_node4"><a xlink:href="interface_space_physic_1_1_i_traceable.html#af984b78fd839b5b3d34758ca05353213" target="_top" xlink:title=" ">
<polygon fill="white" stroke="black" points="541,-137.5 541,-167.5 681,-167.5 681,-137.5 541,-137.5"/>
<text text-anchor="start" x="549" y="-155.5" font-family="Helvetica,sans-Serif" font-size="10.00">SpacePhysic.ITraceable.Get</text>
<text text-anchor="middle" x="611" y="-144.5" font-family="Helvetica,sans-Serif" font-size="10.00">AffectedPlanets</text>
</a>
</g>
</g>
<!-- Node3&#45;&gt;Node4 -->
<g id="edge3" class="edge">
<title>Node3&#45;&gt;Node4</title>
<path fill="none" stroke="midnightblue" d="M459.41,-101.54C479.85,-109.57 505.68,-119.44 529,-127.5 535.54,-129.76 542.41,-132.03 549.27,-134.24"/>
<polygon fill="midnightblue" stroke="midnightblue" points="548.69,-137.72 559.28,-137.41 550.8,-131.05 548.69,-137.72"/>
</g>
<!-- Node5 -->
<g id="node5" class="node">
<title>Node5</title>
<g id="a_node5"><a xlink:href="interface_space_physic_1_1_i_traceable.html#a7a61c09595bedc638b0268d8277e8873" target="_top" xlink:title=" ">
<polygon fill="white" stroke="black" points="529,-99 529,-118 693,-118 693,-99 529,-99"/>
<text text-anchor="middle" x="611" y="-106" font-family="Helvetica,sans-Serif" font-size="10.00">SpacePhysic.ITraceable.GetMass</text>
</a>
</g>
</g>
<!-- Node3&#45;&gt;Node5 -->
<g id="edge4" class="edge">
<title>Node3&#45;&gt;Node5</title>
<path fill="none" stroke="midnightblue" d="M492,-94.69C500.73,-95.71 509.75,-96.77 518.73,-97.82"/>
<polygon fill="midnightblue" stroke="midnightblue" points="518.5,-101.32 528.84,-99 519.32,-94.36 518.5,-101.32"/>
</g>
<!-- Node6 -->
<g id="node6" class="node">
<title>Node6</title>
<g id="a_node6"><a xlink:href="interface_space_physic_1_1_i_traceable.html#a53c8890effec964fa2245908e79016c4" target="_top" xlink:title=" ">
<polygon fill="white" stroke="black" points="541,-49.5 541,-79.5 681,-79.5 681,-49.5 541,-49.5"/>
<text text-anchor="start" x="549" y="-67.5" font-family="Helvetica,sans-Serif" font-size="10.00">SpacePhysic.ITraceable.Get</text>
<text text-anchor="middle" x="611" y="-56.5" font-family="Helvetica,sans-Serif" font-size="10.00">Transform</text>
</a>
</g>
</g>
<!-- Node3&#45;&gt;Node6 -->
<g id="edge5" class="edge">
<title>Node3&#45;&gt;Node6</title>
<path fill="none" stroke="midnightblue" d="M492,-78.31C504.61,-76.83 517.83,-75.29 530.67,-73.78"/>
<polygon fill="midnightblue" stroke="midnightblue" points="531.35,-77.23 540.88,-72.59 530.54,-70.28 531.35,-77.23"/>
</g>
<!-- Node7 -->
<g id="node7" class="node">
<title>Node7</title>
<g id="a_node7"><a xlink:href="interface_space_physic_1_1_i_traceable.html#a8c908476fbe6acf4aaf2e7594537dddb" target="_top" xlink:title=" ">
<polygon fill="white" stroke="black" points="541,-0.5 541,-30.5 681,-30.5 681,-0.5 541,-0.5"/>
<text text-anchor="start" x="549" y="-18.5" font-family="Helvetica,sans-Serif" font-size="10.00">SpacePhysic.ITraceable.Get</text>
<text text-anchor="middle" x="611" y="-7.5" font-family="Helvetica,sans-Serif" font-size="10.00">Velocity</text>
</a>
</g>
</g>
<!-- Node3&#45;&gt;Node7 -->
<g id="edge6" class="edge">
<title>Node3&#45;&gt;Node7</title>
<path fill="none" stroke="midnightblue" d="M471.45,-71.37C478.78,-68.68 486.16,-65.7 493,-62.5 509.99,-54.56 511.91,-48.21 529,-40.5 534.03,-38.23 539.32,-36.09 544.7,-34.09"/>
<polygon fill="midnightblue" stroke="midnightblue" points="546.16,-37.28 554.42,-30.64 543.82,-30.68 546.16,-37.28"/>
</g>
</g>
</svg>
