<?xml version="1.0" encoding="UTF-8" standalone="no"?>
<!DOCTYPE svg PUBLIC "-//W3C//DTD SVG 1.1//EN"
 "http://www.w3.org/Graphics/SVG/1.1/DTD/svg11.dtd">
<!-- Generated by graphviz version 2.47.1 (20210417.1919)
 -->
<!-- Title: CustomUI.AstralBodyEditor.AstralBodyEditorUI Pages: 1 -->
<svg width="1354pt" height="1601pt"
 viewBox="0.00 0.00 1354.18 1601.00" xmlns="http://www.w3.org/2000/svg" xmlns:xlink="http://www.w3.org/1999/xlink">
<g id="graph0" class="graph" transform="scale(1 1) rotate(0) translate(4 1597)">
<title>CustomUI.AstralBodyEditor.AstralBodyEditorUI</title>
<polygon fill="white" stroke="transparent" points="-4,4 -4,-1597 1350.18,-1597 1350.18,4 -4,4"/>
<!-- Node1 -->
<g id="node1" class="node">
<title>Node1</title>
<g id="a_node1"><a xlink:title=" ">
<polygon fill="#bfbfbf" stroke="black" points="273,-0.5 273,-244.5 430,-244.5 430,-0.5 273,-0.5"/>
<text text-anchor="start" x="281" y="-232.5" font-family="Helvetica,sans-Serif" font-size="10.00">CustomUI.AstralBodyEditor.</text>
<text text-anchor="middle" x="351.5" y="-221.5" font-family="Helvetica,sans-Serif" font-size="10.00">AstralBodyEditorUI</text>
<polyline fill="none" stroke="black" points="273,-214.5 430,-214.5 "/>
<text text-anchor="start" x="281" y="-202.5" font-family="Helvetica,sans-Serif" font-size="10.00">+ GameObject editorPanel</text>
<text text-anchor="start" x="281" y="-191.5" font-family="Helvetica,sans-Serif" font-size="10.00">+ bool isEnableEdit</text>
<text text-anchor="start" x="281" y="-180.5" font-family="Helvetica,sans-Serif" font-size="10.00">+ bool isEnableEditorPanel</text>
<text text-anchor="start" x="281" y="-169.5" font-family="Helvetica,sans-Serif" font-size="10.00">+ List&lt; LengthUI &gt; lengthUIList</text>
<text text-anchor="start" x="281" y="-158.5" font-family="Helvetica,sans-Serif" font-size="10.00">+ GameObject mainPanel</text>
<text text-anchor="start" x="281" y="-147.5" font-family="Helvetica,sans-Serif" font-size="10.00">+ GameObject normalPanel</text>
<text text-anchor="start" x="281" y="-136.5" font-family="Helvetica,sans-Serif" font-size="10.00">+ List&lt; VarLineUI &gt; varLineUis</text>
<text text-anchor="start" x="281" y="-125.5" font-family="Helvetica,sans-Serif" font-size="10.00">+ AstralBody astralBody</text>
<polyline fill="none" stroke="black" points="273,-118.5 430,-118.5 "/>
<text text-anchor="start" x="281" y="-106.5" font-family="Helvetica,sans-Serif" font-size="10.00">+ void EditVelocity()</text>
<text text-anchor="start" x="281" y="-95.5" font-family="Helvetica,sans-Serif" font-size="10.00">+ void OpenConicSectionPanel()</text>
<text text-anchor="start" x="281" y="-84.5" font-family="Helvetica,sans-Serif" font-size="10.00">+ virtual void SetVelocity</text>
<text text-anchor="start" x="281" y="-73.5" font-family="Helvetica,sans-Serif" font-size="10.00">InCircle()</text>
<text text-anchor="start" x="281" y="-62.5" font-family="Helvetica,sans-Serif" font-size="10.00">+ void ClosePanel()</text>
<text text-anchor="start" x="281" y="-51.5" font-family="Helvetica,sans-Serif" font-size="10.00">+ void MainToStyleSheet()</text>
<text text-anchor="start" x="281" y="-40.5" font-family="Helvetica,sans-Serif" font-size="10.00">+ void StyleSheetToMain()</text>
<text text-anchor="start" x="281" y="-29.5" font-family="Helvetica,sans-Serif" font-size="10.00"># virtual void OnEnable()</text>
<text text-anchor="start" x="281" y="-18.5" font-family="Helvetica,sans-Serif" font-size="10.00"># virtual void OnAstralBody</text>
<text text-anchor="start" x="281" y="-7.5" font-family="Helvetica,sans-Serif" font-size="10.00">Set()</text>
</a>
</g>
</g>
<!-- Node2 -->
<g id="node2" class="node">
<title>Node2</title>
<g id="a_node2"><a xlink:title=" ">
<polygon fill="white" stroke="#bfbfbf" points="431,-1486 431,-1543 514,-1543 514,-1486 431,-1486"/>
<text text-anchor="middle" x="472.5" y="-1531" font-family="Helvetica,sans-Serif" font-size="10.00">MonoBehaviour</text>
<polyline fill="none" stroke="#bfbfbf" points="431,-1524 514,-1524 "/>
<text text-anchor="middle" x="472.5" y="-1512" font-family="Helvetica,sans-Serif" font-size="10.00"> </text>
<polyline fill="none" stroke="#bfbfbf" points="431,-1505 514,-1505 "/>
<text text-anchor="middle" x="472.5" y="-1493" font-family="Helvetica,sans-Serif" font-size="10.00"> </text>
</a>
</g>
</g>
<!-- Node2&#45;&gt;Node1 -->
<g id="edge1" class="edge">
<title>Node2&#45;&gt;Node1</title>
<path fill="none" stroke="midnightblue" d="M421.04,-1501.85C367.91,-1487.09 286.6,-1456.35 241.5,-1399 165.45,-1302.3 180.5,-1252.02 180.5,-1129 180.5,-1129 180.5,-1129 180.5,-342 180.5,-277.21 227.7,-220.19 272.51,-180.65"/>
<polygon fill="none" stroke="midnightblue" points="420.38,-1505.3 430.95,-1504.51 422.2,-1498.54 420.38,-1505.3"/>
</g>
<!-- Node3 -->
<g id="node3" class="node">
<title>Node3</title>
<g id="a_node3"><a xlink:href="class_custom_u_i_1_1_vector_u_i.html" target="_top" xlink:title=" ">
<polygon fill="white" stroke="black" points="404.5,-469 404.5,-570 540.5,-570 540.5,-469 404.5,-469"/>
<text text-anchor="middle" x="472.5" y="-558" font-family="Helvetica,sans-Serif" font-size="10.00">CustomUI.VectorUI</text>
<polyline fill="none" stroke="black" points="404.5,-551 540.5,-551 "/>
<text text-anchor="start" x="412.5" y="-539" font-family="Helvetica,sans-Serif" font-size="10.00">+ string header</text>
<text text-anchor="start" x="412.5" y="-528" font-family="Helvetica,sans-Serif" font-size="10.00">+ float showSize</text>
<text text-anchor="start" x="412.5" y="-517" font-family="Helvetica,sans-Serif" font-size="10.00">+ vectorType thisType</text>
<text text-anchor="start" x="412.5" y="-506" font-family="Helvetica,sans-Serif" font-size="10.00">+ string unit</text>
<text text-anchor="start" x="412.5" y="-495" font-family="Helvetica,sans-Serif" font-size="10.00">+ LineRenderer vectorArrow</text>
<polyline fill="none" stroke="black" points="404.5,-488 540.5,-488 "/>
<text text-anchor="middle" x="472.5" y="-476" font-family="Helvetica,sans-Serif" font-size="10.00"> </text>
</a>
</g>
</g>
<!-- Node2&#45;&gt;Node3 -->
<g id="edge3" class="edge">
<title>Node2&#45;&gt;Node3</title>
<path fill="none" stroke="midnightblue" d="M472.5,-1475.57C472.5,-1321.68 472.5,-743.89 472.5,-570.19"/>
<polygon fill="none" stroke="midnightblue" points="469,-1475.91 472.5,-1485.91 476,-1475.91 469,-1475.91"/>
</g>
<!-- Node5 -->
<g id="node5" class="node">
<title>Node5</title>
<g id="a_node5"><a xlink:href="class_space_physic_1_1_astral_body.html" target="_top" xlink:title="星体物理实体">
<polygon fill="white" stroke="black" points="630,-857.5 630,-1398.5 791,-1398.5 791,-857.5 630,-857.5"/>
<text text-anchor="middle" x="710.5" y="-1386.5" font-family="Helvetica,sans-Serif" font-size="10.00">SpacePhysic.AstralBody</text>
<polyline fill="none" stroke="black" points="630,-1379.5 791,-1379.5 "/>
<text text-anchor="start" x="638" y="-1367.5" font-family="Helvetica,sans-Serif" font-size="10.00">+ List&lt; AstralBody &gt;</text>
<text text-anchor="start" x="638" y="-1356.5" font-family="Helvetica,sans-Serif" font-size="10.00"> affectedPlanets</text>
<text text-anchor="start" x="638" y="-1345.5" font-family="Helvetica,sans-Serif" font-size="10.00">+ float affectRadius</text>
<text text-anchor="start" x="638" y="-1334.5" font-family="Helvetica,sans-Serif" font-size="10.00">+ Vector3 angularVelocity</text>
<text text-anchor="start" x="638" y="-1323.5" font-family="Helvetica,sans-Serif" font-size="10.00">+ List&lt; AstralBody &gt;</text>
<text text-anchor="start" x="638" y="-1312.5" font-family="Helvetica,sans-Serif" font-size="10.00"> banAffectedPlanets</text>
<text text-anchor="start" x="638" y="-1301.5" font-family="Helvetica,sans-Serif" font-size="10.00">+ SphereCollider defaultCollider</text>
<text text-anchor="start" x="638" y="-1290.5" font-family="Helvetica,sans-Serif" font-size="10.00">+ bool enableAffect</text>
<text text-anchor="start" x="638" y="-1279.5" font-family="Helvetica,sans-Serif" font-size="10.00">+ bool enableTracing</text>
<text text-anchor="start" x="638" y="-1268.5" font-family="Helvetica,sans-Serif" font-size="10.00">+ Vector3 oriVelocity</text>
<text text-anchor="start" x="638" y="-1257.5" font-family="Helvetica,sans-Serif" font-size="10.00">+ SphereCollider triggerCollider</text>
<text text-anchor="start" x="638" y="-1246.5" font-family="Helvetica,sans-Serif" font-size="10.00">+ UnityEvent&lt; Vector3</text>
<text text-anchor="start" x="638" y="-1235.5" font-family="Helvetica,sans-Serif" font-size="10.00"> &gt; velocityChangedEvent</text>
<text text-anchor="start" x="638" y="-1224.5" font-family="Helvetica,sans-Serif" font-size="10.00">+ float? Mass</text>
<text text-anchor="start" x="638" y="-1213.5" font-family="Helvetica,sans-Serif" font-size="10.00">+ Rigidbody astralBodyRigidbody</text>
<text text-anchor="start" x="638" y="-1202.5" font-family="Helvetica,sans-Serif" font-size="10.00">+ Vector3 Force</text>
<text text-anchor="start" x="638" y="-1191.5" font-family="Helvetica,sans-Serif" font-size="10.00">+ float gravity</text>
<text text-anchor="start" x="638" y="-1180.5" font-family="Helvetica,sans-Serif" font-size="10.00">+ int meshNum</text>
<text text-anchor="start" x="638" y="-1169.5" font-family="Helvetica,sans-Serif" font-size="10.00">+ float size</text>
<text text-anchor="start" x="638" y="-1158.5" font-family="Helvetica,sans-Serif" font-size="10.00">+ double realMass</text>
<text text-anchor="start" x="638" y="-1147.5" font-family="Helvetica,sans-Serif" font-size="10.00">+ double density</text>
<text text-anchor="start" x="638" y="-1136.5" font-family="Helvetica,sans-Serif" font-size="10.00">+ Vector3 lastVelocity</text>
<text text-anchor="start" x="638" y="-1125.5" font-family="Helvetica,sans-Serif" font-size="10.00">+ bool isLoadDone</text>
<polyline fill="none" stroke="black" points="630,-1118.5 791,-1118.5 "/>
<text text-anchor="start" x="638" y="-1106.5" font-family="Helvetica,sans-Serif" font-size="10.00">+ virtual void OnCollision</text>
<text text-anchor="start" x="638" y="-1095.5" font-family="Helvetica,sans-Serif" font-size="10.00">Enter(Collision other)</text>
<text text-anchor="start" x="638" y="-1084.5" font-family="Helvetica,sans-Serif" font-size="10.00">+ Transform GetTransform()</text>
<text text-anchor="start" x="638" y="-1073.5" font-family="Helvetica,sans-Serif" font-size="10.00">+ Vector3 GetPosition()</text>
<text text-anchor="start" x="638" y="-1062.5" font-family="Helvetica,sans-Serif" font-size="10.00">+ GameObject GetGameObject()</text>
<text text-anchor="start" x="638" y="-1051.5" font-family="Helvetica,sans-Serif" font-size="10.00">+ bool GetEnableTracing()</text>
<text text-anchor="start" x="638" y="-1040.5" font-family="Helvetica,sans-Serif" font-size="10.00">+ virtual float GetMass()</text>
<text text-anchor="start" x="638" y="-1029.5" font-family="Helvetica,sans-Serif" font-size="10.00">+ Rigidbody GetRigidbody()</text>
<text text-anchor="start" x="638" y="-1018.5" font-family="Helvetica,sans-Serif" font-size="10.00">+ Vector3 GetVelocity()</text>
<text text-anchor="start" x="638" y="-1007.5" font-family="Helvetica,sans-Serif" font-size="10.00">+ List&lt; AstralBody &gt;</text>
<text text-anchor="start" x="638" y="-996.5" font-family="Helvetica,sans-Serif" font-size="10.00"> GetAffectedPlanets()</text>
<text text-anchor="start" x="638" y="-985.5" font-family="Helvetica,sans-Serif" font-size="10.00">+ AstralBody GetAstralBody()</text>
<text text-anchor="start" x="638" y="-974.5" font-family="Helvetica,sans-Serif" font-size="10.00">+ void ChangeVelocity</text>
<text text-anchor="start" x="638" y="-963.5" font-family="Helvetica,sans-Serif" font-size="10.00">(Vector3 velocity)</text>
<text text-anchor="start" x="638" y="-952.5" font-family="Helvetica,sans-Serif" font-size="10.00">+ void ChangeVelocity</text>
<text text-anchor="start" x="638" y="-941.5" font-family="Helvetica,sans-Serif" font-size="10.00">(double realSpeed)</text>
<text text-anchor="start" x="638" y="-930.5" font-family="Helvetica,sans-Serif" font-size="10.00">+ Vector3 CalculateForce()</text>
<text text-anchor="start" x="638" y="-919.5" font-family="Helvetica,sans-Serif" font-size="10.00">+ void SetCircleVelocity()</text>
<text text-anchor="start" x="638" y="-908.5" font-family="Helvetica,sans-Serif" font-size="10.00">+ void SetCircleVelocityMenu()</text>
<text text-anchor="start" x="638" y="-897.5" font-family="Helvetica,sans-Serif" font-size="10.00"># virtual void Start()</text>
<text text-anchor="start" x="638" y="-886.5" font-family="Helvetica,sans-Serif" font-size="10.00"># void Generate()</text>
<text text-anchor="start" x="638" y="-875.5" font-family="Helvetica,sans-Serif" font-size="10.00"># virtual void FixedUpdate()</text>
<text text-anchor="start" x="638" y="-864.5" font-family="Helvetica,sans-Serif" font-size="10.00"># virtual void SetMass()</text>
</a>
</g>
</g>
<!-- Node2&#45;&gt;Node5 -->
<g id="edge6" class="edge">
<title>Node2&#45;&gt;Node5</title>
<path fill="none" stroke="midnightblue" d="M523.34,-1490.35C553.95,-1474.07 591.52,-1449.56 615.5,-1418 620.53,-1411.38 625.31,-1404.47 629.83,-1397.35"/>
<polygon fill="none" stroke="midnightblue" points="521.36,-1487.44 514.08,-1495.14 524.57,-1493.66 521.36,-1487.44"/>
</g>
<!-- Node7 -->
<g id="node7" class="node">
<title>Node7</title>
<g id="a_node7"><a xlink:href="class_space_physic_1_1_gravity_tracing.html" target="_top" xlink:title="引力追踪">
<polygon fill="white" stroke="black" points="0,-616.5 0,-838.5 165,-838.5 165,-616.5 0,-616.5"/>
<text text-anchor="middle" x="82.5" y="-826.5" font-family="Helvetica,sans-Serif" font-size="10.00">SpacePhysic.GravityTracing</text>
<polyline fill="none" stroke="black" points="0,-819.5 165,-819.5 "/>
<text text-anchor="start" x="8" y="-807.5" font-family="Helvetica,sans-Serif" font-size="10.00">+ int sample</text>
<text text-anchor="start" x="8" y="-796.5" font-family="Helvetica,sans-Serif" font-size="10.00">+ float timeScale</text>
<text text-anchor="start" x="8" y="-785.5" font-family="Helvetica,sans-Serif" font-size="10.00">+ SplineComputer splineComputer</text>
<text text-anchor="start" x="8" y="-774.5" font-family="Helvetica,sans-Serif" font-size="10.00">+ bool isFreezing</text>
<text text-anchor="start" x="8" y="-763.5" font-family="Helvetica,sans-Serif" font-size="10.00">+ bool isShowOrbit</text>
<polyline fill="none" stroke="black" points="0,-756.5 165,-756.5 "/>
<text text-anchor="start" x="8" y="-744.5" font-family="Helvetica,sans-Serif" font-size="10.00">+ void Awake()</text>
<text text-anchor="start" x="8" y="-733.5" font-family="Helvetica,sans-Serif" font-size="10.00">+ void Dispatch()</text>
<text text-anchor="start" x="8" y="-722.5" font-family="Helvetica,sans-Serif" font-size="10.00">+ void AddTracingTarget</text>
<text text-anchor="start" x="8" y="-711.5" font-family="Helvetica,sans-Serif" font-size="10.00">(ITraceable traceable)</text>
<text text-anchor="start" x="8" y="-700.5" font-family="Helvetica,sans-Serif" font-size="10.00">+ void Freeze(bool isFreezing)</text>
<text text-anchor="start" x="8" y="-689.5" font-family="Helvetica,sans-Serif" font-size="10.00">+ void RemoveAstralBody</text>
<text text-anchor="start" x="8" y="-678.5" font-family="Helvetica,sans-Serif" font-size="10.00">(AstralBody astralBody)</text>
<text text-anchor="start" x="8" y="-667.5" font-family="Helvetica,sans-Serif" font-size="10.00">+ ConicSection GetConicSection</text>
<text text-anchor="start" x="8" y="-656.5" font-family="Helvetica,sans-Serif" font-size="10.00">(ITraceable astralBody)</text>
<text text-anchor="start" x="8" y="-645.5" font-family="Helvetica,sans-Serif" font-size="10.00">+ void DrawMathOrbit</text>
<text text-anchor="start" x="8" y="-634.5" font-family="Helvetica,sans-Serif" font-size="10.00">(ConicSection conicSection,</text>
<text text-anchor="start" x="8" y="-623.5" font-family="Helvetica,sans-Serif" font-size="10.00"> int sam)</text>
</a>
</g>
</g>
<!-- Node2&#45;&gt;Node7 -->
<g id="edge9" class="edge">
<title>Node2&#45;&gt;Node7</title>
<path fill="none" stroke="midnightblue" d="M420.7,-1513.43C351.26,-1510.3 229.45,-1493.54 166.5,-1418 30.05,-1254.26 41.97,-987.94 62.44,-838.75"/>
<polygon fill="none" stroke="midnightblue" points="420.85,-1516.94 430.97,-1513.81 421.11,-1509.94 420.85,-1516.94"/>
</g>
<!-- Node8 -->
<g id="node8" class="node">
<title>Node8</title>
<g id="a_node8"><a xlink:href="class_custom_u_i_1_1_astral_body_editor_1_1_orbit_panel_u_i.html" target="_top" xlink:title=" ">
<polygon fill="white" stroke="black" points="943.5,-292.5 943.5,-393.5 1083.5,-393.5 1083.5,-292.5 943.5,-292.5"/>
<text text-anchor="start" x="951.5" y="-381.5" font-family="Helvetica,sans-Serif" font-size="10.00">CustomUI.AstralBodyEditor.</text>
<text text-anchor="middle" x="1013.5" y="-370.5" font-family="Helvetica,sans-Serif" font-size="10.00">OrbitPanelUI</text>
<polyline fill="none" stroke="black" points="943.5,-363.5 1083.5,-363.5 "/>
<text text-anchor="start" x="951.5" y="-351.5" font-family="Helvetica,sans-Serif" font-size="10.00">+ GameObject contentPanel</text>
<text text-anchor="start" x="951.5" y="-340.5" font-family="Helvetica,sans-Serif" font-size="10.00">+ bool isConicSection</text>
<text text-anchor="start" x="951.5" y="-329.5" font-family="Helvetica,sans-Serif" font-size="10.00">+ GameObject nullPanel</text>
<text text-anchor="start" x="951.5" y="-318.5" font-family="Helvetica,sans-Serif" font-size="10.00">+ AstralBody astralBody</text>
<polyline fill="none" stroke="black" points="943.5,-311.5 1083.5,-311.5 "/>
<text text-anchor="middle" x="1013.5" y="-299.5" font-family="Helvetica,sans-Serif" font-size="10.00"> </text>
</a>
</g>
</g>
<!-- Node2&#45;&gt;Node8 -->
<g id="edge11" class="edge">
<title>Node2&#45;&gt;Node8</title>
<path fill="none" stroke="midnightblue" d="M524.2,-1505.96C698.56,-1480.52 1254.12,-1399.44 1254.5,-1399 1393.72,-1237.91 1361.7,-616.73 1241.5,-441 1205.98,-389.07 1136.63,-364.82 1083.7,-353.57"/>
<polygon fill="none" stroke="midnightblue" points="523.63,-1502.5 514.24,-1507.41 524.65,-1509.43 523.63,-1502.5"/>
</g>
<!-- Node9 -->
<g id="node9" class="node">
<title>Node9</title>
<g id="a_node9"><a xlink:href="class_custom_u_i_1_1_astral_body_editor_1_1_orbit_graph_u_i.html" target="_top" xlink:title=" ">
<polygon fill="white" stroke="black" points="1089,-441.5 1089,-597.5 1232,-597.5 1232,-441.5 1089,-441.5"/>
<text text-anchor="start" x="1097" y="-585.5" font-family="Helvetica,sans-Serif" font-size="10.00">CustomUI.AstralBodyEditor.</text>
<text text-anchor="middle" x="1160.5" y="-574.5" font-family="Helvetica,sans-Serif" font-size="10.00">OrbitGraphUI</text>
<polyline fill="none" stroke="black" points="1089,-567.5 1232,-567.5 "/>
<text text-anchor="start" x="1097" y="-555.5" font-family="Helvetica,sans-Serif" font-size="10.00">+ float conHeight</text>
<text text-anchor="start" x="1097" y="-544.5" font-family="Helvetica,sans-Serif" font-size="10.00">+ Image ellipseImage</text>
<text text-anchor="start" x="1097" y="-533.5" font-family="Helvetica,sans-Serif" font-size="10.00">+ Image fillImage</text>
<text text-anchor="start" x="1097" y="-522.5" font-family="Helvetica,sans-Serif" font-size="10.00">+ RectTransform fillMask</text>
<text text-anchor="start" x="1097" y="-511.5" font-family="Helvetica,sans-Serif" font-size="10.00">+ Image leftFociImage</text>
<text text-anchor="start" x="1097" y="-500.5" font-family="Helvetica,sans-Serif" font-size="10.00">+ Image oriImage</text>
<text text-anchor="start" x="1097" y="-489.5" font-family="Helvetica,sans-Serif" font-size="10.00">+ Image rightFociImage</text>
<text text-anchor="start" x="1097" y="-478.5" font-family="Helvetica,sans-Serif" font-size="10.00">+ Image targetImage</text>
<text text-anchor="start" x="1097" y="-467.5" font-family="Helvetica,sans-Serif" font-size="10.00">+ Vector3 angularMomentum</text>
<polyline fill="none" stroke="black" points="1089,-460.5 1232,-460.5 "/>
<text text-anchor="start" x="1097" y="-448.5" font-family="Helvetica,sans-Serif" font-size="10.00">+ void Init()</text>
</a>
</g>
</g>
<!-- Node2&#45;&gt;Node9 -->
<g id="edge13" class="edge">
<title>Node2&#45;&gt;Node9</title>
<path fill="none" stroke="midnightblue" d="M524.55,-1509.14C642.41,-1498.19 924.47,-1465.49 988.5,-1399 1158.36,-1222.62 940.5,-1052.84 1087.5,-857 1098.24,-842.69 1113.23,-853.65 1123.5,-839 1137.08,-819.63 1148.94,-685.53 1155.38,-597.62"/>
<polygon fill="none" stroke="midnightblue" points="523.97,-1505.68 514.33,-1510.08 524.61,-1512.65 523.97,-1505.68"/>
</g>
<!-- Node11 -->
<g id="node11" class="node">
<title>Node11</title>
<g id="a_node11"><a xlink:href="class_custom_u_i_1_1_astral_body_editor_1_1_star_style_setting_u_i.html" target="_top" xlink:title=" ">
<polygon fill="white" stroke="black" points="209,-480 209,-559 348,-559 348,-480 209,-480"/>
<text text-anchor="start" x="217" y="-547" font-family="Helvetica,sans-Serif" font-size="10.00">CustomUI.AstralBodyEditor.</text>
<text text-anchor="middle" x="278.5" y="-536" font-family="Helvetica,sans-Serif" font-size="10.00">StarStyleSettingUI</text>
<polyline fill="none" stroke="black" points="209,-529 348,-529 "/>
<text text-anchor="middle" x="278.5" y="-517" font-family="Helvetica,sans-Serif" font-size="10.00"> </text>
<polyline fill="none" stroke="black" points="209,-510 348,-510 "/>
<text text-anchor="start" x="217" y="-498" font-family="Helvetica,sans-Serif" font-size="10.00">+ void ChangeStyle(int</text>
<text text-anchor="start" x="217" y="-487" font-family="Helvetica,sans-Serif" font-size="10.00"> index)</text>
</a>
</g>
</g>
<!-- Node2&#45;&gt;Node11 -->
<g id="edge20" class="edge">
<title>Node2&#45;&gt;Node11</title>
<path fill="none" stroke="midnightblue" d="M422.34,-1486.14C397.52,-1469.81 369.68,-1446.64 354.5,-1418 197.03,-1120.95 250.46,-689.81 271.61,-559.33"/>
<polygon fill="none" stroke="midnightblue" points="420.65,-1489.22 430.97,-1491.64 424.41,-1483.31 420.65,-1489.22"/>
</g>
<!-- Node12 -->
<g id="node12" class="node">
<title>Node12</title>
<g id="a_node12"><a xlink:href="class_custom_u_i_1_1_astral_body_editor_1_1_velocity_editor_u_i.html" target="_top" xlink:title=" ">
<polygon fill="white" stroke="black" points="418,-298 418,-388 557,-388 557,-298 418,-298"/>
<text text-anchor="start" x="426" y="-376" font-family="Helvetica,sans-Serif" font-size="10.00">CustomUI.AstralBodyEditor.</text>
<text text-anchor="middle" x="487.5" y="-365" font-family="Helvetica,sans-Serif" font-size="10.00">VelocityEditorUI</text>
<polyline fill="none" stroke="black" points="418,-358 557,-358 "/>
<text text-anchor="start" x="426" y="-346" font-family="Helvetica,sans-Serif" font-size="10.00">+ float showSize</text>
<text text-anchor="start" x="426" y="-335" font-family="Helvetica,sans-Serif" font-size="10.00">+ LineRenderer velocityLine</text>
<text text-anchor="start" x="426" y="-324" font-family="Helvetica,sans-Serif" font-size="10.00">+ float Speed</text>
<polyline fill="none" stroke="black" points="418,-317 557,-317 "/>
<text text-anchor="start" x="426" y="-305" font-family="Helvetica,sans-Serif" font-size="10.00">+ void OnDisable()</text>
</a>
</g>
</g>
<!-- Node2&#45;&gt;Node12 -->
<g id="edge23" class="edge">
<title>Node2&#45;&gt;Node12</title>
<path fill="none" stroke="midnightblue" d="M465.63,-1475.54C447.51,-1373.21 398.7,-1082.92 382.5,-839 375.93,-740.11 378.83,-715.04 382.5,-616 385.39,-538.06 363.94,-512.32 395.5,-441 404.14,-421.47 418.45,-403.45 433.24,-388.38"/>
<polygon fill="none" stroke="midnightblue" points="462.24,-1476.45 467.44,-1485.68 469.13,-1475.23 462.24,-1476.45"/>
</g>
<!-- Node13 -->
<g id="node13" class="node">
<title>Node13</title>
<g id="a_node13"><a xlink:href="class_custom_u_i_1_1_astral_body_editor_1_1_position_editor_u_i.html" target="_top" xlink:title=" ">
<polygon fill="white" stroke="black" points="660,-447 660,-592 799,-592 799,-447 660,-447"/>
<text text-anchor="start" x="668" y="-580" font-family="Helvetica,sans-Serif" font-size="10.00">CustomUI.AstralBodyEditor.</text>
<text text-anchor="middle" x="729.5" y="-569" font-family="Helvetica,sans-Serif" font-size="10.00">PositionEditorUI</text>
<polyline fill="none" stroke="black" points="660,-562 799,-562 "/>
<text text-anchor="start" x="668" y="-550" font-family="Helvetica,sans-Serif" font-size="10.00">+ bool isQuizEditor</text>
<text text-anchor="start" x="668" y="-539" font-family="Helvetica,sans-Serif" font-size="10.00">+ float moveSpeed</text>
<text text-anchor="start" x="668" y="-528" font-family="Helvetica,sans-Serif" font-size="10.00">+ Button xAxis</text>
<text text-anchor="start" x="668" y="-517" font-family="Helvetica,sans-Serif" font-size="10.00">+ Button zAxis</text>
<polyline fill="none" stroke="black" points="660,-510 799,-510 "/>
<text text-anchor="start" x="668" y="-498" font-family="Helvetica,sans-Serif" font-size="10.00">+ void OnBeginDrag()</text>
<text text-anchor="start" x="668" y="-487" font-family="Helvetica,sans-Serif" font-size="10.00">+ void MoveAxis(bool</text>
<text text-anchor="start" x="668" y="-476" font-family="Helvetica,sans-Serif" font-size="10.00"> isXAxis)</text>
<text text-anchor="start" x="668" y="-465" font-family="Helvetica,sans-Serif" font-size="10.00">+ void MoveCenter()</text>
<text text-anchor="start" x="668" y="-454" font-family="Helvetica,sans-Serif" font-size="10.00">+ void OnEndDrag()</text>
</a>
</g>
</g>
<!-- Node2&#45;&gt;Node13 -->
<g id="edge28" class="edge">
<title>Node2&#45;&gt;Node13</title>
<path fill="none" stroke="midnightblue" d="M477.95,-1475.63C499.86,-1325.9 583.82,-775.55 656.5,-616 660.18,-607.93 664.64,-599.91 669.54,-592.14"/>
<polygon fill="none" stroke="midnightblue" points="474.46,-1475.31 476.48,-1485.71 481.39,-1476.32 474.46,-1475.31"/>
</g>
<!-- Node3&#45;&gt;Node1 -->
<g id="edge2" class="edge">
<title>Node3&#45;&gt;Node1</title>
<path fill="none" stroke="#404040" d="M413.76,-468.8C393.37,-447.97 372.8,-422.07 361.5,-394 344.35,-351.37 338.84,-301.84 338.58,-256.9"/>
<polygon fill="none" stroke="#404040" points="338.58,-256.66 334.61,-250.65 338.64,-244.66 342.61,-250.68 338.58,-256.66"/>
<text text-anchor="middle" x="385.5" y="-346" font-family="Helvetica,sans-Serif" font-size="10.00"> +forceUI</text>
<text text-anchor="middle" x="385.5" y="-335" font-family="Helvetica,sans-Serif" font-size="10.00">+velocityUI</text>
</g>
<!-- Node3&#45;&gt;Node12 -->
<g id="edge25" class="edge">
<title>Node3&#45;&gt;Node12</title>
<path fill="none" stroke="#404040" d="M476.76,-468.96C478.61,-447.45 480.78,-422.16 482.69,-399.97"/>
<polygon fill="none" stroke="#404040" points="482.69,-399.96 479.22,-393.64 483.72,-388.01 487.19,-394.33 482.69,-399.96"/>
<text text-anchor="middle" x="506" y="-415" font-family="Helvetica,sans-Serif" font-size="10.00"> +velocityUI</text>
</g>
<!-- Node4 -->
<g id="node4" class="node">
<title>Node4</title>
<g id="a_node4"><a xlink:title=" ">
<polygon fill="white" stroke="#bfbfbf" points="944,-1099.5 944,-1156.5 979,-1156.5 979,-1099.5 944,-1099.5"/>
<text text-anchor="middle" x="961.5" y="-1144.5" font-family="Helvetica,sans-Serif" font-size="10.00">Text</text>
<polyline fill="none" stroke="#bfbfbf" points="944,-1137.5 979,-1137.5 "/>
<text text-anchor="middle" x="961.5" y="-1125.5" font-family="Helvetica,sans-Serif" font-size="10.00"> </text>
<polyline fill="none" stroke="#bfbfbf" points="944,-1118.5 979,-1118.5 "/>
<text text-anchor="middle" x="961.5" y="-1106.5" font-family="Helvetica,sans-Serif" font-size="10.00"> </text>
</a>
</g>
</g>
<!-- Node4&#45;&gt;Node3 -->
<g id="edge4" class="edge">
<title>Node4&#45;&gt;Node3</title>
<path fill="none" stroke="#404040" d="M950,-1099.4C905.91,-993.64 749.84,-619.91 744.5,-616 710.28,-590.95 593.12,-615.52 554.5,-598 543.53,-593.02 533.1,-585.97 523.58,-578.11"/>
<polygon fill="none" stroke="#404040" points="523.4,-577.96 516.25,-577.01 514.38,-570.04 521.53,-570.99 523.4,-577.96"/>
<text text-anchor="middle" x="862.5" y="-725" font-family="Helvetica,sans-Serif" font-size="10.00"> +vectorText</text>
</g>
<!-- Node4&#45;&gt;Node8 -->
<g id="edge17" class="edge">
<title>Node4&#45;&gt;Node8</title>
<path fill="none" stroke="#404040" d="M966.12,-1099.3C974.45,-1048.08 991.83,-935.02 999.5,-839 1011.93,-683.37 1013.77,-499.46 1013.79,-405.7"/>
<polygon fill="none" stroke="#404040" points="1013.79,-405.62 1009.79,-399.63 1013.78,-393.62 1017.79,-399.62 1013.79,-405.62"/>
<text text-anchor="middle" x="1042" y="-555.5" font-family="Helvetica,sans-Serif" font-size="10.00"> +angle</text>
<text text-anchor="middle" x="1042" y="-544.5" font-family="Helvetica,sans-Serif" font-size="10.00">+eccentricity</text>
<text text-anchor="middle" x="1042" y="-533.5" font-family="Helvetica,sans-Serif" font-size="10.00">+focalLength</text>
<text text-anchor="middle" x="1042" y="-522.5" font-family="Helvetica,sans-Serif" font-size="10.00">+geoCenter</text>
<text text-anchor="middle" x="1042" y="-511.5" font-family="Helvetica,sans-Serif" font-size="10.00">+k</text>
<text text-anchor="middle" x="1042" y="-500.5" font-family="Helvetica,sans-Serif" font-size="10.00">+majorAxis</text>
<text text-anchor="middle" x="1042" y="-489.5" font-family="Helvetica,sans-Serif" font-size="10.00">+minorAxis</text>
<text text-anchor="middle" x="1042" y="-478.5" font-family="Helvetica,sans-Serif" font-size="10.00">+period</text>
</g>
<!-- Node4&#45;&gt;Node9 -->
<g id="edge15" class="edge">
<title>Node4&#45;&gt;Node9</title>
<path fill="none" stroke="#404040" d="M968.63,-1099.4C981.57,-1048.33 1009.02,-935.52 1024.5,-839 1032.39,-789.81 1021.77,-658.66 1047.5,-616 1054.95,-603.65 1063.11,-606.85 1074.5,-598 1076.14,-596.73 1077.78,-595.43 1079.43,-594.12"/>
<polygon fill="none" stroke="#404040" points="1079.59,-593.98 1081.72,-587.09 1088.9,-586.4 1086.77,-593.3 1079.59,-593.98"/>
<text text-anchor="middle" x="1085.5" y="-736" font-family="Helvetica,sans-Serif" font-size="10.00"> +angularVelocity</text>
<text text-anchor="middle" x="1085.5" y="-725" font-family="Helvetica,sans-Serif" font-size="10.00">+area</text>
<text text-anchor="middle" x="1085.5" y="-714" font-family="Helvetica,sans-Serif" font-size="10.00">+distance</text>
</g>
<!-- Node4&#45;&gt;Node12 -->
<g id="edge24" class="edge">
<title>Node4&#45;&gt;Node12</title>
<path fill="none" stroke="#404040" d="M956.92,-1099.3C948.66,-1048.07 931.38,-935 923.5,-839 921.69,-816.95 925.33,-457.42 910.5,-441 858.19,-383.09 635.5,-421.57 562.5,-394 561.65,-393.68 560.8,-393.35 559.95,-393"/>
<polygon fill="none" stroke="#404040" points="559.87,-392.97 552.76,-394.13 548.95,-388.01 556.07,-386.85 559.87,-392.97"/>
<text text-anchor="middle" x="943" y="-517" font-family="Helvetica,sans-Serif" font-size="10.00"> +speedUI</text>
</g>
<!-- Node5&#45;&gt;Node3 -->
<g id="edge5" class="edge">
<title>Node5&#45;&gt;Node3</title>
<path fill="none" stroke="#404040" d="M629.97,-1039C585.69,-985.26 534.26,-912.84 506.5,-839 471.44,-745.73 494.31,-715.05 483.5,-616 482.3,-605.03 480.99,-593.37 479.7,-582.09"/>
<polygon fill="none" stroke="#404040" points="479.69,-581.98 475.03,-576.47 478.32,-570.05 482.98,-575.56 479.69,-581.98"/>
<text text-anchor="middle" x="534.5" y="-725" font-family="Helvetica,sans-Serif" font-size="10.00"> +astralBody</text>
</g>
<!-- Node5&#45;&gt;Node8 -->
<g id="edge18" class="edge">
<title>Node5&#45;&gt;Node8</title>
<path fill="none" stroke="#404040" d="M791.03,-942.05C803.05,-908.3 813.93,-873 821.5,-839 840.77,-752.46 802.9,-516.43 849.5,-441 868.48,-410.29 901.08,-388.13 932.24,-372.82"/>
<polygon fill="none" stroke="#404040" points="932.31,-372.79 936.04,-366.62 943.17,-367.69 939.44,-373.86 932.31,-372.79"/>
<text text-anchor="middle" x="880" y="-517" font-family="Helvetica,sans-Serif" font-size="10.00"> +_astralBody</text>
</g>
<!-- Node5&#45;&gt;Node9 -->
<g id="edge16" class="edge">
<title>Node5&#45;&gt;Node9</title>
<path fill="none" stroke="#404040" d="M791.06,-960.49C862.47,-813.57 956.66,-621.79 964.5,-616 1004.36,-586.58 1029.85,-619.45 1074.5,-598 1075.72,-597.41 1076.94,-596.8 1078.15,-596.17"/>
<polygon fill="none" stroke="#404040" points="1078.52,-595.96 1081.71,-589.49 1088.91,-589.95 1085.72,-596.42 1078.52,-595.96"/>
<text text-anchor="middle" x="992.5" y="-725" font-family="Helvetica,sans-Serif" font-size="10.00"> +astralBody</text>
</g>
<!-- Node5&#45;&gt;Node11 -->
<g id="edge21" class="edge">
<title>Node5&#45;&gt;Node11</title>
<path fill="none" stroke="#404040" d="M629.88,-1060.39C567.54,-1005.78 482.25,-923.89 423.5,-839 407.21,-815.47 336.37,-654.09 300.09,-570.49"/>
<polygon fill="none" stroke="#404040" points="299.98,-570.24 293.93,-566.33 295.21,-559.23 301.27,-563.15 299.98,-570.24"/>
<text text-anchor="middle" x="451.5" y="-725" font-family="Helvetica,sans-Serif" font-size="10.00"> +astralBody</text>
</g>
<!-- Node5&#45;&gt;Node12 -->
<g id="edge26" class="edge">
<title>Node5&#45;&gt;Node12</title>
<path fill="none" stroke="#404040" d="M647.24,-857.09C602.36,-665.64 549.97,-442.32 549.5,-441 544.34,-426.43 536.65,-411.81 528.41,-398.5"/>
<polygon fill="none" stroke="#404040" points="528.23,-398.22 521.62,-395.35 521.73,-388.14 528.34,-391.01 528.23,-398.22"/>
<text text-anchor="middle" x="617" y="-517" font-family="Helvetica,sans-Serif" font-size="10.00"> +editingTarget</text>
</g>
<!-- Node5&#45;&gt;Node13 -->
<g id="edge29" class="edge">
<title>Node5&#45;&gt;Node13</title>
<path fill="none" stroke="#404040" d="M664.09,-857.4C658.58,-778.7 660.53,-693.14 679.5,-616 680.51,-611.88 681.74,-607.73 683.14,-603.61"/>
<polygon fill="none" stroke="#404040" points="683.25,-603.29 681.62,-596.27 687.47,-592.06 689.11,-599.08 683.25,-603.29"/>
<text text-anchor="middle" x="712" y="-725" font-family="Helvetica,sans-Serif" font-size="10.00"> +editingTarget</text>
</g>
<!-- Node6 -->
<g id="node6" class="node">
<title>Node6</title>
<g id="a_node6"><a xlink:href="interface_space_physic_1_1_i_traceable.html" target="_top" xlink:title="可追踪接口">
<polygon fill="white" stroke="black" points="1012.5,-1436.5 1012.5,-1592.5 1172.5,-1592.5 1172.5,-1436.5 1012.5,-1436.5"/>
<text text-anchor="middle" x="1092.5" y="-1580.5" font-family="Helvetica,sans-Serif" font-size="10.00">ITraceable</text>
<polyline fill="none" stroke="black" points="1012.5,-1573.5 1172.5,-1573.5 "/>
<text text-anchor="middle" x="1092.5" y="-1561.5" font-family="Helvetica,sans-Serif" font-size="10.00"> </text>
<polyline fill="none" stroke="black" points="1012.5,-1554.5 1172.5,-1554.5 "/>
<text text-anchor="start" x="1020.5" y="-1542.5" font-family="Helvetica,sans-Serif" font-size="10.00">+ Transform GetTransform()</text>
<text text-anchor="start" x="1020.5" y="-1531.5" font-family="Helvetica,sans-Serif" font-size="10.00">+ Vector3 GetPosition()</text>
<text text-anchor="start" x="1020.5" y="-1520.5" font-family="Helvetica,sans-Serif" font-size="10.00">+ GameObject GetGameObject()</text>
<text text-anchor="start" x="1020.5" y="-1509.5" font-family="Helvetica,sans-Serif" font-size="10.00">+ bool GetEnableTracing()</text>
<text text-anchor="start" x="1020.5" y="-1498.5" font-family="Helvetica,sans-Serif" font-size="10.00">+ float GetMass()</text>
<text text-anchor="start" x="1020.5" y="-1487.5" font-family="Helvetica,sans-Serif" font-size="10.00">+ Rigidbody GetRigidbody()</text>
<text text-anchor="start" x="1020.5" y="-1476.5" font-family="Helvetica,sans-Serif" font-size="10.00">+ Vector3 GetVelocity()</text>
<text text-anchor="start" x="1020.5" y="-1465.5" font-family="Helvetica,sans-Serif" font-size="10.00">+ List&lt; AstralBody &gt;</text>
<text text-anchor="start" x="1020.5" y="-1454.5" font-family="Helvetica,sans-Serif" font-size="10.00"> GetAffectedPlanets()</text>
<text text-anchor="start" x="1020.5" y="-1443.5" font-family="Helvetica,sans-Serif" font-size="10.00">+ AstralBody GetAstralBody()</text>
</a>
</g>
</g>
<!-- Node6&#45;&gt;Node5 -->
<g id="edge7" class="edge">
<title>Node6&#45;&gt;Node5</title>
<path fill="none" stroke="midnightblue" d="M1004.28,-1454.99C981,-1438.02 956.53,-1418.71 935.5,-1399 883.3,-1350.07 831.72,-1289.32 791.14,-1237.85"/>
<polygon fill="none" stroke="midnightblue" points="1002.31,-1457.88 1012.46,-1460.9 1006.4,-1452.2 1002.31,-1457.88"/>
</g>
<!-- Node7&#45;&gt;Node1 -->
<g id="edge8" class="edge">
<title>Node7&#45;&gt;Node1</title>
<path fill="none" stroke="#404040" d="M74.28,-616.49C72.57,-514.11 85.98,-362.74 166.5,-263 193.18,-229.96 229.32,-200.44 262.58,-177.16"/>
<polygon fill="none" stroke="#404040" points="262.9,-176.94 265.58,-170.24 272.79,-170.14 270.11,-176.84 262.9,-176.94"/>
<text text-anchor="middle" x="131" y="-415" font-family="Helvetica,sans-Serif" font-size="10.00"> +gravityTracing</text>
</g>
<!-- Node8&#45;&gt;Node1 -->
<g id="edge10" class="edge">
<title>Node8&#45;&gt;Node1</title>
<path fill="none" stroke="#404040" d="M943.31,-310.51C908.02,-295.23 864.38,-277.17 824.5,-263 693.23,-216.36 537.75,-172.66 441.86,-146.99"/>
<polygon fill="none" stroke="#404040" points="441.77,-146.97 434.94,-149.29 430.18,-143.88 437.01,-141.56 441.77,-146.97"/>
<text text-anchor="middle" x="881.5" y="-266" font-family="Helvetica,sans-Serif" font-size="10.00"> +orbitPanelUI</text>
</g>
<!-- Node9&#45;&gt;Node8 -->
<g id="edge12" class="edge">
<title>Node9&#45;&gt;Node8</title>
<path fill="none" stroke="#404040" d="M1095.6,-441.45C1084.69,-428.5 1073.52,-415.25 1063.08,-402.85"/>
<polygon fill="none" stroke="#404040" points="1062.98,-402.74 1056.06,-400.73 1055.25,-393.56 1062.17,-395.57 1062.98,-402.74"/>
<text text-anchor="middle" x="1109.5" y="-415" font-family="Helvetica,sans-Serif" font-size="10.00"> +orbitGraphUI</text>
</g>
<!-- Node10 -->
<g id="node10" class="node">
<title>Node10</title>
<g id="a_node10"><a xlink:href="class_static_classes_1_1_math_plus_1_1_conic_section.html" target="_top" xlink:title="圆锥曲线">
<polygon fill="white" stroke="black" points="1096,-962 1096,-1294 1245,-1294 1245,-962 1096,-962"/>
<text text-anchor="start" x="1104" y="-1282" font-family="Helvetica,sans-Serif" font-size="10.00">StaticClasses.MathPlus.Conic</text>
<text text-anchor="middle" x="1170.5" y="-1271" font-family="Helvetica,sans-Serif" font-size="10.00">Section</text>
<polyline fill="none" stroke="black" points="1096,-1264 1245,-1264 "/>
<text text-anchor="start" x="1104" y="-1252" font-family="Helvetica,sans-Serif" font-size="10.00">+ float a</text>
<text text-anchor="start" x="1104" y="-1241" font-family="Helvetica,sans-Serif" font-size="10.00">+ float angle</text>
<text text-anchor="start" x="1104" y="-1230" font-family="Helvetica,sans-Serif" font-size="10.00">+ float b</text>
<text text-anchor="start" x="1104" y="-1219" font-family="Helvetica,sans-Serif" font-size="10.00">+ float c</text>
<text text-anchor="start" x="1104" y="-1208" font-family="Helvetica,sans-Serif" font-size="10.00">+ float d</text>
<text text-anchor="start" x="1104" y="-1197" font-family="Helvetica,sans-Serif" font-size="10.00">+ float e</text>
<text text-anchor="start" x="1104" y="-1186" font-family="Helvetica,sans-Serif" font-size="10.00">+ float eccentricity</text>
<text text-anchor="start" x="1104" y="-1175" font-family="Helvetica,sans-Serif" font-size="10.00">+ float f</text>
<text text-anchor="start" x="1104" y="-1164" font-family="Helvetica,sans-Serif" font-size="10.00">+ float focalLength</text>
<text text-anchor="start" x="1104" y="-1153" font-family="Helvetica,sans-Serif" font-size="10.00">+ Vector2 geoCenter</text>
<text text-anchor="start" x="1104" y="-1142" font-family="Helvetica,sans-Serif" font-size="10.00">+ bool isEllipse</text>
<text text-anchor="start" x="1104" y="-1131" font-family="Helvetica,sans-Serif" font-size="10.00">+ float semiMajorAxis</text>
<text text-anchor="start" x="1104" y="-1120" font-family="Helvetica,sans-Serif" font-size="10.00">+ float semiMinorAxis</text>
<polyline fill="none" stroke="black" points="1096,-1113 1245,-1113 "/>
<text text-anchor="start" x="1104" y="-1101" font-family="Helvetica,sans-Serif" font-size="10.00">+ ConicSection(float</text>
<text text-anchor="start" x="1104" y="-1090" font-family="Helvetica,sans-Serif" font-size="10.00"> a, float b, float c,</text>
<text text-anchor="start" x="1104" y="-1079" font-family="Helvetica,sans-Serif" font-size="10.00"> float d, float e, float f)</text>
<text text-anchor="start" x="1104" y="-1068" font-family="Helvetica,sans-Serif" font-size="10.00">+ ConicSection(float</text>
<text text-anchor="start" x="1104" y="-1057" font-family="Helvetica,sans-Serif" font-size="10.00"> a, float b, float c,</text>
<text text-anchor="start" x="1104" y="-1046" font-family="Helvetica,sans-Serif" font-size="10.00"> float theta, Vector2</text>
<text text-anchor="start" x="1104" y="-1035" font-family="Helvetica,sans-Serif" font-size="10.00"> geoCenter)</text>
<text text-anchor="start" x="1104" y="-1024" font-family="Helvetica,sans-Serif" font-size="10.00">+ float[] GetY(float x)</text>
<text text-anchor="start" x="1104" y="-1013" font-family="Helvetica,sans-Serif" font-size="10.00">+ float[] GetX(float y)</text>
<text text-anchor="start" x="1104" y="-1002" font-family="Helvetica,sans-Serif" font-size="10.00">+ Vector2 GetPolarPos</text>
<text text-anchor="start" x="1104" y="-991" font-family="Helvetica,sans-Serif" font-size="10.00">(float ag)</text>
<text text-anchor="start" x="1104" y="-980" font-family="Helvetica,sans-Serif" font-size="10.00">+ float GetT(float m)</text>
<text text-anchor="start" x="1104" y="-969" font-family="Helvetica,sans-Serif" font-size="10.00">+ override string ToString()</text>
</a>
</g>
</g>
<!-- Node10&#45;&gt;Node9 -->
<g id="edge14" class="edge">
<title>Node10&#45;&gt;Node9</title>
<path fill="none" stroke="#404040" d="M1167.77,-961.67C1165.9,-848.21 1163.49,-702.02 1161.97,-609.74"/>
<polygon fill="none" stroke="#404040" points="1161.97,-609.65 1157.87,-603.71 1161.77,-597.65 1165.87,-603.58 1161.97,-609.65"/>
<text text-anchor="middle" x="1179.5" y="-725" font-family="Helvetica,sans-Serif" font-size="10.00"> +orbit</text>
</g>
<!-- Node11&#45;&gt;Node1 -->
<g id="edge19" class="edge">
<title>Node11&#45;&gt;Node1</title>
<path fill="none" stroke="#404040" d="M264.04,-479.75C249.12,-434.11 230.39,-356.34 248.5,-292 253.07,-275.78 259.68,-259.57 267.38,-243.97"/>
<polygon fill="none" stroke="#404040" points="267.39,-243.95 266.57,-236.79 272.87,-233.28 273.69,-240.45 267.39,-243.95"/>
<text text-anchor="middle" x="289" y="-340.5" font-family="Helvetica,sans-Serif" font-size="10.00"> +styleSheetPanel</text>
</g>
<!-- Node12&#45;&gt;Node1 -->
<g id="edge22" class="edge">
<title>Node12&#45;&gt;Node1</title>
<path fill="none" stroke="#404040" d="M459.98,-297.78C451.96,-284.89 442.75,-270.11 433.17,-254.71"/>
<polygon fill="none" stroke="#404040" points="433.17,-254.71 426.6,-251.73 426.83,-244.52 433.39,-247.5 433.17,-254.71"/>
<text text-anchor="middle" x="481.5" y="-266" font-family="Helvetica,sans-Serif" font-size="10.00"> +velocityEditorUI</text>
</g>
<!-- Node13&#45;&gt;Node1 -->
<g id="edge27" class="edge">
<title>Node13&#45;&gt;Node1</title>
<path fill="none" stroke="#404040" d="M685.54,-446.93C655.12,-400.26 612.04,-339.45 566.5,-292 528.42,-252.33 480.74,-214.03 439.96,-184"/>
<polygon fill="none" stroke="#404040" points="439.71,-183.82 432.51,-183.51 430.02,-176.74 437.22,-177.05 439.71,-183.82"/>
<text text-anchor="middle" x="687.5" y="-340.5" font-family="Helvetica,sans-Serif" font-size="10.00"> +positionEditorUI</text>
</g>
</g>
</svg>
