<?xml version="1.0" encoding="UTF-8" standalone="no"?>
<!DOCTYPE svg PUBLIC "-//W3C//DTD SVG 1.1//EN"
 "http://www.w3.org/Graphics/SVG/1.1/DTD/svg11.dtd">
<!-- Generated by graphviz version 2.47.1 (20210417.1919)
 -->
<!-- Title: Satellite.SatelliteEngine.SetCurDirVelocity Pages: 1 -->
<svg width="328pt" height="88pt"
 viewBox="0.00 0.00 328.00 88.00" xmlns="http://www.w3.org/2000/svg" xmlns:xlink="http://www.w3.org/1999/xlink">
<g id="graph0" class="graph" transform="scale(1 1) rotate(0) translate(4 84)">
<title>Satellite.SatelliteEngine.SetCurDirVelocity</title>
<polygon fill="white" stroke="transparent" points="-4,4 -4,-84 324,-84 324,4 -4,4"/>
<!-- Node1 -->
<g id="node1" class="node">
<title>Node1</title>
<g id="a_node1"><a xlink:title=" ">
<polygon fill="#bfbfbf" stroke="black" points="0,-24.5 0,-54.5 123,-54.5 123,-24.5 0,-24.5"/>
<text text-anchor="start" x="8" y="-42.5" font-family="Helvetica,sans-Serif" font-size="10.00">Satellite.SatelliteEngine.</text>
<text text-anchor="middle" x="61.5" y="-31.5" font-family="Helvetica,sans-Serif" font-size="10.00">SetCurDirVelocity</text>
</a>
</g>
</g>
<!-- Node2 -->
<g id="node2" class="node">
<title>Node2</title>
<g id="a_node2"><a xlink:href="class_space_physic_1_1_astral_body.html#a8c43caafe4f528c08feb450cba3c5cd7" target="_top" xlink:title="调整星球速度">
<polygon fill="white" stroke="black" points="159,-49.5 159,-79.5 320,-79.5 320,-49.5 159,-49.5"/>
<text text-anchor="start" x="167" y="-67.5" font-family="Helvetica,sans-Serif" font-size="10.00">SpacePhysic.AstralBody.Change</text>
<text text-anchor="middle" x="239.5" y="-56.5" font-family="Helvetica,sans-Serif" font-size="10.00">Velocity</text>
</a>
</g>
</g>
<!-- Node1&#45;&gt;Node2 -->
<g id="edge1" class="edge">
<title>Node1&#45;&gt;Node2</title>
<path fill="none" stroke="midnightblue" d="M123.07,-48.1C131.36,-49.28 140.01,-50.51 148.69,-51.74"/>
<polygon fill="midnightblue" stroke="midnightblue" points="148.47,-55.25 158.86,-53.19 149.45,-48.32 148.47,-55.25"/>
</g>
<!-- Node3 -->
<g id="node3" class="node">
<title>Node3</title>
<g id="a_node3"><a xlink:href="class_space_physic_1_1_astral_body.html#a49a47294cf00916a50c42a62cda119f0" target="_top" xlink:title=" ">
<polygon fill="white" stroke="black" points="167.5,-0.5 167.5,-30.5 311.5,-30.5 311.5,-0.5 167.5,-0.5"/>
<text text-anchor="start" x="175.5" y="-18.5" font-family="Helvetica,sans-Serif" font-size="10.00">SpacePhysic.AstralBody.Get</text>
<text text-anchor="middle" x="239.5" y="-7.5" font-family="Helvetica,sans-Serif" font-size="10.00">Velocity</text>
</a>
</g>
</g>
<!-- Node1&#45;&gt;Node3 -->
<g id="edge2" class="edge">
<title>Node1&#45;&gt;Node3</title>
<path fill="none" stroke="midnightblue" d="M123.07,-31.24C134.07,-29.74 145.7,-28.15 157.18,-26.59"/>
<polygon fill="midnightblue" stroke="midnightblue" points="157.77,-30.04 167.21,-25.22 156.83,-23.1 157.77,-30.04"/>
</g>
</g>
</svg>
