<?xml version="1.0" encoding="UTF-8" standalone="no"?>
<!DOCTYPE svg PUBLIC "-//W3C//DTD SVG 1.1//EN"
 "http://www.w3.org/Graphics/SVG/1.1/DTD/svg11.dtd">
<!-- Generated by graphviz version 2.47.1 (20210417.1919)
 -->
<!-- Title: CustomUI.Quiz.ResultUI Pages: 1 -->
<svg width="272pt" height="547pt"
 viewBox="0.00 0.00 271.82 547.00" xmlns="http://www.w3.org/2000/svg" xmlns:xlink="http://www.w3.org/1999/xlink">
<g id="graph0" class="graph" transform="scale(1 1) rotate(0) translate(4 543)">
<title>CustomUI.Quiz.ResultUI</title>
<polygon fill="white" stroke="transparent" points="-4,4 -4,-543 267.82,-543 267.82,4 -4,4"/>
<!-- Node1 -->
<g id="node1" class="node">
<title>Node1</title>
<g id="a_node1"><a xlink:title=" ">
<polygon fill="#bfbfbf" stroke="black" points="53.82,-0.5 53.82,-90.5 175.82,-90.5 175.82,-0.5 53.82,-0.5"/>
<text text-anchor="middle" x="114.82" y="-78.5" font-family="Helvetica,sans-Serif" font-size="10.00">CustomUI.Quiz.ResultUI</text>
<polyline fill="none" stroke="black" points="53.82,-71.5 175.82,-71.5 "/>
<text text-anchor="start" x="61.82" y="-59.5" font-family="Helvetica,sans-Serif" font-size="10.00">+ GameObject panel</text>
<text text-anchor="start" x="61.82" y="-48.5" font-family="Helvetica,sans-Serif" font-size="10.00">+ List&lt; GameObject &gt;</text>
<text text-anchor="start" x="61.82" y="-37.5" font-family="Helvetica,sans-Serif" font-size="10.00"> quizUis</text>
<polyline fill="none" stroke="black" points="53.82,-30.5 175.82,-30.5 "/>
<text text-anchor="start" x="61.82" y="-18.5" font-family="Helvetica,sans-Serif" font-size="10.00">+ void Restart()</text>
<text text-anchor="start" x="61.82" y="-7.5" font-family="Helvetica,sans-Serif" font-size="10.00">+ void Back()</text>
</a>
</g>
</g>
<!-- Node2 -->
<g id="node2" class="node">
<title>Node2</title>
<g id="a_node2"><a xlink:title=" ">
<polygon fill="white" stroke="#bfbfbf" points="1.32,-481.5 1.32,-538.5 84.32,-538.5 84.32,-481.5 1.32,-481.5"/>
<text text-anchor="middle" x="42.82" y="-526.5" font-family="Helvetica,sans-Serif" font-size="10.00">MonoBehaviour</text>
<polyline fill="none" stroke="#bfbfbf" points="1.32,-519.5 84.32,-519.5 "/>
<text text-anchor="middle" x="42.82" y="-507.5" font-family="Helvetica,sans-Serif" font-size="10.00"> </text>
<polyline fill="none" stroke="#bfbfbf" points="1.32,-500.5 84.32,-500.5 "/>
<text text-anchor="middle" x="42.82" y="-488.5" font-family="Helvetica,sans-Serif" font-size="10.00"> </text>
</a>
</g>
</g>
<!-- Node2&#45;&gt;Node1 -->
<g id="edge1" class="edge">
<title>Node2&#45;&gt;Node1</title>
<path fill="none" stroke="midnightblue" d="M30.58,-471.1C10.43,-401.89 -23.1,-251.7 23.82,-138 31.08,-120.4 43.55,-104.39 56.97,-90.87"/>
<polygon fill="none" stroke="midnightblue" points="27.36,-472.52 33.57,-481.1 34.06,-470.52 27.36,-472.52"/>
</g>
<!-- Node4 -->
<g id="node4" class="node">
<title>Node4</title>
<g id="a_node4"><a xlink:href="class_custom_u_i_1_1_quiz_1_1_quiz_stars_group_u_i.html" target="_top" xlink:title=" ">
<polygon fill="white" stroke="black" points="32.82,-138.5 32.82,-228.5 196.82,-228.5 196.82,-138.5 32.82,-138.5"/>
<text text-anchor="middle" x="114.82" y="-216.5" font-family="Helvetica,sans-Serif" font-size="10.00">CustomUI.Quiz.QuizStarsGroupUI</text>
<polyline fill="none" stroke="black" points="32.82,-209.5 196.82,-209.5 "/>
<text text-anchor="start" x="40.82" y="-197.5" font-family="Helvetica,sans-Serif" font-size="10.00">+ int _starCount</text>
<text text-anchor="start" x="40.82" y="-186.5" font-family="Helvetica,sans-Serif" font-size="10.00">+ List&lt; QuizStarUI &gt;</text>
<text text-anchor="start" x="40.82" y="-175.5" font-family="Helvetica,sans-Serif" font-size="10.00"> quizStarUis</text>
<text text-anchor="start" x="40.82" y="-164.5" font-family="Helvetica,sans-Serif" font-size="10.00">+ int starCount</text>
<polyline fill="none" stroke="black" points="32.82,-157.5 196.82,-157.5 "/>
<text text-anchor="start" x="40.82" y="-145.5" font-family="Helvetica,sans-Serif" font-size="10.00">+ void CalculateSuccessStars()</text>
</a>
</g>
</g>
<!-- Node2&#45;&gt;Node4 -->
<g id="edge4" class="edge">
<title>Node2&#45;&gt;Node4</title>
<path fill="none" stroke="midnightblue" d="M40.87,-471.34C39.57,-424.45 41.03,-342.44 61.82,-276 66.91,-259.71 75.3,-243.17 83.92,-228.73"/>
<polygon fill="none" stroke="midnightblue" points="37.37,-471.47 41.2,-481.35 44.37,-471.24 37.37,-471.47"/>
</g>
<!-- Node5 -->
<g id="node5" class="node">
<title>Node5</title>
<g id="a_node5"><a xlink:href="class_game_managers_1_1_global_timer.html" target="_top" xlink:title="全局计时器">
<polygon fill="white" stroke="black" points="70.82,-276.5 70.82,-443.5 230.82,-443.5 230.82,-276.5 70.82,-276.5"/>
<text text-anchor="middle" x="150.82" y="-431.5" font-family="Helvetica,sans-Serif" font-size="10.00">GameManagers.GlobalTimer</text>
<polyline fill="none" stroke="black" points="70.82,-424.5 230.82,-424.5 "/>
<text text-anchor="start" x="78.82" y="-412.5" font-family="Helvetica,sans-Serif" font-size="10.00">+ float countDownTime</text>
<text text-anchor="start" x="78.82" y="-401.5" font-family="Helvetica,sans-Serif" font-size="10.00">+ UnityEvent countingDownEnd</text>
<text text-anchor="start" x="78.82" y="-390.5" font-family="Helvetica,sans-Serif" font-size="10.00">Event</text>
<text text-anchor="start" x="78.82" y="-379.5" font-family="Helvetica,sans-Serif" font-size="10.00">+ UnityEvent countingDownEvent</text>
<text text-anchor="start" x="78.82" y="-368.5" font-family="Helvetica,sans-Serif" font-size="10.00">+ UnityEvent startCountDown</text>
<text text-anchor="start" x="78.82" y="-357.5" font-family="Helvetica,sans-Serif" font-size="10.00">Event</text>
<text text-anchor="start" x="78.82" y="-346.5" font-family="Helvetica,sans-Serif" font-size="10.00">+ bool isPausing</text>
<text text-anchor="start" x="78.82" y="-335.5" font-family="Helvetica,sans-Serif" font-size="10.00">+ bool isCountDownEnd</text>
<text text-anchor="start" x="78.82" y="-324.5" font-family="Helvetica,sans-Serif" font-size="10.00">+ bool isCountingDown</text>
<text text-anchor="start" x="78.82" y="-313.5" font-family="Helvetica,sans-Serif" font-size="10.00">+ float timer</text>
<polyline fill="none" stroke="black" points="70.82,-306.5 230.82,-306.5 "/>
<text text-anchor="start" x="78.82" y="-294.5" font-family="Helvetica,sans-Serif" font-size="10.00">+ void Reset()</text>
<text text-anchor="start" x="78.82" y="-283.5" font-family="Helvetica,sans-Serif" font-size="10.00">+ void StartCounting()</text>
</a>
</g>
</g>
<!-- Node2&#45;&gt;Node5 -->
<g id="edge6" class="edge">
<title>Node2&#45;&gt;Node5</title>
<path fill="none" stroke="midnightblue" d="M69.17,-472.89C75.72,-463.91 83.02,-453.9 90.48,-443.68"/>
<polygon fill="none" stroke="midnightblue" points="66.2,-471.02 63.13,-481.16 71.85,-475.15 66.2,-471.02"/>
</g>
<!-- Node3 -->
<g id="node3" class="node">
<title>Node3</title>
<g id="a_node3"><a xlink:title=" ">
<polygon fill="white" stroke="#bfbfbf" points="215.32,-155 215.32,-212 250.32,-212 250.32,-155 215.32,-155"/>
<text text-anchor="middle" x="232.82" y="-200" font-family="Helvetica,sans-Serif" font-size="10.00">Text</text>
<polyline fill="none" stroke="#bfbfbf" points="215.32,-193 250.32,-193 "/>
<text text-anchor="middle" x="232.82" y="-181" font-family="Helvetica,sans-Serif" font-size="10.00"> </text>
<polyline fill="none" stroke="#bfbfbf" points="215.32,-174 250.32,-174 "/>
<text text-anchor="middle" x="232.82" y="-162" font-family="Helvetica,sans-Serif" font-size="10.00"> </text>
</a>
</g>
</g>
<!-- Node3&#45;&gt;Node1 -->
<g id="edge2" class="edge">
<title>Node3&#45;&gt;Node1</title>
<path fill="none" stroke="#404040" d="M226.48,-154.66C222.15,-140 215.25,-122.34 204.82,-109 199.34,-102 192.86,-95.47 185.92,-89.47"/>
<polygon fill="none" stroke="#404040" points="185.57,-89.18 178.39,-88.51 176.24,-81.63 183.42,-82.3 185.57,-89.18"/>
<text text-anchor="middle" x="237.82" y="-112" font-family="Helvetica,sans-Serif" font-size="10.00"> +resultText</text>
</g>
<!-- Node4&#45;&gt;Node1 -->
<g id="edge3" class="edge">
<title>Node4&#45;&gt;Node1</title>
<path fill="none" stroke="#404040" d="M114.82,-138.34C114.82,-127.06 114.82,-114.78 114.82,-102.97"/>
<polygon fill="none" stroke="#404040" points="114.82,-102.9 110.82,-96.9 114.82,-90.9 118.82,-96.9 114.82,-102.9"/>
<text text-anchor="middle" x="157.82" y="-112" font-family="Helvetica,sans-Serif" font-size="10.00"> +quizStarsGroupUI</text>
</g>
<!-- Node5&#45;&gt;Node4 -->
<g id="edge5" class="edge">
<title>Node5&#45;&gt;Node4</title>
<path fill="none" stroke="#404040" d="M133.77,-276.35C131.28,-264.32 128.78,-252.17 126.44,-240.82"/>
<polygon fill="none" stroke="#404040" points="126.39,-240.62 121.26,-235.55 123.97,-228.86 129.1,-233.93 126.39,-240.62"/>
<text text-anchor="middle" x="158.32" y="-250" font-family="Helvetica,sans-Serif" font-size="10.00"> +globalTimer</text>
</g>
</g>
</svg>
