<?xml version="1.0" encoding="UTF-8" standalone="no"?>
<!DOCTYPE svg PUBLIC "-//W3C//DTD SVG 1.1//EN"
 "http://www.w3.org/Graphics/SVG/1.1/DTD/svg11.dtd">
<!-- Generated by graphviz version 2.47.1 (20210417.1919)
 -->
<!-- Title: CustomUI.Quiz.QuizStarsGroupUI Pages: 1 -->
<svg width="262pt" height="409pt"
 viewBox="0.00 0.00 262.00 409.00" xmlns="http://www.w3.org/2000/svg" xmlns:xlink="http://www.w3.org/1999/xlink">
<g id="graph0" class="graph" transform="scale(1 1) rotate(0) translate(4 405)">
<title>CustomUI.Quiz.QuizStarsGroupUI</title>
<polygon fill="white" stroke="transparent" points="-4,4 -4,-405 258,-405 258,4 -4,4"/>
<!-- Node1 -->
<g id="node1" class="node">
<title>Node1</title>
<g id="a_node1"><a xlink:title=" ">
<polygon fill="#bfbfbf" stroke="black" points="0,-0.5 0,-90.5 164,-90.5 164,-0.5 0,-0.5"/>
<text text-anchor="middle" x="82" y="-78.5" font-family="Helvetica,sans-Serif" font-size="10.00">CustomUI.Quiz.QuizStarsGroupUI</text>
<polyline fill="none" stroke="black" points="0,-71.5 164,-71.5 "/>
<text text-anchor="start" x="8" y="-59.5" font-family="Helvetica,sans-Serif" font-size="10.00">+ int _starCount</text>
<text text-anchor="start" x="8" y="-48.5" font-family="Helvetica,sans-Serif" font-size="10.00">+ List&lt; QuizStarUI &gt;</text>
<text text-anchor="start" x="8" y="-37.5" font-family="Helvetica,sans-Serif" font-size="10.00"> quizStarUis</text>
<text text-anchor="start" x="8" y="-26.5" font-family="Helvetica,sans-Serif" font-size="10.00">+ int starCount</text>
<polyline fill="none" stroke="black" points="0,-19.5 164,-19.5 "/>
<text text-anchor="start" x="8" y="-7.5" font-family="Helvetica,sans-Serif" font-size="10.00">+ void CalculateSuccessStars()</text>
</a>
</g>
</g>
<!-- Node2 -->
<g id="node2" class="node">
<title>Node2</title>
<g id="a_node2"><a xlink:title=" ">
<polygon fill="white" stroke="#bfbfbf" points="36.5,-343.5 36.5,-400.5 119.5,-400.5 119.5,-343.5 36.5,-343.5"/>
<text text-anchor="middle" x="78" y="-388.5" font-family="Helvetica,sans-Serif" font-size="10.00">MonoBehaviour</text>
<polyline fill="none" stroke="#bfbfbf" points="36.5,-381.5 119.5,-381.5 "/>
<text text-anchor="middle" x="78" y="-369.5" font-family="Helvetica,sans-Serif" font-size="10.00"> </text>
<polyline fill="none" stroke="#bfbfbf" points="36.5,-362.5 119.5,-362.5 "/>
<text text-anchor="middle" x="78" y="-350.5" font-family="Helvetica,sans-Serif" font-size="10.00"> </text>
</a>
</g>
</g>
<!-- Node2&#45;&gt;Node1 -->
<g id="edge1" class="edge">
<title>Node2&#45;&gt;Node1</title>
<path fill="none" stroke="midnightblue" d="M78.47,-333.09C79.21,-272.66 80.67,-154.76 81.46,-90.63"/>
<polygon fill="none" stroke="midnightblue" points="74.96,-333.29 78.34,-343.33 81.96,-333.38 74.96,-333.29"/>
</g>
<!-- Node3 -->
<g id="node3" class="node">
<title>Node3</title>
<g id="a_node3"><a xlink:href="class_game_managers_1_1_global_timer.html" target="_top" xlink:title="全局计时器">
<polygon fill="white" stroke="black" points="94,-138.5 94,-305.5 254,-305.5 254,-138.5 94,-138.5"/>
<text text-anchor="middle" x="174" y="-293.5" font-family="Helvetica,sans-Serif" font-size="10.00">GameManagers.GlobalTimer</text>
<polyline fill="none" stroke="black" points="94,-286.5 254,-286.5 "/>
<text text-anchor="start" x="102" y="-274.5" font-family="Helvetica,sans-Serif" font-size="10.00">+ float countDownTime</text>
<text text-anchor="start" x="102" y="-263.5" font-family="Helvetica,sans-Serif" font-size="10.00">+ UnityEvent countingDownEnd</text>
<text text-anchor="start" x="102" y="-252.5" font-family="Helvetica,sans-Serif" font-size="10.00">Event</text>
<text text-anchor="start" x="102" y="-241.5" font-family="Helvetica,sans-Serif" font-size="10.00">+ UnityEvent countingDownEvent</text>
<text text-anchor="start" x="102" y="-230.5" font-family="Helvetica,sans-Serif" font-size="10.00">+ UnityEvent startCountDown</text>
<text text-anchor="start" x="102" y="-219.5" font-family="Helvetica,sans-Serif" font-size="10.00">Event</text>
<text text-anchor="start" x="102" y="-208.5" font-family="Helvetica,sans-Serif" font-size="10.00">+ bool isPausing</text>
<text text-anchor="start" x="102" y="-197.5" font-family="Helvetica,sans-Serif" font-size="10.00">+ bool isCountDownEnd</text>
<text text-anchor="start" x="102" y="-186.5" font-family="Helvetica,sans-Serif" font-size="10.00">+ bool isCountingDown</text>
<text text-anchor="start" x="102" y="-175.5" font-family="Helvetica,sans-Serif" font-size="10.00">+ float timer</text>
<polyline fill="none" stroke="black" points="94,-168.5 254,-168.5 "/>
<text text-anchor="start" x="102" y="-156.5" font-family="Helvetica,sans-Serif" font-size="10.00">+ void Reset()</text>
<text text-anchor="start" x="102" y="-145.5" font-family="Helvetica,sans-Serif" font-size="10.00">+ void StartCounting()</text>
</a>
</g>
</g>
<!-- Node2&#45;&gt;Node3 -->
<g id="edge3" class="edge">
<title>Node2&#45;&gt;Node3</title>
<path fill="none" stroke="midnightblue" d="M101.6,-334.61C107.38,-325.7 113.81,-315.8 120.37,-305.68"/>
<polygon fill="none" stroke="midnightblue" points="98.56,-332.87 96.06,-343.16 104.44,-336.68 98.56,-332.87"/>
</g>
<!-- Node3&#45;&gt;Node1 -->
<g id="edge2" class="edge">
<title>Node3&#45;&gt;Node1</title>
<path fill="none" stroke="#404040" d="M130.42,-138.35C123.88,-125.93 117.27,-113.39 111.12,-101.73"/>
<polygon fill="none" stroke="#404040" points="110.99,-101.48 104.65,-98.04 105.39,-90.86 111.73,-94.31 110.99,-101.48"/>
<text text-anchor="middle" x="148.5" y="-112" font-family="Helvetica,sans-Serif" font-size="10.00"> +globalTimer</text>
</g>
</g>
</svg>
