<?xml version="1.0" encoding="UTF-8" standalone="no"?>
<!DOCTYPE svg PUBLIC "-//W3C//DTD SVG 1.1//EN"
 "http://www.w3.org/Graphics/SVG/1.1/DTD/svg11.dtd">
<!-- Generated by graphviz version 2.47.1 (20210417.1919)
 -->
<!-- Title: CustomUI.Quiz.VarLineUI Pages: 1 -->
<svg width="161pt" height="435pt"
 viewBox="0.00 0.00 161.00 435.00" xmlns="http://www.w3.org/2000/svg" xmlns:xlink="http://www.w3.org/1999/xlink">
<g id="graph0" class="graph" transform="scale(1 1) rotate(0) translate(4 431)">
<title>CustomUI.Quiz.VarLineUI</title>
<polygon fill="white" stroke="transparent" points="-4,4 -4,-431 157,-431 157,4 -4,4"/>
<!-- Node1 -->
<g id="node1" class="node">
<title>Node1</title>
<g id="a_node1"><a xlink:title=" ">
<polygon fill="#bfbfbf" stroke="black" points="6,-0.5 6,-310.5 153,-310.5 153,-0.5 6,-0.5"/>
<text text-anchor="middle" x="79.5" y="-298.5" font-family="Helvetica,sans-Serif" font-size="10.00">CustomUI.Quiz.VarLineUI</text>
<polyline fill="none" stroke="black" points="6,-291.5 153,-291.5 "/>
<text text-anchor="start" x="14" y="-279.5" font-family="Helvetica,sans-Serif" font-size="10.00">+ GameObject add</text>
<text text-anchor="start" x="14" y="-268.5" font-family="Helvetica,sans-Serif" font-size="10.00">+ Sprite editableImage</text>
<text text-anchor="start" x="14" y="-257.5" font-family="Helvetica,sans-Serif" font-size="10.00">+ bool enableInput</text>
<text text-anchor="start" x="14" y="-246.5" font-family="Helvetica,sans-Serif" font-size="10.00">+ string headerString</text>
<text text-anchor="start" x="14" y="-235.5" font-family="Helvetica,sans-Serif" font-size="10.00">+ InputField inputField</text>
<text text-anchor="start" x="14" y="-224.5" font-family="Helvetica,sans-Serif" font-size="10.00">+ bool isQuiz</text>
<text text-anchor="start" x="14" y="-213.5" font-family="Helvetica,sans-Serif" font-size="10.00">+ GameObject minus</text>
<text text-anchor="start" x="14" y="-202.5" font-family="Helvetica,sans-Serif" font-size="10.00">+ ShowPropertyType property</text>
<text text-anchor="start" x="14" y="-191.5" font-family="Helvetica,sans-Serif" font-size="10.00">+ Sprite readOnlyImage</text>
<text text-anchor="start" x="14" y="-180.5" font-family="Helvetica,sans-Serif" font-size="10.00">+ InputField scientificCounting</text>
<text text-anchor="start" x="14" y="-169.5" font-family="Helvetica,sans-Serif" font-size="10.00">InputField</text>
<text text-anchor="start" x="14" y="-158.5" font-family="Helvetica,sans-Serif" font-size="10.00">+ Toggle toggle</text>
<text text-anchor="start" x="14" y="-147.5" font-family="Helvetica,sans-Serif" font-size="10.00">+ string unitString</text>
<text text-anchor="start" x="14" y="-136.5" font-family="Helvetica,sans-Serif" font-size="10.00">+ AstralBody target</text>
<polyline fill="none" stroke="black" points="6,-129.5 153,-129.5 "/>
<text text-anchor="start" x="14" y="-117.5" font-family="Helvetica,sans-Serif" font-size="10.00">+ void Generate()</text>
<text text-anchor="start" x="14" y="-106.5" font-family="Helvetica,sans-Serif" font-size="10.00">+ void ChangePublicity()</text>
<text text-anchor="start" x="14" y="-95.5" font-family="Helvetica,sans-Serif" font-size="10.00">+ void OnEditEnd()</text>
<text text-anchor="start" x="14" y="-84.5" font-family="Helvetica,sans-Serif" font-size="10.00">+ void OnInputFieldDrag()</text>
<text text-anchor="start" x="14" y="-73.5" font-family="Helvetica,sans-Serif" font-size="10.00">+ void WhileInputFieldDrag()</text>
<text text-anchor="start" x="14" y="-62.5" font-family="Helvetica,sans-Serif" font-size="10.00">+ void WhileAddClicking</text>
<text text-anchor="start" x="14" y="-51.5" font-family="Helvetica,sans-Serif" font-size="10.00">(bool isAdd)</text>
<text text-anchor="start" x="14" y="-40.5" font-family="Helvetica,sans-Serif" font-size="10.00">+ void OnDragEnd()</text>
<text text-anchor="start" x="14" y="-29.5" font-family="Helvetica,sans-Serif" font-size="10.00">+ void OnClickEnd()</text>
<text text-anchor="start" x="14" y="-18.5" font-family="Helvetica,sans-Serif" font-size="10.00">+ void OnInputting()</text>
<text text-anchor="start" x="14" y="-7.5" font-family="Helvetica,sans-Serif" font-size="10.00">+ void OnInputCancel()</text>
</a>
</g>
</g>
<!-- Node2 -->
<g id="node2" class="node">
<title>Node2</title>
<g id="a_node2"><a xlink:title=" ">
<polygon fill="white" stroke="#bfbfbf" points="0,-369.5 0,-426.5 83,-426.5 83,-369.5 0,-369.5"/>
<text text-anchor="middle" x="41.5" y="-414.5" font-family="Helvetica,sans-Serif" font-size="10.00">MonoBehaviour</text>
<polyline fill="none" stroke="#bfbfbf" points="0,-407.5 83,-407.5 "/>
<text text-anchor="middle" x="41.5" y="-395.5" font-family="Helvetica,sans-Serif" font-size="10.00"> </text>
<polyline fill="none" stroke="#bfbfbf" points="0,-388.5 83,-388.5 "/>
<text text-anchor="middle" x="41.5" y="-376.5" font-family="Helvetica,sans-Serif" font-size="10.00"> </text>
</a>
</g>
</g>
<!-- Node2&#45;&gt;Node1 -->
<g id="edge1" class="edge">
<title>Node2&#45;&gt;Node1</title>
<path fill="none" stroke="midnightblue" d="M47.45,-359.32C49.66,-345.35 52.32,-328.5 55.16,-310.57"/>
<polygon fill="none" stroke="midnightblue" points="43.96,-358.99 45.86,-369.41 50.88,-360.08 43.96,-358.99"/>
</g>
<!-- Node3 -->
<g id="node3" class="node">
<title>Node3</title>
<g id="a_node3"><a xlink:title=" ">
<polygon fill="white" stroke="#bfbfbf" points="101,-369.5 101,-426.5 136,-426.5 136,-369.5 101,-369.5"/>
<text text-anchor="middle" x="118.5" y="-414.5" font-family="Helvetica,sans-Serif" font-size="10.00">Text</text>
<polyline fill="none" stroke="#bfbfbf" points="101,-407.5 136,-407.5 "/>
<text text-anchor="middle" x="118.5" y="-395.5" font-family="Helvetica,sans-Serif" font-size="10.00"> </text>
<polyline fill="none" stroke="#bfbfbf" points="101,-388.5 136,-388.5 "/>
<text text-anchor="middle" x="118.5" y="-376.5" font-family="Helvetica,sans-Serif" font-size="10.00"> </text>
</a>
</g>
</g>
<!-- Node3&#45;&gt;Node1 -->
<g id="edge2" class="edge">
<title>Node3&#45;&gt;Node1</title>
<path fill="none" stroke="#404040" d="M114.03,-369.41C111.96,-356.66 109.32,-340.38 106.42,-322.51"/>
<polygon fill="none" stroke="#404040" points="106.4,-322.41 101.5,-317.13 104.48,-310.57 109.39,-315.85 106.4,-322.41"/>
<text text-anchor="middle" x="130" y="-343" font-family="Helvetica,sans-Serif" font-size="10.00"> +header</text>
<text text-anchor="middle" x="130" y="-332" font-family="Helvetica,sans-Serif" font-size="10.00">+unit</text>
</g>
</g>
</svg>
