<?xml version="1.0" encoding="UTF-8" standalone="no"?>
<!DOCTYPE svg PUBLIC "-//W3C//DTD SVG 1.1//EN"
 "http://www.w3.org/Graphics/SVG/1.1/DTD/svg11.dtd">
<!-- Generated by graphviz version 2.47.1 (20210417.1919)
 -->
<!-- Title: CustomUI.Quiz.QuizUI.Generate Pages: 1 -->
<svg width="957pt" height="83pt"
 viewBox="0.00 0.00 957.00 83.00" xmlns="http://www.w3.org/2000/svg" xmlns:xlink="http://www.w3.org/1999/xlink">
<g id="graph0" class="graph" transform="scale(1 1) rotate(0) translate(4 79)">
<title>CustomUI.Quiz.QuizUI.Generate</title>
<polygon fill="white" stroke="transparent" points="-4,4 -4,-79 953,-79 953,4 -4,4"/>
<!-- Node1 -->
<g id="node1" class="node">
<title>Node1</title>
<g id="a_node1"><a xlink:title=" ">
<polygon fill="#bfbfbf" stroke="black" points="0,-28 0,-47 158,-47 158,-28 0,-28"/>
<text text-anchor="middle" x="79" y="-35" font-family="Helvetica,sans-Serif" font-size="10.00">CustomUI.Quiz.QuizUI.Generate</text>
</a>
</g>
</g>
<!-- Node2 -->
<g id="node2" class="node">
<title>Node2</title>
<g id="a_node2"><a xlink:href="class_quiz_1_1_quiz_solver.html#afc4ef823ad1220a4aea4f7d2f5cf23dd" target="_top" xlink:title="获取问题">
<polygon fill="white" stroke="black" points="194,-28 194,-47 361,-47 361,-28 194,-28"/>
<text text-anchor="middle" x="277.5" y="-35" font-family="Helvetica,sans-Serif" font-size="10.00">Quiz.QuizSolver.GetQuizSentence</text>
</a>
</g>
</g>
<!-- Node1&#45;&gt;Node2 -->
<g id="edge1" class="edge">
<title>Node1&#45;&gt;Node2</title>
<path fill="none" stroke="midnightblue" d="M158.23,-37.5C166.52,-37.5 175.01,-37.5 183.45,-37.5"/>
<polygon fill="midnightblue" stroke="midnightblue" points="183.71,-41 193.71,-37.5 183.71,-34 183.71,-41"/>
</g>
<!-- Node3 -->
<g id="node3" class="node">
<title>Node3</title>
<g id="a_node3"><a xlink:href="class_quiz_1_1_quiz_astral_body.html#a4aa95a8b5358b10d4b3d7220469f6c50" target="_top" xlink:title="获取星球条件文本">
<polygon fill="white" stroke="black" points="397,-22.5 397,-52.5 544,-52.5 544,-22.5 397,-22.5"/>
<text text-anchor="start" x="405" y="-40.5" font-family="Helvetica,sans-Serif" font-size="10.00">Quiz.QuizAstralBody.GetQuiz</text>
<text text-anchor="middle" x="470.5" y="-29.5" font-family="Helvetica,sans-Serif" font-size="10.00">ConditionString</text>
</a>
</g>
</g>
<!-- Node2&#45;&gt;Node3 -->
<g id="edge2" class="edge">
<title>Node2&#45;&gt;Node3</title>
<path fill="none" stroke="midnightblue" d="M361.16,-37.5C369.62,-37.5 378.22,-37.5 386.68,-37.5"/>
<polygon fill="midnightblue" stroke="midnightblue" points="386.91,-41 396.91,-37.5 386.91,-34 386.91,-41"/>
</g>
<!-- Node4 -->
<g id="node4" class="node">
<title>Node4</title>
<g id="a_node4"><a xlink:href="class_game_managers_1_1_game_manager.html#abeec4915d581418a152b1a07848333cd" target="_top" xlink:title="获取缩放系数">
<polygon fill="white" stroke="black" points="580,-50 580,-69 758,-69 758,-50 580,-50"/>
<text text-anchor="middle" x="669" y="-57" font-family="Helvetica,sans-Serif" font-size="10.00">GameManagers.GameManager.GetK</text>
</a>
</g>
</g>
<!-- Node3&#45;&gt;Node4 -->
<g id="edge3" class="edge">
<title>Node3&#45;&gt;Node4</title>
<path fill="none" stroke="midnightblue" d="M544.11,-45.63C553.52,-46.68 563.27,-47.77 572.98,-48.86"/>
<polygon fill="midnightblue" stroke="midnightblue" points="572.74,-52.36 583.07,-49.99 573.52,-45.4 572.74,-52.36"/>
</g>
<!-- Node6 -->
<g id="node6" class="node">
<title>Node6</title>
<g id="a_node6"><a xlink:href="class_space_physic_1_1_astral_body.html#a49a47294cf00916a50c42a62cda119f0" target="_top" xlink:title=" ">
<polygon fill="white" stroke="black" points="597,-0.5 597,-30.5 741,-30.5 741,-0.5 597,-0.5"/>
<text text-anchor="start" x="605" y="-18.5" font-family="Helvetica,sans-Serif" font-size="10.00">SpacePhysic.AstralBody.Get</text>
<text text-anchor="middle" x="669" y="-7.5" font-family="Helvetica,sans-Serif" font-size="10.00">Velocity</text>
</a>
</g>
</g>
<!-- Node3&#45;&gt;Node6 -->
<g id="edge5" class="edge">
<title>Node3&#45;&gt;Node6</title>
<path fill="none" stroke="midnightblue" d="M544.11,-29.37C558.01,-27.81 572.65,-26.18 586.8,-24.59"/>
<polygon fill="midnightblue" stroke="midnightblue" points="587.45,-28.04 597,-23.45 586.67,-21.08 587.45,-28.04"/>
</g>
<!-- Node5 -->
<g id="node5" class="node">
<title>Node5</title>
<g id="a_node5"><a xlink:href="class_game_managers_1_1_game_manager.html#ab809f66044771ece537c01978381610f" target="_top" xlink:title="计算质量缩放">
<polygon fill="white" stroke="black" points="794,-44.5 794,-74.5 949,-74.5 949,-44.5 794,-44.5"/>
<text text-anchor="start" x="802" y="-62.5" font-family="Helvetica,sans-Serif" font-size="10.00">GameManagers.GameManager.</text>
<text text-anchor="middle" x="871.5" y="-51.5" font-family="Helvetica,sans-Serif" font-size="10.00">CalculateMassScales</text>
</a>
</g>
</g>
<!-- Node4&#45;&gt;Node5 -->
<g id="edge4" class="edge">
<title>Node4&#45;&gt;Node5</title>
<path fill="none" stroke="midnightblue" d="M758.23,-59.5C766.67,-59.5 775.23,-59.5 783.66,-59.5"/>
<polygon fill="midnightblue" stroke="midnightblue" points="783.86,-63 793.86,-59.5 783.86,-56 783.86,-63"/>
</g>
</g>
</svg>
