<?xml version="1.0" encoding="UTF-8" standalone="no"?>
<!DOCTYPE svg PUBLIC "-//W3C//DTD SVG 1.1//EN"
 "http://www.w3.org/Graphics/SVG/1.1/DTD/svg11.dtd">
<!-- Generated by graphviz version 2.47.1 (20210417.1919)
 -->
<!-- Title: CustomUI.Lab.LabSceneListUI Pages: 1 -->
<svg width="407pt" height="331pt"
 viewBox="0.00 0.00 407.00 331.00" xmlns="http://www.w3.org/2000/svg" xmlns:xlink="http://www.w3.org/1999/xlink">
<g id="graph0" class="graph" transform="scale(1 1) rotate(0) translate(4 327)">
<title>CustomUI.Lab.LabSceneListUI</title>
<polygon fill="white" stroke="transparent" points="-4,4 -4,-327 403,-327 403,4 -4,4"/>
<!-- Node1 -->
<g id="node1" class="node">
<title>Node1</title>
<g id="a_node1"><a xlink:title=" ">
<polygon fill="#bfbfbf" stroke="black" points="0,-105.5 0,-195.5 149,-195.5 149,-105.5 0,-105.5"/>
<text text-anchor="middle" x="74.5" y="-183.5" font-family="Helvetica,sans-Serif" font-size="10.00">CustomUI.Lab.LabSceneListUI</text>
<polyline fill="none" stroke="black" points="0,-176.5 149,-176.5 "/>
<text text-anchor="start" x="8" y="-164.5" font-family="Helvetica,sans-Serif" font-size="10.00">+ RectTransform content</text>
<text text-anchor="start" x="8" y="-153.5" font-family="Helvetica,sans-Serif" font-size="10.00">+ float offset</text>
<text text-anchor="start" x="8" y="-142.5" font-family="Helvetica,sans-Serif" font-size="10.00">+ List&lt; LabSceneLineUI</text>
<text text-anchor="start" x="8" y="-131.5" font-family="Helvetica,sans-Serif" font-size="10.00"> &gt; scenesLineUis</text>
<polyline fill="none" stroke="black" points="0,-124.5 149,-124.5 "/>
<text text-anchor="middle" x="74.5" y="-112.5" font-family="Helvetica,sans-Serif" font-size="10.00"> </text>
</a>
</g>
</g>
<!-- Node3 -->
<g id="node3" class="node">
<title>Node3</title>
<g id="a_node3"><a xlink:href="class_custom_u_i_1_1_lab_1_1_lab_scene_line_u_i.html" target="_top" xlink:title=" ">
<polygon fill="white" stroke="black" points="101.5,-0.5 101.5,-57.5 253.5,-57.5 253.5,-0.5 101.5,-0.5"/>
<text text-anchor="middle" x="177.5" y="-45.5" font-family="Helvetica,sans-Serif" font-size="10.00">CustomUI.Lab.LabSceneLineUI</text>
<polyline fill="none" stroke="black" points="101.5,-38.5 253.5,-38.5 "/>
<text text-anchor="start" x="109.5" y="-26.5" font-family="Helvetica,sans-Serif" font-size="10.00">+ string name</text>
<polyline fill="none" stroke="black" points="101.5,-19.5 253.5,-19.5 "/>
<text text-anchor="start" x="109.5" y="-7.5" font-family="Helvetica,sans-Serif" font-size="10.00">+ void OnClick()</text>
</a>
</g>
</g>
<!-- Node1&#45;&gt;Node3 -->
<g id="edge6" class="edge">
<title>Node1&#45;&gt;Node3</title>
<path fill="none" stroke="#404040" d="M23.63,-105.24C18.04,-95.52 16.54,-85.34 23.5,-76 39.19,-54.94 64.15,-43.15 89.45,-36.66"/>
<polygon fill="none" stroke="#404040" points="89.75,-36.59 94.72,-31.37 101.45,-33.96 96.48,-39.18 89.75,-36.59"/>
<text text-anchor="middle" x="61" y="-79" font-family="Helvetica,sans-Serif" font-size="10.00"> +labSceneListUI</text>
</g>
<!-- Node2 -->
<g id="node2" class="node">
<title>Node2</title>
<g id="a_node2"><a xlink:title=" ">
<polygon fill="white" stroke="#bfbfbf" points="80,-254.5 80,-311.5 163,-311.5 163,-254.5 80,-254.5"/>
<text text-anchor="middle" x="121.5" y="-299.5" font-family="Helvetica,sans-Serif" font-size="10.00">MonoBehaviour</text>
<polyline fill="none" stroke="#bfbfbf" points="80,-292.5 163,-292.5 "/>
<text text-anchor="middle" x="121.5" y="-280.5" font-family="Helvetica,sans-Serif" font-size="10.00"> </text>
<polyline fill="none" stroke="#bfbfbf" points="80,-273.5 163,-273.5 "/>
<text text-anchor="middle" x="121.5" y="-261.5" font-family="Helvetica,sans-Serif" font-size="10.00"> </text>
</a>
</g>
</g>
<!-- Node2&#45;&gt;Node1 -->
<g id="edge1" class="edge">
<title>Node2&#45;&gt;Node1</title>
<path fill="none" stroke="midnightblue" d="M108.06,-244.67C102.54,-229.36 96.11,-211.52 90.37,-195.57"/>
<polygon fill="none" stroke="midnightblue" points="104.85,-246.1 111.53,-254.32 111.44,-243.73 104.85,-246.1"/>
</g>
<!-- Node2&#45;&gt;Node3 -->
<g id="edge3" class="edge">
<title>Node2&#45;&gt;Node3</title>
<path fill="none" stroke="midnightblue" d="M140.19,-245.1C146.99,-230.2 154.08,-212.62 158.5,-196 171.15,-148.49 175.38,-91.12 176.79,-57.78"/>
<polygon fill="none" stroke="midnightblue" points="136.88,-243.92 135.8,-254.46 143.22,-246.89 136.88,-243.92"/>
</g>
<!-- Node3&#45;&gt;Node1 -->
<g id="edge2" class="edge">
<title>Node3&#45;&gt;Node1</title>
<path fill="none" stroke="#404040" d="M131.35,-57.68C124.19,-63.19 117.26,-69.35 111.5,-76 106.59,-81.67 102.13,-88.1 98.16,-94.75"/>
<polygon fill="none" stroke="#404040" points="98.13,-94.8 98.71,-101.99 92.3,-105.29 91.72,-98.1 98.13,-94.8"/>
<text text-anchor="middle" x="137.5" y="-79" font-family="Helvetica,sans-Serif" font-size="10.00"> +linePrefab</text>
</g>
<!-- Node4 -->
<g id="node4" class="node">
<title>Node4</title>
<g id="a_node4"><a xlink:href="class_xml_saver_1_1_scene_base_struct.html" target="_top" xlink:title=" ">
<polygon fill="white" stroke="black" points="205.5,-105.5 205.5,-195.5 345.5,-195.5 345.5,-105.5 205.5,-105.5"/>
<text text-anchor="start" x="213.5" y="-183.5" font-family="Helvetica,sans-Serif" font-size="10.00">XmlSaver.SceneBaseStruct</text>
<text text-anchor="middle" x="275.5" y="-172.5" font-family="Helvetica,sans-Serif" font-size="10.00">&lt; AstralBody &gt;</text>
<polyline fill="none" stroke="black" points="205.5,-165.5 345.5,-165.5 "/>
<text text-anchor="start" x="213.5" y="-153.5" font-family="Helvetica,sans-Serif" font-size="10.00">+ string sceneName</text>
<text text-anchor="start" x="213.5" y="-142.5" font-family="Helvetica,sans-Serif" font-size="10.00">+ List&lt; AstralBodyDataDict</text>
<text text-anchor="start" x="213.5" y="-131.5" font-family="Helvetica,sans-Serif" font-size="10.00">&lt; T &gt; &gt; astralBodyStructList</text>
<polyline fill="none" stroke="black" points="205.5,-124.5 345.5,-124.5 "/>
<text text-anchor="middle" x="275.5" y="-112.5" font-family="Helvetica,sans-Serif" font-size="10.00"> </text>
</a>
</g>
</g>
<!-- Node4&#45;&gt;Node3 -->
<g id="edge4" class="edge">
<title>Node4&#45;&gt;Node3</title>
<path fill="none" stroke="#404040" d="M239.29,-105.34C228.96,-92.75 217.82,-79.17 207.88,-67.05"/>
<polygon fill="none" stroke="#404040" points="207.82,-66.97 200.92,-64.86 200.21,-57.69 207.1,-59.79 207.82,-66.97"/>
<text text-anchor="middle" x="254.5" y="-79" font-family="Helvetica,sans-Serif" font-size="10.00"> +sceneStruct</text>
</g>
<!-- Node5 -->
<g id="node5" class="node">
<title>Node5</title>
<g id="a_node5"><a xlink:href="class_xml_saver_1_1_scene_base_struct.html" target="_top" xlink:title="场景信息存储">
<polygon fill="white" stroke="black" points="196,-243.5 196,-322.5 355,-322.5 355,-243.5 196,-243.5"/>
<text text-anchor="middle" x="275.5" y="-310.5" font-family="Helvetica,sans-Serif" font-size="10.00">XmlSaver.SceneBaseStruct&lt; T &gt;</text>
<polyline fill="none" stroke="black" points="196,-303.5 355,-303.5 "/>
<text text-anchor="start" x="204" y="-291.5" font-family="Helvetica,sans-Serif" font-size="10.00">+ string sceneName</text>
<text text-anchor="start" x="204" y="-280.5" font-family="Helvetica,sans-Serif" font-size="10.00">+ List&lt; AstralBodyDataDict</text>
<text text-anchor="start" x="204" y="-269.5" font-family="Helvetica,sans-Serif" font-size="10.00">&lt; T &gt; &gt; astralBodyStructList</text>
<polyline fill="none" stroke="black" points="196,-262.5 355,-262.5 "/>
<text text-anchor="middle" x="275.5" y="-250.5" font-family="Helvetica,sans-Serif" font-size="10.00"> </text>
</a>
</g>
</g>
<!-- Node5&#45;&gt;Node4 -->
<g id="edge5" class="edge">
<title>Node5&#45;&gt;Node4</title>
<path fill="none" stroke="orange" d="M275.5,-233.16C275.5,-220.93 275.5,-207.88 275.5,-195.88"/>
<polygon fill="orange" stroke="orange" points="272,-233.2 275.5,-243.2 279,-233.2 272,-233.2"/>
<text text-anchor="middle" x="310.5" y="-217" font-family="Helvetica,sans-Serif" font-size="10.00"> &lt; AstralBody &gt;</text>
</g>
<!-- Node6 -->
<g id="node6" class="node">
<title>Node6</title>
<g id="a_node6"><a xlink:title=" ">
<polygon fill="white" stroke="#bfbfbf" points="364,-122 364,-179 399,-179 399,-122 364,-122"/>
<text text-anchor="middle" x="381.5" y="-167" font-family="Helvetica,sans-Serif" font-size="10.00">Text</text>
<polyline fill="none" stroke="#bfbfbf" points="364,-160 399,-160 "/>
<text text-anchor="middle" x="381.5" y="-148" font-family="Helvetica,sans-Serif" font-size="10.00"> </text>
<polyline fill="none" stroke="#bfbfbf" points="364,-141 399,-141 "/>
<text text-anchor="middle" x="381.5" y="-129" font-family="Helvetica,sans-Serif" font-size="10.00"> </text>
</a>
</g>
</g>
<!-- Node6&#45;&gt;Node3 -->
<g id="edge7" class="edge">
<title>Node6&#45;&gt;Node3</title>
<path fill="none" stroke="#404040" d="M368.16,-121.64C364.36,-115.61 359.79,-109.66 354.5,-105 329.08,-82.59 295.99,-66.16 265.3,-54.49"/>
<polygon fill="none" stroke="#404040" points="264.95,-54.36 257.94,-56.06 253.68,-50.25 260.68,-48.55 264.95,-54.36"/>
<text text-anchor="middle" x="360" y="-79" font-family="Helvetica,sans-Serif" font-size="10.00"> +sceneName</text>
</g>
</g>
</svg>
