<?xml version="1.0" encoding="UTF-8" standalone="no"?>
<!DOCTYPE svg PUBLIC "-//W3C//DTD SVG 1.1//EN"
 "http://www.w3.org/Graphics/SVG/1.1/DTD/svg11.dtd">
<!-- Generated by graphviz version 2.47.1 (20210417.1919)
 -->
<!-- Title: TTS.VoiceGenerator.GetAudioAsync Pages: 1 -->
<svg width="350pt" height="116pt"
 viewBox="0.00 0.00 350.00 115.50" xmlns="http://www.w3.org/2000/svg" xmlns:xlink="http://www.w3.org/1999/xlink">
<g id="graph0" class="graph" transform="scale(1 1) rotate(0) translate(4 111.5)">
<title>TTS.VoiceGenerator.GetAudioAsync</title>
<polygon fill="white" stroke="transparent" points="-4,4 -4,-111.5 346,-111.5 346,4 -4,4"/>
<!-- Node1 -->
<g id="node1" class="node">
<title>Node1</title>
<g id="a_node1"><a xlink:title=" ">
<polygon fill="#bfbfbf" stroke="black" points="0,-33 0,-63 148,-63 148,-33 0,-33"/>
<text text-anchor="start" x="8" y="-51" font-family="Helvetica,sans-Serif" font-size="10.00">TTS.VoiceGenerator.GetAudio</text>
<text text-anchor="middle" x="74" y="-40" font-family="Helvetica,sans-Serif" font-size="10.00">Async</text>
</a>
</g>
</g>
<!-- Node2 -->
<g id="node2" class="node">
<title>Node2</title>
<g id="a_node2"><a xlink:href="class_t_t_s_1_1_voice_generator.html#a5115e727e80297900deb37320de59777" target="_top" xlink:title="UnityWebRequest 加载音频播放">
<polygon fill="white" stroke="black" points="190.5,-77 190.5,-107 335.5,-107 335.5,-77 190.5,-77"/>
<text text-anchor="start" x="198.5" y="-95" font-family="Helvetica,sans-Serif" font-size="10.00">TTS.VoiceGenerator.OnAudio</text>
<text text-anchor="middle" x="263" y="-84" font-family="Helvetica,sans-Serif" font-size="10.00">LoadAndPaly</text>
</a>
</g>
</g>
<!-- Node1&#45;&gt;Node2 -->
<g id="edge1" class="edge">
<title>Node1&#45;&gt;Node2</title>
<path fill="none" stroke="midnightblue" d="M138.83,-63.02C154.69,-66.75 171.82,-70.78 188.12,-74.62"/>
<polygon fill="midnightblue" stroke="midnightblue" points="187.6,-78.09 198.14,-76.97 189.21,-71.28 187.6,-78.09"/>
</g>
<!-- Node3 -->
<g id="node3" class="node">
<title>Node3</title>
<g id="a_node3"><a xlink:href="classmsc_1_1_m_s_c_d_l_l.html#ad8c7281a280e43c222964b1b2116800e" target="_top" xlink:title=" ">
<polygon fill="white" stroke="black" points="190,-38.5 190,-57.5 336,-57.5 336,-38.5 190,-38.5"/>
<text text-anchor="middle" x="263" y="-45.5" font-family="Helvetica,sans-Serif" font-size="10.00">msc.MSCDLL.QTTSAudioGet</text>
</a>
</g>
</g>
<!-- Node1&#45;&gt;Node3 -->
<g id="edge2" class="edge">
<title>Node1&#45;&gt;Node3</title>
<path fill="none" stroke="midnightblue" d="M148.1,-48C158.5,-48 169.26,-48 179.82,-48"/>
<polygon fill="midnightblue" stroke="midnightblue" points="179.87,-51.5 189.87,-48 179.87,-44.5 179.87,-51.5"/>
</g>
<!-- Node4 -->
<g id="node4" class="node">
<title>Node4</title>
<g id="a_node4"><a xlink:href="classmsc_1_1_m_s_c_d_l_l.html#a9aa03b08e5fc36c3d827355177dcc471" target="_top" xlink:title=" ">
<polygon fill="white" stroke="black" points="184,-0.5 184,-19.5 342,-19.5 342,-0.5 184,-0.5"/>
<text text-anchor="middle" x="263" y="-7.5" font-family="Helvetica,sans-Serif" font-size="10.00">msc.MSCDLL.QTTSSessionEnd</text>
</a>
</g>
</g>
<!-- Node1&#45;&gt;Node4 -->
<g id="edge3" class="edge">
<title>Node1&#45;&gt;Node4</title>
<path fill="none" stroke="midnightblue" d="M148.1,-33.14C167.03,-29.3 187.13,-25.21 205.09,-21.56"/>
<polygon fill="midnightblue" stroke="midnightblue" points="206.01,-24.95 215.11,-19.53 204.61,-18.09 206.01,-24.95"/>
</g>
</g>
</svg>
