<?xml version="1.0" encoding="UTF-8" standalone="no"?>
<!DOCTYPE svg PUBLIC "-//W3C//DTD SVG 1.1//EN"
 "http://www.w3.org/Graphics/SVG/1.1/DTD/svg11.dtd">
<!-- Generated by graphviz version 2.47.1 (20210417.1919)
 -->
<!-- Title: GameManagers.GameManager.GetK Pages: 1 -->
<svg width="780pt" height="137pt"
 viewBox="0.00 0.00 780.00 137.00" xmlns="http://www.w3.org/2000/svg" xmlns:xlink="http://www.w3.org/1999/xlink">
<g id="graph0" class="graph" transform="scale(1 1) rotate(0) translate(4 133)">
<title>GameManagers.GameManager.GetK</title>
<polygon fill="white" stroke="transparent" points="-4,4 -4,-133 776,-133 776,4 -4,4"/>
<!-- Node1 -->
<g id="node1" class="node">
<title>Node1</title>
<g id="a_node1"><a xlink:title="获取缩放系数">
<polygon fill="#bfbfbf" stroke="black" points="594,-55 594,-74 772,-74 772,-55 594,-55"/>
<text text-anchor="middle" x="683" y="-62" font-family="Helvetica,sans-Serif" font-size="10.00">GameManagers.GameManager.GetK</text>
</a>
</g>
</g>
<!-- Node2 -->
<g id="node2" class="node">
<title>Node2</title>
<g id="a_node2"><a xlink:href="class_space_physic_1_1_astral_body.html#a13a5ee93bb01019b6b62111ce696f9b2" target="_top" xlink:title="保持当前速度方向调整速度">
<polygon fill="white" stroke="black" points="397,-98.5 397,-128.5 558,-128.5 558,-98.5 397,-98.5"/>
<text text-anchor="start" x="405" y="-116.5" font-family="Helvetica,sans-Serif" font-size="10.00">SpacePhysic.AstralBody.Change</text>
<text text-anchor="middle" x="477.5" y="-105.5" font-family="Helvetica,sans-Serif" font-size="10.00">Velocity</text>
</a>
</g>
</g>
<!-- Node1&#45;&gt;Node2 -->
<g id="edge1" class="edge">
<title>Node1&#45;&gt;Node2</title>
<path fill="none" stroke="midnightblue" d="M632.47,-76.43C604.91,-83.06 570.34,-91.39 540.95,-98.46"/>
<polygon fill="midnightblue" stroke="midnightblue" points="633.38,-79.81 642.28,-74.06 631.74,-73 633.38,-79.81"/>
</g>
<!-- Node3 -->
<g id="node3" class="node">
<title>Node3</title>
<g id="a_node3"><a xlink:href="class_quiz_1_1_quiz_astral_body.html#a4aa95a8b5358b10d4b3d7220469f6c50" target="_top" xlink:title="获取星球条件文本">
<polygon fill="white" stroke="black" points="404,-49.5 404,-79.5 551,-79.5 551,-49.5 404,-49.5"/>
<text text-anchor="start" x="412" y="-67.5" font-family="Helvetica,sans-Serif" font-size="10.00">Quiz.QuizAstralBody.GetQuiz</text>
<text text-anchor="middle" x="477.5" y="-56.5" font-family="Helvetica,sans-Serif" font-size="10.00">ConditionString</text>
</a>
</g>
</g>
<!-- Node1&#45;&gt;Node3 -->
<g id="edge2" class="edge">
<title>Node1&#45;&gt;Node3</title>
<path fill="none" stroke="midnightblue" d="M583.83,-64.5C572.81,-64.5 561.74,-64.5 551.12,-64.5"/>
<polygon fill="midnightblue" stroke="midnightblue" points="583.93,-68 593.93,-64.5 583.93,-61 583.93,-68"/>
</g>
<!-- Node6 -->
<g id="node6" class="node">
<title>Node6</title>
<g id="a_node6"><a xlink:href="class_custom_u_i_1_1_quiz_1_1_quiz_u_i.html#a26457b4f98b1ffa60a28345a9b8898a5" target="_top" xlink:title=" ">
<polygon fill="white" stroke="black" points="400,-0.5 400,-30.5 555,-30.5 555,-0.5 400,-0.5"/>
<text text-anchor="start" x="408" y="-18.5" font-family="Helvetica,sans-Serif" font-size="10.00">CustomUI.Quiz.QuizUI.OnValue</text>
<text text-anchor="middle" x="477.5" y="-7.5" font-family="Helvetica,sans-Serif" font-size="10.00">Change</text>
</a>
</g>
</g>
<!-- Node1&#45;&gt;Node6 -->
<g id="edge5" class="edge">
<title>Node1&#45;&gt;Node6</title>
<path fill="none" stroke="midnightblue" d="M632.47,-52.57C604.91,-45.94 570.34,-37.61 540.95,-30.54"/>
<polygon fill="midnightblue" stroke="midnightblue" points="631.74,-56 642.28,-54.94 633.38,-49.19 631.74,-56"/>
</g>
<!-- Node4 -->
<g id="node4" class="node">
<title>Node4</title>
<g id="a_node4"><a xlink:href="class_quiz_1_1_quiz_solver.html#afc4ef823ad1220a4aea4f7d2f5cf23dd" target="_top" xlink:title="获取问题">
<polygon fill="white" stroke="black" points="194,-55 194,-74 361,-74 361,-55 194,-55"/>
<text text-anchor="middle" x="277.5" y="-62" font-family="Helvetica,sans-Serif" font-size="10.00">Quiz.QuizSolver.GetQuizSentence</text>
</a>
</g>
</g>
<!-- Node3&#45;&gt;Node4 -->
<g id="edge3" class="edge">
<title>Node3&#45;&gt;Node4</title>
<path fill="none" stroke="midnightblue" d="M393.68,-64.5C382.92,-64.5 371.9,-64.5 361.14,-64.5"/>
<polygon fill="midnightblue" stroke="midnightblue" points="393.9,-68 403.9,-64.5 393.9,-61 393.9,-68"/>
</g>
<!-- Node5 -->
<g id="node5" class="node">
<title>Node5</title>
<g id="a_node5"><a xlink:href="class_custom_u_i_1_1_quiz_1_1_quiz_u_i.html#ac238c7b368d3c183e8e479fc77c48d08" target="_top" xlink:title=" ">
<polygon fill="white" stroke="black" points="0,-55 0,-74 158,-74 158,-55 0,-55"/>
<text text-anchor="middle" x="79" y="-62" font-family="Helvetica,sans-Serif" font-size="10.00">CustomUI.Quiz.QuizUI.Generate</text>
</a>
</g>
</g>
<!-- Node4&#45;&gt;Node5 -->
<g id="edge4" class="edge">
<title>Node4&#45;&gt;Node5</title>
<path fill="none" stroke="midnightblue" d="M183.49,-64.5C175.05,-64.5 166.57,-64.5 158.28,-64.5"/>
<polygon fill="midnightblue" stroke="midnightblue" points="183.74,-68 193.74,-64.5 183.74,-61 183.74,-68"/>
</g>
</g>
</svg>
