<?xml version="1.0" encoding="UTF-8" standalone="no"?>
<!DOCTYPE svg PUBLIC "-//W3C//DTD SVG 1.1//EN"
 "http://www.w3.org/Graphics/SVG/1.1/DTD/svg11.dtd">
<!-- Generated by graphviz version 2.47.1 (20210417.1919)
 -->
<!-- Title: Quiz.QuizBase.Start Pages: 1 -->
<svg width="659pt" height="198pt"
 viewBox="0.00 0.00 659.00 197.50" xmlns="http://www.w3.org/2000/svg" xmlns:xlink="http://www.w3.org/1999/xlink">
<g id="graph0" class="graph" transform="scale(1 1) rotate(0) translate(4 193.5)">
<title>Quiz.QuizBase.Start</title>
<polygon fill="white" stroke="transparent" points="-4,4 -4,-193.5 655,-193.5 655,4 -4,4"/>
<!-- Node1 -->
<g id="node1" class="node">
<title>Node1</title>
<g id="a_node1"><a xlink:title="是否加载完成">
<polygon fill="#bfbfbf" stroke="black" points="0,-90.5 0,-109.5 107,-109.5 107,-90.5 0,-90.5"/>
<text text-anchor="middle" x="53.5" y="-97.5" font-family="Helvetica,sans-Serif" font-size="10.00">Quiz.QuizBase.Start</text>
</a>
</g>
</g>
<!-- Node2 -->
<g id="node2" class="node">
<title>Node2</title>
<g id="a_node2"><a xlink:href="class_game_managers_1_1_game_manager.html#ab809f66044771ece537c01978381610f" target="_top" xlink:title="计算质量缩放">
<polygon fill="white" stroke="black" points="143,-159 143,-189 298,-189 298,-159 143,-159"/>
<text text-anchor="start" x="151" y="-177" font-family="Helvetica,sans-Serif" font-size="10.00">GameManagers.GameManager.</text>
<text text-anchor="middle" x="220.5" y="-166" font-family="Helvetica,sans-Serif" font-size="10.00">CalculateMassScales</text>
</a>
</g>
</g>
<!-- Node1&#45;&gt;Node2 -->
<g id="edge1" class="edge">
<title>Node1&#45;&gt;Node2</title>
<path fill="none" stroke="midnightblue" d="M69.35,-109.68C86.54,-120.57 115.96,-138.28 143,-150 147.4,-151.91 152,-153.74 156.66,-155.47"/>
<polygon fill="midnightblue" stroke="midnightblue" points="155.7,-158.84 166.29,-158.9 158.05,-152.25 155.7,-158.84"/>
</g>
<!-- Node3 -->
<g id="node3" class="node">
<title>Node3</title>
<g id="a_node3"><a xlink:href="class_quiz_1_1_quiz_base.html#a844c34a243886e8781983ee0f1175a5e" target="_top" xlink:title=" ">
<polygon fill="white" stroke="black" points="145,-110 145,-140 296,-140 296,-110 145,-110"/>
<text text-anchor="start" x="153" y="-128" font-family="Helvetica,sans-Serif" font-size="10.00">Quiz.QuizBase.GenerateAstral</text>
<text text-anchor="middle" x="220.5" y="-117" font-family="Helvetica,sans-Serif" font-size="10.00">BodiesWithoutPrefab</text>
</a>
</g>
</g>
<!-- Node1&#45;&gt;Node3 -->
<g id="edge2" class="edge">
<title>Node1&#45;&gt;Node3</title>
<path fill="none" stroke="midnightblue" d="M107.16,-107.98C115.96,-109.31 125.28,-110.72 134.64,-112.14"/>
<polygon fill="midnightblue" stroke="midnightblue" points="134.37,-115.64 144.79,-113.68 135.42,-108.72 134.37,-115.64"/>
</g>
<!-- Node5 -->
<g id="node5" class="node">
<title>Node5</title>
<g id="a_node5"><a xlink:href="class_quiz_1_1_quiz_base.html#a3e740a3e02b0fb33f66f30ca27d3becc" target="_top" xlink:title=" ">
<polygon fill="white" stroke="black" points="145,-61 145,-91 296,-91 296,-61 145,-61"/>
<text text-anchor="start" x="153" y="-79" font-family="Helvetica,sans-Serif" font-size="10.00">Quiz.QuizBase.GenerateAstral</text>
<text text-anchor="middle" x="220.5" y="-68" font-family="Helvetica,sans-Serif" font-size="10.00">BodiesWithPrefab</text>
</a>
</g>
</g>
<!-- Node1&#45;&gt;Node5 -->
<g id="edge4" class="edge">
<title>Node1&#45;&gt;Node5</title>
<path fill="none" stroke="midnightblue" d="M107.16,-92.34C115.96,-91.06 125.28,-89.71 134.64,-88.34"/>
<polygon fill="midnightblue" stroke="midnightblue" points="135.39,-91.77 144.79,-86.87 134.39,-84.84 135.39,-91.77"/>
</g>
<!-- Node6 -->
<g id="node6" class="node">
<title>Node6</title>
<g id="a_node6"><a xlink:href="class_quiz_1_1_quiz_base.html#a89bc488d570a05d7dea68aae8b9f7541" target="_top" xlink:title=" ">
<polygon fill="white" stroke="black" points="153.5,-22.5 153.5,-41.5 287.5,-41.5 287.5,-22.5 153.5,-22.5"/>
<text text-anchor="middle" x="220.5" y="-29.5" font-family="Helvetica,sans-Serif" font-size="10.00">Quiz.QuizBase.LoadScene</text>
</a>
</g>
</g>
<!-- Node1&#45;&gt;Node6 -->
<g id="edge5" class="edge">
<title>Node1&#45;&gt;Node6</title>
<path fill="none" stroke="midnightblue" d="M68.95,-90.44C86.01,-79.52 115.54,-61.79 143,-51 149.33,-48.51 156.09,-46.27 162.87,-44.28"/>
<polygon fill="midnightblue" stroke="midnightblue" points="164.07,-47.58 172.77,-41.54 162.2,-40.83 164.07,-47.58"/>
</g>
<!-- Node4 -->
<g id="node4" class="node">
<title>Node4</title>
<g id="a_node4"><a xlink:href="class_quiz_1_1_quiz_astral_body.html#af25864e2c8217ca7ceb12af2d6221a5a" target="_top" xlink:title=" ">
<polygon fill="white" stroke="black" points="334,-110 334,-140 476,-140 476,-110 334,-110"/>
<text text-anchor="start" x="342" y="-128" font-family="Helvetica,sans-Serif" font-size="10.00">Quiz.QuizAstralBody.Update</text>
<text text-anchor="middle" x="405" y="-117" font-family="Helvetica,sans-Serif" font-size="10.00">QuizAstralBodyPer</text>
</a>
</g>
</g>
<!-- Node3&#45;&gt;Node4 -->
<g id="edge3" class="edge">
<title>Node3&#45;&gt;Node4</title>
<path fill="none" stroke="midnightblue" d="M296.26,-125C305.27,-125 314.5,-125 323.59,-125"/>
<polygon fill="midnightblue" stroke="midnightblue" points="323.77,-128.5 333.77,-125 323.77,-121.5 323.77,-128.5"/>
</g>
<!-- Node7 -->
<g id="node7" class="node">
<title>Node7</title>
<g id="a_node7"><a xlink:href="class_quiz_1_1_quiz_saver.html#a84ca11181f95abe30a8659dc75587dc6" target="_top" xlink:title="将XML转为问题">
<polygon fill="white" stroke="black" points="335,-39 335,-69 475,-69 475,-39 335,-39"/>
<text text-anchor="start" x="343" y="-57" font-family="Helvetica,sans-Serif" font-size="10.00">Quiz.QuizSaver.ConvertXml2</text>
<text text-anchor="middle" x="405" y="-46" font-family="Helvetica,sans-Serif" font-size="10.00">SceneBase</text>
</a>
</g>
</g>
<!-- Node6&#45;&gt;Node7 -->
<g id="edge6" class="edge">
<title>Node6&#45;&gt;Node7</title>
<path fill="none" stroke="midnightblue" d="M287.64,-39.97C299.6,-41.41 312.18,-42.93 324.47,-44.41"/>
<polygon fill="midnightblue" stroke="midnightblue" points="324.35,-47.92 334.7,-45.65 325.19,-40.97 324.35,-47.92"/>
</g>
<!-- Node8 -->
<g id="node8" class="node">
<title>Node8</title>
<g id="a_node8"><a xlink:href="class_quiz_1_1_quiz_saver.html#aef41fcd137b407a0a895105e32eba5fe" target="_top" xlink:title="读取XML文件">
<polygon fill="white" stroke="black" points="343,-0.5 343,-19.5 467,-19.5 467,-0.5 343,-0.5"/>
<text text-anchor="middle" x="405" y="-7.5" font-family="Helvetica,sans-Serif" font-size="10.00">Quiz.QuizSaver.LoadXml</text>
</a>
</g>
</g>
<!-- Node6&#45;&gt;Node8 -->
<g id="edge7" class="edge">
<title>Node6&#45;&gt;Node8</title>
<path fill="none" stroke="midnightblue" d="M287.64,-24.03C302.31,-22.26 317.92,-20.38 332.79,-18.58"/>
<polygon fill="midnightblue" stroke="midnightblue" points="333.43,-22.03 342.94,-17.36 332.59,-15.08 333.43,-22.03"/>
</g>
<!-- Node9 -->
<g id="node9" class="node">
<title>Node9</title>
<g id="a_node9"><a xlink:href="class_xml_saver_1_1_xml_saver.html#a054551363204272b7f5434a132e5835c" target="_top" xlink:title="加载XML">
<polygon fill="white" stroke="black" points="512,-0.5 512,-19.5 651,-19.5 651,-0.5 512,-0.5"/>
<text text-anchor="middle" x="581.5" y="-7.5" font-family="Helvetica,sans-Serif" font-size="10.00">XmlSaver.XmlSaver.LoadXml</text>
</a>
</g>
</g>
<!-- Node8&#45;&gt;Node9 -->
<g id="edge8" class="edge">
<title>Node8&#45;&gt;Node9</title>
<path fill="none" stroke="midnightblue" d="M467.03,-10C478.21,-10 490.01,-10 501.62,-10"/>
<polygon fill="midnightblue" stroke="midnightblue" points="501.75,-13.5 511.75,-10 501.75,-6.5 501.75,-13.5"/>
</g>
</g>
</svg>
