<?xml version="1.0" encoding="UTF-8" standalone="no"?>
<!DOCTYPE svg PUBLIC "-//W3C//DTD SVG 1.1//EN"
 "http://www.w3.org/Graphics/SVG/1.1/DTD/svg11.dtd">
<!-- Generated by graphviz version 2.47.1 (20210417.1919)
 -->
<!-- Title: Satellite.SatellitePart Pages: 1 -->
<svg width="295pt" height="1179pt"
 viewBox="0.00 0.00 295.00 1179.00" xmlns="http://www.w3.org/2000/svg" xmlns:xlink="http://www.w3.org/1999/xlink">
<g id="graph0" class="graph" transform="scale(1 1) rotate(0) translate(4 1175)">
<title>Satellite.SatellitePart</title>
<polygon fill="white" stroke="transparent" points="-4,4 -4,-1175 291,-1175 291,4 -4,4"/>
<!-- Node1 -->
<g id="node1" class="node">
<title>Node1</title>
<g id="a_node1"><a xlink:title="卫星部件">
<polygon fill="#bfbfbf" stroke="black" points="73.5,-221.5 73.5,-399.5 200.5,-399.5 200.5,-221.5 73.5,-221.5"/>
<text text-anchor="middle" x="137" y="-387.5" font-family="Helvetica,sans-Serif" font-size="10.00">Satellite.SatellitePart</text>
<polyline fill="none" stroke="black" points="73.5,-380.5 200.5,-380.5 "/>
<text text-anchor="start" x="81.5" y="-368.5" font-family="Helvetica,sans-Serif" font-size="10.00">+ List&lt; SatellitePart</text>
<text text-anchor="start" x="81.5" y="-357.5" font-family="Helvetica,sans-Serif" font-size="10.00"> &gt; connectedPartList</text>
<text text-anchor="start" x="81.5" y="-346.5" font-family="Helvetica,sans-Serif" font-size="10.00">+ string satelliteName</text>
<text text-anchor="start" x="81.5" y="-335.5" font-family="Helvetica,sans-Serif" font-size="10.00">+ SatelliteType PartType</text>
<polyline fill="none" stroke="black" points="73.5,-328.5 200.5,-328.5 "/>
<text text-anchor="start" x="81.5" y="-316.5" font-family="Helvetica,sans-Serif" font-size="10.00">+ void Push(Vector3 dir)</text>
<text text-anchor="start" x="81.5" y="-305.5" font-family="Helvetica,sans-Serif" font-size="10.00">+ void Rotate(Vector3 dir)</text>
<text text-anchor="start" x="81.5" y="-294.5" font-family="Helvetica,sans-Serif" font-size="10.00">+ void GenerateJoint()</text>
<text text-anchor="start" x="81.5" y="-283.5" font-family="Helvetica,sans-Serif" font-size="10.00">+ void GetPartName()</text>
<text text-anchor="start" x="81.5" y="-272.5" font-family="Helvetica,sans-Serif" font-size="10.00">+ void Separate(string</text>
<text text-anchor="start" x="81.5" y="-261.5" font-family="Helvetica,sans-Serif" font-size="10.00"> partName)</text>
<text text-anchor="start" x="81.5" y="-250.5" font-family="Helvetica,sans-Serif" font-size="10.00">+ void Separate(bool</text>
<text text-anchor="start" x="81.5" y="-239.5" font-family="Helvetica,sans-Serif" font-size="10.00"> separateAll)</text>
<text text-anchor="start" x="81.5" y="-228.5" font-family="Helvetica,sans-Serif" font-size="10.00"># override void SetMass()</text>
</a>
</g>
</g>
<!-- Node5 -->
<g id="node5" class="node">
<title>Node5</title>
<g id="a_node5"><a xlink:href="class_satellite_1_1_satellite_engine.html" target="_top" xlink:title="卫星引擎">
<polygon fill="white" stroke="black" points="3,-105.5 3,-184.5 125,-184.5 125,-105.5 3,-105.5"/>
<text text-anchor="middle" x="64" y="-172.5" font-family="Helvetica,sans-Serif" font-size="10.00">Satellite.SatelliteEngine</text>
<polyline fill="none" stroke="black" points="3,-165.5 125,-165.5 "/>
<text text-anchor="start" x="11" y="-153.5" font-family="Helvetica,sans-Serif" font-size="10.00">+ int engineStage</text>
<polyline fill="none" stroke="black" points="3,-146.5 125,-146.5 "/>
<text text-anchor="start" x="11" y="-134.5" font-family="Helvetica,sans-Serif" font-size="10.00">+ void SetCurDirVelocity</text>
<text text-anchor="start" x="11" y="-123.5" font-family="Helvetica,sans-Serif" font-size="10.00">(float speed)</text>
<text text-anchor="start" x="11" y="-112.5" font-family="Helvetica,sans-Serif" font-size="10.00"># void Awake()</text>
</a>
</g>
</g>
<!-- Node1&#45;&gt;Node5 -->
<g id="edge4" class="edge">
<title>Node1&#45;&gt;Node5</title>
<path fill="none" stroke="midnightblue" d="M93.38,-211.81C89.12,-202.26 84.99,-193 81.23,-184.6"/>
<polygon fill="none" stroke="midnightblue" points="90.24,-213.35 97.51,-221.05 96.63,-210.49 90.24,-213.35"/>
</g>
<!-- Node7 -->
<g id="node7" class="node">
<title>Node7</title>
<g id="a_node7"><a xlink:href="class_satellite_1_1_satellite_parachute.html" target="_top" xlink:title="卫星降落伞">
<polygon fill="white" stroke="black" points="143,-116.5 143,-173.5 277,-173.5 277,-116.5 143,-116.5"/>
<text text-anchor="middle" x="210" y="-161.5" font-family="Helvetica,sans-Serif" font-size="10.00">Satellite.SatelliteParachute</text>
<polyline fill="none" stroke="black" points="143,-154.5 277,-154.5 "/>
<text text-anchor="middle" x="210" y="-142.5" font-family="Helvetica,sans-Serif" font-size="10.00"> </text>
<polyline fill="none" stroke="black" points="143,-135.5 277,-135.5 "/>
<text text-anchor="start" x="151" y="-123.5" font-family="Helvetica,sans-Serif" font-size="10.00"># void Awake()</text>
</a>
</g>
</g>
<!-- Node1&#45;&gt;Node7 -->
<g id="edge6" class="edge">
<title>Node1&#45;&gt;Node7</title>
<path fill="none" stroke="midnightblue" d="M180.6,-211.86C186.79,-197.98 192.7,-184.74 197.58,-173.82"/>
<polygon fill="none" stroke="midnightblue" points="177.37,-210.49 176.49,-221.05 183.76,-213.35 177.37,-210.49"/>
</g>
<!-- Node2 -->
<g id="node2" class="node">
<title>Node2</title>
<g id="a_node2"><a xlink:href="class_space_physic_1_1_astral_body.html" target="_top" xlink:title="星体物理实体">
<polygon fill="white" stroke="black" points="56.5,-436.5 56.5,-977.5 217.5,-977.5 217.5,-436.5 56.5,-436.5"/>
<text text-anchor="middle" x="137" y="-965.5" font-family="Helvetica,sans-Serif" font-size="10.00">AstralBody</text>
<polyline fill="none" stroke="black" points="56.5,-958.5 217.5,-958.5 "/>
<text text-anchor="start" x="64.5" y="-946.5" font-family="Helvetica,sans-Serif" font-size="10.00">+ List&lt; AstralBody &gt;</text>
<text text-anchor="start" x="64.5" y="-935.5" font-family="Helvetica,sans-Serif" font-size="10.00"> affectedPlanets</text>
<text text-anchor="start" x="64.5" y="-924.5" font-family="Helvetica,sans-Serif" font-size="10.00">+ float affectRadius</text>
<text text-anchor="start" x="64.5" y="-913.5" font-family="Helvetica,sans-Serif" font-size="10.00">+ Vector3 angularVelocity</text>
<text text-anchor="start" x="64.5" y="-902.5" font-family="Helvetica,sans-Serif" font-size="10.00">+ List&lt; AstralBody &gt;</text>
<text text-anchor="start" x="64.5" y="-891.5" font-family="Helvetica,sans-Serif" font-size="10.00"> banAffectedPlanets</text>
<text text-anchor="start" x="64.5" y="-880.5" font-family="Helvetica,sans-Serif" font-size="10.00">+ SphereCollider defaultCollider</text>
<text text-anchor="start" x="64.5" y="-869.5" font-family="Helvetica,sans-Serif" font-size="10.00">+ bool enableAffect</text>
<text text-anchor="start" x="64.5" y="-858.5" font-family="Helvetica,sans-Serif" font-size="10.00">+ bool enableTracing</text>
<text text-anchor="start" x="64.5" y="-847.5" font-family="Helvetica,sans-Serif" font-size="10.00">+ Vector3 oriVelocity</text>
<text text-anchor="start" x="64.5" y="-836.5" font-family="Helvetica,sans-Serif" font-size="10.00">+ SphereCollider triggerCollider</text>
<text text-anchor="start" x="64.5" y="-825.5" font-family="Helvetica,sans-Serif" font-size="10.00">+ UnityEvent&lt; Vector3</text>
<text text-anchor="start" x="64.5" y="-814.5" font-family="Helvetica,sans-Serif" font-size="10.00"> &gt; velocityChangedEvent</text>
<text text-anchor="start" x="64.5" y="-803.5" font-family="Helvetica,sans-Serif" font-size="10.00">+ float? Mass</text>
<text text-anchor="start" x="64.5" y="-792.5" font-family="Helvetica,sans-Serif" font-size="10.00">+ Rigidbody astralBodyRigidbody</text>
<text text-anchor="start" x="64.5" y="-781.5" font-family="Helvetica,sans-Serif" font-size="10.00">+ Vector3 Force</text>
<text text-anchor="start" x="64.5" y="-770.5" font-family="Helvetica,sans-Serif" font-size="10.00">+ float gravity</text>
<text text-anchor="start" x="64.5" y="-759.5" font-family="Helvetica,sans-Serif" font-size="10.00">+ int meshNum</text>
<text text-anchor="start" x="64.5" y="-748.5" font-family="Helvetica,sans-Serif" font-size="10.00">+ float size</text>
<text text-anchor="start" x="64.5" y="-737.5" font-family="Helvetica,sans-Serif" font-size="10.00">+ double realMass</text>
<text text-anchor="start" x="64.5" y="-726.5" font-family="Helvetica,sans-Serif" font-size="10.00">+ double density</text>
<text text-anchor="start" x="64.5" y="-715.5" font-family="Helvetica,sans-Serif" font-size="10.00">+ Vector3 lastVelocity</text>
<text text-anchor="start" x="64.5" y="-704.5" font-family="Helvetica,sans-Serif" font-size="10.00">+ bool isLoadDone</text>
<polyline fill="none" stroke="black" points="56.5,-697.5 217.5,-697.5 "/>
<text text-anchor="start" x="64.5" y="-685.5" font-family="Helvetica,sans-Serif" font-size="10.00">+ virtual void OnCollision</text>
<text text-anchor="start" x="64.5" y="-674.5" font-family="Helvetica,sans-Serif" font-size="10.00">Enter(Collision other)</text>
<text text-anchor="start" x="64.5" y="-663.5" font-family="Helvetica,sans-Serif" font-size="10.00">+ Transform GetTransform()</text>
<text text-anchor="start" x="64.5" y="-652.5" font-family="Helvetica,sans-Serif" font-size="10.00">+ Vector3 GetPosition()</text>
<text text-anchor="start" x="64.5" y="-641.5" font-family="Helvetica,sans-Serif" font-size="10.00">+ GameObject GetGameObject()</text>
<text text-anchor="start" x="64.5" y="-630.5" font-family="Helvetica,sans-Serif" font-size="10.00">+ bool GetEnableTracing()</text>
<text text-anchor="start" x="64.5" y="-619.5" font-family="Helvetica,sans-Serif" font-size="10.00">+ virtual float GetMass()</text>
<text text-anchor="start" x="64.5" y="-608.5" font-family="Helvetica,sans-Serif" font-size="10.00">+ Rigidbody GetRigidbody()</text>
<text text-anchor="start" x="64.5" y="-597.5" font-family="Helvetica,sans-Serif" font-size="10.00">+ Vector3 GetVelocity()</text>
<text text-anchor="start" x="64.5" y="-586.5" font-family="Helvetica,sans-Serif" font-size="10.00">+ List&lt; AstralBody &gt;</text>
<text text-anchor="start" x="64.5" y="-575.5" font-family="Helvetica,sans-Serif" font-size="10.00"> GetAffectedPlanets()</text>
<text text-anchor="start" x="64.5" y="-564.5" font-family="Helvetica,sans-Serif" font-size="10.00">+ AstralBody GetAstralBody()</text>
<text text-anchor="start" x="64.5" y="-553.5" font-family="Helvetica,sans-Serif" font-size="10.00">+ void ChangeVelocity</text>
<text text-anchor="start" x="64.5" y="-542.5" font-family="Helvetica,sans-Serif" font-size="10.00">(Vector3 velocity)</text>
<text text-anchor="start" x="64.5" y="-531.5" font-family="Helvetica,sans-Serif" font-size="10.00">+ void ChangeVelocity</text>
<text text-anchor="start" x="64.5" y="-520.5" font-family="Helvetica,sans-Serif" font-size="10.00">(double realSpeed)</text>
<text text-anchor="start" x="64.5" y="-509.5" font-family="Helvetica,sans-Serif" font-size="10.00">+ Vector3 CalculateForce()</text>
<text text-anchor="start" x="64.5" y="-498.5" font-family="Helvetica,sans-Serif" font-size="10.00">+ void SetCircleVelocity()</text>
<text text-anchor="start" x="64.5" y="-487.5" font-family="Helvetica,sans-Serif" font-size="10.00">+ void SetCircleVelocityMenu()</text>
<text text-anchor="start" x="64.5" y="-476.5" font-family="Helvetica,sans-Serif" font-size="10.00"># virtual void Start()</text>
<text text-anchor="start" x="64.5" y="-465.5" font-family="Helvetica,sans-Serif" font-size="10.00"># void Generate()</text>
<text text-anchor="start" x="64.5" y="-454.5" font-family="Helvetica,sans-Serif" font-size="10.00"># virtual void FixedUpdate()</text>
<text text-anchor="start" x="64.5" y="-443.5" font-family="Helvetica,sans-Serif" font-size="10.00"># virtual void SetMass()</text>
</a>
</g>
</g>
<!-- Node2&#45;&gt;Node1 -->
<g id="edge1" class="edge">
<title>Node2&#45;&gt;Node1</title>
<path fill="none" stroke="midnightblue" d="M137,-426.28C137,-417.13 137,-408.26 137,-399.79"/>
<polygon fill="none" stroke="midnightblue" points="133.5,-426.32 137,-436.32 140.5,-426.32 133.5,-426.32"/>
</g>
<!-- Node3 -->
<g id="node3" class="node">
<title>Node3</title>
<g id="a_node3"><a xlink:title=" ">
<polygon fill="white" stroke="#bfbfbf" points="25.5,-1064 25.5,-1121 108.5,-1121 108.5,-1064 25.5,-1064"/>
<text text-anchor="middle" x="67" y="-1109" font-family="Helvetica,sans-Serif" font-size="10.00">MonoBehaviour</text>
<polyline fill="none" stroke="#bfbfbf" points="25.5,-1102 108.5,-1102 "/>
<text text-anchor="middle" x="67" y="-1090" font-family="Helvetica,sans-Serif" font-size="10.00"> </text>
<polyline fill="none" stroke="#bfbfbf" points="25.5,-1083 108.5,-1083 "/>
<text text-anchor="middle" x="67" y="-1071" font-family="Helvetica,sans-Serif" font-size="10.00"> </text>
</a>
</g>
</g>
<!-- Node3&#45;&gt;Node2 -->
<g id="edge2" class="edge">
<title>Node3&#45;&gt;Node2</title>
<path fill="none" stroke="midnightblue" d="M73.83,-1054.06C77.49,-1034.03 82.35,-1007.39 87.76,-977.76"/>
<polygon fill="none" stroke="midnightblue" points="70.39,-1053.45 72.03,-1063.92 77.27,-1054.71 70.39,-1053.45"/>
</g>
<!-- Node4 -->
<g id="node4" class="node">
<title>Node4</title>
<g id="a_node4"><a xlink:href="interface_space_physic_1_1_i_traceable.html" target="_top" xlink:title="可追踪接口">
<polygon fill="white" stroke="black" points="127,-1014.5 127,-1170.5 287,-1170.5 287,-1014.5 127,-1014.5"/>
<text text-anchor="middle" x="207" y="-1158.5" font-family="Helvetica,sans-Serif" font-size="10.00">ITraceable</text>
<polyline fill="none" stroke="black" points="127,-1151.5 287,-1151.5 "/>
<text text-anchor="middle" x="207" y="-1139.5" font-family="Helvetica,sans-Serif" font-size="10.00"> </text>
<polyline fill="none" stroke="black" points="127,-1132.5 287,-1132.5 "/>
<text text-anchor="start" x="135" y="-1120.5" font-family="Helvetica,sans-Serif" font-size="10.00">+ Transform GetTransform()</text>
<text text-anchor="start" x="135" y="-1109.5" font-family="Helvetica,sans-Serif" font-size="10.00">+ Vector3 GetPosition()</text>
<text text-anchor="start" x="135" y="-1098.5" font-family="Helvetica,sans-Serif" font-size="10.00">+ GameObject GetGameObject()</text>
<text text-anchor="start" x="135" y="-1087.5" font-family="Helvetica,sans-Serif" font-size="10.00">+ bool GetEnableTracing()</text>
<text text-anchor="start" x="135" y="-1076.5" font-family="Helvetica,sans-Serif" font-size="10.00">+ float GetMass()</text>
<text text-anchor="start" x="135" y="-1065.5" font-family="Helvetica,sans-Serif" font-size="10.00">+ Rigidbody GetRigidbody()</text>
<text text-anchor="start" x="135" y="-1054.5" font-family="Helvetica,sans-Serif" font-size="10.00">+ Vector3 GetVelocity()</text>
<text text-anchor="start" x="135" y="-1043.5" font-family="Helvetica,sans-Serif" font-size="10.00">+ List&lt; AstralBody &gt;</text>
<text text-anchor="start" x="135" y="-1032.5" font-family="Helvetica,sans-Serif" font-size="10.00"> GetAffectedPlanets()</text>
<text text-anchor="start" x="135" y="-1021.5" font-family="Helvetica,sans-Serif" font-size="10.00">+ AstralBody GetAstralBody()</text>
</a>
</g>
</g>
<!-- Node4&#45;&gt;Node2 -->
<g id="edge3" class="edge">
<title>Node4&#45;&gt;Node2</title>
<path fill="none" stroke="midnightblue" d="M191.11,-1004.47C189.55,-995.88 187.91,-986.89 186.21,-977.6"/>
<polygon fill="none" stroke="midnightblue" points="187.68,-1005.15 192.92,-1014.35 194.57,-1003.89 187.68,-1005.15"/>
</g>
<!-- Node6 -->
<g id="node6" class="node">
<title>Node6</title>
<g id="a_node6"><a xlink:href="class_satellite_1_1_satellite_core.html" target="_top" xlink:title="卫星核心">
<polygon fill="white" stroke="black" points="0,-0.5 0,-68.5 128,-68.5 128,-0.5 0,-0.5"/>
<text text-anchor="middle" x="64" y="-56.5" font-family="Helvetica,sans-Serif" font-size="10.00">Satellite.SatelliteCore</text>
<polyline fill="none" stroke="black" points="0,-49.5 128,-49.5 "/>
<text text-anchor="start" x="8" y="-37.5" font-family="Helvetica,sans-Serif" font-size="10.00">+ Satellite satellite</text>
<polyline fill="none" stroke="black" points="0,-30.5 128,-30.5 "/>
<text text-anchor="start" x="8" y="-18.5" font-family="Helvetica,sans-Serif" font-size="10.00">+ override float GetMass()</text>
<text text-anchor="start" x="8" y="-7.5" font-family="Helvetica,sans-Serif" font-size="10.00"># void Awake()</text>
</a>
</g>
</g>
<!-- Node5&#45;&gt;Node6 -->
<g id="edge5" class="edge">
<title>Node5&#45;&gt;Node6</title>
<path fill="none" stroke="midnightblue" d="M64,-95.35C64,-86.28 64,-77 64,-68.54"/>
<polygon fill="none" stroke="midnightblue" points="60.5,-95.44 64,-105.44 67.5,-95.44 60.5,-95.44"/>
</g>
</g>
</svg>
