<?xml version="1.0" encoding="UTF-8" standalone="no"?>
<!DOCTYPE svg PUBLIC "-//W3C//DTD SVG 1.1//EN"
 "http://www.w3.org/Graphics/SVG/1.1/DTD/svg11.dtd">
<!-- Generated by graphviz version 2.47.1 (20210417.1919)
 -->
<!-- Title: Satellite.Satellite Pages: 1 -->
<!--zoomable 1193 -->
<svg id="main" version="1.1" xmlns="http://www.w3.org/2000/svg" xmlns:xlink="http://www.w3.org/1999/xlink" xml:space="preserve" onload="init(evt)">
<style type="text/css"><![CDATA[
.edge:hover path { stroke: red; }
.edge:hover polygon { stroke: red; fill: red; }
]]></style>
<script type="text/javascript"><![CDATA[
var edges = document.getElementsByTagName('g');
if (edges && edges.length) {
  for (var i=0;i<edges.length;i++) {
    if (edges[i].id.substr(0,4)=='edge') {
      edges[i].setAttribute('class','edge');
    }
  }
}
]]></script>
        <defs>
                <circle id="rim" cx="0" cy="0" r="7"/>
                <circle id="rim2" cx="0" cy="0" r="3.5"/>
                <g id="zoomPlus">
                        <use xlink:href="#rim" fill="#404040">
                                <set attributeName="fill" to="#808080" begin="zoomplus.mouseover" end="zoomplus.mouseout"/>
                        </use>
                        <path d="M-4,0h8M0,-4v8" fill="none" stroke="white" stroke-width="1.5" pointer-events="none"/>
                </g>
                <g id="zoomMin">
                        <use xlink:href="#rim" fill="#404040">
                                <set attributeName="fill" to="#808080" begin="zoomminus.mouseover" end="zoomminus.mouseout"/>
                        </use>
                        <path d="M-4,0h8" fill="none" stroke="white" stroke-width="1.5" pointer-events="none"/>
                </g>
                <g id="dirArrow">
                        <path fill="none" stroke="white" stroke-width="1.5" d="M0,-3.0v7 M-2.5,-0.5L0,-3.0L2.5,-0.5"/>
                </g>
               <g id="resetDef">
                       <use xlink:href="#rim2" fill="#404040">
                               <set attributeName="fill" to="#808080" begin="reset.mouseover" end="reset.mouseout"/>
                       </use>
               </g>
        </defs>

<script type="text/javascript">
var viewWidth = 324;
var viewHeight = 1193;
var sectionId = 'dynsection-1';
</script>
<script xlink:href="svgpan.js"/>
<svg id="graph" class="graph">
<g id="viewport">
<title>Satellite.Satellite</title>
<polygon fill="white" stroke="transparent" points="-4,4 -4,-1189 319.5,-1189 319.5,4 -4,4"/>
<!-- Node1 -->
<g id="node1" class="node">
<title>Node1</title>
<g id="a_node1"><a xlink:title="卫星整体">
<polygon fill="#bfbfbf" stroke="black" points="0,-675 0,-765 136,-765 136,-675 0,-675"/>
<text text-anchor="middle" x="68" y="-753" font-family="Helvetica,sans-Serif" font-size="10.00">Satellite.Satellite</text>
<polyline fill="none" stroke="black" points="0,-746 136,-746 "/>
<text text-anchor="start" x="8" y="-734" font-family="Helvetica,sans-Serif" font-size="10.00">+ List&lt; SatellitePart</text>
<text text-anchor="start" x="8" y="-723" font-family="Helvetica,sans-Serif" font-size="10.00"> &gt; satelliteParts</text>
<polyline fill="none" stroke="black" points="0,-716 136,-716 "/>
<text text-anchor="start" x="8" y="-704" font-family="Helvetica,sans-Serif" font-size="10.00">+ float GetMass()</text>
<text text-anchor="start" x="8" y="-693" font-family="Helvetica,sans-Serif" font-size="10.00">+ Transform GetTransform()</text>
<text text-anchor="start" x="8" y="-682" font-family="Helvetica,sans-Serif" font-size="10.00">+ Vector3 GetVelocity()</text>
</a>
</g>
</g>
<!-- Node3 -->
<g id="node3" class="node">
<title>Node3</title>
<g id="a_node3"><a xlink:href="class_satellite_1_1_satellite_core.html" target="_top" xlink:title="卫星核心">
<polygon fill="white" stroke="black" points="70,-0.5 70,-68.5 198,-68.5 198,-0.5 70,-0.5"/>
<text text-anchor="middle" x="134" y="-56.5" font-family="Helvetica,sans-Serif" font-size="10.00">Satellite.SatelliteCore</text>
<polyline fill="none" stroke="black" points="70,-49.5 198,-49.5 "/>
<text text-anchor="middle" x="134" y="-37.5" font-family="Helvetica,sans-Serif" font-size="10.00"> </text>
<polyline fill="none" stroke="black" points="70,-30.5 198,-30.5 "/>
<text text-anchor="start" x="78" y="-18.5" font-family="Helvetica,sans-Serif" font-size="10.00">+ override float GetMass()</text>
<text text-anchor="start" x="78" y="-7.5" font-family="Helvetica,sans-Serif" font-size="10.00"># void Awake()</text>
</a>
</g>
</g>
<!-- Node1&#45;&gt;Node3 -->
<g id="edge8" class="edge">
<title>Node1&#45;&gt;Node3</title>
<path fill="none" stroke="#404040" d="M62.9,-674.76C53.72,-585.04 38.16,-375.64 70,-204 78.12,-160.24 96.97,-113.09 112.12,-79.83"/>
<polygon fill="none" stroke="#404040" points="112.25,-79.56 111.15,-72.43 117.31,-68.67 118.41,-75.8 112.25,-79.56"/>
<text text-anchor="middle" x="91.5" y="-207" font-family="Helvetica,sans-Serif" font-size="10.00"> +satellite</text>
</g>
<!-- Node2 -->
<g id="node2" class="node">
<title>Node2</title>
<g id="a_node2"><a xlink:title=" ">
<polygon fill="white" stroke="#bfbfbf" points="46.5,-1078 46.5,-1135 129.5,-1135 129.5,-1078 46.5,-1078"/>
<text text-anchor="middle" x="88" y="-1123" font-family="Helvetica,sans-Serif" font-size="10.00">MonoBehaviour</text>
<polyline fill="none" stroke="#bfbfbf" points="46.5,-1116 129.5,-1116 "/>
<text text-anchor="middle" x="88" y="-1104" font-family="Helvetica,sans-Serif" font-size="10.00"> </text>
<polyline fill="none" stroke="#bfbfbf" points="46.5,-1097 129.5,-1097 "/>
<text text-anchor="middle" x="88" y="-1085" font-family="Helvetica,sans-Serif" font-size="10.00"> </text>
</a>
</g>
</g>
<!-- Node2&#45;&gt;Node1 -->
<g id="edge1" class="edge">
<title>Node2&#45;&gt;Node1</title>
<path fill="none" stroke="midnightblue" d="M86.02,-1067.5C82.3,-995.92 74.27,-841.46 70.3,-765.3"/>
<polygon fill="none" stroke="midnightblue" points="82.55,-1068.04 86.56,-1077.85 89.54,-1067.68 82.55,-1068.04"/>
</g>
<!-- Node6 -->
<g id="node6" class="node">
<title>Node6</title>
<g id="a_node6"><a xlink:href="class_space_physic_1_1_astral_body.html" target="_top" xlink:title="星体物理实体">
<polygon fill="white" stroke="black" points="154.5,-449.5 154.5,-990.5 315.5,-990.5 315.5,-449.5 154.5,-449.5"/>
<text text-anchor="middle" x="235" y="-978.5" font-family="Helvetica,sans-Serif" font-size="10.00">AstralBody</text>
<polyline fill="none" stroke="black" points="154.5,-971.5 315.5,-971.5 "/>
<text text-anchor="start" x="162.5" y="-959.5" font-family="Helvetica,sans-Serif" font-size="10.00">+ List&lt; AstralBody &gt;</text>
<text text-anchor="start" x="162.5" y="-948.5" font-family="Helvetica,sans-Serif" font-size="10.00"> affectedPlanets</text>
<text text-anchor="start" x="162.5" y="-937.5" font-family="Helvetica,sans-Serif" font-size="10.00">+ float affectRadius</text>
<text text-anchor="start" x="162.5" y="-926.5" font-family="Helvetica,sans-Serif" font-size="10.00">+ Vector3 angularVelocity</text>
<text text-anchor="start" x="162.5" y="-915.5" font-family="Helvetica,sans-Serif" font-size="10.00">+ List&lt; AstralBody &gt;</text>
<text text-anchor="start" x="162.5" y="-904.5" font-family="Helvetica,sans-Serif" font-size="10.00"> banAffectedPlanets</text>
<text text-anchor="start" x="162.5" y="-893.5" font-family="Helvetica,sans-Serif" font-size="10.00">+ SphereCollider defaultCollider</text>
<text text-anchor="start" x="162.5" y="-882.5" font-family="Helvetica,sans-Serif" font-size="10.00">+ bool enableAffect</text>
<text text-anchor="start" x="162.5" y="-871.5" font-family="Helvetica,sans-Serif" font-size="10.00">+ bool enableTracing</text>
<text text-anchor="start" x="162.5" y="-860.5" font-family="Helvetica,sans-Serif" font-size="10.00">+ Vector3 oriVelocity</text>
<text text-anchor="start" x="162.5" y="-849.5" font-family="Helvetica,sans-Serif" font-size="10.00">+ SphereCollider triggerCollider</text>
<text text-anchor="start" x="162.5" y="-838.5" font-family="Helvetica,sans-Serif" font-size="10.00">+ UnityEvent&lt; Vector3</text>
<text text-anchor="start" x="162.5" y="-827.5" font-family="Helvetica,sans-Serif" font-size="10.00"> &gt; velocityChangedEvent</text>
<text text-anchor="start" x="162.5" y="-816.5" font-family="Helvetica,sans-Serif" font-size="10.00">+ float? Mass</text>
<text text-anchor="start" x="162.5" y="-805.5" font-family="Helvetica,sans-Serif" font-size="10.00">+ Rigidbody astralBodyRigidbody</text>
<text text-anchor="start" x="162.5" y="-794.5" font-family="Helvetica,sans-Serif" font-size="10.00">+ Vector3 Force</text>
<text text-anchor="start" x="162.5" y="-783.5" font-family="Helvetica,sans-Serif" font-size="10.00">+ float gravity</text>
<text text-anchor="start" x="162.5" y="-772.5" font-family="Helvetica,sans-Serif" font-size="10.00">+ int meshNum</text>
<text text-anchor="start" x="162.5" y="-761.5" font-family="Helvetica,sans-Serif" font-size="10.00">+ float size</text>
<text text-anchor="start" x="162.5" y="-750.5" font-family="Helvetica,sans-Serif" font-size="10.00">+ double realMass</text>
<text text-anchor="start" x="162.5" y="-739.5" font-family="Helvetica,sans-Serif" font-size="10.00">+ double density</text>
<text text-anchor="start" x="162.5" y="-728.5" font-family="Helvetica,sans-Serif" font-size="10.00">+ Vector3 lastVelocity</text>
<text text-anchor="start" x="162.5" y="-717.5" font-family="Helvetica,sans-Serif" font-size="10.00">+ bool isLoadDone</text>
<polyline fill="none" stroke="black" points="154.5,-710.5 315.5,-710.5 "/>
<text text-anchor="start" x="162.5" y="-698.5" font-family="Helvetica,sans-Serif" font-size="10.00">+ virtual void OnCollision</text>
<text text-anchor="start" x="162.5" y="-687.5" font-family="Helvetica,sans-Serif" font-size="10.00">Enter(Collision other)</text>
<text text-anchor="start" x="162.5" y="-676.5" font-family="Helvetica,sans-Serif" font-size="10.00">+ Transform GetTransform()</text>
<text text-anchor="start" x="162.5" y="-665.5" font-family="Helvetica,sans-Serif" font-size="10.00">+ Vector3 GetPosition()</text>
<text text-anchor="start" x="162.5" y="-654.5" font-family="Helvetica,sans-Serif" font-size="10.00">+ GameObject GetGameObject()</text>
<text text-anchor="start" x="162.5" y="-643.5" font-family="Helvetica,sans-Serif" font-size="10.00">+ bool GetEnableTracing()</text>
<text text-anchor="start" x="162.5" y="-632.5" font-family="Helvetica,sans-Serif" font-size="10.00">+ virtual float GetMass()</text>
<text text-anchor="start" x="162.5" y="-621.5" font-family="Helvetica,sans-Serif" font-size="10.00">+ Rigidbody GetRigidbody()</text>
<text text-anchor="start" x="162.5" y="-610.5" font-family="Helvetica,sans-Serif" font-size="10.00">+ Vector3 GetVelocity()</text>
<text text-anchor="start" x="162.5" y="-599.5" font-family="Helvetica,sans-Serif" font-size="10.00">+ List&lt; AstralBody &gt;</text>
<text text-anchor="start" x="162.5" y="-588.5" font-family="Helvetica,sans-Serif" font-size="10.00"> GetAffectedPlanets()</text>
<text text-anchor="start" x="162.5" y="-577.5" font-family="Helvetica,sans-Serif" font-size="10.00">+ AstralBody GetAstralBody()</text>
<text text-anchor="start" x="162.5" y="-566.5" font-family="Helvetica,sans-Serif" font-size="10.00">+ void ChangeVelocity</text>
<text text-anchor="start" x="162.5" y="-555.5" font-family="Helvetica,sans-Serif" font-size="10.00">(Vector3 velocity)</text>
<text text-anchor="start" x="162.5" y="-544.5" font-family="Helvetica,sans-Serif" font-size="10.00">+ void ChangeVelocity</text>
<text text-anchor="start" x="162.5" y="-533.5" font-family="Helvetica,sans-Serif" font-size="10.00">(double realSpeed)</text>
<text text-anchor="start" x="162.5" y="-522.5" font-family="Helvetica,sans-Serif" font-size="10.00">+ Vector3 CalculateForce()</text>
<text text-anchor="start" x="162.5" y="-511.5" font-family="Helvetica,sans-Serif" font-size="10.00">+ void SetCircleVelocity()</text>
<text text-anchor="start" x="162.5" y="-500.5" font-family="Helvetica,sans-Serif" font-size="10.00">+ void SetCircleVelocityMenu()</text>
<text text-anchor="start" x="162.5" y="-489.5" font-family="Helvetica,sans-Serif" font-size="10.00"># virtual void Start()</text>
<text text-anchor="start" x="162.5" y="-478.5" font-family="Helvetica,sans-Serif" font-size="10.00"># void Generate()</text>
<text text-anchor="start" x="162.5" y="-467.5" font-family="Helvetica,sans-Serif" font-size="10.00"># virtual void FixedUpdate()</text>
<text text-anchor="start" x="162.5" y="-456.5" font-family="Helvetica,sans-Serif" font-size="10.00"># virtual void SetMass()</text>
</a>
</g>
</g>
<!-- Node2&#45;&gt;Node6 -->
<g id="edge6" class="edge">
<title>Node2&#45;&gt;Node6</title>
<path fill="none" stroke="midnightblue" d="M107.96,-1068.72C119.56,-1046.57 134.02,-1017.58 145,-991 148.16,-983.35 151.29,-975.55 154.39,-967.64"/>
<polygon fill="none" stroke="midnightblue" points="104.75,-1067.3 103.17,-1077.78 110.94,-1070.57 104.75,-1067.3"/>
</g>
<!-- Node3&#45;&gt;Node1 -->
<g id="edge2" class="edge">
<title>Node3&#45;&gt;Node1</title>
<path fill="none" stroke="#404040" d="M130.81,-68.5C120.31,-177.31 86.68,-525.57 73.43,-662.73"/>
<polygon fill="none" stroke="#404040" points="73.41,-663 76.81,-669.35 72.25,-674.94 68.85,-668.59 73.41,-663"/>
<text text-anchor="middle" x="150" y="-207" font-family="Helvetica,sans-Serif" font-size="10.00"> +satelliteCore</text>
</g>
<!-- Node4 -->
<g id="node4" class="node">
<title>Node4</title>
<g id="a_node4"><a xlink:href="class_satellite_1_1_satellite_engine.html" target="_top" xlink:title="卫星引擎">
<polygon fill="white" stroke="black" points="163,-106.5 163,-185.5 285,-185.5 285,-106.5 163,-106.5"/>
<text text-anchor="middle" x="224" y="-173.5" font-family="Helvetica,sans-Serif" font-size="10.00">SatelliteEngine</text>
<polyline fill="none" stroke="black" points="163,-166.5 285,-166.5 "/>
<text text-anchor="start" x="171" y="-154.5" font-family="Helvetica,sans-Serif" font-size="10.00">+ int engineStage</text>
<polyline fill="none" stroke="black" points="163,-147.5 285,-147.5 "/>
<text text-anchor="start" x="171" y="-135.5" font-family="Helvetica,sans-Serif" font-size="10.00">+ void SetCurDirVelocity</text>
<text text-anchor="start" x="171" y="-124.5" font-family="Helvetica,sans-Serif" font-size="10.00">(float speed)</text>
<text text-anchor="start" x="171" y="-113.5" font-family="Helvetica,sans-Serif" font-size="10.00"># void Awake()</text>
</a>
</g>
</g>
<!-- Node4&#45;&gt;Node3 -->
<g id="edge3" class="edge">
<title>Node4&#45;&gt;Node3</title>
<path fill="none" stroke="midnightblue" d="M185.75,-98.47C177.52,-88.45 168.98,-78.06 161.27,-68.67"/>
<polygon fill="none" stroke="midnightblue" points="183.22,-100.89 192.27,-106.39 188.62,-96.45 183.22,-100.89"/>
</g>
<!-- Node5 -->
<g id="node5" class="node">
<title>Node5</title>
<g id="a_node5"><a xlink:href="class_satellite_1_1_satellite_part.html" target="_top" xlink:title="卫星部件">
<polygon fill="white" stroke="black" points="166.5,-233.5 166.5,-411.5 293.5,-411.5 293.5,-233.5 166.5,-233.5"/>
<text text-anchor="middle" x="230" y="-399.5" font-family="Helvetica,sans-Serif" font-size="10.00">SatellitePart</text>
<polyline fill="none" stroke="black" points="166.5,-392.5 293.5,-392.5 "/>
<text text-anchor="start" x="174.5" y="-380.5" font-family="Helvetica,sans-Serif" font-size="10.00">+ List&lt; SatellitePart</text>
<text text-anchor="start" x="174.5" y="-369.5" font-family="Helvetica,sans-Serif" font-size="10.00"> &gt; connectedPartList</text>
<text text-anchor="start" x="174.5" y="-358.5" font-family="Helvetica,sans-Serif" font-size="10.00">+ string satelliteName</text>
<text text-anchor="start" x="174.5" y="-347.5" font-family="Helvetica,sans-Serif" font-size="10.00">+ SatelliteType PartType</text>
<polyline fill="none" stroke="black" points="166.5,-340.5 293.5,-340.5 "/>
<text text-anchor="start" x="174.5" y="-328.5" font-family="Helvetica,sans-Serif" font-size="10.00">+ void Push(Vector3 dir)</text>
<text text-anchor="start" x="174.5" y="-317.5" font-family="Helvetica,sans-Serif" font-size="10.00">+ void Rotate(Vector3 dir)</text>
<text text-anchor="start" x="174.5" y="-306.5" font-family="Helvetica,sans-Serif" font-size="10.00">+ void GenerateJoint()</text>
<text text-anchor="start" x="174.5" y="-295.5" font-family="Helvetica,sans-Serif" font-size="10.00">+ void GetPartName()</text>
<text text-anchor="start" x="174.5" y="-284.5" font-family="Helvetica,sans-Serif" font-size="10.00">+ void Separate(string</text>
<text text-anchor="start" x="174.5" y="-273.5" font-family="Helvetica,sans-Serif" font-size="10.00"> partName)</text>
<text text-anchor="start" x="174.5" y="-262.5" font-family="Helvetica,sans-Serif" font-size="10.00">+ void Separate(bool</text>
<text text-anchor="start" x="174.5" y="-251.5" font-family="Helvetica,sans-Serif" font-size="10.00"> separateAll)</text>
<text text-anchor="start" x="174.5" y="-240.5" font-family="Helvetica,sans-Serif" font-size="10.00"># override void SetMass()</text>
</a>
</g>
</g>
<!-- Node5&#45;&gt;Node4 -->
<g id="edge4" class="edge">
<title>Node5&#45;&gt;Node4</title>
<path fill="none" stroke="midnightblue" d="M226.62,-223.29C226.17,-210.02 225.72,-197.09 225.33,-185.76"/>
<polygon fill="none" stroke="midnightblue" points="223.13,-223.61 226.97,-233.48 230.13,-223.37 223.13,-223.61"/>
</g>
<!-- Node6&#45;&gt;Node5 -->
<g id="edge5" class="edge">
<title>Node6&#45;&gt;Node5</title>
<path fill="none" stroke="midnightblue" d="M231.46,-439.32C231.34,-429.69 231.22,-420.38 231.11,-411.5"/>
<polygon fill="none" stroke="midnightblue" points="227.97,-439.5 231.59,-449.45 234.97,-439.41 227.97,-439.5"/>
</g>
<!-- Node7 -->
<g id="node7" class="node">
<title>Node7</title>
<g id="a_node7"><a xlink:href="interface_space_physic_1_1_i_traceable.html" target="_top" xlink:title="可追踪接口">
<polygon fill="white" stroke="black" points="155,-1028.5 155,-1184.5 315,-1184.5 315,-1028.5 155,-1028.5"/>
<text text-anchor="middle" x="235" y="-1172.5" font-family="Helvetica,sans-Serif" font-size="10.00">ITraceable</text>
<polyline fill="none" stroke="black" points="155,-1165.5 315,-1165.5 "/>
<text text-anchor="middle" x="235" y="-1153.5" font-family="Helvetica,sans-Serif" font-size="10.00"> </text>
<polyline fill="none" stroke="black" points="155,-1146.5 315,-1146.5 "/>
<text text-anchor="start" x="163" y="-1134.5" font-family="Helvetica,sans-Serif" font-size="10.00">+ Transform GetTransform()</text>
<text text-anchor="start" x="163" y="-1123.5" font-family="Helvetica,sans-Serif" font-size="10.00">+ Vector3 GetPosition()</text>
<text text-anchor="start" x="163" y="-1112.5" font-family="Helvetica,sans-Serif" font-size="10.00">+ GameObject GetGameObject()</text>
<text text-anchor="start" x="163" y="-1101.5" font-family="Helvetica,sans-Serif" font-size="10.00">+ bool GetEnableTracing()</text>
<text text-anchor="start" x="163" y="-1090.5" font-family="Helvetica,sans-Serif" font-size="10.00">+ float GetMass()</text>
<text text-anchor="start" x="163" y="-1079.5" font-family="Helvetica,sans-Serif" font-size="10.00">+ Rigidbody GetRigidbody()</text>
<text text-anchor="start" x="163" y="-1068.5" font-family="Helvetica,sans-Serif" font-size="10.00">+ Vector3 GetVelocity()</text>
<text text-anchor="start" x="163" y="-1057.5" font-family="Helvetica,sans-Serif" font-size="10.00">+ List&lt; AstralBody &gt;</text>
<text text-anchor="start" x="163" y="-1046.5" font-family="Helvetica,sans-Serif" font-size="10.00"> GetAffectedPlanets()</text>
<text text-anchor="start" x="163" y="-1035.5" font-family="Helvetica,sans-Serif" font-size="10.00">+ AstralBody GetAstralBody()</text>
</a>
</g>
</g>
<!-- Node7&#45;&gt;Node6 -->
<g id="edge7" class="edge">
<title>Node7&#45;&gt;Node6</title>
<path fill="none" stroke="midnightblue" d="M235,-1018.05C235,-1009.27 235,-1000.07 235,-990.57"/>
<polygon fill="none" stroke="midnightblue" points="231.5,-1018.15 235,-1028.15 238.5,-1018.15 231.5,-1018.15"/>
</g>
</g>
</svg>
        <g id="navigator" transform="translate(0 0)" fill="#404254">
                <rect fill="#f2f5e9" fill-opacity="0.5" stroke="#606060" stroke-width=".5" x="0" y="0" width="60" height="60"/>
                <use id="zoomplus" xlink:href="#zoomPlus" x="17" y="9" onmousedown="handleZoom(evt,'in')"/>
                <use id="zoomminus" xlink:href="#zoomMin" x="42" y="9" onmousedown="handleZoom(evt,'out')"/>
                <use id="reset" xlink:href="#resetDef" x="30" y="36" onmousedown="handleReset()"/>
                <g id="arrowUp" xlink:href="#dirArrow" transform="translate(30 24)" onmousedown="handlePan(0,-1)">
                  <use xlink:href="#rim" fill="#404040">
                        <set attributeName="fill" to="#808080" begin="arrowUp.mouseover" end="arrowUp.mouseout"/>
                  </use>
                  <path fill="none" stroke="white" stroke-width="1.5" d="M0,-3.0v7 M-2.5,-0.5L0,-3.0L2.5,-0.5"/>
                </g>
                <g id="arrowRight" xlink:href="#dirArrow" transform="rotate(90) translate(36 -43)" onmousedown="handlePan(1,0)">
                  <use xlink:href="#rim" fill="#404040">
                        <set attributeName="fill" to="#808080" begin="arrowRight.mouseover" end="arrowRight.mouseout"/>
                  </use>
                  <path fill="none" stroke="white" stroke-width="1.5" d="M0,-3.0v7 M-2.5,-0.5L0,-3.0L2.5,-0.5"/>
                </g>
                <g id="arrowDown" xlink:href="#dirArrow" transform="rotate(180) translate(-30 -48)" onmousedown="handlePan(0,1)">
                  <use xlink:href="#rim" fill="#404040">
                        <set attributeName="fill" to="#808080" begin="arrowDown.mouseover" end="arrowDown.mouseout"/>
                  </use>
                  <path fill="none" stroke="white" stroke-width="1.5" d="M0,-3.0v7 M-2.5,-0.5L0,-3.0L2.5,-0.5"/>
                </g>
                <g id="arrowLeft" xlink:href="#dirArrow" transform="rotate(270) translate(-36 17)" onmousedown="handlePan(-1,0)">
                  <use xlink:href="#rim" fill="#404040">
                        <set attributeName="fill" to="#808080" begin="arrowLeft.mouseover" end="arrowLeft.mouseout"/>
                  </use>
                  <path fill="none" stroke="white" stroke-width="1.5" d="M0,-3.0v7 M-2.5,-0.5L0,-3.0L2.5,-0.5"/>
                </g>
        </g>
        <svg viewBox="0 0 15 15" width="100%" height="30px" preserveAspectRatio="xMaxYMin meet">
         <g id="arrow_out" transform="scale(0.3 0.3)">
          <a xlink:href="class_satellite_1_1_satellite__coll__graph_org.svg" target="_base">
           <rect id="button" ry="5" rx="5" y="6" x="6" height="38" width="38"
                fill="#f2f5e9" fill-opacity="0.5" stroke="#606060" stroke-width="1.0"/>
           <path id="arrow"
             d="M 11.500037,31.436501 C 11.940474,20.09759 22.043105,11.32322 32.158766,21.979434 L 37.068811,17.246167 C 37.068811,17.246167 37.088388,32 37.088388,32 L 22.160133,31.978069 C 22.160133,31.978069 26.997745,27.140456 26.997745,27.140456 C 18.528582,18.264221 13.291696,25.230495 11.500037,31.436501 z"
             style="fill:#404040;"/>
          </a>
         </g>
        </svg>
</svg>
