<?xml version="1.0" encoding="UTF-8" standalone="no"?>
<!DOCTYPE svg PUBLIC "-//W3C//DTD SVG 1.1//EN"
 "http://www.w3.org/Graphics/SVG/1.1/DTD/svg11.dtd">
<!-- Generated by graphviz version 2.47.1 (20210417.1919)
 -->
<!-- Title: SpacePhysic.GravityTracing.Freeze Pages: 1 -->
<svg width="322pt" height="186pt"
 viewBox="0.00 0.00 322.00 186.00" xmlns="http://www.w3.org/2000/svg" xmlns:xlink="http://www.w3.org/1999/xlink">
<g id="graph0" class="graph" transform="scale(1 1) rotate(0) translate(4 182)">
<title>SpacePhysic.GravityTracing.Freeze</title>
<polygon fill="white" stroke="transparent" points="-4,4 -4,-182 318,-182 318,4 -4,4"/>
<!-- Node1 -->
<g id="node1" class="node">
<title>Node1</title>
<g id="a_node1"><a xlink:title="冻结">
<polygon fill="#bfbfbf" stroke="black" points="172,-73.5 172,-103.5 314,-103.5 314,-73.5 172,-73.5"/>
<text text-anchor="start" x="180" y="-91.5" font-family="Helvetica,sans-Serif" font-size="10.00">SpacePhysic.GravityTracing.</text>
<text text-anchor="middle" x="243" y="-80.5" font-family="Helvetica,sans-Serif" font-size="10.00">Freeze</text>
</a>
</g>
</g>
<!-- Node2 -->
<g id="node2" class="node">
<title>Node2</title>
<g id="a_node2"><a xlink:href="class_custom_u_i_1_1_satellite_1_1_satellite_controller_u_i.html#add893770a0c54e569b670e3ce1a4a659" target="_top" xlink:title=" ">
<polygon fill="white" stroke="black" points="0,-147.5 0,-177.5 136,-177.5 136,-147.5 0,-147.5"/>
<text text-anchor="start" x="8" y="-165.5" font-family="Helvetica,sans-Serif" font-size="10.00">CustomUI.Satellite.Satellite</text>
<text text-anchor="middle" x="68" y="-154.5" font-family="Helvetica,sans-Serif" font-size="10.00">ControllerUI.Continue</text>
</a>
</g>
</g>
<!-- Node1&#45;&gt;Node2 -->
<g id="edge1" class="edge">
<title>Node1&#45;&gt;Node2</title>
<path fill="none" stroke="midnightblue" d="M203.14,-107.94C183.26,-117.59 158.56,-129.16 136,-138.5 128.58,-141.57 120.61,-144.63 112.84,-147.48"/>
<polygon fill="midnightblue" stroke="midnightblue" points="204.75,-111.05 212.19,-103.51 201.67,-104.76 204.75,-111.05"/>
</g>
<!-- Node3 -->
<g id="node3" class="node">
<title>Node3</title>
<g id="a_node3"><a xlink:href="class_custom_u_i_1_1_quiz_1_1_var_line_u_i.html#a5eaf2bb457a91b6390057fff45d2ce1b" target="_top" xlink:title=" ">
<polygon fill="white" stroke="black" points="2.5,-98.5 2.5,-128.5 133.5,-128.5 133.5,-98.5 2.5,-98.5"/>
<text text-anchor="start" x="10.5" y="-116.5" font-family="Helvetica,sans-Serif" font-size="10.00">CustomUI.Quiz.VarLineUI.</text>
<text text-anchor="middle" x="68" y="-105.5" font-family="Helvetica,sans-Serif" font-size="10.00">OnDragEnd</text>
</a>
</g>
</g>
<!-- Node1&#45;&gt;Node3 -->
<g id="edge2" class="edge">
<title>Node1&#45;&gt;Node3</title>
<path fill="none" stroke="midnightblue" d="M161.57,-100.12C152.24,-101.47 142.81,-102.83 133.73,-104.15"/>
<polygon fill="midnightblue" stroke="midnightblue" points="162.24,-103.56 171.63,-98.67 161.24,-96.63 162.24,-103.56"/>
</g>
<!-- Node4 -->
<g id="node4" class="node">
<title>Node4</title>
<g id="a_node4"><a xlink:href="class_custom_u_i_1_1_quiz_1_1_var_line_u_i.html#a57aaf9932620b22bd425a28c4fd360ec" target="_top" xlink:title=" ">
<polygon fill="white" stroke="black" points="2.5,-49.5 2.5,-79.5 133.5,-79.5 133.5,-49.5 2.5,-49.5"/>
<text text-anchor="start" x="10.5" y="-67.5" font-family="Helvetica,sans-Serif" font-size="10.00">CustomUI.Quiz.VarLineUI.</text>
<text text-anchor="middle" x="68" y="-56.5" font-family="Helvetica,sans-Serif" font-size="10.00">OnInputFieldDrag</text>
</a>
</g>
</g>
<!-- Node1&#45;&gt;Node4 -->
<g id="edge3" class="edge">
<title>Node1&#45;&gt;Node4</title>
<path fill="none" stroke="midnightblue" d="M161.57,-77.34C152.24,-76.05 142.81,-74.74 133.73,-73.48"/>
<polygon fill="midnightblue" stroke="midnightblue" points="161.25,-80.83 171.63,-78.74 162.21,-73.9 161.25,-80.83"/>
</g>
<!-- Node5 -->
<g id="node5" class="node">
<title>Node5</title>
<g id="a_node5"><a xlink:href="class_custom_u_i_1_1_satellite_1_1_satellite_controller_u_i.html#acb472db54118ab12c4b85beaccb32e8c" target="_top" xlink:title=" ">
<polygon fill="white" stroke="black" points="0,-0.5 0,-30.5 136,-30.5 136,-0.5 0,-0.5"/>
<text text-anchor="start" x="8" y="-18.5" font-family="Helvetica,sans-Serif" font-size="10.00">CustomUI.Satellite.Satellite</text>
<text text-anchor="middle" x="68" y="-7.5" font-family="Helvetica,sans-Serif" font-size="10.00">ControllerUI.Pause</text>
</a>
</g>
</g>
<!-- Node1&#45;&gt;Node5 -->
<g id="edge4" class="edge">
<title>Node1&#45;&gt;Node5</title>
<path fill="none" stroke="midnightblue" d="M201.01,-69.15C181.47,-60.13 157.67,-49.44 136,-40.5 127.85,-37.14 119.07,-33.72 110.63,-30.53"/>
<polygon fill="midnightblue" stroke="midnightblue" points="199.7,-72.4 210.24,-73.44 202.64,-66.05 199.7,-72.4"/>
</g>
</g>
</svg>
