<?xml version="1.0" encoding="UTF-8" standalone="no"?>
<!DOCTYPE svg PUBLIC "-//W3C//DTD SVG 1.1//EN"
 "http://www.w3.org/Graphics/SVG/1.1/DTD/svg11.dtd">
<!-- Generated by graphviz version 2.47.1 (20210417.1919)
 -->
<!-- Title: TTS.VoiceGenerator Pages: 1 -->
<svg width="165pt" height="204pt"
 viewBox="0.00 0.00 165.00 204.00" xmlns="http://www.w3.org/2000/svg" xmlns:xlink="http://www.w3.org/1999/xlink">
<g id="graph0" class="graph" transform="scale(1 1) rotate(0) translate(4 200)">
<title>TTS.VoiceGenerator</title>
<polygon fill="white" stroke="transparent" points="-4,4 -4,-200 161,-200 161,4 -4,4"/>
<!-- Node1 -->
<g id="node1" class="node">
<title>Node1</title>
<g id="a_node1"><a xlink:title="语音合成">
<polygon fill="#bfbfbf" stroke="black" points="0,-0.5 0,-101.5 157,-101.5 157,-0.5 0,-0.5"/>
<text text-anchor="middle" x="78.5" y="-89.5" font-family="Helvetica,sans-Serif" font-size="10.00">TTS.VoiceGenerator</text>
<polyline fill="none" stroke="black" points="0,-82.5 157,-82.5 "/>
<text text-anchor="start" x="8" y="-70.5" font-family="Helvetica,sans-Serif" font-size="10.00">+ string content</text>
<polyline fill="none" stroke="black" points="0,-63.5 157,-63.5 "/>
<text text-anchor="start" x="8" y="-51.5" font-family="Helvetica,sans-Serif" font-size="10.00">+ void Speak(string content)</text>
<text text-anchor="start" x="8" y="-40.5" font-family="Helvetica,sans-Serif" font-size="10.00">+ async Task GetAudioAsync()</text>
<text text-anchor="start" x="8" y="-29.5" font-family="Helvetica,sans-Serif" font-size="10.00">+ IEnumerator OnAudioLoadAnd</text>
<text text-anchor="start" x="8" y="-18.5" font-family="Helvetica,sans-Serif" font-size="10.00">Paly(string url, AudioType</text>
<text text-anchor="start" x="8" y="-7.5" font-family="Helvetica,sans-Serif" font-size="10.00"> type, AudioSource audio)</text>
</a>
</g>
</g>
<!-- Node2 -->
<g id="node2" class="node">
<title>Node2</title>
<g id="a_node2"><a xlink:title=" ">
<polygon fill="white" stroke="#bfbfbf" points="37,-138.5 37,-195.5 120,-195.5 120,-138.5 37,-138.5"/>
<text text-anchor="middle" x="78.5" y="-183.5" font-family="Helvetica,sans-Serif" font-size="10.00">MonoBehaviour</text>
<polyline fill="none" stroke="#bfbfbf" points="37,-176.5 120,-176.5 "/>
<text text-anchor="middle" x="78.5" y="-164.5" font-family="Helvetica,sans-Serif" font-size="10.00"> </text>
<polyline fill="none" stroke="#bfbfbf" points="37,-157.5 120,-157.5 "/>
<text text-anchor="middle" x="78.5" y="-145.5" font-family="Helvetica,sans-Serif" font-size="10.00"> </text>
</a>
</g>
</g>
<!-- Node2&#45;&gt;Node1 -->
<g id="edge1" class="edge">
<title>Node2&#45;&gt;Node1</title>
<path fill="none" stroke="midnightblue" d="M78.5,-128.35C78.5,-119.8 78.5,-110.58 78.5,-101.61"/>
<polygon fill="none" stroke="midnightblue" points="75,-128.4 78.5,-138.4 82,-128.4 75,-128.4"/>
</g>
</g>
</svg>
