<?xml version="1.0" encoding="UTF-8" standalone="no"?>
<!DOCTYPE svg PUBLIC "-//W3C//DTD SVG 1.1//EN"
 "http://www.w3.org/Graphics/SVG/1.1/DTD/svg11.dtd">
<!-- Generated by graphviz version 2.47.1 (20210417.1919)
 -->
<!-- Title: Animation.AstronautsAnimation Pages: 1 -->
<svg width="162pt" height="215pt"
 viewBox="0.00 0.00 162.00 215.00" xmlns="http://www.w3.org/2000/svg" xmlns:xlink="http://www.w3.org/1999/xlink">
<g id="graph0" class="graph" transform="scale(1 1) rotate(0) translate(4 211)">
<title>Animation.AstronautsAnimation</title>
<polygon fill="white" stroke="transparent" points="-4,4 -4,-211 158,-211 158,4 -4,4"/>
<!-- Node1 -->
<g id="node1" class="node">
<title>Node1</title>
<g id="a_node1"><a xlink:title="宇航员动画机">
<polygon fill="#bfbfbf" stroke="black" points="0,-0.5 0,-112.5 154,-112.5 154,-0.5 0,-0.5"/>
<text text-anchor="middle" x="77" y="-100.5" font-family="Helvetica,sans-Serif" font-size="10.00">Animation.AstronautsAnimation</text>
<polyline fill="none" stroke="black" points="0,-93.5 154,-93.5 "/>
<text text-anchor="start" x="8" y="-81.5" font-family="Helvetica,sans-Serif" font-size="10.00">+ Animator astronautsAnimator</text>
<text text-anchor="start" x="8" y="-70.5" font-family="Helvetica,sans-Serif" font-size="10.00">+ int boredAnimationCount</text>
<text text-anchor="start" x="8" y="-59.5" font-family="Helvetica,sans-Serif" font-size="10.00">+ float boredTimeMax</text>
<text text-anchor="start" x="8" y="-48.5" font-family="Helvetica,sans-Serif" font-size="10.00">+ float boredTimeMin</text>
<text text-anchor="start" x="8" y="-37.5" font-family="Helvetica,sans-Serif" font-size="10.00">+ int pointAnimationCount</text>
<text text-anchor="start" x="8" y="-26.5" font-family="Helvetica,sans-Serif" font-size="10.00">+ SelectorUI selectorUI</text>
<polyline fill="none" stroke="black" points="0,-19.5 154,-19.5 "/>
<text text-anchor="middle" x="77" y="-7.5" font-family="Helvetica,sans-Serif" font-size="10.00"> </text>
</a>
</g>
</g>
<!-- Node2 -->
<g id="node2" class="node">
<title>Node2</title>
<g id="a_node2"><a xlink:title=" ">
<polygon fill="white" stroke="#bfbfbf" points="35.5,-149.5 35.5,-206.5 118.5,-206.5 118.5,-149.5 35.5,-149.5"/>
<text text-anchor="middle" x="77" y="-194.5" font-family="Helvetica,sans-Serif" font-size="10.00">MonoBehaviour</text>
<polyline fill="none" stroke="#bfbfbf" points="35.5,-187.5 118.5,-187.5 "/>
<text text-anchor="middle" x="77" y="-175.5" font-family="Helvetica,sans-Serif" font-size="10.00"> </text>
<polyline fill="none" stroke="#bfbfbf" points="35.5,-168.5 118.5,-168.5 "/>
<text text-anchor="middle" x="77" y="-156.5" font-family="Helvetica,sans-Serif" font-size="10.00"> </text>
</a>
</g>
</g>
<!-- Node2&#45;&gt;Node1 -->
<g id="edge1" class="edge">
<title>Node2&#45;&gt;Node1</title>
<path fill="none" stroke="midnightblue" d="M77,-139.11C77,-130.75 77,-121.73 77,-112.83"/>
<polygon fill="none" stroke="midnightblue" points="73.5,-139.28 77,-149.28 80.5,-139.28 73.5,-139.28"/>
</g>
</g>
</svg>
