<?xml version="1.0" encoding="UTF-8" standalone="no"?>
<!DOCTYPE svg PUBLIC "-//W3C//DTD SVG 1.1//EN"
 "http://www.w3.org/Graphics/SVG/1.1/DTD/svg11.dtd">
<!-- Generated by graphviz version 2.47.1 (20210417.1919)
 -->
<!-- Title: CustomUI.Quiz.QuizUI.Generate Pages: 1 -->
<!--zoomable 83 -->
<svg id="main" version="1.1" xmlns="http://www.w3.org/2000/svg" xmlns:xlink="http://www.w3.org/1999/xlink" xml:space="preserve" onload="init(evt)">
<style type="text/css"><![CDATA[
.edge:hover path { stroke: red; }
.edge:hover polygon { stroke: red; fill: red; }
]]></style>
<script type="text/javascript"><![CDATA[
var edges = document.getElementsByTagName('g');
if (edges && edges.length) {
  for (var i=0;i<edges.length;i++) {
    if (edges[i].id.substr(0,4)=='edge') {
      edges[i].setAttribute('class','edge');
    }
  }
}
]]></script>
        <defs>
                <circle id="rim" cx="0" cy="0" r="7"/>
                <circle id="rim2" cx="0" cy="0" r="3.5"/>
                <g id="zoomPlus">
                        <use xlink:href="#rim" fill="#404040">
                                <set attributeName="fill" to="#808080" begin="zoomplus.mouseover" end="zoomplus.mouseout"/>
                        </use>
                        <path d="M-4,0h8M0,-4v8" fill="none" stroke="white" stroke-width="1.5" pointer-events="none"/>
                </g>
                <g id="zoomMin">
                        <use xlink:href="#rim" fill="#404040">
                                <set attributeName="fill" to="#808080" begin="zoomminus.mouseover" end="zoomminus.mouseout"/>
                        </use>
                        <path d="M-4,0h8" fill="none" stroke="white" stroke-width="1.5" pointer-events="none"/>
                </g>
                <g id="dirArrow">
                        <path fill="none" stroke="white" stroke-width="1.5" d="M0,-3.0v7 M-2.5,-0.5L0,-3.0L2.5,-0.5"/>
                </g>
               <g id="resetDef">
                       <use xlink:href="#rim2" fill="#404040">
                               <set attributeName="fill" to="#808080" begin="reset.mouseover" end="reset.mouseout"/>
                       </use>
               </g>
        </defs>

<script type="text/javascript">
var viewWidth = 957;
var viewHeight = 83;
var sectionId = 'dynsection-2';
</script>
<script xlink:href="svgpan.js"/>
<svg id="graph" class="graph">
<g id="viewport">
<title>CustomUI.Quiz.QuizUI.Generate</title>
<polygon fill="white" stroke="transparent" points="-4,4 -4,-79 953,-79 953,4 -4,4"/>
<!-- Node1 -->
<g id="node1" class="node">
<title>Node1</title>
<g id="a_node1"><a xlink:title=" ">
<polygon fill="#bfbfbf" stroke="black" points="0,-28 0,-47 158,-47 158,-28 0,-28"/>
<text text-anchor="middle" x="79" y="-35" font-family="Helvetica,sans-Serif" font-size="10.00">CustomUI.Quiz.QuizUI.Generate</text>
</a>
</g>
</g>
<!-- Node2 -->
<g id="node2" class="node">
<title>Node2</title>
<g id="a_node2"><a xlink:href="class_quiz_1_1_quiz_solver.html#afc4ef823ad1220a4aea4f7d2f5cf23dd" target="_top" xlink:title="获取问题">
<polygon fill="white" stroke="black" points="194,-28 194,-47 361,-47 361,-28 194,-28"/>
<text text-anchor="middle" x="277.5" y="-35" font-family="Helvetica,sans-Serif" font-size="10.00">Quiz.QuizSolver.GetQuizSentence</text>
</a>
</g>
</g>
<!-- Node1&#45;&gt;Node2 -->
<g id="edge1" class="edge">
<title>Node1&#45;&gt;Node2</title>
<path fill="none" stroke="midnightblue" d="M158.23,-37.5C166.52,-37.5 175.01,-37.5 183.45,-37.5"/>
<polygon fill="midnightblue" stroke="midnightblue" points="183.71,-41 193.71,-37.5 183.71,-34 183.71,-41"/>
</g>
<!-- Node3 -->
<g id="node3" class="node">
<title>Node3</title>
<g id="a_node3"><a xlink:href="class_quiz_1_1_quiz_astral_body.html#a4aa95a8b5358b10d4b3d7220469f6c50" target="_top" xlink:title="获取星球条件文本">
<polygon fill="white" stroke="black" points="397,-22.5 397,-52.5 544,-52.5 544,-22.5 397,-22.5"/>
<text text-anchor="start" x="405" y="-40.5" font-family="Helvetica,sans-Serif" font-size="10.00">Quiz.QuizAstralBody.GetQuiz</text>
<text text-anchor="middle" x="470.5" y="-29.5" font-family="Helvetica,sans-Serif" font-size="10.00">ConditionString</text>
</a>
</g>
</g>
<!-- Node2&#45;&gt;Node3 -->
<g id="edge2" class="edge">
<title>Node2&#45;&gt;Node3</title>
<path fill="none" stroke="midnightblue" d="M361.16,-37.5C369.62,-37.5 378.22,-37.5 386.68,-37.5"/>
<polygon fill="midnightblue" stroke="midnightblue" points="386.91,-41 396.91,-37.5 386.91,-34 386.91,-41"/>
</g>
<!-- Node4 -->
<g id="node4" class="node">
<title>Node4</title>
<g id="a_node4"><a xlink:href="class_game_managers_1_1_game_manager.html#abeec4915d581418a152b1a07848333cd" target="_top" xlink:title="获取缩放系数">
<polygon fill="white" stroke="black" points="580,-50 580,-69 758,-69 758,-50 580,-50"/>
<text text-anchor="middle" x="669" y="-57" font-family="Helvetica,sans-Serif" font-size="10.00">GameManagers.GameManager.GetK</text>
</a>
</g>
</g>
<!-- Node3&#45;&gt;Node4 -->
<g id="edge3" class="edge">
<title>Node3&#45;&gt;Node4</title>
<path fill="none" stroke="midnightblue" d="M544.11,-45.63C553.52,-46.68 563.27,-47.77 572.98,-48.86"/>
<polygon fill="midnightblue" stroke="midnightblue" points="572.74,-52.36 583.07,-49.99 573.52,-45.4 572.74,-52.36"/>
</g>
<!-- Node6 -->
<g id="node6" class="node">
<title>Node6</title>
<g id="a_node6"><a xlink:href="class_space_physic_1_1_astral_body.html#a49a47294cf00916a50c42a62cda119f0" target="_top" xlink:title=" ">
<polygon fill="white" stroke="black" points="597,-0.5 597,-30.5 741,-30.5 741,-0.5 597,-0.5"/>
<text text-anchor="start" x="605" y="-18.5" font-family="Helvetica,sans-Serif" font-size="10.00">SpacePhysic.AstralBody.Get</text>
<text text-anchor="middle" x="669" y="-7.5" font-family="Helvetica,sans-Serif" font-size="10.00">Velocity</text>
</a>
</g>
</g>
<!-- Node3&#45;&gt;Node6 -->
<g id="edge5" class="edge">
<title>Node3&#45;&gt;Node6</title>
<path fill="none" stroke="midnightblue" d="M544.11,-29.37C558.01,-27.81 572.65,-26.18 586.8,-24.59"/>
<polygon fill="midnightblue" stroke="midnightblue" points="587.45,-28.04 597,-23.45 586.67,-21.08 587.45,-28.04"/>
</g>
<!-- Node5 -->
<g id="node5" class="node">
<title>Node5</title>
<g id="a_node5"><a xlink:href="class_game_managers_1_1_game_manager.html#ab809f66044771ece537c01978381610f" target="_top" xlink:title="计算质量缩放">
<polygon fill="white" stroke="black" points="794,-44.5 794,-74.5 949,-74.5 949,-44.5 794,-44.5"/>
<text text-anchor="start" x="802" y="-62.5" font-family="Helvetica,sans-Serif" font-size="10.00">GameManagers.GameManager.</text>
<text text-anchor="middle" x="871.5" y="-51.5" font-family="Helvetica,sans-Serif" font-size="10.00">CalculateMassScales</text>
</a>
</g>
</g>
<!-- Node4&#45;&gt;Node5 -->
<g id="edge4" class="edge">
<title>Node4&#45;&gt;Node5</title>
<path fill="none" stroke="midnightblue" d="M758.23,-59.5C766.67,-59.5 775.23,-59.5 783.66,-59.5"/>
<polygon fill="midnightblue" stroke="midnightblue" points="783.86,-63 793.86,-59.5 783.86,-56 783.86,-63"/>
</g>
</g>
</svg>
        <g id="navigator" transform="translate(0 0)" fill="#404254">
                <rect fill="#f2f5e9" fill-opacity="0.5" stroke="#606060" stroke-width=".5" x="0" y="0" width="60" height="60"/>
                <use id="zoomplus" xlink:href="#zoomPlus" x="17" y="9" onmousedown="handleZoom(evt,'in')"/>
                <use id="zoomminus" xlink:href="#zoomMin" x="42" y="9" onmousedown="handleZoom(evt,'out')"/>
                <use id="reset" xlink:href="#resetDef" x="30" y="36" onmousedown="handleReset()"/>
                <g id="arrowUp" xlink:href="#dirArrow" transform="translate(30 24)" onmousedown="handlePan(0,-1)">
                  <use xlink:href="#rim" fill="#404040">
                        <set attributeName="fill" to="#808080" begin="arrowUp.mouseover" end="arrowUp.mouseout"/>
                  </use>
                  <path fill="none" stroke="white" stroke-width="1.5" d="M0,-3.0v7 M-2.5,-0.5L0,-3.0L2.5,-0.5"/>
                </g>
                <g id="arrowRight" xlink:href="#dirArrow" transform="rotate(90) translate(36 -43)" onmousedown="handlePan(1,0)">
                  <use xlink:href="#rim" fill="#404040">
                        <set attributeName="fill" to="#808080" begin="arrowRight.mouseover" end="arrowRight.mouseout"/>
                  </use>
                  <path fill="none" stroke="white" stroke-width="1.5" d="M0,-3.0v7 M-2.5,-0.5L0,-3.0L2.5,-0.5"/>
                </g>
                <g id="arrowDown" xlink:href="#dirArrow" transform="rotate(180) translate(-30 -48)" onmousedown="handlePan(0,1)">
                  <use xlink:href="#rim" fill="#404040">
                        <set attributeName="fill" to="#808080" begin="arrowDown.mouseover" end="arrowDown.mouseout"/>
                  </use>
                  <path fill="none" stroke="white" stroke-width="1.5" d="M0,-3.0v7 M-2.5,-0.5L0,-3.0L2.5,-0.5"/>
                </g>
                <g id="arrowLeft" xlink:href="#dirArrow" transform="rotate(270) translate(-36 17)" onmousedown="handlePan(-1,0)">
                  <use xlink:href="#rim" fill="#404040">
                        <set attributeName="fill" to="#808080" begin="arrowLeft.mouseover" end="arrowLeft.mouseout"/>
                  </use>
                  <path fill="none" stroke="white" stroke-width="1.5" d="M0,-3.0v7 M-2.5,-0.5L0,-3.0L2.5,-0.5"/>
                </g>
        </g>
        <svg viewBox="0 0 15 15" width="100%" height="30px" preserveAspectRatio="xMaxYMin meet">
         <g id="arrow_out" transform="scale(0.3 0.3)">
          <a xlink:href="class_custom_u_i_1_1_quiz_1_1_quiz_u_i_ac238c7b368d3c183e8e479fc77c48d08_cgraph_org.svg" target="_base">
           <rect id="button" ry="5" rx="5" y="6" x="6" height="38" width="38"
                fill="#f2f5e9" fill-opacity="0.5" stroke="#606060" stroke-width="1.0"/>
           <path id="arrow"
             d="M 11.500037,31.436501 C 11.940474,20.09759 22.043105,11.32322 32.158766,21.979434 L 37.068811,17.246167 C 37.068811,17.246167 37.088388,32 37.088388,32 L 22.160133,31.978069 C 22.160133,31.978069 26.997745,27.140456 26.997745,27.140456 C 18.528582,18.264221 13.291696,25.230495 11.500037,31.436501 z"
             style="fill:#404040;"/>
          </a>
         </g>
        </svg>
</svg>
