<?xml version="1.0" encoding="UTF-8" standalone="no"?>
<!DOCTYPE svg PUBLIC "-//W3C//DTD SVG 1.1//EN"
 "http://www.w3.org/Graphics/SVG/1.1/DTD/svg11.dtd">
<!-- Generated by graphviz version 2.47.1 (20210417.1919)
 -->
<!-- Title: Quiz.QuizBase.LoadScene Pages: 1 -->
<svg width="493pt" height="78pt"
 viewBox="0.00 0.00 493.00 77.50" xmlns="http://www.w3.org/2000/svg" xmlns:xlink="http://www.w3.org/1999/xlink">
<g id="graph0" class="graph" transform="scale(1 1) rotate(0) translate(4 73.5)">
<title>Quiz.QuizBase.LoadScene</title>
<polygon fill="white" stroke="transparent" points="-4,4 -4,-73.5 489,-73.5 489,4 -4,4"/>
<!-- Node1 -->
<g id="node1" class="node">
<title>Node1</title>
<g id="a_node1"><a xlink:title=" ">
<polygon fill="#bfbfbf" stroke="black" points="0,-22.5 0,-41.5 134,-41.5 134,-22.5 0,-22.5"/>
<text text-anchor="middle" x="67" y="-29.5" font-family="Helvetica,sans-Serif" font-size="10.00">Quiz.QuizBase.LoadScene</text>
</a>
</g>
</g>
<!-- Node2 -->
<g id="node2" class="node">
<title>Node2</title>
<g id="a_node2"><a xlink:href="class_quiz_1_1_quiz_saver.html#a84ca11181f95abe30a8659dc75587dc6" target="_top" xlink:title="将XML转为问题">
<polygon fill="white" stroke="black" points="170,-39 170,-69 310,-69 310,-39 170,-39"/>
<text text-anchor="start" x="178" y="-57" font-family="Helvetica,sans-Serif" font-size="10.00">Quiz.QuizSaver.ConvertXml2</text>
<text text-anchor="middle" x="240" y="-46" font-family="Helvetica,sans-Serif" font-size="10.00">SceneBase</text>
</a>
</g>
</g>
<!-- Node1&#45;&gt;Node2 -->
<g id="edge1" class="edge">
<title>Node1&#45;&gt;Node2</title>
<path fill="none" stroke="midnightblue" d="M134.11,-40.51C142.56,-41.59 151.27,-42.71 159.89,-43.82"/>
<polygon fill="midnightblue" stroke="midnightblue" points="159.59,-47.31 169.95,-45.12 160.48,-40.37 159.59,-47.31"/>
</g>
<!-- Node3 -->
<g id="node3" class="node">
<title>Node3</title>
<g id="a_node3"><a xlink:href="class_quiz_1_1_quiz_saver.html#aef41fcd137b407a0a895105e32eba5fe" target="_top" xlink:title="读取XML文件">
<polygon fill="white" stroke="black" points="178,-0.5 178,-19.5 302,-19.5 302,-0.5 178,-0.5"/>
<text text-anchor="middle" x="240" y="-7.5" font-family="Helvetica,sans-Serif" font-size="10.00">Quiz.QuizSaver.LoadXml</text>
</a>
</g>
</g>
<!-- Node1&#45;&gt;Node3 -->
<g id="edge2" class="edge">
<title>Node1&#45;&gt;Node3</title>
<path fill="none" stroke="midnightblue" d="M134.11,-23.49C145.12,-22.08 156.58,-20.6 167.72,-19.17"/>
<polygon fill="midnightblue" stroke="midnightblue" points="168.35,-22.62 177.82,-17.87 167.46,-15.68 168.35,-22.62"/>
</g>
<!-- Node4 -->
<g id="node4" class="node">
<title>Node4</title>
<g id="a_node4"><a xlink:href="class_xml_saver_1_1_xml_saver.html#a054551363204272b7f5434a132e5835c" target="_top" xlink:title="加载XML">
<polygon fill="white" stroke="black" points="346,-0.5 346,-19.5 485,-19.5 485,-0.5 346,-0.5"/>
<text text-anchor="middle" x="415.5" y="-7.5" font-family="Helvetica,sans-Serif" font-size="10.00">XmlSaver.XmlSaver.LoadXml</text>
</a>
</g>
</g>
<!-- Node3&#45;&gt;Node4 -->
<g id="edge3" class="edge">
<title>Node3&#45;&gt;Node4</title>
<path fill="none" stroke="midnightblue" d="M302.17,-10C313,-10 324.42,-10 335.65,-10"/>
<polygon fill="midnightblue" stroke="midnightblue" points="335.9,-13.5 345.9,-10 335.9,-6.5 335.9,-13.5"/>
</g>
</g>
</svg>
