<?xml version="1.0" encoding="UTF-8" standalone="no"?>
<!DOCTYPE svg PUBLIC "-//W3C//DTD SVG 1.1//EN"
 "http://www.w3.org/Graphics/SVG/1.1/DTD/svg11.dtd">
<!-- Generated by graphviz version 2.47.1 (20210417.1919)
 -->
<!-- Title: Satellite.SatelliteController Pages: 1 -->
<!--zoomable 1236 -->
<svg id="main" version="1.1" xmlns="http://www.w3.org/2000/svg" xmlns:xlink="http://www.w3.org/1999/xlink" xml:space="preserve" onload="init(evt)">
<style type="text/css"><![CDATA[
.edge:hover path { stroke: red; }
.edge:hover polygon { stroke: red; fill: red; }
]]></style>
<script type="text/javascript"><![CDATA[
var edges = document.getElementsByTagName('g');
if (edges && edges.length) {
  for (var i=0;i<edges.length;i++) {
    if (edges[i].id.substr(0,4)=='edge') {
      edges[i].setAttribute('class','edge');
    }
  }
}
]]></script>
        <defs>
                <circle id="rim" cx="0" cy="0" r="7"/>
                <circle id="rim2" cx="0" cy="0" r="3.5"/>
                <g id="zoomPlus">
                        <use xlink:href="#rim" fill="#404040">
                                <set attributeName="fill" to="#808080" begin="zoomplus.mouseover" end="zoomplus.mouseout"/>
                        </use>
                        <path d="M-4,0h8M0,-4v8" fill="none" stroke="white" stroke-width="1.5" pointer-events="none"/>
                </g>
                <g id="zoomMin">
                        <use xlink:href="#rim" fill="#404040">
                                <set attributeName="fill" to="#808080" begin="zoomminus.mouseover" end="zoomminus.mouseout"/>
                        </use>
                        <path d="M-4,0h8" fill="none" stroke="white" stroke-width="1.5" pointer-events="none"/>
                </g>
                <g id="dirArrow">
                        <path fill="none" stroke="white" stroke-width="1.5" d="M0,-3.0v7 M-2.5,-0.5L0,-3.0L2.5,-0.5"/>
                </g>
               <g id="resetDef">
                       <use xlink:href="#rim2" fill="#404040">
                               <set attributeName="fill" to="#808080" begin="reset.mouseover" end="reset.mouseout"/>
                       </use>
               </g>
        </defs>

<script type="text/javascript">
var viewWidth = 416;
var viewHeight = 1236;
var sectionId = 'dynsection-1';
</script>
<script xlink:href="svgpan.js"/>
<svg id="graph" class="graph">
<g id="viewport">
<title>Satellite.SatelliteController</title>
<polygon fill="white" stroke="transparent" points="-4,4 -4,-1232 412,-1232 412,4 -4,4"/>
<!-- Node1 -->
<g id="node1" class="node">
<title>Node1</title>
<g id="a_node1"><a xlink:title="卫星控制器">
<polygon fill="#bfbfbf" stroke="black" points="0,-277.5 0,-367.5 131,-367.5 131,-277.5 0,-277.5"/>
<text text-anchor="middle" x="65.5" y="-355.5" font-family="Helvetica,sans-Serif" font-size="10.00">Satellite.SatelliteController</text>
<polyline fill="none" stroke="black" points="0,-348.5 131,-348.5 "/>
<text text-anchor="start" x="8" y="-336.5" font-family="Helvetica,sans-Serif" font-size="10.00">+ float angularSpeed</text>
<text text-anchor="start" x="8" y="-325.5" font-family="Helvetica,sans-Serif" font-size="10.00">+ float speed</text>
<polyline fill="none" stroke="black" points="0,-318.5 131,-318.5 "/>
<text text-anchor="start" x="8" y="-306.5" font-family="Helvetica,sans-Serif" font-size="10.00">+ void SetCurDirVelocity</text>
<text text-anchor="start" x="8" y="-295.5" font-family="Helvetica,sans-Serif" font-size="10.00">(float newSpeed)</text>
<text text-anchor="start" x="8" y="-284.5" font-family="Helvetica,sans-Serif" font-size="10.00">+ void SeparateControl()</text>
</a>
</g>
</g>
<!-- Node2 -->
<g id="node2" class="node">
<title>Node2</title>
<g id="a_node2"><a xlink:title=" ">
<polygon fill="white" stroke="#bfbfbf" points="119,-1121 119,-1178 202,-1178 202,-1121 119,-1121"/>
<text text-anchor="middle" x="160.5" y="-1166" font-family="Helvetica,sans-Serif" font-size="10.00">MonoBehaviour</text>
<polyline fill="none" stroke="#bfbfbf" points="119,-1159 202,-1159 "/>
<text text-anchor="middle" x="160.5" y="-1147" font-family="Helvetica,sans-Serif" font-size="10.00"> </text>
<polyline fill="none" stroke="#bfbfbf" points="119,-1140 202,-1140 "/>
<text text-anchor="middle" x="160.5" y="-1128" font-family="Helvetica,sans-Serif" font-size="10.00"> </text>
</a>
</g>
</g>
<!-- Node2&#45;&gt;Node1 -->
<g id="edge1" class="edge">
<title>Node2&#45;&gt;Node1</title>
<path fill="none" stroke="midnightblue" d="M128.86,-1113C111.97,-1091.7 92.79,-1063.14 83.5,-1034 6.56,-792.71 41.42,-481.61 58.27,-367.75"/>
<polygon fill="none" stroke="midnightblue" points="126.18,-1115.25 135.2,-1120.8 131.61,-1110.83 126.18,-1115.25"/>
</g>
<!-- Node3 -->
<g id="node3" class="node">
<title>Node3</title>
<g id="a_node3"><a xlink:href="class_satellite_1_1_satellite.html" target="_top" xlink:title="卫星整体">
<polygon fill="white" stroke="black" points="92.5,-701.5 92.5,-791.5 228.5,-791.5 228.5,-701.5 92.5,-701.5"/>
<text text-anchor="middle" x="160.5" y="-779.5" font-family="Helvetica,sans-Serif" font-size="10.00">Satellite.Satellite</text>
<polyline fill="none" stroke="black" points="92.5,-772.5 228.5,-772.5 "/>
<text text-anchor="start" x="100.5" y="-760.5" font-family="Helvetica,sans-Serif" font-size="10.00">+ List&lt; SatellitePart</text>
<text text-anchor="start" x="100.5" y="-749.5" font-family="Helvetica,sans-Serif" font-size="10.00"> &gt; satelliteParts</text>
<polyline fill="none" stroke="black" points="92.5,-742.5 228.5,-742.5 "/>
<text text-anchor="start" x="100.5" y="-730.5" font-family="Helvetica,sans-Serif" font-size="10.00">+ float GetMass()</text>
<text text-anchor="start" x="100.5" y="-719.5" font-family="Helvetica,sans-Serif" font-size="10.00">+ Transform GetTransform()</text>
<text text-anchor="start" x="100.5" y="-708.5" font-family="Helvetica,sans-Serif" font-size="10.00">+ Vector3 GetVelocity()</text>
</a>
</g>
</g>
<!-- Node2&#45;&gt;Node3 -->
<g id="edge3" class="edge">
<title>Node2&#45;&gt;Node3</title>
<path fill="none" stroke="midnightblue" d="M160.5,-1110.63C160.5,-1036.2 160.5,-871.17 160.5,-791.81"/>
<polygon fill="none" stroke="midnightblue" points="157,-1110.94 160.5,-1120.94 164,-1110.94 157,-1110.94"/>
</g>
<!-- Node7 -->
<g id="node7" class="node">
<title>Node7</title>
<g id="a_node7"><a xlink:href="class_space_physic_1_1_astral_body.html" target="_top" xlink:title="星体物理实体">
<polygon fill="white" stroke="black" points="247,-459.5 247,-1033.5 408,-1033.5 408,-459.5 247,-459.5"/>
<text text-anchor="middle" x="327.5" y="-1021.5" font-family="Helvetica,sans-Serif" font-size="10.00">AstralBody</text>
<polyline fill="none" stroke="black" points="247,-1014.5 408,-1014.5 "/>
<text text-anchor="start" x="255" y="-1002.5" font-family="Helvetica,sans-Serif" font-size="10.00">+ List&lt; AstralBody &gt;</text>
<text text-anchor="start" x="255" y="-991.5" font-family="Helvetica,sans-Serif" font-size="10.00"> affectedPlanets</text>
<text text-anchor="start" x="255" y="-980.5" font-family="Helvetica,sans-Serif" font-size="10.00">+ float affectRadius</text>
<text text-anchor="start" x="255" y="-969.5" font-family="Helvetica,sans-Serif" font-size="10.00">+ Vector3 angularVelocity</text>
<text text-anchor="start" x="255" y="-958.5" font-family="Helvetica,sans-Serif" font-size="10.00">+ List&lt; AstralBody &gt;</text>
<text text-anchor="start" x="255" y="-947.5" font-family="Helvetica,sans-Serif" font-size="10.00"> banAffectedPlanets</text>
<text text-anchor="start" x="255" y="-936.5" font-family="Helvetica,sans-Serif" font-size="10.00">+ SphereCollider defaultCollider</text>
<text text-anchor="start" x="255" y="-925.5" font-family="Helvetica,sans-Serif" font-size="10.00">+ bool enableAffect</text>
<text text-anchor="start" x="255" y="-914.5" font-family="Helvetica,sans-Serif" font-size="10.00">+ bool enableTracing</text>
<text text-anchor="start" x="255" y="-903.5" font-family="Helvetica,sans-Serif" font-size="10.00">+ Vector3 oriVelocity</text>
<text text-anchor="start" x="255" y="-892.5" font-family="Helvetica,sans-Serif" font-size="10.00">+ SphereCollider triggerCollider</text>
<text text-anchor="start" x="255" y="-881.5" font-family="Helvetica,sans-Serif" font-size="10.00">+ UnityEvent&lt; Vector3</text>
<text text-anchor="start" x="255" y="-870.5" font-family="Helvetica,sans-Serif" font-size="10.00"> &gt; velocityChangedEvent</text>
<text text-anchor="start" x="255" y="-859.5" font-family="Helvetica,sans-Serif" font-size="10.00">+ UnityEvent astralBodyDestroy</text>
<text text-anchor="start" x="255" y="-848.5" font-family="Helvetica,sans-Serif" font-size="10.00">Event</text>
<text text-anchor="start" x="255" y="-837.5" font-family="Helvetica,sans-Serif" font-size="10.00">+ bool isUseScaler</text>
<text text-anchor="start" x="255" y="-826.5" font-family="Helvetica,sans-Serif" font-size="10.00">+ float? Mass</text>
<text text-anchor="start" x="255" y="-815.5" font-family="Helvetica,sans-Serif" font-size="10.00">+ Rigidbody astralBodyRigidbody</text>
<text text-anchor="start" x="255" y="-804.5" font-family="Helvetica,sans-Serif" font-size="10.00">+ Vector3 Force</text>
<text text-anchor="start" x="255" y="-793.5" font-family="Helvetica,sans-Serif" font-size="10.00">+ float gravity</text>
<text text-anchor="start" x="255" y="-782.5" font-family="Helvetica,sans-Serif" font-size="10.00">+ int meshNum</text>
<text text-anchor="start" x="255" y="-771.5" font-family="Helvetica,sans-Serif" font-size="10.00">+ float size</text>
<text text-anchor="start" x="255" y="-760.5" font-family="Helvetica,sans-Serif" font-size="10.00">+ double realMass</text>
<text text-anchor="start" x="255" y="-749.5" font-family="Helvetica,sans-Serif" font-size="10.00">+ double density</text>
<text text-anchor="start" x="255" y="-738.5" font-family="Helvetica,sans-Serif" font-size="10.00">+ Vector3 lastVelocity</text>
<text text-anchor="start" x="255" y="-727.5" font-family="Helvetica,sans-Serif" font-size="10.00">+ bool isLoadDone</text>
<polyline fill="none" stroke="black" points="247,-720.5 408,-720.5 "/>
<text text-anchor="start" x="255" y="-708.5" font-family="Helvetica,sans-Serif" font-size="10.00">+ virtual void OnCollision</text>
<text text-anchor="start" x="255" y="-697.5" font-family="Helvetica,sans-Serif" font-size="10.00">Enter(Collision other)</text>
<text text-anchor="start" x="255" y="-686.5" font-family="Helvetica,sans-Serif" font-size="10.00">+ Transform GetTransform()</text>
<text text-anchor="start" x="255" y="-675.5" font-family="Helvetica,sans-Serif" font-size="10.00">+ Vector3 GetPosition()</text>
<text text-anchor="start" x="255" y="-664.5" font-family="Helvetica,sans-Serif" font-size="10.00">+ GameObject GetGameObject()</text>
<text text-anchor="start" x="255" y="-653.5" font-family="Helvetica,sans-Serif" font-size="10.00">+ bool GetEnableTracing()</text>
<text text-anchor="start" x="255" y="-642.5" font-family="Helvetica,sans-Serif" font-size="10.00">+ virtual float GetMass()</text>
<text text-anchor="start" x="255" y="-631.5" font-family="Helvetica,sans-Serif" font-size="10.00">+ Rigidbody GetRigidbody()</text>
<text text-anchor="start" x="255" y="-620.5" font-family="Helvetica,sans-Serif" font-size="10.00">+ Vector3 GetVelocity()</text>
<text text-anchor="start" x="255" y="-609.5" font-family="Helvetica,sans-Serif" font-size="10.00">+ List&lt; AstralBody &gt;</text>
<text text-anchor="start" x="255" y="-598.5" font-family="Helvetica,sans-Serif" font-size="10.00"> GetAffectedPlanets()</text>
<text text-anchor="start" x="255" y="-587.5" font-family="Helvetica,sans-Serif" font-size="10.00">+ AstralBody GetAstralBody()</text>
<text text-anchor="start" x="255" y="-576.5" font-family="Helvetica,sans-Serif" font-size="10.00">+ void ChangeVelocity</text>
<text text-anchor="start" x="255" y="-565.5" font-family="Helvetica,sans-Serif" font-size="10.00">(Vector3 velocity)</text>
<text text-anchor="start" x="255" y="-554.5" font-family="Helvetica,sans-Serif" font-size="10.00">+ void ChangeVelocity</text>
<text text-anchor="start" x="255" y="-543.5" font-family="Helvetica,sans-Serif" font-size="10.00">(double realSpeed)</text>
<text text-anchor="start" x="255" y="-532.5" font-family="Helvetica,sans-Serif" font-size="10.00">+ Vector3 CalculateForce()</text>
<text text-anchor="start" x="255" y="-521.5" font-family="Helvetica,sans-Serif" font-size="10.00">+ void SetCircleVelocity()</text>
<text text-anchor="start" x="255" y="-510.5" font-family="Helvetica,sans-Serif" font-size="10.00">+ void SetCircleVelocityMenu()</text>
<text text-anchor="start" x="255" y="-499.5" font-family="Helvetica,sans-Serif" font-size="10.00"># virtual void Start()</text>
<text text-anchor="start" x="255" y="-488.5" font-family="Helvetica,sans-Serif" font-size="10.00"># void Generate()</text>
<text text-anchor="start" x="255" y="-477.5" font-family="Helvetica,sans-Serif" font-size="10.00"># virtual void FixedUpdate()</text>
<text text-anchor="start" x="255" y="-466.5" font-family="Helvetica,sans-Serif" font-size="10.00"># virtual void SetMass()</text>
</a>
</g>
</g>
<!-- Node2&#45;&gt;Node7 -->
<g id="edge8" class="edge">
<title>Node2&#45;&gt;Node7</title>
<path fill="none" stroke="midnightblue" d="M188.7,-1112.43C204.69,-1090.66 224.12,-1061.83 237.5,-1034 240.72,-1027.3 243.86,-1020.47 246.92,-1013.52"/>
<polygon fill="none" stroke="midnightblue" points="185.7,-1110.59 182.54,-1120.71 191.32,-1114.78 185.7,-1110.59"/>
</g>
<!-- Node3&#45;&gt;Node1 -->
<g id="edge2" class="edge">
<title>Node3&#45;&gt;Node1</title>
<path fill="none" stroke="#404040" d="M150.51,-701.14C133.1,-623.79 97.22,-464.41 78.12,-379.55"/>
<polygon fill="none" stroke="#404040" points="78.06,-379.29 72.84,-374.32 75.42,-367.59 80.64,-372.56 78.06,-379.29"/>
<text text-anchor="middle" x="113" y="-433" font-family="Helvetica,sans-Serif" font-size="10.00"> +satellite</text>
</g>
<!-- Node4 -->
<g id="node4" class="node">
<title>Node4</title>
<g id="a_node4"><a xlink:href="class_satellite_1_1_satellite_core.html" target="_top" xlink:title="卫星核心">
<polygon fill="white" stroke="black" points="162.5,-0.5 162.5,-68.5 290.5,-68.5 290.5,-0.5 162.5,-0.5"/>
<text text-anchor="middle" x="226.5" y="-56.5" font-family="Helvetica,sans-Serif" font-size="10.00">Satellite.SatelliteCore</text>
<polyline fill="none" stroke="black" points="162.5,-49.5 290.5,-49.5 "/>
<text text-anchor="middle" x="226.5" y="-37.5" font-family="Helvetica,sans-Serif" font-size="10.00"> </text>
<polyline fill="none" stroke="black" points="162.5,-30.5 290.5,-30.5 "/>
<text text-anchor="start" x="170.5" y="-18.5" font-family="Helvetica,sans-Serif" font-size="10.00">+ override float GetMass()</text>
<text text-anchor="start" x="170.5" y="-7.5" font-family="Helvetica,sans-Serif" font-size="10.00"># void Awake()</text>
</a>
</g>
</g>
<!-- Node3&#45;&gt;Node4 -->
<g id="edge10" class="edge">
<title>Node3&#45;&gt;Node4</title>
<path fill="none" stroke="#404040" d="M155.57,-701.5C146.3,-608.63 130.04,-386.16 163.5,-204 171.53,-160.31 190.08,-113.16 204.99,-79.87"/>
<polygon fill="none" stroke="#404040" points="205.1,-79.62 203.95,-72.5 210.08,-68.71 211.23,-75.83 205.1,-79.62"/>
<text text-anchor="middle" x="185" y="-207" font-family="Helvetica,sans-Serif" font-size="10.00"> +satellite</text>
</g>
<!-- Node4&#45;&gt;Node3 -->
<g id="edge4" class="edge">
<title>Node4&#45;&gt;Node3</title>
<path fill="none" stroke="#404040" d="M223.4,-68.8C212.95,-181.25 178.88,-547.81 165.74,-689.18"/>
<polygon fill="none" stroke="#404040" points="165.71,-689.41 169.14,-695.75 164.6,-701.35 161.18,-695.01 165.71,-689.41"/>
<text text-anchor="middle" x="243.5" y="-207" font-family="Helvetica,sans-Serif" font-size="10.00"> +satelliteCore</text>
</g>
<!-- Node5 -->
<g id="node5" class="node">
<title>Node5</title>
<g id="a_node5"><a xlink:href="class_satellite_1_1_satellite_engine.html" target="_top" xlink:title="卫星引擎">
<polygon fill="white" stroke="black" points="255.5,-106.5 255.5,-185.5 377.5,-185.5 377.5,-106.5 255.5,-106.5"/>
<text text-anchor="middle" x="316.5" y="-173.5" font-family="Helvetica,sans-Serif" font-size="10.00">SatelliteEngine</text>
<polyline fill="none" stroke="black" points="255.5,-166.5 377.5,-166.5 "/>
<text text-anchor="start" x="263.5" y="-154.5" font-family="Helvetica,sans-Serif" font-size="10.00">+ int engineStage</text>
<polyline fill="none" stroke="black" points="255.5,-147.5 377.5,-147.5 "/>
<text text-anchor="start" x="263.5" y="-135.5" font-family="Helvetica,sans-Serif" font-size="10.00">+ void SetCurDirVelocity</text>
<text text-anchor="start" x="263.5" y="-124.5" font-family="Helvetica,sans-Serif" font-size="10.00">(float speed)</text>
<text text-anchor="start" x="263.5" y="-113.5" font-family="Helvetica,sans-Serif" font-size="10.00"># void Awake()</text>
</a>
</g>
</g>
<!-- Node5&#45;&gt;Node4 -->
<g id="edge5" class="edge">
<title>Node5&#45;&gt;Node4</title>
<path fill="none" stroke="midnightblue" d="M278.25,-98.47C270.02,-88.45 261.48,-78.06 253.77,-68.67"/>
<polygon fill="none" stroke="midnightblue" points="275.72,-100.89 284.77,-106.39 281.12,-96.45 275.72,-100.89"/>
</g>
<!-- Node6 -->
<g id="node6" class="node">
<title>Node6</title>
<g id="a_node6"><a xlink:href="class_satellite_1_1_satellite_part.html" target="_top" xlink:title="卫星部件">
<polygon fill="white" stroke="black" points="259,-233.5 259,-411.5 386,-411.5 386,-233.5 259,-233.5"/>
<text text-anchor="middle" x="322.5" y="-399.5" font-family="Helvetica,sans-Serif" font-size="10.00">SatellitePart</text>
<polyline fill="none" stroke="black" points="259,-392.5 386,-392.5 "/>
<text text-anchor="start" x="267" y="-380.5" font-family="Helvetica,sans-Serif" font-size="10.00">+ List&lt; SatellitePart</text>
<text text-anchor="start" x="267" y="-369.5" font-family="Helvetica,sans-Serif" font-size="10.00"> &gt; connectedPartList</text>
<text text-anchor="start" x="267" y="-358.5" font-family="Helvetica,sans-Serif" font-size="10.00">+ string satelliteName</text>
<text text-anchor="start" x="267" y="-347.5" font-family="Helvetica,sans-Serif" font-size="10.00">+ SatelliteType PartType</text>
<polyline fill="none" stroke="black" points="259,-340.5 386,-340.5 "/>
<text text-anchor="start" x="267" y="-328.5" font-family="Helvetica,sans-Serif" font-size="10.00">+ void Push(Vector3 dir)</text>
<text text-anchor="start" x="267" y="-317.5" font-family="Helvetica,sans-Serif" font-size="10.00">+ void Rotate(Vector3 dir)</text>
<text text-anchor="start" x="267" y="-306.5" font-family="Helvetica,sans-Serif" font-size="10.00">+ void GenerateJoint()</text>
<text text-anchor="start" x="267" y="-295.5" font-family="Helvetica,sans-Serif" font-size="10.00">+ void GetPartName()</text>
<text text-anchor="start" x="267" y="-284.5" font-family="Helvetica,sans-Serif" font-size="10.00">+ void Separate(string</text>
<text text-anchor="start" x="267" y="-273.5" font-family="Helvetica,sans-Serif" font-size="10.00"> partName)</text>
<text text-anchor="start" x="267" y="-262.5" font-family="Helvetica,sans-Serif" font-size="10.00">+ void Separate(bool</text>
<text text-anchor="start" x="267" y="-251.5" font-family="Helvetica,sans-Serif" font-size="10.00"> separateAll)</text>
<text text-anchor="start" x="267" y="-240.5" font-family="Helvetica,sans-Serif" font-size="10.00"># override void SetMass()</text>
</a>
</g>
</g>
<!-- Node6&#45;&gt;Node5 -->
<g id="edge6" class="edge">
<title>Node6&#45;&gt;Node5</title>
<path fill="none" stroke="midnightblue" d="M319.12,-223.29C318.67,-210.02 318.22,-197.09 317.83,-185.76"/>
<polygon fill="none" stroke="midnightblue" points="315.63,-223.61 319.47,-233.48 322.63,-223.37 315.63,-223.61"/>
</g>
<!-- Node7&#45;&gt;Node6 -->
<g id="edge7" class="edge">
<title>Node7&#45;&gt;Node6</title>
<path fill="none" stroke="midnightblue" d="M323.99,-449.23C323.83,-436.13 323.69,-423.55 323.55,-411.76"/>
<polygon fill="none" stroke="midnightblue" points="320.49,-449.39 324.11,-459.35 327.49,-449.31 320.49,-449.39"/>
</g>
<!-- Node8 -->
<g id="node8" class="node">
<title>Node8</title>
<g id="a_node8"><a xlink:href="interface_space_physic_1_1_i_traceable.html" target="_top" xlink:title="可追踪接口">
<polygon fill="white" stroke="black" points="247.5,-1071.5 247.5,-1227.5 407.5,-1227.5 407.5,-1071.5 247.5,-1071.5"/>
<text text-anchor="middle" x="327.5" y="-1215.5" font-family="Helvetica,sans-Serif" font-size="10.00">ITraceable</text>
<polyline fill="none" stroke="black" points="247.5,-1208.5 407.5,-1208.5 "/>
<text text-anchor="middle" x="327.5" y="-1196.5" font-family="Helvetica,sans-Serif" font-size="10.00"> </text>
<polyline fill="none" stroke="black" points="247.5,-1189.5 407.5,-1189.5 "/>
<text text-anchor="start" x="255.5" y="-1177.5" font-family="Helvetica,sans-Serif" font-size="10.00">+ Transform GetTransform()</text>
<text text-anchor="start" x="255.5" y="-1166.5" font-family="Helvetica,sans-Serif" font-size="10.00">+ Vector3 GetPosition()</text>
<text text-anchor="start" x="255.5" y="-1155.5" font-family="Helvetica,sans-Serif" font-size="10.00">+ GameObject GetGameObject()</text>
<text text-anchor="start" x="255.5" y="-1144.5" font-family="Helvetica,sans-Serif" font-size="10.00">+ bool GetEnableTracing()</text>
<text text-anchor="start" x="255.5" y="-1133.5" font-family="Helvetica,sans-Serif" font-size="10.00">+ float GetMass()</text>
<text text-anchor="start" x="255.5" y="-1122.5" font-family="Helvetica,sans-Serif" font-size="10.00">+ Rigidbody GetRigidbody()</text>
<text text-anchor="start" x="255.5" y="-1111.5" font-family="Helvetica,sans-Serif" font-size="10.00">+ Vector3 GetVelocity()</text>
<text text-anchor="start" x="255.5" y="-1100.5" font-family="Helvetica,sans-Serif" font-size="10.00">+ List&lt; AstralBody &gt;</text>
<text text-anchor="start" x="255.5" y="-1089.5" font-family="Helvetica,sans-Serif" font-size="10.00"> GetAffectedPlanets()</text>
<text text-anchor="start" x="255.5" y="-1078.5" font-family="Helvetica,sans-Serif" font-size="10.00">+ AstralBody GetAstralBody()</text>
</a>
</g>
</g>
<!-- Node8&#45;&gt;Node7 -->
<g id="edge9" class="edge">
<title>Node8&#45;&gt;Node7</title>
<path fill="none" stroke="midnightblue" d="M327.5,-1061.08C327.5,-1052.3 327.5,-1043.1 327.5,-1033.57"/>
<polygon fill="none" stroke="midnightblue" points="324,-1061.18 327.5,-1071.18 331,-1061.18 324,-1061.18"/>
</g>
</g>
</svg>
        <g id="navigator" transform="translate(0 0)" fill="#404254">
                <rect fill="#f2f5e9" fill-opacity="0.5" stroke="#606060" stroke-width=".5" x="0" y="0" width="60" height="60"/>
                <use id="zoomplus" xlink:href="#zoomPlus" x="17" y="9" onmousedown="handleZoom(evt,'in')"/>
                <use id="zoomminus" xlink:href="#zoomMin" x="42" y="9" onmousedown="handleZoom(evt,'out')"/>
                <use id="reset" xlink:href="#resetDef" x="30" y="36" onmousedown="handleReset()"/>
                <g id="arrowUp" xlink:href="#dirArrow" transform="translate(30 24)" onmousedown="handlePan(0,-1)">
                  <use xlink:href="#rim" fill="#404040">
                        <set attributeName="fill" to="#808080" begin="arrowUp.mouseover" end="arrowUp.mouseout"/>
                  </use>
                  <path fill="none" stroke="white" stroke-width="1.5" d="M0,-3.0v7 M-2.5,-0.5L0,-3.0L2.5,-0.5"/>
                </g>
                <g id="arrowRight" xlink:href="#dirArrow" transform="rotate(90) translate(36 -43)" onmousedown="handlePan(1,0)">
                  <use xlink:href="#rim" fill="#404040">
                        <set attributeName="fill" to="#808080" begin="arrowRight.mouseover" end="arrowRight.mouseout"/>
                  </use>
                  <path fill="none" stroke="white" stroke-width="1.5" d="M0,-3.0v7 M-2.5,-0.5L0,-3.0L2.5,-0.5"/>
                </g>
                <g id="arrowDown" xlink:href="#dirArrow" transform="rotate(180) translate(-30 -48)" onmousedown="handlePan(0,1)">
                  <use xlink:href="#rim" fill="#404040">
                        <set attributeName="fill" to="#808080" begin="arrowDown.mouseover" end="arrowDown.mouseout"/>
                  </use>
                  <path fill="none" stroke="white" stroke-width="1.5" d="M0,-3.0v7 M-2.5,-0.5L0,-3.0L2.5,-0.5"/>
                </g>
                <g id="arrowLeft" xlink:href="#dirArrow" transform="rotate(270) translate(-36 17)" onmousedown="handlePan(-1,0)">
                  <use xlink:href="#rim" fill="#404040">
                        <set attributeName="fill" to="#808080" begin="arrowLeft.mouseover" end="arrowLeft.mouseout"/>
                  </use>
                  <path fill="none" stroke="white" stroke-width="1.5" d="M0,-3.0v7 M-2.5,-0.5L0,-3.0L2.5,-0.5"/>
                </g>
        </g>
        <svg viewBox="0 0 15 15" width="100%" height="30px" preserveAspectRatio="xMaxYMin meet">
         <g id="arrow_out" transform="scale(0.3 0.3)">
          <a xlink:href="class_satellite_1_1_satellite_controller__coll__graph_org.svg" target="_base">
           <rect id="button" ry="5" rx="5" y="6" x="6" height="38" width="38"
                fill="#f2f5e9" fill-opacity="0.5" stroke="#606060" stroke-width="1.0"/>
           <path id="arrow"
             d="M 11.500037,31.436501 C 11.940474,20.09759 22.043105,11.32322 32.158766,21.979434 L 37.068811,17.246167 C 37.068811,17.246167 37.088388,32 37.088388,32 L 22.160133,31.978069 C 22.160133,31.978069 26.997745,27.140456 26.997745,27.140456 C 18.528582,18.264221 13.291696,25.230495 11.500037,31.436501 z"
             style="fill:#404040;"/>
          </a>
         </g>
        </svg>
</svg>
