<?xml version="1.0" encoding="UTF-8" standalone="no"?>
<!DOCTYPE svg PUBLIC "-//W3C//DTD SVG 1.1//EN"
 "http://www.w3.org/Graphics/SVG/1.1/DTD/svg11.dtd">
<!-- Generated by graphviz version 2.47.1 (20210417.1919)
 -->
<!-- Title: Quiz.QuizBaseStruct Pages: 1 -->
<svg width="178pt" height="321pt"
 viewBox="0.00 0.00 177.50 321.00" xmlns="http://www.w3.org/2000/svg" xmlns:xlink="http://www.w3.org/1999/xlink">
<g id="graph0" class="graph" transform="scale(1 1) rotate(0) translate(4 317)">
<title>Quiz.QuizBaseStruct</title>
<polygon fill="white" stroke="transparent" points="-4,4 -4,-317 173.5,-317 173.5,4 -4,4"/>
<!-- Node1 -->
<g id="node1" class="node">
<title>Node1</title>
<g id="a_node1"><a xlink:title="问题信息存储">
<polygon fill="#bfbfbf" stroke="black" points="25,-0.5 25,-57.5 134,-57.5 134,-0.5 25,-0.5"/>
<text text-anchor="middle" x="79.5" y="-45.5" font-family="Helvetica,sans-Serif" font-size="10.00">Quiz.QuizBaseStruct</text>
<polyline fill="none" stroke="black" points="25,-38.5 134,-38.5 "/>
<text text-anchor="start" x="33" y="-26.5" font-family="Helvetica,sans-Serif" font-size="10.00">+ QuizType quizType</text>
<polyline fill="none" stroke="black" points="25,-19.5 134,-19.5 "/>
<text text-anchor="middle" x="79.5" y="-7.5" font-family="Helvetica,sans-Serif" font-size="10.00"> </text>
</a>
</g>
</g>
<!-- Node2 -->
<g id="node2" class="node">
<title>Node2</title>
<g id="a_node2"><a xlink:href="class_xml_saver_1_1_scene_base_struct.html" target="_top" xlink:title=" ">
<polygon fill="white" stroke="black" points="5.5,-95.5 5.5,-185.5 153.5,-185.5 153.5,-95.5 5.5,-95.5"/>
<text text-anchor="start" x="13.5" y="-173.5" font-family="Helvetica,sans-Serif" font-size="10.00">SceneBaseStruct&lt; QuizAstral</text>
<text text-anchor="middle" x="79.5" y="-162.5" font-family="Helvetica,sans-Serif" font-size="10.00">Body &gt;</text>
<polyline fill="none" stroke="black" points="5.5,-155.5 153.5,-155.5 "/>
<text text-anchor="start" x="13.5" y="-143.5" font-family="Helvetica,sans-Serif" font-size="10.00">+ string sceneName</text>
<text text-anchor="start" x="13.5" y="-132.5" font-family="Helvetica,sans-Serif" font-size="10.00">+ List&lt; AstralBodyDataDict</text>
<text text-anchor="start" x="13.5" y="-121.5" font-family="Helvetica,sans-Serif" font-size="10.00">&lt; T &gt; &gt; astralBodyStructList</text>
<polyline fill="none" stroke="black" points="5.5,-114.5 153.5,-114.5 "/>
<text text-anchor="middle" x="79.5" y="-102.5" font-family="Helvetica,sans-Serif" font-size="10.00"> </text>
</a>
</g>
</g>
<!-- Node2&#45;&gt;Node1 -->
<g id="edge1" class="edge">
<title>Node2&#45;&gt;Node1</title>
<path fill="none" stroke="midnightblue" d="M79.5,-85.04C79.5,-75.56 79.5,-66.06 79.5,-57.69"/>
<polygon fill="none" stroke="midnightblue" points="76,-85.28 79.5,-95.28 83,-85.28 76,-85.28"/>
</g>
<!-- Node3 -->
<g id="node3" class="node">
<title>Node3</title>
<g id="a_node3"><a xlink:href="class_xml_saver_1_1_scene_base_struct.html" target="_top" xlink:title="场景信息存储">
<polygon fill="white" stroke="black" points="0,-233.5 0,-312.5 159,-312.5 159,-233.5 0,-233.5"/>
<text text-anchor="middle" x="79.5" y="-300.5" font-family="Helvetica,sans-Serif" font-size="10.00">XmlSaver.SceneBaseStruct&lt; T &gt;</text>
<polyline fill="none" stroke="black" points="0,-293.5 159,-293.5 "/>
<text text-anchor="start" x="8" y="-281.5" font-family="Helvetica,sans-Serif" font-size="10.00">+ string sceneName</text>
<text text-anchor="start" x="8" y="-270.5" font-family="Helvetica,sans-Serif" font-size="10.00">+ List&lt; AstralBodyDataDict</text>
<text text-anchor="start" x="8" y="-259.5" font-family="Helvetica,sans-Serif" font-size="10.00">&lt; T &gt; &gt; astralBodyStructList</text>
<polyline fill="none" stroke="black" points="0,-252.5 159,-252.5 "/>
<text text-anchor="middle" x="79.5" y="-240.5" font-family="Helvetica,sans-Serif" font-size="10.00"> </text>
</a>
</g>
</g>
<!-- Node3&#45;&gt;Node2 -->
<g id="edge2" class="edge">
<title>Node3&#45;&gt;Node2</title>
<path fill="none" stroke="orange" d="M79.5,-223.16C79.5,-210.93 79.5,-197.88 79.5,-185.88"/>
<polygon fill="orange" stroke="orange" points="76,-223.2 79.5,-233.2 83,-223.2 76,-223.2"/>
<text text-anchor="middle" x="124.5" y="-207" font-family="Helvetica,sans-Serif" font-size="10.00"> &lt; QuizAstralBody &gt;</text>
</g>
</g>
</svg>
