<?xml version="1.0" encoding="UTF-8" standalone="no"?>
<!DOCTYPE svg PUBLIC "-//W3C//DTD SVG 1.1//EN"
 "http://www.w3.org/Graphics/SVG/1.1/DTD/svg11.dtd">
<!-- Generated by graphviz version 2.47.1 (20210417.1919)
 -->
<!-- Title: XmlSaver.SceneLoadBase.GenerateAstralBodiesWithPrefab Pages: 1 -->
<svg width="535pt" height="186pt"
 viewBox="0.00 0.00 535.00 186.00" xmlns="http://www.w3.org/2000/svg" xmlns:xlink="http://www.w3.org/1999/xlink">
<g id="graph0" class="graph" transform="scale(1 1) rotate(0) translate(4 182)">
<title>XmlSaver.SceneLoadBase.GenerateAstralBodiesWithPrefab</title>
<polygon fill="white" stroke="transparent" points="-4,4 -4,-182 531,-182 531,4 -4,4"/>
<!-- Node1 -->
<g id="node1" class="node">
<title>Node1</title>
<g id="a_node1"><a xlink:title=" ">
<polygon fill="#bfbfbf" stroke="black" points="0,-73.5 0,-103.5 173,-103.5 173,-73.5 0,-73.5"/>
<text text-anchor="start" x="8" y="-91.5" font-family="Helvetica,sans-Serif" font-size="10.00">XmlSaver.SceneLoadBase.Generate</text>
<text text-anchor="middle" x="86.5" y="-80.5" font-family="Helvetica,sans-Serif" font-size="10.00">AstralBodiesWithPrefab</text>
</a>
</g>
</g>
<!-- Node2 -->
<g id="node2" class="node">
<title>Node2</title>
<g id="a_node2"><a xlink:href="class_space_physic_1_1_gravity_tracing.html#a3d63db3c84aef11ca64e85e99d32cbd3" target="_top" xlink:title="增加追踪实体">
<polygon fill="white" stroke="black" points="209,-73.5 209,-103.5 351,-103.5 351,-73.5 209,-73.5"/>
<text text-anchor="start" x="217" y="-91.5" font-family="Helvetica,sans-Serif" font-size="10.00">SpacePhysic.GravityTracing.</text>
<text text-anchor="middle" x="280" y="-80.5" font-family="Helvetica,sans-Serif" font-size="10.00">AddTracingTarget</text>
</a>
</g>
</g>
<!-- Node1&#45;&gt;Node2 -->
<g id="edge1" class="edge">
<title>Node1&#45;&gt;Node2</title>
<path fill="none" stroke="midnightblue" d="M173.17,-88.5C181.66,-88.5 190.27,-88.5 198.71,-88.5"/>
<polygon fill="midnightblue" stroke="midnightblue" points="198.9,-92 208.9,-88.5 198.9,-85 198.9,-92"/>
</g>
<!-- Node3 -->
<g id="node3" class="node">
<title>Node3</title>
<g id="a_node3"><a xlink:href="interface_space_physic_1_1_i_traceable.html#ac1691c3526225e0c42f1cfc696605730" target="_top" xlink:title=" ">
<polygon fill="white" stroke="black" points="387,-147.5 387,-177.5 527,-177.5 527,-147.5 387,-147.5"/>
<text text-anchor="start" x="395" y="-165.5" font-family="Helvetica,sans-Serif" font-size="10.00">SpacePhysic.ITraceable.Get</text>
<text text-anchor="middle" x="457" y="-154.5" font-family="Helvetica,sans-Serif" font-size="10.00">EnableTracing</text>
</a>
</g>
</g>
<!-- Node2&#45;&gt;Node3 -->
<g id="edge2" class="edge">
<title>Node2&#45;&gt;Node3</title>
<path fill="none" stroke="midnightblue" d="M310.78,-103.58C331.82,-113.98 360.82,-127.81 387,-138.5 391.46,-140.32 396.12,-142.13 400.82,-143.89"/>
<polygon fill="midnightblue" stroke="midnightblue" points="399.87,-147.27 410.46,-147.43 402.28,-140.7 399.87,-147.27"/>
</g>
<!-- Node4 -->
<g id="node4" class="node">
<title>Node4</title>
<g id="a_node4"><a xlink:href="interface_space_physic_1_1_i_traceable.html#aa78b28ab82f702a832d0004bd13eb227" target="_top" xlink:title=" ">
<polygon fill="white" stroke="black" points="387,-98.5 387,-128.5 527,-128.5 527,-98.5 387,-98.5"/>
<text text-anchor="start" x="395" y="-116.5" font-family="Helvetica,sans-Serif" font-size="10.00">SpacePhysic.ITraceable.Get</text>
<text text-anchor="middle" x="457" y="-105.5" font-family="Helvetica,sans-Serif" font-size="10.00">Rigidbody</text>
</a>
</g>
</g>
<!-- Node2&#45;&gt;Node4 -->
<g id="edge3" class="edge">
<title>Node2&#45;&gt;Node4</title>
<path fill="none" stroke="midnightblue" d="M351.17,-98.52C359.65,-99.74 368.35,-100.98 376.94,-102.21"/>
<polygon fill="midnightblue" stroke="midnightblue" points="376.56,-105.69 386.95,-103.64 377.55,-98.76 376.56,-105.69"/>
</g>
<!-- Node5 -->
<g id="node5" class="node">
<title>Node5</title>
<g id="a_node5"><a xlink:href="interface_space_physic_1_1_i_traceable.html#a53c8890effec964fa2245908e79016c4" target="_top" xlink:title=" ">
<polygon fill="white" stroke="black" points="387,-49.5 387,-79.5 527,-79.5 527,-49.5 387,-49.5"/>
<text text-anchor="start" x="395" y="-67.5" font-family="Helvetica,sans-Serif" font-size="10.00">SpacePhysic.ITraceable.Get</text>
<text text-anchor="middle" x="457" y="-56.5" font-family="Helvetica,sans-Serif" font-size="10.00">Transform</text>
</a>
</g>
</g>
<!-- Node2&#45;&gt;Node5 -->
<g id="edge4" class="edge">
<title>Node2&#45;&gt;Node5</title>
<path fill="none" stroke="midnightblue" d="M351.17,-78.88C359.65,-77.71 368.35,-76.52 376.94,-75.34"/>
<polygon fill="midnightblue" stroke="midnightblue" points="377.52,-78.8 386.95,-73.97 376.57,-71.86 377.52,-78.8"/>
</g>
<!-- Node6 -->
<g id="node6" class="node">
<title>Node6</title>
<g id="a_node6"><a xlink:href="interface_space_physic_1_1_i_traceable.html#a8c908476fbe6acf4aaf2e7594537dddb" target="_top" xlink:title=" ">
<polygon fill="white" stroke="black" points="387,-0.5 387,-30.5 527,-30.5 527,-0.5 387,-0.5"/>
<text text-anchor="start" x="395" y="-18.5" font-family="Helvetica,sans-Serif" font-size="10.00">SpacePhysic.ITraceable.Get</text>
<text text-anchor="middle" x="457" y="-7.5" font-family="Helvetica,sans-Serif" font-size="10.00">Velocity</text>
</a>
</g>
</g>
<!-- Node2&#45;&gt;Node6 -->
<g id="edge5" class="edge">
<title>Node2&#45;&gt;Node6</title>
<path fill="none" stroke="midnightblue" d="M312.73,-73.36C333.64,-63.56 361.74,-50.78 387,-40.5 392.16,-38.4 397.58,-36.29 403,-34.23"/>
<polygon fill="midnightblue" stroke="midnightblue" points="404.6,-37.37 412.74,-30.59 402.15,-30.81 404.6,-37.37"/>
</g>
</g>
</svg>
