<?xml version="1.0" encoding="UTF-8" standalone="no"?>
<!DOCTYPE svg PUBLIC "-//W3C//DTD SVG 1.1//EN"
 "http://www.w3.org/Graphics/SVG/1.1/DTD/svg11.dtd">
<!-- Generated by graphviz version 2.47.1 (20210417.1919)
 -->
<!-- Title: CustomUI.FreeSelectorUI Pages: 1 -->
<!--zoomable 592 -->
<svg id="main" version="1.1" xmlns="http://www.w3.org/2000/svg" xmlns:xlink="http://www.w3.org/1999/xlink" xml:space="preserve" onload="init(evt)">
<style type="text/css"><![CDATA[
.edge:hover path { stroke: red; }
.edge:hover polygon { stroke: red; fill: red; }
]]></style>
<script type="text/javascript"><![CDATA[
var edges = document.getElementsByTagName('g');
if (edges && edges.length) {
  for (var i=0;i<edges.length;i++) {
    if (edges[i].id.substr(0,4)=='edge') {
      edges[i].setAttribute('class','edge');
    }
  }
}
]]></script>
        <defs>
                <circle id="rim" cx="0" cy="0" r="7"/>
                <circle id="rim2" cx="0" cy="0" r="3.5"/>
                <g id="zoomPlus">
                        <use xlink:href="#rim" fill="#404040">
                                <set attributeName="fill" to="#808080" begin="zoomplus.mouseover" end="zoomplus.mouseout"/>
                        </use>
                        <path d="M-4,0h8M0,-4v8" fill="none" stroke="white" stroke-width="1.5" pointer-events="none"/>
                </g>
                <g id="zoomMin">
                        <use xlink:href="#rim" fill="#404040">
                                <set attributeName="fill" to="#808080" begin="zoomminus.mouseover" end="zoomminus.mouseout"/>
                        </use>
                        <path d="M-4,0h8" fill="none" stroke="white" stroke-width="1.5" pointer-events="none"/>
                </g>
                <g id="dirArrow">
                        <path fill="none" stroke="white" stroke-width="1.5" d="M0,-3.0v7 M-2.5,-0.5L0,-3.0L2.5,-0.5"/>
                </g>
               <g id="resetDef">
                       <use xlink:href="#rim2" fill="#404040">
                               <set attributeName="fill" to="#808080" begin="reset.mouseover" end="reset.mouseout"/>
                       </use>
               </g>
        </defs>

<script type="text/javascript">
var viewWidth = 398;
var viewHeight = 592;
var sectionId = 'dynsection-1';
</script>
<script xlink:href="svgpan.js"/>
<svg id="graph" class="graph">
<g id="viewport">
<title>CustomUI.FreeSelectorUI</title>
<polygon fill="white" stroke="transparent" points="-4,4 -4,-588 393.5,-588 393.5,4 -4,4"/>
<!-- Node1 -->
<g id="node1" class="node">
<title>Node1</title>
<g id="a_node1"><a xlink:title=" ">
<polygon fill="#bfbfbf" stroke="black" points="56,-0.5 56,-90.5 231,-90.5 231,-0.5 56,-0.5"/>
<text text-anchor="middle" x="143.5" y="-78.5" font-family="Helvetica,sans-Serif" font-size="10.00">CustomUI.FreeSelectorUI</text>
<polyline fill="none" stroke="black" points="56,-71.5 231,-71.5 "/>
<text text-anchor="start" x="64" y="-59.5" font-family="Helvetica,sans-Serif" font-size="10.00">+ GameObject informationPanel</text>
<text text-anchor="start" x="64" y="-48.5" font-family="Helvetica,sans-Serif" font-size="10.00">+ List&lt; StarInfoMap &gt;</text>
<text text-anchor="start" x="64" y="-37.5" font-family="Helvetica,sans-Serif" font-size="10.00"> starInfoMaps</text>
<text text-anchor="start" x="64" y="-26.5" font-family="Helvetica,sans-Serif" font-size="10.00">+ GameObject selectedGameObject</text>
<polyline fill="none" stroke="black" points="56,-19.5 231,-19.5 "/>
<text text-anchor="start" x="64" y="-7.5" font-family="Helvetica,sans-Serif" font-size="10.00">+ void Update()</text>
</a>
</g>
</g>
<!-- Node2 -->
<g id="node2" class="node">
<title>Node2</title>
<g id="a_node2"><a xlink:title=" ">
<polygon fill="white" stroke="#bfbfbf" points="0,-526.5 0,-583.5 83,-583.5 83,-526.5 0,-526.5"/>
<text text-anchor="middle" x="41.5" y="-571.5" font-family="Helvetica,sans-Serif" font-size="10.00">MonoBehaviour</text>
<polyline fill="none" stroke="#bfbfbf" points="0,-564.5 83,-564.5 "/>
<text text-anchor="middle" x="41.5" y="-552.5" font-family="Helvetica,sans-Serif" font-size="10.00"> </text>
<polyline fill="none" stroke="#bfbfbf" points="0,-545.5 83,-545.5 "/>
<text text-anchor="middle" x="41.5" y="-533.5" font-family="Helvetica,sans-Serif" font-size="10.00"> </text>
</a>
</g>
</g>
<!-- Node2&#45;&gt;Node1 -->
<g id="edge1" class="edge">
<title>Node2&#45;&gt;Node1</title>
<path fill="none" stroke="midnightblue" d="M35.61,-516.43C26.57,-449.62 13.72,-306.5 48.5,-193 60.05,-155.32 84.36,-118.13 105.5,-90.65"/>
<polygon fill="none" stroke="midnightblue" points="32.16,-517.07 37.02,-526.48 39.09,-516.09 32.16,-517.07"/>
</g>
<!-- Node5 -->
<g id="node5" class="node">
<title>Node5</title>
<g id="a_node5"><a xlink:href="class_custom_post_processing_1_1_custom_post_processing_base.html" target="_top" xlink:title="自定义后处理">
<polygon fill="white" stroke="black" points="57.5,-409.5 57.5,-488.5 199.5,-488.5 199.5,-409.5 57.5,-409.5"/>
<text text-anchor="middle" x="128.5" y="-476.5" font-family="Helvetica,sans-Serif" font-size="10.00">CustomPostProcessingBase</text>
<polyline fill="none" stroke="black" points="57.5,-469.5 199.5,-469.5 "/>
<text text-anchor="start" x="65.5" y="-457.5" font-family="Helvetica,sans-Serif" font-size="10.00">+ Camera mainCamera</text>
<polyline fill="none" stroke="black" points="57.5,-450.5 199.5,-450.5 "/>
<text text-anchor="start" x="65.5" y="-438.5" font-family="Helvetica,sans-Serif" font-size="10.00"># Material GenerateMaterial</text>
<text text-anchor="start" x="65.5" y="-427.5" font-family="Helvetica,sans-Serif" font-size="10.00">(Shader shader, ref Material</text>
<text text-anchor="start" x="65.5" y="-416.5" font-family="Helvetica,sans-Serif" font-size="10.00"> targetMaterial)</text>
</a>
</g>
</g>
<!-- Node2&#45;&gt;Node5 -->
<g id="edge5" class="edge">
<title>Node2&#45;&gt;Node5</title>
<path fill="none" stroke="midnightblue" d="M71.15,-518.56C79.2,-508.94 87.95,-498.48 96.14,-488.69"/>
<polygon fill="none" stroke="midnightblue" points="68.32,-516.49 64.59,-526.4 73.69,-520.98 68.32,-516.49"/>
</g>
<!-- Node3 -->
<g id="node3" class="node">
<title>Node3</title>
<g id="a_node3"><a xlink:title=" ">
<polygon fill="white" stroke="#bfbfbf" points="248,-254 248,-311 283,-311 283,-254 248,-254"/>
<text text-anchor="middle" x="265.5" y="-299" font-family="Helvetica,sans-Serif" font-size="10.00">Text</text>
<polyline fill="none" stroke="#bfbfbf" points="248,-292 283,-292 "/>
<text text-anchor="middle" x="265.5" y="-280" font-family="Helvetica,sans-Serif" font-size="10.00"> </text>
<polyline fill="none" stroke="#bfbfbf" points="248,-273 283,-273 "/>
<text text-anchor="middle" x="265.5" y="-261" font-family="Helvetica,sans-Serif" font-size="10.00"> </text>
</a>
</g>
</g>
<!-- Node3&#45;&gt;Node1 -->
<g id="edge2" class="edge">
<title>Node3&#45;&gt;Node1</title>
<path fill="none" stroke="#404040" d="M263.34,-253.7C259.44,-217.75 248.67,-154.36 219.5,-109 217.49,-105.87 215.26,-102.82 212.88,-99.85"/>
<polygon fill="none" stroke="#404040" points="212.75,-99.7 205.78,-97.85 204.81,-90.71 211.78,-92.56 212.75,-99.7"/>
<text text-anchor="middle" x="288" y="-167" font-family="Helvetica,sans-Serif" font-size="10.00"> +starDayTimeText</text>
<text text-anchor="middle" x="288" y="-156" font-family="Helvetica,sans-Serif" font-size="10.00">+starGravityText</text>
<text text-anchor="middle" x="288" y="-145" font-family="Helvetica,sans-Serif" font-size="10.00">+starMassText</text>
<text text-anchor="middle" x="288" y="-134" font-family="Helvetica,sans-Serif" font-size="10.00">+starNameText</text>
<text text-anchor="middle" x="288" y="-123" font-family="Helvetica,sans-Serif" font-size="10.00">+starRadiusText</text>
<text text-anchor="middle" x="288" y="-112" font-family="Helvetica,sans-Serif" font-size="10.00">+starYearTimeText</text>
</g>
<!-- Node4 -->
<g id="node4" class="node">
<title>Node4</title>
<g id="a_node4"><a xlink:href="class_custom_post_processing_1_1_outline_catcher.html" target="_top" xlink:title="描边抓取">
<polygon fill="white" stroke="black" points="57.5,-193.5 57.5,-371.5 229.5,-371.5 229.5,-193.5 57.5,-193.5"/>
<text text-anchor="start" x="65.5" y="-359.5" font-family="Helvetica,sans-Serif" font-size="10.00">CustomPostProcessing.Outline</text>
<text text-anchor="middle" x="143.5" y="-348.5" font-family="Helvetica,sans-Serif" font-size="10.00">Catcher</text>
<polyline fill="none" stroke="black" points="57.5,-341.5 229.5,-341.5 "/>
<text text-anchor="start" x="65.5" y="-329.5" font-family="Helvetica,sans-Serif" font-size="10.00">+ Color backgroundColor</text>
<text text-anchor="start" x="65.5" y="-318.5" font-family="Helvetica,sans-Serif" font-size="10.00">+ Color edgeColor</text>
<text text-anchor="start" x="65.5" y="-307.5" font-family="Helvetica,sans-Serif" font-size="10.00">+ float edgeOnly</text>
<text text-anchor="start" x="65.5" y="-296.5" font-family="Helvetica,sans-Serif" font-size="10.00">+ float edgeSize</text>
<text text-anchor="start" x="65.5" y="-285.5" font-family="Helvetica,sans-Serif" font-size="10.00">+ Camera outlineCamera</text>
<text text-anchor="start" x="65.5" y="-274.5" font-family="Helvetica,sans-Serif" font-size="10.00">+ Shader outlineShader</text>
<text text-anchor="start" x="65.5" y="-263.5" font-family="Helvetica,sans-Serif" font-size="10.00">+ Material outlineMaterial</text>
<polyline fill="none" stroke="black" points="57.5,-256.5 229.5,-256.5 "/>
<text text-anchor="start" x="65.5" y="-244.5" font-family="Helvetica,sans-Serif" font-size="10.00">+ RenderTexture GetRenderResult()</text>
<text text-anchor="start" x="65.5" y="-233.5" font-family="Helvetica,sans-Serif" font-size="10.00">+ void AddTarget(GameObject</text>
<text text-anchor="start" x="65.5" y="-222.5" font-family="Helvetica,sans-Serif" font-size="10.00"> target)</text>
<text text-anchor="start" x="65.5" y="-211.5" font-family="Helvetica,sans-Serif" font-size="10.00">+ void RemoveTarget(GameObject</text>
<text text-anchor="start" x="65.5" y="-200.5" font-family="Helvetica,sans-Serif" font-size="10.00"> target)</text>
</a>
</g>
</g>
<!-- Node4&#45;&gt;Node1 -->
<g id="edge3" class="edge">
<title>Node4&#45;&gt;Node1</title>
<path fill="none" stroke="#404040" d="M143.5,-193.33C143.5,-162.94 143.5,-129.77 143.5,-102.65"/>
<polygon fill="none" stroke="#404040" points="143.5,-102.65 139.5,-96.65 143.5,-90.65 147.5,-96.65 143.5,-102.65"/>
<text text-anchor="middle" x="179.5" y="-139.5" font-family="Helvetica,sans-Serif" font-size="10.00"> +outlineCatcher</text>
</g>
<!-- Node5&#45;&gt;Node4 -->
<g id="edge4" class="edge">
<title>Node5&#45;&gt;Node4</title>
<path fill="none" stroke="midnightblue" d="M132.93,-399.39C133.74,-390.56 134.6,-381.11 135.47,-371.55"/>
<polygon fill="none" stroke="midnightblue" points="129.44,-399.16 132.02,-409.43 136.41,-399.79 129.44,-399.16"/>
</g>
<!-- Node6 -->
<g id="node6" class="node">
<title>Node6</title>
<g id="a_node6"><a xlink:href="interface_custom_post_processing_1_1_i_render_tex_outer.html" target="_top" xlink:title="RenderTexture输出接口">
<polygon fill="white" stroke="black" points="217.5,-420.5 217.5,-477.5 389.5,-477.5 389.5,-420.5 217.5,-420.5"/>
<text text-anchor="middle" x="303.5" y="-465.5" font-family="Helvetica,sans-Serif" font-size="10.00">IRenderTexOuter</text>
<polyline fill="none" stroke="black" points="217.5,-458.5 389.5,-458.5 "/>
<text text-anchor="middle" x="303.5" y="-446.5" font-family="Helvetica,sans-Serif" font-size="10.00"> </text>
<polyline fill="none" stroke="black" points="217.5,-439.5 389.5,-439.5 "/>
<text text-anchor="start" x="225.5" y="-427.5" font-family="Helvetica,sans-Serif" font-size="10.00">+ RenderTexture GetRenderResult()</text>
</a>
</g>
</g>
<!-- Node6&#45;&gt;Node4 -->
<g id="edge6" class="edge">
<title>Node6&#45;&gt;Node4</title>
<path fill="none" stroke="midnightblue" d="M269.54,-413.08C257.54,-400.74 243.44,-386.25 229.1,-371.51"/>
<polygon fill="none" stroke="midnightblue" points="267.24,-415.74 276.72,-420.47 272.26,-410.86 267.24,-415.74"/>
</g>
</g>
</svg>
        <g id="navigator" transform="translate(0 0)" fill="#404254">
                <rect fill="#f2f5e9" fill-opacity="0.5" stroke="#606060" stroke-width=".5" x="0" y="0" width="60" height="60"/>
                <use id="zoomplus" xlink:href="#zoomPlus" x="17" y="9" onmousedown="handleZoom(evt,'in')"/>
                <use id="zoomminus" xlink:href="#zoomMin" x="42" y="9" onmousedown="handleZoom(evt,'out')"/>
                <use id="reset" xlink:href="#resetDef" x="30" y="36" onmousedown="handleReset()"/>
                <g id="arrowUp" xlink:href="#dirArrow" transform="translate(30 24)" onmousedown="handlePan(0,-1)">
                  <use xlink:href="#rim" fill="#404040">
                        <set attributeName="fill" to="#808080" begin="arrowUp.mouseover" end="arrowUp.mouseout"/>
                  </use>
                  <path fill="none" stroke="white" stroke-width="1.5" d="M0,-3.0v7 M-2.5,-0.5L0,-3.0L2.5,-0.5"/>
                </g>
                <g id="arrowRight" xlink:href="#dirArrow" transform="rotate(90) translate(36 -43)" onmousedown="handlePan(1,0)">
                  <use xlink:href="#rim" fill="#404040">
                        <set attributeName="fill" to="#808080" begin="arrowRight.mouseover" end="arrowRight.mouseout"/>
                  </use>
                  <path fill="none" stroke="white" stroke-width="1.5" d="M0,-3.0v7 M-2.5,-0.5L0,-3.0L2.5,-0.5"/>
                </g>
                <g id="arrowDown" xlink:href="#dirArrow" transform="rotate(180) translate(-30 -48)" onmousedown="handlePan(0,1)">
                  <use xlink:href="#rim" fill="#404040">
                        <set attributeName="fill" to="#808080" begin="arrowDown.mouseover" end="arrowDown.mouseout"/>
                  </use>
                  <path fill="none" stroke="white" stroke-width="1.5" d="M0,-3.0v7 M-2.5,-0.5L0,-3.0L2.5,-0.5"/>
                </g>
                <g id="arrowLeft" xlink:href="#dirArrow" transform="rotate(270) translate(-36 17)" onmousedown="handlePan(-1,0)">
                  <use xlink:href="#rim" fill="#404040">
                        <set attributeName="fill" to="#808080" begin="arrowLeft.mouseover" end="arrowLeft.mouseout"/>
                  </use>
                  <path fill="none" stroke="white" stroke-width="1.5" d="M0,-3.0v7 M-2.5,-0.5L0,-3.0L2.5,-0.5"/>
                </g>
        </g>
        <svg viewBox="0 0 15 15" width="100%" height="30px" preserveAspectRatio="xMaxYMin meet">
         <g id="arrow_out" transform="scale(0.3 0.3)">
          <a xlink:href="class_custom_u_i_1_1_free_selector_u_i__coll__graph_org.svg" target="_base">
           <rect id="button" ry="5" rx="5" y="6" x="6" height="38" width="38"
                fill="#f2f5e9" fill-opacity="0.5" stroke="#606060" stroke-width="1.0"/>
           <path id="arrow"
             d="M 11.500037,31.436501 C 11.940474,20.09759 22.043105,11.32322 32.158766,21.979434 L 37.068811,17.246167 C 37.068811,17.246167 37.088388,32 37.088388,32 L 22.160133,31.978069 C 22.160133,31.978069 26.997745,27.140456 26.997745,27.140456 C 18.528582,18.264221 13.291696,25.230495 11.500037,31.436501 z"
             style="fill:#404040;"/>
          </a>
         </g>
        </svg>
</svg>
