<?xml version="1.0" encoding="UTF-8" standalone="no"?>
<!DOCTYPE svg PUBLIC "-//W3C//DTD SVG 1.1//EN"
 "http://www.w3.org/Graphics/SVG/1.1/DTD/svg11.dtd">
<!-- Generated by graphviz version 2.47.1 (20210417.1919)
 -->
<!-- Title: CustomUI.VectorUI Pages: 1 -->
<svg width="144pt" height="226pt"
 viewBox="0.00 0.00 144.00 226.00" xmlns="http://www.w3.org/2000/svg" xmlns:xlink="http://www.w3.org/1999/xlink">
<g id="graph0" class="graph" transform="scale(1 1) rotate(0) translate(4 222)">
<title>CustomUI.VectorUI</title>
<polygon fill="white" stroke="transparent" points="-4,4 -4,-222 140,-222 140,4 -4,4"/>
<!-- Node1 -->
<g id="node1" class="node">
<title>Node1</title>
<g id="a_node1"><a xlink:title=" ">
<polygon fill="#bfbfbf" stroke="black" points="0,-0.5 0,-123.5 136,-123.5 136,-0.5 0,-0.5"/>
<text text-anchor="middle" x="68" y="-111.5" font-family="Helvetica,sans-Serif" font-size="10.00">CustomUI.VectorUI</text>
<polyline fill="none" stroke="black" points="0,-104.5 136,-104.5 "/>
<text text-anchor="start" x="8" y="-92.5" font-family="Helvetica,sans-Serif" font-size="10.00">+ AstralBody astralBody</text>
<text text-anchor="start" x="8" y="-81.5" font-family="Helvetica,sans-Serif" font-size="10.00">+ string header</text>
<text text-anchor="start" x="8" y="-70.5" font-family="Helvetica,sans-Serif" font-size="10.00">+ float showSize</text>
<text text-anchor="start" x="8" y="-59.5" font-family="Helvetica,sans-Serif" font-size="10.00">+ vectorType thisType</text>
<text text-anchor="start" x="8" y="-48.5" font-family="Helvetica,sans-Serif" font-size="10.00">+ string unit</text>
<text text-anchor="start" x="8" y="-37.5" font-family="Helvetica,sans-Serif" font-size="10.00">+ LineRenderer vectorArrow</text>
<text text-anchor="start" x="8" y="-26.5" font-family="Helvetica,sans-Serif" font-size="10.00">+ Text vectorText</text>
<polyline fill="none" stroke="black" points="0,-19.5 136,-19.5 "/>
<text text-anchor="middle" x="68" y="-7.5" font-family="Helvetica,sans-Serif" font-size="10.00"> </text>
</a>
</g>
</g>
<!-- Node2 -->
<g id="node2" class="node">
<title>Node2</title>
<g id="a_node2"><a xlink:title=" ">
<polygon fill="white" stroke="#bfbfbf" points="26.5,-160.5 26.5,-217.5 109.5,-217.5 109.5,-160.5 26.5,-160.5"/>
<text text-anchor="middle" x="68" y="-205.5" font-family="Helvetica,sans-Serif" font-size="10.00">MonoBehaviour</text>
<polyline fill="none" stroke="#bfbfbf" points="26.5,-198.5 109.5,-198.5 "/>
<text text-anchor="middle" x="68" y="-186.5" font-family="Helvetica,sans-Serif" font-size="10.00"> </text>
<polyline fill="none" stroke="#bfbfbf" points="26.5,-179.5 109.5,-179.5 "/>
<text text-anchor="middle" x="68" y="-167.5" font-family="Helvetica,sans-Serif" font-size="10.00"> </text>
</a>
</g>
</g>
<!-- Node2&#45;&gt;Node1 -->
<g id="edge1" class="edge">
<title>Node2&#45;&gt;Node1</title>
<path fill="none" stroke="midnightblue" d="M68,-150.1C68,-141.74 68,-132.68 68,-123.67"/>
<polygon fill="none" stroke="midnightblue" points="64.5,-150.26 68,-160.26 71.5,-150.26 64.5,-150.26"/>
</g>
</g>
</svg>
