<?xml version="1.0" encoding="UTF-8" standalone="no"?>
<!DOCTYPE svg PUBLIC "-//W3C//DTD SVG 1.1//EN"
 "http://www.w3.org/Graphics/SVG/1.1/DTD/svg11.dtd">
<!-- Generated by graphviz version 2.47.1 (20210417.1919)
 -->
<!-- Title: Satellite.Satellite Pages: 1 -->
<svg width="146pt" height="204pt"
 viewBox="0.00 0.00 146.00 204.00" xmlns="http://www.w3.org/2000/svg" xmlns:xlink="http://www.w3.org/1999/xlink">
<g id="graph0" class="graph" transform="scale(1 1) rotate(0) translate(4 200)">
<title>Satellite.Satellite</title>
<polygon fill="white" stroke="transparent" points="-4,4 -4,-200 142,-200 142,4 -4,4"/>
<!-- Node1 -->
<g id="node1" class="node">
<title>Node1</title>
<g id="a_node1"><a xlink:title="卫星整体">
<polygon fill="#bfbfbf" stroke="black" points="0,-0.5 0,-101.5 138,-101.5 138,-0.5 0,-0.5"/>
<text text-anchor="middle" x="69" y="-89.5" font-family="Helvetica,sans-Serif" font-size="10.00">Satellite.Satellite</text>
<polyline fill="none" stroke="black" points="0,-82.5 138,-82.5 "/>
<text text-anchor="start" x="8" y="-70.5" font-family="Helvetica,sans-Serif" font-size="10.00">+ SatelliteCore satelliteCore</text>
<text text-anchor="start" x="8" y="-59.5" font-family="Helvetica,sans-Serif" font-size="10.00">+ List&lt; SatellitePart</text>
<text text-anchor="start" x="8" y="-48.5" font-family="Helvetica,sans-Serif" font-size="10.00"> &gt; satelliteParts</text>
<polyline fill="none" stroke="black" points="0,-41.5 138,-41.5 "/>
<text text-anchor="start" x="8" y="-29.5" font-family="Helvetica,sans-Serif" font-size="10.00">+ float GetMass()</text>
<text text-anchor="start" x="8" y="-18.5" font-family="Helvetica,sans-Serif" font-size="10.00">+ Transform GetTransform()</text>
<text text-anchor="start" x="8" y="-7.5" font-family="Helvetica,sans-Serif" font-size="10.00">+ Vector3 GetVelocity()</text>
</a>
</g>
</g>
<!-- Node2 -->
<g id="node2" class="node">
<title>Node2</title>
<g id="a_node2"><a xlink:title=" ">
<polygon fill="white" stroke="#bfbfbf" points="27.5,-138.5 27.5,-195.5 110.5,-195.5 110.5,-138.5 27.5,-138.5"/>
<text text-anchor="middle" x="69" y="-183.5" font-family="Helvetica,sans-Serif" font-size="10.00">MonoBehaviour</text>
<polyline fill="none" stroke="#bfbfbf" points="27.5,-176.5 110.5,-176.5 "/>
<text text-anchor="middle" x="69" y="-164.5" font-family="Helvetica,sans-Serif" font-size="10.00"> </text>
<polyline fill="none" stroke="#bfbfbf" points="27.5,-157.5 110.5,-157.5 "/>
<text text-anchor="middle" x="69" y="-145.5" font-family="Helvetica,sans-Serif" font-size="10.00"> </text>
</a>
</g>
</g>
<!-- Node2&#45;&gt;Node1 -->
<g id="edge1" class="edge">
<title>Node2&#45;&gt;Node1</title>
<path fill="none" stroke="midnightblue" d="M69,-128.35C69,-119.8 69,-110.58 69,-101.61"/>
<polygon fill="none" stroke="midnightblue" points="65.5,-128.4 69,-138.4 72.5,-128.4 65.5,-128.4"/>
</g>
</g>
</svg>
