<?xml version="1.0" encoding="UTF-8" standalone="no"?>
<!DOCTYPE svg PUBLIC "-//W3C//DTD SVG 1.1//EN"
 "http://www.w3.org/Graphics/SVG/1.1/DTD/svg11.dtd">
<!-- Generated by graphviz version 2.47.1 (20210417.1919)
 -->
<!-- Title: CustomUI.Tutorial.MultiTutorialManagerUI Pages: 1 -->
<svg width="265pt" height="493pt"
 viewBox="0.00 0.00 265.00 493.00" xmlns="http://www.w3.org/2000/svg" xmlns:xlink="http://www.w3.org/1999/xlink">
<g id="graph0" class="graph" transform="scale(1 1) rotate(0) translate(4 489)">
<title>CustomUI.Tutorial.MultiTutorialManagerUI</title>
<polygon fill="white" stroke="transparent" points="-4,4 -4,-489 261,-489 261,4 -4,4"/>
<!-- Node1 -->
<g id="node1" class="node">
<title>Node1</title>
<g id="a_node1"><a xlink:title=" ">
<polygon fill="#bfbfbf" stroke="black" points="13,-0.5 13,-90.5 162,-90.5 162,-0.5 13,-0.5"/>
<text text-anchor="start" x="21" y="-78.5" font-family="Helvetica,sans-Serif" font-size="10.00">CustomUI.Tutorial.MultiTutorial</text>
<text text-anchor="middle" x="87.5" y="-67.5" font-family="Helvetica,sans-Serif" font-size="10.00">ManagerUI</text>
<polyline fill="none" stroke="black" points="13,-60.5 162,-60.5 "/>
<text text-anchor="start" x="21" y="-48.5" font-family="Helvetica,sans-Serif" font-size="10.00">+ List&lt; Difficulty &gt;</text>
<text text-anchor="start" x="21" y="-37.5" font-family="Helvetica,sans-Serif" font-size="10.00"> difficulties</text>
<polyline fill="none" stroke="black" points="13,-30.5 162,-30.5 "/>
<text text-anchor="start" x="21" y="-18.5" font-family="Helvetica,sans-Serif" font-size="10.00"># override void MonitorAwake</text>
<text text-anchor="start" x="21" y="-7.5" font-family="Helvetica,sans-Serif" font-size="10.00">Panel()</text>
</a>
</g>
</g>
<!-- Node2 -->
<g id="node2" class="node">
<title>Node2</title>
<g id="a_node2"><a xlink:href="class_custom_u_i_1_1_tutorial_1_1_tutorial_manager_u_i.html" target="_top" xlink:title=" ">
<polygon fill="white" stroke="black" points="0,-128.5 0,-240.5 175,-240.5 175,-128.5 0,-128.5"/>
<text text-anchor="middle" x="87.5" y="-228.5" font-family="Helvetica,sans-Serif" font-size="10.00">TutorialManagerUI</text>
<polyline fill="none" stroke="black" points="0,-221.5 175,-221.5 "/>
<text text-anchor="start" x="8" y="-209.5" font-family="Helvetica,sans-Serif" font-size="10.00">+ List&lt; TutorialUI &gt;</text>
<text text-anchor="start" x="8" y="-198.5" font-family="Helvetica,sans-Serif" font-size="10.00"> tutorialUiList</text>
<text text-anchor="start" x="8" y="-187.5" font-family="Helvetica,sans-Serif" font-size="10.00"># static Dictionary&lt;</text>
<text text-anchor="start" x="8" y="-176.5" font-family="Helvetica,sans-Serif" font-size="10.00"> string, bool &gt; hasBeenActivatedDict</text>
<polyline fill="none" stroke="black" points="0,-169.5 175,-169.5 "/>
<text text-anchor="start" x="8" y="-157.5" font-family="Helvetica,sans-Serif" font-size="10.00">+ void Update()</text>
<text text-anchor="start" x="8" y="-146.5" font-family="Helvetica,sans-Serif" font-size="10.00"># virtual void MonitorAwake</text>
<text text-anchor="start" x="8" y="-135.5" font-family="Helvetica,sans-Serif" font-size="10.00">Panel()</text>
</a>
</g>
</g>
<!-- Node2&#45;&gt;Node1 -->
<g id="edge1" class="edge">
<title>Node2&#45;&gt;Node1</title>
<path fill="none" stroke="midnightblue" d="M87.5,-118.13C87.5,-108.83 87.5,-99.44 87.5,-90.67"/>
<polygon fill="none" stroke="midnightblue" points="84,-118.17 87.5,-128.17 91,-118.17 84,-118.17"/>
</g>
<!-- Node3 -->
<g id="node3" class="node">
<title>Node3</title>
<g id="a_node3"><a xlink:title=" ">
<polygon fill="white" stroke="#bfbfbf" points="42,-427.5 42,-484.5 125,-484.5 125,-427.5 42,-427.5"/>
<text text-anchor="middle" x="83.5" y="-472.5" font-family="Helvetica,sans-Serif" font-size="10.00">MonoBehaviour</text>
<polyline fill="none" stroke="#bfbfbf" points="42,-465.5 125,-465.5 "/>
<text text-anchor="middle" x="83.5" y="-453.5" font-family="Helvetica,sans-Serif" font-size="10.00"> </text>
<polyline fill="none" stroke="#bfbfbf" points="42,-446.5 125,-446.5 "/>
<text text-anchor="middle" x="83.5" y="-434.5" font-family="Helvetica,sans-Serif" font-size="10.00"> </text>
</a>
</g>
</g>
<!-- Node3&#45;&gt;Node2 -->
<g id="edge2" class="edge">
<title>Node3&#45;&gt;Node2</title>
<path fill="none" stroke="midnightblue" d="M84.06,-417.29C84.74,-371.3 85.9,-293.2 86.68,-240.51"/>
<polygon fill="none" stroke="midnightblue" points="80.56,-417.37 83.91,-427.43 87.56,-417.48 80.56,-417.37"/>
</g>
<!-- Node4 -->
<g id="node4" class="node">
<title>Node4</title>
<g id="a_node4"><a xlink:href="class_t_t_s_1_1_voice_generator.html" target="_top" xlink:title="语音合成">
<polygon fill="white" stroke="black" points="100,-288.5 100,-389.5 257,-389.5 257,-288.5 100,-288.5"/>
<text text-anchor="middle" x="178.5" y="-377.5" font-family="Helvetica,sans-Serif" font-size="10.00">TTS.VoiceGenerator</text>
<polyline fill="none" stroke="black" points="100,-370.5 257,-370.5 "/>
<text text-anchor="start" x="108" y="-358.5" font-family="Helvetica,sans-Serif" font-size="10.00">+ string content</text>
<polyline fill="none" stroke="black" points="100,-351.5 257,-351.5 "/>
<text text-anchor="start" x="108" y="-339.5" font-family="Helvetica,sans-Serif" font-size="10.00">+ void Speak(string content)</text>
<text text-anchor="start" x="108" y="-328.5" font-family="Helvetica,sans-Serif" font-size="10.00">+ async Task GetAudioAsync()</text>
<text text-anchor="start" x="108" y="-317.5" font-family="Helvetica,sans-Serif" font-size="10.00">+ IEnumerator OnAudioLoadAnd</text>
<text text-anchor="start" x="108" y="-306.5" font-family="Helvetica,sans-Serif" font-size="10.00">Paly(string url, AudioType</text>
<text text-anchor="start" x="108" y="-295.5" font-family="Helvetica,sans-Serif" font-size="10.00"> type, AudioSource audio)</text>
</a>
</g>
</g>
<!-- Node3&#45;&gt;Node4 -->
<g id="edge4" class="edge">
<title>Node3&#45;&gt;Node4</title>
<path fill="none" stroke="midnightblue" d="M112.84,-419.48C120.59,-410.1 129.1,-399.8 137.35,-389.81"/>
<polygon fill="none" stroke="midnightblue" points="109.93,-417.52 106.25,-427.45 115.32,-421.97 109.93,-417.52"/>
</g>
<!-- Node4&#45;&gt;Node2 -->
<g id="edge3" class="edge">
<title>Node4&#45;&gt;Node2</title>
<path fill="none" stroke="#404040" d="M148.95,-288.49C141.82,-276.53 134.08,-263.57 126.59,-251"/>
<polygon fill="none" stroke="#404040" points="126.51,-250.87 120,-247.77 120.36,-240.57 126.87,-243.67 126.51,-250.87"/>
<text text-anchor="middle" x="172.5" y="-262" font-family="Helvetica,sans-Serif" font-size="10.00"> +voiceGenerator</text>
</g>
</g>
</svg>
