<?xml version="1.0" encoding="UTF-8" standalone="no"?>
<!DOCTYPE svg PUBLIC "-//W3C//DTD SVG 1.1//EN"
 "http://www.w3.org/Graphics/SVG/1.1/DTD/svg11.dtd">
<!-- Generated by graphviz version 2.47.1 (20210417.1919)
 -->
<!-- Title: CustomCamera.CameraLayerMixer Pages: 1 -->
<svg width="180pt" height="342pt"
 viewBox="0.00 0.00 180.00 342.00" xmlns="http://www.w3.org/2000/svg" xmlns:xlink="http://www.w3.org/1999/xlink">
<g id="graph0" class="graph" transform="scale(1 1) rotate(0) translate(4 338)">
<title>CustomCamera.CameraLayerMixer</title>
<polygon fill="white" stroke="transparent" points="-4,4 -4,-338 176,-338 176,4 -4,4"/>
<!-- Node1 -->
<g id="node1" class="node">
<title>Node1</title>
<g id="a_node1"><a xlink:title="相机图像混合">
<polygon fill="#bfbfbf" stroke="black" points="0,-0.5 0,-123.5 172,-123.5 172,-0.5 0,-0.5"/>
<text text-anchor="start" x="8" y="-111.5" font-family="Helvetica,sans-Serif" font-size="10.00">CustomCamera.CameraLayer</text>
<text text-anchor="middle" x="86" y="-100.5" font-family="Helvetica,sans-Serif" font-size="10.00">Mixer</text>
<polyline fill="none" stroke="black" points="0,-93.5 172,-93.5 "/>
<text text-anchor="start" x="8" y="-81.5" font-family="Helvetica,sans-Serif" font-size="10.00">+ CameraMixer cameraMixer</text>
<text text-anchor="start" x="8" y="-70.5" font-family="Helvetica,sans-Serif" font-size="10.00">+ bool enableLayer0</text>
<text text-anchor="start" x="8" y="-59.5" font-family="Helvetica,sans-Serif" font-size="10.00">+ bool enableLayer1</text>
<text text-anchor="start" x="8" y="-48.5" font-family="Helvetica,sans-Serif" font-size="10.00">+ LayerCamera layerCamera</text>
<text text-anchor="start" x="8" y="-37.5" font-family="Helvetica,sans-Serif" font-size="10.00">+ Shader mixShader</text>
<text text-anchor="start" x="8" y="-26.5" font-family="Helvetica,sans-Serif" font-size="10.00">+ Material MixMaterial</text>
<polyline fill="none" stroke="black" points="0,-19.5 172,-19.5 "/>
<text text-anchor="start" x="8" y="-7.5" font-family="Helvetica,sans-Serif" font-size="10.00">+ RenderTexture GetRenderResult()</text>
</a>
</g>
</g>
<!-- Node2 -->
<g id="node2" class="node">
<title>Node2</title>
<g id="a_node2"><a xlink:href="class_custom_post_processing_1_1_custom_post_processing_base.html" target="_top" xlink:title="自定义后处理">
<polygon fill="white" stroke="black" points="15,-160.5 15,-239.5 157,-239.5 157,-160.5 15,-160.5"/>
<text text-anchor="middle" x="86" y="-227.5" font-family="Helvetica,sans-Serif" font-size="10.00">CustomPostProcessingBase</text>
<polyline fill="none" stroke="black" points="15,-220.5 157,-220.5 "/>
<text text-anchor="start" x="23" y="-208.5" font-family="Helvetica,sans-Serif" font-size="10.00">+ Camera mainCamera</text>
<polyline fill="none" stroke="black" points="15,-201.5 157,-201.5 "/>
<text text-anchor="start" x="23" y="-189.5" font-family="Helvetica,sans-Serif" font-size="10.00"># Material GenerateMaterial</text>
<text text-anchor="start" x="23" y="-178.5" font-family="Helvetica,sans-Serif" font-size="10.00">(Shader shader, ref Material</text>
<text text-anchor="start" x="23" y="-167.5" font-family="Helvetica,sans-Serif" font-size="10.00"> targetMaterial)</text>
</a>
</g>
</g>
<!-- Node2&#45;&gt;Node1 -->
<g id="edge1" class="edge">
<title>Node2&#45;&gt;Node1</title>
<path fill="none" stroke="midnightblue" d="M86,-150.14C86,-141.53 86,-132.47 86,-123.57"/>
<polygon fill="none" stroke="midnightblue" points="82.5,-150.39 86,-160.39 89.5,-150.39 82.5,-150.39"/>
</g>
<!-- Node3 -->
<g id="node3" class="node">
<title>Node3</title>
<g id="a_node3"><a xlink:title=" ">
<polygon fill="white" stroke="#bfbfbf" points="44.5,-276.5 44.5,-333.5 127.5,-333.5 127.5,-276.5 44.5,-276.5"/>
<text text-anchor="middle" x="86" y="-321.5" font-family="Helvetica,sans-Serif" font-size="10.00">MonoBehaviour</text>
<polyline fill="none" stroke="#bfbfbf" points="44.5,-314.5 127.5,-314.5 "/>
<text text-anchor="middle" x="86" y="-302.5" font-family="Helvetica,sans-Serif" font-size="10.00"> </text>
<polyline fill="none" stroke="#bfbfbf" points="44.5,-295.5 127.5,-295.5 "/>
<text text-anchor="middle" x="86" y="-283.5" font-family="Helvetica,sans-Serif" font-size="10.00"> </text>
</a>
</g>
</g>
<!-- Node3&#45;&gt;Node2 -->
<g id="edge2" class="edge">
<title>Node3&#45;&gt;Node2</title>
<path fill="none" stroke="midnightblue" d="M86,-266.16C86,-257.47 86,-248.23 86,-239.52"/>
<polygon fill="none" stroke="midnightblue" points="82.5,-266.4 86,-276.4 89.5,-266.4 82.5,-266.4"/>
</g>
</g>
</svg>
