<?xml version="1.0" encoding="UTF-8" standalone="no"?>
<!DOCTYPE svg PUBLIC "-//W3C//DTD SVG 1.1//EN"
 "http://www.w3.org/Graphics/SVG/1.1/DTD/svg11.dtd">
<!-- Generated by graphviz version 2.47.1 (20210417.1919)
 -->
<!-- Title: XmlSaver.AstralBodyDataDict&lt; T &gt; Pages: 1 -->
<svg width="176pt" height="314pt"
 viewBox="0.00 0.00 176.00 314.00" xmlns="http://www.w3.org/2000/svg" xmlns:xlink="http://www.w3.org/1999/xlink">
<g id="graph0" class="graph" transform="scale(1 1) rotate(0) translate(4 310)">
<title>XmlSaver.AstralBodyDataDict&lt; T &gt;</title>
<polygon fill="white" stroke="transparent" points="-4,4 -4,-310 172,-310 172,4 -4,4"/>
<!-- Node1 -->
<g id="node1" class="node">
<title>Node1</title>
<g id="a_node1"><a xlink:title="星体数据存储">
<polygon fill="#bfbfbf" stroke="black" points="0,-0.5 0,-211.5 168,-211.5 168,-0.5 0,-0.5"/>
<text text-anchor="middle" x="84" y="-199.5" font-family="Helvetica,sans-Serif" font-size="10.00">XmlSaver.AstralBodyDataDict&lt; T &gt;</text>
<polyline fill="none" stroke="black" points="0,-192.5 168,-192.5 "/>
<text text-anchor="start" x="8" y="-180.5" font-family="Helvetica,sans-Serif" font-size="10.00">+ Vector3 position</text>
<text text-anchor="start" x="8" y="-169.5" font-family="Helvetica,sans-Serif" font-size="10.00">+ double mass</text>
<text text-anchor="start" x="8" y="-158.5" font-family="Helvetica,sans-Serif" font-size="10.00">+ double density</text>
<text text-anchor="start" x="8" y="-147.5" font-family="Helvetica,sans-Serif" font-size="10.00">+ float originalSize</text>
<text text-anchor="start" x="8" y="-136.5" font-family="Helvetica,sans-Serif" font-size="10.00">+ float affectRadius</text>
<text text-anchor="start" x="8" y="-125.5" font-family="Helvetica,sans-Serif" font-size="10.00">+ Vector3 oriVelocity</text>
<text text-anchor="start" x="8" y="-114.5" font-family="Helvetica,sans-Serif" font-size="10.00">+ float period</text>
<text text-anchor="start" x="8" y="-103.5" font-family="Helvetica,sans-Serif" font-size="10.00">+ float radius</text>
<text text-anchor="start" x="8" y="-92.5" font-family="Helvetica,sans-Serif" font-size="10.00">+ int meshNum</text>
<text text-anchor="start" x="8" y="-81.5" font-family="Helvetica,sans-Serif" font-size="10.00">+ bool enableAffect</text>
<text text-anchor="start" x="8" y="-70.5" font-family="Helvetica,sans-Serif" font-size="10.00">+ bool enableTracing</text>
<text text-anchor="start" x="8" y="-59.5" font-family="Helvetica,sans-Serif" font-size="10.00">+ bool isCore</text>
<polyline fill="none" stroke="black" points="0,-52.5 168,-52.5 "/>
<text text-anchor="start" x="8" y="-40.5" font-family="Helvetica,sans-Serif" font-size="10.00">+ AstralBodyDataDict()</text>
<text text-anchor="start" x="8" y="-29.5" font-family="Helvetica,sans-Serif" font-size="10.00">+ AstralBodyDataDict</text>
<text text-anchor="start" x="8" y="-18.5" font-family="Helvetica,sans-Serif" font-size="10.00">(Transform transform,</text>
<text text-anchor="start" x="8" y="-7.5" font-family="Helvetica,sans-Serif" font-size="10.00"> T astralBody, bool isCore)</text>
</a>
</g>
</g>
<!-- Node2 -->
<g id="node2" class="node">
<title>Node2</title>
<g id="a_node2"><a xlink:href="interface_xml_saver_1_1_i_astral_body_dictale.html" target="_top" xlink:title="星体可序列化">
<polygon fill="white" stroke="black" points="35.5,-248.5 35.5,-305.5 132.5,-305.5 132.5,-248.5 35.5,-248.5"/>
<text text-anchor="middle" x="84" y="-293.5" font-family="Helvetica,sans-Serif" font-size="10.00">IAstralBodyDictale</text>
<polyline fill="none" stroke="black" points="35.5,-286.5 132.5,-286.5 "/>
<text text-anchor="middle" x="84" y="-274.5" font-family="Helvetica,sans-Serif" font-size="10.00"> </text>
<polyline fill="none" stroke="black" points="35.5,-267.5 132.5,-267.5 "/>
<text text-anchor="middle" x="84" y="-255.5" font-family="Helvetica,sans-Serif" font-size="10.00"> </text>
</a>
</g>
</g>
<!-- Node2&#45;&gt;Node1 -->
<g id="edge1" class="edge">
<title>Node2&#45;&gt;Node1</title>
<path fill="none" stroke="midnightblue" d="M84,-238.23C84,-230.04 84,-220.99 84,-211.58"/>
<polygon fill="none" stroke="midnightblue" points="80.5,-238.47 84,-248.47 87.5,-238.47 80.5,-238.47"/>
</g>
</g>
</svg>
