<?xml version="1.0" encoding="UTF-8" standalone="no"?>
<!DOCTYPE svg PUBLIC "-//W3C//DTD SVG 1.1//EN"
 "http://www.w3.org/Graphics/SVG/1.1/DTD/svg11.dtd">
<!-- Generated by graphviz version 2.47.1 (20210417.1919)
 -->
<!-- Title: XmlSaver.SceneBaseStruct&lt; T &gt; Pages: 1 -->
<svg width="306pt" height="321pt"
 viewBox="0.00 0.00 306.00 321.00" xmlns="http://www.w3.org/2000/svg" xmlns:xlink="http://www.w3.org/1999/xlink">
<g id="graph0" class="graph" transform="scale(1 1) rotate(0) translate(4 317)">
<title>XmlSaver.SceneBaseStruct&lt; T &gt;</title>
<polygon fill="white" stroke="transparent" points="-4,4 -4,-317 302,-317 302,4 -4,4"/>
<!-- Node1 -->
<g id="node1" class="node">
<title>Node1</title>
<g id="a_node1"><a xlink:title="场景信息存储">
<polygon fill="#bfbfbf" stroke="black" points="91.5,-233.5 91.5,-312.5 250.5,-312.5 250.5,-233.5 91.5,-233.5"/>
<text text-anchor="middle" x="171" y="-300.5" font-family="Helvetica,sans-Serif" font-size="10.00">XmlSaver.SceneBaseStruct&lt; T &gt;</text>
<polyline fill="none" stroke="black" points="91.5,-293.5 250.5,-293.5 "/>
<text text-anchor="start" x="99.5" y="-281.5" font-family="Helvetica,sans-Serif" font-size="10.00">+ string sceneName</text>
<text text-anchor="start" x="99.5" y="-270.5" font-family="Helvetica,sans-Serif" font-size="10.00">+ List&lt; AstralBodyDataDict</text>
<text text-anchor="start" x="99.5" y="-259.5" font-family="Helvetica,sans-Serif" font-size="10.00">&lt; T &gt; &gt; astralBodyStructList</text>
<polyline fill="none" stroke="black" points="91.5,-252.5 250.5,-252.5 "/>
<text text-anchor="middle" x="171" y="-240.5" font-family="Helvetica,sans-Serif" font-size="10.00"> </text>
</a>
</g>
</g>
<!-- Node2 -->
<g id="node2" class="node">
<title>Node2</title>
<g id="a_node2"><a xlink:href="class_xml_saver_1_1_scene_base_struct.html" target="_top" xlink:title=" ">
<polygon fill="white" stroke="black" points="0,-95.5 0,-185.5 140,-185.5 140,-95.5 0,-95.5"/>
<text text-anchor="start" x="8" y="-173.5" font-family="Helvetica,sans-Serif" font-size="10.00">XmlSaver.SceneBaseStruct</text>
<text text-anchor="middle" x="70" y="-162.5" font-family="Helvetica,sans-Serif" font-size="10.00">&lt; QuizAstralBody &gt;</text>
<polyline fill="none" stroke="black" points="0,-155.5 140,-155.5 "/>
<text text-anchor="start" x="8" y="-143.5" font-family="Helvetica,sans-Serif" font-size="10.00">+ string sceneName</text>
<text text-anchor="start" x="8" y="-132.5" font-family="Helvetica,sans-Serif" font-size="10.00">+ List&lt; AstralBodyDataDict</text>
<text text-anchor="start" x="8" y="-121.5" font-family="Helvetica,sans-Serif" font-size="10.00">&lt; T &gt; &gt; astralBodyStructList</text>
<polyline fill="none" stroke="black" points="0,-114.5 140,-114.5 "/>
<text text-anchor="middle" x="70" y="-102.5" font-family="Helvetica,sans-Serif" font-size="10.00"> </text>
</a>
</g>
</g>
<!-- Node1&#45;&gt;Node2 -->
<g id="edge1" class="edge">
<title>Node1&#45;&gt;Node2</title>
<path fill="none" stroke="orange" d="M111.46,-226.18C108.08,-222.57 104.89,-218.83 102,-215 95.39,-206.22 89.81,-195.86 85.25,-185.73"/>
<polygon fill="orange" stroke="orange" points="109.11,-228.77 118.64,-233.4 114.07,-223.84 109.11,-228.77"/>
<text text-anchor="middle" x="147" y="-207" font-family="Helvetica,sans-Serif" font-size="10.00"> &lt; QuizAstralBody &gt;</text>
</g>
<!-- Node4 -->
<g id="node4" class="node">
<title>Node4</title>
<g id="a_node4"><a xlink:href="class_xml_saver_1_1_scene_base_struct.html" target="_top" xlink:title=" ">
<polygon fill="white" stroke="black" points="158,-95.5 158,-185.5 298,-185.5 298,-95.5 158,-95.5"/>
<text text-anchor="start" x="166" y="-173.5" font-family="Helvetica,sans-Serif" font-size="10.00">XmlSaver.SceneBaseStruct</text>
<text text-anchor="middle" x="228" y="-162.5" font-family="Helvetica,sans-Serif" font-size="10.00">&lt; AstralBody &gt;</text>
<polyline fill="none" stroke="black" points="158,-155.5 298,-155.5 "/>
<text text-anchor="start" x="166" y="-143.5" font-family="Helvetica,sans-Serif" font-size="10.00">+ string sceneName</text>
<text text-anchor="start" x="166" y="-132.5" font-family="Helvetica,sans-Serif" font-size="10.00">+ List&lt; AstralBodyDataDict</text>
<text text-anchor="start" x="166" y="-121.5" font-family="Helvetica,sans-Serif" font-size="10.00">&lt; T &gt; &gt; astralBodyStructList</text>
<polyline fill="none" stroke="black" points="158,-114.5 298,-114.5 "/>
<text text-anchor="middle" x="228" y="-102.5" font-family="Helvetica,sans-Serif" font-size="10.00"> </text>
</a>
</g>
</g>
<!-- Node1&#45;&gt;Node4 -->
<g id="edge3" class="edge">
<title>Node1&#45;&gt;Node4</title>
<path fill="none" stroke="orange" d="M192.01,-223.89C197.45,-211.45 203.27,-198.12 208.62,-185.88"/>
<polygon fill="orange" stroke="orange" points="188.74,-222.63 187.95,-233.2 195.16,-225.44 188.74,-222.63"/>
<text text-anchor="middle" x="234" y="-207" font-family="Helvetica,sans-Serif" font-size="10.00"> &lt; AstralBody &gt;</text>
</g>
<!-- Node3 -->
<g id="node3" class="node">
<title>Node3</title>
<g id="a_node3"><a xlink:href="class_quiz_1_1_quiz_base_struct.html" target="_top" xlink:title="问题信息存储">
<polygon fill="white" stroke="black" points="15.5,-0.5 15.5,-57.5 124.5,-57.5 124.5,-0.5 15.5,-0.5"/>
<text text-anchor="middle" x="70" y="-45.5" font-family="Helvetica,sans-Serif" font-size="10.00">Quiz.QuizBaseStruct</text>
<polyline fill="none" stroke="black" points="15.5,-38.5 124.5,-38.5 "/>
<text text-anchor="start" x="23.5" y="-26.5" font-family="Helvetica,sans-Serif" font-size="10.00">+ QuizType quizType</text>
<polyline fill="none" stroke="black" points="15.5,-19.5 124.5,-19.5 "/>
<text text-anchor="middle" x="70" y="-7.5" font-family="Helvetica,sans-Serif" font-size="10.00"> </text>
</a>
</g>
</g>
<!-- Node2&#45;&gt;Node3 -->
<g id="edge2" class="edge">
<title>Node2&#45;&gt;Node3</title>
<path fill="none" stroke="midnightblue" d="M70,-85.04C70,-75.56 70,-66.06 70,-57.69"/>
<polygon fill="none" stroke="midnightblue" points="66.5,-85.28 70,-95.28 73.5,-85.28 66.5,-85.28"/>
</g>
</g>
</svg>
