<?xml version="1.0" encoding="UTF-8" standalone="no"?>
<!DOCTYPE svg PUBLIC "-//W3C//DTD SVG 1.1//EN"
 "http://www.w3.org/Graphics/SVG/1.1/DTD/svg11.dtd">
<!-- Generated by graphviz version 2.47.1 (20210417.1919)
 -->
<!-- Title: XmlSaver.SceneLoadBase.GenerateAstralBodiesWithoutPrefab Pages: 1 -->
<svg width="552pt" height="186pt"
 viewBox="0.00 0.00 552.00 186.00" xmlns="http://www.w3.org/2000/svg" xmlns:xlink="http://www.w3.org/1999/xlink">
<g id="graph0" class="graph" transform="scale(1 1) rotate(0) translate(4 182)">
<title>XmlSaver.SceneLoadBase.GenerateAstralBodiesWithoutPrefab</title>
<polygon fill="white" stroke="transparent" points="-4,4 -4,-182 548,-182 548,4 -4,4"/>
<!-- Node1 -->
<g id="node1" class="node">
<title>Node1</title>
<g id="a_node1"><a xlink:title=" ">
<polygon fill="#bfbfbf" stroke="black" points="0,-48.5 0,-78.5 173,-78.5 173,-48.5 0,-48.5"/>
<text text-anchor="start" x="8" y="-66.5" font-family="Helvetica,sans-Serif" font-size="10.00">XmlSaver.SceneLoadBase.Generate</text>
<text text-anchor="middle" x="86.5" y="-55.5" font-family="Helvetica,sans-Serif" font-size="10.00">AstralBodiesWithoutPrefab</text>
</a>
</g>
</g>
<!-- Node2 -->
<g id="node2" class="node">
<title>Node2</title>
<g id="a_node2"><a xlink:href="class_space_physic_1_1_gravity_tracing.html#a3d63db3c84aef11ca64e85e99d32cbd3" target="_top" xlink:title="增加追踪实体">
<polygon fill="white" stroke="black" points="217.5,-73.5 217.5,-103.5 359.5,-103.5 359.5,-73.5 217.5,-73.5"/>
<text text-anchor="start" x="225.5" y="-91.5" font-family="Helvetica,sans-Serif" font-size="10.00">SpacePhysic.GravityTracing.</text>
<text text-anchor="middle" x="288.5" y="-80.5" font-family="Helvetica,sans-Serif" font-size="10.00">AddTracingTarget</text>
</a>
</g>
</g>
<!-- Node1&#45;&gt;Node2 -->
<g id="edge1" class="edge">
<title>Node1&#45;&gt;Node2</title>
<path fill="none" stroke="midnightblue" d="M173.19,-74.21C184.47,-75.62 196,-77.06 207.19,-78.46"/>
<polygon fill="midnightblue" stroke="midnightblue" points="207,-81.96 217.35,-79.73 207.87,-75.02 207,-81.96"/>
</g>
<!-- Node7 -->
<g id="node7" class="node">
<title>Node7</title>
<g id="a_node7"><a xlink:href="class_xml_saver_1_1_scene_load_base.html#af64d887f786cc6524c2f6a90eb2fa859" target="_top" xlink:title="星体数据处理委托">
<polygon fill="white" stroke="black" points="209,-24.5 209,-54.5 368,-54.5 368,-24.5 209,-24.5"/>
<text text-anchor="start" x="217" y="-42.5" font-family="Helvetica,sans-Serif" font-size="10.00">XmlSaver.SceneLoadBase.Astral</text>
<text text-anchor="middle" x="288.5" y="-31.5" font-family="Helvetica,sans-Serif" font-size="10.00">BodyDataDictProcessHandler</text>
</a>
</g>
</g>
<!-- Node1&#45;&gt;Node7 -->
<g id="edge6" class="edge">
<title>Node1&#45;&gt;Node7</title>
<path fill="none" stroke="midnightblue" d="M173.19,-53.22C181.72,-52.19 190.4,-51.15 198.96,-50.12"/>
<polygon fill="midnightblue" stroke="midnightblue" points="199.44,-53.59 208.95,-48.93 198.6,-46.64 199.44,-53.59"/>
</g>
<!-- Node3 -->
<g id="node3" class="node">
<title>Node3</title>
<g id="a_node3"><a xlink:href="interface_space_physic_1_1_i_traceable.html#ac1691c3526225e0c42f1cfc696605730" target="_top" xlink:title=" ">
<polygon fill="white" stroke="black" points="404,-147.5 404,-177.5 544,-177.5 544,-147.5 404,-147.5"/>
<text text-anchor="start" x="412" y="-165.5" font-family="Helvetica,sans-Serif" font-size="10.00">SpacePhysic.ITraceable.Get</text>
<text text-anchor="middle" x="474" y="-154.5" font-family="Helvetica,sans-Serif" font-size="10.00">EnableTracing</text>
</a>
</g>
</g>
<!-- Node2&#45;&gt;Node3 -->
<g id="edge2" class="edge">
<title>Node2&#45;&gt;Node3</title>
<path fill="none" stroke="midnightblue" d="M322.29,-103.62C345.03,-113.91 376.13,-127.59 404,-138.5 408.68,-140.33 413.56,-142.17 418.47,-143.97"/>
<polygon fill="midnightblue" stroke="midnightblue" points="417.31,-147.27 427.91,-147.38 419.69,-140.69 417.31,-147.27"/>
</g>
<!-- Node4 -->
<g id="node4" class="node">
<title>Node4</title>
<g id="a_node4"><a xlink:href="interface_space_physic_1_1_i_traceable.html#aa78b28ab82f702a832d0004bd13eb227" target="_top" xlink:title=" ">
<polygon fill="white" stroke="black" points="404,-98.5 404,-128.5 544,-128.5 544,-98.5 404,-98.5"/>
<text text-anchor="start" x="412" y="-116.5" font-family="Helvetica,sans-Serif" font-size="10.00">SpacePhysic.ITraceable.Get</text>
<text text-anchor="middle" x="474" y="-105.5" font-family="Helvetica,sans-Serif" font-size="10.00">Rigidbody</text>
</a>
</g>
</g>
<!-- Node2&#45;&gt;Node4 -->
<g id="edge3" class="edge">
<title>Node2&#45;&gt;Node4</title>
<path fill="none" stroke="midnightblue" d="M359.66,-98.06C370.85,-99.58 382.49,-101.17 393.87,-102.72"/>
<polygon fill="midnightblue" stroke="midnightblue" points="393.41,-106.19 403.79,-104.07 394.35,-99.25 393.41,-106.19"/>
</g>
<!-- Node5 -->
<g id="node5" class="node">
<title>Node5</title>
<g id="a_node5"><a xlink:href="interface_space_physic_1_1_i_traceable.html#a53c8890effec964fa2245908e79016c4" target="_top" xlink:title=" ">
<polygon fill="white" stroke="black" points="404,-49.5 404,-79.5 544,-79.5 544,-49.5 404,-49.5"/>
<text text-anchor="start" x="412" y="-67.5" font-family="Helvetica,sans-Serif" font-size="10.00">SpacePhysic.ITraceable.Get</text>
<text text-anchor="middle" x="474" y="-56.5" font-family="Helvetica,sans-Serif" font-size="10.00">Transform</text>
</a>
</g>
</g>
<!-- Node2&#45;&gt;Node5 -->
<g id="edge4" class="edge">
<title>Node2&#45;&gt;Node5</title>
<path fill="none" stroke="midnightblue" d="M359.66,-79.32C370.74,-77.88 382.26,-76.37 393.53,-74.89"/>
<polygon fill="midnightblue" stroke="midnightblue" points="394.33,-78.32 403.79,-73.55 393.42,-71.38 394.33,-78.32"/>
</g>
<!-- Node6 -->
<g id="node6" class="node">
<title>Node6</title>
<g id="a_node6"><a xlink:href="interface_space_physic_1_1_i_traceable.html#a8c908476fbe6acf4aaf2e7594537dddb" target="_top" xlink:title=" ">
<polygon fill="white" stroke="black" points="404,-0.5 404,-30.5 544,-30.5 544,-0.5 404,-0.5"/>
<text text-anchor="start" x="412" y="-18.5" font-family="Helvetica,sans-Serif" font-size="10.00">SpacePhysic.ITraceable.Get</text>
<text text-anchor="middle" x="474" y="-7.5" font-family="Helvetica,sans-Serif" font-size="10.00">Velocity</text>
</a>
</g>
</g>
<!-- Node2&#45;&gt;Node6 -->
<g id="edge5" class="edge">
<title>Node2&#45;&gt;Node6</title>
<path fill="none" stroke="midnightblue" d="M346,-73.41C353.53,-70.77 361.05,-67.79 368,-64.5 385.38,-56.27 386.84,-49.17 404,-40.5 408.25,-38.35 412.74,-36.3 417.29,-34.35"/>
<polygon fill="midnightblue" stroke="midnightblue" points="418.75,-37.54 426.7,-30.53 416.11,-31.06 418.75,-37.54"/>
</g>
</g>
</svg>
