<?xml version="1.0" encoding="UTF-8" standalone="no"?>
<!DOCTYPE svg PUBLIC "-//W3C//DTD SVG 1.1//EN"
 "http://www.w3.org/Graphics/SVG/1.1/DTD/svg11.dtd">
<!-- Generated by graphviz version 2.47.1 (20210417.1919)
 -->
<!-- Title: CustomPostProcessing.CameraMixer Pages: 1 -->
<svg width="340pt" height="570pt"
 viewBox="0.00 0.00 340.00 570.00" xmlns="http://www.w3.org/2000/svg" xmlns:xlink="http://www.w3.org/1999/xlink">
<g id="graph0" class="graph" transform="scale(1 1) rotate(0) translate(4 566)">
<title>CustomPostProcessing.CameraMixer</title>
<polygon fill="white" stroke="transparent" points="-4,4 -4,-566 336,-566 336,4 -4,4"/>
<!-- Node1 -->
<g id="node1" class="node">
<title>Node1</title>
<g id="a_node1"><a xlink:title="相机输出混合">
<polygon fill="#bfbfbf" stroke="black" points="118,-0.5 118,-123.5 290,-123.5 290,-0.5 118,-0.5"/>
<text text-anchor="start" x="126" y="-111.5" font-family="Helvetica,sans-Serif" font-size="10.00">CustomPostProcessing.Camera</text>
<text text-anchor="middle" x="204" y="-100.5" font-family="Helvetica,sans-Serif" font-size="10.00">Mixer</text>
<polyline fill="none" stroke="black" points="118,-93.5 290,-93.5 "/>
<text text-anchor="start" x="126" y="-81.5" font-family="Helvetica,sans-Serif" font-size="10.00">+ Material mixMaterial</text>
<text text-anchor="start" x="126" y="-70.5" font-family="Helvetica,sans-Serif" font-size="10.00">+ RenderTexture renderResultRT</text>
<text text-anchor="start" x="126" y="-59.5" font-family="Helvetica,sans-Serif" font-size="10.00">+ Color edgeColor</text>
<text text-anchor="start" x="126" y="-48.5" font-family="Helvetica,sans-Serif" font-size="10.00">+ Shader mixShader</text>
<text text-anchor="start" x="126" y="-37.5" font-family="Helvetica,sans-Serif" font-size="10.00">+ RenderTexture renderTexture</text>
<text text-anchor="start" x="126" y="-26.5" font-family="Helvetica,sans-Serif" font-size="10.00">+ Material MixMaterial</text>
<polyline fill="none" stroke="black" points="118,-19.5 290,-19.5 "/>
<text text-anchor="start" x="126" y="-7.5" font-family="Helvetica,sans-Serif" font-size="10.00">+ RenderTexture GetRenderResult()</text>
</a>
</g>
</g>
<!-- Node2 -->
<g id="node2" class="node">
<title>Node2</title>
<g id="a_node2"><a xlink:href="class_custom_post_processing_1_1_custom_post_processing_base.html" target="_top" xlink:title="自定义后处理">
<polygon fill="white" stroke="black" points="190,-387.5 190,-466.5 332,-466.5 332,-387.5 190,-387.5"/>
<text text-anchor="middle" x="261" y="-454.5" font-family="Helvetica,sans-Serif" font-size="10.00">CustomPostProcessingBase</text>
<polyline fill="none" stroke="black" points="190,-447.5 332,-447.5 "/>
<text text-anchor="start" x="198" y="-435.5" font-family="Helvetica,sans-Serif" font-size="10.00">+ Camera mainCamera</text>
<polyline fill="none" stroke="black" points="190,-428.5 332,-428.5 "/>
<text text-anchor="start" x="198" y="-416.5" font-family="Helvetica,sans-Serif" font-size="10.00"># Material GenerateMaterial</text>
<text text-anchor="start" x="198" y="-405.5" font-family="Helvetica,sans-Serif" font-size="10.00">(Shader shader, ref Material</text>
<text text-anchor="start" x="198" y="-394.5" font-family="Helvetica,sans-Serif" font-size="10.00"> targetMaterial)</text>
</a>
</g>
</g>
<!-- Node2&#45;&gt;Node1 -->
<g id="edge1" class="edge">
<title>Node2&#45;&gt;Node1</title>
<path fill="none" stroke="midnightblue" d="M265.09,-377.22C268.44,-319.79 269.5,-222.09 247,-142 245.27,-135.84 242.99,-129.62 240.38,-123.53"/>
<polygon fill="none" stroke="midnightblue" points="261.59,-377.26 264.45,-387.47 268.57,-377.71 261.59,-377.26"/>
</g>
<!-- Node4 -->
<g id="node4" class="node">
<title>Node4</title>
<g id="a_node4"><a xlink:href="class_custom_post_processing_1_1_outline_catcher.html" target="_top" xlink:title="描边抓取">
<polygon fill="white" stroke="black" points="61,-171.5 61,-349.5 233,-349.5 233,-171.5 61,-171.5"/>
<text text-anchor="start" x="69" y="-337.5" font-family="Helvetica,sans-Serif" font-size="10.00">CustomPostProcessing.Outline</text>
<text text-anchor="middle" x="147" y="-326.5" font-family="Helvetica,sans-Serif" font-size="10.00">Catcher</text>
<polyline fill="none" stroke="black" points="61,-319.5 233,-319.5 "/>
<text text-anchor="start" x="69" y="-307.5" font-family="Helvetica,sans-Serif" font-size="10.00">+ Color backgroundColor</text>
<text text-anchor="start" x="69" y="-296.5" font-family="Helvetica,sans-Serif" font-size="10.00">+ Color edgeColor</text>
<text text-anchor="start" x="69" y="-285.5" font-family="Helvetica,sans-Serif" font-size="10.00">+ float edgeOnly</text>
<text text-anchor="start" x="69" y="-274.5" font-family="Helvetica,sans-Serif" font-size="10.00">+ float edgeSize</text>
<text text-anchor="start" x="69" y="-263.5" font-family="Helvetica,sans-Serif" font-size="10.00">+ Camera outlineCamera</text>
<text text-anchor="start" x="69" y="-252.5" font-family="Helvetica,sans-Serif" font-size="10.00">+ Shader outlineShader</text>
<text text-anchor="start" x="69" y="-241.5" font-family="Helvetica,sans-Serif" font-size="10.00">+ Material outlineMaterial</text>
<polyline fill="none" stroke="black" points="61,-234.5 233,-234.5 "/>
<text text-anchor="start" x="69" y="-222.5" font-family="Helvetica,sans-Serif" font-size="10.00">+ RenderTexture GetRenderResult()</text>
<text text-anchor="start" x="69" y="-211.5" font-family="Helvetica,sans-Serif" font-size="10.00">+ void AddTarget(GameObject</text>
<text text-anchor="start" x="69" y="-200.5" font-family="Helvetica,sans-Serif" font-size="10.00"> target)</text>
<text text-anchor="start" x="69" y="-189.5" font-family="Helvetica,sans-Serif" font-size="10.00">+ void RemoveTarget(GameObject</text>
<text text-anchor="start" x="69" y="-178.5" font-family="Helvetica,sans-Serif" font-size="10.00"> target)</text>
</a>
</g>
</g>
<!-- Node2&#45;&gt;Node4 -->
<g id="edge4" class="edge">
<title>Node2&#45;&gt;Node4</title>
<path fill="none" stroke="midnightblue" d="M228.5,-379.11C222.05,-369.79 215.08,-359.73 208.02,-349.55"/>
<polygon fill="none" stroke="midnightblue" points="225.7,-381.21 234.27,-387.43 231.45,-377.22 225.7,-381.21"/>
</g>
<!-- Node3 -->
<g id="node3" class="node">
<title>Node3</title>
<g id="a_node3"><a xlink:title=" ">
<polygon fill="white" stroke="#bfbfbf" points="219.5,-504.5 219.5,-561.5 302.5,-561.5 302.5,-504.5 219.5,-504.5"/>
<text text-anchor="middle" x="261" y="-549.5" font-family="Helvetica,sans-Serif" font-size="10.00">MonoBehaviour</text>
<polyline fill="none" stroke="#bfbfbf" points="219.5,-542.5 302.5,-542.5 "/>
<text text-anchor="middle" x="261" y="-530.5" font-family="Helvetica,sans-Serif" font-size="10.00"> </text>
<polyline fill="none" stroke="#bfbfbf" points="219.5,-523.5 302.5,-523.5 "/>
<text text-anchor="middle" x="261" y="-511.5" font-family="Helvetica,sans-Serif" font-size="10.00"> </text>
</a>
</g>
</g>
<!-- Node3&#45;&gt;Node2 -->
<g id="edge2" class="edge">
<title>Node3&#45;&gt;Node2</title>
<path fill="none" stroke="midnightblue" d="M261,-494.23C261,-485.27 261,-475.69 261,-466.69"/>
<polygon fill="none" stroke="midnightblue" points="257.5,-494.4 261,-504.4 264.5,-494.4 257.5,-494.4"/>
</g>
<!-- Node4&#45;&gt;Node1 -->
<g id="edge3" class="edge">
<title>Node4&#45;&gt;Node1</title>
<path fill="none" stroke="#404040" d="M163.04,-171.44C165.43,-161.44 168.09,-151.45 171,-142 171.69,-139.76 172.42,-137.5 173.18,-135.23"/>
<polygon fill="none" stroke="#404040" points="173.22,-135.12 171.45,-128.13 177.22,-123.81 178.99,-130.8 173.22,-135.12"/>
<text text-anchor="middle" x="209" y="-145" font-family="Helvetica,sans-Serif" font-size="10.00"> +renderTexOuter</text>
</g>
<!-- Node5 -->
<g id="node5" class="node">
<title>Node5</title>
<g id="a_node5"><a xlink:href="interface_custom_post_processing_1_1_i_render_tex_outer.html" target="_top" xlink:title="RenderTexture输出接口">
<polygon fill="white" stroke="black" points="0,-398.5 0,-455.5 172,-455.5 172,-398.5 0,-398.5"/>
<text text-anchor="middle" x="86" y="-443.5" font-family="Helvetica,sans-Serif" font-size="10.00">IRenderTexOuter</text>
<polyline fill="none" stroke="black" points="0,-436.5 172,-436.5 "/>
<text text-anchor="middle" x="86" y="-424.5" font-family="Helvetica,sans-Serif" font-size="10.00"> </text>
<polyline fill="none" stroke="black" points="0,-417.5 172,-417.5 "/>
<text text-anchor="start" x="8" y="-405.5" font-family="Helvetica,sans-Serif" font-size="10.00">+ RenderTexture GetRenderResult()</text>
</a>
</g>
</g>
<!-- Node5&#45;&gt;Node4 -->
<g id="edge5" class="edge">
<title>Node5&#45;&gt;Node4</title>
<path fill="none" stroke="midnightblue" d="M99.73,-388.96C104.13,-377.1 109.21,-363.42 114.36,-349.51"/>
<polygon fill="none" stroke="midnightblue" points="96.41,-387.87 96.21,-398.47 102.97,-390.31 96.41,-387.87"/>
</g>
</g>
</svg>
