<?xml version="1.0" encoding="UTF-8" standalone="no"?>
<!DOCTYPE svg PUBLIC "-//W3C//DTD SVG 1.1//EN"
 "http://www.w3.org/Graphics/SVG/1.1/DTD/svg11.dtd">
<!-- Generated by graphviz version 2.47.1 (20210417.1919)
 -->
<!-- Title: CustomUI.AstralBodyEditor.VelocityEditorUI Pages: 1 -->
<svg width="374pt" height="1031pt"
 viewBox="0.00 0.00 373.84 1031.00" xmlns="http://www.w3.org/2000/svg" xmlns:xlink="http://www.w3.org/1999/xlink">
<g id="graph0" class="graph" transform="scale(1 1) rotate(0) translate(4 1027)">
<title>CustomUI.AstralBodyEditor.VelocityEditorUI</title>
<polygon fill="white" stroke="transparent" points="-4,4 -4,-1027 369.84,-1027 369.84,4 -4,4"/>
<!-- Node1 -->
<g id="node1" class="node">
<title>Node1</title>
<g id="a_node1"><a xlink:title=" ">
<polygon fill="#bfbfbf" stroke="black" points="16.34,-0.5 16.34,-90.5 155.34,-90.5 155.34,-0.5 16.34,-0.5"/>
<text text-anchor="start" x="24.34" y="-78.5" font-family="Helvetica,sans-Serif" font-size="10.00">CustomUI.AstralBodyEditor.</text>
<text text-anchor="middle" x="85.84" y="-67.5" font-family="Helvetica,sans-Serif" font-size="10.00">VelocityEditorUI</text>
<polyline fill="none" stroke="black" points="16.34,-60.5 155.34,-60.5 "/>
<text text-anchor="start" x="24.34" y="-48.5" font-family="Helvetica,sans-Serif" font-size="10.00">+ float showSize</text>
<text text-anchor="start" x="24.34" y="-37.5" font-family="Helvetica,sans-Serif" font-size="10.00">+ LineRenderer velocityLine</text>
<text text-anchor="start" x="24.34" y="-26.5" font-family="Helvetica,sans-Serif" font-size="10.00">+ float Speed</text>
<polyline fill="none" stroke="black" points="16.34,-19.5 155.34,-19.5 "/>
<text text-anchor="start" x="24.34" y="-7.5" font-family="Helvetica,sans-Serif" font-size="10.00">+ void OnDisable()</text>
</a>
</g>
</g>
<!-- Node2 -->
<g id="node2" class="node">
<title>Node2</title>
<g id="a_node2"><a xlink:title=" ">
<polygon fill="white" stroke="#bfbfbf" points="104.34,-916 104.34,-973 187.34,-973 187.34,-916 104.34,-916"/>
<text text-anchor="middle" x="145.84" y="-961" font-family="Helvetica,sans-Serif" font-size="10.00">MonoBehaviour</text>
<polyline fill="none" stroke="#bfbfbf" points="104.34,-954 187.34,-954 "/>
<text text-anchor="middle" x="145.84" y="-942" font-family="Helvetica,sans-Serif" font-size="10.00"> </text>
<polyline fill="none" stroke="#bfbfbf" points="104.34,-935 187.34,-935 "/>
<text text-anchor="middle" x="145.84" y="-923" font-family="Helvetica,sans-Serif" font-size="10.00"> </text>
</a>
</g>
</g>
<!-- Node2&#45;&gt;Node1 -->
<g id="edge1" class="edge">
<title>Node2&#45;&gt;Node1</title>
<path fill="none" stroke="midnightblue" d="M101.55,-909.29C78.74,-888.79 53.17,-860.6 40.84,-829 -49.61,-597.13 40.07,-517.89 39.84,-269 39.79,-210.78 26.41,-194.65 39.84,-138 43.7,-121.74 50.93,-105.08 58.53,-90.51"/>
<polygon fill="none" stroke="midnightblue" points="99.33,-912 109.16,-915.95 103.93,-906.73 99.33,-912"/>
</g>
<!-- Node4 -->
<g id="node4" class="node">
<title>Node4</title>
<g id="a_node4"><a xlink:href="class_custom_u_i_1_1_vector_u_i.html" target="_top" xlink:title=" ">
<polygon fill="white" stroke="black" points="107.84,-138.5 107.84,-239.5 243.84,-239.5 243.84,-138.5 107.84,-138.5"/>
<text text-anchor="middle" x="175.84" y="-227.5" font-family="Helvetica,sans-Serif" font-size="10.00">CustomUI.VectorUI</text>
<polyline fill="none" stroke="black" points="107.84,-220.5 243.84,-220.5 "/>
<text text-anchor="start" x="115.84" y="-208.5" font-family="Helvetica,sans-Serif" font-size="10.00">+ string header</text>
<text text-anchor="start" x="115.84" y="-197.5" font-family="Helvetica,sans-Serif" font-size="10.00">+ float showSize</text>
<text text-anchor="start" x="115.84" y="-186.5" font-family="Helvetica,sans-Serif" font-size="10.00">+ vectorType thisType</text>
<text text-anchor="start" x="115.84" y="-175.5" font-family="Helvetica,sans-Serif" font-size="10.00">+ string unit</text>
<text text-anchor="start" x="115.84" y="-164.5" font-family="Helvetica,sans-Serif" font-size="10.00">+ LineRenderer vectorArrow</text>
<polyline fill="none" stroke="black" points="107.84,-157.5 243.84,-157.5 "/>
<text text-anchor="middle" x="175.84" y="-145.5" font-family="Helvetica,sans-Serif" font-size="10.00"> </text>
</a>
</g>
</g>
<!-- Node2&#45;&gt;Node4 -->
<g id="edge4" class="edge">
<title>Node2&#45;&gt;Node4</title>
<path fill="none" stroke="midnightblue" d="M147.35,-905.55C152.34,-780.33 168.27,-380.24 173.87,-239.52"/>
<polygon fill="none" stroke="midnightblue" points="143.85,-905.66 146.95,-915.79 150.84,-905.94 143.85,-905.66"/>
</g>
<!-- Node5 -->
<g id="node5" class="node">
<title>Node5</title>
<g id="a_node5"><a xlink:href="class_space_physic_1_1_astral_body.html" target="_top" xlink:title="星体物理实体">
<polygon fill="white" stroke="black" points="196.34,-287.5 196.34,-828.5 357.34,-828.5 357.34,-287.5 196.34,-287.5"/>
<text text-anchor="middle" x="276.84" y="-816.5" font-family="Helvetica,sans-Serif" font-size="10.00">SpacePhysic.AstralBody</text>
<polyline fill="none" stroke="black" points="196.34,-809.5 357.34,-809.5 "/>
<text text-anchor="start" x="204.34" y="-797.5" font-family="Helvetica,sans-Serif" font-size="10.00">+ List&lt; AstralBody &gt;</text>
<text text-anchor="start" x="204.34" y="-786.5" font-family="Helvetica,sans-Serif" font-size="10.00"> affectedPlanets</text>
<text text-anchor="start" x="204.34" y="-775.5" font-family="Helvetica,sans-Serif" font-size="10.00">+ float affectRadius</text>
<text text-anchor="start" x="204.34" y="-764.5" font-family="Helvetica,sans-Serif" font-size="10.00">+ Vector3 angularVelocity</text>
<text text-anchor="start" x="204.34" y="-753.5" font-family="Helvetica,sans-Serif" font-size="10.00">+ List&lt; AstralBody &gt;</text>
<text text-anchor="start" x="204.34" y="-742.5" font-family="Helvetica,sans-Serif" font-size="10.00"> banAffectedPlanets</text>
<text text-anchor="start" x="204.34" y="-731.5" font-family="Helvetica,sans-Serif" font-size="10.00">+ SphereCollider defaultCollider</text>
<text text-anchor="start" x="204.34" y="-720.5" font-family="Helvetica,sans-Serif" font-size="10.00">+ bool enableAffect</text>
<text text-anchor="start" x="204.34" y="-709.5" font-family="Helvetica,sans-Serif" font-size="10.00">+ bool enableTracing</text>
<text text-anchor="start" x="204.34" y="-698.5" font-family="Helvetica,sans-Serif" font-size="10.00">+ Vector3 oriVelocity</text>
<text text-anchor="start" x="204.34" y="-687.5" font-family="Helvetica,sans-Serif" font-size="10.00">+ SphereCollider triggerCollider</text>
<text text-anchor="start" x="204.34" y="-676.5" font-family="Helvetica,sans-Serif" font-size="10.00">+ UnityEvent&lt; Vector3</text>
<text text-anchor="start" x="204.34" y="-665.5" font-family="Helvetica,sans-Serif" font-size="10.00"> &gt; velocityChangedEvent</text>
<text text-anchor="start" x="204.34" y="-654.5" font-family="Helvetica,sans-Serif" font-size="10.00">+ float? Mass</text>
<text text-anchor="start" x="204.34" y="-643.5" font-family="Helvetica,sans-Serif" font-size="10.00">+ Rigidbody astralBodyRigidbody</text>
<text text-anchor="start" x="204.34" y="-632.5" font-family="Helvetica,sans-Serif" font-size="10.00">+ Vector3 Force</text>
<text text-anchor="start" x="204.34" y="-621.5" font-family="Helvetica,sans-Serif" font-size="10.00">+ float gravity</text>
<text text-anchor="start" x="204.34" y="-610.5" font-family="Helvetica,sans-Serif" font-size="10.00">+ int meshNum</text>
<text text-anchor="start" x="204.34" y="-599.5" font-family="Helvetica,sans-Serif" font-size="10.00">+ float size</text>
<text text-anchor="start" x="204.34" y="-588.5" font-family="Helvetica,sans-Serif" font-size="10.00">+ double realMass</text>
<text text-anchor="start" x="204.34" y="-577.5" font-family="Helvetica,sans-Serif" font-size="10.00">+ double density</text>
<text text-anchor="start" x="204.34" y="-566.5" font-family="Helvetica,sans-Serif" font-size="10.00">+ Vector3 lastVelocity</text>
<text text-anchor="start" x="204.34" y="-555.5" font-family="Helvetica,sans-Serif" font-size="10.00">+ bool isLoadDone</text>
<polyline fill="none" stroke="black" points="196.34,-548.5 357.34,-548.5 "/>
<text text-anchor="start" x="204.34" y="-536.5" font-family="Helvetica,sans-Serif" font-size="10.00">+ virtual void OnCollision</text>
<text text-anchor="start" x="204.34" y="-525.5" font-family="Helvetica,sans-Serif" font-size="10.00">Enter(Collision other)</text>
<text text-anchor="start" x="204.34" y="-514.5" font-family="Helvetica,sans-Serif" font-size="10.00">+ Transform GetTransform()</text>
<text text-anchor="start" x="204.34" y="-503.5" font-family="Helvetica,sans-Serif" font-size="10.00">+ Vector3 GetPosition()</text>
<text text-anchor="start" x="204.34" y="-492.5" font-family="Helvetica,sans-Serif" font-size="10.00">+ GameObject GetGameObject()</text>
<text text-anchor="start" x="204.34" y="-481.5" font-family="Helvetica,sans-Serif" font-size="10.00">+ bool GetEnableTracing()</text>
<text text-anchor="start" x="204.34" y="-470.5" font-family="Helvetica,sans-Serif" font-size="10.00">+ virtual float GetMass()</text>
<text text-anchor="start" x="204.34" y="-459.5" font-family="Helvetica,sans-Serif" font-size="10.00">+ Rigidbody GetRigidbody()</text>
<text text-anchor="start" x="204.34" y="-448.5" font-family="Helvetica,sans-Serif" font-size="10.00">+ Vector3 GetVelocity()</text>
<text text-anchor="start" x="204.34" y="-437.5" font-family="Helvetica,sans-Serif" font-size="10.00">+ List&lt; AstralBody &gt;</text>
<text text-anchor="start" x="204.34" y="-426.5" font-family="Helvetica,sans-Serif" font-size="10.00"> GetAffectedPlanets()</text>
<text text-anchor="start" x="204.34" y="-415.5" font-family="Helvetica,sans-Serif" font-size="10.00">+ AstralBody GetAstralBody()</text>
<text text-anchor="start" x="204.34" y="-404.5" font-family="Helvetica,sans-Serif" font-size="10.00">+ void ChangeVelocity</text>
<text text-anchor="start" x="204.34" y="-393.5" font-family="Helvetica,sans-Serif" font-size="10.00">(Vector3 velocity)</text>
<text text-anchor="start" x="204.34" y="-382.5" font-family="Helvetica,sans-Serif" font-size="10.00">+ void ChangeVelocity</text>
<text text-anchor="start" x="204.34" y="-371.5" font-family="Helvetica,sans-Serif" font-size="10.00">(double realSpeed)</text>
<text text-anchor="start" x="204.34" y="-360.5" font-family="Helvetica,sans-Serif" font-size="10.00">+ Vector3 CalculateForce()</text>
<text text-anchor="start" x="204.34" y="-349.5" font-family="Helvetica,sans-Serif" font-size="10.00">+ void SetCircleVelocity()</text>
<text text-anchor="start" x="204.34" y="-338.5" font-family="Helvetica,sans-Serif" font-size="10.00">+ void SetCircleVelocityMenu()</text>
<text text-anchor="start" x="204.34" y="-327.5" font-family="Helvetica,sans-Serif" font-size="10.00"># virtual void Start()</text>
<text text-anchor="start" x="204.34" y="-316.5" font-family="Helvetica,sans-Serif" font-size="10.00"># void Generate()</text>
<text text-anchor="start" x="204.34" y="-305.5" font-family="Helvetica,sans-Serif" font-size="10.00"># virtual void FixedUpdate()</text>
<text text-anchor="start" x="204.34" y="-294.5" font-family="Helvetica,sans-Serif" font-size="10.00"># virtual void SetMass()</text>
</a>
</g>
</g>
<!-- Node2&#45;&gt;Node5 -->
<g id="edge7" class="edge">
<title>Node2&#45;&gt;Node5</title>
<path fill="none" stroke="midnightblue" d="M158.52,-906.29C167.9,-878.75 181.57,-838.65 196.3,-795.4"/>
<polygon fill="none" stroke="midnightblue" points="155.18,-905.25 155.26,-915.85 161.8,-907.51 155.18,-905.25"/>
</g>
<!-- Node3 -->
<g id="node3" class="node">
<title>Node3</title>
<g id="a_node3"><a xlink:title=" ">
<polygon fill="white" stroke="#bfbfbf" points="50.34,-529.5 50.34,-586.5 85.34,-586.5 85.34,-529.5 50.34,-529.5"/>
<text text-anchor="middle" x="67.84" y="-574.5" font-family="Helvetica,sans-Serif" font-size="10.00">Text</text>
<polyline fill="none" stroke="#bfbfbf" points="50.34,-567.5 85.34,-567.5 "/>
<text text-anchor="middle" x="67.84" y="-555.5" font-family="Helvetica,sans-Serif" font-size="10.00"> </text>
<polyline fill="none" stroke="#bfbfbf" points="50.34,-548.5 85.34,-548.5 "/>
<text text-anchor="middle" x="67.84" y="-536.5" font-family="Helvetica,sans-Serif" font-size="10.00"> </text>
</a>
</g>
</g>
<!-- Node3&#45;&gt;Node1 -->
<g id="edge2" class="edge">
<title>Node3&#45;&gt;Node1</title>
<path fill="none" stroke="#404040" d="M63.11,-529.29C52.4,-461.78 29.11,-283.67 53.84,-138 55.85,-126.18 59.22,-113.85 63.04,-102.21"/>
<polygon fill="none" stroke="#404040" points="63.05,-102.19 61.23,-95.21 66.97,-90.85 68.79,-97.83 63.05,-102.19"/>
<text text-anchor="middle" x="76.34" y="-186.5" font-family="Helvetica,sans-Serif" font-size="10.00"> +speedUI</text>
</g>
<!-- Node3&#45;&gt;Node4 -->
<g id="edge5" class="edge">
<title>Node3&#45;&gt;Node4</title>
<path fill="none" stroke="#404040" d="M62.58,-529.41C53.49,-474.15 40.11,-347.52 87.84,-258 90.97,-252.14 94.84,-246.63 99.2,-241.48"/>
<polygon fill="none" stroke="#404040" points="99.32,-241.36 100.5,-234.24 107.52,-232.6 106.34,-239.72 99.32,-241.36"/>
<text text-anchor="middle" x="114.84" y="-261" font-family="Helvetica,sans-Serif" font-size="10.00"> +vectorText</text>
</g>
<!-- Node4&#45;&gt;Node1 -->
<g id="edge3" class="edge">
<title>Node4&#45;&gt;Node1</title>
<path fill="none" stroke="#404040" d="M144.11,-138.11C136.52,-126.17 128.37,-113.36 120.65,-101.22"/>
<polygon fill="none" stroke="#404040" points="120.43,-100.88 113.84,-97.97 113.99,-90.76 120.59,-93.67 120.43,-100.88"/>
<text text-anchor="middle" x="156.34" y="-112" font-family="Helvetica,sans-Serif" font-size="10.00"> +velocityUI</text>
</g>
<!-- Node5&#45;&gt;Node1 -->
<g id="edge9" class="edge">
<title>Node5&#45;&gt;Node1</title>
<path fill="none" stroke="#404040" d="M300.86,-287.25C294.97,-234.72 280.81,-182.28 252.84,-138 233.18,-106.87 199.02,-85.51 166.7,-71.31"/>
<polygon fill="none" stroke="#404040" points="166.44,-71.2 159.36,-72.58 155.37,-66.58 162.45,-65.2 166.44,-71.2"/>
<text text-anchor="middle" x="324.34" y="-186.5" font-family="Helvetica,sans-Serif" font-size="10.00"> +editingTarget</text>
</g>
<!-- Node5&#45;&gt;Node4 -->
<g id="edge6" class="edge">
<title>Node5&#45;&gt;Node4</title>
<path fill="none" stroke="#404040" d="M202.64,-287.39C199.13,-274.63 195.82,-262.59 192.8,-251.62"/>
<polygon fill="none" stroke="#404040" points="192.7,-251.26 187.26,-246.54 189.52,-239.7 194.97,-244.42 192.7,-251.26"/>
<text text-anchor="middle" x="223.84" y="-261" font-family="Helvetica,sans-Serif" font-size="10.00"> +astralBody</text>
</g>
<!-- Node6 -->
<g id="node6" class="node">
<title>Node6</title>
<g id="a_node6"><a xlink:href="interface_space_physic_1_1_i_traceable.html" target="_top" xlink:title="可追踪接口">
<polygon fill="white" stroke="black" points="205.84,-866.5 205.84,-1022.5 365.84,-1022.5 365.84,-866.5 205.84,-866.5"/>
<text text-anchor="middle" x="285.84" y="-1010.5" font-family="Helvetica,sans-Serif" font-size="10.00">ITraceable</text>
<polyline fill="none" stroke="black" points="205.84,-1003.5 365.84,-1003.5 "/>
<text text-anchor="middle" x="285.84" y="-991.5" font-family="Helvetica,sans-Serif" font-size="10.00"> </text>
<polyline fill="none" stroke="black" points="205.84,-984.5 365.84,-984.5 "/>
<text text-anchor="start" x="213.84" y="-972.5" font-family="Helvetica,sans-Serif" font-size="10.00">+ Transform GetTransform()</text>
<text text-anchor="start" x="213.84" y="-961.5" font-family="Helvetica,sans-Serif" font-size="10.00">+ Vector3 GetPosition()</text>
<text text-anchor="start" x="213.84" y="-950.5" font-family="Helvetica,sans-Serif" font-size="10.00">+ GameObject GetGameObject()</text>
<text text-anchor="start" x="213.84" y="-939.5" font-family="Helvetica,sans-Serif" font-size="10.00">+ bool GetEnableTracing()</text>
<text text-anchor="start" x="213.84" y="-928.5" font-family="Helvetica,sans-Serif" font-size="10.00">+ float GetMass()</text>
<text text-anchor="start" x="213.84" y="-917.5" font-family="Helvetica,sans-Serif" font-size="10.00">+ Rigidbody GetRigidbody()</text>
<text text-anchor="start" x="213.84" y="-906.5" font-family="Helvetica,sans-Serif" font-size="10.00">+ Vector3 GetVelocity()</text>
<text text-anchor="start" x="213.84" y="-895.5" font-family="Helvetica,sans-Serif" font-size="10.00">+ List&lt; AstralBody &gt;</text>
<text text-anchor="start" x="213.84" y="-884.5" font-family="Helvetica,sans-Serif" font-size="10.00"> GetAffectedPlanets()</text>
<text text-anchor="start" x="213.84" y="-873.5" font-family="Helvetica,sans-Serif" font-size="10.00">+ AstralBody GetAstralBody()</text>
</a>
</g>
</g>
<!-- Node6&#45;&gt;Node5 -->
<g id="edge8" class="edge">
<title>Node6&#45;&gt;Node5</title>
<path fill="none" stroke="midnightblue" d="M283.8,-856.05C283.59,-847.27 283.38,-838.07 283.15,-828.57"/>
<polygon fill="none" stroke="midnightblue" points="280.3,-856.24 284.03,-866.15 287.3,-856.07 280.3,-856.24"/>
</g>
</g>
</svg>
