<?xml version="1.0" encoding="UTF-8" standalone="no"?>
<!DOCTYPE svg PUBLIC "-//W3C//DTD SVG 1.1//EN"
 "http://www.w3.org/Graphics/SVG/1.1/DTD/svg11.dtd">
<!-- Generated by graphviz version 2.47.1 (20210417.1919)
 -->
<!-- Title: CustomUI.AstralBodyEditor.MeshEditor Pages: 1 -->
<svg width="1412pt" height="1750pt"
 viewBox="0.00 0.00 1411.50 1750.00" xmlns="http://www.w3.org/2000/svg" xmlns:xlink="http://www.w3.org/1999/xlink">
<g id="graph0" class="graph" transform="scale(1 1) rotate(0) translate(4 1746)">
<title>CustomUI.AstralBodyEditor.MeshEditor</title>
<polygon fill="white" stroke="transparent" points="-4,4 -4,-1746 1407.5,-1746 1407.5,4 -4,4"/>
<!-- Node1 -->
<g id="node1" class="node">
<title>Node1</title>
<g id="a_node1"><a xlink:title=" ">
<polygon fill="#bfbfbf" stroke="black" points="1037,-0.5 1037,-68.5 1176,-68.5 1176,-0.5 1037,-0.5"/>
<text text-anchor="start" x="1045" y="-56.5" font-family="Helvetica,sans-Serif" font-size="10.00">CustomUI.AstralBodyEditor.</text>
<text text-anchor="middle" x="1106.5" y="-45.5" font-family="Helvetica,sans-Serif" font-size="10.00">MeshEditor</text>
<polyline fill="none" stroke="black" points="1037,-38.5 1176,-38.5 "/>
<text text-anchor="start" x="1045" y="-26.5" font-family="Helvetica,sans-Serif" font-size="10.00">+ InputField inputField</text>
<polyline fill="none" stroke="black" points="1037,-19.5 1176,-19.5 "/>
<text text-anchor="start" x="1045" y="-7.5" font-family="Helvetica,sans-Serif" font-size="10.00">+ void ChangeMesh()</text>
</a>
</g>
</g>
<!-- Node2 -->
<g id="node2" class="node">
<title>Node2</title>
<g id="a_node2"><a xlink:title=" ">
<polygon fill="white" stroke="#bfbfbf" points="713,-1635 713,-1692 796,-1692 796,-1635 713,-1635"/>
<text text-anchor="middle" x="754.5" y="-1680" font-family="Helvetica,sans-Serif" font-size="10.00">MonoBehaviour</text>
<polyline fill="none" stroke="#bfbfbf" points="713,-1673 796,-1673 "/>
<text text-anchor="middle" x="754.5" y="-1661" font-family="Helvetica,sans-Serif" font-size="10.00"> </text>
<polyline fill="none" stroke="#bfbfbf" points="713,-1654 796,-1654 "/>
<text text-anchor="middle" x="754.5" y="-1642" font-family="Helvetica,sans-Serif" font-size="10.00"> </text>
</a>
</g>
</g>
<!-- Node2&#45;&gt;Node1 -->
<g id="edge1" class="edge">
<title>Node2&#45;&gt;Node1</title>
<path fill="none" stroke="midnightblue" d="M806.21,-1655.99C913.05,-1641.55 1153.03,-1603.65 1211.5,-1548 1307.89,-1456.25 1298.5,-1394.57 1298.5,-1261.5 1298.5,-1261.5 1298.5,-1261.5 1298.5,-237.5 1298.5,-161.42 1226.06,-102.59 1170.17,-68.52"/>
<polygon fill="none" stroke="midnightblue" points="805.75,-1652.52 796.3,-1657.32 806.67,-1659.46 805.75,-1652.52"/>
</g>
<!-- Node3 -->
<g id="node3" class="node">
<title>Node3</title>
<g id="a_node3"><a xlink:href="class_custom_u_i_1_1_astral_body_editor_1_1_astral_body_editor_u_i.html" target="_top" xlink:title=" ">
<polygon fill="white" stroke="black" points="819,-116.5 819,-360.5 976,-360.5 976,-116.5 819,-116.5"/>
<text text-anchor="start" x="827" y="-348.5" font-family="Helvetica,sans-Serif" font-size="10.00">CustomUI.AstralBodyEditor.</text>
<text text-anchor="middle" x="897.5" y="-337.5" font-family="Helvetica,sans-Serif" font-size="10.00">AstralBodyEditorUI</text>
<polyline fill="none" stroke="black" points="819,-330.5 976,-330.5 "/>
<text text-anchor="start" x="827" y="-318.5" font-family="Helvetica,sans-Serif" font-size="10.00">+ GameObject editorPanel</text>
<text text-anchor="start" x="827" y="-307.5" font-family="Helvetica,sans-Serif" font-size="10.00">+ bool isEnableEdit</text>
<text text-anchor="start" x="827" y="-296.5" font-family="Helvetica,sans-Serif" font-size="10.00">+ bool isEnableEditorPanel</text>
<text text-anchor="start" x="827" y="-285.5" font-family="Helvetica,sans-Serif" font-size="10.00">+ List&lt; LengthUI &gt; lengthUIList</text>
<text text-anchor="start" x="827" y="-274.5" font-family="Helvetica,sans-Serif" font-size="10.00">+ GameObject mainPanel</text>
<text text-anchor="start" x="827" y="-263.5" font-family="Helvetica,sans-Serif" font-size="10.00">+ GameObject normalPanel</text>
<text text-anchor="start" x="827" y="-252.5" font-family="Helvetica,sans-Serif" font-size="10.00">+ List&lt; VarLineUI &gt; varLineUis</text>
<text text-anchor="start" x="827" y="-241.5" font-family="Helvetica,sans-Serif" font-size="10.00">+ AstralBody astralBody</text>
<polyline fill="none" stroke="black" points="819,-234.5 976,-234.5 "/>
<text text-anchor="start" x="827" y="-222.5" font-family="Helvetica,sans-Serif" font-size="10.00">+ void EditVelocity()</text>
<text text-anchor="start" x="827" y="-211.5" font-family="Helvetica,sans-Serif" font-size="10.00">+ void OpenConicSectionPanel()</text>
<text text-anchor="start" x="827" y="-200.5" font-family="Helvetica,sans-Serif" font-size="10.00">+ virtual void SetVelocity</text>
<text text-anchor="start" x="827" y="-189.5" font-family="Helvetica,sans-Serif" font-size="10.00">InCircle()</text>
<text text-anchor="start" x="827" y="-178.5" font-family="Helvetica,sans-Serif" font-size="10.00">+ void ClosePanel()</text>
<text text-anchor="start" x="827" y="-167.5" font-family="Helvetica,sans-Serif" font-size="10.00">+ void MainToStyleSheet()</text>
<text text-anchor="start" x="827" y="-156.5" font-family="Helvetica,sans-Serif" font-size="10.00">+ void StyleSheetToMain()</text>
<text text-anchor="start" x="827" y="-145.5" font-family="Helvetica,sans-Serif" font-size="10.00"># virtual void OnEnable()</text>
<text text-anchor="start" x="827" y="-134.5" font-family="Helvetica,sans-Serif" font-size="10.00"># virtual void OnAstralBody</text>
<text text-anchor="start" x="827" y="-123.5" font-family="Helvetica,sans-Serif" font-size="10.00">Set()</text>
</a>
</g>
</g>
<!-- Node2&#45;&gt;Node3 -->
<g id="edge3" class="edge">
<title>Node2&#45;&gt;Node3</title>
<path fill="none" stroke="midnightblue" d="M806.5,-1660.27C886.42,-1654.18 1040.07,-1631.59 1134.5,-1548 1238.66,-1455.8 1260.5,-1400.6 1260.5,-1261.5 1260.5,-1261.5 1260.5,-1261.5 1260.5,-458 1260.5,-326.33 1083.03,-271.97 976.27,-251.18"/>
<polygon fill="none" stroke="midnightblue" points="805.93,-1656.8 796.2,-1660.99 806.42,-1663.78 805.93,-1656.8"/>
</g>
<!-- Node4 -->
<g id="node4" class="node">
<title>Node4</title>
<g id="a_node4"><a xlink:href="class_custom_u_i_1_1_vector_u_i.html" target="_top" xlink:title=" ">
<polygon fill="white" stroke="black" points="740.5,-585 740.5,-686 876.5,-686 876.5,-585 740.5,-585"/>
<text text-anchor="middle" x="808.5" y="-674" font-family="Helvetica,sans-Serif" font-size="10.00">CustomUI.VectorUI</text>
<polyline fill="none" stroke="black" points="740.5,-667 876.5,-667 "/>
<text text-anchor="start" x="748.5" y="-655" font-family="Helvetica,sans-Serif" font-size="10.00">+ string header</text>
<text text-anchor="start" x="748.5" y="-644" font-family="Helvetica,sans-Serif" font-size="10.00">+ float showSize</text>
<text text-anchor="start" x="748.5" y="-633" font-family="Helvetica,sans-Serif" font-size="10.00">+ vectorType thisType</text>
<text text-anchor="start" x="748.5" y="-622" font-family="Helvetica,sans-Serif" font-size="10.00">+ string unit</text>
<text text-anchor="start" x="748.5" y="-611" font-family="Helvetica,sans-Serif" font-size="10.00">+ LineRenderer vectorArrow</text>
<polyline fill="none" stroke="black" points="740.5,-604 876.5,-604 "/>
<text text-anchor="middle" x="808.5" y="-592" font-family="Helvetica,sans-Serif" font-size="10.00"> </text>
</a>
</g>
</g>
<!-- Node2&#45;&gt;Node4 -->
<g id="edge5" class="edge">
<title>Node2&#45;&gt;Node4</title>
<path fill="none" stroke="midnightblue" d="M759.99,-1624.8C775.04,-1519.3 816.74,-1212.01 830.5,-955 835.8,-856.03 841.7,-830.48 830.5,-732 828.79,-716.95 825.61,-700.83 822.19,-686.19"/>
<polygon fill="none" stroke="midnightblue" points="756.49,-1624.55 758.54,-1634.94 763.42,-1625.54 756.49,-1624.55"/>
</g>
<!-- Node6 -->
<g id="node6" class="node">
<title>Node6</title>
<g id="a_node6"><a xlink:href="class_space_physic_1_1_astral_body.html" target="_top" xlink:title="星体物理实体">
<polygon fill="white" stroke="black" points="873,-973.5 873,-1547.5 1034,-1547.5 1034,-973.5 873,-973.5"/>
<text text-anchor="middle" x="953.5" y="-1535.5" font-family="Helvetica,sans-Serif" font-size="10.00">SpacePhysic.AstralBody</text>
<polyline fill="none" stroke="black" points="873,-1528.5 1034,-1528.5 "/>
<text text-anchor="start" x="881" y="-1516.5" font-family="Helvetica,sans-Serif" font-size="10.00">+ List&lt; AstralBody &gt;</text>
<text text-anchor="start" x="881" y="-1505.5" font-family="Helvetica,sans-Serif" font-size="10.00"> affectedPlanets</text>
<text text-anchor="start" x="881" y="-1494.5" font-family="Helvetica,sans-Serif" font-size="10.00">+ float affectRadius</text>
<text text-anchor="start" x="881" y="-1483.5" font-family="Helvetica,sans-Serif" font-size="10.00">+ Vector3 angularVelocity</text>
<text text-anchor="start" x="881" y="-1472.5" font-family="Helvetica,sans-Serif" font-size="10.00">+ List&lt; AstralBody &gt;</text>
<text text-anchor="start" x="881" y="-1461.5" font-family="Helvetica,sans-Serif" font-size="10.00"> banAffectedPlanets</text>
<text text-anchor="start" x="881" y="-1450.5" font-family="Helvetica,sans-Serif" font-size="10.00">+ SphereCollider defaultCollider</text>
<text text-anchor="start" x="881" y="-1439.5" font-family="Helvetica,sans-Serif" font-size="10.00">+ bool enableAffect</text>
<text text-anchor="start" x="881" y="-1428.5" font-family="Helvetica,sans-Serif" font-size="10.00">+ bool enableTracing</text>
<text text-anchor="start" x="881" y="-1417.5" font-family="Helvetica,sans-Serif" font-size="10.00">+ Vector3 oriVelocity</text>
<text text-anchor="start" x="881" y="-1406.5" font-family="Helvetica,sans-Serif" font-size="10.00">+ SphereCollider triggerCollider</text>
<text text-anchor="start" x="881" y="-1395.5" font-family="Helvetica,sans-Serif" font-size="10.00">+ UnityEvent&lt; Vector3</text>
<text text-anchor="start" x="881" y="-1384.5" font-family="Helvetica,sans-Serif" font-size="10.00"> &gt; velocityChangedEvent</text>
<text text-anchor="start" x="881" y="-1373.5" font-family="Helvetica,sans-Serif" font-size="10.00">+ UnityEvent astralBodyDestroy</text>
<text text-anchor="start" x="881" y="-1362.5" font-family="Helvetica,sans-Serif" font-size="10.00">Event</text>
<text text-anchor="start" x="881" y="-1351.5" font-family="Helvetica,sans-Serif" font-size="10.00">+ bool isUseScaler</text>
<text text-anchor="start" x="881" y="-1340.5" font-family="Helvetica,sans-Serif" font-size="10.00">+ float? Mass</text>
<text text-anchor="start" x="881" y="-1329.5" font-family="Helvetica,sans-Serif" font-size="10.00">+ Rigidbody astralBodyRigidbody</text>
<text text-anchor="start" x="881" y="-1318.5" font-family="Helvetica,sans-Serif" font-size="10.00">+ Vector3 Force</text>
<text text-anchor="start" x="881" y="-1307.5" font-family="Helvetica,sans-Serif" font-size="10.00">+ float gravity</text>
<text text-anchor="start" x="881" y="-1296.5" font-family="Helvetica,sans-Serif" font-size="10.00">+ int meshNum</text>
<text text-anchor="start" x="881" y="-1285.5" font-family="Helvetica,sans-Serif" font-size="10.00">+ float size</text>
<text text-anchor="start" x="881" y="-1274.5" font-family="Helvetica,sans-Serif" font-size="10.00">+ double realMass</text>
<text text-anchor="start" x="881" y="-1263.5" font-family="Helvetica,sans-Serif" font-size="10.00">+ double density</text>
<text text-anchor="start" x="881" y="-1252.5" font-family="Helvetica,sans-Serif" font-size="10.00">+ Vector3 lastVelocity</text>
<text text-anchor="start" x="881" y="-1241.5" font-family="Helvetica,sans-Serif" font-size="10.00">+ bool isLoadDone</text>
<polyline fill="none" stroke="black" points="873,-1234.5 1034,-1234.5 "/>
<text text-anchor="start" x="881" y="-1222.5" font-family="Helvetica,sans-Serif" font-size="10.00">+ virtual void OnCollision</text>
<text text-anchor="start" x="881" y="-1211.5" font-family="Helvetica,sans-Serif" font-size="10.00">Enter(Collision other)</text>
<text text-anchor="start" x="881" y="-1200.5" font-family="Helvetica,sans-Serif" font-size="10.00">+ Transform GetTransform()</text>
<text text-anchor="start" x="881" y="-1189.5" font-family="Helvetica,sans-Serif" font-size="10.00">+ Vector3 GetPosition()</text>
<text text-anchor="start" x="881" y="-1178.5" font-family="Helvetica,sans-Serif" font-size="10.00">+ GameObject GetGameObject()</text>
<text text-anchor="start" x="881" y="-1167.5" font-family="Helvetica,sans-Serif" font-size="10.00">+ bool GetEnableTracing()</text>
<text text-anchor="start" x="881" y="-1156.5" font-family="Helvetica,sans-Serif" font-size="10.00">+ virtual float GetMass()</text>
<text text-anchor="start" x="881" y="-1145.5" font-family="Helvetica,sans-Serif" font-size="10.00">+ Rigidbody GetRigidbody()</text>
<text text-anchor="start" x="881" y="-1134.5" font-family="Helvetica,sans-Serif" font-size="10.00">+ Vector3 GetVelocity()</text>
<text text-anchor="start" x="881" y="-1123.5" font-family="Helvetica,sans-Serif" font-size="10.00">+ List&lt; AstralBody &gt;</text>
<text text-anchor="start" x="881" y="-1112.5" font-family="Helvetica,sans-Serif" font-size="10.00"> GetAffectedPlanets()</text>
<text text-anchor="start" x="881" y="-1101.5" font-family="Helvetica,sans-Serif" font-size="10.00">+ AstralBody GetAstralBody()</text>
<text text-anchor="start" x="881" y="-1090.5" font-family="Helvetica,sans-Serif" font-size="10.00">+ void ChangeVelocity</text>
<text text-anchor="start" x="881" y="-1079.5" font-family="Helvetica,sans-Serif" font-size="10.00">(Vector3 velocity)</text>
<text text-anchor="start" x="881" y="-1068.5" font-family="Helvetica,sans-Serif" font-size="10.00">+ void ChangeVelocity</text>
<text text-anchor="start" x="881" y="-1057.5" font-family="Helvetica,sans-Serif" font-size="10.00">(double realSpeed)</text>
<text text-anchor="start" x="881" y="-1046.5" font-family="Helvetica,sans-Serif" font-size="10.00">+ Vector3 CalculateForce()</text>
<text text-anchor="start" x="881" y="-1035.5" font-family="Helvetica,sans-Serif" font-size="10.00">+ void SetCircleVelocity()</text>
<text text-anchor="start" x="881" y="-1024.5" font-family="Helvetica,sans-Serif" font-size="10.00">+ void SetCircleVelocityMenu()</text>
<text text-anchor="start" x="881" y="-1013.5" font-family="Helvetica,sans-Serif" font-size="10.00"># virtual void Start()</text>
<text text-anchor="start" x="881" y="-1002.5" font-family="Helvetica,sans-Serif" font-size="10.00"># void Generate()</text>
<text text-anchor="start" x="881" y="-991.5" font-family="Helvetica,sans-Serif" font-size="10.00"># virtual void FixedUpdate()</text>
<text text-anchor="start" x="881" y="-980.5" font-family="Helvetica,sans-Serif" font-size="10.00"># virtual void SetMass()</text>
</a>
</g>
</g>
<!-- Node2&#45;&gt;Node6 -->
<g id="edge8" class="edge">
<title>Node2&#45;&gt;Node6</title>
<path fill="none" stroke="midnightblue" d="M801.49,-1628.49C821.5,-1611.91 843.62,-1590.49 858.5,-1567 863.55,-1559.02 868.35,-1550.76 872.91,-1542.28"/>
<polygon fill="none" stroke="midnightblue" points="799.22,-1625.82 793.65,-1634.83 803.63,-1631.26 799.22,-1625.82"/>
</g>
<!-- Node8 -->
<g id="node8" class="node">
<title>Node8</title>
<g id="a_node8"><a xlink:href="class_space_physic_1_1_gravity_tracing.html" target="_top" xlink:title="引力追踪">
<polygon fill="white" stroke="black" points="0,-732.5 0,-954.5 165,-954.5 165,-732.5 0,-732.5"/>
<text text-anchor="middle" x="82.5" y="-942.5" font-family="Helvetica,sans-Serif" font-size="10.00">SpacePhysic.GravityTracing</text>
<polyline fill="none" stroke="black" points="0,-935.5 165,-935.5 "/>
<text text-anchor="start" x="8" y="-923.5" font-family="Helvetica,sans-Serif" font-size="10.00">+ int sample</text>
<text text-anchor="start" x="8" y="-912.5" font-family="Helvetica,sans-Serif" font-size="10.00">+ float timeScale</text>
<text text-anchor="start" x="8" y="-901.5" font-family="Helvetica,sans-Serif" font-size="10.00">+ SplineComputer splineComputer</text>
<text text-anchor="start" x="8" y="-890.5" font-family="Helvetica,sans-Serif" font-size="10.00">+ bool isFreezing</text>
<text text-anchor="start" x="8" y="-879.5" font-family="Helvetica,sans-Serif" font-size="10.00">+ bool isShowOrbit</text>
<polyline fill="none" stroke="black" points="0,-872.5 165,-872.5 "/>
<text text-anchor="start" x="8" y="-860.5" font-family="Helvetica,sans-Serif" font-size="10.00">+ void Awake()</text>
<text text-anchor="start" x="8" y="-849.5" font-family="Helvetica,sans-Serif" font-size="10.00">+ void Dispatch()</text>
<text text-anchor="start" x="8" y="-838.5" font-family="Helvetica,sans-Serif" font-size="10.00">+ void AddTracingTarget</text>
<text text-anchor="start" x="8" y="-827.5" font-family="Helvetica,sans-Serif" font-size="10.00">(ITraceable traceable)</text>
<text text-anchor="start" x="8" y="-816.5" font-family="Helvetica,sans-Serif" font-size="10.00">+ void Freeze(bool isFreezing)</text>
<text text-anchor="start" x="8" y="-805.5" font-family="Helvetica,sans-Serif" font-size="10.00">+ void RemoveAstralBody</text>
<text text-anchor="start" x="8" y="-794.5" font-family="Helvetica,sans-Serif" font-size="10.00">(AstralBody astralBody)</text>
<text text-anchor="start" x="8" y="-783.5" font-family="Helvetica,sans-Serif" font-size="10.00">+ ConicSection GetConicSection</text>
<text text-anchor="start" x="8" y="-772.5" font-family="Helvetica,sans-Serif" font-size="10.00">(ITraceable astralBody)</text>
<text text-anchor="start" x="8" y="-761.5" font-family="Helvetica,sans-Serif" font-size="10.00">+ void DrawMathOrbit</text>
<text text-anchor="start" x="8" y="-750.5" font-family="Helvetica,sans-Serif" font-size="10.00">(ConicSection conicSection,</text>
<text text-anchor="start" x="8" y="-739.5" font-family="Helvetica,sans-Serif" font-size="10.00"> int sam)</text>
</a>
</g>
</g>
<!-- Node2&#45;&gt;Node8 -->
<g id="edge11" class="edge">
<title>Node2&#45;&gt;Node8</title>
<path fill="none" stroke="midnightblue" d="M702.88,-1661.77C573.37,-1658.8 239.81,-1643.71 166.5,-1567 9.56,-1402.79 31.69,-1112.64 58.73,-954.61"/>
<polygon fill="none" stroke="midnightblue" points="702.87,-1665.27 712.94,-1661.99 703.02,-1658.27 702.87,-1665.27"/>
</g>
<!-- Node9 -->
<g id="node9" class="node">
<title>Node9</title>
<g id="a_node9"><a xlink:href="class_custom_u_i_1_1_astral_body_editor_1_1_orbit_panel_u_i.html" target="_top" xlink:title=" ">
<polygon fill="white" stroke="black" points="318.5,-408.5 318.5,-509.5 458.5,-509.5 458.5,-408.5 318.5,-408.5"/>
<text text-anchor="start" x="326.5" y="-497.5" font-family="Helvetica,sans-Serif" font-size="10.00">CustomUI.AstralBodyEditor.</text>
<text text-anchor="middle" x="388.5" y="-486.5" font-family="Helvetica,sans-Serif" font-size="10.00">OrbitPanelUI</text>
<polyline fill="none" stroke="black" points="318.5,-479.5 458.5,-479.5 "/>
<text text-anchor="start" x="326.5" y="-467.5" font-family="Helvetica,sans-Serif" font-size="10.00">+ GameObject contentPanel</text>
<text text-anchor="start" x="326.5" y="-456.5" font-family="Helvetica,sans-Serif" font-size="10.00">+ bool isConicSection</text>
<text text-anchor="start" x="326.5" y="-445.5" font-family="Helvetica,sans-Serif" font-size="10.00">+ GameObject nullPanel</text>
<text text-anchor="start" x="326.5" y="-434.5" font-family="Helvetica,sans-Serif" font-size="10.00">+ AstralBody astralBody</text>
<polyline fill="none" stroke="black" points="318.5,-427.5 458.5,-427.5 "/>
<text text-anchor="middle" x="388.5" y="-415.5" font-family="Helvetica,sans-Serif" font-size="10.00"> </text>
</a>
</g>
</g>
<!-- Node2&#45;&gt;Node9 -->
<g id="edge13" class="edge">
<title>Node2&#45;&gt;Node9</title>
<path fill="none" stroke="midnightblue" d="M702.63,-1660.25C575.77,-1653.53 255.77,-1628.73 194.5,-1548 161.22,-1504.14 170.52,-603.81 199.5,-557 225.51,-514.98 276.08,-490.37 318.36,-476.46"/>
<polygon fill="none" stroke="midnightblue" points="702.69,-1663.76 712.86,-1660.78 703.05,-1656.77 702.69,-1663.76"/>
</g>
<!-- Node10 -->
<g id="node10" class="node">
<title>Node10</title>
<g id="a_node10"><a xlink:href="class_custom_u_i_1_1_astral_body_editor_1_1_orbit_graph_u_i.html" target="_top" xlink:title=" ">
<polygon fill="white" stroke="black" points="209,-557.5 209,-713.5 352,-713.5 352,-557.5 209,-557.5"/>
<text text-anchor="start" x="217" y="-701.5" font-family="Helvetica,sans-Serif" font-size="10.00">CustomUI.AstralBodyEditor.</text>
<text text-anchor="middle" x="280.5" y="-690.5" font-family="Helvetica,sans-Serif" font-size="10.00">OrbitGraphUI</text>
<polyline fill="none" stroke="black" points="209,-683.5 352,-683.5 "/>
<text text-anchor="start" x="217" y="-671.5" font-family="Helvetica,sans-Serif" font-size="10.00">+ float conHeight</text>
<text text-anchor="start" x="217" y="-660.5" font-family="Helvetica,sans-Serif" font-size="10.00">+ Image ellipseImage</text>
<text text-anchor="start" x="217" y="-649.5" font-family="Helvetica,sans-Serif" font-size="10.00">+ Image fillImage</text>
<text text-anchor="start" x="217" y="-638.5" font-family="Helvetica,sans-Serif" font-size="10.00">+ RectTransform fillMask</text>
<text text-anchor="start" x="217" y="-627.5" font-family="Helvetica,sans-Serif" font-size="10.00">+ Image leftFociImage</text>
<text text-anchor="start" x="217" y="-616.5" font-family="Helvetica,sans-Serif" font-size="10.00">+ Image oriImage</text>
<text text-anchor="start" x="217" y="-605.5" font-family="Helvetica,sans-Serif" font-size="10.00">+ Image rightFociImage</text>
<text text-anchor="start" x="217" y="-594.5" font-family="Helvetica,sans-Serif" font-size="10.00">+ Image targetImage</text>
<text text-anchor="start" x="217" y="-583.5" font-family="Helvetica,sans-Serif" font-size="10.00">+ Vector3 angularMomentum</text>
<polyline fill="none" stroke="black" points="209,-576.5 352,-576.5 "/>
<text text-anchor="start" x="217" y="-564.5" font-family="Helvetica,sans-Serif" font-size="10.00">+ void Init()</text>
</a>
</g>
</g>
<!-- Node2&#45;&gt;Node10 -->
<g id="edge15" class="edge">
<title>Node2&#45;&gt;Node10</title>
<path fill="none" stroke="midnightblue" d="M702.73,-1658.82C584.9,-1649.25 302.49,-1619.23 245.5,-1548 143.79,-1420.86 228.05,-909.9 265.15,-713.72"/>
<polygon fill="none" stroke="midnightblue" points="702.69,-1662.33 712.94,-1659.63 703.24,-1655.35 702.69,-1662.33"/>
</g>
<!-- Node12 -->
<g id="node12" class="node">
<title>Node12</title>
<g id="a_node12"><a xlink:href="class_custom_u_i_1_1_astral_body_editor_1_1_star_style_setting_u_i.html" target="_top" xlink:title=" ">
<polygon fill="white" stroke="black" points="545,-596 545,-675 684,-675 684,-596 545,-596"/>
<text text-anchor="start" x="553" y="-663" font-family="Helvetica,sans-Serif" font-size="10.00">CustomUI.AstralBodyEditor.</text>
<text text-anchor="middle" x="614.5" y="-652" font-family="Helvetica,sans-Serif" font-size="10.00">StarStyleSettingUI</text>
<polyline fill="none" stroke="black" points="545,-645 684,-645 "/>
<text text-anchor="middle" x="614.5" y="-633" font-family="Helvetica,sans-Serif" font-size="10.00"> </text>
<polyline fill="none" stroke="black" points="545,-626 684,-626 "/>
<text text-anchor="start" x="553" y="-614" font-family="Helvetica,sans-Serif" font-size="10.00">+ void ChangeStyle(int</text>
<text text-anchor="start" x="553" y="-603" font-family="Helvetica,sans-Serif" font-size="10.00"> index)</text>
</a>
</g>
</g>
<!-- Node2&#45;&gt;Node12 -->
<g id="edge22" class="edge">
<title>Node2&#45;&gt;Node12</title>
<path fill="none" stroke="midnightblue" d="M704.81,-1629.54C684.27,-1613.23 662.31,-1591.72 649.5,-1567 523.38,-1323.65 590.42,-1228.57 573.5,-955 567.38,-856.08 553.54,-829.08 573.5,-732 577.5,-712.56 585.63,-692.19 593.6,-675.29"/>
<polygon fill="none" stroke="midnightblue" points="702.83,-1632.43 712.88,-1635.75 707.09,-1626.88 702.83,-1632.43"/>
</g>
<!-- Node13 -->
<g id="node13" class="node">
<title>Node13</title>
<g id="a_node13"><a xlink:href="class_custom_u_i_1_1_astral_body_editor_1_1_velocity_editor_u_i.html" target="_top" xlink:title=" ">
<polygon fill="white" stroke="black" points="775,-414 775,-504 914,-504 914,-414 775,-414"/>
<text text-anchor="start" x="783" y="-492" font-family="Helvetica,sans-Serif" font-size="10.00">CustomUI.AstralBodyEditor.</text>
<text text-anchor="middle" x="844.5" y="-481" font-family="Helvetica,sans-Serif" font-size="10.00">VelocityEditorUI</text>
<polyline fill="none" stroke="black" points="775,-474 914,-474 "/>
<text text-anchor="start" x="783" y="-462" font-family="Helvetica,sans-Serif" font-size="10.00">+ float showSize</text>
<text text-anchor="start" x="783" y="-451" font-family="Helvetica,sans-Serif" font-size="10.00">+ LineRenderer velocityLine</text>
<text text-anchor="start" x="783" y="-440" font-family="Helvetica,sans-Serif" font-size="10.00">+ float Speed</text>
<polyline fill="none" stroke="black" points="775,-433 914,-433 "/>
<text text-anchor="start" x="783" y="-421" font-family="Helvetica,sans-Serif" font-size="10.00">+ void OnDisable()</text>
</a>
</g>
</g>
<!-- Node2&#45;&gt;Node13 -->
<g id="edge25" class="edge">
<title>Node2&#45;&gt;Node13</title>
<path fill="none" stroke="midnightblue" d="M747.07,-1624.81C717.64,-1472.11 613.8,-899.55 677.5,-732 681.3,-722 688.54,-723.48 693.5,-714 726.78,-650.39 694.01,-618.23 731.5,-557 743.72,-537.05 761.42,-519.08 779.2,-504.18"/>
<polygon fill="none" stroke="midnightblue" points="743.64,-1625.51 748.98,-1634.67 750.52,-1624.18 743.64,-1625.51"/>
</g>
<!-- Node14 -->
<g id="node14" class="node">
<title>Node14</title>
<g id="a_node14"><a xlink:href="class_custom_u_i_1_1_astral_body_editor_1_1_position_editor_u_i.html" target="_top" xlink:title=" ">
<polygon fill="white" stroke="black" points="1093,-563 1093,-708 1232,-708 1232,-563 1093,-563"/>
<text text-anchor="start" x="1101" y="-696" font-family="Helvetica,sans-Serif" font-size="10.00">CustomUI.AstralBodyEditor.</text>
<text text-anchor="middle" x="1162.5" y="-685" font-family="Helvetica,sans-Serif" font-size="10.00">PositionEditorUI</text>
<polyline fill="none" stroke="black" points="1093,-678 1232,-678 "/>
<text text-anchor="start" x="1101" y="-666" font-family="Helvetica,sans-Serif" font-size="10.00">+ bool isQuizEditor</text>
<text text-anchor="start" x="1101" y="-655" font-family="Helvetica,sans-Serif" font-size="10.00">+ float moveSpeed</text>
<text text-anchor="start" x="1101" y="-644" font-family="Helvetica,sans-Serif" font-size="10.00">+ Button xAxis</text>
<text text-anchor="start" x="1101" y="-633" font-family="Helvetica,sans-Serif" font-size="10.00">+ Button zAxis</text>
<polyline fill="none" stroke="black" points="1093,-626 1232,-626 "/>
<text text-anchor="start" x="1101" y="-614" font-family="Helvetica,sans-Serif" font-size="10.00">+ void OnBeginDrag()</text>
<text text-anchor="start" x="1101" y="-603" font-family="Helvetica,sans-Serif" font-size="10.00">+ void MoveAxis(bool</text>
<text text-anchor="start" x="1101" y="-592" font-family="Helvetica,sans-Serif" font-size="10.00"> isXAxis)</text>
<text text-anchor="start" x="1101" y="-581" font-family="Helvetica,sans-Serif" font-size="10.00">+ void MoveCenter()</text>
<text text-anchor="start" x="1101" y="-570" font-family="Helvetica,sans-Serif" font-size="10.00">+ void OnEndDrag()</text>
</a>
</g>
</g>
<!-- Node2&#45;&gt;Node14 -->
<g id="edge30" class="edge">
<title>Node2&#45;&gt;Node14</title>
<path fill="none" stroke="midnightblue" d="M806.35,-1657.5C872.49,-1648.18 985.28,-1621.8 1043.5,-1548 1242.8,-1295.38 1201.98,-875.27 1175.65,-708.21"/>
<polygon fill="none" stroke="midnightblue" points="805.6,-1654.07 796.15,-1658.86 806.52,-1661.01 805.6,-1654.07"/>
</g>
<!-- Node3&#45;&gt;Node1 -->
<g id="edge2" class="edge">
<title>Node3&#45;&gt;Node1</title>
<path fill="none" stroke="#404040" d="M976.22,-161.42C1005.69,-132.93 1038.08,-101.62 1063.2,-77.35"/>
<polygon fill="none" stroke="#404040" points="1063.47,-77.09 1065.01,-70.04 1072.1,-68.75 1070.57,-75.79 1063.47,-77.09"/>
<text text-anchor="middle" x="1095" y="-90" font-family="Helvetica,sans-Serif" font-size="10.00"> +astralBodyEditorUI</text>
</g>
<!-- Node4&#45;&gt;Node3 -->
<g id="edge4" class="edge">
<title>Node4&#45;&gt;Node3</title>
<path fill="none" stroke="#404040" d="M860.47,-584.79C887.18,-558.02 915.73,-527.08 923.5,-510 942.73,-467.72 943.32,-417.95 936.77,-372.71"/>
<polygon fill="none" stroke="#404040" points="936.74,-372.55 931.85,-367.25 934.85,-360.7 939.75,-365.99 936.74,-372.55"/>
<text text-anchor="middle" x="964.5" y="-462" font-family="Helvetica,sans-Serif" font-size="10.00"> +forceUI</text>
<text text-anchor="middle" x="964.5" y="-451" font-family="Helvetica,sans-Serif" font-size="10.00">+velocityUI</text>
</g>
<!-- Node4&#45;&gt;Node13 -->
<g id="edge27" class="edge">
<title>Node4&#45;&gt;Node13</title>
<path fill="none" stroke="#404040" d="M818.72,-584.96C823.16,-563.45 828.38,-538.16 832.95,-515.97"/>
<polygon fill="none" stroke="#404040" points="833,-515.76 830.29,-509.08 835.42,-504.01 838.13,-510.69 833,-515.76"/>
<text text-anchor="middle" x="855" y="-531" font-family="Helvetica,sans-Serif" font-size="10.00"> +velocityUI</text>
</g>
<!-- Node5 -->
<g id="node5" class="node">
<title>Node5</title>
<g id="a_node5"><a xlink:title=" ">
<polygon fill="white" stroke="#bfbfbf" points="442,-1232 442,-1289 477,-1289 477,-1232 442,-1232"/>
<text text-anchor="middle" x="459.5" y="-1277" font-family="Helvetica,sans-Serif" font-size="10.00">Text</text>
<polyline fill="none" stroke="#bfbfbf" points="442,-1270 477,-1270 "/>
<text text-anchor="middle" x="459.5" y="-1258" font-family="Helvetica,sans-Serif" font-size="10.00"> </text>
<polyline fill="none" stroke="#bfbfbf" points="442,-1251 477,-1251 "/>
<text text-anchor="middle" x="459.5" y="-1239" font-family="Helvetica,sans-Serif" font-size="10.00"> </text>
</a>
</g>
</g>
<!-- Node5&#45;&gt;Node4 -->
<g id="edge6" class="edge">
<title>Node5&#45;&gt;Node4</title>
<path fill="none" stroke="#404040" d="M477.19,-1238.18C515.65,-1190.64 607.07,-1070.97 652.5,-955 689.26,-861.17 642.57,-818.96 693.5,-732 703.08,-715.65 716.54,-700.86 730.9,-688.07"/>
<polygon fill="none" stroke="#404040" points="731.3,-687.73 733.27,-680.8 740.44,-679.95 738.46,-686.89 731.3,-687.73"/>
<text text-anchor="middle" x="720.5" y="-841" font-family="Helvetica,sans-Serif" font-size="10.00"> +vectorText</text>
</g>
<!-- Node5&#45;&gt;Node9 -->
<g id="edge19" class="edge">
<title>Node5&#45;&gt;Node9</title>
<path fill="none" stroke="#404040" d="M456.11,-1231.73C446.44,-1151.57 418.36,-912.86 402.5,-714 397.28,-648.52 393.4,-573.39 391.06,-521.92"/>
<polygon fill="none" stroke="#404040" points="391.05,-521.68 386.79,-515.86 390.52,-509.69 394.78,-515.51 391.05,-521.68"/>
<text text-anchor="middle" x="431" y="-671.5" font-family="Helvetica,sans-Serif" font-size="10.00"> +angle</text>
<text text-anchor="middle" x="431" y="-660.5" font-family="Helvetica,sans-Serif" font-size="10.00">+eccentricity</text>
<text text-anchor="middle" x="431" y="-649.5" font-family="Helvetica,sans-Serif" font-size="10.00">+focalLength</text>
<text text-anchor="middle" x="431" y="-638.5" font-family="Helvetica,sans-Serif" font-size="10.00">+geoCenter</text>
<text text-anchor="middle" x="431" y="-627.5" font-family="Helvetica,sans-Serif" font-size="10.00">+k</text>
<text text-anchor="middle" x="431" y="-616.5" font-family="Helvetica,sans-Serif" font-size="10.00">+majorAxis</text>
<text text-anchor="middle" x="431" y="-605.5" font-family="Helvetica,sans-Serif" font-size="10.00">+minorAxis</text>
<text text-anchor="middle" x="431" y="-594.5" font-family="Helvetica,sans-Serif" font-size="10.00">+period</text>
</g>
<!-- Node5&#45;&gt;Node10 -->
<g id="edge17" class="edge">
<title>Node5&#45;&gt;Node10</title>
<path fill="none" stroke="#404040" d="M464.19,-1231.83C472.1,-1174.99 481.15,-1044.39 412.5,-973 384.83,-944.22 351.3,-984.59 324.5,-955 291.06,-918.07 309.42,-781.19 301.5,-732 301.17,-729.95 300.83,-727.89 300.47,-725.8"/>
<polygon fill="none" stroke="#404040" points="300.42,-725.56 295.41,-720.38 298.27,-713.76 303.28,-718.94 300.42,-725.56"/>
<text text-anchor="middle" x="362.5" y="-852" font-family="Helvetica,sans-Serif" font-size="10.00"> +angularVelocity</text>
<text text-anchor="middle" x="362.5" y="-841" font-family="Helvetica,sans-Serif" font-size="10.00">+area</text>
<text text-anchor="middle" x="362.5" y="-830" font-family="Helvetica,sans-Serif" font-size="10.00">+distance</text>
</g>
<!-- Node5&#45;&gt;Node13 -->
<g id="edge26" class="edge">
<title>Node5&#45;&gt;Node13</title>
<path fill="none" stroke="#404040" d="M458.75,-1231.71C455.67,-1107.65 446.18,-608.19 491.5,-557 574.86,-462.85 653.75,-556.71 770.5,-510 771.17,-509.73 771.85,-509.45 772.52,-509.17"/>
<polygon fill="none" stroke="#404040" points="772.55,-509.16 776.28,-502.99 783.41,-504.06 779.68,-510.23 772.55,-509.16"/>
<text text-anchor="middle" x="514" y="-633" font-family="Helvetica,sans-Serif" font-size="10.00"> +speedUI</text>
</g>
<!-- Node6&#45;&gt;Node4 -->
<g id="edge7" class="edge">
<title>Node6&#45;&gt;Node4</title>
<path fill="none" stroke="#404040" d="M881.8,-973.26C880.65,-967.13 879.55,-961.03 878.5,-955 861.43,-856.84 883.04,-827.75 855.5,-732 852.17,-720.41 847.48,-708.53 842.35,-697.25"/>
<polygon fill="none" stroke="#404040" points="842.25,-697.04 836.06,-693.34 837.09,-686.21 843.28,-689.91 842.25,-697.04"/>
<text text-anchor="middle" x="906.5" y="-841" font-family="Helvetica,sans-Serif" font-size="10.00"> +astralBody</text>
</g>
<!-- Node6&#45;&gt;Node9 -->
<g id="edge20" class="edge">
<title>Node6&#45;&gt;Node9</title>
<path fill="none" stroke="#404040" d="M986.09,-973.24C984.2,-891.8 970.9,-805.37 934.5,-732 928.89,-720.68 918.86,-724.91 912.5,-714 876.85,-652.83 935.17,-607.45 885.5,-557 875.58,-546.93 649.37,-512.71 635.5,-510 580.47,-499.26 518.65,-486.74 470.62,-476.92"/>
<polygon fill="none" stroke="#404040" points="470.47,-476.89 463.79,-479.61 458.72,-474.48 465.4,-471.77 470.47,-476.89"/>
<text text-anchor="middle" x="943" y="-633" font-family="Helvetica,sans-Serif" font-size="10.00"> +_astralBody</text>
</g>
<!-- Node6&#45;&gt;Node10 -->
<g id="edge18" class="edge">
<title>Node6&#45;&gt;Node10</title>
<path fill="none" stroke="#404040" d="M872.68,-1197.82C797.2,-1138.74 682.93,-1045.46 592.5,-955 500.85,-863.32 507.2,-811.11 404.5,-732 389.7,-720.6 382.05,-724.36 366.5,-714 365.18,-713.12 363.87,-712.22 362.55,-711.31"/>
<polygon fill="none" stroke="#404040" points="362.2,-711.06 354.99,-710.76 352.5,-703.99 359.7,-704.29 362.2,-711.06"/>
<text text-anchor="middle" x="620.5" y="-841" font-family="Helvetica,sans-Serif" font-size="10.00"> +astralBody</text>
</g>
<!-- Node6&#45;&gt;Node12 -->
<g id="edge23" class="edge">
<title>Node6&#45;&gt;Node12</title>
<path fill="none" stroke="#404040" d="M872.96,-1124.5C845.02,-1072.91 815.67,-1012.62 795.5,-955 762.12,-859.65 806.73,-816.59 751.5,-732 746.69,-724.63 715.65,-702.79 684.33,-681.85"/>
<polygon fill="none" stroke="#404040" points="684.18,-681.75 676.97,-681.75 674.19,-675.1 681.4,-675.09 684.18,-681.75"/>
<text text-anchor="middle" x="823.5" y="-841" font-family="Helvetica,sans-Serif" font-size="10.00"> +astralBody</text>
</g>
<!-- Node6&#45;&gt;Node13 -->
<g id="edge28" class="edge">
<title>Node6&#45;&gt;Node13</title>
<path fill="none" stroke="#404040" d="M990.81,-973.4C1006.53,-811.93 1013.86,-628.52 977.5,-557 973.89,-549.91 948.25,-530.63 920.43,-511.11"/>
<polygon fill="none" stroke="#404040" points="920.38,-511.07 913.17,-510.92 910.54,-504.21 917.75,-504.36 920.38,-511.07"/>
<text text-anchor="middle" x="1035" y="-633" font-family="Helvetica,sans-Serif" font-size="10.00"> +editingTarget</text>
</g>
<!-- Node6&#45;&gt;Node14 -->
<g id="edge31" class="edge">
<title>Node6&#45;&gt;Node14</title>
<path fill="none" stroke="#404040" d="M1019.75,-973.11C1021.03,-967.02 1022.28,-960.98 1023.5,-955 1043.67,-856.35 1016.07,-820.82 1063.5,-732 1065.44,-728.37 1073.51,-719.77 1084.27,-709.14"/>
<polygon fill="none" stroke="#404040" points="1084.37,-709.04 1085.88,-701.99 1092.97,-700.67 1091.46,-707.72 1084.37,-709.04"/>
<text text-anchor="middle" x="1096" y="-841" font-family="Helvetica,sans-Serif" font-size="10.00"> +editingTarget</text>
</g>
<!-- Node7 -->
<g id="node7" class="node">
<title>Node7</title>
<g id="a_node7"><a xlink:href="interface_space_physic_1_1_i_traceable.html" target="_top" xlink:title="可追踪接口">
<polygon fill="white" stroke="black" points="1243.5,-1585.5 1243.5,-1741.5 1403.5,-1741.5 1403.5,-1585.5 1243.5,-1585.5"/>
<text text-anchor="middle" x="1323.5" y="-1729.5" font-family="Helvetica,sans-Serif" font-size="10.00">ITraceable</text>
<polyline fill="none" stroke="black" points="1243.5,-1722.5 1403.5,-1722.5 "/>
<text text-anchor="middle" x="1323.5" y="-1710.5" font-family="Helvetica,sans-Serif" font-size="10.00"> </text>
<polyline fill="none" stroke="black" points="1243.5,-1703.5 1403.5,-1703.5 "/>
<text text-anchor="start" x="1251.5" y="-1691.5" font-family="Helvetica,sans-Serif" font-size="10.00">+ Transform GetTransform()</text>
<text text-anchor="start" x="1251.5" y="-1680.5" font-family="Helvetica,sans-Serif" font-size="10.00">+ Vector3 GetPosition()</text>
<text text-anchor="start" x="1251.5" y="-1669.5" font-family="Helvetica,sans-Serif" font-size="10.00">+ GameObject GetGameObject()</text>
<text text-anchor="start" x="1251.5" y="-1658.5" font-family="Helvetica,sans-Serif" font-size="10.00">+ bool GetEnableTracing()</text>
<text text-anchor="start" x="1251.5" y="-1647.5" font-family="Helvetica,sans-Serif" font-size="10.00">+ float GetMass()</text>
<text text-anchor="start" x="1251.5" y="-1636.5" font-family="Helvetica,sans-Serif" font-size="10.00">+ Rigidbody GetRigidbody()</text>
<text text-anchor="start" x="1251.5" y="-1625.5" font-family="Helvetica,sans-Serif" font-size="10.00">+ Vector3 GetVelocity()</text>
<text text-anchor="start" x="1251.5" y="-1614.5" font-family="Helvetica,sans-Serif" font-size="10.00">+ List&lt; AstralBody &gt;</text>
<text text-anchor="start" x="1251.5" y="-1603.5" font-family="Helvetica,sans-Serif" font-size="10.00"> GetAffectedPlanets()</text>
<text text-anchor="start" x="1251.5" y="-1592.5" font-family="Helvetica,sans-Serif" font-size="10.00">+ AstralBody GetAstralBody()</text>
</a>
</g>
</g>
<!-- Node7&#45;&gt;Node6 -->
<g id="edge9" class="edge">
<title>Node7&#45;&gt;Node6</title>
<path fill="none" stroke="midnightblue" d="M1245.1,-1577.54C1183.11,-1510.35 1096.87,-1416.88 1034.27,-1349.04"/>
<polygon fill="none" stroke="midnightblue" points="1242.81,-1580.21 1252.16,-1585.18 1247.95,-1575.46 1242.81,-1580.21"/>
</g>
<!-- Node8&#45;&gt;Node3 -->
<g id="edge10" class="edge">
<title>Node8&#45;&gt;Node3</title>
<path fill="none" stroke="#404040" d="M62.69,-732.18C56.99,-668.06 60.4,-588.29 97.5,-528 247.87,-283.67 630.87,-244.04 806.72,-239.12"/>
<polygon fill="none" stroke="#404040" points="806.77,-239.12 812.67,-234.98 818.76,-238.83 812.86,-242.97 806.77,-239.12"/>
<text text-anchor="middle" x="132" y="-531" font-family="Helvetica,sans-Serif" font-size="10.00"> +gravityTracing</text>
</g>
<!-- Node9&#45;&gt;Node3 -->
<g id="edge12" class="edge">
<title>Node9&#45;&gt;Node3</title>
<path fill="none" stroke="#404040" d="M458.74,-427.85C549.6,-388.84 707.99,-320.85 807.56,-278.11"/>
<polygon fill="none" stroke="#404040" points="807.77,-278.02 811.71,-271.98 818.8,-273.28 814.86,-279.33 807.77,-278.02"/>
<text text-anchor="middle" x="598.5" y="-382" font-family="Helvetica,sans-Serif" font-size="10.00"> +orbitPanelUI</text>
</g>
<!-- Node10&#45;&gt;Node9 -->
<g id="edge14" class="edge">
<title>Node10&#45;&gt;Node9</title>
<path fill="none" stroke="#404040" d="M296.39,-557.42C300.16,-547.12 304.8,-537.01 310.5,-528 312.39,-525.01 314.45,-522.08 316.65,-519.22"/>
<polygon fill="none" stroke="#404040" points="316.87,-518.95 317.65,-511.78 324.57,-509.74 323.79,-516.91 316.87,-518.95"/>
<text text-anchor="middle" x="342.5" y="-531" font-family="Helvetica,sans-Serif" font-size="10.00"> +orbitGraphUI</text>
</g>
<!-- Node11 -->
<g id="node11" class="node">
<title>Node11</title>
<g id="a_node11"><a xlink:href="class_static_classes_1_1_math_plus_1_1_conic_section.html" target="_top" xlink:title="圆锥曲线">
<polygon fill="white" stroke="black" points="254,-1094.5 254,-1426.5 403,-1426.5 403,-1094.5 254,-1094.5"/>
<text text-anchor="start" x="262" y="-1414.5" font-family="Helvetica,sans-Serif" font-size="10.00">StaticClasses.MathPlus.Conic</text>
<text text-anchor="middle" x="328.5" y="-1403.5" font-family="Helvetica,sans-Serif" font-size="10.00">Section</text>
<polyline fill="none" stroke="black" points="254,-1396.5 403,-1396.5 "/>
<text text-anchor="start" x="262" y="-1384.5" font-family="Helvetica,sans-Serif" font-size="10.00">+ float a</text>
<text text-anchor="start" x="262" y="-1373.5" font-family="Helvetica,sans-Serif" font-size="10.00">+ float angle</text>
<text text-anchor="start" x="262" y="-1362.5" font-family="Helvetica,sans-Serif" font-size="10.00">+ float b</text>
<text text-anchor="start" x="262" y="-1351.5" font-family="Helvetica,sans-Serif" font-size="10.00">+ float c</text>
<text text-anchor="start" x="262" y="-1340.5" font-family="Helvetica,sans-Serif" font-size="10.00">+ float d</text>
<text text-anchor="start" x="262" y="-1329.5" font-family="Helvetica,sans-Serif" font-size="10.00">+ float e</text>
<text text-anchor="start" x="262" y="-1318.5" font-family="Helvetica,sans-Serif" font-size="10.00">+ float eccentricity</text>
<text text-anchor="start" x="262" y="-1307.5" font-family="Helvetica,sans-Serif" font-size="10.00">+ float f</text>
<text text-anchor="start" x="262" y="-1296.5" font-family="Helvetica,sans-Serif" font-size="10.00">+ float focalLength</text>
<text text-anchor="start" x="262" y="-1285.5" font-family="Helvetica,sans-Serif" font-size="10.00">+ Vector2 geoCenter</text>
<text text-anchor="start" x="262" y="-1274.5" font-family="Helvetica,sans-Serif" font-size="10.00">+ bool isEllipse</text>
<text text-anchor="start" x="262" y="-1263.5" font-family="Helvetica,sans-Serif" font-size="10.00">+ float semiMajorAxis</text>
<text text-anchor="start" x="262" y="-1252.5" font-family="Helvetica,sans-Serif" font-size="10.00">+ float semiMinorAxis</text>
<polyline fill="none" stroke="black" points="254,-1245.5 403,-1245.5 "/>
<text text-anchor="start" x="262" y="-1233.5" font-family="Helvetica,sans-Serif" font-size="10.00">+ ConicSection(float</text>
<text text-anchor="start" x="262" y="-1222.5" font-family="Helvetica,sans-Serif" font-size="10.00"> a, float b, float c,</text>
<text text-anchor="start" x="262" y="-1211.5" font-family="Helvetica,sans-Serif" font-size="10.00"> float d, float e, float f)</text>
<text text-anchor="start" x="262" y="-1200.5" font-family="Helvetica,sans-Serif" font-size="10.00">+ ConicSection(float</text>
<text text-anchor="start" x="262" y="-1189.5" font-family="Helvetica,sans-Serif" font-size="10.00"> a, float b, float c,</text>
<text text-anchor="start" x="262" y="-1178.5" font-family="Helvetica,sans-Serif" font-size="10.00"> float theta, Vector2</text>
<text text-anchor="start" x="262" y="-1167.5" font-family="Helvetica,sans-Serif" font-size="10.00"> geoCenter)</text>
<text text-anchor="start" x="262" y="-1156.5" font-family="Helvetica,sans-Serif" font-size="10.00">+ float[] GetY(float x)</text>
<text text-anchor="start" x="262" y="-1145.5" font-family="Helvetica,sans-Serif" font-size="10.00">+ float[] GetX(float y)</text>
<text text-anchor="start" x="262" y="-1134.5" font-family="Helvetica,sans-Serif" font-size="10.00">+ Vector2 GetPolarPos</text>
<text text-anchor="start" x="262" y="-1123.5" font-family="Helvetica,sans-Serif" font-size="10.00">(float ag)</text>
<text text-anchor="start" x="262" y="-1112.5" font-family="Helvetica,sans-Serif" font-size="10.00">+ float GetT(float m)</text>
<text text-anchor="start" x="262" y="-1101.5" font-family="Helvetica,sans-Serif" font-size="10.00">+ override string ToString()</text>
</a>
</g>
</g>
<!-- Node11&#45;&gt;Node10 -->
<g id="edge16" class="edge">
<title>Node11&#45;&gt;Node10</title>
<path fill="none" stroke="#404040" d="M293.12,-1094.29C285.01,-1049.33 277.57,-1000.48 273.5,-955 264.66,-856.28 269.87,-831.04 273.5,-732 273.58,-729.94 273.66,-727.86 273.75,-725.77"/>
<polygon fill="none" stroke="#404040" points="273.76,-725.6 270.07,-719.41 274.36,-713.61 278.06,-719.81 273.76,-725.6"/>
<text text-anchor="middle" x="287.5" y="-841" font-family="Helvetica,sans-Serif" font-size="10.00"> +orbit</text>
</g>
<!-- Node12&#45;&gt;Node3 -->
<g id="edge21" class="edge">
<title>Node12&#45;&gt;Node3</title>
<path fill="none" stroke="#404040" d="M619.53,-595.8C627.23,-548.12 645.51,-466.27 685.5,-408 717.46,-361.44 766.1,-321.47 808.73,-292.17"/>
<polygon fill="none" stroke="#404040" points="808.92,-292.04 811.65,-285.37 818.86,-285.33 816.13,-292 808.92,-292.04"/>
<text text-anchor="middle" x="726" y="-456.5" font-family="Helvetica,sans-Serif" font-size="10.00"> +styleSheetPanel</text>
</g>
<!-- Node13&#45;&gt;Node3 -->
<g id="edge24" class="edge">
<title>Node13&#45;&gt;Node3</title>
<path fill="none" stroke="#404040" d="M853.01,-413.61C855.31,-402.29 857.89,-390.17 860.5,-379 861,-376.85 861.51,-374.69 862.03,-372.51"/>
<polygon fill="none" stroke="#404040" points="862.06,-372.41 859.58,-365.64 864.88,-360.75 867.35,-367.52 862.06,-372.41"/>
<text text-anchor="middle" x="898.5" y="-382" font-family="Helvetica,sans-Serif" font-size="10.00"> +velocityEditorUI</text>
</g>
<!-- Node14&#45;&gt;Node3 -->
<g id="edge29" class="edge">
<title>Node14&#45;&gt;Node3</title>
<path fill="none" stroke="#404040" d="M1114.51,-562.97C1077.91,-508.42 1026.55,-431.86 982.98,-366.92"/>
<polygon fill="none" stroke="#404040" points="982.75,-366.57 976.08,-363.81 976.06,-356.6 982.73,-359.35 982.75,-366.57"/>
<text text-anchor="middle" x="1116.5" y="-456.5" font-family="Helvetica,sans-Serif" font-size="10.00"> +positionEditorUI</text>
</g>
</g>
</svg>
