<?xml version="1.0" encoding="UTF-8" standalone="no"?>
<!DOCTYPE svg PUBLIC "-//W3C//DTD SVG 1.1//EN"
 "http://www.w3.org/Graphics/SVG/1.1/DTD/svg11.dtd">
<!-- Generated by graphviz version 2.47.1 (20210417.1919)
 -->
<!-- Title: Spaceship.SpaceshipController Pages: 1 -->
<svg width="246pt" height="497pt"
 viewBox="0.00 0.00 245.50 497.00" xmlns="http://www.w3.org/2000/svg" xmlns:xlink="http://www.w3.org/1999/xlink">
<g id="graph0" class="graph" transform="scale(1 1) rotate(0) translate(4 493)">
<title>Spaceship.SpaceshipController</title>
<polygon fill="white" stroke="transparent" points="-4,4 -4,-493 241.5,-493 241.5,4 -4,4"/>
<!-- Node1 -->
<g id="node1" class="node">
<title>Node1</title>
<g id="a_node1"><a xlink:title=" ">
<polygon fill="#bfbfbf" stroke="black" points="0,-0.5 0,-57.5 152,-57.5 152,-0.5 0,-0.5"/>
<text text-anchor="middle" x="76" y="-45.5" font-family="Helvetica,sans-Serif" font-size="10.00">Spaceship.SpaceshipController</text>
<polyline fill="none" stroke="black" points="0,-38.5 152,-38.5 "/>
<text text-anchor="middle" x="76" y="-26.5" font-family="Helvetica,sans-Serif" font-size="10.00"> </text>
<polyline fill="none" stroke="black" points="0,-19.5 152,-19.5 "/>
<text text-anchor="middle" x="76" y="-7.5" font-family="Helvetica,sans-Serif" font-size="10.00"> </text>
</a>
</g>
</g>
<!-- Node2 -->
<g id="node2" class="node">
<title>Node2</title>
<g id="a_node2"><a xlink:title=" ">
<polygon fill="white" stroke="#bfbfbf" points="30.5,-431.5 30.5,-488.5 113.5,-488.5 113.5,-431.5 30.5,-431.5"/>
<text text-anchor="middle" x="72" y="-476.5" font-family="Helvetica,sans-Serif" font-size="10.00">MonoBehaviour</text>
<polyline fill="none" stroke="#bfbfbf" points="30.5,-469.5 113.5,-469.5 "/>
<text text-anchor="middle" x="72" y="-457.5" font-family="Helvetica,sans-Serif" font-size="10.00"> </text>
<polyline fill="none" stroke="#bfbfbf" points="30.5,-450.5 113.5,-450.5 "/>
<text text-anchor="middle" x="72" y="-438.5" font-family="Helvetica,sans-Serif" font-size="10.00"> </text>
</a>
</g>
</g>
<!-- Node2&#45;&gt;Node1 -->
<g id="edge1" class="edge">
<title>Node2&#45;&gt;Node1</title>
<path fill="none" stroke="midnightblue" d="M72.35,-420.94C73.15,-335.9 75.05,-132.11 75.74,-57.75"/>
<polygon fill="none" stroke="midnightblue" points="68.85,-421.15 72.26,-431.18 75.85,-421.22 68.85,-421.15"/>
</g>
<!-- Node3 -->
<g id="node3" class="node">
<title>Node3</title>
<g id="a_node3"><a xlink:href="class_spaceship_1_1_spaceship_mover.html" target="_top" xlink:title=" ">
<polygon fill="white" stroke="black" points="88.5,-105.5 88.5,-393.5 237.5,-393.5 237.5,-105.5 88.5,-105.5"/>
<text text-anchor="middle" x="163" y="-381.5" font-family="Helvetica,sans-Serif" font-size="10.00">Spaceship.SpaceshipMover</text>
<polyline fill="none" stroke="black" points="88.5,-374.5 237.5,-374.5 "/>
<text text-anchor="start" x="96.5" y="-362.5" font-family="Helvetica,sans-Serif" font-size="10.00">+ Transform avatar</text>
<text text-anchor="start" x="96.5" y="-351.5" font-family="Helvetica,sans-Serif" font-size="10.00">+ List&lt; ParticleSystem</text>
<text text-anchor="start" x="96.5" y="-340.5" font-family="Helvetica,sans-Serif" font-size="10.00"> &gt; particleSystems</text>
<text text-anchor="start" x="96.5" y="-329.5" font-family="Helvetica,sans-Serif" font-size="10.00">+ float maxForwardSpeed</text>
<text text-anchor="start" x="96.5" y="-318.5" font-family="Helvetica,sans-Serif" font-size="10.00">+ float forwardAcc</text>
<text text-anchor="start" x="96.5" y="-307.5" font-family="Helvetica,sans-Serif" font-size="10.00">+ float forwardDamp</text>
<text text-anchor="start" x="96.5" y="-296.5" font-family="Helvetica,sans-Serif" font-size="10.00">+ float maxUpSpeed</text>
<text text-anchor="start" x="96.5" y="-285.5" font-family="Helvetica,sans-Serif" font-size="10.00">+ float upAcc</text>
<text text-anchor="start" x="96.5" y="-274.5" font-family="Helvetica,sans-Serif" font-size="10.00">+ float upDamp</text>
<text text-anchor="start" x="96.5" y="-263.5" font-family="Helvetica,sans-Serif" font-size="10.00">+ float maxRotateSpeed</text>
<text text-anchor="start" x="96.5" y="-252.5" font-family="Helvetica,sans-Serif" font-size="10.00">+ float rotateAcc</text>
<text text-anchor="start" x="96.5" y="-241.5" font-family="Helvetica,sans-Serif" font-size="10.00">+ float rotateDamp</text>
<text text-anchor="start" x="96.5" y="-230.5" font-family="Helvetica,sans-Serif" font-size="10.00">+ float avatarUpAngle</text>
<text text-anchor="start" x="96.5" y="-219.5" font-family="Helvetica,sans-Serif" font-size="10.00">+ float avatarRotateAngle</text>
<text text-anchor="start" x="96.5" y="-208.5" font-family="Helvetica,sans-Serif" font-size="10.00">+ float avatarAngleInterpolation</text>
<text text-anchor="start" x="96.5" y="-197.5" font-family="Helvetica,sans-Serif" font-size="10.00">+ Vector4 inputVector</text>
<text text-anchor="start" x="96.5" y="-186.5" font-family="Helvetica,sans-Serif" font-size="10.00">+ Rigidbody mRigidbody</text>
<text text-anchor="start" x="96.5" y="-175.5" font-family="Helvetica,sans-Serif" font-size="10.00">~ Vector3 moveDirection</text>
<text text-anchor="start" x="96.5" y="-164.5" font-family="Helvetica,sans-Serif" font-size="10.00">~ float nowForwardSpeed</text>
<text text-anchor="start" x="96.5" y="-153.5" font-family="Helvetica,sans-Serif" font-size="10.00">~ float nowUpSpeed</text>
<text text-anchor="start" x="96.5" y="-142.5" font-family="Helvetica,sans-Serif" font-size="10.00">~ float nowRotateSpeed</text>
<text text-anchor="start" x="96.5" y="-131.5" font-family="Helvetica,sans-Serif" font-size="10.00">~ float nowRotateAngle</text>
<polyline fill="none" stroke="black" points="88.5,-124.5 237.5,-124.5 "/>
<text text-anchor="start" x="96.5" y="-112.5" font-family="Helvetica,sans-Serif" font-size="10.00">+ void WaitForInputFinish()</text>
</a>
</g>
</g>
<!-- Node2&#45;&gt;Node3 -->
<g id="edge3" class="edge">
<title>Node2&#45;&gt;Node3</title>
<path fill="none" stroke="midnightblue" d="M88.11,-422.08C91.87,-413.48 96.08,-403.82 100.56,-393.57"/>
<polygon fill="none" stroke="midnightblue" points="84.88,-420.75 84.08,-431.31 91.29,-423.55 84.88,-420.75"/>
</g>
<!-- Node3&#45;&gt;Node1 -->
<g id="edge2" class="edge">
<title>Node3&#45;&gt;Node1</title>
<path fill="none" stroke="#404040" d="M105.94,-105.2C100.73,-92.1 95.8,-79.74 91.51,-68.96"/>
<polygon fill="none" stroke="#404040" points="91.39,-68.66 85.46,-64.56 86.95,-57.51 92.89,-61.6 91.39,-68.66"/>
<text text-anchor="middle" x="137.5" y="-79" font-family="Helvetica,sans-Serif" font-size="10.00"> +spaceshipMover</text>
</g>
</g>
</svg>
