<?xml version="1.0" encoding="UTF-8" standalone="no"?>
<!DOCTYPE svg PUBLIC "-//W3C//DTD SVG 1.1//EN"
 "http://www.w3.org/Graphics/SVG/1.1/DTD/svg11.dtd">
<!-- Generated by graphviz version 2.47.1 (20210417.1919)
 -->
<!-- Title: Quiz.QuizSaver.ConvertXml2SceneBase Pages: 1 -->
<svg width="461pt" height="39pt"
 viewBox="0.00 0.00 461.00 39.00" xmlns="http://www.w3.org/2000/svg" xmlns:xlink="http://www.w3.org/1999/xlink">
<g id="graph0" class="graph" transform="scale(1 1) rotate(0) translate(4 35)">
<title>Quiz.QuizSaver.ConvertXml2SceneBase</title>
<polygon fill="white" stroke="transparent" points="-4,4 -4,-35 457,-35 457,4 -4,4"/>
<!-- Node1 -->
<g id="node1" class="node">
<title>Node1</title>
<g id="a_node1"><a xlink:title="将XML转为问题">
<polygon fill="#bfbfbf" stroke="black" points="313,-0.5 313,-30.5 453,-30.5 453,-0.5 313,-0.5"/>
<text text-anchor="start" x="321" y="-18.5" font-family="Helvetica,sans-Serif" font-size="10.00">Quiz.QuizSaver.ConvertXml2</text>
<text text-anchor="middle" x="383" y="-7.5" font-family="Helvetica,sans-Serif" font-size="10.00">SceneBase</text>
</a>
</g>
</g>
<!-- Node2 -->
<g id="node2" class="node">
<title>Node2</title>
<g id="a_node2"><a xlink:href="class_quiz_1_1_quiz_base.html#a89bc488d570a05d7dea68aae8b9f7541" target="_top" xlink:title=" ">
<polygon fill="white" stroke="black" points="143,-6 143,-25 277,-25 277,-6 143,-6"/>
<text text-anchor="middle" x="210" y="-13" font-family="Helvetica,sans-Serif" font-size="10.00">Quiz.QuizBase.LoadScene</text>
</a>
</g>
</g>
<!-- Node1&#45;&gt;Node2 -->
<g id="edge1" class="edge">
<title>Node1&#45;&gt;Node2</title>
<path fill="none" stroke="midnightblue" d="M302.93,-15.5C294.34,-15.5 285.67,-15.5 277.27,-15.5"/>
<polygon fill="midnightblue" stroke="midnightblue" points="302.94,-19 312.94,-15.5 302.94,-12 302.94,-19"/>
</g>
<!-- Node3 -->
<g id="node3" class="node">
<title>Node3</title>
<g id="a_node3"><a xlink:href="class_quiz_1_1_quiz_base.html#a62bd75950b67b8daa323ace19bc8cc7c" target="_top" xlink:title="是否加载完成">
<polygon fill="white" stroke="black" points="0,-6 0,-25 107,-25 107,-6 0,-6"/>
<text text-anchor="middle" x="53.5" y="-13" font-family="Helvetica,sans-Serif" font-size="10.00">Quiz.QuizBase.Start</text>
</a>
</g>
</g>
<!-- Node2&#45;&gt;Node3 -->
<g id="edge2" class="edge">
<title>Node2&#45;&gt;Node3</title>
<path fill="none" stroke="midnightblue" d="M132.31,-15.5C123.86,-15.5 115.41,-15.5 107.35,-15.5"/>
<polygon fill="midnightblue" stroke="midnightblue" points="132.58,-19 142.58,-15.5 132.58,-12 132.58,-19"/>
</g>
</g>
</svg>
