<?xml version="1.0" encoding="UTF-8" standalone="no"?>
<!DOCTYPE svg PUBLIC "-//W3C//DTD SVG 1.1//EN"
 "http://www.w3.org/Graphics/SVG/1.1/DTD/svg11.dtd">
<!-- Generated by graphviz version 2.47.1 (20210417.1919)
 -->
<!-- Title: CustomPostProcessing.OutlineCatcher Pages: 1 -->
<svg width="340pt" height="397pt"
 viewBox="0.00 0.00 340.00 397.00" xmlns="http://www.w3.org/2000/svg" xmlns:xlink="http://www.w3.org/1999/xlink">
<g id="graph0" class="graph" transform="scale(1 1) rotate(0) translate(4 393)">
<title>CustomPostProcessing.OutlineCatcher</title>
<polygon fill="white" stroke="transparent" points="-4,4 -4,-393 336,-393 336,4 -4,4"/>
<!-- Node1 -->
<g id="node1" class="node">
<title>Node1</title>
<g id="a_node1"><a xlink:title="描边抓取">
<polygon fill="#bfbfbf" stroke="black" points="72,-0.5 72,-178.5 244,-178.5 244,-0.5 72,-0.5"/>
<text text-anchor="start" x="80" y="-166.5" font-family="Helvetica,sans-Serif" font-size="10.00">CustomPostProcessing.Outline</text>
<text text-anchor="middle" x="158" y="-155.5" font-family="Helvetica,sans-Serif" font-size="10.00">Catcher</text>
<polyline fill="none" stroke="black" points="72,-148.5 244,-148.5 "/>
<text text-anchor="start" x="80" y="-136.5" font-family="Helvetica,sans-Serif" font-size="10.00">+ Color backgroundColor</text>
<text text-anchor="start" x="80" y="-125.5" font-family="Helvetica,sans-Serif" font-size="10.00">+ Color edgeColor</text>
<text text-anchor="start" x="80" y="-114.5" font-family="Helvetica,sans-Serif" font-size="10.00">+ float edgeOnly</text>
<text text-anchor="start" x="80" y="-103.5" font-family="Helvetica,sans-Serif" font-size="10.00">+ float edgeSize</text>
<text text-anchor="start" x="80" y="-92.5" font-family="Helvetica,sans-Serif" font-size="10.00">+ Camera outlineCamera</text>
<text text-anchor="start" x="80" y="-81.5" font-family="Helvetica,sans-Serif" font-size="10.00">+ Shader outlineShader</text>
<text text-anchor="start" x="80" y="-70.5" font-family="Helvetica,sans-Serif" font-size="10.00">+ Material outlineMaterial</text>
<polyline fill="none" stroke="black" points="72,-63.5 244,-63.5 "/>
<text text-anchor="start" x="80" y="-51.5" font-family="Helvetica,sans-Serif" font-size="10.00">+ RenderTexture GetRenderResult()</text>
<text text-anchor="start" x="80" y="-40.5" font-family="Helvetica,sans-Serif" font-size="10.00">+ void AddTarget(GameObject</text>
<text text-anchor="start" x="80" y="-29.5" font-family="Helvetica,sans-Serif" font-size="10.00"> target)</text>
<text text-anchor="start" x="80" y="-18.5" font-family="Helvetica,sans-Serif" font-size="10.00">+ void RemoveTarget(GameObject</text>
<text text-anchor="start" x="80" y="-7.5" font-family="Helvetica,sans-Serif" font-size="10.00"> target)</text>
</a>
</g>
</g>
<!-- Node2 -->
<g id="node2" class="node">
<title>Node2</title>
<g id="a_node2"><a xlink:href="class_custom_post_processing_1_1_custom_post_processing_base.html" target="_top" xlink:title="自定义后处理">
<polygon fill="white" stroke="black" points="0,-215.5 0,-294.5 142,-294.5 142,-215.5 0,-215.5"/>
<text text-anchor="middle" x="71" y="-282.5" font-family="Helvetica,sans-Serif" font-size="10.00">CustomPostProcessingBase</text>
<polyline fill="none" stroke="black" points="0,-275.5 142,-275.5 "/>
<text text-anchor="start" x="8" y="-263.5" font-family="Helvetica,sans-Serif" font-size="10.00">+ Camera mainCamera</text>
<polyline fill="none" stroke="black" points="0,-256.5 142,-256.5 "/>
<text text-anchor="start" x="8" y="-244.5" font-family="Helvetica,sans-Serif" font-size="10.00"># Material GenerateMaterial</text>
<text text-anchor="start" x="8" y="-233.5" font-family="Helvetica,sans-Serif" font-size="10.00">(Shader shader, ref Material</text>
<text text-anchor="start" x="8" y="-222.5" font-family="Helvetica,sans-Serif" font-size="10.00"> targetMaterial)</text>
</a>
</g>
</g>
<!-- Node2&#45;&gt;Node1 -->
<g id="edge1" class="edge">
<title>Node2&#45;&gt;Node1</title>
<path fill="none" stroke="midnightblue" d="M96.35,-206.36C101.02,-197.58 106.03,-188.17 111.1,-178.63"/>
<polygon fill="none" stroke="midnightblue" points="93.23,-204.78 91.62,-215.25 99.41,-208.07 93.23,-204.78"/>
</g>
<!-- Node3 -->
<g id="node3" class="node">
<title>Node3</title>
<g id="a_node3"><a xlink:title=" ">
<polygon fill="white" stroke="#bfbfbf" points="29.5,-331.5 29.5,-388.5 112.5,-388.5 112.5,-331.5 29.5,-331.5"/>
<text text-anchor="middle" x="71" y="-376.5" font-family="Helvetica,sans-Serif" font-size="10.00">MonoBehaviour</text>
<polyline fill="none" stroke="#bfbfbf" points="29.5,-369.5 112.5,-369.5 "/>
<text text-anchor="middle" x="71" y="-357.5" font-family="Helvetica,sans-Serif" font-size="10.00"> </text>
<polyline fill="none" stroke="#bfbfbf" points="29.5,-350.5 112.5,-350.5 "/>
<text text-anchor="middle" x="71" y="-338.5" font-family="Helvetica,sans-Serif" font-size="10.00"> </text>
</a>
</g>
</g>
<!-- Node3&#45;&gt;Node2 -->
<g id="edge2" class="edge">
<title>Node3&#45;&gt;Node2</title>
<path fill="none" stroke="midnightblue" d="M71,-321.16C71,-312.47 71,-303.23 71,-294.52"/>
<polygon fill="none" stroke="midnightblue" points="67.5,-321.4 71,-331.4 74.5,-321.4 67.5,-321.4"/>
</g>
<!-- Node4 -->
<g id="node4" class="node">
<title>Node4</title>
<g id="a_node4"><a xlink:href="interface_custom_post_processing_1_1_i_render_tex_outer.html" target="_top" xlink:title="RenderTexture输出接口">
<polygon fill="white" stroke="black" points="160,-226.5 160,-283.5 332,-283.5 332,-226.5 160,-226.5"/>
<text text-anchor="middle" x="246" y="-271.5" font-family="Helvetica,sans-Serif" font-size="10.00">IRenderTexOuter</text>
<polyline fill="none" stroke="black" points="160,-264.5 332,-264.5 "/>
<text text-anchor="middle" x="246" y="-252.5" font-family="Helvetica,sans-Serif" font-size="10.00"> </text>
<polyline fill="none" stroke="black" points="160,-245.5 332,-245.5 "/>
<text text-anchor="start" x="168" y="-233.5" font-family="Helvetica,sans-Serif" font-size="10.00">+ RenderTexture GetRenderResult()</text>
</a>
</g>
</g>
<!-- Node4&#45;&gt;Node1 -->
<g id="edge3" class="edge">
<title>Node4&#45;&gt;Node1</title>
<path fill="none" stroke="midnightblue" d="M226.27,-217.35C220.02,-205.73 212.81,-192.33 205.47,-178.7"/>
<polygon fill="none" stroke="midnightblue" points="223.25,-219.12 231.07,-226.26 229.41,-215.8 223.25,-219.12"/>
</g>
</g>
</svg>
