<?xml version="1.0" encoding="UTF-8" standalone="no"?>
<!DOCTYPE svg PUBLIC "-//W3C//DTD SVG 1.1//EN"
 "http://www.w3.org/Graphics/SVG/1.1/DTD/svg11.dtd">
<!-- Generated by graphviz version 2.47.1 (20210417.1919)
 -->
<!-- Title: CustomUI.Quiz.QuizListUI.DeleteQuiz Pages: 1 -->
<svg width="480pt" height="39pt"
 viewBox="0.00 0.00 480.00 39.00" xmlns="http://www.w3.org/2000/svg" xmlns:xlink="http://www.w3.org/1999/xlink">
<g id="graph0" class="graph" transform="scale(1 1) rotate(0) translate(4 35)">
<title>CustomUI.Quiz.QuizListUI.DeleteQuiz</title>
<polygon fill="white" stroke="transparent" points="-4,4 -4,-35 476,-35 476,4 -4,4"/>
<!-- Node1 -->
<g id="node1" class="node">
<title>Node1</title>
<g id="a_node1"><a xlink:title=" ">
<polygon fill="#bfbfbf" stroke="black" points="0,-0.5 0,-30.5 134,-30.5 134,-0.5 0,-0.5"/>
<text text-anchor="start" x="8" y="-18.5" font-family="Helvetica,sans-Serif" font-size="10.00">CustomUI.Quiz.QuizListUI.</text>
<text text-anchor="middle" x="67" y="-7.5" font-family="Helvetica,sans-Serif" font-size="10.00">DeleteQuiz</text>
</a>
</g>
</g>
<!-- Node2 -->
<g id="node2" class="node">
<title>Node2</title>
<g id="a_node2"><a xlink:href="class_quiz_1_1_quiz_saver.html#a52edeb1584fad4fdcd7ecc93e91cc950" target="_top" xlink:title="删除问题存档">
<polygon fill="white" stroke="black" points="170,-6 170,-25 306,-25 306,-6 170,-6"/>
<text text-anchor="middle" x="238" y="-13" font-family="Helvetica,sans-Serif" font-size="10.00">Quiz.QuizSaver.DeleteFiles</text>
</a>
</g>
</g>
<!-- Node1&#45;&gt;Node2 -->
<g id="edge1" class="edge">
<title>Node1&#45;&gt;Node2</title>
<path fill="none" stroke="midnightblue" d="M134.31,-15.5C142.59,-15.5 151.12,-15.5 159.55,-15.5"/>
<polygon fill="midnightblue" stroke="midnightblue" points="159.77,-19 169.77,-15.5 159.77,-12 159.77,-19"/>
</g>
<!-- Node3 -->
<g id="node3" class="node">
<title>Node3</title>
<g id="a_node3"><a xlink:href="class_xml_saver_1_1_xml_saver.html#ace394239dea50121f475e9af5e42638b" target="_top" xlink:title="删除存档">
<polygon fill="white" stroke="black" points="342,-0.5 342,-30.5 472,-30.5 472,-0.5 342,-0.5"/>
<text text-anchor="start" x="350" y="-18.5" font-family="Helvetica,sans-Serif" font-size="10.00">XmlSaver.XmlSaver.Delete</text>
<text text-anchor="middle" x="407" y="-7.5" font-family="Helvetica,sans-Serif" font-size="10.00">Files</text>
</a>
</g>
</g>
<!-- Node2&#45;&gt;Node3 -->
<g id="edge2" class="edge">
<title>Node2&#45;&gt;Node3</title>
<path fill="none" stroke="midnightblue" d="M306.44,-15.5C314.75,-15.5 323.27,-15.5 331.67,-15.5"/>
<polygon fill="midnightblue" stroke="midnightblue" points="331.82,-19 341.82,-15.5 331.82,-12 331.82,-19"/>
</g>
</g>
</svg>
