<?xml version="1.0" encoding="UTF-8" standalone="no"?>
<!DOCTYPE svg PUBLIC "-//W3C//DTD SVG 1.1//EN"
 "http://www.w3.org/Graphics/SVG/1.1/DTD/svg11.dtd">
<!-- Generated by graphviz version 2.47.1 (20210417.1919)
 -->
<!-- Title: CustomUI.Satellite.SatelliteControllerUI Pages: 1 -->
<!--zoomable 1426 -->
<svg id="main" version="1.1" xmlns="http://www.w3.org/2000/svg" xmlns:xlink="http://www.w3.org/1999/xlink" xml:space="preserve" onload="init(evt)">
<style type="text/css"><![CDATA[
.edge:hover path { stroke: red; }
.edge:hover polygon { stroke: red; fill: red; }
]]></style>
<script type="text/javascript"><![CDATA[
var edges = document.getElementsByTagName('g');
if (edges && edges.length) {
  for (var i=0;i<edges.length;i++) {
    if (edges[i].id.substr(0,4)=='edge') {
      edges[i].setAttribute('class','edge');
    }
  }
}
]]></script>
        <defs>
                <circle id="rim" cx="0" cy="0" r="7"/>
                <circle id="rim2" cx="0" cy="0" r="3.5"/>
                <g id="zoomPlus">
                        <use xlink:href="#rim" fill="#404040">
                                <set attributeName="fill" to="#808080" begin="zoomplus.mouseover" end="zoomplus.mouseout"/>
                        </use>
                        <path d="M-4,0h8M0,-4v8" fill="none" stroke="white" stroke-width="1.5" pointer-events="none"/>
                </g>
                <g id="zoomMin">
                        <use xlink:href="#rim" fill="#404040">
                                <set attributeName="fill" to="#808080" begin="zoomminus.mouseover" end="zoomminus.mouseout"/>
                        </use>
                        <path d="M-4,0h8" fill="none" stroke="white" stroke-width="1.5" pointer-events="none"/>
                </g>
                <g id="dirArrow">
                        <path fill="none" stroke="white" stroke-width="1.5" d="M0,-3.0v7 M-2.5,-0.5L0,-3.0L2.5,-0.5"/>
                </g>
               <g id="resetDef">
                       <use xlink:href="#rim2" fill="#404040">
                               <set attributeName="fill" to="#808080" begin="reset.mouseover" end="reset.mouseout"/>
                       </use>
               </g>
        </defs>

<script type="text/javascript">
var viewWidth = 683;
var viewHeight = 1426;
var sectionId = 'dynsection-1';
</script>
<script xlink:href="svgpan.js"/>
<svg id="graph" class="graph">
<g id="viewport">
<title>CustomUI.Satellite.SatelliteControllerUI</title>
<polygon fill="white" stroke="transparent" points="-4,4 -4,-1422 679,-1422 679,4 -4,4"/>
<!-- Node1 -->
<g id="node1" class="node">
<title>Node1</title>
<g id="a_node1"><a xlink:title=" ">
<polygon fill="#bfbfbf" stroke="black" points="135.5,-106.5 135.5,-196.5 271.5,-196.5 271.5,-106.5 135.5,-106.5"/>
<text text-anchor="start" x="143.5" y="-184.5" font-family="Helvetica,sans-Serif" font-size="10.00">CustomUI.Satellite.Satellite</text>
<text text-anchor="middle" x="203.5" y="-173.5" font-family="Helvetica,sans-Serif" font-size="10.00">ControllerUI</text>
<polyline fill="none" stroke="black" points="135.5,-166.5 271.5,-166.5 "/>
<text text-anchor="start" x="143.5" y="-154.5" font-family="Helvetica,sans-Serif" font-size="10.00">+ Slider slider</text>
<polyline fill="none" stroke="black" points="135.5,-147.5 271.5,-147.5 "/>
<text text-anchor="start" x="143.5" y="-135.5" font-family="Helvetica,sans-Serif" font-size="10.00">+ void ChangeSpeed()</text>
<text text-anchor="start" x="143.5" y="-124.5" font-family="Helvetica,sans-Serif" font-size="10.00">+ void Pause()</text>
<text text-anchor="start" x="143.5" y="-113.5" font-family="Helvetica,sans-Serif" font-size="10.00">+ void Continue()</text>
</a>
</g>
</g>
<!-- Node2 -->
<g id="node2" class="node">
<title>Node2</title>
<g id="a_node2"><a xlink:title=" ">
<polygon fill="white" stroke="#bfbfbf" points="284,-1311 284,-1368 367,-1368 367,-1311 284,-1311"/>
<text text-anchor="middle" x="325.5" y="-1356" font-family="Helvetica,sans-Serif" font-size="10.00">MonoBehaviour</text>
<polyline fill="none" stroke="#bfbfbf" points="284,-1349 367,-1349 "/>
<text text-anchor="middle" x="325.5" y="-1337" font-family="Helvetica,sans-Serif" font-size="10.00"> </text>
<polyline fill="none" stroke="#bfbfbf" points="284,-1330 367,-1330 "/>
<text text-anchor="middle" x="325.5" y="-1318" font-family="Helvetica,sans-Serif" font-size="10.00"> </text>
</a>
</g>
</g>
<!-- Node2&#45;&gt;Node1 -->
<g id="edge1" class="edge">
<title>Node2&#45;&gt;Node1</title>
<path fill="none" stroke="midnightblue" d="M318.47,-1300.76C295.66,-1176.1 223.8,-765.91 200.5,-423 195.09,-343.34 198.19,-250.2 200.88,-196.6"/>
<polygon fill="none" stroke="midnightblue" points="315.09,-1301.72 320.34,-1310.93 321.97,-1300.46 315.09,-1301.72"/>
</g>
<!-- Node3 -->
<g id="node3" class="node">
<title>Node3</title>
<g id="a_node3"><a xlink:href="class_satellite_1_1_satellite_controller.html" target="_top" xlink:title="卫星控制器">
<polygon fill="white" stroke="black" points="262,-288.5 262,-378.5 393,-378.5 393,-288.5 262,-288.5"/>
<text text-anchor="middle" x="327.5" y="-366.5" font-family="Helvetica,sans-Serif" font-size="10.00">Satellite.SatelliteController</text>
<polyline fill="none" stroke="black" points="262,-359.5 393,-359.5 "/>
<text text-anchor="start" x="270" y="-347.5" font-family="Helvetica,sans-Serif" font-size="10.00">+ float angularSpeed</text>
<text text-anchor="start" x="270" y="-336.5" font-family="Helvetica,sans-Serif" font-size="10.00">+ float speed</text>
<polyline fill="none" stroke="black" points="262,-329.5 393,-329.5 "/>
<text text-anchor="start" x="270" y="-317.5" font-family="Helvetica,sans-Serif" font-size="10.00">+ void SetCurDirVelocity</text>
<text text-anchor="start" x="270" y="-306.5" font-family="Helvetica,sans-Serif" font-size="10.00">(float newSpeed)</text>
<text text-anchor="start" x="270" y="-295.5" font-family="Helvetica,sans-Serif" font-size="10.00">+ void SeparateControl()</text>
</a>
</g>
</g>
<!-- Node2&#45;&gt;Node3 -->
<g id="edge3" class="edge">
<title>Node2&#45;&gt;Node3</title>
<path fill="none" stroke="midnightblue" d="M325.58,-1300.79C325.89,-1144.36 327.08,-546.89 327.41,-378.76"/>
<polygon fill="none" stroke="midnightblue" points="322.08,-1300.86 325.56,-1310.86 329.08,-1300.87 322.08,-1300.86"/>
</g>
<!-- Node4 -->
<g id="node4" class="node">
<title>Node4</title>
<g id="a_node4"><a xlink:href="class_satellite_1_1_satellite.html" target="_top" xlink:title="卫星整体">
<polygon fill="white" stroke="black" points="353.5,-908 353.5,-998 489.5,-998 489.5,-908 353.5,-908"/>
<text text-anchor="middle" x="421.5" y="-986" font-family="Helvetica,sans-Serif" font-size="10.00">Satellite.Satellite</text>
<polyline fill="none" stroke="black" points="353.5,-979 489.5,-979 "/>
<text text-anchor="start" x="361.5" y="-967" font-family="Helvetica,sans-Serif" font-size="10.00">+ List&lt; SatellitePart</text>
<text text-anchor="start" x="361.5" y="-956" font-family="Helvetica,sans-Serif" font-size="10.00"> &gt; satelliteParts</text>
<polyline fill="none" stroke="black" points="353.5,-949 489.5,-949 "/>
<text text-anchor="start" x="361.5" y="-937" font-family="Helvetica,sans-Serif" font-size="10.00">+ float GetMass()</text>
<text text-anchor="start" x="361.5" y="-926" font-family="Helvetica,sans-Serif" font-size="10.00">+ Transform GetTransform()</text>
<text text-anchor="start" x="361.5" y="-915" font-family="Helvetica,sans-Serif" font-size="10.00">+ Vector3 GetVelocity()</text>
</a>
</g>
</g>
<!-- Node2&#45;&gt;Node4 -->
<g id="edge5" class="edge">
<title>Node2&#45;&gt;Node4</title>
<path fill="none" stroke="midnightblue" d="M334.88,-1300.94C352.7,-1229.55 391.39,-1074.62 410.44,-998.3"/>
<polygon fill="none" stroke="midnightblue" points="331.43,-1300.3 332.4,-1310.85 338.22,-1301.99 331.43,-1300.3"/>
</g>
<!-- Node8 -->
<g id="node8" class="node">
<title>Node8</title>
<g id="a_node8"><a xlink:href="class_space_physic_1_1_astral_body.html" target="_top" xlink:title="星体物理实体">
<polygon fill="white" stroke="black" points="514,-682.5 514,-1223.5 675,-1223.5 675,-682.5 514,-682.5"/>
<text text-anchor="middle" x="594.5" y="-1211.5" font-family="Helvetica,sans-Serif" font-size="10.00">AstralBody</text>
<polyline fill="none" stroke="black" points="514,-1204.5 675,-1204.5 "/>
<text text-anchor="start" x="522" y="-1192.5" font-family="Helvetica,sans-Serif" font-size="10.00">+ List&lt; AstralBody &gt;</text>
<text text-anchor="start" x="522" y="-1181.5" font-family="Helvetica,sans-Serif" font-size="10.00"> affectedPlanets</text>
<text text-anchor="start" x="522" y="-1170.5" font-family="Helvetica,sans-Serif" font-size="10.00">+ float affectRadius</text>
<text text-anchor="start" x="522" y="-1159.5" font-family="Helvetica,sans-Serif" font-size="10.00">+ Vector3 angularVelocity</text>
<text text-anchor="start" x="522" y="-1148.5" font-family="Helvetica,sans-Serif" font-size="10.00">+ List&lt; AstralBody &gt;</text>
<text text-anchor="start" x="522" y="-1137.5" font-family="Helvetica,sans-Serif" font-size="10.00"> banAffectedPlanets</text>
<text text-anchor="start" x="522" y="-1126.5" font-family="Helvetica,sans-Serif" font-size="10.00">+ SphereCollider defaultCollider</text>
<text text-anchor="start" x="522" y="-1115.5" font-family="Helvetica,sans-Serif" font-size="10.00">+ bool enableAffect</text>
<text text-anchor="start" x="522" y="-1104.5" font-family="Helvetica,sans-Serif" font-size="10.00">+ bool enableTracing</text>
<text text-anchor="start" x="522" y="-1093.5" font-family="Helvetica,sans-Serif" font-size="10.00">+ Vector3 oriVelocity</text>
<text text-anchor="start" x="522" y="-1082.5" font-family="Helvetica,sans-Serif" font-size="10.00">+ SphereCollider triggerCollider</text>
<text text-anchor="start" x="522" y="-1071.5" font-family="Helvetica,sans-Serif" font-size="10.00">+ UnityEvent&lt; Vector3</text>
<text text-anchor="start" x="522" y="-1060.5" font-family="Helvetica,sans-Serif" font-size="10.00"> &gt; velocityChangedEvent</text>
<text text-anchor="start" x="522" y="-1049.5" font-family="Helvetica,sans-Serif" font-size="10.00">+ float? Mass</text>
<text text-anchor="start" x="522" y="-1038.5" font-family="Helvetica,sans-Serif" font-size="10.00">+ Rigidbody astralBodyRigidbody</text>
<text text-anchor="start" x="522" y="-1027.5" font-family="Helvetica,sans-Serif" font-size="10.00">+ Vector3 Force</text>
<text text-anchor="start" x="522" y="-1016.5" font-family="Helvetica,sans-Serif" font-size="10.00">+ float gravity</text>
<text text-anchor="start" x="522" y="-1005.5" font-family="Helvetica,sans-Serif" font-size="10.00">+ int meshNum</text>
<text text-anchor="start" x="522" y="-994.5" font-family="Helvetica,sans-Serif" font-size="10.00">+ float size</text>
<text text-anchor="start" x="522" y="-983.5" font-family="Helvetica,sans-Serif" font-size="10.00">+ double realMass</text>
<text text-anchor="start" x="522" y="-972.5" font-family="Helvetica,sans-Serif" font-size="10.00">+ double density</text>
<text text-anchor="start" x="522" y="-961.5" font-family="Helvetica,sans-Serif" font-size="10.00">+ Vector3 lastVelocity</text>
<text text-anchor="start" x="522" y="-950.5" font-family="Helvetica,sans-Serif" font-size="10.00">+ bool isLoadDone</text>
<polyline fill="none" stroke="black" points="514,-943.5 675,-943.5 "/>
<text text-anchor="start" x="522" y="-931.5" font-family="Helvetica,sans-Serif" font-size="10.00">+ virtual void OnCollision</text>
<text text-anchor="start" x="522" y="-920.5" font-family="Helvetica,sans-Serif" font-size="10.00">Enter(Collision other)</text>
<text text-anchor="start" x="522" y="-909.5" font-family="Helvetica,sans-Serif" font-size="10.00">+ Transform GetTransform()</text>
<text text-anchor="start" x="522" y="-898.5" font-family="Helvetica,sans-Serif" font-size="10.00">+ Vector3 GetPosition()</text>
<text text-anchor="start" x="522" y="-887.5" font-family="Helvetica,sans-Serif" font-size="10.00">+ GameObject GetGameObject()</text>
<text text-anchor="start" x="522" y="-876.5" font-family="Helvetica,sans-Serif" font-size="10.00">+ bool GetEnableTracing()</text>
<text text-anchor="start" x="522" y="-865.5" font-family="Helvetica,sans-Serif" font-size="10.00">+ virtual float GetMass()</text>
<text text-anchor="start" x="522" y="-854.5" font-family="Helvetica,sans-Serif" font-size="10.00">+ Rigidbody GetRigidbody()</text>
<text text-anchor="start" x="522" y="-843.5" font-family="Helvetica,sans-Serif" font-size="10.00">+ Vector3 GetVelocity()</text>
<text text-anchor="start" x="522" y="-832.5" font-family="Helvetica,sans-Serif" font-size="10.00">+ List&lt; AstralBody &gt;</text>
<text text-anchor="start" x="522" y="-821.5" font-family="Helvetica,sans-Serif" font-size="10.00"> GetAffectedPlanets()</text>
<text text-anchor="start" x="522" y="-810.5" font-family="Helvetica,sans-Serif" font-size="10.00">+ AstralBody GetAstralBody()</text>
<text text-anchor="start" x="522" y="-799.5" font-family="Helvetica,sans-Serif" font-size="10.00">+ void ChangeVelocity</text>
<text text-anchor="start" x="522" y="-788.5" font-family="Helvetica,sans-Serif" font-size="10.00">(Vector3 velocity)</text>
<text text-anchor="start" x="522" y="-777.5" font-family="Helvetica,sans-Serif" font-size="10.00">+ void ChangeVelocity</text>
<text text-anchor="start" x="522" y="-766.5" font-family="Helvetica,sans-Serif" font-size="10.00">(double realSpeed)</text>
<text text-anchor="start" x="522" y="-755.5" font-family="Helvetica,sans-Serif" font-size="10.00">+ Vector3 CalculateForce()</text>
<text text-anchor="start" x="522" y="-744.5" font-family="Helvetica,sans-Serif" font-size="10.00">+ void SetCircleVelocity()</text>
<text text-anchor="start" x="522" y="-733.5" font-family="Helvetica,sans-Serif" font-size="10.00">+ void SetCircleVelocityMenu()</text>
<text text-anchor="start" x="522" y="-722.5" font-family="Helvetica,sans-Serif" font-size="10.00"># virtual void Start()</text>
<text text-anchor="start" x="522" y="-711.5" font-family="Helvetica,sans-Serif" font-size="10.00"># void Generate()</text>
<text text-anchor="start" x="522" y="-700.5" font-family="Helvetica,sans-Serif" font-size="10.00"># virtual void FixedUpdate()</text>
<text text-anchor="start" x="522" y="-689.5" font-family="Helvetica,sans-Serif" font-size="10.00"># virtual void SetMass()</text>
</a>
</g>
</g>
<!-- Node2&#45;&gt;Node8 -->
<g id="edge10" class="edge">
<title>Node2&#45;&gt;Node8</title>
<path fill="none" stroke="midnightblue" d="M376.08,-1316.11C414.52,-1296.75 466.14,-1265.36 498.5,-1224 503.94,-1217.04 509.09,-1209.76 513.96,-1202.21"/>
<polygon fill="none" stroke="midnightblue" points="374.52,-1312.97 367.1,-1320.53 377.62,-1319.25 374.52,-1312.97"/>
</g>
<!-- Node11 -->
<g id="node11" class="node">
<title>Node11</title>
<g id="a_node11"><a xlink:href="class_space_physic_1_1_gravity_tracing.html" target="_top" xlink:title="引力追踪">
<polygon fill="white" stroke="black" points="0,-441.5 0,-663.5 165,-663.5 165,-441.5 0,-441.5"/>
<text text-anchor="middle" x="82.5" y="-651.5" font-family="Helvetica,sans-Serif" font-size="10.00">SpacePhysic.GravityTracing</text>
<polyline fill="none" stroke="black" points="0,-644.5 165,-644.5 "/>
<text text-anchor="start" x="8" y="-632.5" font-family="Helvetica,sans-Serif" font-size="10.00">+ int sample</text>
<text text-anchor="start" x="8" y="-621.5" font-family="Helvetica,sans-Serif" font-size="10.00">+ float timeScale</text>
<text text-anchor="start" x="8" y="-610.5" font-family="Helvetica,sans-Serif" font-size="10.00">+ SplineComputer splineComputer</text>
<text text-anchor="start" x="8" y="-599.5" font-family="Helvetica,sans-Serif" font-size="10.00">+ bool isFreezing</text>
<text text-anchor="start" x="8" y="-588.5" font-family="Helvetica,sans-Serif" font-size="10.00">+ bool isShowOrbit</text>
<polyline fill="none" stroke="black" points="0,-581.5 165,-581.5 "/>
<text text-anchor="start" x="8" y="-569.5" font-family="Helvetica,sans-Serif" font-size="10.00">+ void Awake()</text>
<text text-anchor="start" x="8" y="-558.5" font-family="Helvetica,sans-Serif" font-size="10.00">+ void Dispatch()</text>
<text text-anchor="start" x="8" y="-547.5" font-family="Helvetica,sans-Serif" font-size="10.00">+ void AddTracingTarget</text>
<text text-anchor="start" x="8" y="-536.5" font-family="Helvetica,sans-Serif" font-size="10.00">(ITraceable traceable)</text>
<text text-anchor="start" x="8" y="-525.5" font-family="Helvetica,sans-Serif" font-size="10.00">+ void Freeze(bool isFreezing)</text>
<text text-anchor="start" x="8" y="-514.5" font-family="Helvetica,sans-Serif" font-size="10.00">+ void RemoveAstralBody</text>
<text text-anchor="start" x="8" y="-503.5" font-family="Helvetica,sans-Serif" font-size="10.00">(AstralBody astralBody)</text>
<text text-anchor="start" x="8" y="-492.5" font-family="Helvetica,sans-Serif" font-size="10.00">+ ConicSection GetConicSection</text>
<text text-anchor="start" x="8" y="-481.5" font-family="Helvetica,sans-Serif" font-size="10.00">(ITraceable astralBody)</text>
<text text-anchor="start" x="8" y="-470.5" font-family="Helvetica,sans-Serif" font-size="10.00">+ void DrawMathOrbit</text>
<text text-anchor="start" x="8" y="-459.5" font-family="Helvetica,sans-Serif" font-size="10.00">(ConicSection conicSection,</text>
<text text-anchor="start" x="8" y="-448.5" font-family="Helvetica,sans-Serif" font-size="10.00"> int sam)</text>
</a>
</g>
</g>
<!-- Node2&#45;&gt;Node11 -->
<g id="edge15" class="edge">
<title>Node2&#45;&gt;Node11</title>
<path fill="none" stroke="midnightblue" d="M274.37,-1321.6C238.07,-1306.81 191.52,-1281.56 166.5,-1243 51.63,-1065.97 54.56,-808.77 67.91,-663.73"/>
<polygon fill="none" stroke="midnightblue" points="273.24,-1324.92 283.83,-1325.32 275.8,-1318.41 273.24,-1324.92"/>
</g>
<!-- Node3&#45;&gt;Node1 -->
<g id="edge2" class="edge">
<title>Node3&#45;&gt;Node1</title>
<path fill="none" stroke="#404040" d="M310.74,-288.48C300.87,-265.44 287.06,-237.44 270.5,-215 268.19,-211.86 265.7,-208.76 263.1,-205.7"/>
<polygon fill="none" stroke="#404040" points="263.03,-205.62 256.04,-203.84 255,-196.71 261.98,-198.49 263.03,-205.62"/>
<text text-anchor="middle" x="319" y="-218" font-family="Helvetica,sans-Serif" font-size="10.00"> +satelliteController</text>
</g>
<!-- Node4&#45;&gt;Node3 -->
<g id="edge4" class="edge">
<title>Node4&#45;&gt;Node3</title>
<path fill="none" stroke="#404040" d="M411.55,-907.8C399.15,-851.45 377.94,-750.89 364.5,-664 349.25,-565.44 350.64,-540.11 339.5,-441 337.66,-424.64 335.66,-406.88 333.83,-390.63"/>
<polygon fill="none" stroke="#404040" points="333.81,-390.47 329.17,-384.95 332.47,-378.54 337.12,-384.06 333.81,-390.47"/>
<text text-anchor="middle" x="386" y="-550" font-family="Helvetica,sans-Serif" font-size="10.00"> +satellite</text>
</g>
<!-- Node5 -->
<g id="node5" class="node">
<title>Node5</title>
<g id="a_node5"><a xlink:href="class_satellite_1_1_satellite_core.html" target="_top" xlink:title="卫星核心">
<polygon fill="white" stroke="black" points="444.5,-0.5 444.5,-68.5 572.5,-68.5 572.5,-0.5 444.5,-0.5"/>
<text text-anchor="middle" x="508.5" y="-56.5" font-family="Helvetica,sans-Serif" font-size="10.00">Satellite.SatelliteCore</text>
<polyline fill="none" stroke="black" points="444.5,-49.5 572.5,-49.5 "/>
<text text-anchor="middle" x="508.5" y="-37.5" font-family="Helvetica,sans-Serif" font-size="10.00"> </text>
<polyline fill="none" stroke="black" points="444.5,-30.5 572.5,-30.5 "/>
<text text-anchor="start" x="452.5" y="-18.5" font-family="Helvetica,sans-Serif" font-size="10.00">+ override float GetMass()</text>
<text text-anchor="start" x="452.5" y="-7.5" font-family="Helvetica,sans-Serif" font-size="10.00"># void Awake()</text>
</a>
</g>
</g>
<!-- Node4&#45;&gt;Node5 -->
<g id="edge12" class="edge">
<title>Node4&#45;&gt;Node5</title>
<path fill="none" stroke="#404040" d="M425.7,-907.8C440.37,-753.2 489.31,-237.7 504.18,-81.04"/>
<polygon fill="none" stroke="#404040" points="504.21,-80.64 500.8,-74.29 505.35,-68.7 508.76,-75.05 504.21,-80.64"/>
<text text-anchor="middle" x="512" y="-218" font-family="Helvetica,sans-Serif" font-size="10.00"> +satellite</text>
</g>
<!-- Node5&#45;&gt;Node4 -->
<g id="edge6" class="edge">
<title>Node5&#45;&gt;Node4</title>
<path fill="none" stroke="#404040" d="M487.06,-68.58C465.88,-103.39 434.9,-160.59 422.5,-215 407.58,-280.48 416.46,-734.21 420.14,-895.37"/>
<polygon fill="none" stroke="#404040" points="420.15,-895.81 424.28,-901.71 420.42,-907.8 416.29,-901.9 420.15,-895.81"/>
<text text-anchor="middle" x="454.5" y="-218" font-family="Helvetica,sans-Serif" font-size="10.00"> +satelliteCore</text>
</g>
<!-- Node6 -->
<g id="node6" class="node">
<title>Node6</title>
<g id="a_node6"><a xlink:href="class_satellite_1_1_satellite_engine.html" target="_top" xlink:title="卫星引擎">
<polygon fill="white" stroke="black" points="537.5,-112 537.5,-191 659.5,-191 659.5,-112 537.5,-112"/>
<text text-anchor="middle" x="598.5" y="-179" font-family="Helvetica,sans-Serif" font-size="10.00">SatelliteEngine</text>
<polyline fill="none" stroke="black" points="537.5,-172 659.5,-172 "/>
<text text-anchor="start" x="545.5" y="-160" font-family="Helvetica,sans-Serif" font-size="10.00">+ int engineStage</text>
<polyline fill="none" stroke="black" points="537.5,-153 659.5,-153 "/>
<text text-anchor="start" x="545.5" y="-141" font-family="Helvetica,sans-Serif" font-size="10.00">+ void SetCurDirVelocity</text>
<text text-anchor="start" x="545.5" y="-130" font-family="Helvetica,sans-Serif" font-size="10.00">(float speed)</text>
<text text-anchor="start" x="545.5" y="-119" font-family="Helvetica,sans-Serif" font-size="10.00"># void Awake()</text>
</a>
</g>
</g>
<!-- Node6&#45;&gt;Node5 -->
<g id="edge7" class="edge">
<title>Node6&#45;&gt;Node5</title>
<path fill="none" stroke="midnightblue" d="M562.02,-103.88C552.82,-92.14 543.14,-79.76 534.57,-68.82"/>
<polygon fill="none" stroke="midnightblue" points="559.36,-106.17 568.28,-111.89 564.87,-101.85 559.36,-106.17"/>
</g>
<!-- Node7 -->
<g id="node7" class="node">
<title>Node7</title>
<g id="a_node7"><a xlink:href="class_satellite_1_1_satellite_part.html" target="_top" xlink:title="卫星部件">
<polygon fill="white" stroke="black" points="537,-244.5 537,-422.5 664,-422.5 664,-244.5 537,-244.5"/>
<text text-anchor="middle" x="600.5" y="-410.5" font-family="Helvetica,sans-Serif" font-size="10.00">SatellitePart</text>
<polyline fill="none" stroke="black" points="537,-403.5 664,-403.5 "/>
<text text-anchor="start" x="545" y="-391.5" font-family="Helvetica,sans-Serif" font-size="10.00">+ List&lt; SatellitePart</text>
<text text-anchor="start" x="545" y="-380.5" font-family="Helvetica,sans-Serif" font-size="10.00"> &gt; connectedPartList</text>
<text text-anchor="start" x="545" y="-369.5" font-family="Helvetica,sans-Serif" font-size="10.00">+ string satelliteName</text>
<text text-anchor="start" x="545" y="-358.5" font-family="Helvetica,sans-Serif" font-size="10.00">+ SatelliteType PartType</text>
<polyline fill="none" stroke="black" points="537,-351.5 664,-351.5 "/>
<text text-anchor="start" x="545" y="-339.5" font-family="Helvetica,sans-Serif" font-size="10.00">+ void Push(Vector3 dir)</text>
<text text-anchor="start" x="545" y="-328.5" font-family="Helvetica,sans-Serif" font-size="10.00">+ void Rotate(Vector3 dir)</text>
<text text-anchor="start" x="545" y="-317.5" font-family="Helvetica,sans-Serif" font-size="10.00">+ void GenerateJoint()</text>
<text text-anchor="start" x="545" y="-306.5" font-family="Helvetica,sans-Serif" font-size="10.00">+ void GetPartName()</text>
<text text-anchor="start" x="545" y="-295.5" font-family="Helvetica,sans-Serif" font-size="10.00">+ void Separate(string</text>
<text text-anchor="start" x="545" y="-284.5" font-family="Helvetica,sans-Serif" font-size="10.00"> partName)</text>
<text text-anchor="start" x="545" y="-273.5" font-family="Helvetica,sans-Serif" font-size="10.00">+ void Separate(bool</text>
<text text-anchor="start" x="545" y="-262.5" font-family="Helvetica,sans-Serif" font-size="10.00"> separateAll)</text>
<text text-anchor="start" x="545" y="-251.5" font-family="Helvetica,sans-Serif" font-size="10.00"># override void SetMass()</text>
</a>
</g>
</g>
<!-- Node7&#45;&gt;Node6 -->
<g id="edge8" class="edge">
<title>Node7&#45;&gt;Node6</title>
<path fill="none" stroke="midnightblue" d="M599.41,-234.27C599.24,-218.98 599.07,-204.01 598.93,-191.14"/>
<polygon fill="none" stroke="midnightblue" points="595.91,-234.39 599.52,-244.35 602.91,-234.31 595.91,-234.39"/>
</g>
<!-- Node8&#45;&gt;Node7 -->
<g id="edge9" class="edge">
<title>Node8&#45;&gt;Node7</title>
<path fill="none" stroke="midnightblue" d="M597.22,-671.92C598.1,-581.7 599.01,-488.18 599.64,-422.55"/>
<polygon fill="none" stroke="midnightblue" points="593.72,-672.02 597.12,-682.05 600.72,-672.09 593.72,-672.02"/>
</g>
<!-- Node9 -->
<g id="node9" class="node">
<title>Node9</title>
<g id="a_node9"><a xlink:href="interface_space_physic_1_1_i_traceable.html" target="_top" xlink:title="可追踪接口">
<polygon fill="white" stroke="black" points="514.5,-1261.5 514.5,-1417.5 674.5,-1417.5 674.5,-1261.5 514.5,-1261.5"/>
<text text-anchor="middle" x="594.5" y="-1405.5" font-family="Helvetica,sans-Serif" font-size="10.00">ITraceable</text>
<polyline fill="none" stroke="black" points="514.5,-1398.5 674.5,-1398.5 "/>
<text text-anchor="middle" x="594.5" y="-1386.5" font-family="Helvetica,sans-Serif" font-size="10.00"> </text>
<polyline fill="none" stroke="black" points="514.5,-1379.5 674.5,-1379.5 "/>
<text text-anchor="start" x="522.5" y="-1367.5" font-family="Helvetica,sans-Serif" font-size="10.00">+ Transform GetTransform()</text>
<text text-anchor="start" x="522.5" y="-1356.5" font-family="Helvetica,sans-Serif" font-size="10.00">+ Vector3 GetPosition()</text>
<text text-anchor="start" x="522.5" y="-1345.5" font-family="Helvetica,sans-Serif" font-size="10.00">+ GameObject GetGameObject()</text>
<text text-anchor="start" x="522.5" y="-1334.5" font-family="Helvetica,sans-Serif" font-size="10.00">+ bool GetEnableTracing()</text>
<text text-anchor="start" x="522.5" y="-1323.5" font-family="Helvetica,sans-Serif" font-size="10.00">+ float GetMass()</text>
<text text-anchor="start" x="522.5" y="-1312.5" font-family="Helvetica,sans-Serif" font-size="10.00">+ Rigidbody GetRigidbody()</text>
<text text-anchor="start" x="522.5" y="-1301.5" font-family="Helvetica,sans-Serif" font-size="10.00">+ Vector3 GetVelocity()</text>
<text text-anchor="start" x="522.5" y="-1290.5" font-family="Helvetica,sans-Serif" font-size="10.00">+ List&lt; AstralBody &gt;</text>
<text text-anchor="start" x="522.5" y="-1279.5" font-family="Helvetica,sans-Serif" font-size="10.00"> GetAffectedPlanets()</text>
<text text-anchor="start" x="522.5" y="-1268.5" font-family="Helvetica,sans-Serif" font-size="10.00">+ AstralBody GetAstralBody()</text>
</a>
</g>
</g>
<!-- Node9&#45;&gt;Node8 -->
<g id="edge11" class="edge">
<title>Node9&#45;&gt;Node8</title>
<path fill="none" stroke="midnightblue" d="M594.5,-1251.05C594.5,-1242.27 594.5,-1233.07 594.5,-1223.57"/>
<polygon fill="none" stroke="midnightblue" points="591,-1251.15 594.5,-1261.15 598,-1251.15 591,-1251.15"/>
</g>
<!-- Node10 -->
<g id="node10" class="node">
<title>Node10</title>
<g id="a_node10"><a xlink:title=" ">
<polygon fill="white" stroke="#bfbfbf" points="209,-305 209,-362 244,-362 244,-305 209,-305"/>
<text text-anchor="middle" x="226.5" y="-350" font-family="Helvetica,sans-Serif" font-size="10.00">Text</text>
<polyline fill="none" stroke="#bfbfbf" points="209,-343 244,-343 "/>
<text text-anchor="middle" x="226.5" y="-331" font-family="Helvetica,sans-Serif" font-size="10.00"> </text>
<polyline fill="none" stroke="#bfbfbf" points="209,-324 244,-324 "/>
<text text-anchor="middle" x="226.5" y="-312" font-family="Helvetica,sans-Serif" font-size="10.00"> </text>
</a>
</g>
</g>
<!-- Node10&#45;&gt;Node1 -->
<g id="edge13" class="edge">
<title>Node10&#45;&gt;Node1</title>
<path fill="none" stroke="#404040" d="M222.96,-304.77C219.71,-279.35 214.8,-240.93 210.72,-209.04"/>
<polygon fill="none" stroke="#404040" points="210.67,-208.63 205.94,-203.19 209.15,-196.73 213.88,-202.18 210.67,-208.63"/>
<text text-anchor="middle" x="239" y="-218" font-family="Helvetica,sans-Serif" font-size="10.00"> +speedText</text>
</g>
<!-- Node11&#45;&gt;Node1 -->
<g id="edge14" class="edge">
<title>Node11&#45;&gt;Node1</title>
<path fill="none" stroke="#404040" d="M90.79,-441.45C98.19,-381.28 112.15,-306.5 138.5,-244 143.89,-231.22 151.3,-218.48 159.2,-206.74"/>
<polygon fill="none" stroke="#404040" points="159.34,-206.53 159.51,-199.32 166.22,-196.7 166.06,-203.91 159.34,-206.53"/>
<text text-anchor="middle" x="152.5" y="-331" font-family="Helvetica,sans-Serif" font-size="10.00"> +orbit</text>
</g>
</g>
</svg>
        <g id="navigator" transform="translate(0 0)" fill="#404254">
                <rect fill="#f2f5e9" fill-opacity="0.5" stroke="#606060" stroke-width=".5" x="0" y="0" width="60" height="60"/>
                <use id="zoomplus" xlink:href="#zoomPlus" x="17" y="9" onmousedown="handleZoom(evt,'in')"/>
                <use id="zoomminus" xlink:href="#zoomMin" x="42" y="9" onmousedown="handleZoom(evt,'out')"/>
                <use id="reset" xlink:href="#resetDef" x="30" y="36" onmousedown="handleReset()"/>
                <g id="arrowUp" xlink:href="#dirArrow" transform="translate(30 24)" onmousedown="handlePan(0,-1)">
                  <use xlink:href="#rim" fill="#404040">
                        <set attributeName="fill" to="#808080" begin="arrowUp.mouseover" end="arrowUp.mouseout"/>
                  </use>
                  <path fill="none" stroke="white" stroke-width="1.5" d="M0,-3.0v7 M-2.5,-0.5L0,-3.0L2.5,-0.5"/>
                </g>
                <g id="arrowRight" xlink:href="#dirArrow" transform="rotate(90) translate(36 -43)" onmousedown="handlePan(1,0)">
                  <use xlink:href="#rim" fill="#404040">
                        <set attributeName="fill" to="#808080" begin="arrowRight.mouseover" end="arrowRight.mouseout"/>
                  </use>
                  <path fill="none" stroke="white" stroke-width="1.5" d="M0,-3.0v7 M-2.5,-0.5L0,-3.0L2.5,-0.5"/>
                </g>
                <g id="arrowDown" xlink:href="#dirArrow" transform="rotate(180) translate(-30 -48)" onmousedown="handlePan(0,1)">
                  <use xlink:href="#rim" fill="#404040">
                        <set attributeName="fill" to="#808080" begin="arrowDown.mouseover" end="arrowDown.mouseout"/>
                  </use>
                  <path fill="none" stroke="white" stroke-width="1.5" d="M0,-3.0v7 M-2.5,-0.5L0,-3.0L2.5,-0.5"/>
                </g>
                <g id="arrowLeft" xlink:href="#dirArrow" transform="rotate(270) translate(-36 17)" onmousedown="handlePan(-1,0)">
                  <use xlink:href="#rim" fill="#404040">
                        <set attributeName="fill" to="#808080" begin="arrowLeft.mouseover" end="arrowLeft.mouseout"/>
                  </use>
                  <path fill="none" stroke="white" stroke-width="1.5" d="M0,-3.0v7 M-2.5,-0.5L0,-3.0L2.5,-0.5"/>
                </g>
        </g>
        <svg viewBox="0 0 15 15" width="100%" height="30px" preserveAspectRatio="xMaxYMin meet">
         <g id="arrow_out" transform="scale(0.3 0.3)">
          <a xlink:href="class_custom_u_i_1_1_satellite_1_1_satellite_controller_u_i__coll__graph_org.svg" target="_base">
           <rect id="button" ry="5" rx="5" y="6" x="6" height="38" width="38"
                fill="#f2f5e9" fill-opacity="0.5" stroke="#606060" stroke-width="1.0"/>
           <path id="arrow"
             d="M 11.500037,31.436501 C 11.940474,20.09759 22.043105,11.32322 32.158766,21.979434 L 37.068811,17.246167 C 37.068811,17.246167 37.088388,32 37.088388,32 L 22.160133,31.978069 C 22.160133,31.978069 26.997745,27.140456 26.997745,27.140456 C 18.528582,18.264221 13.291696,25.230495 11.500037,31.436501 z"
             style="fill:#404040;"/>
          </a>
         </g>
        </svg>
</svg>
