<?xml version="1.0" encoding="UTF-8" standalone="no"?>
<!DOCTYPE svg PUBLIC "-//W3C//DTD SVG 1.1//EN"
 "http://www.w3.org/Graphics/SVG/1.1/DTD/svg11.dtd">
<!-- Generated by graphviz version 2.47.1 (20210417.1919)
 -->
<!-- Title: SpaceshipPropertyUI Pages: 1 -->
<!--zoomable 915 -->
<svg id="main" version="1.1" xmlns="http://www.w3.org/2000/svg" xmlns:xlink="http://www.w3.org/1999/xlink" xml:space="preserve" onload="init(evt)">
<style type="text/css"><![CDATA[
.edge:hover path { stroke: red; }
.edge:hover polygon { stroke: red; fill: red; }
]]></style>
<script type="text/javascript"><![CDATA[
var edges = document.getElementsByTagName('g');
if (edges && edges.length) {
  for (var i=0;i<edges.length;i++) {
    if (edges[i].id.substr(0,4)=='edge') {
      edges[i].setAttribute('class','edge');
    }
  }
}
]]></script>
        <defs>
                <circle id="rim" cx="0" cy="0" r="7"/>
                <circle id="rim2" cx="0" cy="0" r="3.5"/>
                <g id="zoomPlus">
                        <use xlink:href="#rim" fill="#404040">
                                <set attributeName="fill" to="#808080" begin="zoomplus.mouseover" end="zoomplus.mouseout"/>
                        </use>
                        <path d="M-4,0h8M0,-4v8" fill="none" stroke="white" stroke-width="1.5" pointer-events="none"/>
                </g>
                <g id="zoomMin">
                        <use xlink:href="#rim" fill="#404040">
                                <set attributeName="fill" to="#808080" begin="zoomminus.mouseover" end="zoomminus.mouseout"/>
                        </use>
                        <path d="M-4,0h8" fill="none" stroke="white" stroke-width="1.5" pointer-events="none"/>
                </g>
                <g id="dirArrow">
                        <path fill="none" stroke="white" stroke-width="1.5" d="M0,-3.0v7 M-2.5,-0.5L0,-3.0L2.5,-0.5"/>
                </g>
               <g id="resetDef">
                       <use xlink:href="#rim2" fill="#404040">
                               <set attributeName="fill" to="#808080" begin="reset.mouseover" end="reset.mouseout"/>
                       </use>
               </g>
        </defs>

<script type="text/javascript">
var viewWidth = 477;
var viewHeight = 915;
var sectionId = 'dynsection-1';
</script>
<script xlink:href="svgpan.js"/>
<svg id="graph" class="graph">
<g id="viewport">
<title>SpaceshipPropertyUI</title>
<polygon fill="white" stroke="transparent" points="-4,4 -4,-911 473.4,-911 473.4,4 -4,4"/>
<!-- Node1 -->
<g id="node1" class="node">
<title>Node1</title>
<g id="a_node1"><a xlink:title=" ">
<polygon fill="#bfbfbf" stroke="black" points="174.9,-0.5 174.9,-79.5 312.9,-79.5 312.9,-0.5 174.9,-0.5"/>
<text text-anchor="middle" x="243.9" y="-67.5" font-family="Helvetica,sans-Serif" font-size="10.00">SpaceshipPropertyUI</text>
<polyline fill="none" stroke="black" points="174.9,-60.5 312.9,-60.5 "/>
<text text-anchor="start" x="182.9" y="-48.5" font-family="Helvetica,sans-Serif" font-size="10.00">+ Transform followTransform</text>
<text text-anchor="start" x="182.9" y="-37.5" font-family="Helvetica,sans-Serif" font-size="10.00">+ Transform faceTransform</text>
<text text-anchor="start" x="182.9" y="-26.5" font-family="Helvetica,sans-Serif" font-size="10.00">+ bool isVr</text>
<polyline fill="none" stroke="black" points="174.9,-19.5 312.9,-19.5 "/>
<text text-anchor="middle" x="243.9" y="-7.5" font-family="Helvetica,sans-Serif" font-size="10.00"> </text>
</a>
</g>
</g>
<!-- Node2 -->
<g id="node2" class="node">
<title>Node2</title>
<g id="a_node2"><a xlink:title=" ">
<polygon fill="white" stroke="#bfbfbf" points="121.4,-800 121.4,-857 204.4,-857 204.4,-800 121.4,-800"/>
<text text-anchor="middle" x="162.9" y="-845" font-family="Helvetica,sans-Serif" font-size="10.00">MonoBehaviour</text>
<polyline fill="none" stroke="#bfbfbf" points="121.4,-838 204.4,-838 "/>
<text text-anchor="middle" x="162.9" y="-826" font-family="Helvetica,sans-Serif" font-size="10.00"> </text>
<polyline fill="none" stroke="#bfbfbf" points="121.4,-819 204.4,-819 "/>
<text text-anchor="middle" x="162.9" y="-807" font-family="Helvetica,sans-Serif" font-size="10.00"> </text>
</a>
</g>
</g>
<!-- Node2&#45;&gt;Node1 -->
<g id="edge1" class="edge">
<title>Node2&#45;&gt;Node1</title>
<path fill="none" stroke="midnightblue" d="M127.74,-792.15C109.32,-771.08 88.62,-742.71 78.9,-713 -0.64,-470.14 -48.01,-359.82 78.9,-138 99.52,-101.95 139.34,-77.98 174.7,-62.88"/>
<polygon fill="none" stroke="midnightblue" points="125.37,-794.75 134.66,-799.85 130.58,-790.07 125.37,-794.75"/>
</g>
<!-- Node3 -->
<g id="node3" class="node">
<title>Node3</title>
<g id="a_node3"><a xlink:href="class_spaceship_1_1_spaceship_mover.html" target="_top" xlink:title=" ">
<polygon fill="white" stroke="black" points="88.4,-281.5 88.4,-569.5 237.4,-569.5 237.4,-281.5 88.4,-281.5"/>
<text text-anchor="middle" x="162.9" y="-557.5" font-family="Helvetica,sans-Serif" font-size="10.00">Spaceship.SpaceshipMover</text>
<polyline fill="none" stroke="black" points="88.4,-550.5 237.4,-550.5 "/>
<text text-anchor="start" x="96.4" y="-538.5" font-family="Helvetica,sans-Serif" font-size="10.00">+ Transform avatar</text>
<text text-anchor="start" x="96.4" y="-527.5" font-family="Helvetica,sans-Serif" font-size="10.00">+ List&lt; ParticleSystem</text>
<text text-anchor="start" x="96.4" y="-516.5" font-family="Helvetica,sans-Serif" font-size="10.00"> &gt; particleSystems</text>
<text text-anchor="start" x="96.4" y="-505.5" font-family="Helvetica,sans-Serif" font-size="10.00">+ float maxForwardSpeed</text>
<text text-anchor="start" x="96.4" y="-494.5" font-family="Helvetica,sans-Serif" font-size="10.00">+ float forwardAcc</text>
<text text-anchor="start" x="96.4" y="-483.5" font-family="Helvetica,sans-Serif" font-size="10.00">+ float forwardDamp</text>
<text text-anchor="start" x="96.4" y="-472.5" font-family="Helvetica,sans-Serif" font-size="10.00">+ float maxUpSpeed</text>
<text text-anchor="start" x="96.4" y="-461.5" font-family="Helvetica,sans-Serif" font-size="10.00">+ float upAcc</text>
<text text-anchor="start" x="96.4" y="-450.5" font-family="Helvetica,sans-Serif" font-size="10.00">+ float upDamp</text>
<text text-anchor="start" x="96.4" y="-439.5" font-family="Helvetica,sans-Serif" font-size="10.00">+ float maxRotateSpeed</text>
<text text-anchor="start" x="96.4" y="-428.5" font-family="Helvetica,sans-Serif" font-size="10.00">+ float rotateAcc</text>
<text text-anchor="start" x="96.4" y="-417.5" font-family="Helvetica,sans-Serif" font-size="10.00">+ float rotateDamp</text>
<text text-anchor="start" x="96.4" y="-406.5" font-family="Helvetica,sans-Serif" font-size="10.00">+ float avatarUpAngle</text>
<text text-anchor="start" x="96.4" y="-395.5" font-family="Helvetica,sans-Serif" font-size="10.00">+ float avatarRotateAngle</text>
<text text-anchor="start" x="96.4" y="-384.5" font-family="Helvetica,sans-Serif" font-size="10.00">+ float avatarAngleInterpolation</text>
<text text-anchor="start" x="96.4" y="-373.5" font-family="Helvetica,sans-Serif" font-size="10.00">+ Vector4 inputVector</text>
<text text-anchor="start" x="96.4" y="-362.5" font-family="Helvetica,sans-Serif" font-size="10.00">+ Rigidbody mRigidbody</text>
<text text-anchor="start" x="96.4" y="-351.5" font-family="Helvetica,sans-Serif" font-size="10.00">~ Vector3 moveDirection</text>
<text text-anchor="start" x="96.4" y="-340.5" font-family="Helvetica,sans-Serif" font-size="10.00">~ float nowForwardSpeed</text>
<text text-anchor="start" x="96.4" y="-329.5" font-family="Helvetica,sans-Serif" font-size="10.00">~ float nowUpSpeed</text>
<text text-anchor="start" x="96.4" y="-318.5" font-family="Helvetica,sans-Serif" font-size="10.00">~ float nowRotateSpeed</text>
<text text-anchor="start" x="96.4" y="-307.5" font-family="Helvetica,sans-Serif" font-size="10.00">~ float nowRotateAngle</text>
<polyline fill="none" stroke="black" points="88.4,-300.5 237.4,-300.5 "/>
<text text-anchor="start" x="96.4" y="-288.5" font-family="Helvetica,sans-Serif" font-size="10.00">+ void WaitForInputFinish()</text>
</a>
</g>
</g>
<!-- Node2&#45;&gt;Node3 -->
<g id="edge3" class="edge">
<title>Node2&#45;&gt;Node3</title>
<path fill="none" stroke="midnightblue" d="M162.9,-789.89C162.9,-739.79 162.9,-648.32 162.9,-569.69"/>
<polygon fill="none" stroke="midnightblue" points="159.4,-789.94 162.9,-799.94 166.4,-789.94 159.4,-789.94"/>
</g>
<!-- Node5 -->
<g id="node5" class="node">
<title>Node5</title>
<g id="a_node5"><a xlink:href="class_space_physic_1_1_astral_body.html" target="_top" xlink:title="星体物理实体">
<polygon fill="white" stroke="black" points="255.4,-138.5 255.4,-712.5 416.4,-712.5 416.4,-138.5 255.4,-138.5"/>
<text text-anchor="middle" x="335.9" y="-700.5" font-family="Helvetica,sans-Serif" font-size="10.00">SpacePhysic.AstralBody</text>
<polyline fill="none" stroke="black" points="255.4,-693.5 416.4,-693.5 "/>
<text text-anchor="start" x="263.4" y="-681.5" font-family="Helvetica,sans-Serif" font-size="10.00">+ List&lt; AstralBody &gt;</text>
<text text-anchor="start" x="263.4" y="-670.5" font-family="Helvetica,sans-Serif" font-size="10.00"> affectedPlanets</text>
<text text-anchor="start" x="263.4" y="-659.5" font-family="Helvetica,sans-Serif" font-size="10.00">+ float affectRadius</text>
<text text-anchor="start" x="263.4" y="-648.5" font-family="Helvetica,sans-Serif" font-size="10.00">+ Vector3 angularVelocity</text>
<text text-anchor="start" x="263.4" y="-637.5" font-family="Helvetica,sans-Serif" font-size="10.00">+ List&lt; AstralBody &gt;</text>
<text text-anchor="start" x="263.4" y="-626.5" font-family="Helvetica,sans-Serif" font-size="10.00"> banAffectedPlanets</text>
<text text-anchor="start" x="263.4" y="-615.5" font-family="Helvetica,sans-Serif" font-size="10.00">+ SphereCollider defaultCollider</text>
<text text-anchor="start" x="263.4" y="-604.5" font-family="Helvetica,sans-Serif" font-size="10.00">+ bool enableAffect</text>
<text text-anchor="start" x="263.4" y="-593.5" font-family="Helvetica,sans-Serif" font-size="10.00">+ bool enableTracing</text>
<text text-anchor="start" x="263.4" y="-582.5" font-family="Helvetica,sans-Serif" font-size="10.00">+ Vector3 oriVelocity</text>
<text text-anchor="start" x="263.4" y="-571.5" font-family="Helvetica,sans-Serif" font-size="10.00">+ SphereCollider triggerCollider</text>
<text text-anchor="start" x="263.4" y="-560.5" font-family="Helvetica,sans-Serif" font-size="10.00">+ UnityEvent&lt; Vector3</text>
<text text-anchor="start" x="263.4" y="-549.5" font-family="Helvetica,sans-Serif" font-size="10.00"> &gt; velocityChangedEvent</text>
<text text-anchor="start" x="263.4" y="-538.5" font-family="Helvetica,sans-Serif" font-size="10.00">+ UnityEvent astralBodyDestroy</text>
<text text-anchor="start" x="263.4" y="-527.5" font-family="Helvetica,sans-Serif" font-size="10.00">Event</text>
<text text-anchor="start" x="263.4" y="-516.5" font-family="Helvetica,sans-Serif" font-size="10.00">+ bool isUseScaler</text>
<text text-anchor="start" x="263.4" y="-505.5" font-family="Helvetica,sans-Serif" font-size="10.00">+ float? Mass</text>
<text text-anchor="start" x="263.4" y="-494.5" font-family="Helvetica,sans-Serif" font-size="10.00">+ Rigidbody astralBodyRigidbody</text>
<text text-anchor="start" x="263.4" y="-483.5" font-family="Helvetica,sans-Serif" font-size="10.00">+ Vector3 Force</text>
<text text-anchor="start" x="263.4" y="-472.5" font-family="Helvetica,sans-Serif" font-size="10.00">+ float gravity</text>
<text text-anchor="start" x="263.4" y="-461.5" font-family="Helvetica,sans-Serif" font-size="10.00">+ int meshNum</text>
<text text-anchor="start" x="263.4" y="-450.5" font-family="Helvetica,sans-Serif" font-size="10.00">+ float size</text>
<text text-anchor="start" x="263.4" y="-439.5" font-family="Helvetica,sans-Serif" font-size="10.00">+ double realMass</text>
<text text-anchor="start" x="263.4" y="-428.5" font-family="Helvetica,sans-Serif" font-size="10.00">+ double density</text>
<text text-anchor="start" x="263.4" y="-417.5" font-family="Helvetica,sans-Serif" font-size="10.00">+ Vector3 lastVelocity</text>
<text text-anchor="start" x="263.4" y="-406.5" font-family="Helvetica,sans-Serif" font-size="10.00">+ bool isLoadDone</text>
<polyline fill="none" stroke="black" points="255.4,-399.5 416.4,-399.5 "/>
<text text-anchor="start" x="263.4" y="-387.5" font-family="Helvetica,sans-Serif" font-size="10.00">+ virtual void OnCollision</text>
<text text-anchor="start" x="263.4" y="-376.5" font-family="Helvetica,sans-Serif" font-size="10.00">Enter(Collision other)</text>
<text text-anchor="start" x="263.4" y="-365.5" font-family="Helvetica,sans-Serif" font-size="10.00">+ Transform GetTransform()</text>
<text text-anchor="start" x="263.4" y="-354.5" font-family="Helvetica,sans-Serif" font-size="10.00">+ Vector3 GetPosition()</text>
<text text-anchor="start" x="263.4" y="-343.5" font-family="Helvetica,sans-Serif" font-size="10.00">+ GameObject GetGameObject()</text>
<text text-anchor="start" x="263.4" y="-332.5" font-family="Helvetica,sans-Serif" font-size="10.00">+ bool GetEnableTracing()</text>
<text text-anchor="start" x="263.4" y="-321.5" font-family="Helvetica,sans-Serif" font-size="10.00">+ virtual float GetMass()</text>
<text text-anchor="start" x="263.4" y="-310.5" font-family="Helvetica,sans-Serif" font-size="10.00">+ Rigidbody GetRigidbody()</text>
<text text-anchor="start" x="263.4" y="-299.5" font-family="Helvetica,sans-Serif" font-size="10.00">+ Vector3 GetVelocity()</text>
<text text-anchor="start" x="263.4" y="-288.5" font-family="Helvetica,sans-Serif" font-size="10.00">+ List&lt; AstralBody &gt;</text>
<text text-anchor="start" x="263.4" y="-277.5" font-family="Helvetica,sans-Serif" font-size="10.00"> GetAffectedPlanets()</text>
<text text-anchor="start" x="263.4" y="-266.5" font-family="Helvetica,sans-Serif" font-size="10.00">+ AstralBody GetAstralBody()</text>
<text text-anchor="start" x="263.4" y="-255.5" font-family="Helvetica,sans-Serif" font-size="10.00">+ void ChangeVelocity</text>
<text text-anchor="start" x="263.4" y="-244.5" font-family="Helvetica,sans-Serif" font-size="10.00">(Vector3 velocity)</text>
<text text-anchor="start" x="263.4" y="-233.5" font-family="Helvetica,sans-Serif" font-size="10.00">+ void ChangeVelocity</text>
<text text-anchor="start" x="263.4" y="-222.5" font-family="Helvetica,sans-Serif" font-size="10.00">(double realSpeed)</text>
<text text-anchor="start" x="263.4" y="-211.5" font-family="Helvetica,sans-Serif" font-size="10.00">+ Vector3 CalculateForce()</text>
<text text-anchor="start" x="263.4" y="-200.5" font-family="Helvetica,sans-Serif" font-size="10.00">+ void SetCircleVelocity()</text>
<text text-anchor="start" x="263.4" y="-189.5" font-family="Helvetica,sans-Serif" font-size="10.00">+ void SetCircleVelocityMenu()</text>
<text text-anchor="start" x="263.4" y="-178.5" font-family="Helvetica,sans-Serif" font-size="10.00"># virtual void Start()</text>
<text text-anchor="start" x="263.4" y="-167.5" font-family="Helvetica,sans-Serif" font-size="10.00"># void Generate()</text>
<text text-anchor="start" x="263.4" y="-156.5" font-family="Helvetica,sans-Serif" font-size="10.00"># virtual void FixedUpdate()</text>
<text text-anchor="start" x="263.4" y="-145.5" font-family="Helvetica,sans-Serif" font-size="10.00"># virtual void SetMass()</text>
</a>
</g>
</g>
<!-- Node2&#45;&gt;Node5 -->
<g id="edge6" class="edge">
<title>Node2&#45;&gt;Node5</title>
<path fill="none" stroke="midnightblue" d="M194,-791.67C211.5,-770.06 232.62,-741.3 246.9,-713 249.77,-707.3 252.57,-701.5 255.3,-695.6"/>
<polygon fill="none" stroke="midnightblue" points="191.14,-789.64 187.5,-799.59 196.55,-794.09 191.14,-789.64"/>
</g>
<!-- Node3&#45;&gt;Node1 -->
<g id="edge2" class="edge">
<title>Node3&#45;&gt;Node1</title>
<path fill="none" stroke="#404040" d="M158.32,-281.23C161.12,-222.44 170.55,-154.96 194.9,-98 196.04,-95.32 197.36,-92.67 198.82,-90.07"/>
<polygon fill="none" stroke="#404040" points="198.99,-89.8 198.85,-82.59 205.45,-79.68 205.59,-86.89 198.99,-89.8"/>
<text text-anchor="middle" x="234.4" y="-106.5" font-family="Helvetica,sans-Serif" font-size="10.00"> +spaceshipMover</text>
</g>
<!-- Node4 -->
<g id="node4" class="node">
<title>Node4</title>
<g id="a_node4"><a xlink:title=" ">
<polygon fill="white" stroke="#bfbfbf" points="434.4,-397 434.4,-454 469.4,-454 469.4,-397 434.4,-397"/>
<text text-anchor="middle" x="451.9" y="-442" font-family="Helvetica,sans-Serif" font-size="10.00">Text</text>
<polyline fill="none" stroke="#bfbfbf" points="434.4,-435 469.4,-435 "/>
<text text-anchor="middle" x="451.9" y="-423" font-family="Helvetica,sans-Serif" font-size="10.00"> </text>
<polyline fill="none" stroke="#bfbfbf" points="434.4,-416 469.4,-416 "/>
<text text-anchor="middle" x="451.9" y="-404" font-family="Helvetica,sans-Serif" font-size="10.00"> </text>
</a>
</g>
</g>
<!-- Node4&#45;&gt;Node1 -->
<g id="edge4" class="edge">
<title>Node4&#45;&gt;Node1</title>
<path fill="none" stroke="#404040" d="M455.37,-396.85C460.79,-343.8 466.77,-225.29 425.9,-138 407.17,-98.01 364.25,-74.04 324.79,-59.93"/>
<polygon fill="none" stroke="#404040" points="324.6,-59.87 317.64,-61.74 313.23,-56.04 320.19,-54.16 324.6,-59.87"/>
<text text-anchor="middle" x="439.9" y="-112" font-family="Helvetica,sans-Serif" font-size="10.00"> +forceText</text>
<text text-anchor="middle" x="439.9" y="-101" font-family="Helvetica,sans-Serif" font-size="10.00">+speedText</text>
</g>
<!-- Node5&#45;&gt;Node1 -->
<g id="edge5" class="edge">
<title>Node5&#45;&gt;Node1</title>
<path fill="none" stroke="#404040" d="M286.68,-138.28C282.72,-124.56 278.46,-111.07 273.9,-98 273.06,-95.61 272.14,-93.19 271.15,-90.78"/>
<polygon fill="none" stroke="#404040" points="271.03,-90.51 264.93,-86.67 266.13,-79.56 272.23,-83.4 271.03,-90.51"/>
<text text-anchor="middle" x="330.4" y="-106.5" font-family="Helvetica,sans-Serif" font-size="10.00"> +spaceShipAstralBody</text>
</g>
<!-- Node6 -->
<g id="node6" class="node">
<title>Node6</title>
<g id="a_node6"><a xlink:href="interface_space_physic_1_1_i_traceable.html" target="_top" xlink:title="可追踪接口">
<polygon fill="white" stroke="black" points="255.9,-750.5 255.9,-906.5 415.9,-906.5 415.9,-750.5 255.9,-750.5"/>
<text text-anchor="middle" x="335.9" y="-894.5" font-family="Helvetica,sans-Serif" font-size="10.00">ITraceable</text>
<polyline fill="none" stroke="black" points="255.9,-887.5 415.9,-887.5 "/>
<text text-anchor="middle" x="335.9" y="-875.5" font-family="Helvetica,sans-Serif" font-size="10.00"> </text>
<polyline fill="none" stroke="black" points="255.9,-868.5 415.9,-868.5 "/>
<text text-anchor="start" x="263.9" y="-856.5" font-family="Helvetica,sans-Serif" font-size="10.00">+ Transform GetTransform()</text>
<text text-anchor="start" x="263.9" y="-845.5" font-family="Helvetica,sans-Serif" font-size="10.00">+ Vector3 GetPosition()</text>
<text text-anchor="start" x="263.9" y="-834.5" font-family="Helvetica,sans-Serif" font-size="10.00">+ GameObject GetGameObject()</text>
<text text-anchor="start" x="263.9" y="-823.5" font-family="Helvetica,sans-Serif" font-size="10.00">+ bool GetEnableTracing()</text>
<text text-anchor="start" x="263.9" y="-812.5" font-family="Helvetica,sans-Serif" font-size="10.00">+ float GetMass()</text>
<text text-anchor="start" x="263.9" y="-801.5" font-family="Helvetica,sans-Serif" font-size="10.00">+ Rigidbody GetRigidbody()</text>
<text text-anchor="start" x="263.9" y="-790.5" font-family="Helvetica,sans-Serif" font-size="10.00">+ Vector3 GetVelocity()</text>
<text text-anchor="start" x="263.9" y="-779.5" font-family="Helvetica,sans-Serif" font-size="10.00">+ List&lt; AstralBody &gt;</text>
<text text-anchor="start" x="263.9" y="-768.5" font-family="Helvetica,sans-Serif" font-size="10.00"> GetAffectedPlanets()</text>
<text text-anchor="start" x="263.9" y="-757.5" font-family="Helvetica,sans-Serif" font-size="10.00">+ AstralBody GetAstralBody()</text>
</a>
</g>
</g>
<!-- Node6&#45;&gt;Node5 -->
<g id="edge7" class="edge">
<title>Node6&#45;&gt;Node5</title>
<path fill="none" stroke="midnightblue" d="M335.9,-740.08C335.9,-731.3 335.9,-722.1 335.9,-712.57"/>
<polygon fill="none" stroke="midnightblue" points="332.4,-740.18 335.9,-750.18 339.4,-740.18 332.4,-740.18"/>
</g>
</g>
</svg>
        <g id="navigator" transform="translate(0 0)" fill="#404254">
                <rect fill="#f2f5e9" fill-opacity="0.5" stroke="#606060" stroke-width=".5" x="0" y="0" width="60" height="60"/>
                <use id="zoomplus" xlink:href="#zoomPlus" x="17" y="9" onmousedown="handleZoom(evt,'in')"/>
                <use id="zoomminus" xlink:href="#zoomMin" x="42" y="9" onmousedown="handleZoom(evt,'out')"/>
                <use id="reset" xlink:href="#resetDef" x="30" y="36" onmousedown="handleReset()"/>
                <g id="arrowUp" xlink:href="#dirArrow" transform="translate(30 24)" onmousedown="handlePan(0,-1)">
                  <use xlink:href="#rim" fill="#404040">
                        <set attributeName="fill" to="#808080" begin="arrowUp.mouseover" end="arrowUp.mouseout"/>
                  </use>
                  <path fill="none" stroke="white" stroke-width="1.5" d="M0,-3.0v7 M-2.5,-0.5L0,-3.0L2.5,-0.5"/>
                </g>
                <g id="arrowRight" xlink:href="#dirArrow" transform="rotate(90) translate(36 -43)" onmousedown="handlePan(1,0)">
                  <use xlink:href="#rim" fill="#404040">
                        <set attributeName="fill" to="#808080" begin="arrowRight.mouseover" end="arrowRight.mouseout"/>
                  </use>
                  <path fill="none" stroke="white" stroke-width="1.5" d="M0,-3.0v7 M-2.5,-0.5L0,-3.0L2.5,-0.5"/>
                </g>
                <g id="arrowDown" xlink:href="#dirArrow" transform="rotate(180) translate(-30 -48)" onmousedown="handlePan(0,1)">
                  <use xlink:href="#rim" fill="#404040">
                        <set attributeName="fill" to="#808080" begin="arrowDown.mouseover" end="arrowDown.mouseout"/>
                  </use>
                  <path fill="none" stroke="white" stroke-width="1.5" d="M0,-3.0v7 M-2.5,-0.5L0,-3.0L2.5,-0.5"/>
                </g>
                <g id="arrowLeft" xlink:href="#dirArrow" transform="rotate(270) translate(-36 17)" onmousedown="handlePan(-1,0)">
                  <use xlink:href="#rim" fill="#404040">
                        <set attributeName="fill" to="#808080" begin="arrowLeft.mouseover" end="arrowLeft.mouseout"/>
                  </use>
                  <path fill="none" stroke="white" stroke-width="1.5" d="M0,-3.0v7 M-2.5,-0.5L0,-3.0L2.5,-0.5"/>
                </g>
        </g>
        <svg viewBox="0 0 15 15" width="100%" height="30px" preserveAspectRatio="xMaxYMin meet">
         <g id="arrow_out" transform="scale(0.3 0.3)">
          <a xlink:href="class_spaceship_property_u_i__coll__graph_org.svg" target="_base">
           <rect id="button" ry="5" rx="5" y="6" x="6" height="38" width="38"
                fill="#f2f5e9" fill-opacity="0.5" stroke="#606060" stroke-width="1.0"/>
           <path id="arrow"
             d="M 11.500037,31.436501 C 11.940474,20.09759 22.043105,11.32322 32.158766,21.979434 L 37.068811,17.246167 C 37.068811,17.246167 37.088388,32 37.088388,32 L 22.160133,31.978069 C 22.160133,31.978069 26.997745,27.140456 26.997745,27.140456 C 18.528582,18.264221 13.291696,25.230495 11.500037,31.436501 z"
             style="fill:#404040;"/>
          </a>
         </g>
        </svg>
</svg>
