<?xml version="1.0" encoding="UTF-8" standalone="no"?>
<!DOCTYPE svg PUBLIC "-//W3C//DTD SVG 1.1//EN"
 "http://www.w3.org/Graphics/SVG/1.1/DTD/svg11.dtd">
<!-- Generated by graphviz version 2.47.1 (20210417.1919)
 -->
<!-- Title: CustomUI.AstralBodyEditor.AstralBodyAddUI Pages: 1 -->
<svg width="458pt" height="1053pt"
 viewBox="0.00 0.00 458.45 1053.00" xmlns="http://www.w3.org/2000/svg" xmlns:xlink="http://www.w3.org/1999/xlink">
<g id="graph0" class="graph" transform="scale(1 1) rotate(0) translate(4 1049)">
<title>CustomUI.AstralBodyEditor.AstralBodyAddUI</title>
<polygon fill="white" stroke="transparent" points="-4,4 -4,-1049 454.45,-1049 454.45,4 -4,4"/>
<!-- Node1 -->
<g id="node1" class="node">
<title>Node1</title>
<g id="a_node1"><a xlink:title=" ">
<polygon fill="#bfbfbf" stroke="black" points="164.45,-116.5 164.45,-228.5 303.45,-228.5 303.45,-116.5 164.45,-116.5"/>
<text text-anchor="start" x="172.45" y="-216.5" font-family="Helvetica,sans-Serif" font-size="10.00">CustomUI.AstralBodyEditor.</text>
<text text-anchor="middle" x="233.95" y="-205.5" font-family="Helvetica,sans-Serif" font-size="10.00">AstralBodyAddUI</text>
<polyline fill="none" stroke="black" points="164.45,-198.5 303.45,-198.5 "/>
<text text-anchor="start" x="172.45" y="-186.5" font-family="Helvetica,sans-Serif" font-size="10.00">+ bool isQuizEditMode</text>
<text text-anchor="start" x="172.45" y="-175.5" font-family="Helvetica,sans-Serif" font-size="10.00">+ List&lt; GameObject &gt;</text>
<text text-anchor="start" x="172.45" y="-164.5" font-family="Helvetica,sans-Serif" font-size="10.00"> setActiveList</text>
<text text-anchor="start" x="172.45" y="-153.5" font-family="Helvetica,sans-Serif" font-size="10.00">+ Transform OrbitCore</text>
<polyline fill="none" stroke="black" points="164.45,-146.5 303.45,-146.5 "/>
<text text-anchor="start" x="172.45" y="-134.5" font-family="Helvetica,sans-Serif" font-size="10.00">+ void Switch2Placement()</text>
<text text-anchor="start" x="172.45" y="-123.5" font-family="Helvetica,sans-Serif" font-size="10.00">+ void Switch2Normal()</text>
</a>
</g>
</g>
<!-- Node3 -->
<g id="node3" class="node">
<title>Node3</title>
<g id="a_node3"><a xlink:href="class_custom_u_i_1_1_astral_body_editor_1_1_astral_body_placement_u_i.html" target="_top" xlink:title=" ">
<polygon fill="white" stroke="black" points="29.45,-0.5 29.45,-68.5 168.45,-68.5 168.45,-0.5 29.45,-0.5"/>
<text text-anchor="start" x="37.45" y="-56.5" font-family="Helvetica,sans-Serif" font-size="10.00">CustomUI.AstralBodyEditor.</text>
<text text-anchor="middle" x="98.95" y="-45.5" font-family="Helvetica,sans-Serif" font-size="10.00">AstralBodyPlacementUI</text>
<polyline fill="none" stroke="black" points="29.45,-38.5 168.45,-38.5 "/>
<text text-anchor="start" x="37.45" y="-26.5" font-family="Helvetica,sans-Serif" font-size="10.00">+ Vector3 Target</text>
<polyline fill="none" stroke="black" points="29.45,-19.5 168.45,-19.5 "/>
<text text-anchor="start" x="37.45" y="-7.5" font-family="Helvetica,sans-Serif" font-size="10.00">+ void SetPlacing()</text>
</a>
</g>
</g>
<!-- Node1&#45;&gt;Node3 -->
<g id="edge4" class="edge">
<title>Node1&#45;&gt;Node3</title>
<path fill="none" stroke="#404040" d="M227.08,-116.24C223.79,-105.7 218.97,-95.36 211.95,-87 203.1,-76.47 191.64,-67.99 179.43,-61.19"/>
<polygon fill="none" stroke="#404040" points="179.23,-61.09 172.07,-61.93 168.54,-55.64 175.7,-54.8 179.23,-61.09"/>
<text text-anchor="middle" x="230.95" y="-90" font-family="Helvetica,sans-Serif" font-size="10.00"> +root</text>
</g>
<!-- Node2 -->
<g id="node2" class="node">
<title>Node2</title>
<g id="a_node2"><a xlink:title=" ">
<polygon fill="white" stroke="#bfbfbf" points="148.45,-938 148.45,-995 231.45,-995 231.45,-938 148.45,-938"/>
<text text-anchor="middle" x="189.95" y="-983" font-family="Helvetica,sans-Serif" font-size="10.00">MonoBehaviour</text>
<polyline fill="none" stroke="#bfbfbf" points="148.45,-976 231.45,-976 "/>
<text text-anchor="middle" x="189.95" y="-964" font-family="Helvetica,sans-Serif" font-size="10.00"> </text>
<polyline fill="none" stroke="#bfbfbf" points="148.45,-957 231.45,-957 "/>
<text text-anchor="middle" x="189.95" y="-945" font-family="Helvetica,sans-Serif" font-size="10.00"> </text>
</a>
</g>
</g>
<!-- Node2&#45;&gt;Node1 -->
<g id="edge1" class="edge">
<title>Node2&#45;&gt;Node1</title>
<path fill="none" stroke="midnightblue" d="M211.26,-929.03C222.8,-907.19 235.9,-878.42 241.95,-851 298.79,-593.64 245.84,-521.56 246.95,-258 246.97,-253.11 247.38,-251.87 246.95,-247 246.43,-241.06 245.68,-234.88 244.79,-228.75"/>
<polygon fill="none" stroke="midnightblue" points="208.12,-927.49 206.44,-937.95 214.28,-930.82 208.12,-927.49"/>
</g>
<!-- Node2&#45;&gt;Node3 -->
<g id="edge3" class="edge">
<title>Node2&#45;&gt;Node3</title>
<path fill="none" stroke="midnightblue" d="M139.65,-937.17C109.86,-917.33 74.75,-887.8 57.95,-851 -69.17,-572.44 47.41,-183.38 86.95,-68.6"/>
<polygon fill="none" stroke="midnightblue" points="137.99,-940.27 148.29,-942.77 141.79,-934.4 137.99,-940.27"/>
</g>
<!-- Node4 -->
<g id="node4" class="node">
<title>Node4</title>
<g id="a_node4"><a xlink:href="class_space_physic_1_1_gravity_tracing.html" target="_top" xlink:title="引力追踪">
<polygon fill="white" stroke="black" points="67.45,-452.5 67.45,-674.5 232.45,-674.5 232.45,-452.5 67.45,-452.5"/>
<text text-anchor="middle" x="149.95" y="-662.5" font-family="Helvetica,sans-Serif" font-size="10.00">SpacePhysic.GravityTracing</text>
<polyline fill="none" stroke="black" points="67.45,-655.5 232.45,-655.5 "/>
<text text-anchor="start" x="75.45" y="-643.5" font-family="Helvetica,sans-Serif" font-size="10.00">+ int sample</text>
<text text-anchor="start" x="75.45" y="-632.5" font-family="Helvetica,sans-Serif" font-size="10.00">+ float timeScale</text>
<text text-anchor="start" x="75.45" y="-621.5" font-family="Helvetica,sans-Serif" font-size="10.00">+ SplineComputer splineComputer</text>
<text text-anchor="start" x="75.45" y="-610.5" font-family="Helvetica,sans-Serif" font-size="10.00">+ bool isFreezing</text>
<text text-anchor="start" x="75.45" y="-599.5" font-family="Helvetica,sans-Serif" font-size="10.00">+ bool isShowOrbit</text>
<polyline fill="none" stroke="black" points="67.45,-592.5 232.45,-592.5 "/>
<text text-anchor="start" x="75.45" y="-580.5" font-family="Helvetica,sans-Serif" font-size="10.00">+ void Awake()</text>
<text text-anchor="start" x="75.45" y="-569.5" font-family="Helvetica,sans-Serif" font-size="10.00">+ void Dispatch()</text>
<text text-anchor="start" x="75.45" y="-558.5" font-family="Helvetica,sans-Serif" font-size="10.00">+ void AddTracingTarget</text>
<text text-anchor="start" x="75.45" y="-547.5" font-family="Helvetica,sans-Serif" font-size="10.00">(ITraceable traceable)</text>
<text text-anchor="start" x="75.45" y="-536.5" font-family="Helvetica,sans-Serif" font-size="10.00">+ void Freeze(bool isFreezing)</text>
<text text-anchor="start" x="75.45" y="-525.5" font-family="Helvetica,sans-Serif" font-size="10.00">+ void RemoveAstralBody</text>
<text text-anchor="start" x="75.45" y="-514.5" font-family="Helvetica,sans-Serif" font-size="10.00">(AstralBody astralBody)</text>
<text text-anchor="start" x="75.45" y="-503.5" font-family="Helvetica,sans-Serif" font-size="10.00">+ ConicSection GetConicSection</text>
<text text-anchor="start" x="75.45" y="-492.5" font-family="Helvetica,sans-Serif" font-size="10.00">(ITraceable astralBody)</text>
<text text-anchor="start" x="75.45" y="-481.5" font-family="Helvetica,sans-Serif" font-size="10.00">+ void DrawMathOrbit</text>
<text text-anchor="start" x="75.45" y="-470.5" font-family="Helvetica,sans-Serif" font-size="10.00">(ConicSection conicSection,</text>
<text text-anchor="start" x="75.45" y="-459.5" font-family="Helvetica,sans-Serif" font-size="10.00"> int sam)</text>
</a>
</g>
</g>
<!-- Node2&#45;&gt;Node4 -->
<g id="edge6" class="edge">
<title>Node2&#45;&gt;Node4</title>
<path fill="none" stroke="midnightblue" d="M186.2,-927.89C180.49,-870.63 169.39,-759.32 160.97,-674.91"/>
<polygon fill="none" stroke="midnightblue" points="182.73,-928.33 187.2,-937.94 189.69,-927.64 182.73,-928.33"/>
</g>
<!-- Node5 -->
<g id="node5" class="node">
<title>Node5</title>
<g id="a_node5"><a xlink:href="class_space_physic_1_1_astral_body.html" target="_top" xlink:title="星体物理实体">
<polygon fill="white" stroke="black" points="289.45,-276.5 289.45,-850.5 450.45,-850.5 450.45,-276.5 289.45,-276.5"/>
<text text-anchor="middle" x="369.95" y="-838.5" font-family="Helvetica,sans-Serif" font-size="10.00">SpacePhysic.AstralBody</text>
<polyline fill="none" stroke="black" points="289.45,-831.5 450.45,-831.5 "/>
<text text-anchor="start" x="297.45" y="-819.5" font-family="Helvetica,sans-Serif" font-size="10.00">+ List&lt; AstralBody &gt;</text>
<text text-anchor="start" x="297.45" y="-808.5" font-family="Helvetica,sans-Serif" font-size="10.00"> affectedPlanets</text>
<text text-anchor="start" x="297.45" y="-797.5" font-family="Helvetica,sans-Serif" font-size="10.00">+ float affectRadius</text>
<text text-anchor="start" x="297.45" y="-786.5" font-family="Helvetica,sans-Serif" font-size="10.00">+ Vector3 angularVelocity</text>
<text text-anchor="start" x="297.45" y="-775.5" font-family="Helvetica,sans-Serif" font-size="10.00">+ List&lt; AstralBody &gt;</text>
<text text-anchor="start" x="297.45" y="-764.5" font-family="Helvetica,sans-Serif" font-size="10.00"> banAffectedPlanets</text>
<text text-anchor="start" x="297.45" y="-753.5" font-family="Helvetica,sans-Serif" font-size="10.00">+ SphereCollider defaultCollider</text>
<text text-anchor="start" x="297.45" y="-742.5" font-family="Helvetica,sans-Serif" font-size="10.00">+ bool enableAffect</text>
<text text-anchor="start" x="297.45" y="-731.5" font-family="Helvetica,sans-Serif" font-size="10.00">+ bool enableTracing</text>
<text text-anchor="start" x="297.45" y="-720.5" font-family="Helvetica,sans-Serif" font-size="10.00">+ Vector3 oriVelocity</text>
<text text-anchor="start" x="297.45" y="-709.5" font-family="Helvetica,sans-Serif" font-size="10.00">+ SphereCollider triggerCollider</text>
<text text-anchor="start" x="297.45" y="-698.5" font-family="Helvetica,sans-Serif" font-size="10.00">+ UnityEvent&lt; Vector3</text>
<text text-anchor="start" x="297.45" y="-687.5" font-family="Helvetica,sans-Serif" font-size="10.00"> &gt; velocityChangedEvent</text>
<text text-anchor="start" x="297.45" y="-676.5" font-family="Helvetica,sans-Serif" font-size="10.00">+ UnityEvent astralBodyDestroy</text>
<text text-anchor="start" x="297.45" y="-665.5" font-family="Helvetica,sans-Serif" font-size="10.00">Event</text>
<text text-anchor="start" x="297.45" y="-654.5" font-family="Helvetica,sans-Serif" font-size="10.00">+ bool isUseScaler</text>
<text text-anchor="start" x="297.45" y="-643.5" font-family="Helvetica,sans-Serif" font-size="10.00">+ float? Mass</text>
<text text-anchor="start" x="297.45" y="-632.5" font-family="Helvetica,sans-Serif" font-size="10.00">+ Rigidbody astralBodyRigidbody</text>
<text text-anchor="start" x="297.45" y="-621.5" font-family="Helvetica,sans-Serif" font-size="10.00">+ Vector3 Force</text>
<text text-anchor="start" x="297.45" y="-610.5" font-family="Helvetica,sans-Serif" font-size="10.00">+ float gravity</text>
<text text-anchor="start" x="297.45" y="-599.5" font-family="Helvetica,sans-Serif" font-size="10.00">+ int meshNum</text>
<text text-anchor="start" x="297.45" y="-588.5" font-family="Helvetica,sans-Serif" font-size="10.00">+ float size</text>
<text text-anchor="start" x="297.45" y="-577.5" font-family="Helvetica,sans-Serif" font-size="10.00">+ double realMass</text>
<text text-anchor="start" x="297.45" y="-566.5" font-family="Helvetica,sans-Serif" font-size="10.00">+ double density</text>
<text text-anchor="start" x="297.45" y="-555.5" font-family="Helvetica,sans-Serif" font-size="10.00">+ Vector3 lastVelocity</text>
<text text-anchor="start" x="297.45" y="-544.5" font-family="Helvetica,sans-Serif" font-size="10.00">+ bool isLoadDone</text>
<polyline fill="none" stroke="black" points="289.45,-537.5 450.45,-537.5 "/>
<text text-anchor="start" x="297.45" y="-525.5" font-family="Helvetica,sans-Serif" font-size="10.00">+ virtual void OnCollision</text>
<text text-anchor="start" x="297.45" y="-514.5" font-family="Helvetica,sans-Serif" font-size="10.00">Enter(Collision other)</text>
<text text-anchor="start" x="297.45" y="-503.5" font-family="Helvetica,sans-Serif" font-size="10.00">+ Transform GetTransform()</text>
<text text-anchor="start" x="297.45" y="-492.5" font-family="Helvetica,sans-Serif" font-size="10.00">+ Vector3 GetPosition()</text>
<text text-anchor="start" x="297.45" y="-481.5" font-family="Helvetica,sans-Serif" font-size="10.00">+ GameObject GetGameObject()</text>
<text text-anchor="start" x="297.45" y="-470.5" font-family="Helvetica,sans-Serif" font-size="10.00">+ bool GetEnableTracing()</text>
<text text-anchor="start" x="297.45" y="-459.5" font-family="Helvetica,sans-Serif" font-size="10.00">+ virtual float GetMass()</text>
<text text-anchor="start" x="297.45" y="-448.5" font-family="Helvetica,sans-Serif" font-size="10.00">+ Rigidbody GetRigidbody()</text>
<text text-anchor="start" x="297.45" y="-437.5" font-family="Helvetica,sans-Serif" font-size="10.00">+ Vector3 GetVelocity()</text>
<text text-anchor="start" x="297.45" y="-426.5" font-family="Helvetica,sans-Serif" font-size="10.00">+ List&lt; AstralBody &gt;</text>
<text text-anchor="start" x="297.45" y="-415.5" font-family="Helvetica,sans-Serif" font-size="10.00"> GetAffectedPlanets()</text>
<text text-anchor="start" x="297.45" y="-404.5" font-family="Helvetica,sans-Serif" font-size="10.00">+ AstralBody GetAstralBody()</text>
<text text-anchor="start" x="297.45" y="-393.5" font-family="Helvetica,sans-Serif" font-size="10.00">+ void ChangeVelocity</text>
<text text-anchor="start" x="297.45" y="-382.5" font-family="Helvetica,sans-Serif" font-size="10.00">(Vector3 velocity)</text>
<text text-anchor="start" x="297.45" y="-371.5" font-family="Helvetica,sans-Serif" font-size="10.00">+ void ChangeVelocity</text>
<text text-anchor="start" x="297.45" y="-360.5" font-family="Helvetica,sans-Serif" font-size="10.00">(double realSpeed)</text>
<text text-anchor="start" x="297.45" y="-349.5" font-family="Helvetica,sans-Serif" font-size="10.00">+ Vector3 CalculateForce()</text>
<text text-anchor="start" x="297.45" y="-338.5" font-family="Helvetica,sans-Serif" font-size="10.00">+ void SetCircleVelocity()</text>
<text text-anchor="start" x="297.45" y="-327.5" font-family="Helvetica,sans-Serif" font-size="10.00">+ void SetCircleVelocityMenu()</text>
<text text-anchor="start" x="297.45" y="-316.5" font-family="Helvetica,sans-Serif" font-size="10.00"># virtual void Start()</text>
<text text-anchor="start" x="297.45" y="-305.5" font-family="Helvetica,sans-Serif" font-size="10.00"># void Generate()</text>
<text text-anchor="start" x="297.45" y="-294.5" font-family="Helvetica,sans-Serif" font-size="10.00"># virtual void FixedUpdate()</text>
<text text-anchor="start" x="297.45" y="-283.5" font-family="Helvetica,sans-Serif" font-size="10.00"># virtual void SetMass()</text>
</a>
</g>
</g>
<!-- Node2&#45;&gt;Node5 -->
<g id="edge8" class="edge">
<title>Node2&#45;&gt;Node5</title>
<path fill="none" stroke="midnightblue" d="M227.7,-930.49C244.14,-913.55 262.45,-892.12 274.95,-870 280.01,-861.05 284.83,-851.81 289.42,-842.35"/>
<polygon fill="none" stroke="midnightblue" points="224.87,-928.38 220.31,-937.94 229.84,-933.3 224.87,-928.38"/>
</g>
<!-- Node3&#45;&gt;Node1 -->
<g id="edge2" class="edge">
<title>Node3&#45;&gt;Node1</title>
<path fill="none" stroke="#404040" d="M93.31,-68.74C93.18,-78.75 94.74,-89.36 99.95,-98 112.2,-118.32 132.24,-133.41 153.14,-144.45"/>
<polygon fill="none" stroke="#404040" points="153.34,-144.55 160.49,-143.61 164.1,-149.85 156.95,-150.79 153.34,-144.55"/>
<text text-anchor="middle" x="155.95" y="-90" font-family="Helvetica,sans-Serif" font-size="10.00"> +astralBodyPlacementUI</text>
</g>
<!-- Node4&#45;&gt;Node1 -->
<g id="edge5" class="edge">
<title>Node4&#45;&gt;Node1</title>
<path fill="none" stroke="#404040" d="M169.71,-452.15C181.17,-391.36 196.55,-314.72 212.95,-247 213.47,-244.87 214.01,-242.7 214.56,-240.52"/>
<polygon fill="none" stroke="#404040" points="214.6,-240.36 212.25,-233.55 217.64,-228.76 219.99,-235.57 214.6,-240.36"/>
<text text-anchor="middle" x="229.95" y="-250" font-family="Helvetica,sans-Serif" font-size="10.00"> +orbits</text>
</g>
<!-- Node5&#45;&gt;Node1 -->
<g id="edge7" class="edge">
<title>Node5&#45;&gt;Node1</title>
<path fill="none" stroke="#404040" d="M289.4,-283.05C284.74,-270.79 279.92,-258.72 274.95,-247 273.91,-244.54 272.81,-242.06 271.66,-239.57"/>
<polygon fill="none" stroke="#404040" points="271.6,-239.45 265.39,-235.79 266.37,-228.65 272.59,-232.3 271.6,-239.45"/>
<text text-anchor="middle" x="308.45" y="-250" font-family="Helvetica,sans-Serif" font-size="10.00"> +placePrefab</text>
</g>
<!-- Node6 -->
<g id="node6" class="node">
<title>Node6</title>
<g id="a_node6"><a xlink:href="interface_space_physic_1_1_i_traceable.html" target="_top" xlink:title="可追踪接口">
<polygon fill="white" stroke="black" points="289.95,-888.5 289.95,-1044.5 449.95,-1044.5 449.95,-888.5 289.95,-888.5"/>
<text text-anchor="middle" x="369.95" y="-1032.5" font-family="Helvetica,sans-Serif" font-size="10.00">ITraceable</text>
<polyline fill="none" stroke="black" points="289.95,-1025.5 449.95,-1025.5 "/>
<text text-anchor="middle" x="369.95" y="-1013.5" font-family="Helvetica,sans-Serif" font-size="10.00"> </text>
<polyline fill="none" stroke="black" points="289.95,-1006.5 449.95,-1006.5 "/>
<text text-anchor="start" x="297.95" y="-994.5" font-family="Helvetica,sans-Serif" font-size="10.00">+ Transform GetTransform()</text>
<text text-anchor="start" x="297.95" y="-983.5" font-family="Helvetica,sans-Serif" font-size="10.00">+ Vector3 GetPosition()</text>
<text text-anchor="start" x="297.95" y="-972.5" font-family="Helvetica,sans-Serif" font-size="10.00">+ GameObject GetGameObject()</text>
<text text-anchor="start" x="297.95" y="-961.5" font-family="Helvetica,sans-Serif" font-size="10.00">+ bool GetEnableTracing()</text>
<text text-anchor="start" x="297.95" y="-950.5" font-family="Helvetica,sans-Serif" font-size="10.00">+ float GetMass()</text>
<text text-anchor="start" x="297.95" y="-939.5" font-family="Helvetica,sans-Serif" font-size="10.00">+ Rigidbody GetRigidbody()</text>
<text text-anchor="start" x="297.95" y="-928.5" font-family="Helvetica,sans-Serif" font-size="10.00">+ Vector3 GetVelocity()</text>
<text text-anchor="start" x="297.95" y="-917.5" font-family="Helvetica,sans-Serif" font-size="10.00">+ List&lt; AstralBody &gt;</text>
<text text-anchor="start" x="297.95" y="-906.5" font-family="Helvetica,sans-Serif" font-size="10.00"> GetAffectedPlanets()</text>
<text text-anchor="start" x="297.95" y="-895.5" font-family="Helvetica,sans-Serif" font-size="10.00">+ AstralBody GetAstralBody()</text>
</a>
</g>
</g>
<!-- Node6&#45;&gt;Node5 -->
<g id="edge9" class="edge">
<title>Node6&#45;&gt;Node5</title>
<path fill="none" stroke="midnightblue" d="M369.95,-878.08C369.95,-869.3 369.95,-860.1 369.95,-850.57"/>
<polygon fill="none" stroke="midnightblue" points="366.45,-878.18 369.95,-888.18 373.45,-878.18 366.45,-878.18"/>
</g>
</g>
</svg>
