<?xml version="1.0" encoding="UTF-8" standalone="no"?>
<!DOCTYPE svg PUBLIC "-//W3C//DTD SVG 1.1//EN"
 "http://www.w3.org/Graphics/SVG/1.1/DTD/svg11.dtd">
<!-- Generated by graphviz version 2.47.1 (20210417.1919)
 -->
<!-- Title: CustomUI.AstralBodyEditor.AstralBodyPlacementUI Pages: 1 -->
<svg width="561pt" height="904pt"
 viewBox="0.00 0.00 560.74 904.00" xmlns="http://www.w3.org/2000/svg" xmlns:xlink="http://www.w3.org/1999/xlink">
<g id="graph0" class="graph" transform="scale(1 1) rotate(0) translate(4 900)">
<title>CustomUI.AstralBodyEditor.AstralBodyPlacementUI</title>
<polygon fill="white" stroke="transparent" points="-4,4 -4,-900 556.74,-900 556.74,4 -4,4"/>
<!-- Node1 -->
<g id="node1" class="node">
<title>Node1</title>
<g id="a_node1"><a xlink:title=" ">
<polygon fill="#bfbfbf" stroke="black" points="12.74,-397 12.74,-465 151.74,-465 151.74,-397 12.74,-397"/>
<text text-anchor="start" x="20.74" y="-453" font-family="Helvetica,sans-Serif" font-size="10.00">CustomUI.AstralBodyEditor.</text>
<text text-anchor="middle" x="82.24" y="-442" font-family="Helvetica,sans-Serif" font-size="10.00">AstralBodyPlacementUI</text>
<polyline fill="none" stroke="black" points="12.74,-435 151.74,-435 "/>
<text text-anchor="start" x="20.74" y="-423" font-family="Helvetica,sans-Serif" font-size="10.00">+ Vector3 Target</text>
<polyline fill="none" stroke="black" points="12.74,-416 151.74,-416 "/>
<text text-anchor="start" x="20.74" y="-404" font-family="Helvetica,sans-Serif" font-size="10.00">+ void SetPlacing()</text>
</a>
</g>
</g>
<!-- Node3 -->
<g id="node3" class="node">
<title>Node3</title>
<g id="a_node3"><a xlink:href="class_custom_u_i_1_1_astral_body_editor_1_1_astral_body_add_u_i.html" target="_top" xlink:title=" ">
<polygon fill="white" stroke="black" points="110.74,-0.5 110.74,-112.5 249.74,-112.5 249.74,-0.5 110.74,-0.5"/>
<text text-anchor="start" x="118.74" y="-100.5" font-family="Helvetica,sans-Serif" font-size="10.00">CustomUI.AstralBodyEditor.</text>
<text text-anchor="middle" x="180.24" y="-89.5" font-family="Helvetica,sans-Serif" font-size="10.00">AstralBodyAddUI</text>
<polyline fill="none" stroke="black" points="110.74,-82.5 249.74,-82.5 "/>
<text text-anchor="start" x="118.74" y="-70.5" font-family="Helvetica,sans-Serif" font-size="10.00">+ bool isQuizEditMode</text>
<text text-anchor="start" x="118.74" y="-59.5" font-family="Helvetica,sans-Serif" font-size="10.00">+ List&lt; GameObject &gt;</text>
<text text-anchor="start" x="118.74" y="-48.5" font-family="Helvetica,sans-Serif" font-size="10.00"> setActiveList</text>
<text text-anchor="start" x="118.74" y="-37.5" font-family="Helvetica,sans-Serif" font-size="10.00">+ Transform OrbitCore</text>
<polyline fill="none" stroke="black" points="110.74,-30.5 249.74,-30.5 "/>
<text text-anchor="start" x="118.74" y="-18.5" font-family="Helvetica,sans-Serif" font-size="10.00">+ void Switch2Placement()</text>
<text text-anchor="start" x="118.74" y="-7.5" font-family="Helvetica,sans-Serif" font-size="10.00">+ void Switch2Normal()</text>
</a>
</g>
</g>
<!-- Node1&#45;&gt;Node3 -->
<g id="edge4" class="edge">
<title>Node1&#45;&gt;Node3</title>
<path fill="none" stroke="#404040" d="M61,-396.62C26.78,-338.13 -31.57,-215.37 22.24,-131 39.47,-103.98 69.49,-86.73 98.78,-75.8"/>
<polygon fill="none" stroke="#404040" points="99.03,-75.71 103.39,-69.97 110.37,-71.77 106.01,-77.52 99.03,-75.71"/>
<text text-anchor="middle" x="78.24" y="-134" font-family="Helvetica,sans-Serif" font-size="10.00"> +astralBodyPlacementUI</text>
</g>
<!-- Node2 -->
<g id="node2" class="node">
<title>Node2</title>
<g id="a_node2"><a xlink:title=" ">
<polygon fill="white" stroke="#bfbfbf" points="172.74,-789 172.74,-846 255.74,-846 255.74,-789 172.74,-789"/>
<text text-anchor="middle" x="214.24" y="-834" font-family="Helvetica,sans-Serif" font-size="10.00">MonoBehaviour</text>
<polyline fill="none" stroke="#bfbfbf" points="172.74,-827 255.74,-827 "/>
<text text-anchor="middle" x="214.24" y="-815" font-family="Helvetica,sans-Serif" font-size="10.00"> </text>
<polyline fill="none" stroke="#bfbfbf" points="172.74,-808 255.74,-808 "/>
<text text-anchor="middle" x="214.24" y="-796" font-family="Helvetica,sans-Serif" font-size="10.00"> </text>
</a>
</g>
</g>
<!-- Node2&#45;&gt;Node1 -->
<g id="edge1" class="edge">
<title>Node2&#45;&gt;Node1</title>
<path fill="none" stroke="midnightblue" d="M193.63,-779.46C184.47,-762.06 174.02,-740.82 166.24,-721 130.8,-630.79 102.61,-519.57 89.78,-465.16"/>
<polygon fill="none" stroke="midnightblue" points="190.77,-781.53 198.56,-788.7 196.94,-778.23 190.77,-781.53"/>
</g>
<!-- Node2&#45;&gt;Node3 -->
<g id="edge3" class="edge">
<title>Node2&#45;&gt;Node3</title>
<path fill="none" stroke="midnightblue" d="M208.32,-778.76C205.07,-756.49 201.29,-727.71 199.24,-702 181.82,-484.41 179.91,-224.36 179.99,-112.78"/>
<polygon fill="none" stroke="midnightblue" points="204.88,-779.44 209.81,-788.82 211.8,-778.41 204.88,-779.44"/>
</g>
<!-- Node4 -->
<g id="node4" class="node">
<title>Node4</title>
<g id="a_node4"><a xlink:href="class_space_physic_1_1_gravity_tracing.html" target="_top" xlink:title="引力追踪">
<polygon fill="white" stroke="black" points="208.74,-320 208.74,-542 373.74,-542 373.74,-320 208.74,-320"/>
<text text-anchor="middle" x="291.24" y="-530" font-family="Helvetica,sans-Serif" font-size="10.00">SpacePhysic.GravityTracing</text>
<polyline fill="none" stroke="black" points="208.74,-523 373.74,-523 "/>
<text text-anchor="start" x="216.74" y="-511" font-family="Helvetica,sans-Serif" font-size="10.00">+ int sample</text>
<text text-anchor="start" x="216.74" y="-500" font-family="Helvetica,sans-Serif" font-size="10.00">+ float timeScale</text>
<text text-anchor="start" x="216.74" y="-489" font-family="Helvetica,sans-Serif" font-size="10.00">+ SplineComputer splineComputer</text>
<text text-anchor="start" x="216.74" y="-478" font-family="Helvetica,sans-Serif" font-size="10.00">+ bool isFreezing</text>
<text text-anchor="start" x="216.74" y="-467" font-family="Helvetica,sans-Serif" font-size="10.00">+ bool isShowOrbit</text>
<polyline fill="none" stroke="black" points="208.74,-460 373.74,-460 "/>
<text text-anchor="start" x="216.74" y="-448" font-family="Helvetica,sans-Serif" font-size="10.00">+ void Awake()</text>
<text text-anchor="start" x="216.74" y="-437" font-family="Helvetica,sans-Serif" font-size="10.00">+ void Dispatch()</text>
<text text-anchor="start" x="216.74" y="-426" font-family="Helvetica,sans-Serif" font-size="10.00">+ void AddTracingTarget</text>
<text text-anchor="start" x="216.74" y="-415" font-family="Helvetica,sans-Serif" font-size="10.00">(ITraceable traceable)</text>
<text text-anchor="start" x="216.74" y="-404" font-family="Helvetica,sans-Serif" font-size="10.00">+ void Freeze(bool isFreezing)</text>
<text text-anchor="start" x="216.74" y="-393" font-family="Helvetica,sans-Serif" font-size="10.00">+ void RemoveAstralBody</text>
<text text-anchor="start" x="216.74" y="-382" font-family="Helvetica,sans-Serif" font-size="10.00">(AstralBody astralBody)</text>
<text text-anchor="start" x="216.74" y="-371" font-family="Helvetica,sans-Serif" font-size="10.00">+ ConicSection GetConicSection</text>
<text text-anchor="start" x="216.74" y="-360" font-family="Helvetica,sans-Serif" font-size="10.00">(ITraceable astralBody)</text>
<text text-anchor="start" x="216.74" y="-349" font-family="Helvetica,sans-Serif" font-size="10.00">+ void DrawMathOrbit</text>
<text text-anchor="start" x="216.74" y="-338" font-family="Helvetica,sans-Serif" font-size="10.00">(ConicSection conicSection,</text>
<text text-anchor="start" x="216.74" y="-327" font-family="Helvetica,sans-Serif" font-size="10.00"> int sam)</text>
</a>
</g>
</g>
<!-- Node2&#45;&gt;Node4 -->
<g id="edge6" class="edge">
<title>Node2&#45;&gt;Node4</title>
<path fill="none" stroke="midnightblue" d="M221.75,-778.96C232.64,-724.62 253.22,-621.82 269.17,-542.16"/>
<polygon fill="none" stroke="midnightblue" points="218.3,-778.36 219.77,-788.85 225.17,-779.73 218.3,-778.36"/>
</g>
<!-- Node5 -->
<g id="node5" class="node">
<title>Node5</title>
<g id="a_node5"><a xlink:href="class_space_physic_1_1_astral_body.html" target="_top" xlink:title="星体物理实体">
<polygon fill="white" stroke="black" points="391.74,-160.5 391.74,-701.5 552.74,-701.5 552.74,-160.5 391.74,-160.5"/>
<text text-anchor="middle" x="472.24" y="-689.5" font-family="Helvetica,sans-Serif" font-size="10.00">SpacePhysic.AstralBody</text>
<polyline fill="none" stroke="black" points="391.74,-682.5 552.74,-682.5 "/>
<text text-anchor="start" x="399.74" y="-670.5" font-family="Helvetica,sans-Serif" font-size="10.00">+ List&lt; AstralBody &gt;</text>
<text text-anchor="start" x="399.74" y="-659.5" font-family="Helvetica,sans-Serif" font-size="10.00"> affectedPlanets</text>
<text text-anchor="start" x="399.74" y="-648.5" font-family="Helvetica,sans-Serif" font-size="10.00">+ float affectRadius</text>
<text text-anchor="start" x="399.74" y="-637.5" font-family="Helvetica,sans-Serif" font-size="10.00">+ Vector3 angularVelocity</text>
<text text-anchor="start" x="399.74" y="-626.5" font-family="Helvetica,sans-Serif" font-size="10.00">+ List&lt; AstralBody &gt;</text>
<text text-anchor="start" x="399.74" y="-615.5" font-family="Helvetica,sans-Serif" font-size="10.00"> banAffectedPlanets</text>
<text text-anchor="start" x="399.74" y="-604.5" font-family="Helvetica,sans-Serif" font-size="10.00">+ SphereCollider defaultCollider</text>
<text text-anchor="start" x="399.74" y="-593.5" font-family="Helvetica,sans-Serif" font-size="10.00">+ bool enableAffect</text>
<text text-anchor="start" x="399.74" y="-582.5" font-family="Helvetica,sans-Serif" font-size="10.00">+ bool enableTracing</text>
<text text-anchor="start" x="399.74" y="-571.5" font-family="Helvetica,sans-Serif" font-size="10.00">+ Vector3 oriVelocity</text>
<text text-anchor="start" x="399.74" y="-560.5" font-family="Helvetica,sans-Serif" font-size="10.00">+ SphereCollider triggerCollider</text>
<text text-anchor="start" x="399.74" y="-549.5" font-family="Helvetica,sans-Serif" font-size="10.00">+ UnityEvent&lt; Vector3</text>
<text text-anchor="start" x="399.74" y="-538.5" font-family="Helvetica,sans-Serif" font-size="10.00"> &gt; velocityChangedEvent</text>
<text text-anchor="start" x="399.74" y="-527.5" font-family="Helvetica,sans-Serif" font-size="10.00">+ float? Mass</text>
<text text-anchor="start" x="399.74" y="-516.5" font-family="Helvetica,sans-Serif" font-size="10.00">+ Rigidbody astralBodyRigidbody</text>
<text text-anchor="start" x="399.74" y="-505.5" font-family="Helvetica,sans-Serif" font-size="10.00">+ Vector3 Force</text>
<text text-anchor="start" x="399.74" y="-494.5" font-family="Helvetica,sans-Serif" font-size="10.00">+ float gravity</text>
<text text-anchor="start" x="399.74" y="-483.5" font-family="Helvetica,sans-Serif" font-size="10.00">+ int meshNum</text>
<text text-anchor="start" x="399.74" y="-472.5" font-family="Helvetica,sans-Serif" font-size="10.00">+ float size</text>
<text text-anchor="start" x="399.74" y="-461.5" font-family="Helvetica,sans-Serif" font-size="10.00">+ double realMass</text>
<text text-anchor="start" x="399.74" y="-450.5" font-family="Helvetica,sans-Serif" font-size="10.00">+ double density</text>
<text text-anchor="start" x="399.74" y="-439.5" font-family="Helvetica,sans-Serif" font-size="10.00">+ Vector3 lastVelocity</text>
<text text-anchor="start" x="399.74" y="-428.5" font-family="Helvetica,sans-Serif" font-size="10.00">+ bool isLoadDone</text>
<polyline fill="none" stroke="black" points="391.74,-421.5 552.74,-421.5 "/>
<text text-anchor="start" x="399.74" y="-409.5" font-family="Helvetica,sans-Serif" font-size="10.00">+ virtual void OnCollision</text>
<text text-anchor="start" x="399.74" y="-398.5" font-family="Helvetica,sans-Serif" font-size="10.00">Enter(Collision other)</text>
<text text-anchor="start" x="399.74" y="-387.5" font-family="Helvetica,sans-Serif" font-size="10.00">+ Transform GetTransform()</text>
<text text-anchor="start" x="399.74" y="-376.5" font-family="Helvetica,sans-Serif" font-size="10.00">+ Vector3 GetPosition()</text>
<text text-anchor="start" x="399.74" y="-365.5" font-family="Helvetica,sans-Serif" font-size="10.00">+ GameObject GetGameObject()</text>
<text text-anchor="start" x="399.74" y="-354.5" font-family="Helvetica,sans-Serif" font-size="10.00">+ bool GetEnableTracing()</text>
<text text-anchor="start" x="399.74" y="-343.5" font-family="Helvetica,sans-Serif" font-size="10.00">+ virtual float GetMass()</text>
<text text-anchor="start" x="399.74" y="-332.5" font-family="Helvetica,sans-Serif" font-size="10.00">+ Rigidbody GetRigidbody()</text>
<text text-anchor="start" x="399.74" y="-321.5" font-family="Helvetica,sans-Serif" font-size="10.00">+ Vector3 GetVelocity()</text>
<text text-anchor="start" x="399.74" y="-310.5" font-family="Helvetica,sans-Serif" font-size="10.00">+ List&lt; AstralBody &gt;</text>
<text text-anchor="start" x="399.74" y="-299.5" font-family="Helvetica,sans-Serif" font-size="10.00"> GetAffectedPlanets()</text>
<text text-anchor="start" x="399.74" y="-288.5" font-family="Helvetica,sans-Serif" font-size="10.00">+ AstralBody GetAstralBody()</text>
<text text-anchor="start" x="399.74" y="-277.5" font-family="Helvetica,sans-Serif" font-size="10.00">+ void ChangeVelocity</text>
<text text-anchor="start" x="399.74" y="-266.5" font-family="Helvetica,sans-Serif" font-size="10.00">(Vector3 velocity)</text>
<text text-anchor="start" x="399.74" y="-255.5" font-family="Helvetica,sans-Serif" font-size="10.00">+ void ChangeVelocity</text>
<text text-anchor="start" x="399.74" y="-244.5" font-family="Helvetica,sans-Serif" font-size="10.00">(double realSpeed)</text>
<text text-anchor="start" x="399.74" y="-233.5" font-family="Helvetica,sans-Serif" font-size="10.00">+ Vector3 CalculateForce()</text>
<text text-anchor="start" x="399.74" y="-222.5" font-family="Helvetica,sans-Serif" font-size="10.00">+ void SetCircleVelocity()</text>
<text text-anchor="start" x="399.74" y="-211.5" font-family="Helvetica,sans-Serif" font-size="10.00">+ void SetCircleVelocityMenu()</text>
<text text-anchor="start" x="399.74" y="-200.5" font-family="Helvetica,sans-Serif" font-size="10.00"># virtual void Start()</text>
<text text-anchor="start" x="399.74" y="-189.5" font-family="Helvetica,sans-Serif" font-size="10.00"># void Generate()</text>
<text text-anchor="start" x="399.74" y="-178.5" font-family="Helvetica,sans-Serif" font-size="10.00"># virtual void FixedUpdate()</text>
<text text-anchor="start" x="399.74" y="-167.5" font-family="Helvetica,sans-Serif" font-size="10.00"># virtual void SetMass()</text>
</a>
</g>
</g>
<!-- Node2&#45;&gt;Node5 -->
<g id="edge8" class="edge">
<title>Node2&#45;&gt;Node5</title>
<path fill="none" stroke="midnightblue" d="M265.1,-793.42C302.66,-773.98 352.42,-742.8 383.24,-702 386.14,-698.16 388.94,-694.22 391.66,-690.2"/>
<polygon fill="none" stroke="midnightblue" points="263.17,-790.48 255.83,-798.11 266.33,-796.72 263.17,-790.48"/>
</g>
<!-- Node3&#45;&gt;Node1 -->
<g id="edge2" class="edge">
<title>Node3&#45;&gt;Node1</title>
<path fill="none" stroke="#404040" d="M147.82,-112.86C145,-118.87 142.4,-124.98 140.24,-131 109.01,-217.87 93.4,-325.32 86.63,-384.87"/>
<polygon fill="none" stroke="#404040" points="86.63,-384.9 89.95,-391.3 85.32,-396.83 82,-390.42 86.63,-384.9"/>
<text text-anchor="middle" x="153.24" y="-134" font-family="Helvetica,sans-Serif" font-size="10.00"> +root</text>
</g>
<!-- Node4&#45;&gt;Node3 -->
<g id="edge5" class="edge">
<title>Node4&#45;&gt;Node3</title>
<path fill="none" stroke="#404040" d="M258.38,-319.75C239.44,-256.19 216.26,-178.38 200.08,-124.09"/>
<polygon fill="none" stroke="#404040" points="200.06,-124.04 194.52,-119.43 196.64,-112.54 202.18,-117.15 200.06,-124.04"/>
<text text-anchor="middle" x="221.24" y="-134" font-family="Helvetica,sans-Serif" font-size="10.00"> +orbits</text>
</g>
<!-- Node5&#45;&gt;Node3 -->
<g id="edge7" class="edge">
<title>Node5&#45;&gt;Node3</title>
<path fill="none" stroke="#404040" d="M391.65,-170.38C388.94,-166.83 386.13,-163.37 383.24,-160 351.38,-123 302.93,-97.83 261.36,-81.69"/>
<polygon fill="none" stroke="#404040" points="261.35,-81.69 254.33,-83.33 250.11,-77.48 257.13,-75.84 261.35,-81.69"/>
<text text-anchor="middle" x="391.74" y="-134" font-family="Helvetica,sans-Serif" font-size="10.00"> +placePrefab</text>
</g>
<!-- Node6 -->
<g id="node6" class="node">
<title>Node6</title>
<g id="a_node6"><a xlink:href="interface_space_physic_1_1_i_traceable.html" target="_top" xlink:title="可追踪接口">
<polygon fill="white" stroke="black" points="392.24,-739.5 392.24,-895.5 552.24,-895.5 552.24,-739.5 392.24,-739.5"/>
<text text-anchor="middle" x="472.24" y="-883.5" font-family="Helvetica,sans-Serif" font-size="10.00">ITraceable</text>
<polyline fill="none" stroke="black" points="392.24,-876.5 552.24,-876.5 "/>
<text text-anchor="middle" x="472.24" y="-864.5" font-family="Helvetica,sans-Serif" font-size="10.00"> </text>
<polyline fill="none" stroke="black" points="392.24,-857.5 552.24,-857.5 "/>
<text text-anchor="start" x="400.24" y="-845.5" font-family="Helvetica,sans-Serif" font-size="10.00">+ Transform GetTransform()</text>
<text text-anchor="start" x="400.24" y="-834.5" font-family="Helvetica,sans-Serif" font-size="10.00">+ Vector3 GetPosition()</text>
<text text-anchor="start" x="400.24" y="-823.5" font-family="Helvetica,sans-Serif" font-size="10.00">+ GameObject GetGameObject()</text>
<text text-anchor="start" x="400.24" y="-812.5" font-family="Helvetica,sans-Serif" font-size="10.00">+ bool GetEnableTracing()</text>
<text text-anchor="start" x="400.24" y="-801.5" font-family="Helvetica,sans-Serif" font-size="10.00">+ float GetMass()</text>
<text text-anchor="start" x="400.24" y="-790.5" font-family="Helvetica,sans-Serif" font-size="10.00">+ Rigidbody GetRigidbody()</text>
<text text-anchor="start" x="400.24" y="-779.5" font-family="Helvetica,sans-Serif" font-size="10.00">+ Vector3 GetVelocity()</text>
<text text-anchor="start" x="400.24" y="-768.5" font-family="Helvetica,sans-Serif" font-size="10.00">+ List&lt; AstralBody &gt;</text>
<text text-anchor="start" x="400.24" y="-757.5" font-family="Helvetica,sans-Serif" font-size="10.00"> GetAffectedPlanets()</text>
<text text-anchor="start" x="400.24" y="-746.5" font-family="Helvetica,sans-Serif" font-size="10.00">+ AstralBody GetAstralBody()</text>
</a>
</g>
</g>
<!-- Node6&#45;&gt;Node5 -->
<g id="edge9" class="edge">
<title>Node6&#45;&gt;Node5</title>
<path fill="none" stroke="midnightblue" d="M472.24,-729.05C472.24,-720.27 472.24,-711.07 472.24,-701.57"/>
<polygon fill="none" stroke="midnightblue" points="468.74,-729.15 472.24,-739.15 475.74,-729.15 468.74,-729.15"/>
</g>
</g>
</svg>
