<?xml version="1.0" encoding="UTF-8" standalone="no"?>
<!DOCTYPE svg PUBLIC "-//W3C//DTD SVG 1.1//EN"
 "http://www.w3.org/Graphics/SVG/1.1/DTD/svg11.dtd">
<!-- Generated by graphviz version 2.47.1 (20210417.1919)
 -->
<!-- Title: CustomUI.Quiz.QuizListUI Pages: 1 -->
<svg width="394pt" height="492pt"
 viewBox="0.00 0.00 393.50 492.00" xmlns="http://www.w3.org/2000/svg" xmlns:xlink="http://www.w3.org/1999/xlink">
<g id="graph0" class="graph" transform="scale(1 1) rotate(0) translate(4 488)">
<title>CustomUI.Quiz.QuizListUI</title>
<polygon fill="white" stroke="transparent" points="-4,4 -4,-488 389.5,-488 389.5,4 -4,4"/>
<!-- Node1 -->
<g id="node1" class="node">
<title>Node1</title>
<g id="a_node1"><a xlink:title=" ">
<polygon fill="#bfbfbf" stroke="black" points="0,-127.5 0,-228.5 131,-228.5 131,-127.5 0,-127.5"/>
<text text-anchor="middle" x="65.5" y="-216.5" font-family="Helvetica,sans-Serif" font-size="10.00">CustomUI.Quiz.QuizListUI</text>
<polyline fill="none" stroke="black" points="0,-209.5 131,-209.5 "/>
<text text-anchor="start" x="8" y="-197.5" font-family="Helvetica,sans-Serif" font-size="10.00">+ RectTransform content</text>
<text text-anchor="start" x="8" y="-186.5" font-family="Helvetica,sans-Serif" font-size="10.00">+ float offset</text>
<text text-anchor="start" x="8" y="-175.5" font-family="Helvetica,sans-Serif" font-size="10.00">+ List&lt; QuizLineUI &gt;</text>
<text text-anchor="start" x="8" y="-164.5" font-family="Helvetica,sans-Serif" font-size="10.00"> quizLineUis</text>
<polyline fill="none" stroke="black" points="0,-157.5 131,-157.5 "/>
<text text-anchor="start" x="8" y="-145.5" font-family="Helvetica,sans-Serif" font-size="10.00">+ void DeleteQuiz(string</text>
<text text-anchor="start" x="8" y="-134.5" font-family="Helvetica,sans-Serif" font-size="10.00"> quizName)</text>
</a>
</g>
</g>
<!-- Node3 -->
<g id="node3" class="node">
<title>Node3</title>
<g id="a_node3"><a xlink:href="class_custom_u_i_1_1_quiz_1_1_quiz_line_u_i.html" target="_top" xlink:title=" ">
<polygon fill="white" stroke="black" points="93,-0.5 93,-68.5 226,-68.5 226,-0.5 93,-0.5"/>
<text text-anchor="middle" x="159.5" y="-56.5" font-family="Helvetica,sans-Serif" font-size="10.00">CustomUI.Quiz.QuizLineUI</text>
<polyline fill="none" stroke="black" points="93,-49.5 226,-49.5 "/>
<text text-anchor="start" x="101" y="-37.5" font-family="Helvetica,sans-Serif" font-size="10.00">+ string name</text>
<polyline fill="none" stroke="black" points="93,-30.5 226,-30.5 "/>
<text text-anchor="start" x="101" y="-18.5" font-family="Helvetica,sans-Serif" font-size="10.00">+ void OnClick()</text>
<text text-anchor="start" x="101" y="-7.5" font-family="Helvetica,sans-Serif" font-size="10.00">+ void Delete()</text>
</a>
</g>
</g>
<!-- Node1&#45;&gt;Node3 -->
<g id="edge5" class="edge">
<title>Node1&#45;&gt;Node3</title>
<path fill="none" stroke="#404040" d="M26,-127.1C19.95,-113.53 18.13,-99.22 26.5,-87 39.31,-68.3 59.97,-56.39 81.22,-48.8"/>
<polygon fill="none" stroke="#404040" points="81.27,-48.79 85.76,-43.14 92.7,-45.12 88.21,-50.76 81.27,-48.79"/>
<text text-anchor="middle" x="52.5" y="-95.5" font-family="Helvetica,sans-Serif" font-size="10.00"> +quizListUI</text>
</g>
<!-- Node2 -->
<g id="node2" class="node">
<title>Node2</title>
<g id="a_node2"><a xlink:title=" ">
<polygon fill="white" stroke="#bfbfbf" points="89,-283 89,-340 172,-340 172,-283 89,-283"/>
<text text-anchor="middle" x="130.5" y="-328" font-family="Helvetica,sans-Serif" font-size="10.00">MonoBehaviour</text>
<polyline fill="none" stroke="#bfbfbf" points="89,-321 172,-321 "/>
<text text-anchor="middle" x="130.5" y="-309" font-family="Helvetica,sans-Serif" font-size="10.00"> </text>
<polyline fill="none" stroke="#bfbfbf" points="89,-302 172,-302 "/>
<text text-anchor="middle" x="130.5" y="-290" font-family="Helvetica,sans-Serif" font-size="10.00"> </text>
</a>
</g>
</g>
<!-- Node2&#45;&gt;Node1 -->
<g id="edge1" class="edge">
<title>Node2&#45;&gt;Node1</title>
<path fill="none" stroke="midnightblue" d="M112.28,-273.65C105.38,-259.68 97.4,-243.53 90.01,-228.58"/>
<polygon fill="none" stroke="midnightblue" points="109.31,-275.52 116.87,-282.93 115.58,-272.42 109.31,-275.52"/>
</g>
<!-- Node2&#45;&gt;Node3 -->
<g id="edge3" class="edge">
<title>Node2&#45;&gt;Node3</title>
<path fill="none" stroke="midnightblue" d="M134.71,-272.85C136.24,-259.06 137.97,-243.32 139.5,-229 145.51,-172.75 152.22,-107.27 156.14,-68.72"/>
<polygon fill="none" stroke="midnightblue" points="131.22,-272.64 133.59,-282.97 138.17,-273.41 131.22,-272.64"/>
</g>
<!-- Node3&#45;&gt;Node1 -->
<g id="edge2" class="edge">
<title>Node3&#45;&gt;Node1</title>
<path fill="none" stroke="#404040" d="M109.74,-68.73C103.68,-74.3 98.05,-80.42 93.5,-87 87.48,-95.7 82.72,-105.75 78.96,-115.91"/>
<polygon fill="none" stroke="#404040" points="78.93,-115.98 80.82,-122.94 75.13,-127.36 73.24,-120.4 78.93,-115.98"/>
<text text-anchor="middle" x="119.5" y="-95.5" font-family="Helvetica,sans-Serif" font-size="10.00"> +linePrefab</text>
</g>
<!-- Node4 -->
<g id="node4" class="node">
<title>Node4</title>
<g id="a_node4"><a xlink:title=" ">
<polygon fill="white" stroke="#bfbfbf" points="188,-149.5 188,-206.5 223,-206.5 223,-149.5 188,-149.5"/>
<text text-anchor="middle" x="205.5" y="-194.5" font-family="Helvetica,sans-Serif" font-size="10.00">Text</text>
<polyline fill="none" stroke="#bfbfbf" points="188,-187.5 223,-187.5 "/>
<text text-anchor="middle" x="205.5" y="-175.5" font-family="Helvetica,sans-Serif" font-size="10.00"> </text>
<polyline fill="none" stroke="#bfbfbf" points="188,-168.5 223,-168.5 "/>
<text text-anchor="middle" x="205.5" y="-156.5" font-family="Helvetica,sans-Serif" font-size="10.00"> </text>
</a>
</g>
</g>
<!-- Node4&#45;&gt;Node3 -->
<g id="edge4" class="edge">
<title>Node4&#45;&gt;Node3</title>
<path fill="none" stroke="#404040" d="M196.52,-149.38C190.11,-129.66 181.35,-102.7 173.95,-79.96"/>
<polygon fill="none" stroke="#404040" points="173.94,-79.93 168.29,-75.46 170.23,-68.52 175.89,-72.99 173.94,-79.93"/>
<text text-anchor="middle" x="209" y="-101" font-family="Helvetica,sans-Serif" font-size="10.00"> +quizName</text>
<text text-anchor="middle" x="209" y="-90" font-family="Helvetica,sans-Serif" font-size="10.00">+quizType</text>
</g>
<!-- Node5 -->
<g id="node5" class="node">
<title>Node5</title>
<g id="a_node5"><a xlink:href="class_quiz_1_1_quiz_base_struct.html" target="_top" xlink:title="问题信息存储">
<polygon fill="white" stroke="black" points="241,-149.5 241,-206.5 350,-206.5 350,-149.5 241,-149.5"/>
<text text-anchor="middle" x="295.5" y="-194.5" font-family="Helvetica,sans-Serif" font-size="10.00">Quiz.QuizBaseStruct</text>
<polyline fill="none" stroke="black" points="241,-187.5 350,-187.5 "/>
<text text-anchor="start" x="249" y="-175.5" font-family="Helvetica,sans-Serif" font-size="10.00">+ QuizType quizType</text>
<polyline fill="none" stroke="black" points="241,-168.5 350,-168.5 "/>
<text text-anchor="middle" x="295.5" y="-156.5" font-family="Helvetica,sans-Serif" font-size="10.00"> </text>
</a>
</g>
</g>
<!-- Node5&#45;&gt;Node3 -->
<g id="edge6" class="edge">
<title>Node5&#45;&gt;Node3</title>
<path fill="none" stroke="#404040" d="M282.35,-149.21C272.42,-130.19 257.45,-105.23 239.5,-87 235.75,-83.19 231.67,-79.52 227.4,-76.01"/>
<polygon fill="none" stroke="#404040" points="227.31,-75.95 220.11,-75.45 217.81,-68.62 225,-69.11 227.31,-75.95"/>
<text text-anchor="middle" x="282.5" y="-95.5" font-family="Helvetica,sans-Serif" font-size="10.00"> +quizStruct</text>
</g>
<!-- Node6 -->
<g id="node6" class="node">
<title>Node6</title>
<g id="a_node6"><a xlink:href="class_xml_saver_1_1_scene_base_struct.html" target="_top" xlink:title=" ">
<polygon fill="white" stroke="black" points="221.5,-266.5 221.5,-356.5 369.5,-356.5 369.5,-266.5 221.5,-266.5"/>
<text text-anchor="start" x="229.5" y="-344.5" font-family="Helvetica,sans-Serif" font-size="10.00">SceneBaseStruct&lt; QuizAstral</text>
<text text-anchor="middle" x="295.5" y="-333.5" font-family="Helvetica,sans-Serif" font-size="10.00">Body &gt;</text>
<polyline fill="none" stroke="black" points="221.5,-326.5 369.5,-326.5 "/>
<text text-anchor="start" x="229.5" y="-314.5" font-family="Helvetica,sans-Serif" font-size="10.00">+ string sceneName</text>
<text text-anchor="start" x="229.5" y="-303.5" font-family="Helvetica,sans-Serif" font-size="10.00">+ List&lt; AstralBodyDataDict</text>
<text text-anchor="start" x="229.5" y="-292.5" font-family="Helvetica,sans-Serif" font-size="10.00">&lt; T &gt; &gt; astralBodyStructList</text>
<polyline fill="none" stroke="black" points="221.5,-285.5 369.5,-285.5 "/>
<text text-anchor="middle" x="295.5" y="-273.5" font-family="Helvetica,sans-Serif" font-size="10.00"> </text>
</a>
</g>
</g>
<!-- Node6&#45;&gt;Node5 -->
<g id="edge7" class="edge">
<title>Node6&#45;&gt;Node5</title>
<path fill="none" stroke="midnightblue" d="M295.5,-255.97C295.5,-239.03 295.5,-221.07 295.5,-206.76"/>
<polygon fill="none" stroke="midnightblue" points="292,-256.35 295.5,-266.35 299,-256.35 292,-256.35"/>
</g>
<!-- Node7 -->
<g id="node7" class="node">
<title>Node7</title>
<g id="a_node7"><a xlink:href="class_xml_saver_1_1_scene_base_struct.html" target="_top" xlink:title="场景信息存储">
<polygon fill="white" stroke="black" points="216,-404.5 216,-483.5 375,-483.5 375,-404.5 216,-404.5"/>
<text text-anchor="middle" x="295.5" y="-471.5" font-family="Helvetica,sans-Serif" font-size="10.00">XmlSaver.SceneBaseStruct&lt; T &gt;</text>
<polyline fill="none" stroke="black" points="216,-464.5 375,-464.5 "/>
<text text-anchor="start" x="224" y="-452.5" font-family="Helvetica,sans-Serif" font-size="10.00">+ string sceneName</text>
<text text-anchor="start" x="224" y="-441.5" font-family="Helvetica,sans-Serif" font-size="10.00">+ List&lt; AstralBodyDataDict</text>
<text text-anchor="start" x="224" y="-430.5" font-family="Helvetica,sans-Serif" font-size="10.00">&lt; T &gt; &gt; astralBodyStructList</text>
<polyline fill="none" stroke="black" points="216,-423.5 375,-423.5 "/>
<text text-anchor="middle" x="295.5" y="-411.5" font-family="Helvetica,sans-Serif" font-size="10.00"> </text>
</a>
</g>
</g>
<!-- Node7&#45;&gt;Node6 -->
<g id="edge8" class="edge">
<title>Node7&#45;&gt;Node6</title>
<path fill="none" stroke="orange" d="M295.5,-394.16C295.5,-381.93 295.5,-368.88 295.5,-356.88"/>
<polygon fill="orange" stroke="orange" points="292,-394.2 295.5,-404.2 299,-394.2 292,-394.2"/>
<text text-anchor="middle" x="340.5" y="-378" font-family="Helvetica,sans-Serif" font-size="10.00"> &lt; QuizAstralBody &gt;</text>
</g>
</g>
</svg>
