<?xml version="1.0" encoding="UTF-8" standalone="no"?>
<!DOCTYPE svg PUBLIC "-//W3C//DTD SVG 1.1//EN"
 "http://www.w3.org/Graphics/SVG/1.1/DTD/svg11.dtd">
<!-- Generated by graphviz version 2.47.1 (20210417.1919)
 -->
<!-- Title: CustomUI.Lab.LabSceneLineUI.OnClick Pages: 1 -->
<svg width="531pt" height="39pt"
 viewBox="0.00 0.00 531.00 39.00" xmlns="http://www.w3.org/2000/svg" xmlns:xlink="http://www.w3.org/1999/xlink">
<g id="graph0" class="graph" transform="scale(1 1) rotate(0) translate(4 35)">
<title>CustomUI.Lab.LabSceneLineUI.OnClick</title>
<polygon fill="white" stroke="transparent" points="-4,4 -4,-35 527,-35 527,4 -4,4"/>
<!-- Node1 -->
<g id="node1" class="node">
<title>Node1</title>
<g id="a_node1"><a xlink:title=" ">
<polygon fill="#bfbfbf" stroke="black" points="0,-0.5 0,-30.5 143,-30.5 143,-0.5 0,-0.5"/>
<text text-anchor="start" x="8" y="-18.5" font-family="Helvetica,sans-Serif" font-size="10.00">CustomUI.Lab.LabSceneLine</text>
<text text-anchor="middle" x="71.5" y="-7.5" font-family="Helvetica,sans-Serif" font-size="10.00">UI.OnClick</text>
</a>
</g>
</g>
<!-- Node2 -->
<g id="node2" class="node">
<title>Node2</title>
<g id="a_node2"><a xlink:href="class_game_managers_1_1_global_transfer.html#a96550d206f25a2d8d89af6c365617a55" target="_top" xlink:title="在Loading场景中加载新场景">
<polygon fill="white" stroke="black" points="179,-0.5 179,-30.5 333,-30.5 333,-0.5 179,-0.5"/>
<text text-anchor="start" x="187" y="-18.5" font-family="Helvetica,sans-Serif" font-size="10.00">GameManagers.GlobalTransfer.</text>
<text text-anchor="middle" x="256" y="-7.5" font-family="Helvetica,sans-Serif" font-size="10.00">LoadSceneInLoadingScene</text>
</a>
</g>
</g>
<!-- Node1&#45;&gt;Node2 -->
<g id="edge1" class="edge">
<title>Node1&#45;&gt;Node2</title>
<path fill="none" stroke="midnightblue" d="M143.06,-15.5C151.49,-15.5 160.18,-15.5 168.8,-15.5"/>
<polygon fill="midnightblue" stroke="midnightblue" points="168.88,-19 178.88,-15.5 168.88,-12 168.88,-19"/>
</g>
<!-- Node3 -->
<g id="node3" class="node">
<title>Node3</title>
<g id="a_node3"><a xlink:href="class_game_managers_1_1_global_transfer.html#a85c796df61ccc5a26711da6d748bc60d" target="_top" xlink:title=" ">
<polygon fill="white" stroke="black" points="369,-0.5 369,-30.5 523,-30.5 523,-0.5 369,-0.5"/>
<text text-anchor="start" x="377" y="-18.5" font-family="Helvetica,sans-Serif" font-size="10.00">GameManagers.GlobalTransfer.</text>
<text text-anchor="middle" x="446" y="-7.5" font-family="Helvetica,sans-Serif" font-size="10.00">StartXR</text>
</a>
</g>
</g>
<!-- Node2&#45;&gt;Node3 -->
<g id="edge2" class="edge">
<title>Node2&#45;&gt;Node3</title>
<path fill="none" stroke="midnightblue" d="M333.2,-15.5C341.52,-15.5 350.03,-15.5 358.47,-15.5"/>
<polygon fill="midnightblue" stroke="midnightblue" points="358.7,-19 368.7,-15.5 358.7,-12 358.7,-19"/>
</g>
</g>
</svg>
