<?xml version="1.0" encoding="UTF-8" standalone="no"?>
<!DOCTYPE svg PUBLIC "-//W3C//DTD SVG 1.1//EN"
 "http://www.w3.org/Graphics/SVG/1.1/DTD/svg11.dtd">
<!-- Generated by graphviz version 2.47.1 (20210417.1919)
 -->
<!-- Title: GameManagers.GlobalTransfer.LoadSceneInLoadingScene Pages: 1 -->
<!--zoomable 964 -->
<svg id="main" version="1.1" xmlns="http://www.w3.org/2000/svg" xmlns:xlink="http://www.w3.org/1999/xlink" xml:space="preserve" onload="init(evt)">
<style type="text/css"><![CDATA[
.edge:hover path { stroke: red; }
.edge:hover polygon { stroke: red; fill: red; }
]]></style>
<script type="text/javascript"><![CDATA[
var edges = document.getElementsByTagName('g');
if (edges && edges.length) {
  for (var i=0;i<edges.length;i++) {
    if (edges[i].id.substr(0,4)=='edge') {
      edges[i].setAttribute('class','edge');
    }
  }
}
]]></script>
        <defs>
                <circle id="rim" cx="0" cy="0" r="7"/>
                <circle id="rim2" cx="0" cy="0" r="3.5"/>
                <g id="zoomPlus">
                        <use xlink:href="#rim" fill="#404040">
                                <set attributeName="fill" to="#808080" begin="zoomplus.mouseover" end="zoomplus.mouseout"/>
                        </use>
                        <path d="M-4,0h8M0,-4v8" fill="none" stroke="white" stroke-width="1.5" pointer-events="none"/>
                </g>
                <g id="zoomMin">
                        <use xlink:href="#rim" fill="#404040">
                                <set attributeName="fill" to="#808080" begin="zoomminus.mouseover" end="zoomminus.mouseout"/>
                        </use>
                        <path d="M-4,0h8" fill="none" stroke="white" stroke-width="1.5" pointer-events="none"/>
                </g>
                <g id="dirArrow">
                        <path fill="none" stroke="white" stroke-width="1.5" d="M0,-3.0v7 M-2.5,-0.5L0,-3.0L2.5,-0.5"/>
                </g>
               <g id="resetDef">
                       <use xlink:href="#rim2" fill="#404040">
                               <set attributeName="fill" to="#808080" begin="reset.mouseover" end="reset.mouseout"/>
                       </use>
               </g>
        </defs>

<script type="text/javascript">
var viewWidth = 367;
var viewHeight = 964;
var sectionId = 'dynsection-3';
</script>
<script xlink:href="svgpan.js"/>
<svg id="graph" class="graph">
<g id="viewport">
<title>GameManagers.GlobalTransfer.LoadSceneInLoadingScene</title>
<polygon fill="white" stroke="transparent" points="-4,4 -4,-959.5 363,-959.5 363,4 -4,4"/>
<!-- Node1 -->
<g id="node1" class="node">
<title>Node1</title>
<g id="a_node1"><a xlink:title="在Loading场景中加载新场景">
<polygon fill="#bfbfbf" stroke="black" points="205,-455.5 205,-485.5 359,-485.5 359,-455.5 205,-455.5"/>
<text text-anchor="start" x="213" y="-473.5" font-family="Helvetica,sans-Serif" font-size="10.00">GameManagers.GlobalTransfer.</text>
<text text-anchor="middle" x="282" y="-462.5" font-family="Helvetica,sans-Serif" font-size="10.00">LoadSceneInLoadingScene</text>
</a>
</g>
</g>
<!-- Node2 -->
<g id="node2" class="node">
<title>Node2</title>
<g id="a_node2"><a xlink:href="class_custom_u_i_1_1_quiz_1_1_result_u_i.html#a428d94a0af83f0ccae3a0952c8b2f020" target="_top" xlink:title=" ">
<polygon fill="white" stroke="black" points="10.5,-936 10.5,-955 158.5,-955 158.5,-936 10.5,-936"/>
<text text-anchor="middle" x="84.5" y="-943" font-family="Helvetica,sans-Serif" font-size="10.00">CustomUI.Quiz.ResultUI.Back</text>
</a>
</g>
</g>
<!-- Node1&#45;&gt;Node2 -->
<g id="edge1" class="edge">
<title>Node1&#45;&gt;Node2</title>
<path fill="none" stroke="midnightblue" d="M278.28,-495.6C268.44,-581.92 231.86,-864.71 169,-926.5 165.18,-930.25 160.79,-933.32 156.05,-935.83"/>
<polygon fill="midnightblue" stroke="midnightblue" points="281.77,-495.96 279.4,-485.63 274.81,-495.18 281.77,-495.96"/>
</g>
<!-- Node3 -->
<g id="node3" class="node">
<title>Node3</title>
<g id="a_node3"><a xlink:href="class_custom_u_i_1_1_test_mode_u_i.html#af289391fc25d74c3624fb8a66226538f" target="_top" xlink:title=" ">
<polygon fill="white" stroke="black" points="14.5,-898 14.5,-917 154.5,-917 154.5,-898 14.5,-898"/>
<text text-anchor="middle" x="84.5" y="-905" font-family="Helvetica,sans-Serif" font-size="10.00">CustomUI.TestModeUI.Back</text>
</a>
</g>
</g>
<!-- Node1&#45;&gt;Node3 -->
<g id="edge2" class="edge">
<title>Node1&#45;&gt;Node3</title>
<path fill="none" stroke="midnightblue" d="M277.65,-495.88C266.33,-577.74 226.96,-832.71 169,-888.5 164.82,-892.52 159.98,-895.76 154.77,-898.36"/>
<polygon fill="midnightblue" stroke="midnightblue" points="281.15,-496.11 279.03,-485.73 274.21,-495.16 281.15,-496.11"/>
</g>
<!-- Node4 -->
<g id="node4" class="node">
<title>Node4</title>
<g id="a_node4"><a xlink:href="class_custom_u_i_1_1_satellite_1_1_satellite_result_u_i.html#a0ec4ad20ee3556da9cf61b8d228ef9fe" target="_top" xlink:title=" ">
<polygon fill="white" stroke="black" points="16.5,-848.5 16.5,-878.5 152.5,-878.5 152.5,-848.5 16.5,-848.5"/>
<text text-anchor="start" x="24.5" y="-866.5" font-family="Helvetica,sans-Serif" font-size="10.00">CustomUI.Satellite.Satellite</text>
<text text-anchor="middle" x="84.5" y="-855.5" font-family="Helvetica,sans-Serif" font-size="10.00">ResultUI.BackToLabMode</text>
</a>
</g>
</g>
<!-- Node1&#45;&gt;Node4 -->
<g id="edge3" class="edge">
<title>Node1&#45;&gt;Node4</title>
<path fill="none" stroke="midnightblue" d="M281.1,-496.08C279.91,-562.62 267.28,-742.67 169,-839.5 164.27,-844.16 158.7,-847.92 152.72,-850.97"/>
<polygon fill="midnightblue" stroke="midnightblue" points="284.6,-495.74 281.2,-485.71 277.6,-495.67 284.6,-495.74"/>
</g>
<!-- Node5 -->
<g id="node5" class="node">
<title>Node5</title>
<g id="a_node5"><a xlink:href="class_custom_u_i_1_1_satellite_1_1_satellite_u_i.html#aaa3188a75f4f2a2c911dcb4a74cc21dc" target="_top" xlink:title=" ">
<polygon fill="white" stroke="black" points="16.5,-799.5 16.5,-829.5 152.5,-829.5 152.5,-799.5 16.5,-799.5"/>
<text text-anchor="start" x="24.5" y="-817.5" font-family="Helvetica,sans-Serif" font-size="10.00">CustomUI.Satellite.Satellite</text>
<text text-anchor="middle" x="84.5" y="-806.5" font-family="Helvetica,sans-Serif" font-size="10.00">UI.BackToLabMode</text>
</a>
</g>
</g>
<!-- Node1&#45;&gt;Node5 -->
<g id="edge4" class="edge">
<title>Node1&#45;&gt;Node5</title>
<path fill="none" stroke="midnightblue" d="M279.72,-495.95C275.27,-556.21 255.6,-708.69 169,-790.5 164.18,-795.06 158.54,-798.76 152.52,-801.76"/>
<polygon fill="midnightblue" stroke="midnightblue" points="283.22,-496.02 280.38,-485.81 276.23,-495.56 283.22,-496.02"/>
</g>
<!-- Node6 -->
<g id="node6" class="node">
<title>Node6</title>
<g id="a_node6"><a xlink:href="class_custom_u_i_1_1_physic_scene_u_i.html#a9256136931bac4afc309bc4691955000" target="_top" xlink:title=" ">
<polygon fill="white" stroke="black" points="7,-750.5 7,-780.5 162,-780.5 162,-750.5 7,-750.5"/>
<text text-anchor="start" x="15" y="-768.5" font-family="Helvetica,sans-Serif" font-size="10.00">CustomUI.PhysicSceneUI.Back</text>
<text text-anchor="middle" x="84.5" y="-757.5" font-family="Helvetica,sans-Serif" font-size="10.00">ToMain</text>
</a>
</g>
</g>
<!-- Node1&#45;&gt;Node6 -->
<g id="edge5" class="edge">
<title>Node1&#45;&gt;Node6</title>
<path fill="none" stroke="midnightblue" d="M277.92,-495.69C270.02,-549.12 244.1,-674.37 169,-741.5 165.18,-744.92 160.9,-747.85 156.35,-750.37"/>
<polygon fill="midnightblue" stroke="midnightblue" points="281.39,-496.1 279.3,-485.71 274.46,-495.14 281.39,-496.1"/>
</g>
<!-- Node7 -->
<g id="node7" class="node">
<title>Node7</title>
<g id="a_node7"><a xlink:href="class_custom_u_i_1_1_quiz_1_1_quiz_edit_u_i.html#a40e3c0662516ad140b7c5d4588bcfe2b" target="_top" xlink:title=" ">
<polygon fill="white" stroke="black" points="17,-701.5 17,-731.5 152,-731.5 152,-701.5 17,-701.5"/>
<text text-anchor="start" x="25" y="-719.5" font-family="Helvetica,sans-Serif" font-size="10.00">CustomUI.Quiz.QuizEditUI.</text>
<text text-anchor="middle" x="84.5" y="-708.5" font-family="Helvetica,sans-Serif" font-size="10.00">BackToTestMode</text>
</a>
</g>
</g>
<!-- Node1&#45;&gt;Node7 -->
<g id="edge6" class="edge">
<title>Node1&#45;&gt;Node7</title>
<path fill="none" stroke="midnightblue" d="M275.48,-495.25C263.93,-541.15 232.85,-639.62 169,-692.5 164,-696.64 158.33,-700.06 152.35,-702.9"/>
<polygon fill="midnightblue" stroke="midnightblue" points="278.88,-496.06 277.82,-485.52 272.07,-494.42 278.88,-496.06"/>
</g>
<!-- Node8 -->
<g id="node8" class="node">
<title>Node8</title>
<g id="a_node8"><a xlink:href="class_custom_u_i_1_1_quiz_1_1_quiz_test_u_i.html#a02e4c88699a323e283d80ac15cf0b8eb" target="_top" xlink:title=" ">
<polygon fill="white" stroke="black" points="16,-652.5 16,-682.5 153,-682.5 153,-652.5 16,-652.5"/>
<text text-anchor="start" x="24" y="-670.5" font-family="Helvetica,sans-Serif" font-size="10.00">CustomUI.Quiz.QuizTestUI.</text>
<text text-anchor="middle" x="84.5" y="-659.5" font-family="Helvetica,sans-Serif" font-size="10.00">BackToTestMode</text>
</a>
</g>
</g>
<!-- Node1&#45;&gt;Node8 -->
<g id="edge7" class="edge">
<title>Node1&#45;&gt;Node8</title>
<path fill="none" stroke="midnightblue" d="M271.44,-495.35C255.77,-532.83 221.03,-603.58 169,-642.5 163.79,-646.4 157.97,-649.69 151.9,-652.47"/>
<polygon fill="midnightblue" stroke="midnightblue" points="274.84,-496.3 275.36,-485.71 268.35,-493.66 274.84,-496.3"/>
</g>
<!-- Node9 -->
<g id="node9" class="node">
<title>Node9</title>
<g id="a_node9"><a xlink:href="class_custom_u_i_1_1_main_u_i.html#ac0d588b53b6403af5bb7f8834e282602" target="_top" xlink:title=" ">
<polygon fill="white" stroke="black" points="4.5,-614 4.5,-633 164.5,-633 164.5,-614 4.5,-614"/>
<text text-anchor="middle" x="84.5" y="-621" font-family="Helvetica,sans-Serif" font-size="10.00">CustomUI.MainUI.LoadLabScene</text>
</a>
</g>
</g>
<!-- Node1&#45;&gt;Node9 -->
<g id="edge8" class="edge">
<title>Node1&#45;&gt;Node9</title>
<path fill="none" stroke="midnightblue" d="M267.74,-494.46C249.57,-524.95 214,-576.96 169,-604.5 162.66,-608.38 155.61,-611.47 148.37,-613.93"/>
<polygon fill="midnightblue" stroke="midnightblue" points="270.81,-496.14 272.81,-485.74 264.76,-492.63 270.81,-496.14"/>
</g>
<!-- Node10 -->
<g id="node10" class="node">
<title>Node10</title>
<g id="a_node10"><a xlink:href="class_custom_u_i_1_1_main_u_i.html#abc3e1c7602bf017e513d74b03d4e6af1" target="_top" xlink:title=" ">
<polygon fill="white" stroke="black" points="5,-576 5,-595 164,-595 164,-576 5,-576"/>
<text text-anchor="middle" x="84.5" y="-583" font-family="Helvetica,sans-Serif" font-size="10.00">CustomUI.MainUI.LoadTestMode</text>
</a>
</g>
</g>
<!-- Node1&#45;&gt;Node10 -->
<g id="edge9" class="edge">
<title>Node1&#45;&gt;Node10</title>
<path fill="none" stroke="midnightblue" d="M260.78,-493.34C239.95,-515.42 205.47,-548.15 169,-566.5 161.3,-570.38 152.8,-573.47 144.26,-575.94"/>
<polygon fill="midnightblue" stroke="midnightblue" points="263.59,-495.46 267.81,-485.74 258.45,-490.7 263.59,-495.46"/>
</g>
<!-- Node11 -->
<g id="node11" class="node">
<title>Node11</title>
<g id="a_node11"><a xlink:href="class_custom_u_i_1_1_lab_1_1_lab_scene_line_u_i.html#a0a61ad5fd5b250be9321e61bea240832" target="_top" xlink:title=" ">
<polygon fill="white" stroke="black" points="13,-526.5 13,-556.5 156,-556.5 156,-526.5 13,-526.5"/>
<text text-anchor="start" x="21" y="-544.5" font-family="Helvetica,sans-Serif" font-size="10.00">CustomUI.Lab.LabSceneLine</text>
<text text-anchor="middle" x="84.5" y="-533.5" font-family="Helvetica,sans-Serif" font-size="10.00">UI.OnClick</text>
</a>
</g>
</g>
<!-- Node1&#45;&gt;Node11 -->
<g id="edge10" class="edge">
<title>Node1&#45;&gt;Node11</title>
<path fill="none" stroke="midnightblue" d="M238.88,-489.56C218.07,-498.61 192.46,-509.24 169,-517.5 160.18,-520.61 150.73,-523.62 141.48,-526.39"/>
<polygon fill="midnightblue" stroke="midnightblue" points="240.32,-492.74 248.07,-485.52 237.51,-486.34 240.32,-492.74"/>
</g>
<!-- Node12 -->
<g id="node12" class="node">
<title>Node12</title>
<g id="a_node12"><a xlink:href="class_custom_u_i_1_1_quiz_1_1_quiz_line_u_i.html#a894b5ca9aab4f5db14135f3f544dbe4f" target="_top" xlink:title=" ">
<polygon fill="white" stroke="black" points="16.5,-477.5 16.5,-507.5 152.5,-507.5 152.5,-477.5 16.5,-477.5"/>
<text text-anchor="start" x="24.5" y="-495.5" font-family="Helvetica,sans-Serif" font-size="10.00">CustomUI.Quiz.QuizLineUI.</text>
<text text-anchor="middle" x="84.5" y="-484.5" font-family="Helvetica,sans-Serif" font-size="10.00">OnClick</text>
</a>
</g>
</g>
<!-- Node1&#45;&gt;Node12 -->
<g id="edge11" class="edge">
<title>Node1&#45;&gt;Node12</title>
<path fill="none" stroke="midnightblue" d="M194.65,-480.22C180.53,-481.81 166.09,-483.43 152.53,-484.96"/>
<polygon fill="midnightblue" stroke="midnightblue" points="195.31,-483.67 204.85,-479.07 194.53,-476.71 195.31,-483.67"/>
</g>
<!-- Node13 -->
<g id="node13" class="node">
<title>Node13</title>
<g id="a_node13"><a xlink:href="class_space_ship_u_i.html#ae26c22fcaff74d17010450142a5e4bec" target="_top" xlink:title=" ">
<polygon fill="white" stroke="black" points="37.5,-439 37.5,-458 131.5,-458 131.5,-439 37.5,-439"/>
<text text-anchor="middle" x="84.5" y="-446" font-family="Helvetica,sans-Serif" font-size="10.00">SpaceShipUI.Quit</text>
</a>
</g>
</g>
<!-- Node1&#45;&gt;Node13 -->
<g id="edge12" class="edge">
<title>Node1&#45;&gt;Node13</title>
<path fill="none" stroke="midnightblue" d="M194.9,-460.81C173.08,-458.36 150.47,-455.81 131.51,-453.68"/>
<polygon fill="midnightblue" stroke="midnightblue" points="194.53,-464.29 204.85,-461.93 195.31,-457.33 194.53,-464.29"/>
</g>
<!-- Node14 -->
<g id="node14" class="node">
<title>Node14</title>
<g id="a_node14"><a xlink:href="class_custom_u_i_1_1_satellite_1_1_satellite_result_u_i.html#ab0d0e9d10a6a97b8f026e2373fbd5425" target="_top" xlink:title=" ">
<polygon fill="white" stroke="black" points="16.5,-389.5 16.5,-419.5 152.5,-419.5 152.5,-389.5 16.5,-389.5"/>
<text text-anchor="start" x="24.5" y="-407.5" font-family="Helvetica,sans-Serif" font-size="10.00">CustomUI.Satellite.Satellite</text>
<text text-anchor="middle" x="84.5" y="-396.5" font-family="Helvetica,sans-Serif" font-size="10.00">ResultUI.Reload</text>
</a>
</g>
</g>
<!-- Node1&#45;&gt;Node14 -->
<g id="edge13" class="edge">
<title>Node1&#45;&gt;Node14</title>
<path fill="none" stroke="midnightblue" d="M232.2,-451.91C212.64,-444.65 189.84,-436.43 169,-429.5 158.95,-426.16 148.15,-422.78 137.77,-419.62"/>
<polygon fill="midnightblue" stroke="midnightblue" points="231.22,-455.28 241.81,-455.5 233.66,-448.72 231.22,-455.28"/>
</g>
<!-- Node15 -->
<g id="node15" class="node">
<title>Node15</title>
<g id="a_node15"><a xlink:href="class_space_ship_u_i.html#ab3188b3d7bb399426f4a806d34cb0ac4" target="_top" xlink:title=" ">
<polygon fill="white" stroke="black" points="31.5,-351 31.5,-370 137.5,-370 137.5,-351 31.5,-351"/>
<text text-anchor="middle" x="84.5" y="-358" font-family="Helvetica,sans-Serif" font-size="10.00">SpaceShipUI.Reload</text>
</a>
</g>
</g>
<!-- Node1&#45;&gt;Node15 -->
<g id="edge14" class="edge">
<title>Node1&#45;&gt;Node15</title>
<path fill="none" stroke="midnightblue" d="M259.38,-448.17C238.21,-427.59 204.11,-397.72 169,-380.5 159.23,-375.71 148.24,-372.02 137.53,-369.2"/>
<polygon fill="midnightblue" stroke="midnightblue" points="257,-450.74 266.57,-455.29 261.93,-445.77 257,-450.74"/>
</g>
<!-- Node16 -->
<g id="node16" class="node">
<title>Node16</title>
<g id="a_node16"><a xlink:href="class_custom_u_i_1_1_quiz_1_1_quiz_editor_u_i.html#af93afe3be1c58c27c4b2e87684cd75c1" target="_top" xlink:title=" ">
<polygon fill="white" stroke="black" points="19,-301.5 19,-331.5 150,-331.5 150,-301.5 19,-301.5"/>
<text text-anchor="start" x="27" y="-319.5" font-family="Helvetica,sans-Serif" font-size="10.00">CustomUI.Quiz.QuizEditor</text>
<text text-anchor="middle" x="84.5" y="-308.5" font-family="Helvetica,sans-Serif" font-size="10.00">UI.ReloadScene</text>
</a>
</g>
</g>
<!-- Node1&#45;&gt;Node16 -->
<g id="edge15" class="edge">
<title>Node1&#45;&gt;Node16</title>
<path fill="none" stroke="midnightblue" d="M266.4,-446.61C247.45,-417.58 211.72,-369.08 169,-341.5 163.03,-337.64 156.43,-334.36 149.64,-331.57"/>
<polygon fill="midnightblue" stroke="midnightblue" points="263.61,-448.75 271.95,-455.29 269.51,-444.98 263.61,-448.75"/>
</g>
<!-- Node17 -->
<g id="node17" class="node">
<title>Node17</title>
<g id="a_node17"><a xlink:href="class_custom_u_i_1_1_quiz_1_1_result_u_i.html#aa899d0c576fa3eb364b6fe39dc7dcfb4" target="_top" xlink:title=" ">
<polygon fill="white" stroke="black" points="6,-263 6,-282 163,-282 163,-263 6,-263"/>
<text text-anchor="middle" x="84.5" y="-270" font-family="Helvetica,sans-Serif" font-size="10.00">CustomUI.Quiz.ResultUI.Restart</text>
</a>
</g>
</g>
<!-- Node1&#45;&gt;Node17 -->
<g id="edge16" class="edge">
<title>Node1&#45;&gt;Node17</title>
<path fill="none" stroke="midnightblue" d="M272.48,-445.79C257.76,-406.89 223.75,-331.76 169,-292.5 162.94,-288.16 156.07,-284.75 148.92,-282.07"/>
<polygon fill="midnightblue" stroke="midnightblue" points="269.24,-447.12 275.97,-455.3 275.81,-444.71 269.24,-447.12"/>
</g>
<!-- Node18 -->
<g id="node18" class="node">
<title>Node18</title>
<g id="a_node18"><a xlink:href="class_custom_u_i_1_1_test_mode_u_i.html#a59fe0887ae83c98fbe49b59e4ad4614a" target="_top" xlink:title=" ">
<polygon fill="white" stroke="black" points="0,-225 0,-244 169,-244 169,-225 0,-225"/>
<text text-anchor="middle" x="84.5" y="-232" font-family="Helvetica,sans-Serif" font-size="10.00">CustomUI.TestModeUI.ToEditMode</text>
</a>
</g>
</g>
<!-- Node1&#45;&gt;Node18 -->
<g id="edge17" class="edge">
<title>Node1&#45;&gt;Node18</title>
<path fill="none" stroke="midnightblue" d="M275.42,-445.35C263.91,-399.65 233.08,-303.13 169,-253.5 164.06,-249.68 158.5,-246.6 152.65,-244.12"/>
<polygon fill="midnightblue" stroke="midnightblue" points="272.07,-446.41 277.82,-455.31 278.88,-444.77 272.07,-446.41"/>
</g>
<!-- Node19 -->
<g id="node19" class="node">
<title>Node19</title>
<g id="a_node19"><a xlink:href="class_custom_u_i_1_1_lab_mode_u_i.html#a427a69074236019787a5c13598fb7128" target="_top" xlink:title=" ">
<polygon fill="white" stroke="black" points="12.5,-175.5 12.5,-205.5 156.5,-205.5 156.5,-175.5 12.5,-175.5"/>
<text text-anchor="start" x="20.5" y="-193.5" font-family="Helvetica,sans-Serif" font-size="10.00">CustomUI.LabModeUI.ToFree</text>
<text text-anchor="middle" x="84.5" y="-182.5" font-family="Helvetica,sans-Serif" font-size="10.00">Travel</text>
</a>
</g>
</g>
<!-- Node1&#45;&gt;Node19 -->
<g id="edge18" class="edge">
<title>Node1&#45;&gt;Node19</title>
<path fill="none" stroke="midnightblue" d="M277.08,-445.11C267.83,-393.98 239.88,-278.16 169,-215.5 164.58,-211.59 159.57,-208.29 154.25,-205.51"/>
<polygon fill="midnightblue" stroke="midnightblue" points="273.68,-446.01 278.82,-455.27 280.58,-444.83 273.68,-446.01"/>
</g>
<!-- Node20 -->
<g id="node20" class="node">
<title>Node20</title>
<g id="a_node20"><a xlink:href="class_custom_u_i_1_1_lab_mode_u_i.html#aada4e2e96cdfcbfbea28322515450a19" target="_top" xlink:title=" ">
<polygon fill="white" stroke="black" points="14.5,-137 14.5,-156 154.5,-156 154.5,-137 14.5,-137"/>
<text text-anchor="middle" x="84.5" y="-144" font-family="Helvetica,sans-Serif" font-size="10.00">CustomUI.LabModeUI.ToLab</text>
</a>
</g>
</g>
<!-- Node1&#45;&gt;Node20 -->
<g id="edge19" class="edge">
<title>Node1&#45;&gt;Node20</title>
<path fill="none" stroke="midnightblue" d="M279.45,-445.28C274.46,-386.91 253.73,-241.78 169,-166.5 164.21,-162.24 158.67,-158.85 152.77,-156.15"/>
<polygon fill="midnightblue" stroke="midnightblue" points="275.98,-445.74 280.23,-455.44 282.96,-445.2 275.98,-445.74"/>
</g>
<!-- Node21 -->
<g id="node21" class="node">
<title>Node21</title>
<g id="a_node21"><a xlink:href="class_custom_u_i_1_1_lab_mode_u_i.html#a0ee0f699378eb49ed6f9c555e769836b" target="_top" xlink:title=" ">
<polygon fill="white" stroke="black" points="11.5,-99 11.5,-118 157.5,-118 157.5,-99 11.5,-99"/>
<text text-anchor="middle" x="84.5" y="-106" font-family="Helvetica,sans-Serif" font-size="10.00">CustomUI.LabModeUI.ToMain</text>
</a>
</g>
</g>
<!-- Node1&#45;&gt;Node21 -->
<g id="edge20" class="edge">
<title>Node1&#45;&gt;Node21</title>
<path fill="none" stroke="midnightblue" d="M280.72,-445.12C278.58,-381.45 263.74,-213.92 169,-127.5 164.83,-123.69 160.05,-120.6 154.95,-118.09"/>
<polygon fill="midnightblue" stroke="midnightblue" points="277.23,-445.51 280.99,-455.42 284.23,-445.34 277.23,-445.51"/>
</g>
<!-- Node22 -->
<g id="node22" class="node">
<title>Node22</title>
<g id="a_node22"><a xlink:href="class_custom_u_i_1_1_lab_mode_u_i.html#a8680a2fefaca2eca5ee077383cc0eb87" target="_top" xlink:title=" ">
<polygon fill="white" stroke="black" points="4.5,-49.5 4.5,-79.5 164.5,-79.5 164.5,-49.5 4.5,-49.5"/>
<text text-anchor="start" x="12.5" y="-67.5" font-family="Helvetica,sans-Serif" font-size="10.00">CustomUI.LabModeUI.ToSatellite</text>
<text text-anchor="middle" x="84.5" y="-56.5" font-family="Helvetica,sans-Serif" font-size="10.00">Challenge</text>
</a>
</g>
</g>
<!-- Node1&#45;&gt;Node22 -->
<g id="edge21" class="edge">
<title>Node1&#45;&gt;Node22</title>
<path fill="none" stroke="midnightblue" d="M281.32,-445.07C280.76,-377.29 269.65,-190.66 169,-89.5 165.16,-85.64 160.74,-82.37 156,-79.6"/>
<polygon fill="midnightblue" stroke="midnightblue" points="277.82,-445.25 281.33,-455.24 284.82,-445.24 277.82,-445.25"/>
</g>
<!-- Node23 -->
<g id="node23" class="node">
<title>Node23</title>
<g id="a_node23"><a xlink:href="class_custom_u_i_1_1_quiz_1_1_quiz_editor_u_i.html#a70edfd237acdf54d51f75fd4a4504381" target="_top" xlink:title=" ">
<polygon fill="white" stroke="black" points="19,-0.5 19,-30.5 150,-30.5 150,-0.5 19,-0.5"/>
<text text-anchor="start" x="27" y="-18.5" font-family="Helvetica,sans-Serif" font-size="10.00">CustomUI.Quiz.QuizEditor</text>
<text text-anchor="middle" x="84.5" y="-7.5" font-family="Helvetica,sans-Serif" font-size="10.00">UI.ToTestMode</text>
</a>
</g>
</g>
<!-- Node1&#45;&gt;Node23 -->
<g id="edge22" class="edge">
<title>Node1&#45;&gt;Node23</title>
<path fill="none" stroke="midnightblue" d="M277.71,-445.37C266.38,-362.56 226.53,-100.15 169,-40.5 163.64,-34.95 157.11,-30.61 150.07,-27.23"/>
<polygon fill="midnightblue" stroke="midnightblue" points="274.26,-445.96 279.06,-455.4 281.19,-445.02 274.26,-445.96"/>
</g>
</g>
</svg>
        <g id="navigator" transform="translate(0 0)" fill="#404254">
                <rect fill="#f2f5e9" fill-opacity="0.5" stroke="#606060" stroke-width=".5" x="0" y="0" width="60" height="60"/>
                <use id="zoomplus" xlink:href="#zoomPlus" x="17" y="9" onmousedown="handleZoom(evt,'in')"/>
                <use id="zoomminus" xlink:href="#zoomMin" x="42" y="9" onmousedown="handleZoom(evt,'out')"/>
                <use id="reset" xlink:href="#resetDef" x="30" y="36" onmousedown="handleReset()"/>
                <g id="arrowUp" xlink:href="#dirArrow" transform="translate(30 24)" onmousedown="handlePan(0,-1)">
                  <use xlink:href="#rim" fill="#404040">
                        <set attributeName="fill" to="#808080" begin="arrowUp.mouseover" end="arrowUp.mouseout"/>
                  </use>
                  <path fill="none" stroke="white" stroke-width="1.5" d="M0,-3.0v7 M-2.5,-0.5L0,-3.0L2.5,-0.5"/>
                </g>
                <g id="arrowRight" xlink:href="#dirArrow" transform="rotate(90) translate(36 -43)" onmousedown="handlePan(1,0)">
                  <use xlink:href="#rim" fill="#404040">
                        <set attributeName="fill" to="#808080" begin="arrowRight.mouseover" end="arrowRight.mouseout"/>
                  </use>
                  <path fill="none" stroke="white" stroke-width="1.5" d="M0,-3.0v7 M-2.5,-0.5L0,-3.0L2.5,-0.5"/>
                </g>
                <g id="arrowDown" xlink:href="#dirArrow" transform="rotate(180) translate(-30 -48)" onmousedown="handlePan(0,1)">
                  <use xlink:href="#rim" fill="#404040">
                        <set attributeName="fill" to="#808080" begin="arrowDown.mouseover" end="arrowDown.mouseout"/>
                  </use>
                  <path fill="none" stroke="white" stroke-width="1.5" d="M0,-3.0v7 M-2.5,-0.5L0,-3.0L2.5,-0.5"/>
                </g>
                <g id="arrowLeft" xlink:href="#dirArrow" transform="rotate(270) translate(-36 17)" onmousedown="handlePan(-1,0)">
                  <use xlink:href="#rim" fill="#404040">
                        <set attributeName="fill" to="#808080" begin="arrowLeft.mouseover" end="arrowLeft.mouseout"/>
                  </use>
                  <path fill="none" stroke="white" stroke-width="1.5" d="M0,-3.0v7 M-2.5,-0.5L0,-3.0L2.5,-0.5"/>
                </g>
        </g>
        <svg viewBox="0 0 15 15" width="100%" height="30px" preserveAspectRatio="xMaxYMin meet">
         <g id="arrow_out" transform="scale(0.3 0.3)">
          <a xlink:href="class_game_managers_1_1_global_transfer_a96550d206f25a2d8d89af6c365617a55_icgraph_org.svg" target="_base">
           <rect id="button" ry="5" rx="5" y="6" x="6" height="38" width="38"
                fill="#f2f5e9" fill-opacity="0.5" stroke="#606060" stroke-width="1.0"/>
           <path id="arrow"
             d="M 11.500037,31.436501 C 11.940474,20.09759 22.043105,11.32322 32.158766,21.979434 L 37.068811,17.246167 C 37.068811,17.246167 37.088388,32 37.088388,32 L 22.160133,31.978069 C 22.160133,31.978069 26.997745,27.140456 26.997745,27.140456 C 18.528582,18.264221 13.291696,25.230495 11.500037,31.436501 z"
             style="fill:#404040;"/>
          </a>
         </g>
        </svg>
</svg>
