<?xml version="1.0" encoding="UTF-8" standalone="no"?>
<!DOCTYPE svg PUBLIC "-//W3C//DTD SVG 1.1//EN"
 "http://www.w3.org/Graphics/SVG/1.1/DTD/svg11.dtd">
<!-- Generated by graphviz version 2.47.1 (20210417.1919)
 -->
<!-- Title: CustomUI.Quiz.VarLineUI.WhileInputFieldDrag Pages: 1 -->
<svg width="503pt" height="235pt"
 viewBox="0.00 0.00 503.00 235.00" xmlns="http://www.w3.org/2000/svg" xmlns:xlink="http://www.w3.org/1999/xlink">
<g id="graph0" class="graph" transform="scale(1 1) rotate(0) translate(4 231)">
<title>CustomUI.Quiz.VarLineUI.WhileInputFieldDrag</title>
<polygon fill="white" stroke="transparent" points="-4,4 -4,-231 499,-231 499,4 -4,4"/>
<!-- Node1 -->
<g id="node1" class="node">
<title>Node1</title>
<g id="a_node1"><a xlink:title=" ">
<polygon fill="#bfbfbf" stroke="black" points="0,-98.5 0,-128.5 131,-128.5 131,-98.5 0,-98.5"/>
<text text-anchor="start" x="8" y="-116.5" font-family="Helvetica,sans-Serif" font-size="10.00">CustomUI.Quiz.VarLineUI.</text>
<text text-anchor="middle" x="65.5" y="-105.5" font-family="Helvetica,sans-Serif" font-size="10.00">WhileInputFieldDrag</text>
</a>
</g>
</g>
<!-- Node2 -->
<g id="node2" class="node">
<title>Node2</title>
<g id="a_node2"><a xlink:href="class_custom_u_i_1_1_quiz_1_1_var_line_u_i.html#adfa12854be919178096c58aa61e50ff6" target="_top" xlink:title=" ">
<polygon fill="white" stroke="black" points="167,-98.5 167,-128.5 298,-128.5 298,-98.5 167,-98.5"/>
<text text-anchor="start" x="175" y="-116.5" font-family="Helvetica,sans-Serif" font-size="10.00">CustomUI.Quiz.VarLineUI.</text>
<text text-anchor="middle" x="232.5" y="-105.5" font-family="Helvetica,sans-Serif" font-size="10.00">OnEditEnd</text>
</a>
</g>
</g>
<!-- Node1&#45;&gt;Node2 -->
<g id="edge1" class="edge">
<title>Node1&#45;&gt;Node2</title>
<path fill="none" stroke="midnightblue" d="M131.24,-113.5C139.58,-113.5 148.18,-113.5 156.67,-113.5"/>
<polygon fill="midnightblue" stroke="midnightblue" points="156.95,-117 166.95,-113.5 156.95,-110 156.95,-117"/>
</g>
<!-- Node3 -->
<g id="node3" class="node">
<title>Node3</title>
<g id="a_node3"><a xlink:href="class_game_managers_1_1_game_manager.html#ab809f66044771ece537c01978381610f" target="_top" xlink:title="计算质量缩放">
<polygon fill="white" stroke="black" points="337,-196.5 337,-226.5 492,-226.5 492,-196.5 337,-196.5"/>
<text text-anchor="start" x="345" y="-214.5" font-family="Helvetica,sans-Serif" font-size="10.00">GameManagers.GameManager.</text>
<text text-anchor="middle" x="414.5" y="-203.5" font-family="Helvetica,sans-Serif" font-size="10.00">CalculateMassScales</text>
</a>
</g>
</g>
<!-- Node2&#45;&gt;Node3 -->
<g id="edge2" class="edge">
<title>Node2&#45;&gt;Node3</title>
<path fill="none" stroke="midnightblue" d="M250.1,-128.54C269.13,-145.07 301.83,-171.41 334,-187.5 337.77,-189.39 341.72,-191.16 345.75,-192.81"/>
<polygon fill="midnightblue" stroke="midnightblue" points="344.69,-196.15 355.28,-196.46 347.19,-189.61 344.69,-196.15"/>
</g>
<!-- Node4 -->
<g id="node4" class="node">
<title>Node4</title>
<g id="a_node4"><a xlink:href="class_space_physic_1_1_astral_body.html#a8c43caafe4f528c08feb450cba3c5cd7" target="_top" xlink:title="调整星球速度">
<polygon fill="white" stroke="black" points="334,-147.5 334,-177.5 495,-177.5 495,-147.5 334,-147.5"/>
<text text-anchor="start" x="342" y="-165.5" font-family="Helvetica,sans-Serif" font-size="10.00">SpacePhysic.AstralBody.Change</text>
<text text-anchor="middle" x="414.5" y="-154.5" font-family="Helvetica,sans-Serif" font-size="10.00">Velocity</text>
</a>
</g>
</g>
<!-- Node2&#45;&gt;Node4 -->
<g id="edge3" class="edge">
<title>Node2&#45;&gt;Node4</title>
<path fill="none" stroke="midnightblue" d="M288.97,-128.6C307.8,-133.73 328.99,-139.5 348.49,-144.8"/>
<polygon fill="midnightblue" stroke="midnightblue" points="347.64,-148.2 358.21,-147.45 349.48,-141.44 347.64,-148.2"/>
</g>
<!-- Node5 -->
<g id="node5" class="node">
<title>Node5</title>
<g id="a_node5"><a xlink:href="class_space_physic_1_1_astral_body.html#aedfd2eada72ec832dde5a2d3aea31583" target="_top" xlink:title="委屈位置">
<polygon fill="white" stroke="black" points="342.5,-98.5 342.5,-128.5 486.5,-128.5 486.5,-98.5 342.5,-98.5"/>
<text text-anchor="start" x="350.5" y="-116.5" font-family="Helvetica,sans-Serif" font-size="10.00">SpacePhysic.AstralBody.Get</text>
<text text-anchor="middle" x="414.5" y="-105.5" font-family="Helvetica,sans-Serif" font-size="10.00">Position</text>
</a>
</g>
</g>
<!-- Node2&#45;&gt;Node5 -->
<g id="edge4" class="edge">
<title>Node2&#45;&gt;Node5</title>
<path fill="none" stroke="midnightblue" d="M298.23,-113.5C309.19,-113.5 320.69,-113.5 332.01,-113.5"/>
<polygon fill="midnightblue" stroke="midnightblue" points="332.33,-117 342.33,-113.5 332.33,-110 332.33,-117"/>
</g>
<!-- Node6 -->
<g id="node6" class="node">
<title>Node6</title>
<g id="a_node6"><a xlink:href="class_space_physic_1_1_astral_body.html#a879cbf857765e818349e4069e7bd4064" target="_top" xlink:title="获取坐标">
<polygon fill="white" stroke="black" points="342.5,-49.5 342.5,-79.5 486.5,-79.5 486.5,-49.5 342.5,-49.5"/>
<text text-anchor="start" x="350.5" y="-67.5" font-family="Helvetica,sans-Serif" font-size="10.00">SpacePhysic.AstralBody.Get</text>
<text text-anchor="middle" x="414.5" y="-56.5" font-family="Helvetica,sans-Serif" font-size="10.00">Transform</text>
</a>
</g>
</g>
<!-- Node2&#45;&gt;Node6 -->
<g id="edge5" class="edge">
<title>Node2&#45;&gt;Node6</title>
<path fill="none" stroke="midnightblue" d="M288.97,-98.4C307.8,-93.27 328.99,-87.5 348.49,-82.2"/>
<polygon fill="midnightblue" stroke="midnightblue" points="349.48,-85.56 358.21,-79.55 347.64,-78.8 349.48,-85.56"/>
</g>
<!-- Node7 -->
<g id="node7" class="node">
<title>Node7</title>
<g id="a_node7"><a xlink:href="class_space_physic_1_1_astral_body.html#a49a47294cf00916a50c42a62cda119f0" target="_top" xlink:title=" ">
<polygon fill="white" stroke="black" points="342.5,-0.5 342.5,-30.5 486.5,-30.5 486.5,-0.5 342.5,-0.5"/>
<text text-anchor="start" x="350.5" y="-18.5" font-family="Helvetica,sans-Serif" font-size="10.00">SpacePhysic.AstralBody.Get</text>
<text text-anchor="middle" x="414.5" y="-7.5" font-family="Helvetica,sans-Serif" font-size="10.00">Velocity</text>
</a>
</g>
</g>
<!-- Node2&#45;&gt;Node7 -->
<g id="edge6" class="edge">
<title>Node2&#45;&gt;Node7</title>
<path fill="none" stroke="midnightblue" d="M250.52,-98.45C269.66,-82.2 302.22,-56.5 334,-40.5 338.49,-38.24 343.22,-36.13 348.05,-34.18"/>
<polygon fill="midnightblue" stroke="midnightblue" points="349.32,-37.44 357.42,-30.61 346.83,-30.9 349.32,-37.44"/>
</g>
</g>
</svg>
