<?xml version="1.0" encoding="UTF-8" standalone="no"?>
<!DOCTYPE svg PUBLIC "-//W3C//DTD SVG 1.1//EN"
 "http://www.w3.org/Graphics/SVG/1.1/DTD/svg11.dtd">
<!-- Generated by graphviz version 2.47.1 (20210417.1919)
 -->
<!-- Title: PostProcessing.KernelSizeParameter Pages: 1 -->
<svg width="144pt" height="182pt"
 viewBox="0.00 0.00 144.00 182.00" xmlns="http://www.w3.org/2000/svg" xmlns:xlink="http://www.w3.org/1999/xlink">
<g id="graph0" class="graph" transform="scale(1 1) rotate(0) translate(4 178)">
<title>PostProcessing.KernelSizeParameter</title>
<polygon fill="white" stroke="transparent" points="-4,4 -4,-178 140,-178 140,4 -4,4"/>
<!-- Node1 -->
<g id="node1" class="node">
<title>Node1</title>
<g id="a_node1"><a xlink:title="A volume parameter holding a KernelSize value.">
<polygon fill="#bfbfbf" stroke="black" points="0,-0.5 0,-68.5 136,-68.5 136,-0.5 0,-0.5"/>
<text text-anchor="start" x="8" y="-56.5" font-family="Helvetica,sans-Serif" font-size="10.00">PostProcessing.KernelSize</text>
<text text-anchor="middle" x="68" y="-45.5" font-family="Helvetica,sans-Serif" font-size="10.00">Parameter</text>
<polyline fill="none" stroke="black" points="0,-38.5 136,-38.5 "/>
<text text-anchor="middle" x="68" y="-26.5" font-family="Helvetica,sans-Serif" font-size="10.00"> </text>
<polyline fill="none" stroke="black" points="0,-19.5 136,-19.5 "/>
<text text-anchor="middle" x="68" y="-7.5" font-family="Helvetica,sans-Serif" font-size="10.00"> </text>
</a>
</g>
</g>
<!-- Node2 -->
<g id="node2" class="node">
<title>Node2</title>
<g id="a_node2"><a xlink:title=" ">
<polygon fill="white" stroke="#bfbfbf" points="16.5,-105.5 16.5,-173.5 119.5,-173.5 119.5,-105.5 16.5,-105.5"/>
<text text-anchor="start" x="24.5" y="-161.5" font-family="Helvetica,sans-Serif" font-size="10.00">ParameterOverride&lt;</text>
<text text-anchor="middle" x="68" y="-150.5" font-family="Helvetica,sans-Serif" font-size="10.00"> KernelSize &gt;</text>
<polyline fill="none" stroke="#bfbfbf" points="16.5,-143.5 119.5,-143.5 "/>
<text text-anchor="middle" x="68" y="-131.5" font-family="Helvetica,sans-Serif" font-size="10.00"> </text>
<polyline fill="none" stroke="#bfbfbf" points="16.5,-124.5 119.5,-124.5 "/>
<text text-anchor="middle" x="68" y="-112.5" font-family="Helvetica,sans-Serif" font-size="10.00"> </text>
</a>
</g>
</g>
<!-- Node2&#45;&gt;Node1 -->
<g id="edge1" class="edge">
<title>Node2&#45;&gt;Node1</title>
<path fill="none" stroke="midnightblue" d="M68,-95.14C68,-86.26 68,-77.04 68,-68.59"/>
<polygon fill="none" stroke="midnightblue" points="64.5,-95.34 68,-105.34 71.5,-95.34 64.5,-95.34"/>
</g>
</g>
</svg>
