<?xml version="1.0" encoding="UTF-8" standalone="no"?>
<!DOCTYPE svg PUBLIC "-//W3C//DTD SVG 1.1//EN"
 "http://www.w3.org/Graphics/SVG/1.1/DTD/svg11.dtd">
<!-- Generated by graphviz version 2.47.1 (20210417.1919)
 -->
<!-- Title: CustomUI.VectorUI Pages: 1 -->
<!--zoomable 893 -->
<svg id="main" version="1.1" xmlns="http://www.w3.org/2000/svg" xmlns:xlink="http://www.w3.org/1999/xlink" xml:space="preserve" onload="init(evt)">
<style type="text/css"><![CDATA[
.edge:hover path { stroke: red; }
.edge:hover polygon { stroke: red; fill: red; }
]]></style>
<script type="text/javascript"><![CDATA[
var edges = document.getElementsByTagName('g');
if (edges && edges.length) {
  for (var i=0;i<edges.length;i++) {
    if (edges[i].id.substr(0,4)=='edge') {
      edges[i].setAttribute('class','edge');
    }
  }
}
]]></script>
        <defs>
                <circle id="rim" cx="0" cy="0" r="7"/>
                <circle id="rim2" cx="0" cy="0" r="3.5"/>
                <g id="zoomPlus">
                        <use xlink:href="#rim" fill="#404040">
                                <set attributeName="fill" to="#808080" begin="zoomplus.mouseover" end="zoomplus.mouseout"/>
                        </use>
                        <path d="M-4,0h8M0,-4v8" fill="none" stroke="white" stroke-width="1.5" pointer-events="none"/>
                </g>
                <g id="zoomMin">
                        <use xlink:href="#rim" fill="#404040">
                                <set attributeName="fill" to="#808080" begin="zoomminus.mouseover" end="zoomminus.mouseout"/>
                        </use>
                        <path d="M-4,0h8" fill="none" stroke="white" stroke-width="1.5" pointer-events="none"/>
                </g>
                <g id="dirArrow">
                        <path fill="none" stroke="white" stroke-width="1.5" d="M0,-3.0v7 M-2.5,-0.5L0,-3.0L2.5,-0.5"/>
                </g>
               <g id="resetDef">
                       <use xlink:href="#rim2" fill="#404040">
                               <set attributeName="fill" to="#808080" begin="reset.mouseover" end="reset.mouseout"/>
                       </use>
               </g>
        </defs>

<script type="text/javascript">
var viewWidth = 292;
var viewHeight = 893;
var sectionId = 'dynsection-1';
</script>
<script xlink:href="svgpan.js"/>
<svg id="graph" class="graph">
<g id="viewport">
<title>CustomUI.VectorUI</title>
<polygon fill="white" stroke="transparent" points="-4,4 -4,-889 288,-889 288,4 -4,4"/>
<!-- Node1 -->
<g id="node1" class="node">
<title>Node1</title>
<g id="a_node1"><a xlink:title=" ">
<polygon fill="#bfbfbf" stroke="black" points="82.5,-0.5 82.5,-101.5 218.5,-101.5 218.5,-0.5 82.5,-0.5"/>
<text text-anchor="middle" x="150.5" y="-89.5" font-family="Helvetica,sans-Serif" font-size="10.00">CustomUI.VectorUI</text>
<polyline fill="none" stroke="black" points="82.5,-82.5 218.5,-82.5 "/>
<text text-anchor="start" x="90.5" y="-70.5" font-family="Helvetica,sans-Serif" font-size="10.00">+ string header</text>
<text text-anchor="start" x="90.5" y="-59.5" font-family="Helvetica,sans-Serif" font-size="10.00">+ float showSize</text>
<text text-anchor="start" x="90.5" y="-48.5" font-family="Helvetica,sans-Serif" font-size="10.00">+ vectorType thisType</text>
<text text-anchor="start" x="90.5" y="-37.5" font-family="Helvetica,sans-Serif" font-size="10.00">+ string unit</text>
<text text-anchor="start" x="90.5" y="-26.5" font-family="Helvetica,sans-Serif" font-size="10.00">+ LineRenderer vectorArrow</text>
<polyline fill="none" stroke="black" points="82.5,-19.5 218.5,-19.5 "/>
<text text-anchor="middle" x="150.5" y="-7.5" font-family="Helvetica,sans-Serif" font-size="10.00"> </text>
</a>
</g>
</g>
<!-- Node2 -->
<g id="node2" class="node">
<title>Node2</title>
<g id="a_node2"><a xlink:title=" ">
<polygon fill="white" stroke="#bfbfbf" points="0,-778 0,-835 83,-835 83,-778 0,-778"/>
<text text-anchor="middle" x="41.5" y="-823" font-family="Helvetica,sans-Serif" font-size="10.00">MonoBehaviour</text>
<polyline fill="none" stroke="#bfbfbf" points="0,-816 83,-816 "/>
<text text-anchor="middle" x="41.5" y="-804" font-family="Helvetica,sans-Serif" font-size="10.00"> </text>
<polyline fill="none" stroke="#bfbfbf" points="0,-797 83,-797 "/>
<text text-anchor="middle" x="41.5" y="-785" font-family="Helvetica,sans-Serif" font-size="10.00"> </text>
</a>
</g>
</g>
<!-- Node2&#45;&gt;Node1 -->
<g id="edge1" class="edge">
<title>Node2&#45;&gt;Node1</title>
<path fill="none" stroke="midnightblue" d="M33.74,-767.86C14.21,-664.31 -29.27,-368.35 60.5,-149 67.59,-131.67 79.29,-115.55 91.94,-101.61"/>
<polygon fill="none" stroke="midnightblue" points="30.33,-768.68 35.66,-777.83 37.21,-767.35 30.33,-768.68"/>
</g>
<!-- Node4 -->
<g id="node4" class="node">
<title>Node4</title>
<g id="a_node4"><a xlink:href="class_space_physic_1_1_astral_body.html" target="_top" xlink:title="星体物理实体">
<polygon fill="white" stroke="black" points="70,-149.5 70,-690.5 231,-690.5 231,-149.5 70,-149.5"/>
<text text-anchor="middle" x="150.5" y="-678.5" font-family="Helvetica,sans-Serif" font-size="10.00">SpacePhysic.AstralBody</text>
<polyline fill="none" stroke="black" points="70,-671.5 231,-671.5 "/>
<text text-anchor="start" x="78" y="-659.5" font-family="Helvetica,sans-Serif" font-size="10.00">+ List&lt; AstralBody &gt;</text>
<text text-anchor="start" x="78" y="-648.5" font-family="Helvetica,sans-Serif" font-size="10.00"> affectedPlanets</text>
<text text-anchor="start" x="78" y="-637.5" font-family="Helvetica,sans-Serif" font-size="10.00">+ float affectRadius</text>
<text text-anchor="start" x="78" y="-626.5" font-family="Helvetica,sans-Serif" font-size="10.00">+ Vector3 angularVelocity</text>
<text text-anchor="start" x="78" y="-615.5" font-family="Helvetica,sans-Serif" font-size="10.00">+ List&lt; AstralBody &gt;</text>
<text text-anchor="start" x="78" y="-604.5" font-family="Helvetica,sans-Serif" font-size="10.00"> banAffectedPlanets</text>
<text text-anchor="start" x="78" y="-593.5" font-family="Helvetica,sans-Serif" font-size="10.00">+ SphereCollider defaultCollider</text>
<text text-anchor="start" x="78" y="-582.5" font-family="Helvetica,sans-Serif" font-size="10.00">+ bool enableAffect</text>
<text text-anchor="start" x="78" y="-571.5" font-family="Helvetica,sans-Serif" font-size="10.00">+ bool enableTracing</text>
<text text-anchor="start" x="78" y="-560.5" font-family="Helvetica,sans-Serif" font-size="10.00">+ Vector3 oriVelocity</text>
<text text-anchor="start" x="78" y="-549.5" font-family="Helvetica,sans-Serif" font-size="10.00">+ SphereCollider triggerCollider</text>
<text text-anchor="start" x="78" y="-538.5" font-family="Helvetica,sans-Serif" font-size="10.00">+ UnityEvent&lt; Vector3</text>
<text text-anchor="start" x="78" y="-527.5" font-family="Helvetica,sans-Serif" font-size="10.00"> &gt; velocityChangedEvent</text>
<text text-anchor="start" x="78" y="-516.5" font-family="Helvetica,sans-Serif" font-size="10.00">+ float? Mass</text>
<text text-anchor="start" x="78" y="-505.5" font-family="Helvetica,sans-Serif" font-size="10.00">+ Rigidbody astralBodyRigidbody</text>
<text text-anchor="start" x="78" y="-494.5" font-family="Helvetica,sans-Serif" font-size="10.00">+ Vector3 Force</text>
<text text-anchor="start" x="78" y="-483.5" font-family="Helvetica,sans-Serif" font-size="10.00">+ float gravity</text>
<text text-anchor="start" x="78" y="-472.5" font-family="Helvetica,sans-Serif" font-size="10.00">+ int meshNum</text>
<text text-anchor="start" x="78" y="-461.5" font-family="Helvetica,sans-Serif" font-size="10.00">+ float size</text>
<text text-anchor="start" x="78" y="-450.5" font-family="Helvetica,sans-Serif" font-size="10.00">+ double realMass</text>
<text text-anchor="start" x="78" y="-439.5" font-family="Helvetica,sans-Serif" font-size="10.00">+ double density</text>
<text text-anchor="start" x="78" y="-428.5" font-family="Helvetica,sans-Serif" font-size="10.00">+ Vector3 lastVelocity</text>
<text text-anchor="start" x="78" y="-417.5" font-family="Helvetica,sans-Serif" font-size="10.00">+ bool isLoadDone</text>
<polyline fill="none" stroke="black" points="70,-410.5 231,-410.5 "/>
<text text-anchor="start" x="78" y="-398.5" font-family="Helvetica,sans-Serif" font-size="10.00">+ virtual void OnCollision</text>
<text text-anchor="start" x="78" y="-387.5" font-family="Helvetica,sans-Serif" font-size="10.00">Enter(Collision other)</text>
<text text-anchor="start" x="78" y="-376.5" font-family="Helvetica,sans-Serif" font-size="10.00">+ Transform GetTransform()</text>
<text text-anchor="start" x="78" y="-365.5" font-family="Helvetica,sans-Serif" font-size="10.00">+ Vector3 GetPosition()</text>
<text text-anchor="start" x="78" y="-354.5" font-family="Helvetica,sans-Serif" font-size="10.00">+ GameObject GetGameObject()</text>
<text text-anchor="start" x="78" y="-343.5" font-family="Helvetica,sans-Serif" font-size="10.00">+ bool GetEnableTracing()</text>
<text text-anchor="start" x="78" y="-332.5" font-family="Helvetica,sans-Serif" font-size="10.00">+ virtual float GetMass()</text>
<text text-anchor="start" x="78" y="-321.5" font-family="Helvetica,sans-Serif" font-size="10.00">+ Rigidbody GetRigidbody()</text>
<text text-anchor="start" x="78" y="-310.5" font-family="Helvetica,sans-Serif" font-size="10.00">+ Vector3 GetVelocity()</text>
<text text-anchor="start" x="78" y="-299.5" font-family="Helvetica,sans-Serif" font-size="10.00">+ List&lt; AstralBody &gt;</text>
<text text-anchor="start" x="78" y="-288.5" font-family="Helvetica,sans-Serif" font-size="10.00"> GetAffectedPlanets()</text>
<text text-anchor="start" x="78" y="-277.5" font-family="Helvetica,sans-Serif" font-size="10.00">+ AstralBody GetAstralBody()</text>
<text text-anchor="start" x="78" y="-266.5" font-family="Helvetica,sans-Serif" font-size="10.00">+ void ChangeVelocity</text>
<text text-anchor="start" x="78" y="-255.5" font-family="Helvetica,sans-Serif" font-size="10.00">(Vector3 velocity)</text>
<text text-anchor="start" x="78" y="-244.5" font-family="Helvetica,sans-Serif" font-size="10.00">+ void ChangeVelocity</text>
<text text-anchor="start" x="78" y="-233.5" font-family="Helvetica,sans-Serif" font-size="10.00">(double realSpeed)</text>
<text text-anchor="start" x="78" y="-222.5" font-family="Helvetica,sans-Serif" font-size="10.00">+ Vector3 CalculateForce()</text>
<text text-anchor="start" x="78" y="-211.5" font-family="Helvetica,sans-Serif" font-size="10.00">+ void SetCircleVelocity()</text>
<text text-anchor="start" x="78" y="-200.5" font-family="Helvetica,sans-Serif" font-size="10.00">+ void SetCircleVelocityMenu()</text>
<text text-anchor="start" x="78" y="-189.5" font-family="Helvetica,sans-Serif" font-size="10.00"># virtual void Start()</text>
<text text-anchor="start" x="78" y="-178.5" font-family="Helvetica,sans-Serif" font-size="10.00"># void Generate()</text>
<text text-anchor="start" x="78" y="-167.5" font-family="Helvetica,sans-Serif" font-size="10.00"># virtual void FixedUpdate()</text>
<text text-anchor="start" x="78" y="-156.5" font-family="Helvetica,sans-Serif" font-size="10.00"># virtual void SetMass()</text>
</a>
</g>
</g>
<!-- Node2&#45;&gt;Node4 -->
<g id="edge4" class="edge">
<title>Node2&#45;&gt;Node4</title>
<path fill="none" stroke="midnightblue" d="M52.09,-768.16C57.84,-747.85 65.53,-720.74 74.08,-690.59"/>
<polygon fill="none" stroke="midnightblue" points="48.7,-767.27 49.34,-777.85 55.43,-769.18 48.7,-767.27"/>
</g>
<!-- Node3 -->
<g id="node3" class="node">
<title>Node3</title>
<g id="a_node3"><a xlink:title=" ">
<polygon fill="white" stroke="#bfbfbf" points="249,-391.5 249,-448.5 284,-448.5 284,-391.5 249,-391.5"/>
<text text-anchor="middle" x="266.5" y="-436.5" font-family="Helvetica,sans-Serif" font-size="10.00">Text</text>
<polyline fill="none" stroke="#bfbfbf" points="249,-429.5 284,-429.5 "/>
<text text-anchor="middle" x="266.5" y="-417.5" font-family="Helvetica,sans-Serif" font-size="10.00"> </text>
<polyline fill="none" stroke="#bfbfbf" points="249,-410.5 284,-410.5 "/>
<text text-anchor="middle" x="266.5" y="-398.5" font-family="Helvetica,sans-Serif" font-size="10.00"> </text>
</a>
</g>
</g>
<!-- Node3&#45;&gt;Node1 -->
<g id="edge2" class="edge">
<title>Node3&#45;&gt;Node1</title>
<path fill="none" stroke="#404040" d="M269.45,-391.49C273.68,-340.97 277.34,-231.05 240.5,-149 234.41,-135.44 225.65,-122.54 215.96,-110.83"/>
<polygon fill="none" stroke="#404040" points="215.9,-110.76 208.94,-108.85 208.02,-101.7 214.98,-103.6 215.9,-110.76"/>
<text text-anchor="middle" x="256.5" y="-123" font-family="Helvetica,sans-Serif" font-size="10.00"> +vectorText</text>
</g>
<!-- Node4&#45;&gt;Node1 -->
<g id="edge3" class="edge">
<title>Node4&#45;&gt;Node1</title>
<path fill="none" stroke="#404040" d="M150.5,-149.39C150.5,-136.77 150.5,-124.85 150.5,-113.97"/>
<polygon fill="none" stroke="#404040" points="150.5,-113.7 146.5,-107.7 150.5,-101.7 154.5,-107.7 150.5,-113.7"/>
<text text-anchor="middle" x="178.5" y="-123" font-family="Helvetica,sans-Serif" font-size="10.00"> +astralBody</text>
</g>
<!-- Node5 -->
<g id="node5" class="node">
<title>Node5</title>
<g id="a_node5"><a xlink:href="interface_space_physic_1_1_i_traceable.html" target="_top" xlink:title="可追踪接口">
<polygon fill="white" stroke="black" points="101.5,-728.5 101.5,-884.5 261.5,-884.5 261.5,-728.5 101.5,-728.5"/>
<text text-anchor="middle" x="181.5" y="-872.5" font-family="Helvetica,sans-Serif" font-size="10.00">ITraceable</text>
<polyline fill="none" stroke="black" points="101.5,-865.5 261.5,-865.5 "/>
<text text-anchor="middle" x="181.5" y="-853.5" font-family="Helvetica,sans-Serif" font-size="10.00"> </text>
<polyline fill="none" stroke="black" points="101.5,-846.5 261.5,-846.5 "/>
<text text-anchor="start" x="109.5" y="-834.5" font-family="Helvetica,sans-Serif" font-size="10.00">+ Transform GetTransform()</text>
<text text-anchor="start" x="109.5" y="-823.5" font-family="Helvetica,sans-Serif" font-size="10.00">+ Vector3 GetPosition()</text>
<text text-anchor="start" x="109.5" y="-812.5" font-family="Helvetica,sans-Serif" font-size="10.00">+ GameObject GetGameObject()</text>
<text text-anchor="start" x="109.5" y="-801.5" font-family="Helvetica,sans-Serif" font-size="10.00">+ bool GetEnableTracing()</text>
<text text-anchor="start" x="109.5" y="-790.5" font-family="Helvetica,sans-Serif" font-size="10.00">+ float GetMass()</text>
<text text-anchor="start" x="109.5" y="-779.5" font-family="Helvetica,sans-Serif" font-size="10.00">+ Rigidbody GetRigidbody()</text>
<text text-anchor="start" x="109.5" y="-768.5" font-family="Helvetica,sans-Serif" font-size="10.00">+ Vector3 GetVelocity()</text>
<text text-anchor="start" x="109.5" y="-757.5" font-family="Helvetica,sans-Serif" font-size="10.00">+ List&lt; AstralBody &gt;</text>
<text text-anchor="start" x="109.5" y="-746.5" font-family="Helvetica,sans-Serif" font-size="10.00"> GetAffectedPlanets()</text>
<text text-anchor="start" x="109.5" y="-735.5" font-family="Helvetica,sans-Serif" font-size="10.00">+ AstralBody GetAstralBody()</text>
</a>
</g>
</g>
<!-- Node5&#45;&gt;Node4 -->
<g id="edge5" class="edge">
<title>Node5&#45;&gt;Node4</title>
<path fill="none" stroke="midnightblue" d="M174.45,-718.05C173.74,-709.27 173,-700.07 172.23,-690.57"/>
<polygon fill="none" stroke="midnightblue" points="170.97,-718.47 175.26,-728.15 177.95,-717.9 170.97,-718.47"/>
</g>
</g>
</svg>
        <g id="navigator" transform="translate(0 0)" fill="#404254">
                <rect fill="#f2f5e9" fill-opacity="0.5" stroke="#606060" stroke-width=".5" x="0" y="0" width="60" height="60"/>
                <use id="zoomplus" xlink:href="#zoomPlus" x="17" y="9" onmousedown="handleZoom(evt,'in')"/>
                <use id="zoomminus" xlink:href="#zoomMin" x="42" y="9" onmousedown="handleZoom(evt,'out')"/>
                <use id="reset" xlink:href="#resetDef" x="30" y="36" onmousedown="handleReset()"/>
                <g id="arrowUp" xlink:href="#dirArrow" transform="translate(30 24)" onmousedown="handlePan(0,-1)">
                  <use xlink:href="#rim" fill="#404040">
                        <set attributeName="fill" to="#808080" begin="arrowUp.mouseover" end="arrowUp.mouseout"/>
                  </use>
                  <path fill="none" stroke="white" stroke-width="1.5" d="M0,-3.0v7 M-2.5,-0.5L0,-3.0L2.5,-0.5"/>
                </g>
                <g id="arrowRight" xlink:href="#dirArrow" transform="rotate(90) translate(36 -43)" onmousedown="handlePan(1,0)">
                  <use xlink:href="#rim" fill="#404040">
                        <set attributeName="fill" to="#808080" begin="arrowRight.mouseover" end="arrowRight.mouseout"/>
                  </use>
                  <path fill="none" stroke="white" stroke-width="1.5" d="M0,-3.0v7 M-2.5,-0.5L0,-3.0L2.5,-0.5"/>
                </g>
                <g id="arrowDown" xlink:href="#dirArrow" transform="rotate(180) translate(-30 -48)" onmousedown="handlePan(0,1)">
                  <use xlink:href="#rim" fill="#404040">
                        <set attributeName="fill" to="#808080" begin="arrowDown.mouseover" end="arrowDown.mouseout"/>
                  </use>
                  <path fill="none" stroke="white" stroke-width="1.5" d="M0,-3.0v7 M-2.5,-0.5L0,-3.0L2.5,-0.5"/>
                </g>
                <g id="arrowLeft" xlink:href="#dirArrow" transform="rotate(270) translate(-36 17)" onmousedown="handlePan(-1,0)">
                  <use xlink:href="#rim" fill="#404040">
                        <set attributeName="fill" to="#808080" begin="arrowLeft.mouseover" end="arrowLeft.mouseout"/>
                  </use>
                  <path fill="none" stroke="white" stroke-width="1.5" d="M0,-3.0v7 M-2.5,-0.5L0,-3.0L2.5,-0.5"/>
                </g>
        </g>
        <svg viewBox="0 0 15 15" width="100%" height="30px" preserveAspectRatio="xMaxYMin meet">
         <g id="arrow_out" transform="scale(0.3 0.3)">
          <a xlink:href="class_custom_u_i_1_1_vector_u_i__coll__graph_org.svg" target="_base">
           <rect id="button" ry="5" rx="5" y="6" x="6" height="38" width="38"
                fill="#f2f5e9" fill-opacity="0.5" stroke="#606060" stroke-width="1.0"/>
           <path id="arrow"
             d="M 11.500037,31.436501 C 11.940474,20.09759 22.043105,11.32322 32.158766,21.979434 L 37.068811,17.246167 C 37.068811,17.246167 37.088388,32 37.088388,32 L 22.160133,31.978069 C 22.160133,31.978069 26.997745,27.140456 26.997745,27.140456 C 18.528582,18.264221 13.291696,25.230495 11.500037,31.436501 z"
             style="fill:#404040;"/>
          </a>
         </g>
        </svg>
</svg>
