<?xml version="1.0" encoding="UTF-8" standalone="no"?>
<!DOCTYPE svg PUBLIC "-//W3C//DTD SVG 1.1//EN"
 "http://www.w3.org/Graphics/SVG/1.1/DTD/svg11.dtd">
<!-- Generated by graphviz version 2.47.1 (20210417.1919)
 -->
<!-- Title: SpacePhysic.AstralBody.ChangeVelocity Pages: 1 -->
<svg width="561pt" height="214pt"
 viewBox="0.00 0.00 561.00 213.50" xmlns="http://www.w3.org/2000/svg" xmlns:xlink="http://www.w3.org/1999/xlink">
<g id="graph0" class="graph" transform="scale(1 1) rotate(0) translate(4 209.5)">
<title>SpacePhysic.AstralBody.ChangeVelocity</title>
<polygon fill="white" stroke="transparent" points="-4,4 -4,-209.5 557,-209.5 557,4 -4,4"/>
<!-- Node1 -->
<g id="node1" class="node">
<title>Node1</title>
<g id="a_node1"><a xlink:title="调整星球速度">
<polygon fill="#bfbfbf" stroke="black" points="392,-73.5 392,-103.5 553,-103.5 553,-73.5 392,-73.5"/>
<text text-anchor="start" x="400" y="-91.5" font-family="Helvetica,sans-Serif" font-size="10.00">SpacePhysic.AstralBody.Change</text>
<text text-anchor="middle" x="472.5" y="-80.5" font-family="Helvetica,sans-Serif" font-size="10.00">Velocity</text>
</a>
</g>
</g>
<!-- Node2 -->
<g id="node2" class="node">
<title>Node2</title>
<g id="a_node2"><a xlink:href="class_space_physic_1_1_astral_body.html#a5c1d5bbbcd247e49603f2d702f9118b0" target="_top" xlink:title=" ">
<polygon fill="white" stroke="black" points="188,-148 188,-167 356,-167 356,-148 188,-148"/>
<text text-anchor="middle" x="272" y="-155" font-family="Helvetica,sans-Serif" font-size="10.00">SpacePhysic.AstralBody.Generate</text>
</a>
</g>
</g>
<!-- Node1&#45;&gt;Node2 -->
<g id="edge1" class="edge">
<title>Node1&#45;&gt;Node2</title>
<path fill="none" stroke="midnightblue" d="M431.42,-108.01C409.51,-118.12 381.68,-130.08 356,-138.5 345.04,-142.09 333.06,-145.26 321.69,-147.93"/>
<polygon fill="midnightblue" stroke="midnightblue" points="433.15,-111.07 440.73,-103.66 430.19,-104.73 433.15,-111.07"/>
</g>
<!-- Node5 -->
<g id="node5" class="node">
<title>Node5</title>
<g id="a_node5"><a xlink:href="class_custom_u_i_1_1_quiz_1_1_var_line_u_i.html#adfa12854be919178096c58aa61e50ff6" target="_top" xlink:title=" ">
<polygon fill="white" stroke="black" points="206.5,-98.5 206.5,-128.5 337.5,-128.5 337.5,-98.5 206.5,-98.5"/>
<text text-anchor="start" x="214.5" y="-116.5" font-family="Helvetica,sans-Serif" font-size="10.00">CustomUI.Quiz.VarLineUI.</text>
<text text-anchor="middle" x="272" y="-105.5" font-family="Helvetica,sans-Serif" font-size="10.00">OnEditEnd</text>
</a>
</g>
</g>
<!-- Node1&#45;&gt;Node5 -->
<g id="edge4" class="edge">
<title>Node1&#45;&gt;Node5</title>
<path fill="none" stroke="midnightblue" d="M381.7,-99.81C366.86,-101.68 351.74,-103.58 337.67,-105.35"/>
<polygon fill="midnightblue" stroke="midnightblue" points="382.42,-103.25 391.91,-98.52 381.55,-96.3 382.42,-103.25"/>
</g>
<!-- Node7 -->
<g id="node7" class="node">
<title>Node7</title>
<g id="a_node7"><a xlink:href="class_space_physic_1_1_astral_body.html#a3b5424b4233b532ccb0252d526c013ea" target="_top" xlink:title="设置环绕速度">
<polygon fill="white" stroke="black" points="200.5,-49.5 200.5,-79.5 343.5,-79.5 343.5,-49.5 200.5,-49.5"/>
<text text-anchor="start" x="208.5" y="-67.5" font-family="Helvetica,sans-Serif" font-size="10.00">SpacePhysic.AstralBody.Set</text>
<text text-anchor="middle" x="272" y="-56.5" font-family="Helvetica,sans-Serif" font-size="10.00">CircleVelocity</text>
</a>
</g>
</g>
<!-- Node1&#45;&gt;Node7 -->
<g id="edge6" class="edge">
<title>Node1&#45;&gt;Node7</title>
<path fill="none" stroke="midnightblue" d="M381.73,-77.65C368.96,-76.1 355.98,-74.53 343.64,-73.04"/>
<polygon fill="midnightblue" stroke="midnightblue" points="381.56,-81.15 391.91,-78.88 382.4,-74.2 381.56,-81.15"/>
</g>
<!-- Node9 -->
<g id="node9" class="node">
<title>Node9</title>
<g id="a_node9"><a xlink:href="class_satellite_1_1_satellite_engine.html#abe746f09fff6ac3d0577c2c40e9fabb2" target="_top" xlink:title=" ">
<polygon fill="white" stroke="black" points="210.5,-0.5 210.5,-30.5 333.5,-30.5 333.5,-0.5 210.5,-0.5"/>
<text text-anchor="start" x="218.5" y="-18.5" font-family="Helvetica,sans-Serif" font-size="10.00">Satellite.SatelliteEngine.</text>
<text text-anchor="middle" x="272" y="-7.5" font-family="Helvetica,sans-Serif" font-size="10.00">SetCurDirVelocity</text>
</a>
</g>
</g>
<!-- Node1&#45;&gt;Node9 -->
<g id="edge8" class="edge">
<title>Node1&#45;&gt;Node9</title>
<path fill="none" stroke="midnightblue" d="M429.31,-69.17C407.64,-59.6 380.67,-48.27 356,-39.5 347.24,-36.39 337.85,-33.37 328.66,-30.59"/>
<polygon fill="midnightblue" stroke="midnightblue" points="428,-72.41 438.56,-73.28 430.84,-66.02 428,-72.41"/>
</g>
<!-- Node3 -->
<g id="node3" class="node">
<title>Node3</title>
<g id="a_node3"><a xlink:href="class_quiz_1_1_quiz_astral_body.html#a5c4a08f896e60482463982c87c812143" target="_top" xlink:title=" ">
<polygon fill="white" stroke="black" points="10,-186 10,-205 142,-205 142,-186 10,-186"/>
<text text-anchor="middle" x="76" y="-193" font-family="Helvetica,sans-Serif" font-size="10.00">Quiz.QuizAstralBody.Start</text>
</a>
</g>
</g>
<!-- Node2&#45;&gt;Node3 -->
<g id="edge2" class="edge">
<title>Node2&#45;&gt;Node3</title>
<path fill="none" stroke="midnightblue" d="M212.09,-169.04C184.42,-174.46 151.84,-180.84 125.6,-185.98"/>
<polygon fill="midnightblue" stroke="midnightblue" points="212.9,-172.45 222.05,-167.09 211.56,-165.58 212.9,-172.45"/>
</g>
<!-- Node4 -->
<g id="node4" class="node">
<title>Node4</title>
<g id="a_node4"><a xlink:href="class_space_physic_1_1_astral_body.html#af558a0166f9d5bfad6fd918b3656aef0" target="_top" xlink:title=" ">
<polygon fill="white" stroke="black" points="1.5,-148 1.5,-167 150.5,-167 150.5,-148 1.5,-148"/>
<text text-anchor="middle" x="76" y="-155" font-family="Helvetica,sans-Serif" font-size="10.00">SpacePhysic.AstralBody.Start</text>
</a>
</g>
</g>
<!-- Node2&#45;&gt;Node4 -->
<g id="edge3" class="edge">
<title>Node2&#45;&gt;Node4</title>
<path fill="none" stroke="midnightblue" d="M177.71,-157.5C168.66,-157.5 159.58,-157.5 150.76,-157.5"/>
<polygon fill="midnightblue" stroke="midnightblue" points="177.88,-161 187.88,-157.5 177.88,-154 177.88,-161"/>
</g>
<!-- Node6 -->
<g id="node6" class="node">
<title>Node6</title>
<g id="a_node6"><a xlink:href="class_custom_u_i_1_1_quiz_1_1_var_line_u_i.html#aac47d0852e69724a11cc6c9979eeda9a" target="_top" xlink:title=" ">
<polygon fill="white" stroke="black" points="10.5,-98.5 10.5,-128.5 141.5,-128.5 141.5,-98.5 10.5,-98.5"/>
<text text-anchor="start" x="18.5" y="-116.5" font-family="Helvetica,sans-Serif" font-size="10.00">CustomUI.Quiz.VarLineUI.</text>
<text text-anchor="middle" x="76" y="-105.5" font-family="Helvetica,sans-Serif" font-size="10.00">WhileInputFieldDrag</text>
</a>
</g>
</g>
<!-- Node5&#45;&gt;Node6 -->
<g id="edge5" class="edge">
<title>Node5&#45;&gt;Node6</title>
<path fill="none" stroke="midnightblue" d="M196.24,-113.5C178.23,-113.5 159.15,-113.5 141.65,-113.5"/>
<polygon fill="midnightblue" stroke="midnightblue" points="196.4,-117 206.4,-113.5 196.4,-110 196.4,-117"/>
</g>
<!-- Node8 -->
<g id="node8" class="node">
<title>Node8</title>
<g id="a_node8"><a xlink:href="class_custom_u_i_1_1_astral_body_editor_1_1_astral_body_editor_u_i.html#ae725dd8edcb3a54922e3aa289b7ddccf" target="_top" xlink:title=" ">
<polygon fill="white" stroke="black" points="0,-38 0,-79 152,-79 152,-38 0,-38"/>
<text text-anchor="start" x="8" y="-67" font-family="Helvetica,sans-Serif" font-size="10.00">CustomUI.AstralBodyEditor.</text>
<text text-anchor="start" x="8" y="-56" font-family="Helvetica,sans-Serif" font-size="10.00">AstralBodyEditorUI.SetVelocity</text>
<text text-anchor="middle" x="76" y="-45" font-family="Helvetica,sans-Serif" font-size="10.00">InCircle</text>
</a>
</g>
</g>
<!-- Node7&#45;&gt;Node8 -->
<g id="edge7" class="edge">
<title>Node7&#45;&gt;Node8</title>
<path fill="none" stroke="midnightblue" d="M190.36,-62.01C177.69,-61.61 164.64,-61.21 152.11,-60.82"/>
<polygon fill="midnightblue" stroke="midnightblue" points="190.31,-65.51 200.41,-62.32 190.53,-58.51 190.31,-65.51"/>
</g>
</g>
</svg>
