<?xml version="1.0" encoding="UTF-8" standalone="no"?>
<!DOCTYPE svg PUBLIC "-//W3C//DTD SVG 1.1//EN"
 "http://www.w3.org/Graphics/SVG/1.1/DTD/svg11.dtd">
<!-- Generated by graphviz version 2.47.1 (20210417.1919)
 -->
<!-- Title: CustomUI.Lab.LabSceneLineUI Pages: 1 -->
<svg width="315pt" height="469pt"
 viewBox="0.00 0.00 314.50 469.00" xmlns="http://www.w3.org/2000/svg" xmlns:xlink="http://www.w3.org/1999/xlink">
<g id="graph0" class="graph" transform="scale(1 1) rotate(0) translate(4 465)">
<title>CustomUI.Lab.LabSceneLineUI</title>
<polygon fill="white" stroke="transparent" points="-4,4 -4,-465 310.5,-465 310.5,4 -4,4"/>
<!-- Node1 -->
<g id="node1" class="node">
<title>Node1</title>
<g id="a_node1"><a xlink:title=" ">
<polygon fill="#bfbfbf" stroke="black" points="95.5,-138.5 95.5,-195.5 247.5,-195.5 247.5,-138.5 95.5,-138.5"/>
<text text-anchor="middle" x="171.5" y="-183.5" font-family="Helvetica,sans-Serif" font-size="10.00">CustomUI.Lab.LabSceneLineUI</text>
<polyline fill="none" stroke="black" points="95.5,-176.5 247.5,-176.5 "/>
<text text-anchor="start" x="103.5" y="-164.5" font-family="Helvetica,sans-Serif" font-size="10.00">+ string name</text>
<polyline fill="none" stroke="black" points="95.5,-157.5 247.5,-157.5 "/>
<text text-anchor="start" x="103.5" y="-145.5" font-family="Helvetica,sans-Serif" font-size="10.00">+ void OnClick()</text>
</a>
</g>
</g>
<!-- Node5 -->
<g id="node5" class="node">
<title>Node5</title>
<g id="a_node5"><a xlink:href="class_custom_u_i_1_1_lab_1_1_lab_scene_list_u_i.html" target="_top" xlink:title=" ">
<polygon fill="white" stroke="black" points="0,-0.5 0,-90.5 149,-90.5 149,-0.5 0,-0.5"/>
<text text-anchor="middle" x="74.5" y="-78.5" font-family="Helvetica,sans-Serif" font-size="10.00">CustomUI.Lab.LabSceneListUI</text>
<polyline fill="none" stroke="black" points="0,-71.5 149,-71.5 "/>
<text text-anchor="start" x="8" y="-59.5" font-family="Helvetica,sans-Serif" font-size="10.00">+ RectTransform content</text>
<text text-anchor="start" x="8" y="-48.5" font-family="Helvetica,sans-Serif" font-size="10.00">+ float offset</text>
<text text-anchor="start" x="8" y="-37.5" font-family="Helvetica,sans-Serif" font-size="10.00">+ List&lt; LabSceneLineUI</text>
<text text-anchor="start" x="8" y="-26.5" font-family="Helvetica,sans-Serif" font-size="10.00"> &gt; scenesLineUis</text>
<polyline fill="none" stroke="black" points="0,-19.5 149,-19.5 "/>
<text text-anchor="middle" x="74.5" y="-7.5" font-family="Helvetica,sans-Serif" font-size="10.00"> </text>
</a>
</g>
</g>
<!-- Node1&#45;&gt;Node5 -->
<g id="edge6" class="edge">
<title>Node1&#45;&gt;Node5</title>
<path fill="none" stroke="#404040" d="M164.61,-138.46C161.33,-128.6 156.73,-117.77 150.5,-109 148.22,-105.8 145.74,-102.67 143.11,-99.62"/>
<polygon fill="none" stroke="#404040" points="143.02,-99.51 136,-97.86 134.83,-90.74 141.85,-92.4 143.02,-99.51"/>
<text text-anchor="middle" x="182.5" y="-112" font-family="Helvetica,sans-Serif" font-size="10.00"> +linePrefab</text>
</g>
<!-- Node2 -->
<g id="node2" class="node">
<title>Node2</title>
<g id="a_node2"><a xlink:title=" ">
<polygon fill="white" stroke="#bfbfbf" points="0,-260 0,-317 83,-317 83,-260 0,-260"/>
<text text-anchor="middle" x="41.5" y="-305" font-family="Helvetica,sans-Serif" font-size="10.00">MonoBehaviour</text>
<polyline fill="none" stroke="#bfbfbf" points="0,-298 83,-298 "/>
<text text-anchor="middle" x="41.5" y="-286" font-family="Helvetica,sans-Serif" font-size="10.00"> </text>
<polyline fill="none" stroke="#bfbfbf" points="0,-279 83,-279 "/>
<text text-anchor="middle" x="41.5" y="-267" font-family="Helvetica,sans-Serif" font-size="10.00"> </text>
</a>
</g>
</g>
<!-- Node2&#45;&gt;Node1 -->
<g id="edge1" class="edge">
<title>Node2&#45;&gt;Node1</title>
<path fill="none" stroke="midnightblue" d="M79.03,-253C98.88,-234.75 122.92,-212.66 141.51,-195.57"/>
<polygon fill="none" stroke="midnightblue" points="76.64,-250.44 71.65,-259.78 81.38,-255.59 76.64,-250.44"/>
</g>
<!-- Node2&#45;&gt;Node5 -->
<g id="edge5" class="edge">
<title>Node2&#45;&gt;Node5</title>
<path fill="none" stroke="midnightblue" d="M46.67,-249.77C52.57,-206.64 62.23,-136.12 68.47,-90.51"/>
<polygon fill="none" stroke="midnightblue" points="43.17,-249.47 45.29,-259.85 50.11,-250.42 43.17,-249.47"/>
</g>
<!-- Node3 -->
<g id="node3" class="node">
<title>Node3</title>
<g id="a_node3"><a xlink:href="class_xml_saver_1_1_scene_base_struct.html" target="_top" xlink:title=" ">
<polygon fill="white" stroke="black" points="101.5,-243.5 101.5,-333.5 241.5,-333.5 241.5,-243.5 101.5,-243.5"/>
<text text-anchor="start" x="109.5" y="-321.5" font-family="Helvetica,sans-Serif" font-size="10.00">XmlSaver.SceneBaseStruct</text>
<text text-anchor="middle" x="171.5" y="-310.5" font-family="Helvetica,sans-Serif" font-size="10.00">&lt; AstralBody &gt;</text>
<polyline fill="none" stroke="black" points="101.5,-303.5 241.5,-303.5 "/>
<text text-anchor="start" x="109.5" y="-291.5" font-family="Helvetica,sans-Serif" font-size="10.00">+ string sceneName</text>
<text text-anchor="start" x="109.5" y="-280.5" font-family="Helvetica,sans-Serif" font-size="10.00">+ List&lt; AstralBodyDataDict</text>
<text text-anchor="start" x="109.5" y="-269.5" font-family="Helvetica,sans-Serif" font-size="10.00">&lt; T &gt; &gt; astralBodyStructList</text>
<polyline fill="none" stroke="black" points="101.5,-262.5 241.5,-262.5 "/>
<text text-anchor="middle" x="171.5" y="-250.5" font-family="Helvetica,sans-Serif" font-size="10.00"> </text>
</a>
</g>
</g>
<!-- Node3&#45;&gt;Node1 -->
<g id="edge2" class="edge">
<title>Node3&#45;&gt;Node1</title>
<path fill="none" stroke="#404040" d="M171.5,-243.34C171.5,-231.75 171.5,-219.31 171.5,-207.95"/>
<polygon fill="none" stroke="#404040" points="171.5,-207.69 167.5,-201.69 171.5,-195.69 175.5,-201.69 171.5,-207.69"/>
<text text-anchor="middle" x="202.5" y="-217" font-family="Helvetica,sans-Serif" font-size="10.00"> +sceneStruct</text>
</g>
<!-- Node4 -->
<g id="node4" class="node">
<title>Node4</title>
<g id="a_node4"><a xlink:href="class_xml_saver_1_1_scene_base_struct.html" target="_top" xlink:title="场景信息存储">
<polygon fill="white" stroke="black" points="92,-381.5 92,-460.5 251,-460.5 251,-381.5 92,-381.5"/>
<text text-anchor="middle" x="171.5" y="-448.5" font-family="Helvetica,sans-Serif" font-size="10.00">XmlSaver.SceneBaseStruct&lt; T &gt;</text>
<polyline fill="none" stroke="black" points="92,-441.5 251,-441.5 "/>
<text text-anchor="start" x="100" y="-429.5" font-family="Helvetica,sans-Serif" font-size="10.00">+ string sceneName</text>
<text text-anchor="start" x="100" y="-418.5" font-family="Helvetica,sans-Serif" font-size="10.00">+ List&lt; AstralBodyDataDict</text>
<text text-anchor="start" x="100" y="-407.5" font-family="Helvetica,sans-Serif" font-size="10.00">&lt; T &gt; &gt; astralBodyStructList</text>
<polyline fill="none" stroke="black" points="92,-400.5 251,-400.5 "/>
<text text-anchor="middle" x="171.5" y="-388.5" font-family="Helvetica,sans-Serif" font-size="10.00"> </text>
</a>
</g>
</g>
<!-- Node4&#45;&gt;Node3 -->
<g id="edge3" class="edge">
<title>Node4&#45;&gt;Node3</title>
<path fill="none" stroke="orange" d="M171.5,-371.16C171.5,-358.93 171.5,-345.88 171.5,-333.88"/>
<polygon fill="orange" stroke="orange" points="168,-371.2 171.5,-381.2 175,-371.2 168,-371.2"/>
<text text-anchor="middle" x="206.5" y="-355" font-family="Helvetica,sans-Serif" font-size="10.00"> &lt; AstralBody &gt;</text>
</g>
<!-- Node5&#45;&gt;Node1 -->
<g id="edge4" class="edge">
<title>Node5&#45;&gt;Node1</title>
<path fill="none" stroke="#404040" d="M67.47,-90.76C67.84,-100.99 70,-111.4 75.5,-120 78.36,-124.47 81.78,-128.51 85.6,-132.17"/>
<polygon fill="none" stroke="#404040" points="85.9,-132.42 93.08,-133.13 95.18,-140.03 88,-139.31 85.9,-132.42"/>
<text text-anchor="middle" x="113" y="-112" font-family="Helvetica,sans-Serif" font-size="10.00"> +labSceneListUI</text>
</g>
<!-- Node6 -->
<g id="node6" class="node">
<title>Node6</title>
<g id="a_node6"><a xlink:title=" ">
<polygon fill="white" stroke="#bfbfbf" points="260,-260 260,-317 295,-317 295,-260 260,-260"/>
<text text-anchor="middle" x="277.5" y="-305" font-family="Helvetica,sans-Serif" font-size="10.00">Text</text>
<polyline fill="none" stroke="#bfbfbf" points="260,-298 295,-298 "/>
<text text-anchor="middle" x="277.5" y="-286" font-family="Helvetica,sans-Serif" font-size="10.00"> </text>
<polyline fill="none" stroke="#bfbfbf" points="260,-279 295,-279 "/>
<text text-anchor="middle" x="277.5" y="-267" font-family="Helvetica,sans-Serif" font-size="10.00"> </text>
</a>
</g>
</g>
<!-- Node6&#45;&gt;Node1 -->
<g id="edge7" class="edge">
<title>Node6&#45;&gt;Node1</title>
<path fill="none" stroke="#404040" d="M266.15,-259.73C259.28,-245.08 249.52,-227.42 237.5,-214 234.15,-210.25 230.43,-206.65 226.52,-203.23"/>
<polygon fill="none" stroke="#404040" points="226.43,-203.15 219.25,-202.47 217.13,-195.57 224.3,-196.26 226.43,-203.15"/>
<text text-anchor="middle" x="276" y="-217" font-family="Helvetica,sans-Serif" font-size="10.00"> +sceneName</text>
</g>
</g>
</svg>
