<?xml version="1.0" encoding="UTF-8" standalone="no"?>
<!DOCTYPE svg PUBLIC "-//W3C//DTD SVG 1.1//EN"
 "http://www.w3.org/Graphics/SVG/1.1/DTD/svg11.dtd">
<!-- Generated by graphviz version 2.47.1 (20210417.1919)
 -->
<!-- Title: CustomUI.Quiz.QuizLineUI Pages: 1 -->
<!--zoomable 597 -->
<svg id="main" version="1.1" xmlns="http://www.w3.org/2000/svg" xmlns:xlink="http://www.w3.org/1999/xlink" xml:space="preserve" onload="init(evt)">
<style type="text/css"><![CDATA[
.edge:hover path { stroke: red; }
.edge:hover polygon { stroke: red; fill: red; }
]]></style>
<script type="text/javascript"><![CDATA[
var edges = document.getElementsByTagName('g');
if (edges && edges.length) {
  for (var i=0;i<edges.length;i++) {
    if (edges[i].id.substr(0,4)=='edge') {
      edges[i].setAttribute('class','edge');
    }
  }
}
]]></script>
        <defs>
                <circle id="rim" cx="0" cy="0" r="7"/>
                <circle id="rim2" cx="0" cy="0" r="3.5"/>
                <g id="zoomPlus">
                        <use xlink:href="#rim" fill="#404040">
                                <set attributeName="fill" to="#808080" begin="zoomplus.mouseover" end="zoomplus.mouseout"/>
                        </use>
                        <path d="M-4,0h8M0,-4v8" fill="none" stroke="white" stroke-width="1.5" pointer-events="none"/>
                </g>
                <g id="zoomMin">
                        <use xlink:href="#rim" fill="#404040">
                                <set attributeName="fill" to="#808080" begin="zoomminus.mouseover" end="zoomminus.mouseout"/>
                        </use>
                        <path d="M-4,0h8" fill="none" stroke="white" stroke-width="1.5" pointer-events="none"/>
                </g>
                <g id="dirArrow">
                        <path fill="none" stroke="white" stroke-width="1.5" d="M0,-3.0v7 M-2.5,-0.5L0,-3.0L2.5,-0.5"/>
                </g>
               <g id="resetDef">
                       <use xlink:href="#rim2" fill="#404040">
                               <set attributeName="fill" to="#808080" begin="reset.mouseover" end="reset.mouseout"/>
                       </use>
               </g>
        </defs>

<script type="text/javascript">
var viewWidth = 311;
var viewHeight = 597;
var sectionId = 'dynsection-1';
</script>
<script xlink:href="svgpan.js"/>
<svg id="graph" class="graph">
<g id="viewport">
<title>CustomUI.Quiz.QuizLineUI</title>
<polygon fill="white" stroke="transparent" points="-4,4 -4,-593 306.5,-593 306.5,4 -4,4"/>
<!-- Node1 -->
<g id="node1" class="node">
<title>Node1</title>
<g id="a_node1"><a xlink:title=" ">
<polygon fill="#bfbfbf" stroke="black" points="61,-149.5 61,-217.5 194,-217.5 194,-149.5 61,-149.5"/>
<text text-anchor="middle" x="127.5" y="-205.5" font-family="Helvetica,sans-Serif" font-size="10.00">CustomUI.Quiz.QuizLineUI</text>
<polyline fill="none" stroke="black" points="61,-198.5 194,-198.5 "/>
<text text-anchor="start" x="69" y="-186.5" font-family="Helvetica,sans-Serif" font-size="10.00">+ string name</text>
<polyline fill="none" stroke="black" points="61,-179.5 194,-179.5 "/>
<text text-anchor="start" x="69" y="-167.5" font-family="Helvetica,sans-Serif" font-size="10.00">+ void OnClick()</text>
<text text-anchor="start" x="69" y="-156.5" font-family="Helvetica,sans-Serif" font-size="10.00">+ void Delete()</text>
</a>
</g>
</g>
<!-- Node4 -->
<g id="node4" class="node">
<title>Node4</title>
<g id="a_node4"><a xlink:href="class_custom_u_i_1_1_quiz_1_1_quiz_list_u_i.html" target="_top" xlink:title=" ">
<polygon fill="white" stroke="black" points="0,-0.5 0,-101.5 131,-101.5 131,-0.5 0,-0.5"/>
<text text-anchor="middle" x="65.5" y="-89.5" font-family="Helvetica,sans-Serif" font-size="10.00">CustomUI.Quiz.QuizListUI</text>
<polyline fill="none" stroke="black" points="0,-82.5 131,-82.5 "/>
<text text-anchor="start" x="8" y="-70.5" font-family="Helvetica,sans-Serif" font-size="10.00">+ RectTransform content</text>
<text text-anchor="start" x="8" y="-59.5" font-family="Helvetica,sans-Serif" font-size="10.00">+ float offset</text>
<text text-anchor="start" x="8" y="-48.5" font-family="Helvetica,sans-Serif" font-size="10.00">+ List&lt; QuizLineUI &gt;</text>
<text text-anchor="start" x="8" y="-37.5" font-family="Helvetica,sans-Serif" font-size="10.00"> quizLineUis</text>
<polyline fill="none" stroke="black" points="0,-30.5 131,-30.5 "/>
<text text-anchor="start" x="8" y="-18.5" font-family="Helvetica,sans-Serif" font-size="10.00">+ void DeleteQuiz(string</text>
<text text-anchor="start" x="8" y="-7.5" font-family="Helvetica,sans-Serif" font-size="10.00"> quizName)</text>
</a>
</g>
</g>
<!-- Node1&#45;&gt;Node4 -->
<g id="edge5" class="edge">
<title>Node1&#45;&gt;Node4</title>
<path fill="none" stroke="#404040" d="M125.93,-149.19C124.63,-139.5 122.37,-129.08 118.5,-120 117.39,-117.39 116.15,-114.78 114.81,-112.21"/>
<polygon fill="none" stroke="#404040" points="114.8,-112.19 108.33,-109 108.79,-101.81 115.25,-105 114.8,-112.19"/>
<text text-anchor="middle" x="148.5" y="-123" font-family="Helvetica,sans-Serif" font-size="10.00"> +linePrefab</text>
</g>
<!-- Node2 -->
<g id="node2" class="node">
<title>Node2</title>
<g id="a_node2"><a xlink:title=" ">
<polygon fill="white" stroke="#bfbfbf" points="0,-276.5 0,-333.5 83,-333.5 83,-276.5 0,-276.5"/>
<text text-anchor="middle" x="41.5" y="-321.5" font-family="Helvetica,sans-Serif" font-size="10.00">MonoBehaviour</text>
<polyline fill="none" stroke="#bfbfbf" points="0,-314.5 83,-314.5 "/>
<text text-anchor="middle" x="41.5" y="-302.5" font-family="Helvetica,sans-Serif" font-size="10.00"> </text>
<polyline fill="none" stroke="#bfbfbf" points="0,-295.5 83,-295.5 "/>
<text text-anchor="middle" x="41.5" y="-283.5" font-family="Helvetica,sans-Serif" font-size="10.00"> </text>
</a>
</g>
</g>
<!-- Node2&#45;&gt;Node1 -->
<g id="edge1" class="edge">
<title>Node2&#45;&gt;Node1</title>
<path fill="none" stroke="midnightblue" d="M67.6,-267.73C79.09,-251.77 92.48,-233.16 103.69,-217.59"/>
<polygon fill="none" stroke="midnightblue" points="64.45,-266.12 61.45,-276.28 70.13,-270.21 64.45,-266.12"/>
</g>
<!-- Node2&#45;&gt;Node4 -->
<g id="edge4" class="edge">
<title>Node2&#45;&gt;Node4</title>
<path fill="none" stroke="midnightblue" d="M43.11,-266.15C44.64,-234.72 47.34,-188.88 51.5,-149 53.11,-133.6 55.34,-116.89 57.55,-101.75"/>
<polygon fill="none" stroke="midnightblue" points="39.61,-266.07 42.63,-276.23 46.6,-266.4 39.61,-266.07"/>
</g>
<!-- Node3 -->
<g id="node3" class="node">
<title>Node3</title>
<g id="a_node3"><a xlink:title=" ">
<polygon fill="white" stroke="#bfbfbf" points="105,-276.5 105,-333.5 140,-333.5 140,-276.5 105,-276.5"/>
<text text-anchor="middle" x="122.5" y="-321.5" font-family="Helvetica,sans-Serif" font-size="10.00">Text</text>
<polyline fill="none" stroke="#bfbfbf" points="105,-314.5 140,-314.5 "/>
<text text-anchor="middle" x="122.5" y="-302.5" font-family="Helvetica,sans-Serif" font-size="10.00"> </text>
<polyline fill="none" stroke="#bfbfbf" points="105,-295.5 140,-295.5 "/>
<text text-anchor="middle" x="122.5" y="-283.5" font-family="Helvetica,sans-Serif" font-size="10.00"> </text>
</a>
</g>
</g>
<!-- Node3&#45;&gt;Node1 -->
<g id="edge2" class="edge">
<title>Node3&#45;&gt;Node1</title>
<path fill="none" stroke="#404040" d="M123.66,-276.28C124.24,-262.47 124.95,-245.4 125.61,-229.75"/>
<polygon fill="none" stroke="#404040" points="125.61,-229.58 121.87,-223.42 126.12,-217.59 129.86,-223.75 125.61,-229.58"/>
<text text-anchor="middle" x="152" y="-250" font-family="Helvetica,sans-Serif" font-size="10.00"> +quizName</text>
<text text-anchor="middle" x="152" y="-239" font-family="Helvetica,sans-Serif" font-size="10.00">+quizType</text>
</g>
<!-- Node4&#45;&gt;Node1 -->
<g id="edge3" class="edge">
<title>Node4&#45;&gt;Node1</title>
<path fill="none" stroke="#404040" d="M59.75,-101.51C60.31,-111.63 62.22,-121.95 66.5,-131 67.92,-134.01 69.61,-136.91 71.51,-139.69"/>
<polygon fill="none" stroke="#404040" points="71.66,-139.88 78.54,-142.06 79.18,-149.24 72.3,-147.06 71.66,-139.88"/>
<text text-anchor="middle" x="92.5" y="-123" font-family="Helvetica,sans-Serif" font-size="10.00"> +quizListUI</text>
</g>
<!-- Node5 -->
<g id="node5" class="node">
<title>Node5</title>
<g id="a_node5"><a xlink:href="class_quiz_1_1_quiz_base_struct.html" target="_top" xlink:title="问题信息存储">
<polygon fill="white" stroke="black" points="158,-276.5 158,-333.5 267,-333.5 267,-276.5 158,-276.5"/>
<text text-anchor="middle" x="212.5" y="-321.5" font-family="Helvetica,sans-Serif" font-size="10.00">Quiz.QuizBaseStruct</text>
<polyline fill="none" stroke="black" points="158,-314.5 267,-314.5 "/>
<text text-anchor="start" x="166" y="-302.5" font-family="Helvetica,sans-Serif" font-size="10.00">+ QuizType quizType</text>
<polyline fill="none" stroke="black" points="158,-295.5 267,-295.5 "/>
<text text-anchor="middle" x="212.5" y="-283.5" font-family="Helvetica,sans-Serif" font-size="10.00"> </text>
</a>
</g>
</g>
<!-- Node5&#45;&gt;Node1 -->
<g id="edge6" class="edge">
<title>Node5&#45;&gt;Node1</title>
<path fill="none" stroke="#404040" d="M203.17,-276.19C198.13,-263.32 191.16,-248.21 182.5,-236 180.23,-232.8 177.74,-229.64 175.1,-226.56"/>
<polygon fill="none" stroke="#404040" points="174.98,-226.42 167.98,-224.71 166.87,-217.58 173.87,-219.3 174.98,-226.42"/>
<text text-anchor="middle" x="221.5" y="-244.5" font-family="Helvetica,sans-Serif" font-size="10.00"> +quizStruct</text>
</g>
<!-- Node6 -->
<g id="node6" class="node">
<title>Node6</title>
<g id="a_node6"><a xlink:href="class_xml_saver_1_1_scene_base_struct.html" target="_top" xlink:title=" ">
<polygon fill="white" stroke="black" points="138.5,-371.5 138.5,-461.5 286.5,-461.5 286.5,-371.5 138.5,-371.5"/>
<text text-anchor="start" x="146.5" y="-449.5" font-family="Helvetica,sans-Serif" font-size="10.00">SceneBaseStruct&lt; QuizAstral</text>
<text text-anchor="middle" x="212.5" y="-438.5" font-family="Helvetica,sans-Serif" font-size="10.00">Body &gt;</text>
<polyline fill="none" stroke="black" points="138.5,-431.5 286.5,-431.5 "/>
<text text-anchor="start" x="146.5" y="-419.5" font-family="Helvetica,sans-Serif" font-size="10.00">+ string sceneName</text>
<text text-anchor="start" x="146.5" y="-408.5" font-family="Helvetica,sans-Serif" font-size="10.00">+ List&lt; AstralBodyDataDict</text>
<text text-anchor="start" x="146.5" y="-397.5" font-family="Helvetica,sans-Serif" font-size="10.00">&lt; T &gt; &gt; astralBodyStructList</text>
<polyline fill="none" stroke="black" points="138.5,-390.5 286.5,-390.5 "/>
<text text-anchor="middle" x="212.5" y="-378.5" font-family="Helvetica,sans-Serif" font-size="10.00"> </text>
</a>
</g>
</g>
<!-- Node6&#45;&gt;Node5 -->
<g id="edge7" class="edge">
<title>Node6&#45;&gt;Node5</title>
<path fill="none" stroke="midnightblue" d="M212.5,-361.04C212.5,-351.56 212.5,-342.06 212.5,-333.69"/>
<polygon fill="none" stroke="midnightblue" points="209,-361.28 212.5,-371.28 216,-361.28 209,-361.28"/>
</g>
<!-- Node7 -->
<g id="node7" class="node">
<title>Node7</title>
<g id="a_node7"><a xlink:href="class_xml_saver_1_1_scene_base_struct.html" target="_top" xlink:title="场景信息存储">
<polygon fill="white" stroke="black" points="133,-509.5 133,-588.5 292,-588.5 292,-509.5 133,-509.5"/>
<text text-anchor="middle" x="212.5" y="-576.5" font-family="Helvetica,sans-Serif" font-size="10.00">XmlSaver.SceneBaseStruct&lt; T &gt;</text>
<polyline fill="none" stroke="black" points="133,-569.5 292,-569.5 "/>
<text text-anchor="start" x="141" y="-557.5" font-family="Helvetica,sans-Serif" font-size="10.00">+ string sceneName</text>
<text text-anchor="start" x="141" y="-546.5" font-family="Helvetica,sans-Serif" font-size="10.00">+ List&lt; AstralBodyDataDict</text>
<text text-anchor="start" x="141" y="-535.5" font-family="Helvetica,sans-Serif" font-size="10.00">&lt; T &gt; &gt; astralBodyStructList</text>
<polyline fill="none" stroke="black" points="133,-528.5 292,-528.5 "/>
<text text-anchor="middle" x="212.5" y="-516.5" font-family="Helvetica,sans-Serif" font-size="10.00"> </text>
</a>
</g>
</g>
<!-- Node7&#45;&gt;Node6 -->
<g id="edge8" class="edge">
<title>Node7&#45;&gt;Node6</title>
<path fill="none" stroke="orange" d="M212.5,-499.16C212.5,-486.93 212.5,-473.88 212.5,-461.88"/>
<polygon fill="orange" stroke="orange" points="209,-499.2 212.5,-509.2 216,-499.2 209,-499.2"/>
<text text-anchor="middle" x="257.5" y="-483" font-family="Helvetica,sans-Serif" font-size="10.00"> &lt; QuizAstralBody &gt;</text>
</g>
</g>
</svg>
        <g id="navigator" transform="translate(0 0)" fill="#404254">
                <rect fill="#f2f5e9" fill-opacity="0.5" stroke="#606060" stroke-width=".5" x="0" y="0" width="60" height="60"/>
                <use id="zoomplus" xlink:href="#zoomPlus" x="17" y="9" onmousedown="handleZoom(evt,'in')"/>
                <use id="zoomminus" xlink:href="#zoomMin" x="42" y="9" onmousedown="handleZoom(evt,'out')"/>
                <use id="reset" xlink:href="#resetDef" x="30" y="36" onmousedown="handleReset()"/>
                <g id="arrowUp" xlink:href="#dirArrow" transform="translate(30 24)" onmousedown="handlePan(0,-1)">
                  <use xlink:href="#rim" fill="#404040">
                        <set attributeName="fill" to="#808080" begin="arrowUp.mouseover" end="arrowUp.mouseout"/>
                  </use>
                  <path fill="none" stroke="white" stroke-width="1.5" d="M0,-3.0v7 M-2.5,-0.5L0,-3.0L2.5,-0.5"/>
                </g>
                <g id="arrowRight" xlink:href="#dirArrow" transform="rotate(90) translate(36 -43)" onmousedown="handlePan(1,0)">
                  <use xlink:href="#rim" fill="#404040">
                        <set attributeName="fill" to="#808080" begin="arrowRight.mouseover" end="arrowRight.mouseout"/>
                  </use>
                  <path fill="none" stroke="white" stroke-width="1.5" d="M0,-3.0v7 M-2.5,-0.5L0,-3.0L2.5,-0.5"/>
                </g>
                <g id="arrowDown" xlink:href="#dirArrow" transform="rotate(180) translate(-30 -48)" onmousedown="handlePan(0,1)">
                  <use xlink:href="#rim" fill="#404040">
                        <set attributeName="fill" to="#808080" begin="arrowDown.mouseover" end="arrowDown.mouseout"/>
                  </use>
                  <path fill="none" stroke="white" stroke-width="1.5" d="M0,-3.0v7 M-2.5,-0.5L0,-3.0L2.5,-0.5"/>
                </g>
                <g id="arrowLeft" xlink:href="#dirArrow" transform="rotate(270) translate(-36 17)" onmousedown="handlePan(-1,0)">
                  <use xlink:href="#rim" fill="#404040">
                        <set attributeName="fill" to="#808080" begin="arrowLeft.mouseover" end="arrowLeft.mouseout"/>
                  </use>
                  <path fill="none" stroke="white" stroke-width="1.5" d="M0,-3.0v7 M-2.5,-0.5L0,-3.0L2.5,-0.5"/>
                </g>
        </g>
        <svg viewBox="0 0 15 15" width="100%" height="30px" preserveAspectRatio="xMaxYMin meet">
         <g id="arrow_out" transform="scale(0.3 0.3)">
          <a xlink:href="class_custom_u_i_1_1_quiz_1_1_quiz_line_u_i__coll__graph_org.svg" target="_base">
           <rect id="button" ry="5" rx="5" y="6" x="6" height="38" width="38"
                fill="#f2f5e9" fill-opacity="0.5" stroke="#606060" stroke-width="1.0"/>
           <path id="arrow"
             d="M 11.500037,31.436501 C 11.940474,20.09759 22.043105,11.32322 32.158766,21.979434 L 37.068811,17.246167 C 37.068811,17.246167 37.088388,32 37.088388,32 L 22.160133,31.978069 C 22.160133,31.978069 26.997745,27.140456 26.997745,27.140456 C 18.528582,18.264221 13.291696,25.230495 11.500037,31.436501 z"
             style="fill:#404040;"/>
          </a>
         </g>
        </svg>
</svg>
