<?xml version="1.0" encoding="UTF-8" standalone="no"?>
<!DOCTYPE svg PUBLIC "-//W3C//DTD SVG 1.1//EN"
 "http://www.w3.org/Graphics/SVG/1.1/DTD/svg11.dtd">
<!-- Generated by graphviz version 2.47.1 (20210417.1919)
 -->
<!-- Title: CustomCamera.CameraLayerMixer Pages: 1 -->
<svg width="462pt" height="719pt"
 viewBox="0.00 0.00 462.00 719.00" xmlns="http://www.w3.org/2000/svg" xmlns:xlink="http://www.w3.org/1999/xlink">
<g id="graph0" class="graph" transform="scale(1 1) rotate(0) translate(4 715)">
<title>CustomCamera.CameraLayerMixer</title>
<polygon fill="white" stroke="transparent" points="-4,4 -4,-715 458,-715 458,4 -4,4"/>
<!-- Node1 -->
<g id="node1" class="node">
<title>Node1</title>
<g id="a_node1"><a xlink:title="相机图像混合">
<polygon fill="#bfbfbf" stroke="black" points="57,-0.5 57,-101.5 229,-101.5 229,-0.5 57,-0.5"/>
<text text-anchor="start" x="65" y="-89.5" font-family="Helvetica,sans-Serif" font-size="10.00">CustomCamera.CameraLayer</text>
<text text-anchor="middle" x="143" y="-78.5" font-family="Helvetica,sans-Serif" font-size="10.00">Mixer</text>
<polyline fill="none" stroke="black" points="57,-71.5 229,-71.5 "/>
<text text-anchor="start" x="65" y="-59.5" font-family="Helvetica,sans-Serif" font-size="10.00">+ bool enableLayer0</text>
<text text-anchor="start" x="65" y="-48.5" font-family="Helvetica,sans-Serif" font-size="10.00">+ bool enableLayer1</text>
<text text-anchor="start" x="65" y="-37.5" font-family="Helvetica,sans-Serif" font-size="10.00">+ Shader mixShader</text>
<text text-anchor="start" x="65" y="-26.5" font-family="Helvetica,sans-Serif" font-size="10.00">+ Material MixMaterial</text>
<polyline fill="none" stroke="black" points="57,-19.5 229,-19.5 "/>
<text text-anchor="start" x="65" y="-7.5" font-family="Helvetica,sans-Serif" font-size="10.00">+ RenderTexture GetRenderResult()</text>
</a>
</g>
</g>
<!-- Node2 -->
<g id="node2" class="node">
<title>Node2</title>
<g id="a_node2"><a xlink:href="class_custom_post_processing_1_1_custom_post_processing_base.html" target="_top" xlink:title="自定义后处理">
<polygon fill="white" stroke="black" points="0,-536.5 0,-615.5 142,-615.5 142,-536.5 0,-536.5"/>
<text text-anchor="middle" x="71" y="-603.5" font-family="Helvetica,sans-Serif" font-size="10.00">CustomPostProcessingBase</text>
<polyline fill="none" stroke="black" points="0,-596.5 142,-596.5 "/>
<text text-anchor="start" x="8" y="-584.5" font-family="Helvetica,sans-Serif" font-size="10.00">+ Camera mainCamera</text>
<polyline fill="none" stroke="black" points="0,-577.5 142,-577.5 "/>
<text text-anchor="start" x="8" y="-565.5" font-family="Helvetica,sans-Serif" font-size="10.00"># Material GenerateMaterial</text>
<text text-anchor="start" x="8" y="-554.5" font-family="Helvetica,sans-Serif" font-size="10.00">(Shader shader, ref Material</text>
<text text-anchor="start" x="8" y="-543.5" font-family="Helvetica,sans-Serif" font-size="10.00"> targetMaterial)</text>
</a>
</g>
</g>
<!-- Node2&#45;&gt;Node1 -->
<g id="edge1" class="edge">
<title>Node2&#45;&gt;Node1</title>
<path fill="none" stroke="midnightblue" d="M55.39,-526.48C31.97,-445.01 -4.27,-277.07 48,-149 55.13,-131.54 67.07,-115.52 80.14,-101.75"/>
<polygon fill="none" stroke="midnightblue" points="52.14,-527.84 58.32,-536.45 58.86,-525.86 52.14,-527.84"/>
</g>
<!-- Node6 -->
<g id="node6" class="node">
<title>Node6</title>
<g id="a_node6"><a xlink:href="class_custom_post_processing_1_1_camera_mixer.html" target="_top" xlink:title="相机输出混合">
<polygon fill="white" stroke="black" points="57,-149.5 57,-272.5 229,-272.5 229,-149.5 57,-149.5"/>
<text text-anchor="start" x="65" y="-260.5" font-family="Helvetica,sans-Serif" font-size="10.00">CustomPostProcessing.Camera</text>
<text text-anchor="middle" x="143" y="-249.5" font-family="Helvetica,sans-Serif" font-size="10.00">Mixer</text>
<polyline fill="none" stroke="black" points="57,-242.5 229,-242.5 "/>
<text text-anchor="start" x="65" y="-230.5" font-family="Helvetica,sans-Serif" font-size="10.00">+ Material mixMaterial</text>
<text text-anchor="start" x="65" y="-219.5" font-family="Helvetica,sans-Serif" font-size="10.00">+ RenderTexture renderResultRT</text>
<text text-anchor="start" x="65" y="-208.5" font-family="Helvetica,sans-Serif" font-size="10.00">+ Color edgeColor</text>
<text text-anchor="start" x="65" y="-197.5" font-family="Helvetica,sans-Serif" font-size="10.00">+ Shader mixShader</text>
<text text-anchor="start" x="65" y="-186.5" font-family="Helvetica,sans-Serif" font-size="10.00">+ RenderTexture renderTexture</text>
<text text-anchor="start" x="65" y="-175.5" font-family="Helvetica,sans-Serif" font-size="10.00">+ Material MixMaterial</text>
<polyline fill="none" stroke="black" points="57,-168.5 229,-168.5 "/>
<text text-anchor="start" x="65" y="-156.5" font-family="Helvetica,sans-Serif" font-size="10.00">+ RenderTexture GetRenderResult()</text>
</a>
</g>
</g>
<!-- Node2&#45;&gt;Node6 -->
<g id="edge7" class="edge">
<title>Node2&#45;&gt;Node6</title>
<path fill="none" stroke="midnightblue" d="M66.78,-526.12C63.78,-474 63.22,-389.54 83,-320 87.58,-303.91 94.93,-287.6 102.95,-272.69"/>
<polygon fill="none" stroke="midnightblue" points="63.29,-526.34 67.41,-536.1 70.28,-525.9 63.29,-526.34"/>
</g>
<!-- Node7 -->
<g id="node7" class="node">
<title>Node7</title>
<g id="a_node7"><a xlink:href="class_custom_post_processing_1_1_outline_catcher.html" target="_top" xlink:title="描边抓取">
<polygon fill="white" stroke="black" points="92,-320.5 92,-498.5 264,-498.5 264,-320.5 92,-320.5"/>
<text text-anchor="start" x="100" y="-486.5" font-family="Helvetica,sans-Serif" font-size="10.00">CustomPostProcessing.Outline</text>
<text text-anchor="middle" x="178" y="-475.5" font-family="Helvetica,sans-Serif" font-size="10.00">Catcher</text>
<polyline fill="none" stroke="black" points="92,-468.5 264,-468.5 "/>
<text text-anchor="start" x="100" y="-456.5" font-family="Helvetica,sans-Serif" font-size="10.00">+ Color backgroundColor</text>
<text text-anchor="start" x="100" y="-445.5" font-family="Helvetica,sans-Serif" font-size="10.00">+ Color edgeColor</text>
<text text-anchor="start" x="100" y="-434.5" font-family="Helvetica,sans-Serif" font-size="10.00">+ float edgeOnly</text>
<text text-anchor="start" x="100" y="-423.5" font-family="Helvetica,sans-Serif" font-size="10.00">+ float edgeSize</text>
<text text-anchor="start" x="100" y="-412.5" font-family="Helvetica,sans-Serif" font-size="10.00">+ Camera outlineCamera</text>
<text text-anchor="start" x="100" y="-401.5" font-family="Helvetica,sans-Serif" font-size="10.00">+ Shader outlineShader</text>
<text text-anchor="start" x="100" y="-390.5" font-family="Helvetica,sans-Serif" font-size="10.00">+ Material outlineMaterial</text>
<polyline fill="none" stroke="black" points="92,-383.5 264,-383.5 "/>
<text text-anchor="start" x="100" y="-371.5" font-family="Helvetica,sans-Serif" font-size="10.00">+ RenderTexture GetRenderResult()</text>
<text text-anchor="start" x="100" y="-360.5" font-family="Helvetica,sans-Serif" font-size="10.00">+ void AddTarget(GameObject</text>
<text text-anchor="start" x="100" y="-349.5" font-family="Helvetica,sans-Serif" font-size="10.00"> target)</text>
<text text-anchor="start" x="100" y="-338.5" font-family="Helvetica,sans-Serif" font-size="10.00">+ void RemoveTarget(GameObject</text>
<text text-anchor="start" x="100" y="-327.5" font-family="Helvetica,sans-Serif" font-size="10.00"> target)</text>
</a>
</g>
</g>
<!-- Node2&#45;&gt;Node7 -->
<g id="edge9" class="edge">
<title>Node2&#45;&gt;Node7</title>
<path fill="none" stroke="midnightblue" d="M101.69,-527.82C107.69,-518.59 114.17,-508.63 120.73,-498.55"/>
<polygon fill="none" stroke="midnightblue" points="98.61,-526.14 96.09,-536.43 104.47,-529.96 98.61,-526.14"/>
</g>
<!-- Node3 -->
<g id="node3" class="node">
<title>Node3</title>
<g id="a_node3"><a xlink:title=" ">
<polygon fill="white" stroke="#bfbfbf" points="179.5,-653.5 179.5,-710.5 262.5,-710.5 262.5,-653.5 179.5,-653.5"/>
<text text-anchor="middle" x="221" y="-698.5" font-family="Helvetica,sans-Serif" font-size="10.00">MonoBehaviour</text>
<polyline fill="none" stroke="#bfbfbf" points="179.5,-691.5 262.5,-691.5 "/>
<text text-anchor="middle" x="221" y="-679.5" font-family="Helvetica,sans-Serif" font-size="10.00"> </text>
<polyline fill="none" stroke="#bfbfbf" points="179.5,-672.5 262.5,-672.5 "/>
<text text-anchor="middle" x="221" y="-660.5" font-family="Helvetica,sans-Serif" font-size="10.00"> </text>
</a>
</g>
</g>
<!-- Node3&#45;&gt;Node2 -->
<g id="edge2" class="edge">
<title>Node3&#45;&gt;Node2</title>
<path fill="none" stroke="midnightblue" d="M172.77,-647.56C158.12,-637.41 141.91,-626.16 126.8,-615.69"/>
<polygon fill="none" stroke="midnightblue" points="170.98,-650.58 181.2,-653.4 174.97,-644.83 170.98,-650.58"/>
</g>
<!-- Node4 -->
<g id="node4" class="node">
<title>Node4</title>
<g id="a_node4"><a xlink:href="class_custom_camera_1_1_layer_camera.html" target="_top" xlink:title="层级相机管理">
<polygon fill="white" stroke="black" points="282,-381 282,-438 454,-438 454,-381 282,-381"/>
<text text-anchor="middle" x="368" y="-426" font-family="Helvetica,sans-Serif" font-size="10.00">CustomCamera.LayerCamera</text>
<polyline fill="none" stroke="black" points="282,-419 454,-419 "/>
<text text-anchor="start" x="290" y="-407" font-family="Helvetica,sans-Serif" font-size="10.00">+ RenderTexture renderResultRT</text>
<polyline fill="none" stroke="black" points="282,-400 454,-400 "/>
<text text-anchor="start" x="290" y="-388" font-family="Helvetica,sans-Serif" font-size="10.00">+ RenderTexture GetRenderResult()</text>
</a>
</g>
</g>
<!-- Node3&#45;&gt;Node4 -->
<g id="edge4" class="edge">
<title>Node3&#45;&gt;Node4</title>
<path fill="none" stroke="midnightblue" d="M272.53,-666.75C298.51,-656.83 328.03,-640.82 345,-616 381.98,-561.92 377.92,-480.51 372.55,-438.22"/>
<polygon fill="none" stroke="midnightblue" points="271,-663.58 262.78,-670.26 273.37,-670.16 271,-663.58"/>
</g>
<!-- Node4&#45;&gt;Node1 -->
<g id="edge3" class="edge">
<title>Node4&#45;&gt;Node1</title>
<path fill="none" stroke="#404040" d="M356.8,-380.76C336.51,-331.92 290.82,-228.24 238,-149 228.56,-134.84 224.67,-132.39 213,-120 209.98,-116.79 206.84,-113.53 203.65,-110.26"/>
<polygon fill="none" stroke="#404040" points="203.56,-110.16 196.49,-108.71 195.12,-101.63 202.18,-103.08 203.56,-110.16"/>
<text text-anchor="middle" x="339" y="-208.5" font-family="Helvetica,sans-Serif" font-size="10.00"> +layerCamera</text>
</g>
<!-- Node5 -->
<g id="node5" class="node">
<title>Node5</title>
<g id="a_node5"><a xlink:href="interface_custom_post_processing_1_1_i_render_tex_outer.html" target="_top" xlink:title="RenderTexture输出接口">
<polygon fill="white" stroke="black" points="164,-547.5 164,-604.5 336,-604.5 336,-547.5 164,-547.5"/>
<text text-anchor="middle" x="250" y="-592.5" font-family="Helvetica,sans-Serif" font-size="10.00">IRenderTexOuter</text>
<polyline fill="none" stroke="black" points="164,-585.5 336,-585.5 "/>
<text text-anchor="middle" x="250" y="-573.5" font-family="Helvetica,sans-Serif" font-size="10.00"> </text>
<polyline fill="none" stroke="black" points="164,-566.5 336,-566.5 "/>
<text text-anchor="start" x="172" y="-554.5" font-family="Helvetica,sans-Serif" font-size="10.00">+ RenderTexture GetRenderResult()</text>
</a>
</g>
</g>
<!-- Node5&#45;&gt;Node4 -->
<g id="edge5" class="edge">
<title>Node5&#45;&gt;Node4</title>
<path fill="none" stroke="midnightblue" d="M275.64,-539.26C297.43,-508.89 328.25,-465.91 348.19,-438.12"/>
<polygon fill="none" stroke="midnightblue" points="272.74,-537.3 269.75,-547.47 278.42,-541.38 272.74,-537.3"/>
</g>
<!-- Node5&#45;&gt;Node7 -->
<g id="edge10" class="edge">
<title>Node5&#45;&gt;Node7</title>
<path fill="none" stroke="midnightblue" d="M233.79,-537.96C228.6,-526.1 222.61,-512.42 216.52,-498.51"/>
<polygon fill="none" stroke="midnightblue" points="230.73,-539.71 237.95,-547.47 237.15,-536.9 230.73,-539.71"/>
</g>
<!-- Node6&#45;&gt;Node1 -->
<g id="edge6" class="edge">
<title>Node6&#45;&gt;Node1</title>
<path fill="none" stroke="#404040" d="M143,-149.36C143,-137.8 143,-125.67 143,-114.06"/>
<polygon fill="none" stroke="#404040" points="143,-113.71 139,-107.71 143,-101.71 147,-107.71 143,-113.71"/>
<text text-anchor="middle" x="176" y="-123" font-family="Helvetica,sans-Serif" font-size="10.00"> +cameraMixer</text>
</g>
<!-- Node7&#45;&gt;Node6 -->
<g id="edge8" class="edge">
<title>Node7&#45;&gt;Node6</title>
<path fill="none" stroke="#404040" d="M162.29,-320.31C160.16,-308.34 157.99,-296.18 155.92,-284.53"/>
<polygon fill="none" stroke="#404040" points="155.9,-284.43 150.91,-279.22 153.8,-272.61 158.79,-277.82 155.9,-284.43"/>
<text text-anchor="middle" x="196" y="-294" font-family="Helvetica,sans-Serif" font-size="10.00"> +renderTexOuter</text>
</g>
</g>
</svg>
