<?xml version="1.0" encoding="UTF-8" standalone="no"?>
<!DOCTYPE svg PUBLIC "-//W3C//DTD SVG 1.1//EN"
 "http://www.w3.org/Graphics/SVG/1.1/DTD/svg11.dtd">
<!-- Generated by graphviz version 2.47.1 (20210417.1919)
 -->
<!-- Title: GameManagers.GlobalTransfer.LoadSceneInLoadingScene Pages: 1 -->
<!--zoomable 836 -->
<svg id="main" version="1.1" xmlns="http://www.w3.org/2000/svg" xmlns:xlink="http://www.w3.org/1999/xlink" xml:space="preserve" onload="init(evt)">
<style type="text/css"><![CDATA[
.edge:hover path { stroke: red; }
.edge:hover polygon { stroke: red; fill: red; }
]]></style>
<script type="text/javascript"><![CDATA[
var edges = document.getElementsByTagName('g');
if (edges && edges.length) {
  for (var i=0;i<edges.length;i++) {
    if (edges[i].id.substr(0,4)=='edge') {
      edges[i].setAttribute('class','edge');
    }
  }
}
]]></script>
        <defs>
                <circle id="rim" cx="0" cy="0" r="7"/>
                <circle id="rim2" cx="0" cy="0" r="3.5"/>
                <g id="zoomPlus">
                        <use xlink:href="#rim" fill="#404040">
                                <set attributeName="fill" to="#808080" begin="zoomplus.mouseover" end="zoomplus.mouseout"/>
                        </use>
                        <path d="M-4,0h8M0,-4v8" fill="none" stroke="white" stroke-width="1.5" pointer-events="none"/>
                </g>
                <g id="zoomMin">
                        <use xlink:href="#rim" fill="#404040">
                                <set attributeName="fill" to="#808080" begin="zoomminus.mouseover" end="zoomminus.mouseout"/>
                        </use>
                        <path d="M-4,0h8" fill="none" stroke="white" stroke-width="1.5" pointer-events="none"/>
                </g>
                <g id="dirArrow">
                        <path fill="none" stroke="white" stroke-width="1.5" d="M0,-3.0v7 M-2.5,-0.5L0,-3.0L2.5,-0.5"/>
                </g>
               <g id="resetDef">
                       <use xlink:href="#rim2" fill="#404040">
                               <set attributeName="fill" to="#808080" begin="reset.mouseover" end="reset.mouseout"/>
                       </use>
               </g>
        </defs>

<script type="text/javascript">
var viewWidth = 367;
var viewHeight = 836;
var sectionId = 'dynsection-2';
</script>
<script xlink:href="svgpan.js"/>
<svg id="graph" class="graph">
<g id="viewport">
<title>GameManagers.GlobalTransfer.LoadSceneInLoadingScene</title>
<polygon fill="white" stroke="transparent" points="-4,4 -4,-831.5 363,-831.5 363,4 -4,4"/>
<!-- Node1 -->
<g id="node1" class="node">
<title>Node1</title>
<g id="a_node1"><a xlink:title="在Loading场景中加载新场景">
<polygon fill="#bfbfbf" stroke="black" points="205,-398.5 205,-428.5 359,-428.5 359,-398.5 205,-398.5"/>
<text text-anchor="start" x="213" y="-416.5" font-family="Helvetica,sans-Serif" font-size="10.00">GameManagers.GlobalTransfer.</text>
<text text-anchor="middle" x="282" y="-405.5" font-family="Helvetica,sans-Serif" font-size="10.00">LoadSceneInLoadingScene</text>
</a>
</g>
</g>
<!-- Node2 -->
<g id="node2" class="node">
<title>Node2</title>
<g id="a_node2"><a xlink:href="class_custom_u_i_1_1_quiz_1_1_result_u_i.html#a428d94a0af83f0ccae3a0952c8b2f020" target="_top" xlink:title=" ">
<polygon fill="white" stroke="black" points="10.5,-808 10.5,-827 158.5,-827 158.5,-808 10.5,-808"/>
<text text-anchor="middle" x="84.5" y="-815" font-family="Helvetica,sans-Serif" font-size="10.00">CustomUI.Quiz.ResultUI.Back</text>
</a>
</g>
</g>
<!-- Node1&#45;&gt;Node2 -->
<g id="edge1" class="edge">
<title>Node1&#45;&gt;Node2</title>
<path fill="none" stroke="midnightblue" d="M281.78,-439.1C282.41,-508.12 274.1,-699.46 169,-798.5 165,-802.27 160.41,-805.35 155.48,-807.86"/>
<polygon fill="midnightblue" stroke="midnightblue" points="285.28,-438.69 281.61,-428.75 278.28,-438.81 285.28,-438.69"/>
</g>
<!-- Node3 -->
<g id="node3" class="node">
<title>Node3</title>
<g id="a_node3"><a xlink:href="class_custom_u_i_1_1_test_mode_u_i.html#af289391fc25d74c3624fb8a66226538f" target="_top" xlink:title=" ">
<polygon fill="white" stroke="black" points="14.5,-770 14.5,-789 154.5,-789 154.5,-770 14.5,-770"/>
<text text-anchor="middle" x="84.5" y="-777" font-family="Helvetica,sans-Serif" font-size="10.00">CustomUI.TestModeUI.Back</text>
</a>
</g>
</g>
<!-- Node1&#45;&gt;Node3 -->
<g id="edge2" class="edge">
<title>Node1&#45;&gt;Node3</title>
<path fill="none" stroke="midnightblue" d="M280.84,-438.77C278.98,-502.86 264.79,-672.83 169,-760.5 164.72,-764.41 159.81,-767.58 154.56,-770.13"/>
<polygon fill="midnightblue" stroke="midnightblue" points="284.34,-438.82 281.05,-428.75 277.34,-438.67 284.34,-438.82"/>
</g>
<!-- Node4 -->
<g id="node4" class="node">
<title>Node4</title>
<g id="a_node4"><a xlink:href="class_custom_u_i_1_1_satellite_1_1_satellite_result_u_i.html#a0ec4ad20ee3556da9cf61b8d228ef9fe" target="_top" xlink:title=" ">
<polygon fill="white" stroke="black" points="16.5,-720.5 16.5,-750.5 152.5,-750.5 152.5,-720.5 16.5,-720.5"/>
<text text-anchor="start" x="24.5" y="-738.5" font-family="Helvetica,sans-Serif" font-size="10.00">CustomUI.Satellite.Satellite</text>
<text text-anchor="middle" x="84.5" y="-727.5" font-family="Helvetica,sans-Serif" font-size="10.00">ResultUI.BackToLabMode</text>
</a>
</g>
</g>
<!-- Node1&#45;&gt;Node4 -->
<g id="edge3" class="edge">
<title>Node1&#45;&gt;Node4</title>
<path fill="none" stroke="midnightblue" d="M278.98,-438.78C273.02,-496.01 250.44,-636.3 169,-711.5 164.23,-715.9 158.71,-719.5 152.83,-722.44"/>
<polygon fill="midnightblue" stroke="midnightblue" points="282.46,-439.08 279.93,-428.79 275.5,-438.41 282.46,-439.08"/>
</g>
<!-- Node5 -->
<g id="node5" class="node">
<title>Node5</title>
<g id="a_node5"><a xlink:href="class_custom_u_i_1_1_satellite_1_1_satellite_u_i.html#aaa3188a75f4f2a2c911dcb4a74cc21dc" target="_top" xlink:title=" ">
<polygon fill="white" stroke="black" points="16.5,-671.5 16.5,-701.5 152.5,-701.5 152.5,-671.5 16.5,-671.5"/>
<text text-anchor="start" x="24.5" y="-689.5" font-family="Helvetica,sans-Serif" font-size="10.00">CustomUI.Satellite.Satellite</text>
<text text-anchor="middle" x="84.5" y="-678.5" font-family="Helvetica,sans-Serif" font-size="10.00">UI.BackToLabMode</text>
</a>
</g>
</g>
<!-- Node1&#45;&gt;Node5 -->
<g id="edge4" class="edge">
<title>Node1&#45;&gt;Node5</title>
<path fill="none" stroke="midnightblue" d="M276.88,-438.73C267.33,-488.97 238.92,-601.91 169,-662.5 164.1,-666.75 158.49,-670.24 152.54,-673.12"/>
<polygon fill="midnightblue" stroke="midnightblue" points="280.35,-439.19 278.69,-428.72 273.46,-437.94 280.35,-439.19"/>
</g>
<!-- Node6 -->
<g id="node6" class="node">
<title>Node6</title>
<g id="a_node6"><a xlink:href="class_custom_u_i_1_1_physic_scene_u_i.html#a9256136931bac4afc309bc4691955000" target="_top" xlink:title=" ">
<polygon fill="white" stroke="black" points="7,-622.5 7,-652.5 162,-652.5 162,-622.5 7,-622.5"/>
<text text-anchor="start" x="15" y="-640.5" font-family="Helvetica,sans-Serif" font-size="10.00">CustomUI.PhysicSceneUI.Back</text>
<text text-anchor="middle" x="84.5" y="-629.5" font-family="Helvetica,sans-Serif" font-size="10.00">ToMain</text>
</a>
</g>
</g>
<!-- Node1&#45;&gt;Node6 -->
<g id="edge5" class="edge">
<title>Node1&#45;&gt;Node6</title>
<path fill="none" stroke="midnightblue" d="M273.92,-438.46C260.58,-480.9 227.66,-567.02 169,-613.5 164.63,-616.97 159.77,-619.93 154.67,-622.47"/>
<polygon fill="midnightblue" stroke="midnightblue" points="277.33,-439.25 276.89,-428.66 270.64,-437.21 277.33,-439.25"/>
</g>
<!-- Node7 -->
<g id="node7" class="node">
<title>Node7</title>
<g id="a_node7"><a xlink:href="class_custom_u_i_1_1_quiz_1_1_quiz_edit_u_i.html#a40e3c0662516ad140b7c5d4588bcfe2b" target="_top" xlink:title=" ">
<polygon fill="white" stroke="black" points="17,-573.5 17,-603.5 152,-603.5 152,-573.5 17,-573.5"/>
<text text-anchor="start" x="25" y="-591.5" font-family="Helvetica,sans-Serif" font-size="10.00">CustomUI.Quiz.QuizEditUI.</text>
<text text-anchor="middle" x="84.5" y="-580.5" font-family="Helvetica,sans-Serif" font-size="10.00">BackToTestMode</text>
</a>
</g>
</g>
<!-- Node1&#45;&gt;Node7 -->
<g id="edge6" class="edge">
<title>Node1&#45;&gt;Node7</title>
<path fill="none" stroke="midnightblue" d="M269.29,-438.09C252.03,-471.68 216.61,-531.49 169,-564.5 163.79,-568.11 158.05,-571.18 152.08,-573.79"/>
<polygon fill="midnightblue" stroke="midnightblue" points="272.51,-439.47 273.86,-428.96 266.25,-436.33 272.51,-439.47"/>
</g>
<!-- Node8 -->
<g id="node8" class="node">
<title>Node8</title>
<g id="a_node8"><a xlink:href="class_custom_u_i_1_1_quiz_1_1_quiz_test_u_i.html#a02e4c88699a323e283d80ac15cf0b8eb" target="_top" xlink:title=" ">
<polygon fill="white" stroke="black" points="16,-524.5 16,-554.5 153,-554.5 153,-524.5 16,-524.5"/>
<text text-anchor="start" x="24" y="-542.5" font-family="Helvetica,sans-Serif" font-size="10.00">CustomUI.Quiz.QuizTestUI.</text>
<text text-anchor="middle" x="84.5" y="-531.5" font-family="Helvetica,sans-Serif" font-size="10.00">BackToTestMode</text>
</a>
</g>
</g>
<!-- Node1&#45;&gt;Node8 -->
<g id="edge7" class="edge">
<title>Node1&#45;&gt;Node8</title>
<path fill="none" stroke="midnightblue" d="M261.36,-436.36C240.57,-459.21 205.75,-493.83 169,-514.5 162.27,-518.28 154.91,-521.55 147.44,-524.36"/>
<polygon fill="midnightblue" stroke="midnightblue" points="264.05,-438.6 268.11,-428.81 258.84,-433.93 264.05,-438.6"/>
</g>
<!-- Node9 -->
<g id="node9" class="node">
<title>Node9</title>
<g id="a_node9"><a xlink:href="class_custom_u_i_1_1_main_u_i.html#ac0d588b53b6403af5bb7f8834e282602" target="_top" xlink:title=" ">
<polygon fill="white" stroke="black" points="4.5,-486 4.5,-505 164.5,-505 164.5,-486 4.5,-486"/>
<text text-anchor="middle" x="84.5" y="-493" font-family="Helvetica,sans-Serif" font-size="10.00">CustomUI.MainUI.LoadLabScene</text>
</a>
</g>
</g>
<!-- Node1&#45;&gt;Node9 -->
<g id="edge8" class="edge">
<title>Node1&#45;&gt;Node9</title>
<path fill="none" stroke="midnightblue" d="M250.27,-434C228.41,-447.76 197.91,-465.35 169,-476.5 159.29,-480.24 148.65,-483.36 138.31,-485.91"/>
<polygon fill="midnightblue" stroke="midnightblue" points="252.25,-436.89 258.79,-428.55 248.48,-430.99 252.25,-436.89"/>
</g>
<!-- Node10 -->
<g id="node10" class="node">
<title>Node10</title>
<g id="a_node10"><a xlink:href="class_custom_u_i_1_1_main_u_i.html#abc3e1c7602bf017e513d74b03d4e6af1" target="_top" xlink:title=" ">
<polygon fill="white" stroke="black" points="5,-448 5,-467 164,-467 164,-448 5,-448"/>
<text text-anchor="middle" x="84.5" y="-455" font-family="Helvetica,sans-Serif" font-size="10.00">CustomUI.MainUI.LoadTestMode</text>
</a>
</g>
</g>
<!-- Node1&#45;&gt;Node10 -->
<g id="edge9" class="edge">
<title>Node1&#45;&gt;Node10</title>
<path fill="none" stroke="midnightblue" d="M204.39,-430.74C178.32,-436.61 150.14,-442.95 127.77,-447.99"/>
<polygon fill="midnightblue" stroke="midnightblue" points="205.28,-434.13 214.27,-428.52 203.74,-427.3 205.28,-434.13"/>
</g>
<!-- Node11 -->
<g id="node11" class="node">
<title>Node11</title>
<g id="a_node11"><a xlink:href="class_custom_u_i_1_1_lab_1_1_lab_scene_line_u_i.html#a0a61ad5fd5b250be9321e61bea240832" target="_top" xlink:title=" ">
<polygon fill="white" stroke="black" points="13,-398.5 13,-428.5 156,-428.5 156,-398.5 13,-398.5"/>
<text text-anchor="start" x="21" y="-416.5" font-family="Helvetica,sans-Serif" font-size="10.00">CustomUI.Lab.LabSceneLine</text>
<text text-anchor="middle" x="84.5" y="-405.5" font-family="Helvetica,sans-Serif" font-size="10.00">UI.OnClick</text>
</a>
</g>
</g>
<!-- Node1&#45;&gt;Node11 -->
<g id="edge10" class="edge">
<title>Node1&#45;&gt;Node11</title>
<path fill="none" stroke="midnightblue" d="M194.59,-413.5C181.69,-413.5 168.52,-413.5 156.01,-413.5"/>
<polygon fill="midnightblue" stroke="midnightblue" points="194.85,-417 204.85,-413.5 194.85,-410 194.85,-417"/>
</g>
<!-- Node12 -->
<g id="node12" class="node">
<title>Node12</title>
<g id="a_node12"><a xlink:href="class_custom_u_i_1_1_quiz_1_1_quiz_line_u_i.html#a894b5ca9aab4f5db14135f3f544dbe4f" target="_top" xlink:title=" ">
<polygon fill="white" stroke="black" points="16.5,-349.5 16.5,-379.5 152.5,-379.5 152.5,-349.5 16.5,-349.5"/>
<text text-anchor="start" x="24.5" y="-367.5" font-family="Helvetica,sans-Serif" font-size="10.00">CustomUI.Quiz.QuizLineUI.</text>
<text text-anchor="middle" x="84.5" y="-356.5" font-family="Helvetica,sans-Serif" font-size="10.00">OnClick</text>
</a>
</g>
</g>
<!-- Node1&#45;&gt;Node12 -->
<g id="edge11" class="edge">
<title>Node1&#45;&gt;Node12</title>
<path fill="none" stroke="midnightblue" d="M211.27,-396.02C189.72,-390.62 166.19,-384.72 145.37,-379.51"/>
<polygon fill="midnightblue" stroke="midnightblue" points="210.46,-399.43 221.01,-398.47 212.17,-392.64 210.46,-399.43"/>
</g>
<!-- Node13 -->
<g id="node13" class="node">
<title>Node13</title>
<g id="a_node13"><a xlink:href="class_custom_u_i_1_1_satellite_1_1_satellite_result_u_i.html#ab0d0e9d10a6a97b8f026e2373fbd5425" target="_top" xlink:title=" ">
<polygon fill="white" stroke="black" points="16.5,-300.5 16.5,-330.5 152.5,-330.5 152.5,-300.5 16.5,-300.5"/>
<text text-anchor="start" x="24.5" y="-318.5" font-family="Helvetica,sans-Serif" font-size="10.00">CustomUI.Satellite.Satellite</text>
<text text-anchor="middle" x="84.5" y="-307.5" font-family="Helvetica,sans-Serif" font-size="10.00">ResultUI.Reload</text>
</a>
</g>
</g>
<!-- Node1&#45;&gt;Node13 -->
<g id="edge12" class="edge">
<title>Node1&#45;&gt;Node13</title>
<path fill="none" stroke="midnightblue" d="M253.61,-392.43C231.7,-376.4 199.67,-354.72 169,-340.5 161.04,-336.81 152.4,-333.5 143.79,-330.6"/>
<polygon fill="midnightblue" stroke="midnightblue" points="251.66,-395.34 261.77,-398.49 255.83,-389.72 251.66,-395.34"/>
</g>
<!-- Node14 -->
<g id="node14" class="node">
<title>Node14</title>
<g id="a_node14"><a xlink:href="class_custom_u_i_1_1_quiz_1_1_quiz_editor_u_i.html#af93afe3be1c58c27c4b2e87684cd75c1" target="_top" xlink:title=" ">
<polygon fill="white" stroke="black" points="19,-251.5 19,-281.5 150,-281.5 150,-251.5 19,-251.5"/>
<text text-anchor="start" x="27" y="-269.5" font-family="Helvetica,sans-Serif" font-size="10.00">CustomUI.Quiz.QuizEditor</text>
<text text-anchor="middle" x="84.5" y="-258.5" font-family="Helvetica,sans-Serif" font-size="10.00">UI.ReloadScene</text>
</a>
</g>
</g>
<!-- Node1&#45;&gt;Node14 -->
<g id="edge13" class="edge">
<title>Node1&#45;&gt;Node14</title>
<path fill="none" stroke="midnightblue" d="M265.48,-390.05C246.07,-362.54 210.34,-317.39 169,-291.5 162.84,-287.64 156.06,-284.36 149.1,-281.56"/>
<polygon fill="midnightblue" stroke="midnightblue" points="262.62,-392.08 271.19,-398.32 268.38,-388.11 262.62,-392.08"/>
</g>
<!-- Node15 -->
<g id="node15" class="node">
<title>Node15</title>
<g id="a_node15"><a xlink:href="class_custom_u_i_1_1_quiz_1_1_result_u_i.html#aa899d0c576fa3eb364b6fe39dc7dcfb4" target="_top" xlink:title=" ">
<polygon fill="white" stroke="black" points="6,-213 6,-232 163,-232 163,-213 6,-213"/>
<text text-anchor="middle" x="84.5" y="-220" font-family="Helvetica,sans-Serif" font-size="10.00">CustomUI.Quiz.ResultUI.Restart</text>
</a>
</g>
</g>
<!-- Node1&#45;&gt;Node15 -->
<g id="edge14" class="edge">
<title>Node1&#45;&gt;Node15</title>
<path fill="none" stroke="midnightblue" d="M271.78,-388.71C256.46,-351.04 222.06,-279.83 169,-242.5 162.78,-238.13 155.73,-234.7 148.42,-232.02"/>
<polygon fill="midnightblue" stroke="midnightblue" points="268.68,-390.38 275.6,-398.39 275.19,-387.81 268.68,-390.38"/>
</g>
<!-- Node16 -->
<g id="node16" class="node">
<title>Node16</title>
<g id="a_node16"><a xlink:href="class_custom_u_i_1_1_test_mode_u_i.html#a59fe0887ae83c98fbe49b59e4ad4614a" target="_top" xlink:title=" ">
<polygon fill="white" stroke="black" points="0,-175 0,-194 169,-194 169,-175 0,-175"/>
<text text-anchor="middle" x="84.5" y="-182" font-family="Helvetica,sans-Serif" font-size="10.00">CustomUI.TestModeUI.ToEditMode</text>
</a>
</g>
</g>
<!-- Node1&#45;&gt;Node16 -->
<g id="edge15" class="edge">
<title>Node1&#45;&gt;Node16</title>
<path fill="none" stroke="midnightblue" d="M274.99,-388.5C262.95,-343.99 231.47,-251.22 169,-203.5 163.92,-199.62 158.19,-196.51 152.17,-194.01"/>
<polygon fill="midnightblue" stroke="midnightblue" points="271.62,-389.43 277.52,-398.23 278.39,-387.67 271.62,-389.43"/>
</g>
<!-- Node17 -->
<g id="node17" class="node">
<title>Node17</title>
<g id="a_node17"><a xlink:href="class_custom_u_i_1_1_lab_mode_u_i.html#aada4e2e96cdfcbfbea28322515450a19" target="_top" xlink:title=" ">
<polygon fill="white" stroke="black" points="14.5,-137 14.5,-156 154.5,-156 154.5,-137 14.5,-137"/>
<text text-anchor="middle" x="84.5" y="-144" font-family="Helvetica,sans-Serif" font-size="10.00">CustomUI.LabModeUI.ToLab</text>
</a>
</g>
</g>
<!-- Node1&#45;&gt;Node17 -->
<g id="edge16" class="edge">
<title>Node1&#45;&gt;Node17</title>
<path fill="none" stroke="midnightblue" d="M277.19,-388.4C268.16,-337.93 240.57,-223.99 169,-165.5 164.28,-161.64 158.93,-158.53 153.27,-156.03"/>
<polygon fill="midnightblue" stroke="midnightblue" points="273.77,-389.16 278.89,-398.44 280.67,-387.99 273.77,-389.16"/>
</g>
<!-- Node18 -->
<g id="node18" class="node">
<title>Node18</title>
<g id="a_node18"><a xlink:href="class_custom_u_i_1_1_lab_mode_u_i.html#a0ee0f699378eb49ed6f9c555e769836b" target="_top" xlink:title=" ">
<polygon fill="white" stroke="black" points="11.5,-99 11.5,-118 157.5,-118 157.5,-99 11.5,-99"/>
<text text-anchor="middle" x="84.5" y="-106" font-family="Helvetica,sans-Serif" font-size="10.00">CustomUI.LabModeUI.ToMain</text>
</a>
</g>
</g>
<!-- Node1&#45;&gt;Node18 -->
<g id="edge17" class="edge">
<title>Node1&#45;&gt;Node18</title>
<path fill="none" stroke="midnightblue" d="M278.84,-388.16C272.65,-332.07 249.71,-196.96 169,-127.5 164.61,-123.72 159.61,-120.65 154.3,-118.16"/>
<polygon fill="midnightblue" stroke="midnightblue" points="275.38,-388.68 279.87,-398.27 282.34,-387.97 275.38,-388.68"/>
</g>
<!-- Node19 -->
<g id="node19" class="node">
<title>Node19</title>
<g id="a_node19"><a xlink:href="class_custom_u_i_1_1_lab_mode_u_i.html#a8680a2fefaca2eca5ee077383cc0eb87" target="_top" xlink:title=" ">
<polygon fill="white" stroke="black" points="4.5,-49.5 4.5,-79.5 164.5,-79.5 164.5,-49.5 4.5,-49.5"/>
<text text-anchor="start" x="12.5" y="-67.5" font-family="Helvetica,sans-Serif" font-size="10.00">CustomUI.LabModeUI.ToSatellite</text>
<text text-anchor="middle" x="84.5" y="-56.5" font-family="Helvetica,sans-Serif" font-size="10.00">Challenge</text>
</a>
</g>
</g>
<!-- Node1&#45;&gt;Node19 -->
<g id="edge18" class="edge">
<title>Node1&#45;&gt;Node19</title>
<path fill="none" stroke="midnightblue" d="M279.79,-388.23C275.51,-327.66 256.15,-173.07 169,-89.5 164.96,-85.62 160.34,-82.35 155.4,-79.58"/>
<polygon fill="midnightblue" stroke="midnightblue" points="276.31,-388.64 280.43,-398.4 283.3,-388.2 276.31,-388.64"/>
</g>
<!-- Node20 -->
<g id="node20" class="node">
<title>Node20</title>
<g id="a_node20"><a xlink:href="class_custom_u_i_1_1_quiz_1_1_quiz_editor_u_i.html#a70edfd237acdf54d51f75fd4a4504381" target="_top" xlink:title=" ">
<polygon fill="white" stroke="black" points="19,-0.5 19,-30.5 150,-30.5 150,-0.5 19,-0.5"/>
<text text-anchor="start" x="27" y="-18.5" font-family="Helvetica,sans-Serif" font-size="10.00">CustomUI.Quiz.QuizEditor</text>
<text text-anchor="middle" x="84.5" y="-7.5" font-family="Helvetica,sans-Serif" font-size="10.00">UI.ToTestMode</text>
</a>
</g>
</g>
<!-- Node1&#45;&gt;Node20 -->
<g id="edge19" class="edge">
<title>Node1&#45;&gt;Node20</title>
<path fill="none" stroke="midnightblue" d="M281.14,-388.13C280.07,-321.37 267.77,-139.19 169,-40.5 163.65,-35.15 157.2,-30.94 150.29,-27.62"/>
<polygon fill="midnightblue" stroke="midnightblue" points="277.64,-388.2 281.22,-398.17 284.64,-388.14 277.64,-388.2"/>
</g>
</g>
</svg>
        <g id="navigator" transform="translate(0 0)" fill="#404254">
                <rect fill="#f2f5e9" fill-opacity="0.5" stroke="#606060" stroke-width=".5" x="0" y="0" width="60" height="60"/>
                <use id="zoomplus" xlink:href="#zoomPlus" x="17" y="9" onmousedown="handleZoom(evt,'in')"/>
                <use id="zoomminus" xlink:href="#zoomMin" x="42" y="9" onmousedown="handleZoom(evt,'out')"/>
                <use id="reset" xlink:href="#resetDef" x="30" y="36" onmousedown="handleReset()"/>
                <g id="arrowUp" xlink:href="#dirArrow" transform="translate(30 24)" onmousedown="handlePan(0,-1)">
                  <use xlink:href="#rim" fill="#404040">
                        <set attributeName="fill" to="#808080" begin="arrowUp.mouseover" end="arrowUp.mouseout"/>
                  </use>
                  <path fill="none" stroke="white" stroke-width="1.5" d="M0,-3.0v7 M-2.5,-0.5L0,-3.0L2.5,-0.5"/>
                </g>
                <g id="arrowRight" xlink:href="#dirArrow" transform="rotate(90) translate(36 -43)" onmousedown="handlePan(1,0)">
                  <use xlink:href="#rim" fill="#404040">
                        <set attributeName="fill" to="#808080" begin="arrowRight.mouseover" end="arrowRight.mouseout"/>
                  </use>
                  <path fill="none" stroke="white" stroke-width="1.5" d="M0,-3.0v7 M-2.5,-0.5L0,-3.0L2.5,-0.5"/>
                </g>
                <g id="arrowDown" xlink:href="#dirArrow" transform="rotate(180) translate(-30 -48)" onmousedown="handlePan(0,1)">
                  <use xlink:href="#rim" fill="#404040">
                        <set attributeName="fill" to="#808080" begin="arrowDown.mouseover" end="arrowDown.mouseout"/>
                  </use>
                  <path fill="none" stroke="white" stroke-width="1.5" d="M0,-3.0v7 M-2.5,-0.5L0,-3.0L2.5,-0.5"/>
                </g>
                <g id="arrowLeft" xlink:href="#dirArrow" transform="rotate(270) translate(-36 17)" onmousedown="handlePan(-1,0)">
                  <use xlink:href="#rim" fill="#404040">
                        <set attributeName="fill" to="#808080" begin="arrowLeft.mouseover" end="arrowLeft.mouseout"/>
                  </use>
                  <path fill="none" stroke="white" stroke-width="1.5" d="M0,-3.0v7 M-2.5,-0.5L0,-3.0L2.5,-0.5"/>
                </g>
        </g>
        <svg viewBox="0 0 15 15" width="100%" height="30px" preserveAspectRatio="xMaxYMin meet">
         <g id="arrow_out" transform="scale(0.3 0.3)">
          <a xlink:href="class_game_managers_1_1_global_transfer_a0a67c1504ad9ccb391ff92e6deab988d_icgraph_org.svg" target="_base">
           <rect id="button" ry="5" rx="5" y="6" x="6" height="38" width="38"
                fill="#f2f5e9" fill-opacity="0.5" stroke="#606060" stroke-width="1.0"/>
           <path id="arrow"
             d="M 11.500037,31.436501 C 11.940474,20.09759 22.043105,11.32322 32.158766,21.979434 L 37.068811,17.246167 C 37.068811,17.246167 37.088388,32 37.088388,32 L 22.160133,31.978069 C 22.160133,31.978069 26.997745,27.140456 26.997745,27.140456 C 18.528582,18.264221 13.291696,25.230495 11.500037,31.436501 z"
             style="fill:#404040;"/>
          </a>
         </g>
        </svg>
</svg>
