<?xml version="1.0" encoding="UTF-8" standalone="no"?>
<!DOCTYPE svg PUBLIC "-//W3C//DTD SVG 1.1//EN"
 "http://www.w3.org/Graphics/SVG/1.1/DTD/svg11.dtd">
<!-- Generated by graphviz version 2.47.1 (20210417.1919)
 -->
<!-- Title: Quiz.QuizAstralBody.GetQuizConditionString Pages: 1 -->
<svg width="560pt" height="83pt"
 viewBox="0.00 0.00 560.00 83.00" xmlns="http://www.w3.org/2000/svg" xmlns:xlink="http://www.w3.org/1999/xlink">
<g id="graph0" class="graph" transform="scale(1 1) rotate(0) translate(4 79)">
<title>Quiz.QuizAstralBody.GetQuizConditionString</title>
<polygon fill="white" stroke="transparent" points="-4,4 -4,-79 556,-79 556,4 -4,4"/>
<!-- Node1 -->
<g id="node1" class="node">
<title>Node1</title>
<g id="a_node1"><a xlink:title="获取星球条件文本">
<polygon fill="#bfbfbf" stroke="black" points="0,-22.5 0,-52.5 147,-52.5 147,-22.5 0,-22.5"/>
<text text-anchor="start" x="8" y="-40.5" font-family="Helvetica,sans-Serif" font-size="10.00">Quiz.QuizAstralBody.GetQuiz</text>
<text text-anchor="middle" x="73.5" y="-29.5" font-family="Helvetica,sans-Serif" font-size="10.00">ConditionString</text>
</a>
</g>
</g>
<!-- Node2 -->
<g id="node2" class="node">
<title>Node2</title>
<g id="a_node2"><a xlink:href="class_game_managers_1_1_game_manager.html#abeec4915d581418a152b1a07848333cd" target="_top" xlink:title="获取缩放系数">
<polygon fill="white" stroke="black" points="183,-50 183,-69 361,-69 361,-50 183,-50"/>
<text text-anchor="middle" x="272" y="-57" font-family="Helvetica,sans-Serif" font-size="10.00">GameManagers.GameManager.GetK</text>
</a>
</g>
</g>
<!-- Node1&#45;&gt;Node2 -->
<g id="edge1" class="edge">
<title>Node1&#45;&gt;Node2</title>
<path fill="none" stroke="midnightblue" d="M147.11,-45.63C156.52,-46.68 166.27,-47.77 175.98,-48.86"/>
<polygon fill="midnightblue" stroke="midnightblue" points="175.74,-52.36 186.07,-49.99 176.52,-45.4 175.74,-52.36"/>
</g>
<!-- Node4 -->
<g id="node4" class="node">
<title>Node4</title>
<g id="a_node4"><a xlink:href="class_space_physic_1_1_astral_body.html#a49a47294cf00916a50c42a62cda119f0" target="_top" xlink:title=" ">
<polygon fill="white" stroke="black" points="200,-0.5 200,-30.5 344,-30.5 344,-0.5 200,-0.5"/>
<text text-anchor="start" x="208" y="-18.5" font-family="Helvetica,sans-Serif" font-size="10.00">SpacePhysic.AstralBody.Get</text>
<text text-anchor="middle" x="272" y="-7.5" font-family="Helvetica,sans-Serif" font-size="10.00">Velocity</text>
</a>
</g>
</g>
<!-- Node1&#45;&gt;Node4 -->
<g id="edge3" class="edge">
<title>Node1&#45;&gt;Node4</title>
<path fill="none" stroke="midnightblue" d="M147.11,-29.37C161.01,-27.81 175.65,-26.18 189.8,-24.59"/>
<polygon fill="midnightblue" stroke="midnightblue" points="190.45,-28.04 200,-23.45 189.67,-21.08 190.45,-28.04"/>
</g>
<!-- Node3 -->
<g id="node3" class="node">
<title>Node3</title>
<g id="a_node3"><a xlink:href="class_game_managers_1_1_game_manager.html#ab809f66044771ece537c01978381610f" target="_top" xlink:title="计算质量缩放">
<polygon fill="white" stroke="black" points="397,-44.5 397,-74.5 552,-74.5 552,-44.5 397,-44.5"/>
<text text-anchor="start" x="405" y="-62.5" font-family="Helvetica,sans-Serif" font-size="10.00">GameManagers.GameManager.</text>
<text text-anchor="middle" x="474.5" y="-51.5" font-family="Helvetica,sans-Serif" font-size="10.00">CalculateMassScales</text>
</a>
</g>
</g>
<!-- Node2&#45;&gt;Node3 -->
<g id="edge2" class="edge">
<title>Node2&#45;&gt;Node3</title>
<path fill="none" stroke="midnightblue" d="M361.23,-59.5C369.67,-59.5 378.23,-59.5 386.66,-59.5"/>
<polygon fill="midnightblue" stroke="midnightblue" points="386.86,-63 396.86,-59.5 386.86,-56 386.86,-63"/>
</g>
</g>
</svg>
