<?xml version="1.0" encoding="UTF-8" standalone="no"?>
<!DOCTYPE svg PUBLIC "-//W3C//DTD SVG 1.1//EN"
 "http://www.w3.org/Graphics/SVG/1.1/DTD/svg11.dtd">
<!-- Generated by graphviz version 2.47.1 (20210417.1919)
 -->
<!-- Title: CustomUI.AstralBodyEditor.AstralBodyAddUI Pages: 1 -->
<svg width="456pt" height="1020pt"
 viewBox="0.00 0.00 455.79 1020.00" xmlns="http://www.w3.org/2000/svg" xmlns:xlink="http://www.w3.org/1999/xlink">
<g id="graph0" class="graph" transform="scale(1 1) rotate(0) translate(4 1016)">
<title>CustomUI.AstralBodyEditor.AstralBodyAddUI</title>
<polygon fill="white" stroke="transparent" points="-4,4 -4,-1016 451.79,-1016 451.79,4 -4,4"/>
<!-- Node1 -->
<g id="node1" class="node">
<title>Node1</title>
<g id="a_node1"><a xlink:title=" ">
<polygon fill="#bfbfbf" stroke="black" points="161.79,-116.5 161.79,-228.5 300.79,-228.5 300.79,-116.5 161.79,-116.5"/>
<text text-anchor="start" x="169.79" y="-216.5" font-family="Helvetica,sans-Serif" font-size="10.00">CustomUI.AstralBodyEditor.</text>
<text text-anchor="middle" x="231.29" y="-205.5" font-family="Helvetica,sans-Serif" font-size="10.00">AstralBodyAddUI</text>
<polyline fill="none" stroke="black" points="161.79,-198.5 300.79,-198.5 "/>
<text text-anchor="start" x="169.79" y="-186.5" font-family="Helvetica,sans-Serif" font-size="10.00">+ bool isQuizEditMode</text>
<text text-anchor="start" x="169.79" y="-175.5" font-family="Helvetica,sans-Serif" font-size="10.00">+ List&lt; GameObject &gt;</text>
<text text-anchor="start" x="169.79" y="-164.5" font-family="Helvetica,sans-Serif" font-size="10.00"> setActiveList</text>
<text text-anchor="start" x="169.79" y="-153.5" font-family="Helvetica,sans-Serif" font-size="10.00">+ Transform OrbitCore</text>
<polyline fill="none" stroke="black" points="161.79,-146.5 300.79,-146.5 "/>
<text text-anchor="start" x="169.79" y="-134.5" font-family="Helvetica,sans-Serif" font-size="10.00">+ void Switch2Placement()</text>
<text text-anchor="start" x="169.79" y="-123.5" font-family="Helvetica,sans-Serif" font-size="10.00">+ void Switch2Normal()</text>
</a>
</g>
</g>
<!-- Node3 -->
<g id="node3" class="node">
<title>Node3</title>
<g id="a_node3"><a xlink:href="class_custom_u_i_1_1_astral_body_editor_1_1_astral_body_placement_u_i.html" target="_top" xlink:title=" ">
<polygon fill="white" stroke="black" points="26.79,-0.5 26.79,-68.5 165.79,-68.5 165.79,-0.5 26.79,-0.5"/>
<text text-anchor="start" x="34.79" y="-56.5" font-family="Helvetica,sans-Serif" font-size="10.00">CustomUI.AstralBodyEditor.</text>
<text text-anchor="middle" x="96.29" y="-45.5" font-family="Helvetica,sans-Serif" font-size="10.00">AstralBodyPlacementUI</text>
<polyline fill="none" stroke="black" points="26.79,-38.5 165.79,-38.5 "/>
<text text-anchor="start" x="34.79" y="-26.5" font-family="Helvetica,sans-Serif" font-size="10.00">+ Vector3 Target</text>
<polyline fill="none" stroke="black" points="26.79,-19.5 165.79,-19.5 "/>
<text text-anchor="start" x="34.79" y="-7.5" font-family="Helvetica,sans-Serif" font-size="10.00">+ void SetPlacing()</text>
</a>
</g>
</g>
<!-- Node1&#45;&gt;Node3 -->
<g id="edge4" class="edge">
<title>Node1&#45;&gt;Node3</title>
<path fill="none" stroke="#404040" d="M224.42,-116.24C221.13,-105.7 216.32,-95.36 209.29,-87 200.44,-76.47 188.98,-67.99 176.77,-61.19"/>
<polygon fill="none" stroke="#404040" points="176.57,-61.09 169.41,-61.93 165.88,-55.64 173.04,-54.8 176.57,-61.09"/>
<text text-anchor="middle" x="228.29" y="-90" font-family="Helvetica,sans-Serif" font-size="10.00"> +root</text>
</g>
<!-- Node2 -->
<g id="node2" class="node">
<title>Node2</title>
<g id="a_node2"><a xlink:title=" ">
<polygon fill="white" stroke="#bfbfbf" points="145.79,-905 145.79,-962 228.79,-962 228.79,-905 145.79,-905"/>
<text text-anchor="middle" x="187.29" y="-950" font-family="Helvetica,sans-Serif" font-size="10.00">MonoBehaviour</text>
<polyline fill="none" stroke="#bfbfbf" points="145.79,-943 228.79,-943 "/>
<text text-anchor="middle" x="187.29" y="-931" font-family="Helvetica,sans-Serif" font-size="10.00"> </text>
<polyline fill="none" stroke="#bfbfbf" points="145.79,-924 228.79,-924 "/>
<text text-anchor="middle" x="187.29" y="-912" font-family="Helvetica,sans-Serif" font-size="10.00"> </text>
</a>
</g>
</g>
<!-- Node2&#45;&gt;Node1 -->
<g id="edge1" class="edge">
<title>Node2&#45;&gt;Node1</title>
<path fill="none" stroke="midnightblue" d="M208.6,-896.03C220.13,-874.19 233.23,-845.42 239.29,-818 293.03,-574.97 243.18,-506.9 244.29,-258 244.32,-253.11 244.72,-251.87 244.29,-247 243.77,-241.06 243.02,-234.88 242.13,-228.75"/>
<polygon fill="none" stroke="midnightblue" points="205.46,-894.49 203.78,-904.95 211.62,-897.82 205.46,-894.49"/>
</g>
<!-- Node2&#45;&gt;Node3 -->
<g id="edge3" class="edge">
<title>Node2&#45;&gt;Node3</title>
<path fill="none" stroke="midnightblue" d="M136.99,-904.17C107.2,-884.33 72.09,-854.8 55.29,-818 -66.14,-551.92 45.32,-180.84 84.13,-68.81"/>
<polygon fill="none" stroke="midnightblue" points="135.33,-907.27 145.63,-909.77 139.14,-901.4 135.33,-907.27"/>
</g>
<!-- Node4 -->
<g id="node4" class="node">
<title>Node4</title>
<g id="a_node4"><a xlink:href="class_space_physic_1_1_gravity_tracing.html" target="_top" xlink:title="引力追踪">
<polygon fill="white" stroke="black" points="64.79,-436 64.79,-658 229.79,-658 229.79,-436 64.79,-436"/>
<text text-anchor="middle" x="147.29" y="-646" font-family="Helvetica,sans-Serif" font-size="10.00">SpacePhysic.GravityTracing</text>
<polyline fill="none" stroke="black" points="64.79,-639 229.79,-639 "/>
<text text-anchor="start" x="72.79" y="-627" font-family="Helvetica,sans-Serif" font-size="10.00">+ int sample</text>
<text text-anchor="start" x="72.79" y="-616" font-family="Helvetica,sans-Serif" font-size="10.00">+ float timeScale</text>
<text text-anchor="start" x="72.79" y="-605" font-family="Helvetica,sans-Serif" font-size="10.00">+ SplineComputer splineComputer</text>
<text text-anchor="start" x="72.79" y="-594" font-family="Helvetica,sans-Serif" font-size="10.00">+ bool isFreezing</text>
<text text-anchor="start" x="72.79" y="-583" font-family="Helvetica,sans-Serif" font-size="10.00">+ bool isShowOrbit</text>
<polyline fill="none" stroke="black" points="64.79,-576 229.79,-576 "/>
<text text-anchor="start" x="72.79" y="-564" font-family="Helvetica,sans-Serif" font-size="10.00">+ void Awake()</text>
<text text-anchor="start" x="72.79" y="-553" font-family="Helvetica,sans-Serif" font-size="10.00">+ void Dispatch()</text>
<text text-anchor="start" x="72.79" y="-542" font-family="Helvetica,sans-Serif" font-size="10.00">+ void AddTracingTarget</text>
<text text-anchor="start" x="72.79" y="-531" font-family="Helvetica,sans-Serif" font-size="10.00">(ITraceable traceable)</text>
<text text-anchor="start" x="72.79" y="-520" font-family="Helvetica,sans-Serif" font-size="10.00">+ void Freeze(bool isFreezing)</text>
<text text-anchor="start" x="72.79" y="-509" font-family="Helvetica,sans-Serif" font-size="10.00">+ void RemoveAstralBody</text>
<text text-anchor="start" x="72.79" y="-498" font-family="Helvetica,sans-Serif" font-size="10.00">(AstralBody astralBody)</text>
<text text-anchor="start" x="72.79" y="-487" font-family="Helvetica,sans-Serif" font-size="10.00">+ ConicSection GetConicSection</text>
<text text-anchor="start" x="72.79" y="-476" font-family="Helvetica,sans-Serif" font-size="10.00">(ITraceable astralBody)</text>
<text text-anchor="start" x="72.79" y="-465" font-family="Helvetica,sans-Serif" font-size="10.00">+ void DrawMathOrbit</text>
<text text-anchor="start" x="72.79" y="-454" font-family="Helvetica,sans-Serif" font-size="10.00">(ConicSection conicSection,</text>
<text text-anchor="start" x="72.79" y="-443" font-family="Helvetica,sans-Serif" font-size="10.00"> int sam)</text>
</a>
</g>
</g>
<!-- Node2&#45;&gt;Node4 -->
<g id="edge6" class="edge">
<title>Node2&#45;&gt;Node4</title>
<path fill="none" stroke="midnightblue" d="M183.35,-894.62C177.69,-840.19 167.02,-737.65 158.75,-658.16"/>
<polygon fill="none" stroke="midnightblue" points="179.9,-895.26 184.42,-904.85 186.86,-894.54 179.9,-895.26"/>
</g>
<!-- Node5 -->
<g id="node5" class="node">
<title>Node5</title>
<g id="a_node5"><a xlink:href="class_space_physic_1_1_astral_body.html" target="_top" xlink:title="星体物理实体">
<polygon fill="white" stroke="black" points="286.79,-276.5 286.79,-817.5 447.79,-817.5 447.79,-276.5 286.79,-276.5"/>
<text text-anchor="middle" x="367.29" y="-805.5" font-family="Helvetica,sans-Serif" font-size="10.00">SpacePhysic.AstralBody</text>
<polyline fill="none" stroke="black" points="286.79,-798.5 447.79,-798.5 "/>
<text text-anchor="start" x="294.79" y="-786.5" font-family="Helvetica,sans-Serif" font-size="10.00">+ List&lt; AstralBody &gt;</text>
<text text-anchor="start" x="294.79" y="-775.5" font-family="Helvetica,sans-Serif" font-size="10.00"> affectedPlanets</text>
<text text-anchor="start" x="294.79" y="-764.5" font-family="Helvetica,sans-Serif" font-size="10.00">+ float affectRadius</text>
<text text-anchor="start" x="294.79" y="-753.5" font-family="Helvetica,sans-Serif" font-size="10.00">+ Vector3 angularVelocity</text>
<text text-anchor="start" x="294.79" y="-742.5" font-family="Helvetica,sans-Serif" font-size="10.00">+ List&lt; AstralBody &gt;</text>
<text text-anchor="start" x="294.79" y="-731.5" font-family="Helvetica,sans-Serif" font-size="10.00"> banAffectedPlanets</text>
<text text-anchor="start" x="294.79" y="-720.5" font-family="Helvetica,sans-Serif" font-size="10.00">+ SphereCollider defaultCollider</text>
<text text-anchor="start" x="294.79" y="-709.5" font-family="Helvetica,sans-Serif" font-size="10.00">+ bool enableAffect</text>
<text text-anchor="start" x="294.79" y="-698.5" font-family="Helvetica,sans-Serif" font-size="10.00">+ bool enableTracing</text>
<text text-anchor="start" x="294.79" y="-687.5" font-family="Helvetica,sans-Serif" font-size="10.00">+ Vector3 oriVelocity</text>
<text text-anchor="start" x="294.79" y="-676.5" font-family="Helvetica,sans-Serif" font-size="10.00">+ SphereCollider triggerCollider</text>
<text text-anchor="start" x="294.79" y="-665.5" font-family="Helvetica,sans-Serif" font-size="10.00">+ UnityEvent&lt; Vector3</text>
<text text-anchor="start" x="294.79" y="-654.5" font-family="Helvetica,sans-Serif" font-size="10.00"> &gt; velocityChangedEvent</text>
<text text-anchor="start" x="294.79" y="-643.5" font-family="Helvetica,sans-Serif" font-size="10.00">+ float? Mass</text>
<text text-anchor="start" x="294.79" y="-632.5" font-family="Helvetica,sans-Serif" font-size="10.00">+ Rigidbody astralBodyRigidbody</text>
<text text-anchor="start" x="294.79" y="-621.5" font-family="Helvetica,sans-Serif" font-size="10.00">+ Vector3 Force</text>
<text text-anchor="start" x="294.79" y="-610.5" font-family="Helvetica,sans-Serif" font-size="10.00">+ float gravity</text>
<text text-anchor="start" x="294.79" y="-599.5" font-family="Helvetica,sans-Serif" font-size="10.00">+ int meshNum</text>
<text text-anchor="start" x="294.79" y="-588.5" font-family="Helvetica,sans-Serif" font-size="10.00">+ float size</text>
<text text-anchor="start" x="294.79" y="-577.5" font-family="Helvetica,sans-Serif" font-size="10.00">+ double realMass</text>
<text text-anchor="start" x="294.79" y="-566.5" font-family="Helvetica,sans-Serif" font-size="10.00">+ double density</text>
<text text-anchor="start" x="294.79" y="-555.5" font-family="Helvetica,sans-Serif" font-size="10.00">+ Vector3 lastVelocity</text>
<text text-anchor="start" x="294.79" y="-544.5" font-family="Helvetica,sans-Serif" font-size="10.00">+ bool isLoadDone</text>
<polyline fill="none" stroke="black" points="286.79,-537.5 447.79,-537.5 "/>
<text text-anchor="start" x="294.79" y="-525.5" font-family="Helvetica,sans-Serif" font-size="10.00">+ virtual void OnCollision</text>
<text text-anchor="start" x="294.79" y="-514.5" font-family="Helvetica,sans-Serif" font-size="10.00">Enter(Collision other)</text>
<text text-anchor="start" x="294.79" y="-503.5" font-family="Helvetica,sans-Serif" font-size="10.00">+ Transform GetTransform()</text>
<text text-anchor="start" x="294.79" y="-492.5" font-family="Helvetica,sans-Serif" font-size="10.00">+ Vector3 GetPosition()</text>
<text text-anchor="start" x="294.79" y="-481.5" font-family="Helvetica,sans-Serif" font-size="10.00">+ GameObject GetGameObject()</text>
<text text-anchor="start" x="294.79" y="-470.5" font-family="Helvetica,sans-Serif" font-size="10.00">+ bool GetEnableTracing()</text>
<text text-anchor="start" x="294.79" y="-459.5" font-family="Helvetica,sans-Serif" font-size="10.00">+ virtual float GetMass()</text>
<text text-anchor="start" x="294.79" y="-448.5" font-family="Helvetica,sans-Serif" font-size="10.00">+ Rigidbody GetRigidbody()</text>
<text text-anchor="start" x="294.79" y="-437.5" font-family="Helvetica,sans-Serif" font-size="10.00">+ Vector3 GetVelocity()</text>
<text text-anchor="start" x="294.79" y="-426.5" font-family="Helvetica,sans-Serif" font-size="10.00">+ List&lt; AstralBody &gt;</text>
<text text-anchor="start" x="294.79" y="-415.5" font-family="Helvetica,sans-Serif" font-size="10.00"> GetAffectedPlanets()</text>
<text text-anchor="start" x="294.79" y="-404.5" font-family="Helvetica,sans-Serif" font-size="10.00">+ AstralBody GetAstralBody()</text>
<text text-anchor="start" x="294.79" y="-393.5" font-family="Helvetica,sans-Serif" font-size="10.00">+ void ChangeVelocity</text>
<text text-anchor="start" x="294.79" y="-382.5" font-family="Helvetica,sans-Serif" font-size="10.00">(Vector3 velocity)</text>
<text text-anchor="start" x="294.79" y="-371.5" font-family="Helvetica,sans-Serif" font-size="10.00">+ void ChangeVelocity</text>
<text text-anchor="start" x="294.79" y="-360.5" font-family="Helvetica,sans-Serif" font-size="10.00">(double realSpeed)</text>
<text text-anchor="start" x="294.79" y="-349.5" font-family="Helvetica,sans-Serif" font-size="10.00">+ Vector3 CalculateForce()</text>
<text text-anchor="start" x="294.79" y="-338.5" font-family="Helvetica,sans-Serif" font-size="10.00">+ void SetCircleVelocity()</text>
<text text-anchor="start" x="294.79" y="-327.5" font-family="Helvetica,sans-Serif" font-size="10.00">+ void SetCircleVelocityMenu()</text>
<text text-anchor="start" x="294.79" y="-316.5" font-family="Helvetica,sans-Serif" font-size="10.00"># virtual void Start()</text>
<text text-anchor="start" x="294.79" y="-305.5" font-family="Helvetica,sans-Serif" font-size="10.00"># void Generate()</text>
<text text-anchor="start" x="294.79" y="-294.5" font-family="Helvetica,sans-Serif" font-size="10.00"># virtual void FixedUpdate()</text>
<text text-anchor="start" x="294.79" y="-283.5" font-family="Helvetica,sans-Serif" font-size="10.00"># virtual void SetMass()</text>
</a>
</g>
</g>
<!-- Node2&#45;&gt;Node5 -->
<g id="edge8" class="edge">
<title>Node2&#45;&gt;Node5</title>
<path fill="none" stroke="midnightblue" d="M224.88,-897.4C241.28,-880.44 259.62,-859.02 272.29,-837 277.3,-828.3 282.09,-819.31 286.66,-810.1"/>
<polygon fill="none" stroke="midnightblue" points="222.05,-895.28 217.51,-904.86 227.03,-900.2 222.05,-895.28"/>
</g>
<!-- Node3&#45;&gt;Node1 -->
<g id="edge2" class="edge">
<title>Node3&#45;&gt;Node1</title>
<path fill="none" stroke="#404040" d="M90.66,-68.74C90.53,-78.75 92.08,-89.36 97.29,-98 109.54,-118.32 129.58,-133.41 150.48,-144.45"/>
<polygon fill="none" stroke="#404040" points="150.68,-144.55 157.83,-143.61 161.44,-149.85 154.29,-150.79 150.68,-144.55"/>
<text text-anchor="middle" x="153.29" y="-90" font-family="Helvetica,sans-Serif" font-size="10.00"> +astralBodyPlacementUI</text>
</g>
<!-- Node4&#45;&gt;Node1 -->
<g id="edge5" class="edge">
<title>Node4&#45;&gt;Node1</title>
<path fill="none" stroke="#404040" d="M168.56,-435.88C179.99,-379.22 194.88,-309.18 210.29,-247 210.82,-244.87 211.37,-242.71 211.93,-240.53"/>
<polygon fill="none" stroke="#404040" points="211.97,-240.37 209.65,-233.55 215.05,-228.77 217.38,-235.6 211.97,-240.37"/>
<text text-anchor="middle" x="227.29" y="-250" font-family="Helvetica,sans-Serif" font-size="10.00"> +orbits</text>
</g>
<!-- Node5&#45;&gt;Node1 -->
<g id="edge7" class="edge">
<title>Node5&#45;&gt;Node1</title>
<path fill="none" stroke="#404040" d="M286.66,-281.99C282.01,-270.09 277.21,-258.37 272.29,-247 271.23,-244.55 270.12,-242.07 268.95,-239.59"/>
<polygon fill="none" stroke="#404040" points="268.89,-239.46 262.66,-235.83 263.62,-228.69 269.85,-232.32 268.89,-239.46"/>
<text text-anchor="middle" x="305.79" y="-250" font-family="Helvetica,sans-Serif" font-size="10.00"> +placePrefab</text>
</g>
<!-- Node6 -->
<g id="node6" class="node">
<title>Node6</title>
<g id="a_node6"><a xlink:href="interface_space_physic_1_1_i_traceable.html" target="_top" xlink:title="可追踪接口">
<polygon fill="white" stroke="black" points="287.29,-855.5 287.29,-1011.5 447.29,-1011.5 447.29,-855.5 287.29,-855.5"/>
<text text-anchor="middle" x="367.29" y="-999.5" font-family="Helvetica,sans-Serif" font-size="10.00">ITraceable</text>
<polyline fill="none" stroke="black" points="287.29,-992.5 447.29,-992.5 "/>
<text text-anchor="middle" x="367.29" y="-980.5" font-family="Helvetica,sans-Serif" font-size="10.00"> </text>
<polyline fill="none" stroke="black" points="287.29,-973.5 447.29,-973.5 "/>
<text text-anchor="start" x="295.29" y="-961.5" font-family="Helvetica,sans-Serif" font-size="10.00">+ Transform GetTransform()</text>
<text text-anchor="start" x="295.29" y="-950.5" font-family="Helvetica,sans-Serif" font-size="10.00">+ Vector3 GetPosition()</text>
<text text-anchor="start" x="295.29" y="-939.5" font-family="Helvetica,sans-Serif" font-size="10.00">+ GameObject GetGameObject()</text>
<text text-anchor="start" x="295.29" y="-928.5" font-family="Helvetica,sans-Serif" font-size="10.00">+ bool GetEnableTracing()</text>
<text text-anchor="start" x="295.29" y="-917.5" font-family="Helvetica,sans-Serif" font-size="10.00">+ float GetMass()</text>
<text text-anchor="start" x="295.29" y="-906.5" font-family="Helvetica,sans-Serif" font-size="10.00">+ Rigidbody GetRigidbody()</text>
<text text-anchor="start" x="295.29" y="-895.5" font-family="Helvetica,sans-Serif" font-size="10.00">+ Vector3 GetVelocity()</text>
<text text-anchor="start" x="295.29" y="-884.5" font-family="Helvetica,sans-Serif" font-size="10.00">+ List&lt; AstralBody &gt;</text>
<text text-anchor="start" x="295.29" y="-873.5" font-family="Helvetica,sans-Serif" font-size="10.00"> GetAffectedPlanets()</text>
<text text-anchor="start" x="295.29" y="-862.5" font-family="Helvetica,sans-Serif" font-size="10.00">+ AstralBody GetAstralBody()</text>
</a>
</g>
</g>
<!-- Node6&#45;&gt;Node5 -->
<g id="edge9" class="edge">
<title>Node6&#45;&gt;Node5</title>
<path fill="none" stroke="midnightblue" d="M367.29,-845.05C367.29,-836.27 367.29,-827.07 367.29,-817.57"/>
<polygon fill="none" stroke="midnightblue" points="363.79,-845.15 367.29,-855.15 370.79,-845.15 363.79,-845.15"/>
</g>
</g>
</svg>
