<?xml version="1.0" encoding="UTF-8" standalone="no"?>
<!DOCTYPE svg PUBLIC "-//W3C//DTD SVG 1.1//EN"
 "http://www.w3.org/Graphics/SVG/1.1/DTD/svg11.dtd">
<!-- Generated by graphviz version 2.47.1 (20210417.1919)
 -->
<!-- Title: Quiz.QuizAstralBody.UpdateHighCost Pages: 1 -->
<svg width="530pt" height="176pt"
 viewBox="0.00 0.00 530.00 176.00" xmlns="http://www.w3.org/2000/svg" xmlns:xlink="http://www.w3.org/1999/xlink">
<g id="graph0" class="graph" transform="scale(1 1) rotate(0) translate(4 172)">
<title>Quiz.QuizAstralBody.UpdateHighCost</title>
<polygon fill="white" stroke="transparent" points="-4,4 -4,-172 526,-172 526,4 -4,4"/>
<!-- Node1 -->
<g id="node1" class="node">
<title>Node1</title>
<g id="a_node1"><a xlink:title="更新独立天体数据">
<polygon fill="#bfbfbf" stroke="black" points="0,-46.5 0,-76.5 142,-76.5 142,-46.5 0,-46.5"/>
<text text-anchor="start" x="8" y="-64.5" font-family="Helvetica,sans-Serif" font-size="10.00">Quiz.QuizAstralBody.Update</text>
<text text-anchor="middle" x="71" y="-53.5" font-family="Helvetica,sans-Serif" font-size="10.00">HighCost</text>
</a>
</g>
</g>
<!-- Node2 -->
<g id="node2" class="node">
<title>Node2</title>
<g id="a_node2"><a xlink:href="class_space_physic_1_1_gravity_tracing.html#a02741a5f2ab9b583440a9ebba2e2d685" target="_top" xlink:title="获取轨道圆锥曲线">
<polygon fill="white" stroke="black" points="179,-71.5 179,-101.5 321,-101.5 321,-71.5 179,-71.5"/>
<text text-anchor="start" x="187" y="-89.5" font-family="Helvetica,sans-Serif" font-size="10.00">SpacePhysic.GravityTracing.</text>
<text text-anchor="middle" x="250" y="-78.5" font-family="Helvetica,sans-Serif" font-size="10.00">GetConicSection</text>
</a>
</g>
</g>
<!-- Node1&#45;&gt;Node2 -->
<g id="edge1" class="edge">
<title>Node1&#45;&gt;Node2</title>
<path fill="none" stroke="midnightblue" d="M142.21,-71.42C150.98,-72.65 159.99,-73.93 168.89,-75.19"/>
<polygon fill="midnightblue" stroke="midnightblue" points="168.48,-78.66 178.88,-76.6 169.46,-71.73 168.48,-78.66"/>
</g>
<!-- Node7 -->
<g id="node7" class="node">
<title>Node7</title>
<g id="a_node7"><a xlink:href="class_space_physic_1_1_astral_body.html#a49a47294cf00916a50c42a62cda119f0" target="_top" xlink:title=" ">
<polygon fill="white" stroke="black" points="178,-22.5 178,-52.5 322,-52.5 322,-22.5 178,-22.5"/>
<text text-anchor="start" x="186" y="-40.5" font-family="Helvetica,sans-Serif" font-size="10.00">SpacePhysic.AstralBody.Get</text>
<text text-anchor="middle" x="250" y="-29.5" font-family="Helvetica,sans-Serif" font-size="10.00">Velocity</text>
</a>
</g>
</g>
<!-- Node1&#45;&gt;Node7 -->
<g id="edge6" class="edge">
<title>Node1&#45;&gt;Node7</title>
<path fill="none" stroke="midnightblue" d="M142.21,-51.98C150.6,-50.84 159.23,-49.67 167.76,-48.52"/>
<polygon fill="midnightblue" stroke="midnightblue" points="168.28,-51.98 177.72,-47.17 167.34,-45.04 168.28,-51.98"/>
</g>
<!-- Node3 -->
<g id="node3" class="node">
<title>Node3</title>
<g id="a_node3"><a xlink:href="interface_space_physic_1_1_i_traceable.html#af984b78fd839b5b3d34758ca05353213" target="_top" xlink:title=" ">
<polygon fill="white" stroke="black" points="370,-137.5 370,-167.5 510,-167.5 510,-137.5 370,-137.5"/>
<text text-anchor="start" x="378" y="-155.5" font-family="Helvetica,sans-Serif" font-size="10.00">SpacePhysic.ITraceable.Get</text>
<text text-anchor="middle" x="440" y="-144.5" font-family="Helvetica,sans-Serif" font-size="10.00">AffectedPlanets</text>
</a>
</g>
</g>
<!-- Node2&#45;&gt;Node3 -->
<g id="edge2" class="edge">
<title>Node2&#45;&gt;Node3</title>
<path fill="none" stroke="midnightblue" d="M288.41,-101.54C308.85,-109.57 334.68,-119.44 358,-127.5 364.54,-129.76 371.41,-132.03 378.27,-134.24"/>
<polygon fill="midnightblue" stroke="midnightblue" points="377.69,-137.72 388.28,-137.41 379.8,-131.05 377.69,-137.72"/>
</g>
<!-- Node4 -->
<g id="node4" class="node">
<title>Node4</title>
<g id="a_node4"><a xlink:href="interface_space_physic_1_1_i_traceable.html#a7a61c09595bedc638b0268d8277e8873" target="_top" xlink:title=" ">
<polygon fill="white" stroke="black" points="358,-99 358,-118 522,-118 522,-99 358,-99"/>
<text text-anchor="middle" x="440" y="-106" font-family="Helvetica,sans-Serif" font-size="10.00">SpacePhysic.ITraceable.GetMass</text>
</a>
</g>
</g>
<!-- Node2&#45;&gt;Node4 -->
<g id="edge3" class="edge">
<title>Node2&#45;&gt;Node4</title>
<path fill="none" stroke="midnightblue" d="M321,-94.69C329.73,-95.71 338.75,-96.77 347.73,-97.82"/>
<polygon fill="midnightblue" stroke="midnightblue" points="347.5,-101.32 357.84,-99 348.32,-94.36 347.5,-101.32"/>
</g>
<!-- Node5 -->
<g id="node5" class="node">
<title>Node5</title>
<g id="a_node5"><a xlink:href="interface_space_physic_1_1_i_traceable.html#a53c8890effec964fa2245908e79016c4" target="_top" xlink:title=" ">
<polygon fill="white" stroke="black" points="370,-49.5 370,-79.5 510,-79.5 510,-49.5 370,-49.5"/>
<text text-anchor="start" x="378" y="-67.5" font-family="Helvetica,sans-Serif" font-size="10.00">SpacePhysic.ITraceable.Get</text>
<text text-anchor="middle" x="440" y="-56.5" font-family="Helvetica,sans-Serif" font-size="10.00">Transform</text>
</a>
</g>
</g>
<!-- Node2&#45;&gt;Node5 -->
<g id="edge4" class="edge">
<title>Node2&#45;&gt;Node5</title>
<path fill="none" stroke="midnightblue" d="M321,-78.31C333.61,-76.83 346.83,-75.29 359.67,-73.78"/>
<polygon fill="midnightblue" stroke="midnightblue" points="360.35,-77.23 369.88,-72.59 359.54,-70.28 360.35,-77.23"/>
</g>
<!-- Node6 -->
<g id="node6" class="node">
<title>Node6</title>
<g id="a_node6"><a xlink:href="interface_space_physic_1_1_i_traceable.html#a8c908476fbe6acf4aaf2e7594537dddb" target="_top" xlink:title=" ">
<polygon fill="white" stroke="black" points="370,-0.5 370,-30.5 510,-30.5 510,-0.5 370,-0.5"/>
<text text-anchor="start" x="378" y="-18.5" font-family="Helvetica,sans-Serif" font-size="10.00">SpacePhysic.ITraceable.Get</text>
<text text-anchor="middle" x="440" y="-7.5" font-family="Helvetica,sans-Serif" font-size="10.00">Velocity</text>
</a>
</g>
</g>
<!-- Node2&#45;&gt;Node6 -->
<g id="edge5" class="edge">
<title>Node2&#45;&gt;Node6</title>
<path fill="none" stroke="midnightblue" d="M300.45,-71.37C307.78,-68.68 315.16,-65.7 322,-62.5 338.99,-54.56 340.91,-48.21 358,-40.5 363.03,-38.23 368.32,-36.09 373.7,-34.09"/>
<polygon fill="midnightblue" stroke="midnightblue" points="375.16,-37.28 383.42,-30.64 372.82,-30.68 375.16,-37.28"/>
</g>
</g>
</svg>
