<?xml version="1.0" encoding="UTF-8" standalone="no"?>
<!DOCTYPE svg PUBLIC "-//W3C//DTD SVG 1.1//EN"
 "http://www.w3.org/Graphics/SVG/1.1/DTD/svg11.dtd">
<!-- Generated by graphviz version 2.47.1 (20210417.1919)
 -->
<!-- Title: CustomUI.AstralBodyEditor.OrbitPanelUI Pages: 1 -->
<!--zoomable 1119 -->
<svg id="main" version="1.1" xmlns="http://www.w3.org/2000/svg" xmlns:xlink="http://www.w3.org/1999/xlink" xml:space="preserve" onload="init(evt)">
<style type="text/css"><![CDATA[
.edge:hover path { stroke: red; }
.edge:hover polygon { stroke: red; fill: red; }
]]></style>
<script type="text/javascript"><![CDATA[
var edges = document.getElementsByTagName('g');
if (edges && edges.length) {
  for (var i=0;i<edges.length;i++) {
    if (edges[i].id.substr(0,4)=='edge') {
      edges[i].setAttribute('class','edge');
    }
  }
}
]]></script>
        <defs>
                <circle id="rim" cx="0" cy="0" r="7"/>
                <circle id="rim2" cx="0" cy="0" r="3.5"/>
                <g id="zoomPlus">
                        <use xlink:href="#rim" fill="#404040">
                                <set attributeName="fill" to="#808080" begin="zoomplus.mouseover" end="zoomplus.mouseout"/>
                        </use>
                        <path d="M-4,0h8M0,-4v8" fill="none" stroke="white" stroke-width="1.5" pointer-events="none"/>
                </g>
                <g id="zoomMin">
                        <use xlink:href="#rim" fill="#404040">
                                <set attributeName="fill" to="#808080" begin="zoomminus.mouseover" end="zoomminus.mouseout"/>
                        </use>
                        <path d="M-4,0h8" fill="none" stroke="white" stroke-width="1.5" pointer-events="none"/>
                </g>
                <g id="dirArrow">
                        <path fill="none" stroke="white" stroke-width="1.5" d="M0,-3.0v7 M-2.5,-0.5L0,-3.0L2.5,-0.5"/>
                </g>
               <g id="resetDef">
                       <use xlink:href="#rim2" fill="#404040">
                               <set attributeName="fill" to="#808080" begin="reset.mouseover" end="reset.mouseout"/>
                       </use>
               </g>
        </defs>

<script type="text/javascript">
var viewWidth = 535;
var viewHeight = 1119;
var sectionId = 'dynsection-1';
</script>
<script xlink:href="svgpan.js"/>
<svg id="graph" class="graph">
<g id="viewport">
<title>CustomUI.AstralBodyEditor.OrbitPanelUI</title>
<polygon fill="white" stroke="transparent" points="-4,4 -4,-1115 531.22,-1115 531.22,4 -4,4"/>
<!-- Node1 -->
<g id="node1" class="node">
<title>Node1</title>
<g id="a_node1"><a xlink:title=" ">
<polygon fill="#bfbfbf" stroke="black" points="340.5,-0.5 340.5,-101.5 480.5,-101.5 480.5,-0.5 340.5,-0.5"/>
<text text-anchor="start" x="348.5" y="-89.5" font-family="Helvetica,sans-Serif" font-size="10.00">CustomUI.AstralBodyEditor.</text>
<text text-anchor="middle" x="410.5" y="-78.5" font-family="Helvetica,sans-Serif" font-size="10.00">OrbitPanelUI</text>
<polyline fill="none" stroke="black" points="340.5,-71.5 480.5,-71.5 "/>
<text text-anchor="start" x="348.5" y="-59.5" font-family="Helvetica,sans-Serif" font-size="10.00">+ GameObject contentPanel</text>
<text text-anchor="start" x="348.5" y="-48.5" font-family="Helvetica,sans-Serif" font-size="10.00">+ bool isConicSection</text>
<text text-anchor="start" x="348.5" y="-37.5" font-family="Helvetica,sans-Serif" font-size="10.00">+ GameObject nullPanel</text>
<text text-anchor="start" x="348.5" y="-26.5" font-family="Helvetica,sans-Serif" font-size="10.00">+ AstralBody astralBody</text>
<polyline fill="none" stroke="black" points="340.5,-19.5 480.5,-19.5 "/>
<text text-anchor="middle" x="410.5" y="-7.5" font-family="Helvetica,sans-Serif" font-size="10.00"> </text>
</a>
</g>
</g>
<!-- Node2 -->
<g id="node2" class="node">
<title>Node2</title>
<g id="a_node2"><a xlink:title=" ">
<polygon fill="white" stroke="#bfbfbf" points="315,-1004 315,-1061 398,-1061 398,-1004 315,-1004"/>
<text text-anchor="middle" x="356.5" y="-1049" font-family="Helvetica,sans-Serif" font-size="10.00">MonoBehaviour</text>
<polyline fill="none" stroke="#bfbfbf" points="315,-1042 398,-1042 "/>
<text text-anchor="middle" x="356.5" y="-1030" font-family="Helvetica,sans-Serif" font-size="10.00"> </text>
<polyline fill="none" stroke="#bfbfbf" points="315,-1023 398,-1023 "/>
<text text-anchor="middle" x="356.5" y="-1011" font-family="Helvetica,sans-Serif" font-size="10.00"> </text>
</a>
</g>
</g>
<!-- Node2&#45;&gt;Node1 -->
<g id="edge1" class="edge">
<title>Node2&#45;&gt;Node1</title>
<path fill="none" stroke="midnightblue" d="M395.73,-996.8C416.62,-975.9 440.6,-947.48 453.5,-917 559.85,-665.72 500.15,-578.54 513.5,-306 516.91,-236.31 541.17,-213.06 513.5,-149 505.85,-131.3 493.21,-115.33 479.36,-101.7"/>
<polygon fill="none" stroke="midnightblue" points="393.2,-994.38 388.5,-1003.87 398.1,-999.39 393.2,-994.38"/>
</g>
<!-- Node3 -->
<g id="node3" class="node">
<title>Node3</title>
<g id="a_node3"><a xlink:href="class_custom_u_i_1_1_astral_body_editor_1_1_orbit_graph_u_i.html" target="_top" xlink:title=" ">
<polygon fill="white" stroke="black" points="255,-149.5 255,-305.5 398,-305.5 398,-149.5 255,-149.5"/>
<text text-anchor="start" x="263" y="-293.5" font-family="Helvetica,sans-Serif" font-size="10.00">CustomUI.AstralBodyEditor.</text>
<text text-anchor="middle" x="326.5" y="-282.5" font-family="Helvetica,sans-Serif" font-size="10.00">OrbitGraphUI</text>
<polyline fill="none" stroke="black" points="255,-275.5 398,-275.5 "/>
<text text-anchor="start" x="263" y="-263.5" font-family="Helvetica,sans-Serif" font-size="10.00">+ float conHeight</text>
<text text-anchor="start" x="263" y="-252.5" font-family="Helvetica,sans-Serif" font-size="10.00">+ Image ellipseImage</text>
<text text-anchor="start" x="263" y="-241.5" font-family="Helvetica,sans-Serif" font-size="10.00">+ Image fillImage</text>
<text text-anchor="start" x="263" y="-230.5" font-family="Helvetica,sans-Serif" font-size="10.00">+ RectTransform fillMask</text>
<text text-anchor="start" x="263" y="-219.5" font-family="Helvetica,sans-Serif" font-size="10.00">+ Image leftFociImage</text>
<text text-anchor="start" x="263" y="-208.5" font-family="Helvetica,sans-Serif" font-size="10.00">+ Image oriImage</text>
<text text-anchor="start" x="263" y="-197.5" font-family="Helvetica,sans-Serif" font-size="10.00">+ Image rightFociImage</text>
<text text-anchor="start" x="263" y="-186.5" font-family="Helvetica,sans-Serif" font-size="10.00">+ Image targetImage</text>
<text text-anchor="start" x="263" y="-175.5" font-family="Helvetica,sans-Serif" font-size="10.00">+ Vector3 angularMomentum</text>
<polyline fill="none" stroke="black" points="255,-168.5 398,-168.5 "/>
<text text-anchor="start" x="263" y="-156.5" font-family="Helvetica,sans-Serif" font-size="10.00">+ void Init()</text>
</a>
</g>
</g>
<!-- Node2&#45;&gt;Node3 -->
<g id="edge3" class="edge">
<title>Node2&#45;&gt;Node3</title>
<path fill="none" stroke="midnightblue" d="M356.01,-993.7C354.59,-893.03 349.72,-610.11 337.5,-375 336.33,-352.46 334.65,-327.99 332.96,-305.63"/>
<polygon fill="none" stroke="midnightblue" points="352.52,-994.01 356.16,-1003.96 359.52,-993.92 352.52,-994.01"/>
</g>
<!-- Node6 -->
<g id="node6" class="node">
<title>Node6</title>
<g id="a_node6"><a xlink:href="class_space_physic_1_1_astral_body.html" target="_top" xlink:title="星体物理实体">
<polygon fill="white" stroke="black" points="0,-375.5 0,-916.5 161,-916.5 161,-375.5 0,-375.5"/>
<text text-anchor="middle" x="80.5" y="-904.5" font-family="Helvetica,sans-Serif" font-size="10.00">SpacePhysic.AstralBody</text>
<polyline fill="none" stroke="black" points="0,-897.5 161,-897.5 "/>
<text text-anchor="start" x="8" y="-885.5" font-family="Helvetica,sans-Serif" font-size="10.00">+ List&lt; AstralBody &gt;</text>
<text text-anchor="start" x="8" y="-874.5" font-family="Helvetica,sans-Serif" font-size="10.00"> affectedPlanets</text>
<text text-anchor="start" x="8" y="-863.5" font-family="Helvetica,sans-Serif" font-size="10.00">+ float affectRadius</text>
<text text-anchor="start" x="8" y="-852.5" font-family="Helvetica,sans-Serif" font-size="10.00">+ Vector3 angularVelocity</text>
<text text-anchor="start" x="8" y="-841.5" font-family="Helvetica,sans-Serif" font-size="10.00">+ List&lt; AstralBody &gt;</text>
<text text-anchor="start" x="8" y="-830.5" font-family="Helvetica,sans-Serif" font-size="10.00"> banAffectedPlanets</text>
<text text-anchor="start" x="8" y="-819.5" font-family="Helvetica,sans-Serif" font-size="10.00">+ SphereCollider defaultCollider</text>
<text text-anchor="start" x="8" y="-808.5" font-family="Helvetica,sans-Serif" font-size="10.00">+ bool enableAffect</text>
<text text-anchor="start" x="8" y="-797.5" font-family="Helvetica,sans-Serif" font-size="10.00">+ bool enableTracing</text>
<text text-anchor="start" x="8" y="-786.5" font-family="Helvetica,sans-Serif" font-size="10.00">+ Vector3 oriVelocity</text>
<text text-anchor="start" x="8" y="-775.5" font-family="Helvetica,sans-Serif" font-size="10.00">+ SphereCollider triggerCollider</text>
<text text-anchor="start" x="8" y="-764.5" font-family="Helvetica,sans-Serif" font-size="10.00">+ UnityEvent&lt; Vector3</text>
<text text-anchor="start" x="8" y="-753.5" font-family="Helvetica,sans-Serif" font-size="10.00"> &gt; velocityChangedEvent</text>
<text text-anchor="start" x="8" y="-742.5" font-family="Helvetica,sans-Serif" font-size="10.00">+ float? Mass</text>
<text text-anchor="start" x="8" y="-731.5" font-family="Helvetica,sans-Serif" font-size="10.00">+ Rigidbody astralBodyRigidbody</text>
<text text-anchor="start" x="8" y="-720.5" font-family="Helvetica,sans-Serif" font-size="10.00">+ Vector3 Force</text>
<text text-anchor="start" x="8" y="-709.5" font-family="Helvetica,sans-Serif" font-size="10.00">+ float gravity</text>
<text text-anchor="start" x="8" y="-698.5" font-family="Helvetica,sans-Serif" font-size="10.00">+ int meshNum</text>
<text text-anchor="start" x="8" y="-687.5" font-family="Helvetica,sans-Serif" font-size="10.00">+ float size</text>
<text text-anchor="start" x="8" y="-676.5" font-family="Helvetica,sans-Serif" font-size="10.00">+ double realMass</text>
<text text-anchor="start" x="8" y="-665.5" font-family="Helvetica,sans-Serif" font-size="10.00">+ double density</text>
<text text-anchor="start" x="8" y="-654.5" font-family="Helvetica,sans-Serif" font-size="10.00">+ Vector3 lastVelocity</text>
<text text-anchor="start" x="8" y="-643.5" font-family="Helvetica,sans-Serif" font-size="10.00">+ bool isLoadDone</text>
<polyline fill="none" stroke="black" points="0,-636.5 161,-636.5 "/>
<text text-anchor="start" x="8" y="-624.5" font-family="Helvetica,sans-Serif" font-size="10.00">+ virtual void OnCollision</text>
<text text-anchor="start" x="8" y="-613.5" font-family="Helvetica,sans-Serif" font-size="10.00">Enter(Collision other)</text>
<text text-anchor="start" x="8" y="-602.5" font-family="Helvetica,sans-Serif" font-size="10.00">+ Transform GetTransform()</text>
<text text-anchor="start" x="8" y="-591.5" font-family="Helvetica,sans-Serif" font-size="10.00">+ Vector3 GetPosition()</text>
<text text-anchor="start" x="8" y="-580.5" font-family="Helvetica,sans-Serif" font-size="10.00">+ GameObject GetGameObject()</text>
<text text-anchor="start" x="8" y="-569.5" font-family="Helvetica,sans-Serif" font-size="10.00">+ bool GetEnableTracing()</text>
<text text-anchor="start" x="8" y="-558.5" font-family="Helvetica,sans-Serif" font-size="10.00">+ virtual float GetMass()</text>
<text text-anchor="start" x="8" y="-547.5" font-family="Helvetica,sans-Serif" font-size="10.00">+ Rigidbody GetRigidbody()</text>
<text text-anchor="start" x="8" y="-536.5" font-family="Helvetica,sans-Serif" font-size="10.00">+ Vector3 GetVelocity()</text>
<text text-anchor="start" x="8" y="-525.5" font-family="Helvetica,sans-Serif" font-size="10.00">+ List&lt; AstralBody &gt;</text>
<text text-anchor="start" x="8" y="-514.5" font-family="Helvetica,sans-Serif" font-size="10.00"> GetAffectedPlanets()</text>
<text text-anchor="start" x="8" y="-503.5" font-family="Helvetica,sans-Serif" font-size="10.00">+ AstralBody GetAstralBody()</text>
<text text-anchor="start" x="8" y="-492.5" font-family="Helvetica,sans-Serif" font-size="10.00">+ void ChangeVelocity</text>
<text text-anchor="start" x="8" y="-481.5" font-family="Helvetica,sans-Serif" font-size="10.00">(Vector3 velocity)</text>
<text text-anchor="start" x="8" y="-470.5" font-family="Helvetica,sans-Serif" font-size="10.00">+ void ChangeVelocity</text>
<text text-anchor="start" x="8" y="-459.5" font-family="Helvetica,sans-Serif" font-size="10.00">(double realSpeed)</text>
<text text-anchor="start" x="8" y="-448.5" font-family="Helvetica,sans-Serif" font-size="10.00">+ Vector3 CalculateForce()</text>
<text text-anchor="start" x="8" y="-437.5" font-family="Helvetica,sans-Serif" font-size="10.00">+ void SetCircleVelocity()</text>
<text text-anchor="start" x="8" y="-426.5" font-family="Helvetica,sans-Serif" font-size="10.00">+ void SetCircleVelocityMenu()</text>
<text text-anchor="start" x="8" y="-415.5" font-family="Helvetica,sans-Serif" font-size="10.00"># virtual void Start()</text>
<text text-anchor="start" x="8" y="-404.5" font-family="Helvetica,sans-Serif" font-size="10.00"># void Generate()</text>
<text text-anchor="start" x="8" y="-393.5" font-family="Helvetica,sans-Serif" font-size="10.00"># virtual void FixedUpdate()</text>
<text text-anchor="start" x="8" y="-382.5" font-family="Helvetica,sans-Serif" font-size="10.00"># virtual void SetMass()</text>
</a>
</g>
</g>
<!-- Node2&#45;&gt;Node6 -->
<g id="edge7" class="edge">
<title>Node2&#45;&gt;Node6</title>
<path fill="none" stroke="midnightblue" d="M305.54,-1011.84C263.73,-993.28 205.87,-961.61 170.5,-917 167.28,-912.93 164.17,-908.75 161.17,-904.46"/>
<polygon fill="none" stroke="midnightblue" points="304.16,-1015.06 314.73,-1015.83 306.95,-1008.64 304.16,-1015.06"/>
</g>
<!-- Node3&#45;&gt;Node1 -->
<g id="edge2" class="edge">
<title>Node3&#45;&gt;Node1</title>
<path fill="none" stroke="#404040" d="M358.74,-149.29C363.21,-139.36 367.86,-129.39 372.5,-120 373.69,-117.59 374.93,-115.14 376.19,-112.67"/>
<polygon fill="none" stroke="#404040" points="376.31,-112.45 375.57,-105.27 381.9,-101.83 382.65,-109 376.31,-112.45"/>
<text text-anchor="middle" x="404.5" y="-123" font-family="Helvetica,sans-Serif" font-size="10.00"> +orbitGraphUI</text>
</g>
<!-- Node4 -->
<g id="node4" class="node">
<title>Node4</title>
<g id="a_node4"><a xlink:href="class_static_classes_1_1_math_plus_1_1_conic_section.html" target="_top" xlink:title="圆锥曲线">
<polygon fill="white" stroke="black" points="179,-480 179,-812 328,-812 328,-480 179,-480"/>
<text text-anchor="start" x="187" y="-800" font-family="Helvetica,sans-Serif" font-size="10.00">StaticClasses.MathPlus.Conic</text>
<text text-anchor="middle" x="253.5" y="-789" font-family="Helvetica,sans-Serif" font-size="10.00">Section</text>
<polyline fill="none" stroke="black" points="179,-782 328,-782 "/>
<text text-anchor="start" x="187" y="-770" font-family="Helvetica,sans-Serif" font-size="10.00">+ float a</text>
<text text-anchor="start" x="187" y="-759" font-family="Helvetica,sans-Serif" font-size="10.00">+ float angle</text>
<text text-anchor="start" x="187" y="-748" font-family="Helvetica,sans-Serif" font-size="10.00">+ float b</text>
<text text-anchor="start" x="187" y="-737" font-family="Helvetica,sans-Serif" font-size="10.00">+ float c</text>
<text text-anchor="start" x="187" y="-726" font-family="Helvetica,sans-Serif" font-size="10.00">+ float d</text>
<text text-anchor="start" x="187" y="-715" font-family="Helvetica,sans-Serif" font-size="10.00">+ float e</text>
<text text-anchor="start" x="187" y="-704" font-family="Helvetica,sans-Serif" font-size="10.00">+ float eccentricity</text>
<text text-anchor="start" x="187" y="-693" font-family="Helvetica,sans-Serif" font-size="10.00">+ float f</text>
<text text-anchor="start" x="187" y="-682" font-family="Helvetica,sans-Serif" font-size="10.00">+ float focalLength</text>
<text text-anchor="start" x="187" y="-671" font-family="Helvetica,sans-Serif" font-size="10.00">+ Vector2 geoCenter</text>
<text text-anchor="start" x="187" y="-660" font-family="Helvetica,sans-Serif" font-size="10.00">+ bool isEllipse</text>
<text text-anchor="start" x="187" y="-649" font-family="Helvetica,sans-Serif" font-size="10.00">+ float semiMajorAxis</text>
<text text-anchor="start" x="187" y="-638" font-family="Helvetica,sans-Serif" font-size="10.00">+ float semiMinorAxis</text>
<polyline fill="none" stroke="black" points="179,-631 328,-631 "/>
<text text-anchor="start" x="187" y="-619" font-family="Helvetica,sans-Serif" font-size="10.00">+ ConicSection(float</text>
<text text-anchor="start" x="187" y="-608" font-family="Helvetica,sans-Serif" font-size="10.00"> a, float b, float c,</text>
<text text-anchor="start" x="187" y="-597" font-family="Helvetica,sans-Serif" font-size="10.00"> float d, float e, float f)</text>
<text text-anchor="start" x="187" y="-586" font-family="Helvetica,sans-Serif" font-size="10.00">+ ConicSection(float</text>
<text text-anchor="start" x="187" y="-575" font-family="Helvetica,sans-Serif" font-size="10.00"> a, float b, float c,</text>
<text text-anchor="start" x="187" y="-564" font-family="Helvetica,sans-Serif" font-size="10.00"> float theta, Vector2</text>
<text text-anchor="start" x="187" y="-553" font-family="Helvetica,sans-Serif" font-size="10.00"> geoCenter)</text>
<text text-anchor="start" x="187" y="-542" font-family="Helvetica,sans-Serif" font-size="10.00">+ float[] GetY(float x)</text>
<text text-anchor="start" x="187" y="-531" font-family="Helvetica,sans-Serif" font-size="10.00">+ float[] GetX(float y)</text>
<text text-anchor="start" x="187" y="-520" font-family="Helvetica,sans-Serif" font-size="10.00">+ Vector2 GetPolarPos</text>
<text text-anchor="start" x="187" y="-509" font-family="Helvetica,sans-Serif" font-size="10.00">(float ag)</text>
<text text-anchor="start" x="187" y="-498" font-family="Helvetica,sans-Serif" font-size="10.00">+ float GetT(float m)</text>
<text text-anchor="start" x="187" y="-487" font-family="Helvetica,sans-Serif" font-size="10.00">+ override string ToString()</text>
</a>
</g>
</g>
<!-- Node4&#45;&gt;Node3 -->
<g id="edge4" class="edge">
<title>Node4&#45;&gt;Node3</title>
<path fill="none" stroke="#404040" d="M259.35,-479.94C263.83,-429.31 271.49,-373.84 284.5,-324 285.09,-321.73 285.73,-319.45 286.41,-317.16"/>
<polygon fill="none" stroke="#404040" points="286.43,-317.1 284.47,-310.16 290.13,-305.68 292.08,-312.63 286.43,-317.1"/>
<text text-anchor="middle" x="298.5" y="-338" font-family="Helvetica,sans-Serif" font-size="10.00"> +orbit</text>
</g>
<!-- Node5 -->
<g id="node5" class="node">
<title>Node5</title>
<g id="a_node5"><a xlink:title=" ">
<polygon fill="white" stroke="#bfbfbf" points="409,-617.5 409,-674.5 444,-674.5 444,-617.5 409,-617.5"/>
<text text-anchor="middle" x="426.5" y="-662.5" font-family="Helvetica,sans-Serif" font-size="10.00">Text</text>
<polyline fill="none" stroke="#bfbfbf" points="409,-655.5 444,-655.5 "/>
<text text-anchor="middle" x="426.5" y="-643.5" font-family="Helvetica,sans-Serif" font-size="10.00"> </text>
<polyline fill="none" stroke="#bfbfbf" points="409,-636.5 444,-636.5 "/>
<text text-anchor="middle" x="426.5" y="-624.5" font-family="Helvetica,sans-Serif" font-size="10.00"> </text>
</a>
</g>
</g>
<!-- Node5&#45;&gt;Node1 -->
<g id="edge9" class="edge">
<title>Node5&#45;&gt;Node1</title>
<path fill="none" stroke="#404040" d="M430.89,-617.36C442.54,-538.72 471.1,-307.36 436.5,-120 436.08,-117.72 435.58,-115.41 435.03,-113.1"/>
<polygon fill="none" stroke="#404040" points="435.03,-113.09 429.56,-108.39 431.8,-101.53 437.27,-106.24 435.03,-113.09"/>
<text text-anchor="middle" x="481" y="-263.5" font-family="Helvetica,sans-Serif" font-size="10.00"> +angle</text>
<text text-anchor="middle" x="481" y="-252.5" font-family="Helvetica,sans-Serif" font-size="10.00">+eccentricity</text>
<text text-anchor="middle" x="481" y="-241.5" font-family="Helvetica,sans-Serif" font-size="10.00">+focalLength</text>
<text text-anchor="middle" x="481" y="-230.5" font-family="Helvetica,sans-Serif" font-size="10.00">+geoCenter</text>
<text text-anchor="middle" x="481" y="-219.5" font-family="Helvetica,sans-Serif" font-size="10.00">+k</text>
<text text-anchor="middle" x="481" y="-208.5" font-family="Helvetica,sans-Serif" font-size="10.00">+majorAxis</text>
<text text-anchor="middle" x="481" y="-197.5" font-family="Helvetica,sans-Serif" font-size="10.00">+minorAxis</text>
<text text-anchor="middle" x="481" y="-186.5" font-family="Helvetica,sans-Serif" font-size="10.00">+period</text>
</g>
<!-- Node5&#45;&gt;Node3 -->
<g id="edge5" class="edge">
<title>Node5&#45;&gt;Node3</title>
<path fill="none" stroke="#404040" d="M423.57,-617.42C417.68,-567.69 402.18,-460.26 370.5,-375 367.31,-366.42 363.92,-365.49 360.5,-357 355.43,-344.42 350.9,-330.84 346.92,-317.38"/>
<polygon fill="none" stroke="#404040" points="346.86,-317.16 341.37,-312.49 343.57,-305.62 349.06,-310.29 346.86,-317.16"/>
<text text-anchor="middle" x="398.5" y="-349" font-family="Helvetica,sans-Serif" font-size="10.00"> +angularVelocity</text>
<text text-anchor="middle" x="398.5" y="-338" font-family="Helvetica,sans-Serif" font-size="10.00">+area</text>
<text text-anchor="middle" x="398.5" y="-327" font-family="Helvetica,sans-Serif" font-size="10.00">+distance</text>
</g>
<!-- Node6&#45;&gt;Node1 -->
<g id="edge10" class="edge">
<title>Node6&#45;&gt;Node1</title>
<path fill="none" stroke="#404040" d="M90.8,-375.48C105.45,-295.55 133.5,-212.5 185.5,-149 221.17,-105.45 280.09,-81 328.69,-67.55"/>
<polygon fill="none" stroke="#404040" points="328.87,-67.5 333.66,-62.1 340.48,-64.44 335.7,-69.84 328.87,-67.5"/>
<text text-anchor="middle" x="216" y="-225" font-family="Helvetica,sans-Serif" font-size="10.00"> +_astralBody</text>
</g>
<!-- Node6&#45;&gt;Node3 -->
<g id="edge6" class="edge">
<title>Node6&#45;&gt;Node3</title>
<path fill="none" stroke="#404040" d="M161,-391.97C164.07,-386.2 167.24,-380.53 170.5,-375 189.67,-342.52 218.17,-312.76 245.59,-288.67"/>
<polygon fill="none" stroke="#404040" points="245.73,-288.55 247.67,-281.6 254.83,-280.72 252.89,-287.67 245.73,-288.55"/>
<text text-anchor="middle" x="232.5" y="-338" font-family="Helvetica,sans-Serif" font-size="10.00"> +astralBody</text>
</g>
<!-- Node7 -->
<g id="node7" class="node">
<title>Node7</title>
<g id="a_node7"><a xlink:href="interface_space_physic_1_1_i_traceable.html" target="_top" xlink:title="可追踪接口">
<polygon fill="white" stroke="black" points="0.5,-954.5 0.5,-1110.5 160.5,-1110.5 160.5,-954.5 0.5,-954.5"/>
<text text-anchor="middle" x="80.5" y="-1098.5" font-family="Helvetica,sans-Serif" font-size="10.00">ITraceable</text>
<polyline fill="none" stroke="black" points="0.5,-1091.5 160.5,-1091.5 "/>
<text text-anchor="middle" x="80.5" y="-1079.5" font-family="Helvetica,sans-Serif" font-size="10.00"> </text>
<polyline fill="none" stroke="black" points="0.5,-1072.5 160.5,-1072.5 "/>
<text text-anchor="start" x="8.5" y="-1060.5" font-family="Helvetica,sans-Serif" font-size="10.00">+ Transform GetTransform()</text>
<text text-anchor="start" x="8.5" y="-1049.5" font-family="Helvetica,sans-Serif" font-size="10.00">+ Vector3 GetPosition()</text>
<text text-anchor="start" x="8.5" y="-1038.5" font-family="Helvetica,sans-Serif" font-size="10.00">+ GameObject GetGameObject()</text>
<text text-anchor="start" x="8.5" y="-1027.5" font-family="Helvetica,sans-Serif" font-size="10.00">+ bool GetEnableTracing()</text>
<text text-anchor="start" x="8.5" y="-1016.5" font-family="Helvetica,sans-Serif" font-size="10.00">+ float GetMass()</text>
<text text-anchor="start" x="8.5" y="-1005.5" font-family="Helvetica,sans-Serif" font-size="10.00">+ Rigidbody GetRigidbody()</text>
<text text-anchor="start" x="8.5" y="-994.5" font-family="Helvetica,sans-Serif" font-size="10.00">+ Vector3 GetVelocity()</text>
<text text-anchor="start" x="8.5" y="-983.5" font-family="Helvetica,sans-Serif" font-size="10.00">+ List&lt; AstralBody &gt;</text>
<text text-anchor="start" x="8.5" y="-972.5" font-family="Helvetica,sans-Serif" font-size="10.00"> GetAffectedPlanets()</text>
<text text-anchor="start" x="8.5" y="-961.5" font-family="Helvetica,sans-Serif" font-size="10.00">+ AstralBody GetAstralBody()</text>
</a>
</g>
</g>
<!-- Node7&#45;&gt;Node6 -->
<g id="edge8" class="edge">
<title>Node7&#45;&gt;Node6</title>
<path fill="none" stroke="midnightblue" d="M80.5,-944.05C80.5,-935.27 80.5,-926.07 80.5,-916.57"/>
<polygon fill="none" stroke="midnightblue" points="77,-944.15 80.5,-954.15 84,-944.15 77,-944.15"/>
</g>
</g>
</svg>
        <g id="navigator" transform="translate(0 0)" fill="#404254">
                <rect fill="#f2f5e9" fill-opacity="0.5" stroke="#606060" stroke-width=".5" x="0" y="0" width="60" height="60"/>
                <use id="zoomplus" xlink:href="#zoomPlus" x="17" y="9" onmousedown="handleZoom(evt,'in')"/>
                <use id="zoomminus" xlink:href="#zoomMin" x="42" y="9" onmousedown="handleZoom(evt,'out')"/>
                <use id="reset" xlink:href="#resetDef" x="30" y="36" onmousedown="handleReset()"/>
                <g id="arrowUp" xlink:href="#dirArrow" transform="translate(30 24)" onmousedown="handlePan(0,-1)">
                  <use xlink:href="#rim" fill="#404040">
                        <set attributeName="fill" to="#808080" begin="arrowUp.mouseover" end="arrowUp.mouseout"/>
                  </use>
                  <path fill="none" stroke="white" stroke-width="1.5" d="M0,-3.0v7 M-2.5,-0.5L0,-3.0L2.5,-0.5"/>
                </g>
                <g id="arrowRight" xlink:href="#dirArrow" transform="rotate(90) translate(36 -43)" onmousedown="handlePan(1,0)">
                  <use xlink:href="#rim" fill="#404040">
                        <set attributeName="fill" to="#808080" begin="arrowRight.mouseover" end="arrowRight.mouseout"/>
                  </use>
                  <path fill="none" stroke="white" stroke-width="1.5" d="M0,-3.0v7 M-2.5,-0.5L0,-3.0L2.5,-0.5"/>
                </g>
                <g id="arrowDown" xlink:href="#dirArrow" transform="rotate(180) translate(-30 -48)" onmousedown="handlePan(0,1)">
                  <use xlink:href="#rim" fill="#404040">
                        <set attributeName="fill" to="#808080" begin="arrowDown.mouseover" end="arrowDown.mouseout"/>
                  </use>
                  <path fill="none" stroke="white" stroke-width="1.5" d="M0,-3.0v7 M-2.5,-0.5L0,-3.0L2.5,-0.5"/>
                </g>
                <g id="arrowLeft" xlink:href="#dirArrow" transform="rotate(270) translate(-36 17)" onmousedown="handlePan(-1,0)">
                  <use xlink:href="#rim" fill="#404040">
                        <set attributeName="fill" to="#808080" begin="arrowLeft.mouseover" end="arrowLeft.mouseout"/>
                  </use>
                  <path fill="none" stroke="white" stroke-width="1.5" d="M0,-3.0v7 M-2.5,-0.5L0,-3.0L2.5,-0.5"/>
                </g>
        </g>
        <svg viewBox="0 0 15 15" width="100%" height="30px" preserveAspectRatio="xMaxYMin meet">
         <g id="arrow_out" transform="scale(0.3 0.3)">
          <a xlink:href="class_custom_u_i_1_1_astral_body_editor_1_1_orbit_panel_u_i__coll__graph_org.svg" target="_base">
           <rect id="button" ry="5" rx="5" y="6" x="6" height="38" width="38"
                fill="#f2f5e9" fill-opacity="0.5" stroke="#606060" stroke-width="1.0"/>
           <path id="arrow"
             d="M 11.500037,31.436501 C 11.940474,20.09759 22.043105,11.32322 32.158766,21.979434 L 37.068811,17.246167 C 37.068811,17.246167 37.088388,32 37.088388,32 L 22.160133,31.978069 C 22.160133,31.978069 26.997745,27.140456 26.997745,27.140456 C 18.528582,18.264221 13.291696,25.230495 11.500037,31.436501 z"
             style="fill:#404040;"/>
          </a>
         </g>
        </svg>
</svg>
