<?xml version="1.0" encoding="UTF-8" standalone="no"?>
<!DOCTYPE svg PUBLIC "-//W3C//DTD SVG 1.1//EN"
 "http://www.w3.org/Graphics/SVG/1.1/DTD/svg11.dtd">
<!-- Generated by graphviz version 2.47.1 (20210417.1919)
 -->
<!-- Title: CustomUI.Quiz.QuizUI Pages: 1 -->
<svg width="482pt" height="1935pt"
 viewBox="0.00 0.00 482.00 1935.00" xmlns="http://www.w3.org/2000/svg" xmlns:xlink="http://www.w3.org/1999/xlink">
<g id="graph0" class="graph" transform="scale(1 1) rotate(0) translate(4 1931)">
<title>CustomUI.Quiz.QuizUI</title>
<polygon fill="white" stroke="transparent" points="-4,4 -4,-1931 478,-1931 478,4 -4,4"/>
<!-- Node1 -->
<g id="node1" class="node">
<title>Node1</title>
<g id="a_node1"><a xlink:title=" ">
<polygon fill="#bfbfbf" stroke="black" points="72.5,-910.5 72.5,-1011.5 194.5,-1011.5 194.5,-910.5 72.5,-910.5"/>
<text text-anchor="middle" x="133.5" y="-999.5" font-family="Helvetica,sans-Serif" font-size="10.00">CustomUI.Quiz.QuizUI</text>
<polyline fill="none" stroke="black" points="72.5,-992.5 194.5,-992.5 "/>
<text text-anchor="start" x="80.5" y="-980.5" font-family="Helvetica,sans-Serif" font-size="10.00">+ Button confirm</text>
<text text-anchor="start" x="80.5" y="-969.5" font-family="Helvetica,sans-Serif" font-size="10.00">+ Slider quizSlider</text>
<text text-anchor="start" x="80.5" y="-958.5" font-family="Helvetica,sans-Serif" font-size="10.00">+ QuizType quizType</text>
<polyline fill="none" stroke="black" points="72.5,-951.5 194.5,-951.5 "/>
<text text-anchor="start" x="80.5" y="-939.5" font-family="Helvetica,sans-Serif" font-size="10.00">+ void Generate()</text>
<text text-anchor="start" x="80.5" y="-928.5" font-family="Helvetica,sans-Serif" font-size="10.00">+ void OnValueChange()</text>
<text text-anchor="start" x="80.5" y="-917.5" font-family="Helvetica,sans-Serif" font-size="10.00">+ void Confirm()</text>
</a>
</g>
</g>
<!-- Node3 -->
<g id="node3" class="node">
<title>Node3</title>
<g id="a_node3"><a xlink:href="class_quiz_1_1_quiz_solver.html" target="_top" xlink:title="解题管理">
<polygon fill="white" stroke="black" points="120.5,-0.5 120.5,-145.5 256.5,-145.5 256.5,-0.5 120.5,-0.5"/>
<text text-anchor="middle" x="188.5" y="-133.5" font-family="Helvetica,sans-Serif" font-size="10.00">Quiz.QuizSolver</text>
<polyline fill="none" stroke="black" points="120.5,-126.5 256.5,-126.5 "/>
<text text-anchor="start" x="128.5" y="-114.5" font-family="Helvetica,sans-Serif" font-size="10.00">+ UnityEvent answerEvent</text>
<text text-anchor="start" x="128.5" y="-103.5" font-family="Helvetica,sans-Serif" font-size="10.00">+ float radiusOffset</text>
<text text-anchor="start" x="128.5" y="-92.5" font-family="Helvetica,sans-Serif" font-size="10.00">+ UnityEvent resultEvent</text>
<text text-anchor="start" x="128.5" y="-81.5" font-family="Helvetica,sans-Serif" font-size="10.00">+ float waitTime</text>
<text text-anchor="start" x="128.5" y="-70.5" font-family="Helvetica,sans-Serif" font-size="10.00">+ bool isRight</text>
<text text-anchor="start" x="128.5" y="-59.5" font-family="Helvetica,sans-Serif" font-size="10.00">+ float tmpAnswer</text>
<text text-anchor="start" x="128.5" y="-48.5" font-family="Helvetica,sans-Serif" font-size="10.00">+ Reason reason</text>
<text text-anchor="start" x="128.5" y="-37.5" font-family="Helvetica,sans-Serif" font-size="10.00">+ bool isAnswered</text>
<polyline fill="none" stroke="black" points="120.5,-30.5 256.5,-30.5 "/>
<text text-anchor="start" x="128.5" y="-18.5" font-family="Helvetica,sans-Serif" font-size="10.00">+ string GetQuizSentence()</text>
<text text-anchor="start" x="128.5" y="-7.5" font-family="Helvetica,sans-Serif" font-size="10.00"># override void Start()</text>
</a>
</g>
</g>
<!-- Node1&#45;&gt;Node3 -->
<g id="edge9" class="edge">
<title>Node1&#45;&gt;Node3</title>
<path fill="none" stroke="#404040" d="M129.38,-910.19C121.85,-809.66 108.34,-575.43 127.5,-380 136.21,-291.17 149,-270.52 166.5,-183 168.17,-174.67 169.91,-165.98 171.65,-157.31"/>
<polygon fill="none" stroke="#404040" points="171.66,-157.29 168.92,-150.62 174.02,-145.52 176.76,-152.2 171.66,-157.29"/>
<text text-anchor="middle" x="146" y="-383" font-family="Helvetica,sans-Serif" font-size="10.00"> +quizUI</text>
</g>
<!-- Node2 -->
<g id="node2" class="node">
<title>Node2</title>
<g id="a_node2"><a xlink:title=" ">
<polygon fill="white" stroke="#bfbfbf" points="236,-1820 236,-1877 319,-1877 319,-1820 236,-1820"/>
<text text-anchor="middle" x="277.5" y="-1865" font-family="Helvetica,sans-Serif" font-size="10.00">MonoBehaviour</text>
<polyline fill="none" stroke="#bfbfbf" points="236,-1858 319,-1858 "/>
<text text-anchor="middle" x="277.5" y="-1846" font-family="Helvetica,sans-Serif" font-size="10.00"> </text>
<polyline fill="none" stroke="#bfbfbf" points="236,-1839 319,-1839 "/>
<text text-anchor="middle" x="277.5" y="-1827" font-family="Helvetica,sans-Serif" font-size="10.00"> </text>
</a>
</g>
</g>
<!-- Node2&#45;&gt;Node1 -->
<g id="edge1" class="edge">
<title>Node2&#45;&gt;Node1</title>
<path fill="none" stroke="midnightblue" d="M275.84,-1809.57C270.28,-1688.15 251.16,-1310.08 223.5,-1191 208.61,-1126.92 179.07,-1057.07 157.89,-1011.58"/>
<polygon fill="none" stroke="midnightblue" points="272.35,-1810.01 276.3,-1819.84 279.35,-1809.7 272.35,-1810.01"/>
</g>
<!-- Node6 -->
<g id="node6" class="node">
<title>Node6</title>
<g id="a_node6"><a xlink:href="class_xml_saver_1_1_scene_load_base.html" target="_top" xlink:title="存档加载管理">
<polygon fill="white" stroke="black" points="217,-800.5 217,-1121.5 428,-1121.5 428,-800.5 217,-800.5"/>
<text text-anchor="middle" x="322.5" y="-1109.5" font-family="Helvetica,sans-Serif" font-size="10.00">XmlSaver.SceneLoadBase&lt; T &gt;</text>
<polyline fill="none" stroke="black" points="217,-1102.5 428,-1102.5 "/>
<text text-anchor="start" x="225" y="-1090.5" font-family="Helvetica,sans-Serif" font-size="10.00">+ T astralBodyPrefab</text>
<text text-anchor="start" x="225" y="-1079.5" font-family="Helvetica,sans-Serif" font-size="10.00">+ T core</text>
<text text-anchor="start" x="225" y="-1068.5" font-family="Helvetica,sans-Serif" font-size="10.00">+ bool isLoadByPrefab</text>
<text text-anchor="start" x="225" y="-1057.5" font-family="Helvetica,sans-Serif" font-size="10.00">+ UnityEvent loadDoneEvent</text>
<text text-anchor="start" x="225" y="-1046.5" font-family="Helvetica,sans-Serif" font-size="10.00">+ string loadTarget</text>
<text text-anchor="start" x="225" y="-1035.5" font-family="Helvetica,sans-Serif" font-size="10.00">+ Transform OrbitRoot</text>
<text text-anchor="start" x="225" y="-1024.5" font-family="Helvetica,sans-Serif" font-size="10.00">+ bool isLoadDone</text>
<text text-anchor="start" x="225" y="-1013.5" font-family="Helvetica,sans-Serif" font-size="10.00"># List&lt; AstralBodyDict</text>
<text text-anchor="start" x="225" y="-1002.5" font-family="Helvetica,sans-Serif" font-size="10.00">&lt; T &gt; &gt; astralBodiesDict</text>
<text text-anchor="start" x="225" y="-991.5" font-family="Helvetica,sans-Serif" font-size="10.00"># List&lt; AstralBodyDataDict</text>
<text text-anchor="start" x="225" y="-980.5" font-family="Helvetica,sans-Serif" font-size="10.00">&lt; T &gt; &gt; _astralBodyStructDictList</text>
<polyline fill="none" stroke="black" points="217,-973.5 428,-973.5 "/>
<text text-anchor="start" x="225" y="-961.5" font-family="Helvetica,sans-Serif" font-size="10.00"># delegate void AstralBody</text>
<text text-anchor="start" x="225" y="-950.5" font-family="Helvetica,sans-Serif" font-size="10.00">DataDictProcessHandler</text>
<text text-anchor="start" x="225" y="-939.5" font-family="Helvetica,sans-Serif" font-size="10.00">(T prefab, AstralBodyDataDict</text>
<text text-anchor="start" x="225" y="-928.5" font-family="Helvetica,sans-Serif" font-size="10.00">&lt; T &gt; astralBodyDataDict, List</text>
<text text-anchor="start" x="225" y="-917.5" font-family="Helvetica,sans-Serif" font-size="10.00">&lt; AstralBodyDict&lt; T &gt;&gt; astralBodyDictList)</text>
<text text-anchor="start" x="225" y="-906.5" font-family="Helvetica,sans-Serif" font-size="10.00"># virtual void Start()</text>
<text text-anchor="start" x="225" y="-895.5" font-family="Helvetica,sans-Serif" font-size="10.00"># virtual void LoadScene</text>
<text text-anchor="start" x="225" y="-884.5" font-family="Helvetica,sans-Serif" font-size="10.00">(string fileName)</text>
<text text-anchor="start" x="225" y="-873.5" font-family="Helvetica,sans-Serif" font-size="10.00"># virtual void GenerateAstral</text>
<text text-anchor="start" x="225" y="-862.5" font-family="Helvetica,sans-Serif" font-size="10.00">BodiesWithPrefab()</text>
<text text-anchor="start" x="225" y="-851.5" font-family="Helvetica,sans-Serif" font-size="10.00"># virtual void GenerateAstral</text>
<text text-anchor="start" x="225" y="-840.5" font-family="Helvetica,sans-Serif" font-size="10.00">BodiesWithoutPrefab(AstralBodyData</text>
<text text-anchor="start" x="225" y="-829.5" font-family="Helvetica,sans-Serif" font-size="10.00">DictProcessHandler dataDictProcessHandler</text>
<text text-anchor="start" x="225" y="-818.5" font-family="Helvetica,sans-Serif" font-size="10.00">=null, AstralBodyDataDictProcessHandler</text>
<text text-anchor="start" x="225" y="-807.5" font-family="Helvetica,sans-Serif" font-size="10.00"> afterDictProcessHandler=null)</text>
</a>
</g>
</g>
<!-- Node2&#45;&gt;Node6 -->
<g id="edge6" class="edge">
<title>Node2&#45;&gt;Node6</title>
<path fill="none" stroke="midnightblue" d="M278.02,-1809.68C279.58,-1708.98 285.11,-1425.97 300.5,-1191 301.97,-1168.58 303.85,-1144.96 305.9,-1121.74"/>
<polygon fill="none" stroke="midnightblue" points="274.52,-1809.9 277.87,-1819.95 281.52,-1810.01 274.52,-1809.9"/>
</g>
<!-- Node7 -->
<g id="node7" class="node">
<title>Node7</title>
<g id="a_node7"><a xlink:href="class_space_physic_1_1_gravity_tracing.html" target="_top" xlink:title="引力追踪">
<polygon fill="white" stroke="black" points="309,-1351 309,-1573 474,-1573 474,-1351 309,-1351"/>
<text text-anchor="middle" x="391.5" y="-1561" font-family="Helvetica,sans-Serif" font-size="10.00">SpacePhysic.GravityTracing</text>
<polyline fill="none" stroke="black" points="309,-1554 474,-1554 "/>
<text text-anchor="start" x="317" y="-1542" font-family="Helvetica,sans-Serif" font-size="10.00">+ int sample</text>
<text text-anchor="start" x="317" y="-1531" font-family="Helvetica,sans-Serif" font-size="10.00">+ float timeScale</text>
<text text-anchor="start" x="317" y="-1520" font-family="Helvetica,sans-Serif" font-size="10.00">+ SplineComputer splineComputer</text>
<text text-anchor="start" x="317" y="-1509" font-family="Helvetica,sans-Serif" font-size="10.00">+ bool isFreezing</text>
<text text-anchor="start" x="317" y="-1498" font-family="Helvetica,sans-Serif" font-size="10.00">+ bool isShowOrbit</text>
<polyline fill="none" stroke="black" points="309,-1491 474,-1491 "/>
<text text-anchor="start" x="317" y="-1479" font-family="Helvetica,sans-Serif" font-size="10.00">+ void Awake()</text>
<text text-anchor="start" x="317" y="-1468" font-family="Helvetica,sans-Serif" font-size="10.00">+ void Dispatch()</text>
<text text-anchor="start" x="317" y="-1457" font-family="Helvetica,sans-Serif" font-size="10.00">+ void AddTracingTarget</text>
<text text-anchor="start" x="317" y="-1446" font-family="Helvetica,sans-Serif" font-size="10.00">(ITraceable traceable)</text>
<text text-anchor="start" x="317" y="-1435" font-family="Helvetica,sans-Serif" font-size="10.00">+ void Freeze(bool isFreezing)</text>
<text text-anchor="start" x="317" y="-1424" font-family="Helvetica,sans-Serif" font-size="10.00">+ void RemoveAstralBody</text>
<text text-anchor="start" x="317" y="-1413" font-family="Helvetica,sans-Serif" font-size="10.00">(AstralBody astralBody)</text>
<text text-anchor="start" x="317" y="-1402" font-family="Helvetica,sans-Serif" font-size="10.00">+ ConicSection GetConicSection</text>
<text text-anchor="start" x="317" y="-1391" font-family="Helvetica,sans-Serif" font-size="10.00">(ITraceable astralBody)</text>
<text text-anchor="start" x="317" y="-1380" font-family="Helvetica,sans-Serif" font-size="10.00">+ void DrawMathOrbit</text>
<text text-anchor="start" x="317" y="-1369" font-family="Helvetica,sans-Serif" font-size="10.00">(ConicSection conicSection,</text>
<text text-anchor="start" x="317" y="-1358" font-family="Helvetica,sans-Serif" font-size="10.00"> int sam)</text>
</a>
</g>
</g>
<!-- Node2&#45;&gt;Node7 -->
<g id="edge8" class="edge">
<title>Node2&#45;&gt;Node7</title>
<path fill="none" stroke="midnightblue" d="M288.63,-1809.96C304.74,-1755.62 335.22,-1652.82 358.84,-1573.16"/>
<polygon fill="none" stroke="midnightblue" points="285.19,-1809.27 285.7,-1819.85 291.9,-1811.26 285.19,-1809.27"/>
</g>
<!-- Node9 -->
<g id="node9" class="node">
<title>Node9</title>
<g id="a_node9"><a xlink:href="class_space_physic_1_1_astral_body.html" target="_top" xlink:title="星体物理实体">
<polygon fill="white" stroke="black" points="53,-1191.5 53,-1732.5 214,-1732.5 214,-1191.5 53,-1191.5"/>
<text text-anchor="middle" x="133.5" y="-1720.5" font-family="Helvetica,sans-Serif" font-size="10.00">SpacePhysic.AstralBody</text>
<polyline fill="none" stroke="black" points="53,-1713.5 214,-1713.5 "/>
<text text-anchor="start" x="61" y="-1701.5" font-family="Helvetica,sans-Serif" font-size="10.00">+ List&lt; AstralBody &gt;</text>
<text text-anchor="start" x="61" y="-1690.5" font-family="Helvetica,sans-Serif" font-size="10.00"> affectedPlanets</text>
<text text-anchor="start" x="61" y="-1679.5" font-family="Helvetica,sans-Serif" font-size="10.00">+ float affectRadius</text>
<text text-anchor="start" x="61" y="-1668.5" font-family="Helvetica,sans-Serif" font-size="10.00">+ Vector3 angularVelocity</text>
<text text-anchor="start" x="61" y="-1657.5" font-family="Helvetica,sans-Serif" font-size="10.00">+ List&lt; AstralBody &gt;</text>
<text text-anchor="start" x="61" y="-1646.5" font-family="Helvetica,sans-Serif" font-size="10.00"> banAffectedPlanets</text>
<text text-anchor="start" x="61" y="-1635.5" font-family="Helvetica,sans-Serif" font-size="10.00">+ SphereCollider defaultCollider</text>
<text text-anchor="start" x="61" y="-1624.5" font-family="Helvetica,sans-Serif" font-size="10.00">+ bool enableAffect</text>
<text text-anchor="start" x="61" y="-1613.5" font-family="Helvetica,sans-Serif" font-size="10.00">+ bool enableTracing</text>
<text text-anchor="start" x="61" y="-1602.5" font-family="Helvetica,sans-Serif" font-size="10.00">+ Vector3 oriVelocity</text>
<text text-anchor="start" x="61" y="-1591.5" font-family="Helvetica,sans-Serif" font-size="10.00">+ SphereCollider triggerCollider</text>
<text text-anchor="start" x="61" y="-1580.5" font-family="Helvetica,sans-Serif" font-size="10.00">+ UnityEvent&lt; Vector3</text>
<text text-anchor="start" x="61" y="-1569.5" font-family="Helvetica,sans-Serif" font-size="10.00"> &gt; velocityChangedEvent</text>
<text text-anchor="start" x="61" y="-1558.5" font-family="Helvetica,sans-Serif" font-size="10.00">+ float? Mass</text>
<text text-anchor="start" x="61" y="-1547.5" font-family="Helvetica,sans-Serif" font-size="10.00">+ Rigidbody astralBodyRigidbody</text>
<text text-anchor="start" x="61" y="-1536.5" font-family="Helvetica,sans-Serif" font-size="10.00">+ Vector3 Force</text>
<text text-anchor="start" x="61" y="-1525.5" font-family="Helvetica,sans-Serif" font-size="10.00">+ float gravity</text>
<text text-anchor="start" x="61" y="-1514.5" font-family="Helvetica,sans-Serif" font-size="10.00">+ int meshNum</text>
<text text-anchor="start" x="61" y="-1503.5" font-family="Helvetica,sans-Serif" font-size="10.00">+ float size</text>
<text text-anchor="start" x="61" y="-1492.5" font-family="Helvetica,sans-Serif" font-size="10.00">+ double realMass</text>
<text text-anchor="start" x="61" y="-1481.5" font-family="Helvetica,sans-Serif" font-size="10.00">+ double density</text>
<text text-anchor="start" x="61" y="-1470.5" font-family="Helvetica,sans-Serif" font-size="10.00">+ Vector3 lastVelocity</text>
<text text-anchor="start" x="61" y="-1459.5" font-family="Helvetica,sans-Serif" font-size="10.00">+ bool isLoadDone</text>
<polyline fill="none" stroke="black" points="53,-1452.5 214,-1452.5 "/>
<text text-anchor="start" x="61" y="-1440.5" font-family="Helvetica,sans-Serif" font-size="10.00">+ virtual void OnCollision</text>
<text text-anchor="start" x="61" y="-1429.5" font-family="Helvetica,sans-Serif" font-size="10.00">Enter(Collision other)</text>
<text text-anchor="start" x="61" y="-1418.5" font-family="Helvetica,sans-Serif" font-size="10.00">+ Transform GetTransform()</text>
<text text-anchor="start" x="61" y="-1407.5" font-family="Helvetica,sans-Serif" font-size="10.00">+ Vector3 GetPosition()</text>
<text text-anchor="start" x="61" y="-1396.5" font-family="Helvetica,sans-Serif" font-size="10.00">+ GameObject GetGameObject()</text>
<text text-anchor="start" x="61" y="-1385.5" font-family="Helvetica,sans-Serif" font-size="10.00">+ bool GetEnableTracing()</text>
<text text-anchor="start" x="61" y="-1374.5" font-family="Helvetica,sans-Serif" font-size="10.00">+ virtual float GetMass()</text>
<text text-anchor="start" x="61" y="-1363.5" font-family="Helvetica,sans-Serif" font-size="10.00">+ Rigidbody GetRigidbody()</text>
<text text-anchor="start" x="61" y="-1352.5" font-family="Helvetica,sans-Serif" font-size="10.00">+ Vector3 GetVelocity()</text>
<text text-anchor="start" x="61" y="-1341.5" font-family="Helvetica,sans-Serif" font-size="10.00">+ List&lt; AstralBody &gt;</text>
<text text-anchor="start" x="61" y="-1330.5" font-family="Helvetica,sans-Serif" font-size="10.00"> GetAffectedPlanets()</text>
<text text-anchor="start" x="61" y="-1319.5" font-family="Helvetica,sans-Serif" font-size="10.00">+ AstralBody GetAstralBody()</text>
<text text-anchor="start" x="61" y="-1308.5" font-family="Helvetica,sans-Serif" font-size="10.00">+ void ChangeVelocity</text>
<text text-anchor="start" x="61" y="-1297.5" font-family="Helvetica,sans-Serif" font-size="10.00">(Vector3 velocity)</text>
<text text-anchor="start" x="61" y="-1286.5" font-family="Helvetica,sans-Serif" font-size="10.00">+ void ChangeVelocity</text>
<text text-anchor="start" x="61" y="-1275.5" font-family="Helvetica,sans-Serif" font-size="10.00">(double realSpeed)</text>
<text text-anchor="start" x="61" y="-1264.5" font-family="Helvetica,sans-Serif" font-size="10.00">+ Vector3 CalculateForce()</text>
<text text-anchor="start" x="61" y="-1253.5" font-family="Helvetica,sans-Serif" font-size="10.00">+ void SetCircleVelocity()</text>
<text text-anchor="start" x="61" y="-1242.5" font-family="Helvetica,sans-Serif" font-size="10.00">+ void SetCircleVelocityMenu()</text>
<text text-anchor="start" x="61" y="-1231.5" font-family="Helvetica,sans-Serif" font-size="10.00"># virtual void Start()</text>
<text text-anchor="start" x="61" y="-1220.5" font-family="Helvetica,sans-Serif" font-size="10.00"># void Generate()</text>
<text text-anchor="start" x="61" y="-1209.5" font-family="Helvetica,sans-Serif" font-size="10.00"># virtual void FixedUpdate()</text>
<text text-anchor="start" x="61" y="-1198.5" font-family="Helvetica,sans-Serif" font-size="10.00"># virtual void SetMass()</text>
</a>
</g>
</g>
<!-- Node2&#45;&gt;Node9 -->
<g id="edge12" class="edge">
<title>Node2&#45;&gt;Node9</title>
<path fill="none" stroke="midnightblue" d="M256.74,-1810.38C247.44,-1792.96 236.74,-1771.73 228.5,-1752 223.61,-1740.3 218.81,-1728.26 214.11,-1716.04"/>
<polygon fill="none" stroke="midnightblue" points="253.9,-1812.5 261.74,-1819.63 260.06,-1809.17 253.9,-1812.5"/>
</g>
<!-- Node3&#45;&gt;Node1 -->
<g id="edge2" class="edge">
<title>Node3&#45;&gt;Node1</title>
<path fill="none" stroke="#404040" d="M184.05,-145.75C173.52,-315.39 147.23,-738.84 137.34,-898.12"/>
<polygon fill="none" stroke="#404040" points="137.32,-898.49 140.94,-904.73 136.57,-910.47 132.95,-904.23 137.32,-898.49"/>
<text text-anchor="middle" x="195.5" y="-383" font-family="Helvetica,sans-Serif" font-size="10.00"> +quizSolver</text>
</g>
<!-- Node4 -->
<g id="node4" class="node">
<title>Node4</title>
<g id="a_node4"><a xlink:href="class_quiz_1_1_quiz_base.html" target="_top" xlink:title="问题管理">
<polygon fill="white" stroke="black" points="217,-183.5 217,-361.5 428,-361.5 428,-183.5 217,-183.5"/>
<text text-anchor="middle" x="322.5" y="-349.5" font-family="Helvetica,sans-Serif" font-size="10.00">QuizBase</text>
<polyline fill="none" stroke="black" points="217,-342.5 428,-342.5 "/>
<text text-anchor="start" x="225" y="-330.5" font-family="Helvetica,sans-Serif" font-size="10.00">+ float answer</text>
<text text-anchor="start" x="225" y="-319.5" font-family="Helvetica,sans-Serif" font-size="10.00">+ QuizType quizType</text>
<text text-anchor="start" x="225" y="-308.5" font-family="Helvetica,sans-Serif" font-size="10.00">+ QuizAstralBody target</text>
<polyline fill="none" stroke="black" points="217,-301.5 428,-301.5 "/>
<text text-anchor="start" x="225" y="-289.5" font-family="Helvetica,sans-Serif" font-size="10.00"># override void Start()</text>
<text text-anchor="start" x="225" y="-278.5" font-family="Helvetica,sans-Serif" font-size="10.00"># override void GenerateAstral</text>
<text text-anchor="start" x="225" y="-267.5" font-family="Helvetica,sans-Serif" font-size="10.00">BodiesWithPrefab()</text>
<text text-anchor="start" x="225" y="-256.5" font-family="Helvetica,sans-Serif" font-size="10.00"># override void GenerateAstral</text>
<text text-anchor="start" x="225" y="-245.5" font-family="Helvetica,sans-Serif" font-size="10.00">BodiesWithoutPrefab(AstralBodyData</text>
<text text-anchor="start" x="225" y="-234.5" font-family="Helvetica,sans-Serif" font-size="10.00">DictProcessHandler dataDictProcessHandler</text>
<text text-anchor="start" x="225" y="-223.5" font-family="Helvetica,sans-Serif" font-size="10.00">=null, AstralBodyDataDictProcessHandler</text>
<text text-anchor="start" x="225" y="-212.5" font-family="Helvetica,sans-Serif" font-size="10.00"> afterDictProcessHandler=null)</text>
<text text-anchor="start" x="225" y="-201.5" font-family="Helvetica,sans-Serif" font-size="10.00"># override void LoadScene</text>
<text text-anchor="start" x="225" y="-190.5" font-family="Helvetica,sans-Serif" font-size="10.00">(string fileName)</text>
</a>
</g>
</g>
<!-- Node4&#45;&gt;Node3 -->
<g id="edge3" class="edge">
<title>Node4&#45;&gt;Node3</title>
<path fill="none" stroke="midnightblue" d="M257.1,-175.11C250.36,-165.17 243.6,-155.21 237.09,-145.61"/>
<polygon fill="none" stroke="midnightblue" points="254.24,-177.13 262.75,-183.44 260.03,-173.2 254.24,-177.13"/>
</g>
<!-- Node5 -->
<g id="node5" class="node">
<title>Node5</title>
<g id="a_node5"><a xlink:href="class_xml_saver_1_1_scene_load_base.html" target="_top" xlink:title=" ">
<polygon fill="white" stroke="black" points="217,-409.5 217,-752.5 428,-752.5 428,-409.5 217,-409.5"/>
<text text-anchor="start" x="225" y="-740.5" font-family="Helvetica,sans-Serif" font-size="10.00">SceneLoadBase&lt; QuizAstral</text>
<text text-anchor="middle" x="322.5" y="-729.5" font-family="Helvetica,sans-Serif" font-size="10.00">Body &gt;</text>
<polyline fill="none" stroke="black" points="217,-722.5 428,-722.5 "/>
<text text-anchor="start" x="225" y="-710.5" font-family="Helvetica,sans-Serif" font-size="10.00">+ T astralBodyPrefab</text>
<text text-anchor="start" x="225" y="-699.5" font-family="Helvetica,sans-Serif" font-size="10.00">+ T core</text>
<text text-anchor="start" x="225" y="-688.5" font-family="Helvetica,sans-Serif" font-size="10.00">+ bool isLoadByPrefab</text>
<text text-anchor="start" x="225" y="-677.5" font-family="Helvetica,sans-Serif" font-size="10.00">+ UnityEvent loadDoneEvent</text>
<text text-anchor="start" x="225" y="-666.5" font-family="Helvetica,sans-Serif" font-size="10.00">+ string loadTarget</text>
<text text-anchor="start" x="225" y="-655.5" font-family="Helvetica,sans-Serif" font-size="10.00">+ GravityTracing orbitBase</text>
<text text-anchor="start" x="225" y="-644.5" font-family="Helvetica,sans-Serif" font-size="10.00">+ Transform OrbitRoot</text>
<text text-anchor="start" x="225" y="-633.5" font-family="Helvetica,sans-Serif" font-size="10.00">+ bool isLoadDone</text>
<text text-anchor="start" x="225" y="-622.5" font-family="Helvetica,sans-Serif" font-size="10.00"># List&lt; AstralBodyDict</text>
<text text-anchor="start" x="225" y="-611.5" font-family="Helvetica,sans-Serif" font-size="10.00">&lt; T &gt; &gt; astralBodiesDict</text>
<text text-anchor="start" x="225" y="-600.5" font-family="Helvetica,sans-Serif" font-size="10.00"># List&lt; AstralBodyDataDict</text>
<text text-anchor="start" x="225" y="-589.5" font-family="Helvetica,sans-Serif" font-size="10.00">&lt; T &gt; &gt; _astralBodyStructDictList</text>
<polyline fill="none" stroke="black" points="217,-582.5 428,-582.5 "/>
<text text-anchor="start" x="225" y="-570.5" font-family="Helvetica,sans-Serif" font-size="10.00"># delegate void AstralBody</text>
<text text-anchor="start" x="225" y="-559.5" font-family="Helvetica,sans-Serif" font-size="10.00">DataDictProcessHandler</text>
<text text-anchor="start" x="225" y="-548.5" font-family="Helvetica,sans-Serif" font-size="10.00">(T prefab, AstralBodyDataDict</text>
<text text-anchor="start" x="225" y="-537.5" font-family="Helvetica,sans-Serif" font-size="10.00">&lt; T &gt; astralBodyDataDict, List</text>
<text text-anchor="start" x="225" y="-526.5" font-family="Helvetica,sans-Serif" font-size="10.00">&lt; AstralBodyDict&lt; T &gt;&gt; astralBodyDictList)</text>
<text text-anchor="start" x="225" y="-515.5" font-family="Helvetica,sans-Serif" font-size="10.00"># virtual void Start()</text>
<text text-anchor="start" x="225" y="-504.5" font-family="Helvetica,sans-Serif" font-size="10.00"># virtual void LoadScene</text>
<text text-anchor="start" x="225" y="-493.5" font-family="Helvetica,sans-Serif" font-size="10.00">(string fileName)</text>
<text text-anchor="start" x="225" y="-482.5" font-family="Helvetica,sans-Serif" font-size="10.00"># virtual void GenerateAstral</text>
<text text-anchor="start" x="225" y="-471.5" font-family="Helvetica,sans-Serif" font-size="10.00">BodiesWithPrefab()</text>
<text text-anchor="start" x="225" y="-460.5" font-family="Helvetica,sans-Serif" font-size="10.00"># virtual void GenerateAstral</text>
<text text-anchor="start" x="225" y="-449.5" font-family="Helvetica,sans-Serif" font-size="10.00">BodiesWithoutPrefab(AstralBodyData</text>
<text text-anchor="start" x="225" y="-438.5" font-family="Helvetica,sans-Serif" font-size="10.00">DictProcessHandler dataDictProcessHandler</text>
<text text-anchor="start" x="225" y="-427.5" font-family="Helvetica,sans-Serif" font-size="10.00">=null, AstralBodyDataDictProcessHandler</text>
<text text-anchor="start" x="225" y="-416.5" font-family="Helvetica,sans-Serif" font-size="10.00"> afterDictProcessHandler=null)</text>
</a>
</g>
</g>
<!-- Node5&#45;&gt;Node4 -->
<g id="edge4" class="edge">
<title>Node5&#45;&gt;Node4</title>
<path fill="none" stroke="midnightblue" d="M322.5,-398.97C322.5,-386.18 322.5,-373.65 322.5,-361.77"/>
<polygon fill="none" stroke="midnightblue" points="319,-399.27 322.5,-409.27 326,-399.27 319,-399.27"/>
</g>
<!-- Node6&#45;&gt;Node5 -->
<g id="edge5" class="edge">
<title>Node6&#45;&gt;Node5</title>
<path fill="none" stroke="orange" d="M322.5,-789.89C322.5,-777.54 322.5,-765.07 322.5,-752.71"/>
<polygon fill="orange" stroke="orange" points="319,-790.24 322.5,-800.24 326,-790.24 319,-790.24"/>
<text text-anchor="middle" x="367.5" y="-774" font-family="Helvetica,sans-Serif" font-size="10.00"> &lt; QuizAstralBody &gt;</text>
</g>
<!-- Node7&#45;&gt;Node6 -->
<g id="edge7" class="edge">
<title>Node7&#45;&gt;Node6</title>
<path fill="none" stroke="#404040" d="M376.27,-1350.87C367.46,-1287.12 356.17,-1205.49 346.21,-1133.49"/>
<polygon fill="none" stroke="#404040" points="346.21,-1133.45 341.42,-1128.05 344.56,-1121.56 349.35,-1126.96 346.21,-1133.45"/>
<text text-anchor="middle" x="376" y="-1154" font-family="Helvetica,sans-Serif" font-size="10.00"> +orbitBase</text>
</g>
<!-- Node8 -->
<g id="node8" class="node">
<title>Node8</title>
<g id="a_node8"><a xlink:title=" ">
<polygon fill="white" stroke="#bfbfbf" points="0,-1433.5 0,-1490.5 35,-1490.5 35,-1433.5 0,-1433.5"/>
<text text-anchor="middle" x="17.5" y="-1478.5" font-family="Helvetica,sans-Serif" font-size="10.00">Text</text>
<polyline fill="none" stroke="#bfbfbf" points="0,-1471.5 35,-1471.5 "/>
<text text-anchor="middle" x="17.5" y="-1459.5" font-family="Helvetica,sans-Serif" font-size="10.00"> </text>
<polyline fill="none" stroke="#bfbfbf" points="0,-1452.5 35,-1452.5 "/>
<text text-anchor="middle" x="17.5" y="-1440.5" font-family="Helvetica,sans-Serif" font-size="10.00"> </text>
</a>
</g>
</g>
<!-- Node8&#45;&gt;Node1 -->
<g id="edge10" class="edge">
<title>Node8&#45;&gt;Node1</title>
<path fill="none" stroke="#404040" d="M17.64,-1433.38C18.45,-1384.03 22.7,-1277.78 43.5,-1191 57.63,-1132.03 83.77,-1068.03 104.25,-1022.73"/>
<polygon fill="none" stroke="#404040" points="104.34,-1022.54 103.19,-1015.42 109.32,-1011.63 110.47,-1018.75 104.34,-1022.54"/>
<text text-anchor="middle" x="89" y="-1165" font-family="Helvetica,sans-Serif" font-size="10.00"> +ansText</text>
<text text-anchor="middle" x="89" y="-1154" font-family="Helvetica,sans-Serif" font-size="10.00">+quizCondition</text>
<text text-anchor="middle" x="89" y="-1143" font-family="Helvetica,sans-Serif" font-size="10.00">+title</text>
</g>
<!-- Node9&#45;&gt;Node1 -->
<g id="edge11" class="edge">
<title>Node9&#45;&gt;Node1</title>
<path fill="none" stroke="#404040" d="M133.5,-1191.42C133.5,-1128.3 133.5,-1066.91 133.5,-1023.54"/>
<polygon fill="none" stroke="#404040" points="133.5,-1023.52 129.5,-1017.52 133.5,-1011.52 137.5,-1017.52 133.5,-1023.52"/>
<text text-anchor="middle" x="150.5" y="-1154" font-family="Helvetica,sans-Serif" font-size="10.00"> +target</text>
</g>
<!-- Node10 -->
<g id="node10" class="node">
<title>Node10</title>
<g id="a_node10"><a xlink:href="interface_space_physic_1_1_i_traceable.html" target="_top" xlink:title="可追踪接口">
<polygon fill="white" stroke="black" points="53.5,-1770.5 53.5,-1926.5 213.5,-1926.5 213.5,-1770.5 53.5,-1770.5"/>
<text text-anchor="middle" x="133.5" y="-1914.5" font-family="Helvetica,sans-Serif" font-size="10.00">ITraceable</text>
<polyline fill="none" stroke="black" points="53.5,-1907.5 213.5,-1907.5 "/>
<text text-anchor="middle" x="133.5" y="-1895.5" font-family="Helvetica,sans-Serif" font-size="10.00"> </text>
<polyline fill="none" stroke="black" points="53.5,-1888.5 213.5,-1888.5 "/>
<text text-anchor="start" x="61.5" y="-1876.5" font-family="Helvetica,sans-Serif" font-size="10.00">+ Transform GetTransform()</text>
<text text-anchor="start" x="61.5" y="-1865.5" font-family="Helvetica,sans-Serif" font-size="10.00">+ Vector3 GetPosition()</text>
<text text-anchor="start" x="61.5" y="-1854.5" font-family="Helvetica,sans-Serif" font-size="10.00">+ GameObject GetGameObject()</text>
<text text-anchor="start" x="61.5" y="-1843.5" font-family="Helvetica,sans-Serif" font-size="10.00">+ bool GetEnableTracing()</text>
<text text-anchor="start" x="61.5" y="-1832.5" font-family="Helvetica,sans-Serif" font-size="10.00">+ float GetMass()</text>
<text text-anchor="start" x="61.5" y="-1821.5" font-family="Helvetica,sans-Serif" font-size="10.00">+ Rigidbody GetRigidbody()</text>
<text text-anchor="start" x="61.5" y="-1810.5" font-family="Helvetica,sans-Serif" font-size="10.00">+ Vector3 GetVelocity()</text>
<text text-anchor="start" x="61.5" y="-1799.5" font-family="Helvetica,sans-Serif" font-size="10.00">+ List&lt; AstralBody &gt;</text>
<text text-anchor="start" x="61.5" y="-1788.5" font-family="Helvetica,sans-Serif" font-size="10.00"> GetAffectedPlanets()</text>
<text text-anchor="start" x="61.5" y="-1777.5" font-family="Helvetica,sans-Serif" font-size="10.00">+ AstralBody GetAstralBody()</text>
</a>
</g>
</g>
<!-- Node10&#45;&gt;Node9 -->
<g id="edge13" class="edge">
<title>Node10&#45;&gt;Node9</title>
<path fill="none" stroke="midnightblue" d="M133.5,-1760.05C133.5,-1751.27 133.5,-1742.07 133.5,-1732.57"/>
<polygon fill="none" stroke="midnightblue" points="130,-1760.15 133.5,-1770.15 137,-1760.15 130,-1760.15"/>
</g>
</g>
</svg>
