<?xml version="1.0" encoding="UTF-8" standalone="no"?>
<!DOCTYPE svg PUBLIC "-//W3C//DTD SVG 1.1//EN"
 "http://www.w3.org/Graphics/SVG/1.1/DTD/svg11.dtd">
<!-- Generated by graphviz version 2.47.1 (20210417.1919)
 -->
<!-- Title: CustomUI.FreeSelectorUI Pages: 1 -->
<svg width="398pt" height="592pt"
 viewBox="0.00 0.00 397.50 592.00" xmlns="http://www.w3.org/2000/svg" xmlns:xlink="http://www.w3.org/1999/xlink">
<g id="graph0" class="graph" transform="scale(1 1) rotate(0) translate(4 588)">
<title>CustomUI.FreeSelectorUI</title>
<polygon fill="white" stroke="transparent" points="-4,4 -4,-588 393.5,-588 393.5,4 -4,4"/>
<!-- Node1 -->
<g id="node1" class="node">
<title>Node1</title>
<g id="a_node1"><a xlink:title=" ">
<polygon fill="#bfbfbf" stroke="black" points="56,-0.5 56,-90.5 231,-90.5 231,-0.5 56,-0.5"/>
<text text-anchor="middle" x="143.5" y="-78.5" font-family="Helvetica,sans-Serif" font-size="10.00">CustomUI.FreeSelectorUI</text>
<polyline fill="none" stroke="black" points="56,-71.5 231,-71.5 "/>
<text text-anchor="start" x="64" y="-59.5" font-family="Helvetica,sans-Serif" font-size="10.00">+ GameObject informationPanel</text>
<text text-anchor="start" x="64" y="-48.5" font-family="Helvetica,sans-Serif" font-size="10.00">+ List&lt; StarInfoMap &gt;</text>
<text text-anchor="start" x="64" y="-37.5" font-family="Helvetica,sans-Serif" font-size="10.00"> starInfoMaps</text>
<text text-anchor="start" x="64" y="-26.5" font-family="Helvetica,sans-Serif" font-size="10.00">+ GameObject selectedGameObject</text>
<polyline fill="none" stroke="black" points="56,-19.5 231,-19.5 "/>
<text text-anchor="start" x="64" y="-7.5" font-family="Helvetica,sans-Serif" font-size="10.00">+ void Update()</text>
</a>
</g>
</g>
<!-- Node2 -->
<g id="node2" class="node">
<title>Node2</title>
<g id="a_node2"><a xlink:title=" ">
<polygon fill="white" stroke="#bfbfbf" points="0,-526.5 0,-583.5 83,-583.5 83,-526.5 0,-526.5"/>
<text text-anchor="middle" x="41.5" y="-571.5" font-family="Helvetica,sans-Serif" font-size="10.00">MonoBehaviour</text>
<polyline fill="none" stroke="#bfbfbf" points="0,-564.5 83,-564.5 "/>
<text text-anchor="middle" x="41.5" y="-552.5" font-family="Helvetica,sans-Serif" font-size="10.00"> </text>
<polyline fill="none" stroke="#bfbfbf" points="0,-545.5 83,-545.5 "/>
<text text-anchor="middle" x="41.5" y="-533.5" font-family="Helvetica,sans-Serif" font-size="10.00"> </text>
</a>
</g>
</g>
<!-- Node2&#45;&gt;Node1 -->
<g id="edge1" class="edge">
<title>Node2&#45;&gt;Node1</title>
<path fill="none" stroke="midnightblue" d="M35.61,-516.43C26.57,-449.62 13.72,-306.5 48.5,-193 60.05,-155.32 84.36,-118.13 105.5,-90.65"/>
<polygon fill="none" stroke="midnightblue" points="32.16,-517.07 37.02,-526.48 39.09,-516.09 32.16,-517.07"/>
</g>
<!-- Node5 -->
<g id="node5" class="node">
<title>Node5</title>
<g id="a_node5"><a xlink:href="class_custom_post_processing_1_1_custom_post_processing_base.html" target="_top" xlink:title="自定义后处理">
<polygon fill="white" stroke="black" points="57.5,-409.5 57.5,-488.5 199.5,-488.5 199.5,-409.5 57.5,-409.5"/>
<text text-anchor="middle" x="128.5" y="-476.5" font-family="Helvetica,sans-Serif" font-size="10.00">CustomPostProcessingBase</text>
<polyline fill="none" stroke="black" points="57.5,-469.5 199.5,-469.5 "/>
<text text-anchor="start" x="65.5" y="-457.5" font-family="Helvetica,sans-Serif" font-size="10.00">+ Camera mainCamera</text>
<polyline fill="none" stroke="black" points="57.5,-450.5 199.5,-450.5 "/>
<text text-anchor="start" x="65.5" y="-438.5" font-family="Helvetica,sans-Serif" font-size="10.00"># Material GenerateMaterial</text>
<text text-anchor="start" x="65.5" y="-427.5" font-family="Helvetica,sans-Serif" font-size="10.00">(Shader shader, ref Material</text>
<text text-anchor="start" x="65.5" y="-416.5" font-family="Helvetica,sans-Serif" font-size="10.00"> targetMaterial)</text>
</a>
</g>
</g>
<!-- Node2&#45;&gt;Node5 -->
<g id="edge5" class="edge">
<title>Node2&#45;&gt;Node5</title>
<path fill="none" stroke="midnightblue" d="M71.15,-518.56C79.2,-508.94 87.95,-498.48 96.14,-488.69"/>
<polygon fill="none" stroke="midnightblue" points="68.32,-516.49 64.59,-526.4 73.69,-520.98 68.32,-516.49"/>
</g>
<!-- Node3 -->
<g id="node3" class="node">
<title>Node3</title>
<g id="a_node3"><a xlink:title=" ">
<polygon fill="white" stroke="#bfbfbf" points="248,-254 248,-311 283,-311 283,-254 248,-254"/>
<text text-anchor="middle" x="265.5" y="-299" font-family="Helvetica,sans-Serif" font-size="10.00">Text</text>
<polyline fill="none" stroke="#bfbfbf" points="248,-292 283,-292 "/>
<text text-anchor="middle" x="265.5" y="-280" font-family="Helvetica,sans-Serif" font-size="10.00"> </text>
<polyline fill="none" stroke="#bfbfbf" points="248,-273 283,-273 "/>
<text text-anchor="middle" x="265.5" y="-261" font-family="Helvetica,sans-Serif" font-size="10.00"> </text>
</a>
</g>
</g>
<!-- Node3&#45;&gt;Node1 -->
<g id="edge2" class="edge">
<title>Node3&#45;&gt;Node1</title>
<path fill="none" stroke="#404040" d="M263.34,-253.7C259.44,-217.75 248.67,-154.36 219.5,-109 217.49,-105.87 215.26,-102.82 212.88,-99.85"/>
<polygon fill="none" stroke="#404040" points="212.75,-99.7 205.78,-97.85 204.81,-90.71 211.78,-92.56 212.75,-99.7"/>
<text text-anchor="middle" x="288" y="-167" font-family="Helvetica,sans-Serif" font-size="10.00"> +starDayTimeText</text>
<text text-anchor="middle" x="288" y="-156" font-family="Helvetica,sans-Serif" font-size="10.00">+starGravityText</text>
<text text-anchor="middle" x="288" y="-145" font-family="Helvetica,sans-Serif" font-size="10.00">+starMassText</text>
<text text-anchor="middle" x="288" y="-134" font-family="Helvetica,sans-Serif" font-size="10.00">+starNameText</text>
<text text-anchor="middle" x="288" y="-123" font-family="Helvetica,sans-Serif" font-size="10.00">+starRadiusText</text>
<text text-anchor="middle" x="288" y="-112" font-family="Helvetica,sans-Serif" font-size="10.00">+starYearTimeText</text>
</g>
<!-- Node4 -->
<g id="node4" class="node">
<title>Node4</title>
<g id="a_node4"><a xlink:href="class_custom_post_processing_1_1_outline_catcher.html" target="_top" xlink:title="描边抓取">
<polygon fill="white" stroke="black" points="57.5,-193.5 57.5,-371.5 229.5,-371.5 229.5,-193.5 57.5,-193.5"/>
<text text-anchor="start" x="65.5" y="-359.5" font-family="Helvetica,sans-Serif" font-size="10.00">CustomPostProcessing.Outline</text>
<text text-anchor="middle" x="143.5" y="-348.5" font-family="Helvetica,sans-Serif" font-size="10.00">Catcher</text>
<polyline fill="none" stroke="black" points="57.5,-341.5 229.5,-341.5 "/>
<text text-anchor="start" x="65.5" y="-329.5" font-family="Helvetica,sans-Serif" font-size="10.00">+ Color backgroundColor</text>
<text text-anchor="start" x="65.5" y="-318.5" font-family="Helvetica,sans-Serif" font-size="10.00">+ Color edgeColor</text>
<text text-anchor="start" x="65.5" y="-307.5" font-family="Helvetica,sans-Serif" font-size="10.00">+ float edgeOnly</text>
<text text-anchor="start" x="65.5" y="-296.5" font-family="Helvetica,sans-Serif" font-size="10.00">+ float edgeSize</text>
<text text-anchor="start" x="65.5" y="-285.5" font-family="Helvetica,sans-Serif" font-size="10.00">+ Camera outlineCamera</text>
<text text-anchor="start" x="65.5" y="-274.5" font-family="Helvetica,sans-Serif" font-size="10.00">+ Shader outlineShader</text>
<text text-anchor="start" x="65.5" y="-263.5" font-family="Helvetica,sans-Serif" font-size="10.00">+ Material outlineMaterial</text>
<polyline fill="none" stroke="black" points="57.5,-256.5 229.5,-256.5 "/>
<text text-anchor="start" x="65.5" y="-244.5" font-family="Helvetica,sans-Serif" font-size="10.00">+ RenderTexture GetRenderResult()</text>
<text text-anchor="start" x="65.5" y="-233.5" font-family="Helvetica,sans-Serif" font-size="10.00">+ void AddTarget(GameObject</text>
<text text-anchor="start" x="65.5" y="-222.5" font-family="Helvetica,sans-Serif" font-size="10.00"> target)</text>
<text text-anchor="start" x="65.5" y="-211.5" font-family="Helvetica,sans-Serif" font-size="10.00">+ void RemoveTarget(GameObject</text>
<text text-anchor="start" x="65.5" y="-200.5" font-family="Helvetica,sans-Serif" font-size="10.00"> target)</text>
</a>
</g>
</g>
<!-- Node4&#45;&gt;Node1 -->
<g id="edge3" class="edge">
<title>Node4&#45;&gt;Node1</title>
<path fill="none" stroke="#404040" d="M143.5,-193.33C143.5,-162.94 143.5,-129.77 143.5,-102.65"/>
<polygon fill="none" stroke="#404040" points="143.5,-102.65 139.5,-96.65 143.5,-90.65 147.5,-96.65 143.5,-102.65"/>
<text text-anchor="middle" x="179.5" y="-139.5" font-family="Helvetica,sans-Serif" font-size="10.00"> +outlineCatcher</text>
</g>
<!-- Node5&#45;&gt;Node4 -->
<g id="edge4" class="edge">
<title>Node5&#45;&gt;Node4</title>
<path fill="none" stroke="midnightblue" d="M132.93,-399.39C133.74,-390.56 134.6,-381.11 135.47,-371.55"/>
<polygon fill="none" stroke="midnightblue" points="129.44,-399.16 132.02,-409.43 136.41,-399.79 129.44,-399.16"/>
</g>
<!-- Node6 -->
<g id="node6" class="node">
<title>Node6</title>
<g id="a_node6"><a xlink:href="interface_custom_post_processing_1_1_i_render_tex_outer.html" target="_top" xlink:title="RenderTexture输出接口">
<polygon fill="white" stroke="black" points="217.5,-420.5 217.5,-477.5 389.5,-477.5 389.5,-420.5 217.5,-420.5"/>
<text text-anchor="middle" x="303.5" y="-465.5" font-family="Helvetica,sans-Serif" font-size="10.00">IRenderTexOuter</text>
<polyline fill="none" stroke="black" points="217.5,-458.5 389.5,-458.5 "/>
<text text-anchor="middle" x="303.5" y="-446.5" font-family="Helvetica,sans-Serif" font-size="10.00"> </text>
<polyline fill="none" stroke="black" points="217.5,-439.5 389.5,-439.5 "/>
<text text-anchor="start" x="225.5" y="-427.5" font-family="Helvetica,sans-Serif" font-size="10.00">+ RenderTexture GetRenderResult()</text>
</a>
</g>
</g>
<!-- Node6&#45;&gt;Node4 -->
<g id="edge6" class="edge">
<title>Node6&#45;&gt;Node4</title>
<path fill="none" stroke="midnightblue" d="M269.54,-413.08C257.54,-400.74 243.44,-386.25 229.1,-371.51"/>
<polygon fill="none" stroke="midnightblue" points="267.24,-415.74 276.72,-420.47 272.26,-410.86 267.24,-415.74"/>
</g>
</g>
</svg>
