<?xml version="1.0" encoding="UTF-8" standalone="no"?>
<!DOCTYPE svg PUBLIC "-//W3C//DTD SVG 1.1//EN"
 "http://www.w3.org/Graphics/SVG/1.1/DTD/svg11.dtd">
<!-- Generated by graphviz version 2.47.1 (20210417.1919)
 -->
<!-- Title: CustomUI.Quiz.VarLineUI.OnEditEnd Pages: 1 -->
<svg width="336pt" height="235pt"
 viewBox="0.00 0.00 336.00 235.00" xmlns="http://www.w3.org/2000/svg" xmlns:xlink="http://www.w3.org/1999/xlink">
<g id="graph0" class="graph" transform="scale(1 1) rotate(0) translate(4 231)">
<title>CustomUI.Quiz.VarLineUI.OnEditEnd</title>
<polygon fill="white" stroke="transparent" points="-4,4 -4,-231 332,-231 332,4 -4,4"/>
<!-- Node1 -->
<g id="node1" class="node">
<title>Node1</title>
<g id="a_node1"><a xlink:title=" ">
<polygon fill="#bfbfbf" stroke="black" points="0,-98.5 0,-128.5 131,-128.5 131,-98.5 0,-98.5"/>
<text text-anchor="start" x="8" y="-116.5" font-family="Helvetica,sans-Serif" font-size="10.00">CustomUI.Quiz.VarLineUI.</text>
<text text-anchor="middle" x="65.5" y="-105.5" font-family="Helvetica,sans-Serif" font-size="10.00">OnEditEnd</text>
</a>
</g>
</g>
<!-- Node2 -->
<g id="node2" class="node">
<title>Node2</title>
<g id="a_node2"><a xlink:href="class_game_managers_1_1_game_manager.html#ab809f66044771ece537c01978381610f" target="_top" xlink:title="计算质量缩放">
<polygon fill="white" stroke="black" points="170,-196.5 170,-226.5 325,-226.5 325,-196.5 170,-196.5"/>
<text text-anchor="start" x="178" y="-214.5" font-family="Helvetica,sans-Serif" font-size="10.00">GameManagers.GameManager.</text>
<text text-anchor="middle" x="247.5" y="-203.5" font-family="Helvetica,sans-Serif" font-size="10.00">CalculateMassScales</text>
</a>
</g>
</g>
<!-- Node1&#45;&gt;Node2 -->
<g id="edge1" class="edge">
<title>Node1&#45;&gt;Node2</title>
<path fill="none" stroke="midnightblue" d="M83.1,-128.54C102.13,-145.07 134.83,-171.41 167,-187.5 170.77,-189.39 174.72,-191.16 178.75,-192.81"/>
<polygon fill="midnightblue" stroke="midnightblue" points="177.69,-196.15 188.28,-196.46 180.19,-189.61 177.69,-196.15"/>
</g>
<!-- Node3 -->
<g id="node3" class="node">
<title>Node3</title>
<g id="a_node3"><a xlink:href="class_space_physic_1_1_astral_body.html#a8c43caafe4f528c08feb450cba3c5cd7" target="_top" xlink:title="调整星球速度">
<polygon fill="white" stroke="black" points="167,-147.5 167,-177.5 328,-177.5 328,-147.5 167,-147.5"/>
<text text-anchor="start" x="175" y="-165.5" font-family="Helvetica,sans-Serif" font-size="10.00">SpacePhysic.AstralBody.Change</text>
<text text-anchor="middle" x="247.5" y="-154.5" font-family="Helvetica,sans-Serif" font-size="10.00">Velocity</text>
</a>
</g>
</g>
<!-- Node1&#45;&gt;Node3 -->
<g id="edge2" class="edge">
<title>Node1&#45;&gt;Node3</title>
<path fill="none" stroke="midnightblue" d="M121.97,-128.6C140.8,-133.73 161.99,-139.5 181.49,-144.8"/>
<polygon fill="midnightblue" stroke="midnightblue" points="180.64,-148.2 191.21,-147.45 182.48,-141.44 180.64,-148.2"/>
</g>
<!-- Node4 -->
<g id="node4" class="node">
<title>Node4</title>
<g id="a_node4"><a xlink:href="class_space_physic_1_1_astral_body.html#aedfd2eada72ec832dde5a2d3aea31583" target="_top" xlink:title="委屈位置">
<polygon fill="white" stroke="black" points="175.5,-98.5 175.5,-128.5 319.5,-128.5 319.5,-98.5 175.5,-98.5"/>
<text text-anchor="start" x="183.5" y="-116.5" font-family="Helvetica,sans-Serif" font-size="10.00">SpacePhysic.AstralBody.Get</text>
<text text-anchor="middle" x="247.5" y="-105.5" font-family="Helvetica,sans-Serif" font-size="10.00">Position</text>
</a>
</g>
</g>
<!-- Node1&#45;&gt;Node4 -->
<g id="edge3" class="edge">
<title>Node1&#45;&gt;Node4</title>
<path fill="none" stroke="midnightblue" d="M131.23,-113.5C142.19,-113.5 153.69,-113.5 165.01,-113.5"/>
<polygon fill="midnightblue" stroke="midnightblue" points="165.33,-117 175.33,-113.5 165.33,-110 165.33,-117"/>
</g>
<!-- Node5 -->
<g id="node5" class="node">
<title>Node5</title>
<g id="a_node5"><a xlink:href="class_space_physic_1_1_astral_body.html#a879cbf857765e818349e4069e7bd4064" target="_top" xlink:title="获取坐标">
<polygon fill="white" stroke="black" points="175.5,-49.5 175.5,-79.5 319.5,-79.5 319.5,-49.5 175.5,-49.5"/>
<text text-anchor="start" x="183.5" y="-67.5" font-family="Helvetica,sans-Serif" font-size="10.00">SpacePhysic.AstralBody.Get</text>
<text text-anchor="middle" x="247.5" y="-56.5" font-family="Helvetica,sans-Serif" font-size="10.00">Transform</text>
</a>
</g>
</g>
<!-- Node1&#45;&gt;Node5 -->
<g id="edge4" class="edge">
<title>Node1&#45;&gt;Node5</title>
<path fill="none" stroke="midnightblue" d="M121.97,-98.4C140.8,-93.27 161.99,-87.5 181.49,-82.2"/>
<polygon fill="midnightblue" stroke="midnightblue" points="182.48,-85.56 191.21,-79.55 180.64,-78.8 182.48,-85.56"/>
</g>
<!-- Node6 -->
<g id="node6" class="node">
<title>Node6</title>
<g id="a_node6"><a xlink:href="class_space_physic_1_1_astral_body.html#a49a47294cf00916a50c42a62cda119f0" target="_top" xlink:title=" ">
<polygon fill="white" stroke="black" points="175.5,-0.5 175.5,-30.5 319.5,-30.5 319.5,-0.5 175.5,-0.5"/>
<text text-anchor="start" x="183.5" y="-18.5" font-family="Helvetica,sans-Serif" font-size="10.00">SpacePhysic.AstralBody.Get</text>
<text text-anchor="middle" x="247.5" y="-7.5" font-family="Helvetica,sans-Serif" font-size="10.00">Velocity</text>
</a>
</g>
</g>
<!-- Node1&#45;&gt;Node6 -->
<g id="edge5" class="edge">
<title>Node1&#45;&gt;Node6</title>
<path fill="none" stroke="midnightblue" d="M83.52,-98.45C102.66,-82.2 135.22,-56.5 167,-40.5 171.49,-38.24 176.22,-36.13 181.05,-34.18"/>
<polygon fill="midnightblue" stroke="midnightblue" points="182.32,-37.44 190.42,-30.61 179.83,-30.9 182.32,-37.44"/>
</g>
</g>
</svg>
