<?xml version="1.0" encoding="UTF-8" standalone="no"?>
<!DOCTYPE svg PUBLIC "-//W3C//DTD SVG 1.1//EN"
 "http://www.w3.org/Graphics/SVG/1.1/DTD/svg11.dtd">
<!-- Generated by graphviz version 2.47.1 (20210417.1919)
 -->
<!-- Title: CustomUI.LabModeUI.ToMain Pages: 1 -->
<svg width="534pt" height="39pt"
 viewBox="0.00 0.00 534.00 39.00" xmlns="http://www.w3.org/2000/svg" xmlns:xlink="http://www.w3.org/1999/xlink">
<g id="graph0" class="graph" transform="scale(1 1) rotate(0) translate(4 35)">
<title>CustomUI.LabModeUI.ToMain</title>
<polygon fill="white" stroke="transparent" points="-4,4 -4,-35 530,-35 530,4 -4,4"/>
<!-- Node1 -->
<g id="node1" class="node">
<title>Node1</title>
<g id="a_node1"><a xlink:title=" ">
<polygon fill="#bfbfbf" stroke="black" points="0,-6 0,-25 146,-25 146,-6 0,-6"/>
<text text-anchor="middle" x="73" y="-13" font-family="Helvetica,sans-Serif" font-size="10.00">CustomUI.LabModeUI.ToMain</text>
</a>
</g>
</g>
<!-- Node2 -->
<g id="node2" class="node">
<title>Node2</title>
<g id="a_node2"><a xlink:href="class_game_managers_1_1_global_transfer.html#a96550d206f25a2d8d89af6c365617a55" target="_top" xlink:title="在Loading场景中加载新场景">
<polygon fill="white" stroke="black" points="182,-0.5 182,-30.5 336,-30.5 336,-0.5 182,-0.5"/>
<text text-anchor="start" x="190" y="-18.5" font-family="Helvetica,sans-Serif" font-size="10.00">GameManagers.GlobalTransfer.</text>
<text text-anchor="middle" x="259" y="-7.5" font-family="Helvetica,sans-Serif" font-size="10.00">LoadSceneInLoadingScene</text>
</a>
</g>
</g>
<!-- Node1&#45;&gt;Node2 -->
<g id="edge1" class="edge">
<title>Node1&#45;&gt;Node2</title>
<path fill="none" stroke="midnightblue" d="M146.19,-15.5C154.5,-15.5 163.03,-15.5 171.49,-15.5"/>
<polygon fill="midnightblue" stroke="midnightblue" points="171.77,-19 181.77,-15.5 171.77,-12 171.77,-19"/>
</g>
<!-- Node3 -->
<g id="node3" class="node">
<title>Node3</title>
<g id="a_node3"><a xlink:href="class_game_managers_1_1_global_transfer.html#a85c796df61ccc5a26711da6d748bc60d" target="_top" xlink:title=" ">
<polygon fill="white" stroke="black" points="372,-0.5 372,-30.5 526,-30.5 526,-0.5 372,-0.5"/>
<text text-anchor="start" x="380" y="-18.5" font-family="Helvetica,sans-Serif" font-size="10.00">GameManagers.GlobalTransfer.</text>
<text text-anchor="middle" x="449" y="-7.5" font-family="Helvetica,sans-Serif" font-size="10.00">StartXR</text>
</a>
</g>
</g>
<!-- Node2&#45;&gt;Node3 -->
<g id="edge2" class="edge">
<title>Node2&#45;&gt;Node3</title>
<path fill="none" stroke="midnightblue" d="M336.2,-15.5C344.52,-15.5 353.03,-15.5 361.47,-15.5"/>
<polygon fill="midnightblue" stroke="midnightblue" points="361.7,-19 371.7,-15.5 361.7,-12 361.7,-19"/>
</g>
</g>
</svg>
