<?xml version="1.0" encoding="UTF-8" standalone="no"?>
<!DOCTYPE svg PUBLIC "-//W3C//DTD SVG 1.1//EN"
 "http://www.w3.org/Graphics/SVG/1.1/DTD/svg11.dtd">
<!-- Generated by graphviz version 2.47.1 (20210417.1919)
 -->
<!-- Title: CustomUI.Satellite.SatelliteResultUI Pages: 1 -->
<svg width="273pt" height="536pt"
 viewBox="0.00 0.00 272.84 536.00" xmlns="http://www.w3.org/2000/svg" xmlns:xlink="http://www.w3.org/1999/xlink">
<g id="graph0" class="graph" transform="scale(1 1) rotate(0) translate(4 532)">
<title>CustomUI.Satellite.SatelliteResultUI</title>
<polygon fill="white" stroke="transparent" points="-4,4 -4,-532 268.84,-532 268.84,4 -4,4"/>
<!-- Node1 -->
<g id="node1" class="node">
<title>Node1</title>
<g id="a_node1"><a xlink:title=" ">
<polygon fill="#bfbfbf" stroke="black" points="47.84,-0.5 47.84,-79.5 183.84,-79.5 183.84,-0.5 47.84,-0.5"/>
<text text-anchor="start" x="55.84" y="-67.5" font-family="Helvetica,sans-Serif" font-size="10.00">CustomUI.Satellite.Satellite</text>
<text text-anchor="middle" x="115.84" y="-56.5" font-family="Helvetica,sans-Serif" font-size="10.00">ResultUI</text>
<polyline fill="none" stroke="black" points="47.84,-49.5 183.84,-49.5 "/>
<text text-anchor="start" x="55.84" y="-37.5" font-family="Helvetica,sans-Serif" font-size="10.00">+ GameObject panel</text>
<polyline fill="none" stroke="black" points="47.84,-30.5 183.84,-30.5 "/>
<text text-anchor="start" x="55.84" y="-18.5" font-family="Helvetica,sans-Serif" font-size="10.00">+ void BackToLabMode()</text>
<text text-anchor="start" x="55.84" y="-7.5" font-family="Helvetica,sans-Serif" font-size="10.00">+ void Reload()</text>
</a>
</g>
</g>
<!-- Node2 -->
<g id="node2" class="node">
<title>Node2</title>
<g id="a_node2"><a xlink:title=" ">
<polygon fill="white" stroke="#bfbfbf" points="2.34,-470.5 2.34,-527.5 85.34,-527.5 85.34,-470.5 2.34,-470.5"/>
<text text-anchor="middle" x="43.84" y="-515.5" font-family="Helvetica,sans-Serif" font-size="10.00">MonoBehaviour</text>
<polyline fill="none" stroke="#bfbfbf" points="2.34,-508.5 85.34,-508.5 "/>
<text text-anchor="middle" x="43.84" y="-496.5" font-family="Helvetica,sans-Serif" font-size="10.00"> </text>
<polyline fill="none" stroke="#bfbfbf" points="2.34,-489.5 85.34,-489.5 "/>
<text text-anchor="middle" x="43.84" y="-477.5" font-family="Helvetica,sans-Serif" font-size="10.00"> </text>
</a>
</g>
</g>
<!-- Node2&#45;&gt;Node1 -->
<g id="edge1" class="edge">
<title>Node2&#45;&gt;Node1</title>
<path fill="none" stroke="midnightblue" d="M31.54,-460.9C10.87,-391.88 -24.05,-240.47 24.84,-127 32.58,-109.03 46.12,-93.07 60.43,-79.92"/>
<polygon fill="none" stroke="midnightblue" points="28.2,-461.94 34.48,-470.47 34.89,-459.88 28.2,-461.94"/>
</g>
<!-- Node4 -->
<g id="node4" class="node">
<title>Node4</title>
<g id="a_node4"><a xlink:href="class_custom_u_i_1_1_quiz_1_1_quiz_stars_group_u_i.html" target="_top" xlink:title=" ">
<polygon fill="white" stroke="black" points="33.84,-127.5 33.84,-217.5 197.84,-217.5 197.84,-127.5 33.84,-127.5"/>
<text text-anchor="middle" x="115.84" y="-205.5" font-family="Helvetica,sans-Serif" font-size="10.00">CustomUI.Quiz.QuizStarsGroupUI</text>
<polyline fill="none" stroke="black" points="33.84,-198.5 197.84,-198.5 "/>
<text text-anchor="start" x="41.84" y="-186.5" font-family="Helvetica,sans-Serif" font-size="10.00">+ int _starCount</text>
<text text-anchor="start" x="41.84" y="-175.5" font-family="Helvetica,sans-Serif" font-size="10.00">+ List&lt; QuizStarUI &gt;</text>
<text text-anchor="start" x="41.84" y="-164.5" font-family="Helvetica,sans-Serif" font-size="10.00"> quizStarUis</text>
<text text-anchor="start" x="41.84" y="-153.5" font-family="Helvetica,sans-Serif" font-size="10.00">+ int starCount</text>
<polyline fill="none" stroke="black" points="33.84,-146.5 197.84,-146.5 "/>
<text text-anchor="start" x="41.84" y="-134.5" font-family="Helvetica,sans-Serif" font-size="10.00">+ void CalculateSuccessStars()</text>
</a>
</g>
</g>
<!-- Node2&#45;&gt;Node4 -->
<g id="edge4" class="edge">
<title>Node2&#45;&gt;Node4</title>
<path fill="none" stroke="midnightblue" d="M41.89,-460.34C40.59,-413.45 42.05,-331.44 62.84,-265 67.93,-248.71 76.32,-232.17 84.94,-217.73"/>
<polygon fill="none" stroke="midnightblue" points="38.39,-460.47 42.22,-470.35 45.39,-460.24 38.39,-460.47"/>
</g>
<!-- Node5 -->
<g id="node5" class="node">
<title>Node5</title>
<g id="a_node5"><a xlink:href="class_game_managers_1_1_global_timer.html" target="_top" xlink:title="全局计时器">
<polygon fill="white" stroke="black" points="71.84,-265.5 71.84,-432.5 231.84,-432.5 231.84,-265.5 71.84,-265.5"/>
<text text-anchor="middle" x="151.84" y="-420.5" font-family="Helvetica,sans-Serif" font-size="10.00">GameManagers.GlobalTimer</text>
<polyline fill="none" stroke="black" points="71.84,-413.5 231.84,-413.5 "/>
<text text-anchor="start" x="79.84" y="-401.5" font-family="Helvetica,sans-Serif" font-size="10.00">+ float countDownTime</text>
<text text-anchor="start" x="79.84" y="-390.5" font-family="Helvetica,sans-Serif" font-size="10.00">+ UnityEvent countingDownEnd</text>
<text text-anchor="start" x="79.84" y="-379.5" font-family="Helvetica,sans-Serif" font-size="10.00">Event</text>
<text text-anchor="start" x="79.84" y="-368.5" font-family="Helvetica,sans-Serif" font-size="10.00">+ UnityEvent countingDownEvent</text>
<text text-anchor="start" x="79.84" y="-357.5" font-family="Helvetica,sans-Serif" font-size="10.00">+ UnityEvent startCountDown</text>
<text text-anchor="start" x="79.84" y="-346.5" font-family="Helvetica,sans-Serif" font-size="10.00">Event</text>
<text text-anchor="start" x="79.84" y="-335.5" font-family="Helvetica,sans-Serif" font-size="10.00">+ bool isPausing</text>
<text text-anchor="start" x="79.84" y="-324.5" font-family="Helvetica,sans-Serif" font-size="10.00">+ bool isCountDownEnd</text>
<text text-anchor="start" x="79.84" y="-313.5" font-family="Helvetica,sans-Serif" font-size="10.00">+ bool isCountingDown</text>
<text text-anchor="start" x="79.84" y="-302.5" font-family="Helvetica,sans-Serif" font-size="10.00">+ float timer</text>
<polyline fill="none" stroke="black" points="71.84,-295.5 231.84,-295.5 "/>
<text text-anchor="start" x="79.84" y="-283.5" font-family="Helvetica,sans-Serif" font-size="10.00">+ void Reset()</text>
<text text-anchor="start" x="79.84" y="-272.5" font-family="Helvetica,sans-Serif" font-size="10.00">+ void StartCounting()</text>
</a>
</g>
</g>
<!-- Node2&#45;&gt;Node5 -->
<g id="edge6" class="edge">
<title>Node2&#45;&gt;Node5</title>
<path fill="none" stroke="midnightblue" d="M70.19,-461.89C76.74,-452.91 84.04,-442.9 91.5,-432.68"/>
<polygon fill="none" stroke="midnightblue" points="67.22,-460.02 64.15,-470.16 72.87,-464.15 67.22,-460.02"/>
</g>
<!-- Node3 -->
<g id="node3" class="node">
<title>Node3</title>
<g id="a_node3"><a xlink:title=" ">
<polygon fill="white" stroke="#bfbfbf" points="216.34,-144 216.34,-201 251.34,-201 251.34,-144 216.34,-144"/>
<text text-anchor="middle" x="233.84" y="-189" font-family="Helvetica,sans-Serif" font-size="10.00">Text</text>
<polyline fill="none" stroke="#bfbfbf" points="216.34,-182 251.34,-182 "/>
<text text-anchor="middle" x="233.84" y="-170" font-family="Helvetica,sans-Serif" font-size="10.00"> </text>
<polyline fill="none" stroke="#bfbfbf" points="216.34,-163 251.34,-163 "/>
<text text-anchor="middle" x="233.84" y="-151" font-family="Helvetica,sans-Serif" font-size="10.00"> </text>
</a>
</g>
</g>
<!-- Node3&#45;&gt;Node1 -->
<g id="edge2" class="edge">
<title>Node3&#45;&gt;Node1</title>
<path fill="none" stroke="#404040" d="M227.83,-143.84C223.57,-129.05 216.64,-111.22 205.84,-98 202.15,-93.49 198.02,-89.23 193.59,-85.23"/>
<polygon fill="none" stroke="#404040" points="193.38,-85.05 186.21,-84.28 184.16,-77.36 191.33,-78.13 193.38,-85.05"/>
<text text-anchor="middle" x="238.84" y="-101" font-family="Helvetica,sans-Serif" font-size="10.00"> +resultText</text>
</g>
<!-- Node4&#45;&gt;Node1 -->
<g id="edge3" class="edge">
<title>Node4&#45;&gt;Node1</title>
<path fill="none" stroke="#404040" d="M115.84,-127.32C115.84,-116.02 115.84,-103.79 115.84,-92.17"/>
<polygon fill="none" stroke="#404040" points="115.84,-91.89 111.84,-85.89 115.84,-79.89 119.84,-85.89 115.84,-91.89"/>
<text text-anchor="middle" x="158.84" y="-101" font-family="Helvetica,sans-Serif" font-size="10.00"> +quizStarsGroupUI</text>
</g>
<!-- Node5&#45;&gt;Node4 -->
<g id="edge5" class="edge">
<title>Node5&#45;&gt;Node4</title>
<path fill="none" stroke="#404040" d="M134.78,-265.35C132.3,-253.32 129.8,-241.17 127.45,-229.82"/>
<polygon fill="none" stroke="#404040" points="127.41,-229.62 122.28,-224.55 124.99,-217.86 130.12,-222.93 127.41,-229.62"/>
<text text-anchor="middle" x="159.34" y="-239" font-family="Helvetica,sans-Serif" font-size="10.00"> +globalTimer</text>
</g>
</g>
</svg>
