<?xml version="1.0" encoding="UTF-8" standalone="no"?>
<!DOCTYPE svg PUBLIC "-//W3C//DTD SVG 1.1//EN"
 "http://www.w3.org/Graphics/SVG/1.1/DTD/svg11.dtd">
<!-- Generated by graphviz version 2.47.1 (20210417.1919)
 -->
<!-- Title: SpacePhysic.AstralBody.SetMass Pages: 1 -->
<svg width="564pt" height="66pt"
 viewBox="0.00 0.00 564.00 66.00" xmlns="http://www.w3.org/2000/svg" xmlns:xlink="http://www.w3.org/1999/xlink">
<g id="graph0" class="graph" transform="scale(1 1) rotate(0) translate(4 62)">
<title>SpacePhysic.AstralBody.SetMass</title>
<polygon fill="white" stroke="transparent" points="-4,4 -4,-62 560,-62 560,4 -4,4"/>
<!-- Node1 -->
<g id="node1" class="node">
<title>Node1</title>
<g id="a_node1"><a xlink:title=" ">
<polygon fill="#bfbfbf" stroke="black" points="389,-19.5 389,-38.5 556,-38.5 556,-19.5 389,-19.5"/>
<text text-anchor="middle" x="472.5" y="-26.5" font-family="Helvetica,sans-Serif" font-size="10.00">SpacePhysic.AstralBody.SetMass</text>
</a>
</g>
</g>
<!-- Node2 -->
<g id="node2" class="node">
<title>Node2</title>
<g id="a_node2"><a xlink:href="class_space_physic_1_1_astral_body.html#a5c1d5bbbcd247e49603f2d702f9118b0" target="_top" xlink:title=" ">
<polygon fill="white" stroke="black" points="185,-19.5 185,-38.5 353,-38.5 353,-19.5 185,-19.5"/>
<text text-anchor="middle" x="269" y="-26.5" font-family="Helvetica,sans-Serif" font-size="10.00">SpacePhysic.AstralBody.Generate</text>
</a>
</g>
</g>
<!-- Node1&#45;&gt;Node2 -->
<g id="edge1" class="edge">
<title>Node1&#45;&gt;Node2</title>
<path fill="none" stroke="midnightblue" d="M378.9,-29C370.28,-29 361.59,-29 353.06,-29"/>
<polygon fill="midnightblue" stroke="midnightblue" points="378.96,-32.5 388.96,-29 378.96,-25.5 378.96,-32.5"/>
</g>
<!-- Node3 -->
<g id="node3" class="node">
<title>Node3</title>
<g id="a_node3"><a xlink:href="class_quiz_1_1_quiz_astral_body.html#a5c4a08f896e60482463982c87c812143" target="_top" xlink:title=" ">
<polygon fill="white" stroke="black" points="8.5,-38.5 8.5,-57.5 140.5,-57.5 140.5,-38.5 8.5,-38.5"/>
<text text-anchor="middle" x="74.5" y="-45.5" font-family="Helvetica,sans-Serif" font-size="10.00">Quiz.QuizAstralBody.Start</text>
</a>
</g>
</g>
<!-- Node2&#45;&gt;Node3 -->
<g id="edge2" class="edge">
<title>Node2&#45;&gt;Node3</title>
<path fill="none" stroke="midnightblue" d="M174.82,-38.2C163.24,-39.34 151.59,-40.49 140.56,-41.58"/>
<polygon fill="midnightblue" stroke="midnightblue" points="175.36,-41.66 184.97,-37.2 174.67,-34.69 175.36,-41.66"/>
</g>
<!-- Node4 -->
<g id="node4" class="node">
<title>Node4</title>
<g id="a_node4"><a xlink:href="class_space_physic_1_1_astral_body.html#af558a0166f9d5bfad6fd918b3656aef0" target="_top" xlink:title=" ">
<polygon fill="white" stroke="black" points="0,-0.5 0,-19.5 149,-19.5 149,-0.5 0,-0.5"/>
<text text-anchor="middle" x="74.5" y="-7.5" font-family="Helvetica,sans-Serif" font-size="10.00">SpacePhysic.AstralBody.Start</text>
</a>
</g>
</g>
<!-- Node2&#45;&gt;Node4 -->
<g id="edge3" class="edge">
<title>Node2&#45;&gt;Node4</title>
<path fill="none" stroke="midnightblue" d="M174.87,-19.81C166.25,-18.96 157.59,-18.1 149.17,-17.27"/>
<polygon fill="midnightblue" stroke="midnightblue" points="174.67,-23.31 184.97,-20.8 175.36,-16.34 174.67,-23.31"/>
</g>
</g>
</svg>
