<?xml version="1.0" encoding="UTF-8" standalone="no"?>
<!DOCTYPE svg PUBLIC "-//W3C//DTD SVG 1.1//EN"
 "http://www.w3.org/Graphics/SVG/1.1/DTD/svg11.dtd">
<!-- Generated by graphviz version 2.47.1 (20210417.1919)
 -->
<!-- Title: CustomPostProcessing.CustomPostProcessingBase Pages: 1 -->
<svg width="560pt" height="408pt"
 viewBox="0.00 0.00 560.00 408.00" xmlns="http://www.w3.org/2000/svg" xmlns:xlink="http://www.w3.org/1999/xlink">
<g id="graph0" class="graph" transform="scale(1 1) rotate(0) translate(4 404)">
<title>CustomPostProcessing.CustomPostProcessingBase</title>
<polygon fill="white" stroke="transparent" points="-4,4 -4,-404 556,-404 556,4 -4,4"/>
<!-- Node1 -->
<g id="node1" class="node">
<title>Node1</title>
<g id="a_node1"><a xlink:title="自定义后处理">
<polygon fill="#bfbfbf" stroke="black" points="198,-215.5 198,-305.5 354,-305.5 354,-215.5 198,-215.5"/>
<text text-anchor="start" x="206" y="-293.5" font-family="Helvetica,sans-Serif" font-size="10.00">CustomPostProcessing.Custom</text>
<text text-anchor="middle" x="276" y="-282.5" font-family="Helvetica,sans-Serif" font-size="10.00">PostProcessingBase</text>
<polyline fill="none" stroke="black" points="198,-275.5 354,-275.5 "/>
<text text-anchor="start" x="206" y="-263.5" font-family="Helvetica,sans-Serif" font-size="10.00">+ Camera mainCamera</text>
<polyline fill="none" stroke="black" points="198,-256.5 354,-256.5 "/>
<text text-anchor="start" x="206" y="-244.5" font-family="Helvetica,sans-Serif" font-size="10.00"># Material GenerateMaterial</text>
<text text-anchor="start" x="206" y="-233.5" font-family="Helvetica,sans-Serif" font-size="10.00">(Shader shader, ref Material</text>
<text text-anchor="start" x="206" y="-222.5" font-family="Helvetica,sans-Serif" font-size="10.00"> targetMaterial)</text>
</a>
</g>
</g>
<!-- Node3 -->
<g id="node3" class="node">
<title>Node3</title>
<g id="a_node3"><a xlink:href="class_custom_camera_1_1_camera_layer_mixer.html" target="_top" xlink:title="相机图像混合">
<polygon fill="white" stroke="black" points="0,-28 0,-151 172,-151 172,-28 0,-28"/>
<text text-anchor="start" x="8" y="-139" font-family="Helvetica,sans-Serif" font-size="10.00">CustomCamera.CameraLayer</text>
<text text-anchor="middle" x="86" y="-128" font-family="Helvetica,sans-Serif" font-size="10.00">Mixer</text>
<polyline fill="none" stroke="black" points="0,-121 172,-121 "/>
<text text-anchor="start" x="8" y="-109" font-family="Helvetica,sans-Serif" font-size="10.00">+ CameraMixer cameraMixer</text>
<text text-anchor="start" x="8" y="-98" font-family="Helvetica,sans-Serif" font-size="10.00">+ bool enableLayer0</text>
<text text-anchor="start" x="8" y="-87" font-family="Helvetica,sans-Serif" font-size="10.00">+ bool enableLayer1</text>
<text text-anchor="start" x="8" y="-76" font-family="Helvetica,sans-Serif" font-size="10.00">+ LayerCamera layerCamera</text>
<text text-anchor="start" x="8" y="-65" font-family="Helvetica,sans-Serif" font-size="10.00">+ Shader mixShader</text>
<text text-anchor="start" x="8" y="-54" font-family="Helvetica,sans-Serif" font-size="10.00">+ Material MixMaterial</text>
<polyline fill="none" stroke="black" points="0,-47 172,-47 "/>
<text text-anchor="start" x="8" y="-35" font-family="Helvetica,sans-Serif" font-size="10.00">+ RenderTexture GetRenderResult()</text>
</a>
</g>
</g>
<!-- Node1&#45;&gt;Node3 -->
<g id="edge2" class="edge">
<title>Node1&#45;&gt;Node3</title>
<path fill="none" stroke="midnightblue" d="M215.04,-208.58C203.65,-198.85 191.9,-188.68 181,-179 170.97,-170.09 160.48,-160.54 150.27,-151.13"/>
<polygon fill="none" stroke="midnightblue" points="212.97,-211.41 222.86,-215.23 217.51,-206.08 212.97,-211.41"/>
</g>
<!-- Node4 -->
<g id="node4" class="node">
<title>Node4</title>
<g id="a_node4"><a xlink:href="class_custom_post_processing_1_1_camera_mixer.html" target="_top" xlink:title="相机输出混合">
<polygon fill="white" stroke="black" points="190,-17 190,-162 362,-162 362,-17 190,-17"/>
<text text-anchor="start" x="198" y="-150" font-family="Helvetica,sans-Serif" font-size="10.00">CustomPostProcessing.Camera</text>
<text text-anchor="middle" x="276" y="-139" font-family="Helvetica,sans-Serif" font-size="10.00">Mixer</text>
<polyline fill="none" stroke="black" points="190,-132 362,-132 "/>
<text text-anchor="start" x="198" y="-120" font-family="Helvetica,sans-Serif" font-size="10.00">+ Material mixMaterial</text>
<text text-anchor="start" x="198" y="-109" font-family="Helvetica,sans-Serif" font-size="10.00">+ RenderTexture renderResultRT</text>
<text text-anchor="start" x="198" y="-98" font-family="Helvetica,sans-Serif" font-size="10.00">+ Color edgeColor</text>
<text text-anchor="start" x="198" y="-87" font-family="Helvetica,sans-Serif" font-size="10.00">+ Shader mixShader</text>
<text text-anchor="start" x="198" y="-76" font-family="Helvetica,sans-Serif" font-size="10.00">+ OutlineCatcher renderTex</text>
<text text-anchor="start" x="198" y="-65" font-family="Helvetica,sans-Serif" font-size="10.00">Outer</text>
<text text-anchor="start" x="198" y="-54" font-family="Helvetica,sans-Serif" font-size="10.00">+ RenderTexture renderTexture</text>
<text text-anchor="start" x="198" y="-43" font-family="Helvetica,sans-Serif" font-size="10.00">+ Material MixMaterial</text>
<polyline fill="none" stroke="black" points="190,-36 362,-36 "/>
<text text-anchor="start" x="198" y="-24" font-family="Helvetica,sans-Serif" font-size="10.00">+ RenderTexture GetRenderResult()</text>
</a>
</g>
</g>
<!-- Node1&#45;&gt;Node4 -->
<g id="edge3" class="edge">
<title>Node1&#45;&gt;Node4</title>
<path fill="none" stroke="midnightblue" d="M276,-204.91C276,-191.26 276,-176.4 276,-162.06"/>
<polygon fill="none" stroke="midnightblue" points="272.5,-205.1 276,-215.1 279.5,-205.1 272.5,-205.1"/>
</g>
<!-- Node5 -->
<g id="node5" class="node">
<title>Node5</title>
<g id="a_node5"><a xlink:href="class_custom_post_processing_1_1_outline_catcher.html" target="_top" xlink:title="描边抓取">
<polygon fill="white" stroke="black" points="380,-0.5 380,-178.5 552,-178.5 552,-0.5 380,-0.5"/>
<text text-anchor="start" x="388" y="-166.5" font-family="Helvetica,sans-Serif" font-size="10.00">CustomPostProcessing.Outline</text>
<text text-anchor="middle" x="466" y="-155.5" font-family="Helvetica,sans-Serif" font-size="10.00">Catcher</text>
<polyline fill="none" stroke="black" points="380,-148.5 552,-148.5 "/>
<text text-anchor="start" x="388" y="-136.5" font-family="Helvetica,sans-Serif" font-size="10.00">+ Color backgroundColor</text>
<text text-anchor="start" x="388" y="-125.5" font-family="Helvetica,sans-Serif" font-size="10.00">+ Color edgeColor</text>
<text text-anchor="start" x="388" y="-114.5" font-family="Helvetica,sans-Serif" font-size="10.00">+ float edgeOnly</text>
<text text-anchor="start" x="388" y="-103.5" font-family="Helvetica,sans-Serif" font-size="10.00">+ float edgeSize</text>
<text text-anchor="start" x="388" y="-92.5" font-family="Helvetica,sans-Serif" font-size="10.00">+ Camera outlineCamera</text>
<text text-anchor="start" x="388" y="-81.5" font-family="Helvetica,sans-Serif" font-size="10.00">+ Shader outlineShader</text>
<text text-anchor="start" x="388" y="-70.5" font-family="Helvetica,sans-Serif" font-size="10.00">+ Material outlineMaterial</text>
<polyline fill="none" stroke="black" points="380,-63.5 552,-63.5 "/>
<text text-anchor="start" x="388" y="-51.5" font-family="Helvetica,sans-Serif" font-size="10.00">+ RenderTexture GetRenderResult()</text>
<text text-anchor="start" x="388" y="-40.5" font-family="Helvetica,sans-Serif" font-size="10.00">+ void AddTarget(GameObject</text>
<text text-anchor="start" x="388" y="-29.5" font-family="Helvetica,sans-Serif" font-size="10.00"> target)</text>
<text text-anchor="start" x="388" y="-18.5" font-family="Helvetica,sans-Serif" font-size="10.00">+ void RemoveTarget(GameObject</text>
<text text-anchor="start" x="388" y="-7.5" font-family="Helvetica,sans-Serif" font-size="10.00"> target)</text>
</a>
</g>
</g>
<!-- Node1&#45;&gt;Node5 -->
<g id="edge4" class="edge">
<title>Node1&#45;&gt;Node5</title>
<path fill="none" stroke="midnightblue" d="M336.96,-208.58C348.35,-198.85 360.1,-188.68 371,-179 373.95,-176.38 376.94,-173.7 379.95,-170.99"/>
<polygon fill="none" stroke="midnightblue" points="334.49,-206.08 329.14,-215.23 339.03,-211.41 334.49,-206.08"/>
</g>
<!-- Node2 -->
<g id="node2" class="node">
<title>Node2</title>
<g id="a_node2"><a xlink:title=" ">
<polygon fill="white" stroke="#bfbfbf" points="234.5,-342.5 234.5,-399.5 317.5,-399.5 317.5,-342.5 234.5,-342.5"/>
<text text-anchor="middle" x="276" y="-387.5" font-family="Helvetica,sans-Serif" font-size="10.00">MonoBehaviour</text>
<polyline fill="none" stroke="#bfbfbf" points="234.5,-380.5 317.5,-380.5 "/>
<text text-anchor="middle" x="276" y="-368.5" font-family="Helvetica,sans-Serif" font-size="10.00"> </text>
<polyline fill="none" stroke="#bfbfbf" points="234.5,-361.5 317.5,-361.5 "/>
<text text-anchor="middle" x="276" y="-349.5" font-family="Helvetica,sans-Serif" font-size="10.00"> </text>
</a>
</g>
</g>
<!-- Node2&#45;&gt;Node1 -->
<g id="edge1" class="edge">
<title>Node2&#45;&gt;Node1</title>
<path fill="none" stroke="midnightblue" d="M276,-332.21C276,-323.61 276,-314.39 276,-305.55"/>
<polygon fill="none" stroke="midnightblue" points="272.5,-332.34 276,-342.34 279.5,-332.34 272.5,-332.34"/>
</g>
</g>
</svg>
