<?xml version="1.0" encoding="UTF-8" standalone="no"?>
<!DOCTYPE svg PUBLIC "-//W3C//DTD SVG 1.1//EN"
 "http://www.w3.org/Graphics/SVG/1.1/DTD/svg11.dtd">
<!-- Generated by graphviz version 2.47.1 (20210417.1919)
 -->
<!-- Title: XmlSaver.XmlSaver.LoadXml Pages: 1 -->
<svg width="620pt" height="28pt"
 viewBox="0.00 0.00 620.00 28.00" xmlns="http://www.w3.org/2000/svg" xmlns:xlink="http://www.w3.org/1999/xlink">
<g id="graph0" class="graph" transform="scale(1 1) rotate(0) translate(4 24)">
<title>XmlSaver.XmlSaver.LoadXml</title>
<polygon fill="white" stroke="transparent" points="-4,4 -4,-24 616,-24 616,4 -4,4"/>
<!-- Node1 -->
<g id="node1" class="node">
<title>Node1</title>
<g id="a_node1"><a xlink:title="加载XML">
<polygon fill="#bfbfbf" stroke="black" points="473,-0.5 473,-19.5 612,-19.5 612,-0.5 473,-0.5"/>
<text text-anchor="middle" x="542.5" y="-7.5" font-family="Helvetica,sans-Serif" font-size="10.00">XmlSaver.XmlSaver.LoadXml</text>
</a>
</g>
</g>
<!-- Node2 -->
<g id="node2" class="node">
<title>Node2</title>
<g id="a_node2"><a xlink:href="class_quiz_1_1_quiz_saver.html#aef41fcd137b407a0a895105e32eba5fe" target="_top" xlink:title="读取XML文件">
<polygon fill="white" stroke="black" points="313,-0.5 313,-19.5 437,-19.5 437,-0.5 313,-0.5"/>
<text text-anchor="middle" x="375" y="-7.5" font-family="Helvetica,sans-Serif" font-size="10.00">Quiz.QuizSaver.LoadXml</text>
</a>
</g>
</g>
<!-- Node1&#45;&gt;Node2 -->
<g id="edge1" class="edge">
<title>Node1&#45;&gt;Node2</title>
<path fill="none" stroke="midnightblue" d="M462.71,-10C454.12,-10 445.47,-10 437.14,-10"/>
<polygon fill="midnightblue" stroke="midnightblue" points="462.75,-13.5 472.75,-10 462.75,-6.5 462.75,-13.5"/>
</g>
<!-- Node3 -->
<g id="node3" class="node">
<title>Node3</title>
<g id="a_node3"><a xlink:href="class_quiz_1_1_quiz_base.html#a89bc488d570a05d7dea68aae8b9f7541" target="_top" xlink:title=" ">
<polygon fill="white" stroke="black" points="143,-0.5 143,-19.5 277,-19.5 277,-0.5 143,-0.5"/>
<text text-anchor="middle" x="210" y="-7.5" font-family="Helvetica,sans-Serif" font-size="10.00">Quiz.QuizBase.LoadScene</text>
</a>
</g>
</g>
<!-- Node2&#45;&gt;Node3 -->
<g id="edge2" class="edge">
<title>Node2&#45;&gt;Node3</title>
<path fill="none" stroke="midnightblue" d="M302.61,-10C294.15,-10 285.53,-10 277.14,-10"/>
<polygon fill="midnightblue" stroke="midnightblue" points="302.84,-13.5 312.84,-10 302.84,-6.5 302.84,-13.5"/>
</g>
<!-- Node4 -->
<g id="node4" class="node">
<title>Node4</title>
<g id="a_node4"><a xlink:href="class_quiz_1_1_quiz_base.html#a62bd75950b67b8daa323ace19bc8cc7c" target="_top" xlink:title="是否加载完成">
<polygon fill="white" stroke="black" points="0,-0.5 0,-19.5 107,-19.5 107,-0.5 0,-0.5"/>
<text text-anchor="middle" x="53.5" y="-7.5" font-family="Helvetica,sans-Serif" font-size="10.00">Quiz.QuizBase.Start</text>
</a>
</g>
</g>
<!-- Node3&#45;&gt;Node4 -->
<g id="edge3" class="edge">
<title>Node3&#45;&gt;Node4</title>
<path fill="none" stroke="midnightblue" d="M132.31,-10C123.86,-10 115.41,-10 107.35,-10"/>
<polygon fill="midnightblue" stroke="midnightblue" points="132.58,-13.5 142.58,-10 132.58,-6.5 132.58,-13.5"/>
</g>
</g>
</svg>
