<?xml version="1.0" encoding="UTF-8" standalone="no"?>
<!DOCTYPE svg PUBLIC "-//W3C//DTD SVG 1.1//EN"
 "http://www.w3.org/Graphics/SVG/1.1/DTD/svg11.dtd">
<!-- Generated by graphviz version 2.47.1 (20210417.1919)
 -->
<!-- Title: SpaceShipVrTransformer Pages: 1 -->
<svg width="249pt" height="508pt"
 viewBox="0.00 0.00 248.50 508.00" xmlns="http://www.w3.org/2000/svg" xmlns:xlink="http://www.w3.org/1999/xlink">
<g id="graph0" class="graph" transform="scale(1 1) rotate(0) translate(4 504)">
<title>SpaceShipVrTransformer</title>
<polygon fill="white" stroke="transparent" points="-4,4 -4,-504 244.5,-504 244.5,4 -4,4"/>
<!-- Node1 -->
<g id="node1" class="node">
<title>Node1</title>
<g id="a_node1"><a xlink:title=" ">
<polygon fill="#bfbfbf" stroke="black" points="0,-0.5 0,-68.5 158,-68.5 158,-0.5 0,-0.5"/>
<text text-anchor="middle" x="79" y="-56.5" font-family="Helvetica,sans-Serif" font-size="10.00">SpaceShipVrTransformer</text>
<polyline fill="none" stroke="black" points="0,-49.5 158,-49.5 "/>
<text text-anchor="start" x="8" y="-37.5" font-family="Helvetica,sans-Serif" font-size="10.00">+ Transform spaceshipTransform</text>
<text text-anchor="start" x="8" y="-26.5" font-family="Helvetica,sans-Serif" font-size="10.00">+ float curPos</text>
<polyline fill="none" stroke="black" points="0,-19.5 158,-19.5 "/>
<text text-anchor="middle" x="79" y="-7.5" font-family="Helvetica,sans-Serif" font-size="10.00"> </text>
</a>
</g>
</g>
<!-- Node2 -->
<g id="node2" class="node">
<title>Node2</title>
<g id="a_node2"><a xlink:title=" ">
<polygon fill="white" stroke="#bfbfbf" points="33.5,-442.5 33.5,-499.5 116.5,-499.5 116.5,-442.5 33.5,-442.5"/>
<text text-anchor="middle" x="75" y="-487.5" font-family="Helvetica,sans-Serif" font-size="10.00">MonoBehaviour</text>
<polyline fill="none" stroke="#bfbfbf" points="33.5,-480.5 116.5,-480.5 "/>
<text text-anchor="middle" x="75" y="-468.5" font-family="Helvetica,sans-Serif" font-size="10.00"> </text>
<polyline fill="none" stroke="#bfbfbf" points="33.5,-461.5 116.5,-461.5 "/>
<text text-anchor="middle" x="75" y="-449.5" font-family="Helvetica,sans-Serif" font-size="10.00"> </text>
</a>
</g>
</g>
<!-- Node2&#45;&gt;Node1 -->
<g id="edge1" class="edge">
<title>Node2&#45;&gt;Node1</title>
<path fill="none" stroke="midnightblue" d="M75.35,-432.41C76.12,-348.72 77.96,-148.16 78.69,-68.72"/>
<polygon fill="none" stroke="midnightblue" points="71.85,-432.46 75.25,-442.49 78.85,-432.52 71.85,-432.46"/>
</g>
<!-- Node3 -->
<g id="node3" class="node">
<title>Node3</title>
<g id="a_node3"><a xlink:href="class_spaceship_1_1_spaceship_mover.html" target="_top" xlink:title=" ">
<polygon fill="white" stroke="black" points="91.5,-116.5 91.5,-404.5 240.5,-404.5 240.5,-116.5 91.5,-116.5"/>
<text text-anchor="middle" x="166" y="-392.5" font-family="Helvetica,sans-Serif" font-size="10.00">Spaceship.SpaceshipMover</text>
<polyline fill="none" stroke="black" points="91.5,-385.5 240.5,-385.5 "/>
<text text-anchor="start" x="99.5" y="-373.5" font-family="Helvetica,sans-Serif" font-size="10.00">+ Transform avatar</text>
<text text-anchor="start" x="99.5" y="-362.5" font-family="Helvetica,sans-Serif" font-size="10.00">+ List&lt; ParticleSystem</text>
<text text-anchor="start" x="99.5" y="-351.5" font-family="Helvetica,sans-Serif" font-size="10.00"> &gt; particleSystems</text>
<text text-anchor="start" x="99.5" y="-340.5" font-family="Helvetica,sans-Serif" font-size="10.00">+ float maxForwardSpeed</text>
<text text-anchor="start" x="99.5" y="-329.5" font-family="Helvetica,sans-Serif" font-size="10.00">+ float forwardAcc</text>
<text text-anchor="start" x="99.5" y="-318.5" font-family="Helvetica,sans-Serif" font-size="10.00">+ float forwardDamp</text>
<text text-anchor="start" x="99.5" y="-307.5" font-family="Helvetica,sans-Serif" font-size="10.00">+ float maxUpSpeed</text>
<text text-anchor="start" x="99.5" y="-296.5" font-family="Helvetica,sans-Serif" font-size="10.00">+ float upAcc</text>
<text text-anchor="start" x="99.5" y="-285.5" font-family="Helvetica,sans-Serif" font-size="10.00">+ float upDamp</text>
<text text-anchor="start" x="99.5" y="-274.5" font-family="Helvetica,sans-Serif" font-size="10.00">+ float maxRotateSpeed</text>
<text text-anchor="start" x="99.5" y="-263.5" font-family="Helvetica,sans-Serif" font-size="10.00">+ float rotateAcc</text>
<text text-anchor="start" x="99.5" y="-252.5" font-family="Helvetica,sans-Serif" font-size="10.00">+ float rotateDamp</text>
<text text-anchor="start" x="99.5" y="-241.5" font-family="Helvetica,sans-Serif" font-size="10.00">+ float avatarUpAngle</text>
<text text-anchor="start" x="99.5" y="-230.5" font-family="Helvetica,sans-Serif" font-size="10.00">+ float avatarRotateAngle</text>
<text text-anchor="start" x="99.5" y="-219.5" font-family="Helvetica,sans-Serif" font-size="10.00">+ float avatarAngleInterpolation</text>
<text text-anchor="start" x="99.5" y="-208.5" font-family="Helvetica,sans-Serif" font-size="10.00">+ Vector4 inputVector</text>
<text text-anchor="start" x="99.5" y="-197.5" font-family="Helvetica,sans-Serif" font-size="10.00">+ Rigidbody mRigidbody</text>
<text text-anchor="start" x="99.5" y="-186.5" font-family="Helvetica,sans-Serif" font-size="10.00">~ Vector3 moveDirection</text>
<text text-anchor="start" x="99.5" y="-175.5" font-family="Helvetica,sans-Serif" font-size="10.00">~ float nowForwardSpeed</text>
<text text-anchor="start" x="99.5" y="-164.5" font-family="Helvetica,sans-Serif" font-size="10.00">~ float nowUpSpeed</text>
<text text-anchor="start" x="99.5" y="-153.5" font-family="Helvetica,sans-Serif" font-size="10.00">~ float nowRotateSpeed</text>
<text text-anchor="start" x="99.5" y="-142.5" font-family="Helvetica,sans-Serif" font-size="10.00">~ float nowRotateAngle</text>
<polyline fill="none" stroke="black" points="91.5,-135.5 240.5,-135.5 "/>
<text text-anchor="start" x="99.5" y="-123.5" font-family="Helvetica,sans-Serif" font-size="10.00">+ void WaitForInputFinish()</text>
</a>
</g>
</g>
<!-- Node2&#45;&gt;Node3 -->
<g id="edge3" class="edge">
<title>Node2&#45;&gt;Node3</title>
<path fill="none" stroke="midnightblue" d="M91.11,-433.08C94.87,-424.48 99.08,-414.82 103.56,-404.57"/>
<polygon fill="none" stroke="midnightblue" points="87.88,-431.75 87.08,-442.31 94.29,-434.55 87.88,-431.75"/>
</g>
<!-- Node3&#45;&gt;Node1 -->
<g id="edge2" class="edge">
<title>Node3&#45;&gt;Node1</title>
<path fill="none" stroke="#404040" d="M110.41,-116.37C105.37,-103.4 100.57,-91.03 96.3,-80.05"/>
<polygon fill="none" stroke="#404040" points="96.24,-79.89 90.34,-75.74 91.9,-68.7 97.8,-72.85 96.24,-79.89"/>
<text text-anchor="middle" x="142.5" y="-90" font-family="Helvetica,sans-Serif" font-size="10.00"> +spaceshipMover</text>
</g>
</g>
</svg>
