<?xml version="1.0" encoding="UTF-8" standalone="no"?>
<!DOCTYPE svg PUBLIC "-//W3C//DTD SVG 1.1//EN"
 "http://www.w3.org/Graphics/SVG/1.1/DTD/svg11.dtd">
<!-- Generated by graphviz version 2.47.1 (20210417.1919)
 -->
<!-- Title: Quiz.QuizEditor.SaveQuiz Pages: 1 -->
<svg width="516pt" height="72pt"
 viewBox="0.00 0.00 516.00 71.50" xmlns="http://www.w3.org/2000/svg" xmlns:xlink="http://www.w3.org/1999/xlink">
<g id="graph0" class="graph" transform="scale(1 1) rotate(0) translate(4 67.5)">
<title>Quiz.QuizEditor.SaveQuiz</title>
<polygon fill="white" stroke="transparent" points="-4,4 -4,-67.5 512,-67.5 512,4 -4,4"/>
<!-- Node1 -->
<g id="node1" class="node">
<title>Node1</title>
<g id="a_node1"><a xlink:title="保存问题">
<polygon fill="#bfbfbf" stroke="black" points="0,-19.5 0,-38.5 130,-38.5 130,-19.5 0,-19.5"/>
<text text-anchor="middle" x="65" y="-26.5" font-family="Helvetica,sans-Serif" font-size="10.00">Quiz.QuizEditor.SaveQuiz</text>
</a>
</g>
</g>
<!-- Node2 -->
<g id="node2" class="node">
<title>Node2</title>
<g id="a_node2"><a xlink:href="class_quiz_1_1_quiz_saver.html#a2085ac4d9d04a7cbd1f245edc6aa08e1" target="_top" xlink:title="将星体群转为XML文档">
<polygon fill="white" stroke="black" points="166,-38.5 166,-57.5 327,-57.5 327,-38.5 166,-38.5"/>
<text text-anchor="middle" x="246.5" y="-45.5" font-family="Helvetica,sans-Serif" font-size="10.00">Quiz.QuizSaver.ConvertOrbit2Xml</text>
</a>
</g>
</g>
<!-- Node1&#45;&gt;Node2 -->
<g id="edge1" class="edge">
<title>Node1&#45;&gt;Node2</title>
<path fill="none" stroke="midnightblue" d="M130.04,-35.78C138.37,-36.66 147.01,-37.57 155.65,-38.49"/>
<polygon fill="midnightblue" stroke="midnightblue" points="155.47,-41.99 165.79,-39.56 156.21,-35.03 155.47,-41.99"/>
</g>
<!-- Node4 -->
<g id="node4" class="node">
<title>Node4</title>
<g id="a_node4"><a xlink:href="class_quiz_1_1_quiz_saver.html#a14d27ee7243531e8b5cc0f2794ec98dc" target="_top" xlink:title="保存XML">
<polygon fill="white" stroke="black" points="184.5,-0.5 184.5,-19.5 308.5,-19.5 308.5,-0.5 184.5,-0.5"/>
<text text-anchor="middle" x="246.5" y="-7.5" font-family="Helvetica,sans-Serif" font-size="10.00">Quiz.QuizSaver.SaveXml</text>
</a>
</g>
</g>
<!-- Node1&#45;&gt;Node4 -->
<g id="edge3" class="edge">
<title>Node1&#45;&gt;Node4</title>
<path fill="none" stroke="midnightblue" d="M130.04,-22.22C144.44,-20.7 159.8,-19.07 174.47,-17.52"/>
<polygon fill="midnightblue" stroke="midnightblue" points="174.91,-20.99 184.49,-16.46 174.17,-14.03 174.91,-20.99"/>
</g>
<!-- Node3 -->
<g id="node3" class="node">
<title>Node3</title>
<g id="a_node3"><a xlink:href="class_quiz_1_1_quiz_saver.html#ad356e58e8da0d3b295f1c4723ec09c35" target="_top" xlink:title=" ">
<polygon fill="white" stroke="black" points="363,-33 363,-63 508,-63 508,-33 363,-33"/>
<text text-anchor="start" x="371" y="-51" font-family="Helvetica,sans-Serif" font-size="10.00">Quiz.QuizSaver.ConvertAstral</text>
<text text-anchor="middle" x="435.5" y="-40" font-family="Helvetica,sans-Serif" font-size="10.00">Body2XmlElement</text>
</a>
</g>
</g>
<!-- Node2&#45;&gt;Node3 -->
<g id="edge2" class="edge">
<title>Node2&#45;&gt;Node3</title>
<path fill="none" stroke="midnightblue" d="M327.08,-48C335.65,-48 344.38,-48 352.98,-48"/>
<polygon fill="midnightblue" stroke="midnightblue" points="352.99,-51.5 362.99,-48 352.99,-44.5 352.99,-51.5"/>
</g>
</g>
</svg>
