<?xml version="1.0" encoding="UTF-8" standalone="no"?>
<!DOCTYPE svg PUBLIC "-//W3C//DTD SVG 1.1//EN"
 "http://www.w3.org/Graphics/SVG/1.1/DTD/svg11.dtd">
<!-- Generated by graphviz version 2.47.1 (20210417.1919)
 -->
<!-- Title: CustomUI.Tutorial.SatelliteTutorialUI Pages: 1 -->
<svg width="371pt" height="898pt"
 viewBox="0.00 0.00 370.76 898.00" xmlns="http://www.w3.org/2000/svg" xmlns:xlink="http://www.w3.org/1999/xlink">
<g id="graph0" class="graph" transform="scale(1 1) rotate(0) translate(4 894)">
<title>CustomUI.Tutorial.SatelliteTutorialUI</title>
<polygon fill="white" stroke="transparent" points="-4,4 -4,-894 366.76,-894 366.76,4 -4,4"/>
<!-- Node1 -->
<g id="node1" class="node">
<title>Node1</title>
<g id="a_node1"><a xlink:title=" ">
<polygon fill="#bfbfbf" stroke="black" points="122.76,-0.5 122.76,-68.5 268.76,-68.5 268.76,-0.5 122.76,-0.5"/>
<text text-anchor="start" x="130.76" y="-56.5" font-family="Helvetica,sans-Serif" font-size="10.00">CustomUI.Tutorial.Satellite</text>
<text text-anchor="middle" x="195.76" y="-45.5" font-family="Helvetica,sans-Serif" font-size="10.00">TutorialUI</text>
<polyline fill="none" stroke="black" points="122.76,-38.5 268.76,-38.5 "/>
<text text-anchor="start" x="130.76" y="-26.5" font-family="Helvetica,sans-Serif" font-size="10.00">+ int challengeIndex</text>
<polyline fill="none" stroke="black" points="122.76,-19.5 268.76,-19.5 "/>
<text text-anchor="start" x="130.76" y="-7.5" font-family="Helvetica,sans-Serif" font-size="10.00">+ override bool CheckAwake()</text>
</a>
</g>
</g>
<!-- Node2 -->
<g id="node2" class="node">
<title>Node2</title>
<g id="a_node2"><a xlink:href="class_custom_u_i_1_1_tutorial_1_1_tutorial_u_i.html" target="_top" xlink:title=" ">
<polygon fill="white" stroke="black" points="62.76,-106.5 62.76,-273.5 210.76,-273.5 210.76,-106.5 62.76,-106.5"/>
<text text-anchor="middle" x="136.76" y="-261.5" font-family="Helvetica,sans-Serif" font-size="10.00">TutorialUI</text>
<polyline fill="none" stroke="black" points="62.76,-254.5 210.76,-254.5 "/>
<text text-anchor="start" x="70.76" y="-242.5" font-family="Helvetica,sans-Serif" font-size="10.00">+ GameObject awakePanel</text>
<text text-anchor="start" x="70.76" y="-231.5" font-family="Helvetica,sans-Serif" font-size="10.00">+ List&lt; GameObject &gt;</text>
<text text-anchor="start" x="70.76" y="-220.5" font-family="Helvetica,sans-Serif" font-size="10.00"> tutorialClips</text>
<text text-anchor="start" x="70.76" y="-209.5" font-family="Helvetica,sans-Serif" font-size="10.00">+ string tutorialName</text>
<text text-anchor="start" x="70.76" y="-198.5" font-family="Helvetica,sans-Serif" font-size="10.00">+ int? curStep</text>
<polyline fill="none" stroke="black" points="62.76,-191.5 210.76,-191.5 "/>
<text text-anchor="start" x="70.76" y="-179.5" font-family="Helvetica,sans-Serif" font-size="10.00">+ void StartTutorial()</text>
<text text-anchor="start" x="70.76" y="-168.5" font-family="Helvetica,sans-Serif" font-size="10.00">+ void GetTutorialCLipsList()</text>
<text text-anchor="start" x="70.76" y="-157.5" font-family="Helvetica,sans-Serif" font-size="10.00">+ void GenerateTutorialName()</text>
<text text-anchor="start" x="70.76" y="-146.5" font-family="Helvetica,sans-Serif" font-size="10.00">+ void NextStep()</text>
<text text-anchor="start" x="70.76" y="-135.5" font-family="Helvetica,sans-Serif" font-size="10.00">+ void FormerStep()</text>
<text text-anchor="start" x="70.76" y="-124.5" font-family="Helvetica,sans-Serif" font-size="10.00">+ void Quit()</text>
<text text-anchor="start" x="70.76" y="-113.5" font-family="Helvetica,sans-Serif" font-size="10.00">+ virtual bool CheckAwake()</text>
</a>
</g>
</g>
<!-- Node2&#45;&gt;Node1 -->
<g id="edge1" class="edge">
<title>Node2&#45;&gt;Node1</title>
<path fill="none" stroke="midnightblue" d="M172.21,-96.78C176.03,-86.83 179.72,-77.24 182.99,-68.72"/>
<polygon fill="none" stroke="midnightblue" points="168.83,-95.82 168.51,-106.41 175.36,-98.33 168.83,-95.82"/>
</g>
<!-- Node3 -->
<g id="node3" class="node">
<title>Node3</title>
<g id="a_node3"><a xlink:title=" ">
<polygon fill="white" stroke="#bfbfbf" points="79.26,-832.5 79.26,-889.5 162.26,-889.5 162.26,-832.5 79.26,-832.5"/>
<text text-anchor="middle" x="120.76" y="-877.5" font-family="Helvetica,sans-Serif" font-size="10.00">MonoBehaviour</text>
<polyline fill="none" stroke="#bfbfbf" points="79.26,-870.5 162.26,-870.5 "/>
<text text-anchor="middle" x="120.76" y="-858.5" font-family="Helvetica,sans-Serif" font-size="10.00"> </text>
<polyline fill="none" stroke="#bfbfbf" points="79.26,-851.5 162.26,-851.5 "/>
<text text-anchor="middle" x="120.76" y="-839.5" font-family="Helvetica,sans-Serif" font-size="10.00"> </text>
</a>
</g>
</g>
<!-- Node3&#45;&gt;Node2 -->
<g id="edge2" class="edge">
<title>Node3&#45;&gt;Node2</title>
<path fill="none" stroke="midnightblue" d="M88.42,-824.37C81.85,-815.36 75.74,-805.3 71.76,-795 -4.31,-598.03 -26.76,-521.39 39.76,-321 45.22,-304.56 53.65,-288.52 63.32,-273.63"/>
<polygon fill="none" stroke="midnightblue" points="85.67,-826.54 94.54,-832.33 91.22,-822.27 85.67,-826.54"/>
</g>
<!-- Node4 -->
<g id="node4" class="node">
<title>Node4</title>
<g id="a_node4"><a xlink:href="class_custom_u_i_1_1_tutorial_1_1_tutorial_manager_u_i.html" target="_top" xlink:title=" ">
<polygon fill="white" stroke="black" points="49.26,-321.5 49.26,-444.5 224.26,-444.5 224.26,-321.5 49.26,-321.5"/>
<text text-anchor="start" x="57.26" y="-432.5" font-family="Helvetica,sans-Serif" font-size="10.00">CustomUI.Tutorial.Tutorial</text>
<text text-anchor="middle" x="136.76" y="-421.5" font-family="Helvetica,sans-Serif" font-size="10.00">ManagerUI</text>
<polyline fill="none" stroke="black" points="49.26,-414.5 224.26,-414.5 "/>
<text text-anchor="start" x="57.26" y="-402.5" font-family="Helvetica,sans-Serif" font-size="10.00">+ List&lt; TutorialUI &gt;</text>
<text text-anchor="start" x="57.26" y="-391.5" font-family="Helvetica,sans-Serif" font-size="10.00"> tutorialUiList</text>
<text text-anchor="start" x="57.26" y="-380.5" font-family="Helvetica,sans-Serif" font-size="10.00"># static Dictionary&lt;</text>
<text text-anchor="start" x="57.26" y="-369.5" font-family="Helvetica,sans-Serif" font-size="10.00"> string, bool &gt; hasBeenActivatedDict</text>
<polyline fill="none" stroke="black" points="49.26,-362.5 224.26,-362.5 "/>
<text text-anchor="start" x="57.26" y="-350.5" font-family="Helvetica,sans-Serif" font-size="10.00">+ void Update()</text>
<text text-anchor="start" x="57.26" y="-339.5" font-family="Helvetica,sans-Serif" font-size="10.00"># virtual void MonitorAwake</text>
<text text-anchor="start" x="57.26" y="-328.5" font-family="Helvetica,sans-Serif" font-size="10.00">Panel()</text>
</a>
</g>
</g>
<!-- Node3&#45;&gt;Node4 -->
<g id="edge4" class="edge">
<title>Node3&#45;&gt;Node4</title>
<path fill="none" stroke="midnightblue" d="M97.73,-823.39C93.21,-814.43 89.13,-804.64 86.76,-795 56.74,-672.84 91.13,-525.64 115.9,-444.71"/>
<polygon fill="none" stroke="midnightblue" points="94.75,-825.23 102.56,-832.39 100.92,-821.92 94.75,-825.23"/>
</g>
<!-- Node5 -->
<g id="node5" class="node">
<title>Node5</title>
<g id="a_node5"><a xlink:href="class_t_t_s_1_1_voice_generator.html" target="_top" xlink:title="语音合成">
<polygon fill="white" stroke="black" points="96.26,-693.5 96.26,-794.5 253.26,-794.5 253.26,-693.5 96.26,-693.5"/>
<text text-anchor="middle" x="174.76" y="-782.5" font-family="Helvetica,sans-Serif" font-size="10.00">TTS.VoiceGenerator</text>
<polyline fill="none" stroke="black" points="96.26,-775.5 253.26,-775.5 "/>
<text text-anchor="start" x="104.26" y="-763.5" font-family="Helvetica,sans-Serif" font-size="10.00">+ string content</text>
<polyline fill="none" stroke="black" points="96.26,-756.5 253.26,-756.5 "/>
<text text-anchor="start" x="104.26" y="-744.5" font-family="Helvetica,sans-Serif" font-size="10.00">+ void Speak(string content)</text>
<text text-anchor="start" x="104.26" y="-733.5" font-family="Helvetica,sans-Serif" font-size="10.00">+ async Task GetAudioAsync()</text>
<text text-anchor="start" x="104.26" y="-722.5" font-family="Helvetica,sans-Serif" font-size="10.00">+ IEnumerator OnAudioLoadAnd</text>
<text text-anchor="start" x="104.26" y="-711.5" font-family="Helvetica,sans-Serif" font-size="10.00">Paly(string url, AudioType</text>
<text text-anchor="start" x="104.26" y="-700.5" font-family="Helvetica,sans-Serif" font-size="10.00"> type, AudioSource audio)</text>
</a>
</g>
</g>
<!-- Node3&#45;&gt;Node5 -->
<g id="edge6" class="edge">
<title>Node3&#45;&gt;Node5</title>
<path fill="none" stroke="midnightblue" d="M137.98,-823.34C142.24,-814.27 146.87,-804.39 151.37,-794.81"/>
<polygon fill="none" stroke="midnightblue" points="134.78,-821.92 133.7,-832.45 141.12,-824.89 134.78,-821.92"/>
</g>
<!-- Node6 -->
<g id="node6" class="node">
<title>Node6</title>
<g id="a_node6"><a xlink:href="class_custom_u_i_1_1_lab_mode_u_i.html" target="_top" xlink:title=" ">
<polygon fill="white" stroke="black" points="212.76,-463.5 212.76,-674.5 362.76,-674.5 362.76,-463.5 212.76,-463.5"/>
<text text-anchor="middle" x="287.76" y="-662.5" font-family="Helvetica,sans-Serif" font-size="10.00">CustomUI.LabModeUI</text>
<polyline fill="none" stroke="black" points="212.76,-655.5 362.76,-655.5 "/>
<text text-anchor="start" x="220.76" y="-643.5" font-family="Helvetica,sans-Serif" font-size="10.00">+ GameObject difficultyPanel</text>
<text text-anchor="start" x="220.76" y="-632.5" font-family="Helvetica,sans-Serif" font-size="10.00">+ GameObject sceneListPanel</text>
<text text-anchor="start" x="220.76" y="-621.5" font-family="Helvetica,sans-Serif" font-size="10.00">+ GameObject satellitePanel</text>
<text text-anchor="start" x="220.76" y="-610.5" font-family="Helvetica,sans-Serif" font-size="10.00">+ int satelliteSceneIndex</text>
<polyline fill="none" stroke="black" points="212.76,-603.5 362.76,-603.5 "/>
<text text-anchor="start" x="220.76" y="-591.5" font-family="Helvetica,sans-Serif" font-size="10.00">+ void ToLab()</text>
<text text-anchor="start" x="220.76" y="-580.5" font-family="Helvetica,sans-Serif" font-size="10.00">+ void ToSatelliteChallenge</text>
<text text-anchor="start" x="220.76" y="-569.5" font-family="Helvetica,sans-Serif" font-size="10.00">(int difficulty)</text>
<text text-anchor="start" x="220.76" y="-558.5" font-family="Helvetica,sans-Serif" font-size="10.00">+ void ToMain()</text>
<text text-anchor="start" x="220.76" y="-547.5" font-family="Helvetica,sans-Serif" font-size="10.00">+ void ShowDifficultyPanel()</text>
<text text-anchor="start" x="220.76" y="-536.5" font-family="Helvetica,sans-Serif" font-size="10.00">+ void CloseDifficultyPanel()</text>
<text text-anchor="start" x="220.76" y="-525.5" font-family="Helvetica,sans-Serif" font-size="10.00">+ void ShowScenesListPanel()</text>
<text text-anchor="start" x="220.76" y="-514.5" font-family="Helvetica,sans-Serif" font-size="10.00">+ void CloseScenesListPanel()</text>
<text text-anchor="start" x="220.76" y="-503.5" font-family="Helvetica,sans-Serif" font-size="10.00">+ void ShowSatellitePanel()</text>
<text text-anchor="start" x="220.76" y="-492.5" font-family="Helvetica,sans-Serif" font-size="10.00">+ void CloseSatellitePanel()</text>
<text text-anchor="start" x="220.76" y="-481.5" font-family="Helvetica,sans-Serif" font-size="10.00">+ void SetSatelliteIndex</text>
<text text-anchor="start" x="220.76" y="-470.5" font-family="Helvetica,sans-Serif" font-size="10.00">(int index)</text>
</a>
</g>
</g>
<!-- Node3&#45;&gt;Node6 -->
<g id="edge8" class="edge">
<title>Node3&#45;&gt;Node6</title>
<path fill="none" stroke="midnightblue" d="M172.27,-849.84C203.57,-840.87 241.47,-824.44 262.76,-795 287.52,-760.76 295.89,-715.6 297.28,-674.73"/>
<polygon fill="none" stroke="midnightblue" points="171.12,-846.53 162.37,-852.5 172.94,-853.29 171.12,-846.53"/>
</g>
<!-- Node4&#45;&gt;Node2 -->
<g id="edge3" class="edge">
<title>Node4&#45;&gt;Node2</title>
<path fill="none" stroke="#404040" d="M136.76,-321.3C136.76,-309.92 136.76,-297.76 136.76,-285.63"/>
<polygon fill="none" stroke="#404040" points="136.76,-285.53 132.76,-279.53 136.76,-273.53 140.76,-279.53 136.76,-285.53"/>
<text text-anchor="middle" x="179.26" y="-295" font-family="Helvetica,sans-Serif" font-size="10.00"> +tutorialManagerUI</text>
</g>
<!-- Node5&#45;&gt;Node4 -->
<g id="edge5" class="edge">
<title>Node5&#45;&gt;Node4</title>
<path fill="none" stroke="#404040" d="M137.39,-693.39C134.29,-687.43 131.64,-681.24 129.76,-675 108.1,-603.02 113.98,-516.44 122.7,-456.52"/>
<polygon fill="none" stroke="#404040" points="122.72,-456.4 119.67,-449.86 124.54,-444.54 127.58,-451.07 122.72,-456.4"/>
<text text-anchor="middle" x="166.76" y="-566.5" font-family="Helvetica,sans-Serif" font-size="10.00"> +voiceGenerator</text>
</g>
<!-- Node6&#45;&gt;Node1 -->
<g id="edge7" class="edge">
<title>Node6&#45;&gt;Node1</title>
<path fill="none" stroke="#404040" d="M277.85,-463.29C267.62,-368.97 249,-226.96 219.76,-106 217.74,-97.63 215.14,-88.84 212.41,-80.42"/>
<polygon fill="none" stroke="#404040" points="212.34,-80.21 206.63,-75.81 208.5,-68.84 214.21,-73.25 212.34,-80.21"/>
<text text-anchor="middle" x="284.26" y="-295" font-family="Helvetica,sans-Serif" font-size="10.00"> +labModeUI</text>
</g>
</g>
</svg>
