<?xml version="1.0" encoding="UTF-8" standalone="no"?>
<!DOCTYPE svg PUBLIC "-//W3C//DTD SVG 1.1//EN"
 "http://www.w3.org/Graphics/SVG/1.1/DTD/svg11.dtd">
<!-- Generated by graphviz version 2.47.1 (20210417.1919)
 -->
<!-- Title: CustomUI.LengthUI Pages: 1 -->
<svg width="179pt" height="204pt"
 viewBox="0.00 0.00 179.00 204.00" xmlns="http://www.w3.org/2000/svg" xmlns:xlink="http://www.w3.org/1999/xlink">
<g id="graph0" class="graph" transform="scale(1 1) rotate(0) translate(4 200)">
<title>CustomUI.LengthUI</title>
<polygon fill="white" stroke="transparent" points="-4,4 -4,-200 175,-200 175,4 -4,4"/>
<!-- Node1 -->
<g id="node1" class="node">
<title>Node1</title>
<g id="a_node1"><a xlink:title=" ">
<polygon fill="#bfbfbf" stroke="black" points="0,-0.5 0,-101.5 171,-101.5 171,-0.5 0,-0.5"/>
<text text-anchor="middle" x="85.5" y="-89.5" font-family="Helvetica,sans-Serif" font-size="10.00">CustomUI.LengthUI</text>
<polyline fill="none" stroke="black" points="0,-82.5 171,-82.5 "/>
<text text-anchor="start" x="8" y="-70.5" font-family="Helvetica,sans-Serif" font-size="10.00">+ AstralBody astralBody</text>
<text text-anchor="start" x="8" y="-59.5" font-family="Helvetica,sans-Serif" font-size="10.00">+ LengthCalculator lengthCalculator</text>
<text text-anchor="start" x="8" y="-48.5" font-family="Helvetica,sans-Serif" font-size="10.00">+ SplineComputer lengthSpline</text>
<text text-anchor="start" x="8" y="-37.5" font-family="Helvetica,sans-Serif" font-size="10.00">+ Text lengthText</text>
<text text-anchor="start" x="8" y="-26.5" font-family="Helvetica,sans-Serif" font-size="10.00">+ AstralBody targetAstralBody</text>
<polyline fill="none" stroke="black" points="0,-19.5 171,-19.5 "/>
<text text-anchor="middle" x="85.5" y="-7.5" font-family="Helvetica,sans-Serif" font-size="10.00"> </text>
</a>
</g>
</g>
<!-- Node2 -->
<g id="node2" class="node">
<title>Node2</title>
<g id="a_node2"><a xlink:title=" ">
<polygon fill="white" stroke="#bfbfbf" points="44,-138.5 44,-195.5 127,-195.5 127,-138.5 44,-138.5"/>
<text text-anchor="middle" x="85.5" y="-183.5" font-family="Helvetica,sans-Serif" font-size="10.00">MonoBehaviour</text>
<polyline fill="none" stroke="#bfbfbf" points="44,-176.5 127,-176.5 "/>
<text text-anchor="middle" x="85.5" y="-164.5" font-family="Helvetica,sans-Serif" font-size="10.00"> </text>
<polyline fill="none" stroke="#bfbfbf" points="44,-157.5 127,-157.5 "/>
<text text-anchor="middle" x="85.5" y="-145.5" font-family="Helvetica,sans-Serif" font-size="10.00"> </text>
</a>
</g>
</g>
<!-- Node2&#45;&gt;Node1 -->
<g id="edge1" class="edge">
<title>Node2&#45;&gt;Node1</title>
<path fill="none" stroke="midnightblue" d="M85.5,-128.35C85.5,-119.8 85.5,-110.58 85.5,-101.61"/>
<polygon fill="none" stroke="midnightblue" points="82,-128.4 85.5,-138.4 89,-128.4 82,-128.4"/>
</g>
</g>
</svg>
