<?xml version="1.0" encoding="UTF-8" standalone="no"?>
<!DOCTYPE svg PUBLIC "-//W3C//DTD SVG 1.1//EN"
 "http://www.w3.org/Graphics/SVG/1.1/DTD/svg11.dtd">
<!-- Generated by graphviz version 2.47.1 (20210417.1919)
 -->
<!-- Title: SpacePhysic.AstralBody.Start Pages: 1 -->
<svg width="564pt" height="78pt"
 viewBox="0.00 0.00 564.00 77.50" xmlns="http://www.w3.org/2000/svg" xmlns:xlink="http://www.w3.org/1999/xlink">
<g id="graph0" class="graph" transform="scale(1 1) rotate(0) translate(4 73.5)">
<title>SpacePhysic.AstralBody.Start</title>
<polygon fill="white" stroke="transparent" points="-4,4 -4,-73.5 560,-73.5 560,4 -4,4"/>
<!-- Node1 -->
<g id="node1" class="node">
<title>Node1</title>
<g id="a_node1"><a xlink:title=" ">
<polygon fill="#bfbfbf" stroke="black" points="0,-22.5 0,-41.5 149,-41.5 149,-22.5 0,-22.5"/>
<text text-anchor="middle" x="74.5" y="-29.5" font-family="Helvetica,sans-Serif" font-size="10.00">SpacePhysic.AstralBody.Start</text>
</a>
</g>
</g>
<!-- Node2 -->
<g id="node2" class="node">
<title>Node2</title>
<g id="a_node2"><a xlink:href="class_space_physic_1_1_astral_body.html#a5c1d5bbbcd247e49603f2d702f9118b0" target="_top" xlink:title=" ">
<polygon fill="white" stroke="black" points="185,-22.5 185,-41.5 353,-41.5 353,-22.5 185,-22.5"/>
<text text-anchor="middle" x="269" y="-29.5" font-family="Helvetica,sans-Serif" font-size="10.00">SpacePhysic.AstralBody.Generate</text>
</a>
</g>
</g>
<!-- Node1&#45;&gt;Node2 -->
<g id="edge1" class="edge">
<title>Node1&#45;&gt;Node2</title>
<path fill="none" stroke="midnightblue" d="M149.1,-32C157.49,-32 166.13,-32 174.73,-32"/>
<polygon fill="midnightblue" stroke="midnightblue" points="174.8,-35.5 184.8,-32 174.8,-28.5 174.8,-35.5"/>
</g>
<!-- Node3 -->
<g id="node3" class="node">
<title>Node3</title>
<g id="a_node3"><a xlink:href="class_space_physic_1_1_astral_body.html#a8c43caafe4f528c08feb450cba3c5cd7" target="_top" xlink:title="调整星球速度">
<polygon fill="white" stroke="black" points="392,-39 392,-69 553,-69 553,-39 392,-39"/>
<text text-anchor="start" x="400" y="-57" font-family="Helvetica,sans-Serif" font-size="10.00">SpacePhysic.AstralBody.Change</text>
<text text-anchor="middle" x="472.5" y="-46" font-family="Helvetica,sans-Serif" font-size="10.00">Velocity</text>
</a>
</g>
</g>
<!-- Node2&#45;&gt;Node3 -->
<g id="edge2" class="edge">
<title>Node2&#45;&gt;Node3</title>
<path fill="none" stroke="midnightblue" d="M353.12,-41.08C362.52,-42.1 372.12,-43.15 381.6,-44.18"/>
<polygon fill="midnightblue" stroke="midnightblue" points="381.49,-47.69 391.81,-45.3 382.25,-40.73 381.49,-47.69"/>
</g>
<!-- Node4 -->
<g id="node4" class="node">
<title>Node4</title>
<g id="a_node4"><a xlink:href="class_space_physic_1_1_astral_body.html#a3b69f3ac1f1c3b789f3d9102cdb2a80c" target="_top" xlink:title=" ">
<polygon fill="white" stroke="black" points="389,-0.5 389,-19.5 556,-19.5 556,-0.5 389,-0.5"/>
<text text-anchor="middle" x="472.5" y="-7.5" font-family="Helvetica,sans-Serif" font-size="10.00">SpacePhysic.AstralBody.SetMass</text>
</a>
</g>
</g>
<!-- Node2&#45;&gt;Node4 -->
<g id="edge3" class="edge">
<title>Node2&#45;&gt;Node4</title>
<path fill="none" stroke="midnightblue" d="M353.12,-22.92C361.61,-22 370.28,-21.05 378.87,-20.11"/>
<polygon fill="midnightblue" stroke="midnightblue" points="379.33,-23.58 388.89,-19.02 378.57,-16.63 379.33,-23.58"/>
</g>
</g>
</svg>
