<?xml version="1.0" encoding="UTF-8" standalone="no"?>
<!DOCTYPE svg PUBLIC "-//W3C//DTD SVG 1.1//EN"
 "http://www.w3.org/Graphics/SVG/1.1/DTD/svg11.dtd">
<!-- Generated by graphviz version 2.47.1 (20210417.1919)
 -->
<!-- Title: GameManagers.GameManager.GetMainCameraController Pages: 1 -->
<svg width="351pt" height="137pt"
 viewBox="0.00 0.00 351.00 137.00" xmlns="http://www.w3.org/2000/svg" xmlns:xlink="http://www.w3.org/1999/xlink">
<g id="graph0" class="graph" transform="scale(1 1) rotate(0) translate(4 133)">
<title>GameManagers.GameManager.GetMainCameraController</title>
<polygon fill="white" stroke="transparent" points="-4,4 -4,-133 347,-133 347,4 -4,4"/>
<!-- Node1 -->
<g id="node1" class="node">
<title>Node1</title>
<g id="a_node1"><a xlink:title="获取主相机控制器">
<polygon fill="#bfbfbf" stroke="black" points="188,-49.5 188,-79.5 343,-79.5 343,-49.5 188,-49.5"/>
<text text-anchor="start" x="196" y="-67.5" font-family="Helvetica,sans-Serif" font-size="10.00">GameManagers.GameManager.</text>
<text text-anchor="middle" x="265.5" y="-56.5" font-family="Helvetica,sans-Serif" font-size="10.00">GetMainCameraController</text>
</a>
</g>
</g>
<!-- Node2 -->
<g id="node2" class="node">
<title>Node2</title>
<g id="a_node2"><a xlink:href="class_custom_u_i_1_1_astral_body_editor_1_1_astral_body_editor_u_i.html#a1cf353edffb5134ab0f6a39460ced6a4" target="_top" xlink:title=" ">
<polygon fill="white" stroke="black" points="0,-98.5 0,-128.5 152,-128.5 152,-98.5 0,-98.5"/>
<text text-anchor="start" x="8" y="-116.5" font-family="Helvetica,sans-Serif" font-size="10.00">CustomUI.AstralBodyEditor.</text>
<text text-anchor="middle" x="76" y="-105.5" font-family="Helvetica,sans-Serif" font-size="10.00">AstralBodyEditorUI.ClosePanel</text>
</a>
</g>
</g>
<!-- Node1&#45;&gt;Node2 -->
<g id="edge1" class="edge">
<title>Node1&#45;&gt;Node2</title>
<path fill="none" stroke="midnightblue" d="M197.07,-82.12C176.55,-87.48 154.21,-93.32 134.42,-98.49"/>
<polygon fill="midnightblue" stroke="midnightblue" points="198.18,-85.45 206.97,-79.53 196.41,-78.68 198.18,-85.45"/>
</g>
<!-- Node3 -->
<g id="node3" class="node">
<title>Node3</title>
<g id="a_node3"><a xlink:href="class_custom_u_i_1_1_astral_body_editor_1_1_position_editor_u_i.html#a588afb786690598796e6ee8c6689f597" target="_top" xlink:title=" ">
<polygon fill="white" stroke="black" points="2.5,-49.5 2.5,-79.5 149.5,-79.5 149.5,-49.5 2.5,-49.5"/>
<text text-anchor="start" x="10.5" y="-67.5" font-family="Helvetica,sans-Serif" font-size="10.00">CustomUI.AstralBodyEditor.</text>
<text text-anchor="middle" x="76" y="-56.5" font-family="Helvetica,sans-Serif" font-size="10.00">PositionEditorUI.OnBeginDrag</text>
</a>
</g>
</g>
<!-- Node1&#45;&gt;Node3 -->
<g id="edge2" class="edge">
<title>Node1&#45;&gt;Node3</title>
<path fill="none" stroke="midnightblue" d="M177.81,-64.5C168.39,-64.5 158.88,-64.5 149.66,-64.5"/>
<polygon fill="midnightblue" stroke="midnightblue" points="177.97,-68 187.97,-64.5 177.97,-61 177.97,-68"/>
</g>
<!-- Node4 -->
<g id="node4" class="node">
<title>Node4</title>
<g id="a_node4"><a xlink:href="class_custom_u_i_1_1_astral_body_editor_1_1_position_editor_u_i.html#a4177c29a6c3a2ca2600ce108202f6daf" target="_top" xlink:title=" ">
<polygon fill="white" stroke="black" points="6,-0.5 6,-30.5 146,-30.5 146,-0.5 6,-0.5"/>
<text text-anchor="start" x="14" y="-18.5" font-family="Helvetica,sans-Serif" font-size="10.00">CustomUI.AstralBodyEditor.</text>
<text text-anchor="middle" x="76" y="-7.5" font-family="Helvetica,sans-Serif" font-size="10.00">PositionEditorUI.OnEndDrag</text>
</a>
</g>
</g>
<!-- Node1&#45;&gt;Node4 -->
<g id="edge3" class="edge">
<title>Node1&#45;&gt;Node4</title>
<path fill="none" stroke="midnightblue" d="M197.07,-46.88C176.55,-41.52 154.21,-35.68 134.42,-30.51"/>
<polygon fill="midnightblue" stroke="midnightblue" points="196.41,-50.32 206.97,-49.47 198.18,-43.55 196.41,-50.32"/>
</g>
</g>
</svg>
