<?xml version="1.0" encoding="UTF-8" standalone="no"?>
<!DOCTYPE svg PUBLIC "-//W3C//DTD SVG 1.1//EN"
 "http://www.w3.org/Graphics/SVG/1.1/DTD/svg11.dtd">
<!-- Generated by graphviz version 2.47.1 (20210417.1919)
 -->
<!-- Title: PostProcessing.Dof Pages: 1 -->
<svg width="193pt" height="226pt"
 viewBox="0.00 0.00 193.00 226.00" xmlns="http://www.w3.org/2000/svg" xmlns:xlink="http://www.w3.org/1999/xlink">
<g id="graph0" class="graph" transform="scale(1 1) rotate(0) translate(4 222)">
<title>PostProcessing.Dof</title>
<polygon fill="white" stroke="transparent" points="-4,4 -4,-222 189,-222 189,4 -4,4"/>
<!-- Node1 -->
<g id="node1" class="node">
<title>Node1</title>
<g id="a_node1"><a xlink:title="景深效果">
<polygon fill="#bfbfbf" stroke="black" points="0,-0.5 0,-123.5 185,-123.5 185,-0.5 0,-0.5"/>
<text text-anchor="middle" x="92.5" y="-111.5" font-family="Helvetica,sans-Serif" font-size="10.00">PostProcessing.Dof</text>
<polyline fill="none" stroke="black" points="0,-104.5 185,-104.5 "/>
<text text-anchor="start" x="8" y="-92.5" font-family="Helvetica,sans-Serif" font-size="10.00">+ FloatParameter aperture</text>
<text text-anchor="start" x="8" y="-81.5" font-family="Helvetica,sans-Serif" font-size="10.00">+ FloatParameter focalLength</text>
<text text-anchor="start" x="8" y="-70.5" font-family="Helvetica,sans-Serif" font-size="10.00">+ FloatParameter focusDistance</text>
<text text-anchor="start" x="8" y="-59.5" font-family="Helvetica,sans-Serif" font-size="10.00">+ KernelSizeParameter</text>
<text text-anchor="start" x="8" y="-48.5" font-family="Helvetica,sans-Serif" font-size="10.00"> kernelSize</text>
<polyline fill="none" stroke="black" points="0,-41.5 185,-41.5 "/>
<text text-anchor="start" x="8" y="-29.5" font-family="Helvetica,sans-Serif" font-size="10.00">+ override bool IsEnabledAnd</text>
<text text-anchor="start" x="8" y="-18.5" font-family="Helvetica,sans-Serif" font-size="10.00">Supported(PostProcessRenderContext</text>
<text text-anchor="start" x="8" y="-7.5" font-family="Helvetica,sans-Serif" font-size="10.00"> context)</text>
</a>
</g>
</g>
<!-- Node2 -->
<g id="node2" class="node">
<title>Node2</title>
<g id="a_node2"><a xlink:title=" ">
<polygon fill="white" stroke="#bfbfbf" points="25.5,-160.5 25.5,-217.5 159.5,-217.5 159.5,-160.5 25.5,-160.5"/>
<text text-anchor="middle" x="92.5" y="-205.5" font-family="Helvetica,sans-Serif" font-size="10.00">PostProcessEffectSettings</text>
<polyline fill="none" stroke="#bfbfbf" points="25.5,-198.5 159.5,-198.5 "/>
<text text-anchor="middle" x="92.5" y="-186.5" font-family="Helvetica,sans-Serif" font-size="10.00"> </text>
<polyline fill="none" stroke="#bfbfbf" points="25.5,-179.5 159.5,-179.5 "/>
<text text-anchor="middle" x="92.5" y="-167.5" font-family="Helvetica,sans-Serif" font-size="10.00"> </text>
</a>
</g>
</g>
<!-- Node2&#45;&gt;Node1 -->
<g id="edge1" class="edge">
<title>Node2&#45;&gt;Node1</title>
<path fill="none" stroke="midnightblue" d="M92.5,-150.1C92.5,-141.74 92.5,-132.68 92.5,-123.67"/>
<polygon fill="none" stroke="midnightblue" points="89,-150.26 92.5,-160.26 96,-150.26 89,-150.26"/>
</g>
</g>
</svg>
