<?xml version="1.0" encoding="UTF-8" standalone="no"?>
<!DOCTYPE svg PUBLIC "-//W3C//DTD SVG 1.1//EN"
 "http://www.w3.org/Graphics/SVG/1.1/DTD/svg11.dtd">
<!-- Generated by graphviz version 2.47.1 (20210417.1919)
 -->
<!-- Title: CustomUI.Tutorial.TutorialUI Pages: 1 -->
<!--zoomable 591 -->
<svg id="main" version="1.1" xmlns="http://www.w3.org/2000/svg" xmlns:xlink="http://www.w3.org/1999/xlink" xml:space="preserve" onload="init(evt)">
<style type="text/css"><![CDATA[
.edge:hover path { stroke: red; }
.edge:hover polygon { stroke: red; fill: red; }
]]></style>
<script type="text/javascript"><![CDATA[
var edges = document.getElementsByTagName('g');
if (edges && edges.length) {
  for (var i=0;i<edges.length;i++) {
    if (edges[i].id.substr(0,4)=='edge') {
      edges[i].setAttribute('class','edge');
    }
  }
}
]]></script>
        <defs>
                <circle id="rim" cx="0" cy="0" r="7"/>
                <circle id="rim2" cx="0" cy="0" r="3.5"/>
                <g id="zoomPlus">
                        <use xlink:href="#rim" fill="#404040">
                                <set attributeName="fill" to="#808080" begin="zoomplus.mouseover" end="zoomplus.mouseout"/>
                        </use>
                        <path d="M-4,0h8M0,-4v8" fill="none" stroke="white" stroke-width="1.5" pointer-events="none"/>
                </g>
                <g id="zoomMin">
                        <use xlink:href="#rim" fill="#404040">
                                <set attributeName="fill" to="#808080" begin="zoomminus.mouseover" end="zoomminus.mouseout"/>
                        </use>
                        <path d="M-4,0h8" fill="none" stroke="white" stroke-width="1.5" pointer-events="none"/>
                </g>
                <g id="dirArrow">
                        <path fill="none" stroke="white" stroke-width="1.5" d="M0,-3.0v7 M-2.5,-0.5L0,-3.0L2.5,-0.5"/>
                </g>
               <g id="resetDef">
                       <use xlink:href="#rim2" fill="#404040">
                               <set attributeName="fill" to="#808080" begin="reset.mouseover" end="reset.mouseout"/>
                       </use>
               </g>
        </defs>

<script type="text/javascript">
var viewWidth = 290;
var viewHeight = 591;
var sectionId = 'dynsection-1';
</script>
<script xlink:href="svgpan.js"/>
<svg id="graph" class="graph">
<g id="viewport">
<title>CustomUI.Tutorial.TutorialUI</title>
<polygon fill="white" stroke="transparent" points="-4,4 -4,-587 285.5,-587 285.5,4 -4,4"/>
<!-- Node1 -->
<g id="node1" class="node">
<title>Node1</title>
<g id="a_node1"><a xlink:title=" ">
<polygon fill="#bfbfbf" stroke="black" points="0,-0.5 0,-167.5 148,-167.5 148,-0.5 0,-0.5"/>
<text text-anchor="middle" x="74" y="-155.5" font-family="Helvetica,sans-Serif" font-size="10.00">CustomUI.Tutorial.TutorialUI</text>
<polyline fill="none" stroke="black" points="0,-148.5 148,-148.5 "/>
<text text-anchor="start" x="8" y="-136.5" font-family="Helvetica,sans-Serif" font-size="10.00">+ GameObject awakePanel</text>
<text text-anchor="start" x="8" y="-125.5" font-family="Helvetica,sans-Serif" font-size="10.00">+ List&lt; GameObject &gt;</text>
<text text-anchor="start" x="8" y="-114.5" font-family="Helvetica,sans-Serif" font-size="10.00"> tutorialClips</text>
<text text-anchor="start" x="8" y="-103.5" font-family="Helvetica,sans-Serif" font-size="10.00">+ string tutorialName</text>
<text text-anchor="start" x="8" y="-92.5" font-family="Helvetica,sans-Serif" font-size="10.00">+ int? curStep</text>
<polyline fill="none" stroke="black" points="0,-85.5 148,-85.5 "/>
<text text-anchor="start" x="8" y="-73.5" font-family="Helvetica,sans-Serif" font-size="10.00">+ void StartTutorial()</text>
<text text-anchor="start" x="8" y="-62.5" font-family="Helvetica,sans-Serif" font-size="10.00">+ void GetTutorialCLipsList()</text>
<text text-anchor="start" x="8" y="-51.5" font-family="Helvetica,sans-Serif" font-size="10.00">+ void GenerateTutorialName()</text>
<text text-anchor="start" x="8" y="-40.5" font-family="Helvetica,sans-Serif" font-size="10.00">+ void NextStep()</text>
<text text-anchor="start" x="8" y="-29.5" font-family="Helvetica,sans-Serif" font-size="10.00">+ void FormerStep()</text>
<text text-anchor="start" x="8" y="-18.5" font-family="Helvetica,sans-Serif" font-size="10.00">+ void Quit()</text>
<text text-anchor="start" x="8" y="-7.5" font-family="Helvetica,sans-Serif" font-size="10.00">+ virtual bool CheckAwake()</text>
</a>
</g>
</g>
<!-- Node2 -->
<g id="node2" class="node">
<title>Node2</title>
<g id="a_node2"><a xlink:title=" ">
<polygon fill="white" stroke="#bfbfbf" points="54.5,-525.5 54.5,-582.5 137.5,-582.5 137.5,-525.5 54.5,-525.5"/>
<text text-anchor="middle" x="96" y="-570.5" font-family="Helvetica,sans-Serif" font-size="10.00">MonoBehaviour</text>
<polyline fill="none" stroke="#bfbfbf" points="54.5,-563.5 137.5,-563.5 "/>
<text text-anchor="middle" x="96" y="-551.5" font-family="Helvetica,sans-Serif" font-size="10.00"> </text>
<polyline fill="none" stroke="#bfbfbf" points="54.5,-544.5 137.5,-544.5 "/>
<text text-anchor="middle" x="96" y="-532.5" font-family="Helvetica,sans-Serif" font-size="10.00"> </text>
</a>
</g>
</g>
<!-- Node2&#45;&gt;Node1 -->
<g id="edge1" class="edge">
<title>Node2&#45;&gt;Node1</title>
<path fill="none" stroke="midnightblue" d="M91.78,-515.4C87.2,-472.71 80.11,-400.95 77,-339 74.13,-281.85 73.4,-217.39 73.38,-167.7"/>
<polygon fill="none" stroke="midnightblue" points="88.3,-515.78 92.86,-525.35 95.26,-515.03 88.3,-515.78"/>
</g>
<!-- Node3 -->
<g id="node3" class="node">
<title>Node3</title>
<g id="a_node3"><a xlink:href="class_custom_u_i_1_1_tutorial_1_1_tutorial_manager_u_i.html" target="_top" xlink:title=" ">
<polygon fill="white" stroke="black" points="86.5,-215.5 86.5,-338.5 261.5,-338.5 261.5,-215.5 86.5,-215.5"/>
<text text-anchor="start" x="94.5" y="-326.5" font-family="Helvetica,sans-Serif" font-size="10.00">CustomUI.Tutorial.Tutorial</text>
<text text-anchor="middle" x="174" y="-315.5" font-family="Helvetica,sans-Serif" font-size="10.00">ManagerUI</text>
<polyline fill="none" stroke="black" points="86.5,-308.5 261.5,-308.5 "/>
<text text-anchor="start" x="94.5" y="-296.5" font-family="Helvetica,sans-Serif" font-size="10.00">+ List&lt; TutorialUI &gt;</text>
<text text-anchor="start" x="94.5" y="-285.5" font-family="Helvetica,sans-Serif" font-size="10.00"> tutorialUiList</text>
<text text-anchor="start" x="94.5" y="-274.5" font-family="Helvetica,sans-Serif" font-size="10.00"># static Dictionary&lt;</text>
<text text-anchor="start" x="94.5" y="-263.5" font-family="Helvetica,sans-Serif" font-size="10.00"> string, bool &gt; hasBeenActivatedDict</text>
<polyline fill="none" stroke="black" points="86.5,-256.5 261.5,-256.5 "/>
<text text-anchor="start" x="94.5" y="-244.5" font-family="Helvetica,sans-Serif" font-size="10.00">+ void Update()</text>
<text text-anchor="start" x="94.5" y="-233.5" font-family="Helvetica,sans-Serif" font-size="10.00"># virtual void MonitorAwake</text>
<text text-anchor="start" x="94.5" y="-222.5" font-family="Helvetica,sans-Serif" font-size="10.00">Panel()</text>
</a>
</g>
</g>
<!-- Node2&#45;&gt;Node3 -->
<g id="edge3" class="edge">
<title>Node2&#45;&gt;Node3</title>
<path fill="none" stroke="midnightblue" d="M96.17,-515.34C97.29,-480.92 101.39,-428.98 115,-386 120.06,-370.01 127.57,-353.67 135.54,-338.7"/>
<polygon fill="none" stroke="midnightblue" points="92.67,-515.35 95.92,-525.43 99.67,-515.52 92.67,-515.35"/>
</g>
<!-- Node4 -->
<g id="node4" class="node">
<title>Node4</title>
<g id="a_node4"><a xlink:href="class_t_t_s_1_1_voice_generator.html" target="_top" xlink:title="语音合成">
<polygon fill="white" stroke="black" points="124.5,-386.5 124.5,-487.5 281.5,-487.5 281.5,-386.5 124.5,-386.5"/>
<text text-anchor="middle" x="203" y="-475.5" font-family="Helvetica,sans-Serif" font-size="10.00">TTS.VoiceGenerator</text>
<polyline fill="none" stroke="black" points="124.5,-468.5 281.5,-468.5 "/>
<text text-anchor="start" x="132.5" y="-456.5" font-family="Helvetica,sans-Serif" font-size="10.00">+ string content</text>
<polyline fill="none" stroke="black" points="124.5,-449.5 281.5,-449.5 "/>
<text text-anchor="start" x="132.5" y="-437.5" font-family="Helvetica,sans-Serif" font-size="10.00">+ void Speak(string content)</text>
<text text-anchor="start" x="132.5" y="-426.5" font-family="Helvetica,sans-Serif" font-size="10.00">+ async Task GetAudioAsync()</text>
<text text-anchor="start" x="132.5" y="-415.5" font-family="Helvetica,sans-Serif" font-size="10.00">+ IEnumerator OnAudioLoadAnd</text>
<text text-anchor="start" x="132.5" y="-404.5" font-family="Helvetica,sans-Serif" font-size="10.00">Paly(string url, AudioType</text>
<text text-anchor="start" x="132.5" y="-393.5" font-family="Helvetica,sans-Serif" font-size="10.00"> type, AudioSource audio)</text>
</a>
</g>
</g>
<!-- Node2&#45;&gt;Node4 -->
<g id="edge5" class="edge">
<title>Node2&#45;&gt;Node4</title>
<path fill="none" stroke="midnightblue" d="M128.52,-518.05C137.39,-508.51 147.17,-498 156.65,-487.81"/>
<polygon fill="none" stroke="midnightblue" points="125.88,-515.75 121.63,-525.45 131,-520.52 125.88,-515.75"/>
</g>
<!-- Node3&#45;&gt;Node1 -->
<g id="edge2" class="edge">
<title>Node3&#45;&gt;Node1</title>
<path fill="none" stroke="#404040" d="M142.22,-215.3C136.07,-203.56 129.5,-191 122.95,-178.49"/>
<polygon fill="none" stroke="#404040" points="122.78,-178.16 116.45,-174.7 117.21,-167.53 123.54,-170.99 122.78,-178.16"/>
<text text-anchor="middle" x="172.5" y="-189" font-family="Helvetica,sans-Serif" font-size="10.00"> +tutorialManagerUI</text>
</g>
<!-- Node4&#45;&gt;Node3 -->
<g id="edge4" class="edge">
<title>Node4&#45;&gt;Node3</title>
<path fill="none" stroke="#404040" d="M193.9,-386.44C191.82,-375.11 189.57,-362.83 187.35,-350.74"/>
<polygon fill="none" stroke="#404040" points="187.32,-350.57 182.3,-345.39 185.15,-338.77 190.17,-343.95 187.32,-350.57"/>
<text text-anchor="middle" x="227" y="-360" font-family="Helvetica,sans-Serif" font-size="10.00"> +voiceGenerator</text>
</g>
</g>
</svg>
        <g id="navigator" transform="translate(0 0)" fill="#404254">
                <rect fill="#f2f5e9" fill-opacity="0.5" stroke="#606060" stroke-width=".5" x="0" y="0" width="60" height="60"/>
                <use id="zoomplus" xlink:href="#zoomPlus" x="17" y="9" onmousedown="handleZoom(evt,'in')"/>
                <use id="zoomminus" xlink:href="#zoomMin" x="42" y="9" onmousedown="handleZoom(evt,'out')"/>
                <use id="reset" xlink:href="#resetDef" x="30" y="36" onmousedown="handleReset()"/>
                <g id="arrowUp" xlink:href="#dirArrow" transform="translate(30 24)" onmousedown="handlePan(0,-1)">
                  <use xlink:href="#rim" fill="#404040">
                        <set attributeName="fill" to="#808080" begin="arrowUp.mouseover" end="arrowUp.mouseout"/>
                  </use>
                  <path fill="none" stroke="white" stroke-width="1.5" d="M0,-3.0v7 M-2.5,-0.5L0,-3.0L2.5,-0.5"/>
                </g>
                <g id="arrowRight" xlink:href="#dirArrow" transform="rotate(90) translate(36 -43)" onmousedown="handlePan(1,0)">
                  <use xlink:href="#rim" fill="#404040">
                        <set attributeName="fill" to="#808080" begin="arrowRight.mouseover" end="arrowRight.mouseout"/>
                  </use>
                  <path fill="none" stroke="white" stroke-width="1.5" d="M0,-3.0v7 M-2.5,-0.5L0,-3.0L2.5,-0.5"/>
                </g>
                <g id="arrowDown" xlink:href="#dirArrow" transform="rotate(180) translate(-30 -48)" onmousedown="handlePan(0,1)">
                  <use xlink:href="#rim" fill="#404040">
                        <set attributeName="fill" to="#808080" begin="arrowDown.mouseover" end="arrowDown.mouseout"/>
                  </use>
                  <path fill="none" stroke="white" stroke-width="1.5" d="M0,-3.0v7 M-2.5,-0.5L0,-3.0L2.5,-0.5"/>
                </g>
                <g id="arrowLeft" xlink:href="#dirArrow" transform="rotate(270) translate(-36 17)" onmousedown="handlePan(-1,0)">
                  <use xlink:href="#rim" fill="#404040">
                        <set attributeName="fill" to="#808080" begin="arrowLeft.mouseover" end="arrowLeft.mouseout"/>
                  </use>
                  <path fill="none" stroke="white" stroke-width="1.5" d="M0,-3.0v7 M-2.5,-0.5L0,-3.0L2.5,-0.5"/>
                </g>
        </g>
        <svg viewBox="0 0 15 15" width="100%" height="30px" preserveAspectRatio="xMaxYMin meet">
         <g id="arrow_out" transform="scale(0.3 0.3)">
          <a xlink:href="class_custom_u_i_1_1_tutorial_1_1_tutorial_u_i__coll__graph_org.svg" target="_base">
           <rect id="button" ry="5" rx="5" y="6" x="6" height="38" width="38"
                fill="#f2f5e9" fill-opacity="0.5" stroke="#606060" stroke-width="1.0"/>
           <path id="arrow"
             d="M 11.500037,31.436501 C 11.940474,20.09759 22.043105,11.32322 32.158766,21.979434 L 37.068811,17.246167 C 37.068811,17.246167 37.088388,32 37.088388,32 L 22.160133,31.978069 C 22.160133,31.978069 26.997745,27.140456 26.997745,27.140456 C 18.528582,18.264221 13.291696,25.230495 11.500037,31.436501 z"
             style="fill:#404040;"/>
          </a>
         </g>
        </svg>
</svg>
