<?xml version="1.0" encoding="UTF-8" standalone="no"?>
<!DOCTYPE svg PUBLIC "-//W3C//DTD SVG 1.1//EN"
 "http://www.w3.org/Graphics/SVG/1.1/DTD/svg11.dtd">
<!-- Generated by graphviz version 2.47.1 (20210417.1919)
 -->
<!-- Title: CustomUI.VR.VRSelectorUI Pages: 1 -->
<svg width="208pt" height="303pt"
 viewBox="0.00 0.00 207.50 303.00" xmlns="http://www.w3.org/2000/svg" xmlns:xlink="http://www.w3.org/1999/xlink">
<g id="graph0" class="graph" transform="scale(1 1) rotate(0) translate(4 299)">
<title>CustomUI.VR.VRSelectorUI</title>
<polygon fill="white" stroke="transparent" points="-4,4 -4,-299 203.5,-299 203.5,4 -4,4"/>
<!-- Node1 -->
<g id="node1" class="node">
<title>Node1</title>
<g id="a_node1"><a xlink:title=" ">
<polygon fill="#bfbfbf" stroke="black" points="0,-0.5 0,-134.5 175,-134.5 175,-0.5 0,-0.5"/>
<text text-anchor="middle" x="87.5" y="-122.5" font-family="Helvetica,sans-Serif" font-size="10.00">CustomUI.VR.VRSelectorUI</text>
<polyline fill="none" stroke="black" points="0,-115.5 175,-115.5 "/>
<text text-anchor="start" x="8" y="-103.5" font-family="Helvetica,sans-Serif" font-size="10.00">+ List&lt; OutlineCatcher</text>
<text text-anchor="start" x="8" y="-92.5" font-family="Helvetica,sans-Serif" font-size="10.00"> &gt; outlineCatchers</text>
<text text-anchor="start" x="8" y="-81.5" font-family="Helvetica,sans-Serif" font-size="10.00">+ Transform pointerTransform</text>
<text text-anchor="start" x="8" y="-70.5" font-family="Helvetica,sans-Serif" font-size="10.00">+ GameObject informationPanel</text>
<text text-anchor="start" x="8" y="-59.5" font-family="Helvetica,sans-Serif" font-size="10.00">+ Transform faceCamera</text>
<text text-anchor="start" x="8" y="-48.5" font-family="Helvetica,sans-Serif" font-size="10.00">+ List&lt; StarInfoMap &gt;</text>
<text text-anchor="start" x="8" y="-37.5" font-family="Helvetica,sans-Serif" font-size="10.00"> starInfoMaps</text>
<text text-anchor="start" x="8" y="-26.5" font-family="Helvetica,sans-Serif" font-size="10.00">+ GameObject selectedGameObject</text>
<polyline fill="none" stroke="black" points="0,-19.5 175,-19.5 "/>
<text text-anchor="start" x="8" y="-7.5" font-family="Helvetica,sans-Serif" font-size="10.00">+ void Update()</text>
</a>
</g>
</g>
<!-- Node2 -->
<g id="node2" class="node">
<title>Node2</title>
<g id="a_node2"><a xlink:title=" ">
<polygon fill="white" stroke="#bfbfbf" points="8,-237.5 8,-294.5 91,-294.5 91,-237.5 8,-237.5"/>
<text text-anchor="middle" x="49.5" y="-282.5" font-family="Helvetica,sans-Serif" font-size="10.00">MonoBehaviour</text>
<polyline fill="none" stroke="#bfbfbf" points="8,-275.5 91,-275.5 "/>
<text text-anchor="middle" x="49.5" y="-263.5" font-family="Helvetica,sans-Serif" font-size="10.00"> </text>
<polyline fill="none" stroke="#bfbfbf" points="8,-256.5 91,-256.5 "/>
<text text-anchor="middle" x="49.5" y="-244.5" font-family="Helvetica,sans-Serif" font-size="10.00"> </text>
</a>
</g>
</g>
<!-- Node2&#45;&gt;Node1 -->
<g id="edge1" class="edge">
<title>Node2&#45;&gt;Node1</title>
<path fill="none" stroke="midnightblue" d="M56.78,-227.36C61.84,-201.17 68.74,-165.53 74.71,-134.65"/>
<polygon fill="none" stroke="midnightblue" points="53.33,-226.78 54.86,-237.26 60.2,-228.11 53.33,-226.78"/>
</g>
<!-- Node3 -->
<g id="node3" class="node">
<title>Node3</title>
<g id="a_node3"><a xlink:title=" ">
<polygon fill="white" stroke="#bfbfbf" points="109,-237.5 109,-294.5 144,-294.5 144,-237.5 109,-237.5"/>
<text text-anchor="middle" x="126.5" y="-282.5" font-family="Helvetica,sans-Serif" font-size="10.00">Text</text>
<polyline fill="none" stroke="#bfbfbf" points="109,-275.5 144,-275.5 "/>
<text text-anchor="middle" x="126.5" y="-263.5" font-family="Helvetica,sans-Serif" font-size="10.00"> </text>
<polyline fill="none" stroke="#bfbfbf" points="109,-256.5 144,-256.5 "/>
<text text-anchor="middle" x="126.5" y="-244.5" font-family="Helvetica,sans-Serif" font-size="10.00"> </text>
</a>
</g>
</g>
<!-- Node3&#45;&gt;Node1 -->
<g id="edge2" class="edge">
<title>Node3&#45;&gt;Node1</title>
<path fill="none" stroke="#404040" d="M120.99,-237.26C116.32,-213.72 109.38,-178.75 103.03,-146.74"/>
<polygon fill="none" stroke="#404040" points="102.97,-146.42 97.87,-141.32 100.63,-134.65 105.72,-139.76 102.97,-146.42"/>
<text text-anchor="middle" x="158" y="-211" font-family="Helvetica,sans-Serif" font-size="10.00"> +starDayTimeText</text>
<text text-anchor="middle" x="158" y="-200" font-family="Helvetica,sans-Serif" font-size="10.00">+starGravityText</text>
<text text-anchor="middle" x="158" y="-189" font-family="Helvetica,sans-Serif" font-size="10.00">+starMassText</text>
<text text-anchor="middle" x="158" y="-178" font-family="Helvetica,sans-Serif" font-size="10.00">+starNameText</text>
<text text-anchor="middle" x="158" y="-167" font-family="Helvetica,sans-Serif" font-size="10.00">+starRadiusText</text>
<text text-anchor="middle" x="158" y="-156" font-family="Helvetica,sans-Serif" font-size="10.00">+starYearTimeText</text>
</g>
</g>
</svg>
