<?xml version="1.0" encoding="UTF-8" standalone="no"?>
<!DOCTYPE svg PUBLIC "-//W3C//DTD SVG 1.1//EN"
 "http://www.w3.org/Graphics/SVG/1.1/DTD/svg11.dtd">
<!-- Generated by graphviz version 2.47.1 (20210417.1919)
 -->
<!-- Title: CustomUI.AstralBodyEditor.AstralBodyAddUI Pages: 1 -->
<svg width="147pt" height="259pt"
 viewBox="0.00 0.00 147.00 259.00" xmlns="http://www.w3.org/2000/svg" xmlns:xlink="http://www.w3.org/1999/xlink">
<g id="graph0" class="graph" transform="scale(1 1) rotate(0) translate(4 255)">
<title>CustomUI.AstralBodyEditor.AstralBodyAddUI</title>
<polygon fill="white" stroke="transparent" points="-4,4 -4,-255 143,-255 143,4 -4,4"/>
<!-- Node1 -->
<g id="node1" class="node">
<title>Node1</title>
<g id="a_node1"><a xlink:title=" ">
<polygon fill="#bfbfbf" stroke="black" points="0,-0.5 0,-156.5 139,-156.5 139,-0.5 0,-0.5"/>
<text text-anchor="start" x="8" y="-144.5" font-family="Helvetica,sans-Serif" font-size="10.00">CustomUI.AstralBodyEditor.</text>
<text text-anchor="middle" x="69.5" y="-133.5" font-family="Helvetica,sans-Serif" font-size="10.00">AstralBodyAddUI</text>
<polyline fill="none" stroke="black" points="0,-126.5 139,-126.5 "/>
<text text-anchor="start" x="8" y="-114.5" font-family="Helvetica,sans-Serif" font-size="10.00">+ AstralBodyPlacementUI</text>
<text text-anchor="start" x="8" y="-103.5" font-family="Helvetica,sans-Serif" font-size="10.00"> astralBodyPlacementUI</text>
<text text-anchor="start" x="8" y="-92.5" font-family="Helvetica,sans-Serif" font-size="10.00">+ bool isQuizEditMode</text>
<text text-anchor="start" x="8" y="-81.5" font-family="Helvetica,sans-Serif" font-size="10.00">+ GravityTracing orbits</text>
<text text-anchor="start" x="8" y="-70.5" font-family="Helvetica,sans-Serif" font-size="10.00">+ AstralBody placePrefab</text>
<text text-anchor="start" x="8" y="-59.5" font-family="Helvetica,sans-Serif" font-size="10.00">+ List&lt; GameObject &gt;</text>
<text text-anchor="start" x="8" y="-48.5" font-family="Helvetica,sans-Serif" font-size="10.00"> setActiveList</text>
<text text-anchor="start" x="8" y="-37.5" font-family="Helvetica,sans-Serif" font-size="10.00">+ Transform OrbitCore</text>
<polyline fill="none" stroke="black" points="0,-30.5 139,-30.5 "/>
<text text-anchor="start" x="8" y="-18.5" font-family="Helvetica,sans-Serif" font-size="10.00">+ void Switch2Placement()</text>
<text text-anchor="start" x="8" y="-7.5" font-family="Helvetica,sans-Serif" font-size="10.00">+ void Switch2Normal()</text>
</a>
</g>
</g>
<!-- Node2 -->
<g id="node2" class="node">
<title>Node2</title>
<g id="a_node2"><a xlink:title=" ">
<polygon fill="white" stroke="#bfbfbf" points="28,-193.5 28,-250.5 111,-250.5 111,-193.5 28,-193.5"/>
<text text-anchor="middle" x="69.5" y="-238.5" font-family="Helvetica,sans-Serif" font-size="10.00">MonoBehaviour</text>
<polyline fill="none" stroke="#bfbfbf" points="28,-231.5 111,-231.5 "/>
<text text-anchor="middle" x="69.5" y="-219.5" font-family="Helvetica,sans-Serif" font-size="10.00"> </text>
<polyline fill="none" stroke="#bfbfbf" points="28,-212.5 111,-212.5 "/>
<text text-anchor="middle" x="69.5" y="-200.5" font-family="Helvetica,sans-Serif" font-size="10.00"> </text>
</a>
</g>
</g>
<!-- Node2&#45;&gt;Node1 -->
<g id="edge1" class="edge">
<title>Node2&#45;&gt;Node1</title>
<path fill="none" stroke="midnightblue" d="M69.5,-183.34C69.5,-175.04 69.5,-165.96 69.5,-156.74"/>
<polygon fill="none" stroke="midnightblue" points="66,-183.38 69.5,-193.38 73,-183.38 66,-183.38"/>
</g>
</g>
</svg>
