<?xml version="1.0" encoding="UTF-8" standalone="no"?>
<!DOCTYPE svg PUBLIC "-//W3C//DTD SVG 1.1//EN"
 "http://www.w3.org/Graphics/SVG/1.1/DTD/svg11.dtd">
<!-- Generated by graphviz version 2.47.1 (20210417.1919)
 -->
<!-- Title: GameManagers.GameManager.CalculateMassScales Pages: 1 -->
<svg width="971pt" height="236pt"
 viewBox="0.00 0.00 971.00 235.50" xmlns="http://www.w3.org/2000/svg" xmlns:xlink="http://www.w3.org/1999/xlink">
<g id="graph0" class="graph" transform="scale(1 1) rotate(0) translate(4 231.5)">
<title>GameManagers.GameManager.CalculateMassScales</title>
<polygon fill="white" stroke="transparent" points="-4,4 -4,-231.5 967,-231.5 967,4 -4,4"/>
<!-- Node1 -->
<g id="node1" class="node">
<title>Node1</title>
<g id="a_node1"><a xlink:title="计算质量缩放">
<polygon fill="#bfbfbf" stroke="black" points="808,-55 808,-85 963,-85 963,-55 808,-55"/>
<text text-anchor="start" x="816" y="-73" font-family="Helvetica,sans-Serif" font-size="10.00">GameManagers.GameManager.</text>
<text text-anchor="middle" x="885.5" y="-62" font-family="Helvetica,sans-Serif" font-size="10.00">CalculateMassScales</text>
</a>
</g>
</g>
<!-- Node2 -->
<g id="node2" class="node">
<title>Node2</title>
<g id="a_node2"><a xlink:href="class_game_managers_1_1_game_manager.html#abeec4915d581418a152b1a07848333cd" target="_top" xlink:title="获取缩放系数">
<polygon fill="white" stroke="black" points="594,-128.5 594,-147.5 772,-147.5 772,-128.5 594,-128.5"/>
<text text-anchor="middle" x="683" y="-135.5" font-family="Helvetica,sans-Serif" font-size="10.00">GameManagers.GameManager.GetK</text>
</a>
</g>
</g>
<!-- Node1&#45;&gt;Node2 -->
<g id="edge1" class="edge">
<title>Node1&#45;&gt;Node2</title>
<path fill="none" stroke="midnightblue" d="M841.8,-89.14C821.01,-98.03 795.48,-108.31 772,-116 757.63,-120.71 741.67,-124.98 727.32,-128.48"/>
<polygon fill="midnightblue" stroke="midnightblue" points="843.21,-92.35 851,-85.17 840.43,-85.92 843.21,-92.35"/>
</g>
<!-- Node8 -->
<g id="node8" class="node">
<title>Node8</title>
<g id="a_node8"><a xlink:href="class_custom_u_i_1_1_quiz_1_1_var_line_u_i.html#adfa12854be919178096c58aa61e50ff6" target="_top" xlink:title=" ">
<polygon fill="white" stroke="black" points="617.5,-77 617.5,-107 748.5,-107 748.5,-77 617.5,-77"/>
<text text-anchor="start" x="625.5" y="-95" font-family="Helvetica,sans-Serif" font-size="10.00">CustomUI.Quiz.VarLineUI.</text>
<text text-anchor="middle" x="683" y="-84" font-family="Helvetica,sans-Serif" font-size="10.00">OnEditEnd</text>
</a>
</g>
</g>
<!-- Node1&#45;&gt;Node8 -->
<g id="edge7" class="edge">
<title>Node1&#45;&gt;Node8</title>
<path fill="none" stroke="midnightblue" d="M797.66,-79.53C781.17,-81.34 764.19,-83.2 748.54,-84.92"/>
<polygon fill="midnightblue" stroke="midnightblue" points="798.28,-82.98 807.84,-78.41 797.52,-76.02 798.28,-82.98"/>
</g>
<!-- Node10 -->
<g id="node10" class="node">
<title>Node10</title>
<g id="a_node10"><a xlink:href="class_quiz_1_1_quiz_base.html#a62bd75950b67b8daa323ace19bc8cc7c" target="_top" xlink:title="是否加载完成">
<polygon fill="white" stroke="black" points="629.5,-38.5 629.5,-57.5 736.5,-57.5 736.5,-38.5 629.5,-38.5"/>
<text text-anchor="middle" x="683" y="-45.5" font-family="Helvetica,sans-Serif" font-size="10.00">Quiz.QuizBase.Start</text>
</a>
</g>
</g>
<!-- Node1&#45;&gt;Node10 -->
<g id="edge9" class="edge">
<title>Node1&#45;&gt;Node10</title>
<path fill="none" stroke="midnightblue" d="M797.72,-60.48C776.94,-58.2 755.37,-55.83 736.68,-53.78"/>
<polygon fill="midnightblue" stroke="midnightblue" points="797.52,-63.98 807.84,-61.59 798.28,-57.02 797.52,-63.98"/>
</g>
<!-- Node11 -->
<g id="node11" class="node">
<title>Node11</title>
<g id="a_node11"><a xlink:href="class_xml_saver_1_1_scene_load_base.html#a858d37d11500dd956eb9c45a5509dc3c" target="_top" xlink:title=" ">
<polygon fill="white" stroke="black" points="605.5,-0.5 605.5,-19.5 760.5,-19.5 760.5,-0.5 605.5,-0.5"/>
<text text-anchor="middle" x="683" y="-7.5" font-family="Helvetica,sans-Serif" font-size="10.00">XmlSaver.SceneLoadBase.Start</text>
</a>
</g>
</g>
<!-- Node1&#45;&gt;Node11 -->
<g id="edge10" class="edge">
<title>Node1&#45;&gt;Node11</title>
<path fill="none" stroke="midnightblue" d="M837.66,-51.3C817.64,-43.74 793.88,-35.32 772,-29 759.84,-25.49 746.56,-22.3 734.09,-19.57"/>
<polygon fill="midnightblue" stroke="midnightblue" points="836.58,-54.64 847.17,-54.94 839.08,-48.1 836.58,-54.64"/>
</g>
<!-- Node3 -->
<g id="node3" class="node">
<title>Node3</title>
<g id="a_node3"><a xlink:href="class_space_physic_1_1_astral_body.html#a13a5ee93bb01019b6b62111ce696f9b2" target="_top" xlink:title="保持当前速度方向调整速度">
<polygon fill="white" stroke="black" points="397,-197 397,-227 558,-227 558,-197 397,-197"/>
<text text-anchor="start" x="405" y="-215" font-family="Helvetica,sans-Serif" font-size="10.00">SpacePhysic.AstralBody.Change</text>
<text text-anchor="middle" x="477.5" y="-204" font-family="Helvetica,sans-Serif" font-size="10.00">Velocity</text>
</a>
</g>
</g>
<!-- Node2&#45;&gt;Node3 -->
<g id="edge2" class="edge">
<title>Node2&#45;&gt;Node3</title>
<path fill="none" stroke="midnightblue" d="M650.53,-151.61C625.64,-162.14 589.9,-176.78 558,-188 549.3,-191.06 539.97,-194.09 530.89,-196.92"/>
<polygon fill="midnightblue" stroke="midnightblue" points="652,-154.78 659.83,-147.64 649.26,-148.34 652,-154.78"/>
</g>
<!-- Node4 -->
<g id="node4" class="node">
<title>Node4</title>
<g id="a_node4"><a xlink:href="class_quiz_1_1_quiz_astral_body.html#a4aa95a8b5358b10d4b3d7220469f6c50" target="_top" xlink:title="获取星球条件文本">
<polygon fill="white" stroke="black" points="404,-148 404,-178 551,-178 551,-148 404,-148"/>
<text text-anchor="start" x="412" y="-166" font-family="Helvetica,sans-Serif" font-size="10.00">Quiz.QuizAstralBody.GetQuiz</text>
<text text-anchor="middle" x="477.5" y="-155" font-family="Helvetica,sans-Serif" font-size="10.00">ConditionString</text>
</a>
</g>
</g>
<!-- Node2&#45;&gt;Node4 -->
<g id="edge3" class="edge">
<title>Node2&#45;&gt;Node4</title>
<path fill="none" stroke="midnightblue" d="M594.54,-148.74C580.05,-150.52 565.18,-152.35 551.11,-154.08"/>
<polygon fill="midnightblue" stroke="midnightblue" points="594.99,-152.22 604.48,-147.52 594.13,-145.27 594.99,-152.22"/>
</g>
<!-- Node7 -->
<g id="node7" class="node">
<title>Node7</title>
<g id="a_node7"><a xlink:href="class_custom_u_i_1_1_quiz_1_1_quiz_u_i.html#a26457b4f98b1ffa60a28345a9b8898a5" target="_top" xlink:title=" ">
<polygon fill="white" stroke="black" points="400,-99 400,-129 555,-129 555,-99 400,-99"/>
<text text-anchor="start" x="408" y="-117" font-family="Helvetica,sans-Serif" font-size="10.00">CustomUI.Quiz.QuizUI.OnValue</text>
<text text-anchor="middle" x="477.5" y="-106" font-family="Helvetica,sans-Serif" font-size="10.00">Change</text>
</a>
</g>
</g>
<!-- Node2&#45;&gt;Node7 -->
<g id="edge6" class="edge">
<title>Node2&#45;&gt;Node7</title>
<path fill="none" stroke="midnightblue" d="M591.22,-127.29C579.18,-125.87 566.92,-124.43 555.15,-123.04"/>
<polygon fill="midnightblue" stroke="midnightblue" points="590.94,-130.78 601.28,-128.48 591.76,-123.83 590.94,-130.78"/>
</g>
<!-- Node5 -->
<g id="node5" class="node">
<title>Node5</title>
<g id="a_node5"><a xlink:href="class_quiz_1_1_quiz_solver.html#afc4ef823ad1220a4aea4f7d2f5cf23dd" target="_top" xlink:title="获取问题">
<polygon fill="white" stroke="black" points="194,-153.5 194,-172.5 361,-172.5 361,-153.5 194,-153.5"/>
<text text-anchor="middle" x="277.5" y="-160.5" font-family="Helvetica,sans-Serif" font-size="10.00">Quiz.QuizSolver.GetQuizSentence</text>
</a>
</g>
</g>
<!-- Node4&#45;&gt;Node5 -->
<g id="edge4" class="edge">
<title>Node4&#45;&gt;Node5</title>
<path fill="none" stroke="midnightblue" d="M393.68,-163C382.92,-163 371.9,-163 361.14,-163"/>
<polygon fill="midnightblue" stroke="midnightblue" points="393.9,-166.5 403.9,-163 393.9,-159.5 393.9,-166.5"/>
</g>
<!-- Node6 -->
<g id="node6" class="node">
<title>Node6</title>
<g id="a_node6"><a xlink:href="class_custom_u_i_1_1_quiz_1_1_quiz_u_i.html#ac238c7b368d3c183e8e479fc77c48d08" target="_top" xlink:title=" ">
<polygon fill="white" stroke="black" points="0,-153.5 0,-172.5 158,-172.5 158,-153.5 0,-153.5"/>
<text text-anchor="middle" x="79" y="-160.5" font-family="Helvetica,sans-Serif" font-size="10.00">CustomUI.Quiz.QuizUI.Generate</text>
</a>
</g>
</g>
<!-- Node5&#45;&gt;Node6 -->
<g id="edge5" class="edge">
<title>Node5&#45;&gt;Node6</title>
<path fill="none" stroke="midnightblue" d="M183.49,-163C175.05,-163 166.57,-163 158.28,-163"/>
<polygon fill="midnightblue" stroke="midnightblue" points="183.74,-166.5 193.74,-163 183.74,-159.5 183.74,-166.5"/>
</g>
<!-- Node9 -->
<g id="node9" class="node">
<title>Node9</title>
<g id="a_node9"><a xlink:href="class_custom_u_i_1_1_quiz_1_1_var_line_u_i.html#aac47d0852e69724a11cc6c9979eeda9a" target="_top" xlink:title=" ">
<polygon fill="white" stroke="black" points="412,-50 412,-80 543,-80 543,-50 412,-50"/>
<text text-anchor="start" x="420" y="-68" font-family="Helvetica,sans-Serif" font-size="10.00">CustomUI.Quiz.VarLineUI.</text>
<text text-anchor="middle" x="477.5" y="-57" font-family="Helvetica,sans-Serif" font-size="10.00">WhileInputFieldDrag</text>
</a>
</g>
</g>
<!-- Node8&#45;&gt;Node9 -->
<g id="edge8" class="edge">
<title>Node8&#45;&gt;Node9</title>
<path fill="none" stroke="midnightblue" d="M607.15,-82.07C586.1,-79.28 563.39,-76.26 543,-73.56"/>
<polygon fill="midnightblue" stroke="midnightblue" points="606.96,-85.57 617.33,-83.42 607.88,-78.63 606.96,-85.57"/>
</g>
</g>
</svg>
