<?xml version="1.0" encoding="UTF-8" standalone="no"?>
<!DOCTYPE svg PUBLIC "-//W3C//DTD SVG 1.1//EN"
 "http://www.w3.org/Graphics/SVG/1.1/DTD/svg11.dtd">
<!-- Generated by graphviz version 2.47.1 (20210417.1919)
 -->
<!-- Title: CustomUI.Quiz.QuizLineUI.Delete Pages: 1 -->
<svg width="652pt" height="39pt"
 viewBox="0.00 0.00 652.00 39.00" xmlns="http://www.w3.org/2000/svg" xmlns:xlink="http://www.w3.org/1999/xlink">
<g id="graph0" class="graph" transform="scale(1 1) rotate(0) translate(4 35)">
<title>CustomUI.Quiz.QuizLineUI.Delete</title>
<polygon fill="white" stroke="transparent" points="-4,4 -4,-35 648,-35 648,4 -4,4"/>
<!-- Node1 -->
<g id="node1" class="node">
<title>Node1</title>
<g id="a_node1"><a xlink:title=" ">
<polygon fill="#bfbfbf" stroke="black" points="0,-0.5 0,-30.5 136,-30.5 136,-0.5 0,-0.5"/>
<text text-anchor="start" x="8" y="-18.5" font-family="Helvetica,sans-Serif" font-size="10.00">CustomUI.Quiz.QuizLineUI.</text>
<text text-anchor="middle" x="68" y="-7.5" font-family="Helvetica,sans-Serif" font-size="10.00">Delete</text>
</a>
</g>
</g>
<!-- Node2 -->
<g id="node2" class="node">
<title>Node2</title>
<g id="a_node2"><a xlink:href="class_custom_u_i_1_1_quiz_1_1_quiz_list_u_i.html#ad56b0e6c597dbaa557e79be3f30b7646" target="_top" xlink:title=" ">
<polygon fill="white" stroke="black" points="172,-0.5 172,-30.5 306,-30.5 306,-0.5 172,-0.5"/>
<text text-anchor="start" x="180" y="-18.5" font-family="Helvetica,sans-Serif" font-size="10.00">CustomUI.Quiz.QuizListUI.</text>
<text text-anchor="middle" x="239" y="-7.5" font-family="Helvetica,sans-Serif" font-size="10.00">DeleteQuiz</text>
</a>
</g>
</g>
<!-- Node1&#45;&gt;Node2 -->
<g id="edge1" class="edge">
<title>Node1&#45;&gt;Node2</title>
<path fill="none" stroke="midnightblue" d="M136.28,-15.5C144.59,-15.5 153.13,-15.5 161.57,-15.5"/>
<polygon fill="midnightblue" stroke="midnightblue" points="161.78,-19 171.78,-15.5 161.78,-12 161.78,-19"/>
</g>
<!-- Node3 -->
<g id="node3" class="node">
<title>Node3</title>
<g id="a_node3"><a xlink:href="class_quiz_1_1_quiz_saver.html#a52edeb1584fad4fdcd7ecc93e91cc950" target="_top" xlink:title="删除问题存档">
<polygon fill="white" stroke="black" points="342,-6 342,-25 478,-25 478,-6 342,-6"/>
<text text-anchor="middle" x="410" y="-13" font-family="Helvetica,sans-Serif" font-size="10.00">Quiz.QuizSaver.DeleteFiles</text>
</a>
</g>
</g>
<!-- Node2&#45;&gt;Node3 -->
<g id="edge2" class="edge">
<title>Node2&#45;&gt;Node3</title>
<path fill="none" stroke="midnightblue" d="M306.31,-15.5C314.59,-15.5 323.12,-15.5 331.55,-15.5"/>
<polygon fill="midnightblue" stroke="midnightblue" points="331.77,-19 341.77,-15.5 331.77,-12 331.77,-19"/>
</g>
<!-- Node4 -->
<g id="node4" class="node">
<title>Node4</title>
<g id="a_node4"><a xlink:href="class_xml_saver_1_1_xml_saver.html#ace394239dea50121f475e9af5e42638b" target="_top" xlink:title="删除存档">
<polygon fill="white" stroke="black" points="514,-0.5 514,-30.5 644,-30.5 644,-0.5 514,-0.5"/>
<text text-anchor="start" x="522" y="-18.5" font-family="Helvetica,sans-Serif" font-size="10.00">XmlSaver.XmlSaver.Delete</text>
<text text-anchor="middle" x="579" y="-7.5" font-family="Helvetica,sans-Serif" font-size="10.00">Files</text>
</a>
</g>
</g>
<!-- Node3&#45;&gt;Node4 -->
<g id="edge3" class="edge">
<title>Node3&#45;&gt;Node4</title>
<path fill="none" stroke="midnightblue" d="M478.44,-15.5C486.75,-15.5 495.27,-15.5 503.67,-15.5"/>
<polygon fill="midnightblue" stroke="midnightblue" points="503.82,-19 513.82,-15.5 503.82,-12 503.82,-19"/>
</g>
</g>
</svg>
