<?xml version="1.0" encoding="UTF-8" standalone="no"?>
<!DOCTYPE svg PUBLIC "-//W3C//DTD SVG 1.1//EN"
 "http://www.w3.org/Graphics/SVG/1.1/DTD/svg11.dtd">
<!-- Generated by graphviz version 2.47.1 (20210417.1919)
 -->
<!-- Title: CustomUI.Tutorial.SatelliteTutorialUI Pages: 1 -->
<!--zoomable 942 -->
<svg id="main" version="1.1" xmlns="http://www.w3.org/2000/svg" xmlns:xlink="http://www.w3.org/1999/xlink" xml:space="preserve" onload="init(evt)">
<style type="text/css"><![CDATA[
.edge:hover path { stroke: red; }
.edge:hover polygon { stroke: red; fill: red; }
]]></style>
<script type="text/javascript"><![CDATA[
var edges = document.getElementsByTagName('g');
if (edges && edges.length) {
  for (var i=0;i<edges.length;i++) {
    if (edges[i].id.substr(0,4)=='edge') {
      edges[i].setAttribute('class','edge');
    }
  }
}
]]></script>
        <defs>
                <circle id="rim" cx="0" cy="0" r="7"/>
                <circle id="rim2" cx="0" cy="0" r="3.5"/>
                <g id="zoomPlus">
                        <use xlink:href="#rim" fill="#404040">
                                <set attributeName="fill" to="#808080" begin="zoomplus.mouseover" end="zoomplus.mouseout"/>
                        </use>
                        <path d="M-4,0h8M0,-4v8" fill="none" stroke="white" stroke-width="1.5" pointer-events="none"/>
                </g>
                <g id="zoomMin">
                        <use xlink:href="#rim" fill="#404040">
                                <set attributeName="fill" to="#808080" begin="zoomminus.mouseover" end="zoomminus.mouseout"/>
                        </use>
                        <path d="M-4,0h8" fill="none" stroke="white" stroke-width="1.5" pointer-events="none"/>
                </g>
                <g id="dirArrow">
                        <path fill="none" stroke="white" stroke-width="1.5" d="M0,-3.0v7 M-2.5,-0.5L0,-3.0L2.5,-0.5"/>
                </g>
               <g id="resetDef">
                       <use xlink:href="#rim2" fill="#404040">
                               <set attributeName="fill" to="#808080" begin="reset.mouseover" end="reset.mouseout"/>
                       </use>
               </g>
        </defs>

<script type="text/javascript">
var viewWidth = 371;
var viewHeight = 942;
var sectionId = 'dynsection-1';
</script>
<script xlink:href="svgpan.js"/>
<svg id="graph" class="graph">
<g id="viewport">
<title>CustomUI.Tutorial.SatelliteTutorialUI</title>
<polygon fill="white" stroke="transparent" points="-4,4 -4,-938 366.77,-938 366.77,4 -4,4"/>
<!-- Node1 -->
<g id="node1" class="node">
<title>Node1</title>
<g id="a_node1"><a xlink:title=" ">
<polygon fill="#bfbfbf" stroke="black" points="122.77,-0.5 122.77,-68.5 268.77,-68.5 268.77,-0.5 122.77,-0.5"/>
<text text-anchor="start" x="130.77" y="-56.5" font-family="Helvetica,sans-Serif" font-size="10.00">CustomUI.Tutorial.Satellite</text>
<text text-anchor="middle" x="195.77" y="-45.5" font-family="Helvetica,sans-Serif" font-size="10.00">TutorialUI</text>
<polyline fill="none" stroke="black" points="122.77,-38.5 268.77,-38.5 "/>
<text text-anchor="start" x="130.77" y="-26.5" font-family="Helvetica,sans-Serif" font-size="10.00">+ int challengeIndex</text>
<polyline fill="none" stroke="black" points="122.77,-19.5 268.77,-19.5 "/>
<text text-anchor="start" x="130.77" y="-7.5" font-family="Helvetica,sans-Serif" font-size="10.00">+ override bool CheckAwake()</text>
</a>
</g>
</g>
<!-- Node2 -->
<g id="node2" class="node">
<title>Node2</title>
<g id="a_node2"><a xlink:href="class_custom_u_i_1_1_tutorial_1_1_tutorial_u_i.html" target="_top" xlink:title=" ">
<polygon fill="white" stroke="black" points="62.77,-106.5 62.77,-273.5 210.77,-273.5 210.77,-106.5 62.77,-106.5"/>
<text text-anchor="middle" x="136.77" y="-261.5" font-family="Helvetica,sans-Serif" font-size="10.00">TutorialUI</text>
<polyline fill="none" stroke="black" points="62.77,-254.5 210.77,-254.5 "/>
<text text-anchor="start" x="70.77" y="-242.5" font-family="Helvetica,sans-Serif" font-size="10.00">+ GameObject awakePanel</text>
<text text-anchor="start" x="70.77" y="-231.5" font-family="Helvetica,sans-Serif" font-size="10.00">+ List&lt; GameObject &gt;</text>
<text text-anchor="start" x="70.77" y="-220.5" font-family="Helvetica,sans-Serif" font-size="10.00"> tutorialClips</text>
<text text-anchor="start" x="70.77" y="-209.5" font-family="Helvetica,sans-Serif" font-size="10.00">+ string tutorialName</text>
<text text-anchor="start" x="70.77" y="-198.5" font-family="Helvetica,sans-Serif" font-size="10.00">+ int? curStep</text>
<polyline fill="none" stroke="black" points="62.77,-191.5 210.77,-191.5 "/>
<text text-anchor="start" x="70.77" y="-179.5" font-family="Helvetica,sans-Serif" font-size="10.00">+ void StartTutorial()</text>
<text text-anchor="start" x="70.77" y="-168.5" font-family="Helvetica,sans-Serif" font-size="10.00">+ void GetTutorialCLipsList()</text>
<text text-anchor="start" x="70.77" y="-157.5" font-family="Helvetica,sans-Serif" font-size="10.00">+ void GenerateTutorialName()</text>
<text text-anchor="start" x="70.77" y="-146.5" font-family="Helvetica,sans-Serif" font-size="10.00">+ void NextStep()</text>
<text text-anchor="start" x="70.77" y="-135.5" font-family="Helvetica,sans-Serif" font-size="10.00">+ void FormerStep()</text>
<text text-anchor="start" x="70.77" y="-124.5" font-family="Helvetica,sans-Serif" font-size="10.00">+ void Quit()</text>
<text text-anchor="start" x="70.77" y="-113.5" font-family="Helvetica,sans-Serif" font-size="10.00">+ virtual bool CheckAwake()</text>
</a>
</g>
</g>
<!-- Node2&#45;&gt;Node1 -->
<g id="edge1" class="edge">
<title>Node2&#45;&gt;Node1</title>
<path fill="none" stroke="midnightblue" d="M172.22,-96.78C176.04,-86.83 179.73,-77.24 183,-68.72"/>
<polygon fill="none" stroke="midnightblue" points="168.84,-95.82 168.52,-106.41 175.37,-98.33 168.84,-95.82"/>
</g>
<!-- Node3 -->
<g id="node3" class="node">
<title>Node3</title>
<g id="a_node3"><a xlink:title=" ">
<polygon fill="white" stroke="#bfbfbf" points="79.27,-876.5 79.27,-933.5 162.27,-933.5 162.27,-876.5 79.27,-876.5"/>
<text text-anchor="middle" x="120.77" y="-921.5" font-family="Helvetica,sans-Serif" font-size="10.00">MonoBehaviour</text>
<polyline fill="none" stroke="#bfbfbf" points="79.27,-914.5 162.27,-914.5 "/>
<text text-anchor="middle" x="120.77" y="-902.5" font-family="Helvetica,sans-Serif" font-size="10.00"> </text>
<polyline fill="none" stroke="#bfbfbf" points="79.27,-895.5 162.27,-895.5 "/>
<text text-anchor="middle" x="120.77" y="-883.5" font-family="Helvetica,sans-Serif" font-size="10.00"> </text>
</a>
</g>
</g>
<!-- Node3&#45;&gt;Node2 -->
<g id="edge2" class="edge">
<title>Node3&#45;&gt;Node2</title>
<path fill="none" stroke="midnightblue" d="M92.29,-867.93C86.53,-858.93 81.19,-848.99 77.77,-839 3.03,-620.59 -32.95,-540.08 39.77,-321 45.23,-304.56 53.66,-288.52 63.33,-273.63"/>
<polygon fill="none" stroke="midnightblue" points="89.39,-869.9 97.89,-876.23 95.2,-865.98 89.39,-869.9"/>
</g>
<!-- Node4 -->
<g id="node4" class="node">
<title>Node4</title>
<g id="a_node4"><a xlink:href="class_custom_u_i_1_1_tutorial_1_1_tutorial_manager_u_i.html" target="_top" xlink:title=" ">
<polygon fill="white" stroke="black" points="49.27,-321.5 49.27,-444.5 224.27,-444.5 224.27,-321.5 49.27,-321.5"/>
<text text-anchor="start" x="57.27" y="-432.5" font-family="Helvetica,sans-Serif" font-size="10.00">CustomUI.Tutorial.Tutorial</text>
<text text-anchor="middle" x="136.77" y="-421.5" font-family="Helvetica,sans-Serif" font-size="10.00">ManagerUI</text>
<polyline fill="none" stroke="black" points="49.27,-414.5 224.27,-414.5 "/>
<text text-anchor="start" x="57.27" y="-402.5" font-family="Helvetica,sans-Serif" font-size="10.00">+ List&lt; TutorialUI &gt;</text>
<text text-anchor="start" x="57.27" y="-391.5" font-family="Helvetica,sans-Serif" font-size="10.00"> tutorialUiList</text>
<text text-anchor="start" x="57.27" y="-380.5" font-family="Helvetica,sans-Serif" font-size="10.00"># static Dictionary&lt;</text>
<text text-anchor="start" x="57.27" y="-369.5" font-family="Helvetica,sans-Serif" font-size="10.00"> string, bool &gt; hasBeenActivatedDict</text>
<polyline fill="none" stroke="black" points="49.27,-362.5 224.27,-362.5 "/>
<text text-anchor="start" x="57.27" y="-350.5" font-family="Helvetica,sans-Serif" font-size="10.00">+ void Update()</text>
<text text-anchor="start" x="57.27" y="-339.5" font-family="Helvetica,sans-Serif" font-size="10.00"># virtual void MonitorAwake</text>
<text text-anchor="start" x="57.27" y="-328.5" font-family="Helvetica,sans-Serif" font-size="10.00">Panel()</text>
</a>
</g>
</g>
<!-- Node3&#45;&gt;Node4 -->
<g id="edge4" class="edge">
<title>Node3&#45;&gt;Node4</title>
<path fill="none" stroke="midnightblue" d="M97.75,-867.39C93.22,-858.43 89.14,-848.64 86.77,-839 75.96,-794.98 84.96,-782.3 86.77,-737 91.67,-614.93 83.26,-582.48 108.77,-463 110.05,-457.02 111.66,-450.88 113.46,-444.79"/>
<polygon fill="none" stroke="midnightblue" points="94.76,-869.23 102.57,-876.39 100.93,-865.92 94.76,-869.23"/>
</g>
<!-- Node5 -->
<g id="node5" class="node">
<title>Node5</title>
<g id="a_node5"><a xlink:href="class_t_t_s_1_1_voice_generator.html" target="_top" xlink:title="语音合成">
<polygon fill="white" stroke="black" points="96.27,-737.5 96.27,-838.5 253.27,-838.5 253.27,-737.5 96.27,-737.5"/>
<text text-anchor="middle" x="174.77" y="-826.5" font-family="Helvetica,sans-Serif" font-size="10.00">TTS.VoiceGenerator</text>
<polyline fill="none" stroke="black" points="96.27,-819.5 253.27,-819.5 "/>
<text text-anchor="start" x="104.27" y="-807.5" font-family="Helvetica,sans-Serif" font-size="10.00">+ string content</text>
<polyline fill="none" stroke="black" points="96.27,-800.5 253.27,-800.5 "/>
<text text-anchor="start" x="104.27" y="-788.5" font-family="Helvetica,sans-Serif" font-size="10.00">+ void Speak(string content)</text>
<text text-anchor="start" x="104.27" y="-777.5" font-family="Helvetica,sans-Serif" font-size="10.00">+ async Task GetAudioAsync()</text>
<text text-anchor="start" x="104.27" y="-766.5" font-family="Helvetica,sans-Serif" font-size="10.00">+ IEnumerator OnAudioLoadAnd</text>
<text text-anchor="start" x="104.27" y="-755.5" font-family="Helvetica,sans-Serif" font-size="10.00">Paly(string url, AudioType</text>
<text text-anchor="start" x="104.27" y="-744.5" font-family="Helvetica,sans-Serif" font-size="10.00"> type, AudioSource audio)</text>
</a>
</g>
</g>
<!-- Node3&#45;&gt;Node5 -->
<g id="edge6" class="edge">
<title>Node3&#45;&gt;Node5</title>
<path fill="none" stroke="midnightblue" d="M137.99,-867.34C142.25,-858.27 146.88,-848.39 151.38,-838.81"/>
<polygon fill="none" stroke="midnightblue" points="134.79,-865.92 133.71,-876.45 141.13,-868.89 134.79,-865.92"/>
</g>
<!-- Node6 -->
<g id="node6" class="node">
<title>Node6</title>
<g id="a_node6"><a xlink:href="class_custom_u_i_1_1_lab_mode_u_i.html" target="_top" xlink:title=" ">
<polygon fill="white" stroke="black" points="212.77,-463.5 212.77,-718.5 362.77,-718.5 362.77,-463.5 212.77,-463.5"/>
<text text-anchor="middle" x="287.77" y="-706.5" font-family="Helvetica,sans-Serif" font-size="10.00">CustomUI.LabModeUI</text>
<polyline fill="none" stroke="black" points="212.77,-699.5 362.77,-699.5 "/>
<text text-anchor="start" x="220.77" y="-687.5" font-family="Helvetica,sans-Serif" font-size="10.00">+ GameObject difficultyPanel</text>
<text text-anchor="start" x="220.77" y="-676.5" font-family="Helvetica,sans-Serif" font-size="10.00">+ GameObject sceneListPanel</text>
<text text-anchor="start" x="220.77" y="-665.5" font-family="Helvetica,sans-Serif" font-size="10.00">+ GameObject satellitePanel</text>
<text text-anchor="start" x="220.77" y="-654.5" font-family="Helvetica,sans-Serif" font-size="10.00">+ GameObject modePanel</text>
<text text-anchor="start" x="220.77" y="-643.5" font-family="Helvetica,sans-Serif" font-size="10.00">+ int satelliteSceneIndex</text>
<polyline fill="none" stroke="black" points="212.77,-636.5 362.77,-636.5 "/>
<text text-anchor="start" x="220.77" y="-624.5" font-family="Helvetica,sans-Serif" font-size="10.00">+ void ToLab()</text>
<text text-anchor="start" x="220.77" y="-613.5" font-family="Helvetica,sans-Serif" font-size="10.00">+ void ToSatelliteChallenge</text>
<text text-anchor="start" x="220.77" y="-602.5" font-family="Helvetica,sans-Serif" font-size="10.00">(int difficulty)</text>
<text text-anchor="start" x="220.77" y="-591.5" font-family="Helvetica,sans-Serif" font-size="10.00">+ void ToMain()</text>
<text text-anchor="start" x="220.77" y="-580.5" font-family="Helvetica,sans-Serif" font-size="10.00">+ void ShowDifficultyPanel()</text>
<text text-anchor="start" x="220.77" y="-569.5" font-family="Helvetica,sans-Serif" font-size="10.00">+ void CloseDifficultyPanel()</text>
<text text-anchor="start" x="220.77" y="-558.5" font-family="Helvetica,sans-Serif" font-size="10.00">+ void ShowScenesListPanel()</text>
<text text-anchor="start" x="220.77" y="-547.5" font-family="Helvetica,sans-Serif" font-size="10.00">+ void CloseScenesListPanel()</text>
<text text-anchor="start" x="220.77" y="-536.5" font-family="Helvetica,sans-Serif" font-size="10.00">+ void ShowSatellitePanel()</text>
<text text-anchor="start" x="220.77" y="-525.5" font-family="Helvetica,sans-Serif" font-size="10.00">+ void CloseSatellitePanel()</text>
<text text-anchor="start" x="220.77" y="-514.5" font-family="Helvetica,sans-Serif" font-size="10.00">+ void SetSatelliteIndex</text>
<text text-anchor="start" x="220.77" y="-503.5" font-family="Helvetica,sans-Serif" font-size="10.00">(int index)</text>
<text text-anchor="start" x="220.77" y="-492.5" font-family="Helvetica,sans-Serif" font-size="10.00">+ void ShowModePanel()</text>
<text text-anchor="start" x="220.77" y="-481.5" font-family="Helvetica,sans-Serif" font-size="10.00">+ void CloseModePanel()</text>
<text text-anchor="start" x="220.77" y="-470.5" font-family="Helvetica,sans-Serif" font-size="10.00">+ void ToFreeTravel()</text>
</a>
</g>
</g>
<!-- Node3&#45;&gt;Node6 -->
<g id="edge8" class="edge">
<title>Node3&#45;&gt;Node6</title>
<path fill="none" stroke="midnightblue" d="M172.38,-893.91C203.72,-884.97 241.63,-868.54 262.77,-839 287.42,-804.56 296.83,-760.18 299.07,-718.55"/>
<polygon fill="none" stroke="midnightblue" points="171.22,-890.6 162.47,-896.56 173.03,-897.36 171.22,-890.6"/>
</g>
<!-- Node4&#45;&gt;Node2 -->
<g id="edge3" class="edge">
<title>Node4&#45;&gt;Node2</title>
<path fill="none" stroke="#404040" d="M136.77,-321.3C136.77,-309.92 136.77,-297.76 136.77,-285.63"/>
<polygon fill="none" stroke="#404040" points="136.77,-285.53 132.77,-279.53 136.77,-273.53 140.77,-279.53 136.77,-285.53"/>
<text text-anchor="middle" x="179.27" y="-295" font-family="Helvetica,sans-Serif" font-size="10.00"> +tutorialManagerUI</text>
</g>
<!-- Node5&#45;&gt;Node4 -->
<g id="edge5" class="edge">
<title>Node5&#45;&gt;Node4</title>
<path fill="none" stroke="#404040" d="M137.4,-737.39C134.31,-731.43 131.65,-725.24 129.77,-719 103.48,-631.64 112.03,-525.58 122.6,-456.53"/>
<polygon fill="none" stroke="#404040" points="122.63,-456.36 119.63,-449.8 124.52,-444.51 127.53,-451.06 122.63,-456.36"/>
<text text-anchor="middle" x="166.77" y="-588.5" font-family="Helvetica,sans-Serif" font-size="10.00"> +voiceGenerator</text>
</g>
<!-- Node6&#45;&gt;Node1 -->
<g id="edge7" class="edge">
<title>Node6&#45;&gt;Node1</title>
<path fill="none" stroke="#404040" d="M276.59,-463.43C266.31,-365.07 248.28,-225.69 219.77,-106 217.78,-97.62 215.2,-88.83 212.47,-80.41"/>
<polygon fill="none" stroke="#404040" points="212.4,-80.2 206.69,-75.79 208.56,-68.83 214.27,-73.24 212.4,-80.2"/>
<text text-anchor="middle" x="283.27" y="-295" font-family="Helvetica,sans-Serif" font-size="10.00"> +labModeUI</text>
</g>
</g>
</svg>
        <g id="navigator" transform="translate(0 0)" fill="#404254">
                <rect fill="#f2f5e9" fill-opacity="0.5" stroke="#606060" stroke-width=".5" x="0" y="0" width="60" height="60"/>
                <use id="zoomplus" xlink:href="#zoomPlus" x="17" y="9" onmousedown="handleZoom(evt,'in')"/>
                <use id="zoomminus" xlink:href="#zoomMin" x="42" y="9" onmousedown="handleZoom(evt,'out')"/>
                <use id="reset" xlink:href="#resetDef" x="30" y="36" onmousedown="handleReset()"/>
                <g id="arrowUp" xlink:href="#dirArrow" transform="translate(30 24)" onmousedown="handlePan(0,-1)">
                  <use xlink:href="#rim" fill="#404040">
                        <set attributeName="fill" to="#808080" begin="arrowUp.mouseover" end="arrowUp.mouseout"/>
                  </use>
                  <path fill="none" stroke="white" stroke-width="1.5" d="M0,-3.0v7 M-2.5,-0.5L0,-3.0L2.5,-0.5"/>
                </g>
                <g id="arrowRight" xlink:href="#dirArrow" transform="rotate(90) translate(36 -43)" onmousedown="handlePan(1,0)">
                  <use xlink:href="#rim" fill="#404040">
                        <set attributeName="fill" to="#808080" begin="arrowRight.mouseover" end="arrowRight.mouseout"/>
                  </use>
                  <path fill="none" stroke="white" stroke-width="1.5" d="M0,-3.0v7 M-2.5,-0.5L0,-3.0L2.5,-0.5"/>
                </g>
                <g id="arrowDown" xlink:href="#dirArrow" transform="rotate(180) translate(-30 -48)" onmousedown="handlePan(0,1)">
                  <use xlink:href="#rim" fill="#404040">
                        <set attributeName="fill" to="#808080" begin="arrowDown.mouseover" end="arrowDown.mouseout"/>
                  </use>
                  <path fill="none" stroke="white" stroke-width="1.5" d="M0,-3.0v7 M-2.5,-0.5L0,-3.0L2.5,-0.5"/>
                </g>
                <g id="arrowLeft" xlink:href="#dirArrow" transform="rotate(270) translate(-36 17)" onmousedown="handlePan(-1,0)">
                  <use xlink:href="#rim" fill="#404040">
                        <set attributeName="fill" to="#808080" begin="arrowLeft.mouseover" end="arrowLeft.mouseout"/>
                  </use>
                  <path fill="none" stroke="white" stroke-width="1.5" d="M0,-3.0v7 M-2.5,-0.5L0,-3.0L2.5,-0.5"/>
                </g>
        </g>
        <svg viewBox="0 0 15 15" width="100%" height="30px" preserveAspectRatio="xMaxYMin meet">
         <g id="arrow_out" transform="scale(0.3 0.3)">
          <a xlink:href="class_custom_u_i_1_1_tutorial_1_1_satellite_tutorial_u_i__coll__graph_org.svg" target="_base">
           <rect id="button" ry="5" rx="5" y="6" x="6" height="38" width="38"
                fill="#f2f5e9" fill-opacity="0.5" stroke="#606060" stroke-width="1.0"/>
           <path id="arrow"
             d="M 11.500037,31.436501 C 11.940474,20.09759 22.043105,11.32322 32.158766,21.979434 L 37.068811,17.246167 C 37.068811,17.246167 37.088388,32 37.088388,32 L 22.160133,31.978069 C 22.160133,31.978069 26.997745,27.140456 26.997745,27.140456 C 18.528582,18.264221 13.291696,25.230495 11.500037,31.436501 z"
             style="fill:#404040;"/>
          </a>
         </g>
        </svg>
</svg>
