<?xml version="1.0" encoding="UTF-8" standalone="no"?>
<!DOCTYPE svg PUBLIC "-//W3C//DTD SVG 1.1//EN"
 "http://www.w3.org/Graphics/SVG/1.1/DTD/svg11.dtd">
<!-- Generated by graphviz version 2.47.1 (20210417.1919)
 -->
<!-- Title: CustomUI.Tutorial.TutorialManagerUI Pages: 1 -->
<svg width="183pt" height="364pt"
 viewBox="0.00 0.00 183.00 364.00" xmlns="http://www.w3.org/2000/svg" xmlns:xlink="http://www.w3.org/1999/xlink">
<g id="graph0" class="graph" transform="scale(1 1) rotate(0) translate(4 360)">
<title>CustomUI.Tutorial.TutorialManagerUI</title>
<polygon fill="white" stroke="transparent" points="-4,4 -4,-360 179,-360 179,4 -4,4"/>
<!-- Node1 -->
<g id="node1" class="node">
<title>Node1</title>
<g id="a_node1"><a xlink:title=" ">
<polygon fill="#bfbfbf" stroke="black" points="0,-127.5 0,-261.5 175,-261.5 175,-127.5 0,-127.5"/>
<text text-anchor="start" x="8" y="-249.5" font-family="Helvetica,sans-Serif" font-size="10.00">CustomUI.Tutorial.Tutorial</text>
<text text-anchor="middle" x="87.5" y="-238.5" font-family="Helvetica,sans-Serif" font-size="10.00">ManagerUI</text>
<polyline fill="none" stroke="black" points="0,-231.5 175,-231.5 "/>
<text text-anchor="start" x="8" y="-219.5" font-family="Helvetica,sans-Serif" font-size="10.00">+ VoiceGenerator voiceGenerator</text>
<text text-anchor="start" x="8" y="-208.5" font-family="Helvetica,sans-Serif" font-size="10.00">+ List&lt; TutorialUI &gt;</text>
<text text-anchor="start" x="8" y="-197.5" font-family="Helvetica,sans-Serif" font-size="10.00"> tutorialUiList</text>
<text text-anchor="start" x="8" y="-186.5" font-family="Helvetica,sans-Serif" font-size="10.00"># static Dictionary&lt;</text>
<text text-anchor="start" x="8" y="-175.5" font-family="Helvetica,sans-Serif" font-size="10.00"> string, bool &gt; hasBeenActivatedDict</text>
<polyline fill="none" stroke="black" points="0,-168.5 175,-168.5 "/>
<text text-anchor="start" x="8" y="-156.5" font-family="Helvetica,sans-Serif" font-size="10.00">+ void Update()</text>
<text text-anchor="start" x="8" y="-145.5" font-family="Helvetica,sans-Serif" font-size="10.00"># virtual void MonitorAwake</text>
<text text-anchor="start" x="8" y="-134.5" font-family="Helvetica,sans-Serif" font-size="10.00">Panel()</text>
</a>
</g>
</g>
<!-- Node3 -->
<g id="node3" class="node">
<title>Node3</title>
<g id="a_node3"><a xlink:href="class_custom_u_i_1_1_tutorial_1_1_multi_tutorial_manager_u_i.html" target="_top" xlink:title=" ">
<polygon fill="white" stroke="black" points="13,-0.5 13,-90.5 162,-90.5 162,-0.5 13,-0.5"/>
<text text-anchor="start" x="21" y="-78.5" font-family="Helvetica,sans-Serif" font-size="10.00">CustomUI.Tutorial.MultiTutorial</text>
<text text-anchor="middle" x="87.5" y="-67.5" font-family="Helvetica,sans-Serif" font-size="10.00">ManagerUI</text>
<polyline fill="none" stroke="black" points="13,-60.5 162,-60.5 "/>
<text text-anchor="start" x="21" y="-48.5" font-family="Helvetica,sans-Serif" font-size="10.00">+ List&lt; Difficulty &gt;</text>
<text text-anchor="start" x="21" y="-37.5" font-family="Helvetica,sans-Serif" font-size="10.00"> difficulties</text>
<polyline fill="none" stroke="black" points="13,-30.5 162,-30.5 "/>
<text text-anchor="start" x="21" y="-18.5" font-family="Helvetica,sans-Serif" font-size="10.00"># override void MonitorAwake</text>
<text text-anchor="start" x="21" y="-7.5" font-family="Helvetica,sans-Serif" font-size="10.00">Panel()</text>
</a>
</g>
</g>
<!-- Node1&#45;&gt;Node3 -->
<g id="edge2" class="edge">
<title>Node1&#45;&gt;Node3</title>
<path fill="none" stroke="midnightblue" d="M87.5,-117.15C87.5,-108.15 87.5,-99.2 87.5,-90.85"/>
<polygon fill="none" stroke="midnightblue" points="84,-117.31 87.5,-127.31 91,-117.31 84,-117.31"/>
</g>
<!-- Node2 -->
<g id="node2" class="node">
<title>Node2</title>
<g id="a_node2"><a xlink:title=" ">
<polygon fill="white" stroke="#bfbfbf" points="46,-298.5 46,-355.5 129,-355.5 129,-298.5 46,-298.5"/>
<text text-anchor="middle" x="87.5" y="-343.5" font-family="Helvetica,sans-Serif" font-size="10.00">MonoBehaviour</text>
<polyline fill="none" stroke="#bfbfbf" points="46,-336.5 129,-336.5 "/>
<text text-anchor="middle" x="87.5" y="-324.5" font-family="Helvetica,sans-Serif" font-size="10.00"> </text>
<polyline fill="none" stroke="#bfbfbf" points="46,-317.5 129,-317.5 "/>
<text text-anchor="middle" x="87.5" y="-305.5" font-family="Helvetica,sans-Serif" font-size="10.00"> </text>
</a>
</g>
</g>
<!-- Node2&#45;&gt;Node1 -->
<g id="edge1" class="edge">
<title>Node2&#45;&gt;Node1</title>
<path fill="none" stroke="midnightblue" d="M87.5,-288.16C87.5,-279.78 87.5,-270.67 87.5,-261.53"/>
<polygon fill="none" stroke="midnightblue" points="84,-288.32 87.5,-298.32 91,-288.32 84,-288.32"/>
</g>
</g>
</svg>
