<?xml version="1.0" encoding="UTF-8" standalone="no"?>
<!DOCTYPE svg PUBLIC "-//W3C//DTD SVG 1.1//EN"
 "http://www.w3.org/Graphics/SVG/1.1/DTD/svg11.dtd">
<!-- Generated by graphviz version 2.47.1 (20210417.1919)
 -->
<!-- Title: Quiz.QuizAstralBody.Start Pages: 1 -->
<svg width="547pt" height="78pt"
 viewBox="0.00 0.00 547.00 77.50" xmlns="http://www.w3.org/2000/svg" xmlns:xlink="http://www.w3.org/1999/xlink">
<g id="graph0" class="graph" transform="scale(1 1) rotate(0) translate(4 73.5)">
<title>Quiz.QuizAstralBody.Start</title>
<polygon fill="white" stroke="transparent" points="-4,4 -4,-73.5 543,-73.5 543,4 -4,4"/>
<!-- Node1 -->
<g id="node1" class="node">
<title>Node1</title>
<g id="a_node1"><a xlink:title=" ">
<polygon fill="#bfbfbf" stroke="black" points="0,-22.5 0,-41.5 132,-41.5 132,-22.5 0,-22.5"/>
<text text-anchor="middle" x="66" y="-29.5" font-family="Helvetica,sans-Serif" font-size="10.00">Quiz.QuizAstralBody.Start</text>
</a>
</g>
</g>
<!-- Node2 -->
<g id="node2" class="node">
<title>Node2</title>
<g id="a_node2"><a xlink:href="class_space_physic_1_1_astral_body.html#a5c1d5bbbcd247e49603f2d702f9118b0" target="_top" xlink:title=" ">
<polygon fill="white" stroke="black" points="168,-22.5 168,-41.5 336,-41.5 336,-22.5 168,-22.5"/>
<text text-anchor="middle" x="252" y="-29.5" font-family="Helvetica,sans-Serif" font-size="10.00">SpacePhysic.AstralBody.Generate</text>
</a>
</g>
</g>
<!-- Node1&#45;&gt;Node2 -->
<g id="edge1" class="edge">
<title>Node1&#45;&gt;Node2</title>
<path fill="none" stroke="midnightblue" d="M132.13,-32C140.45,-32 149.1,-32 157.75,-32"/>
<polygon fill="midnightblue" stroke="midnightblue" points="157.91,-35.5 167.91,-32 157.91,-28.5 157.91,-35.5"/>
</g>
<!-- Node3 -->
<g id="node3" class="node">
<title>Node3</title>
<g id="a_node3"><a xlink:href="class_space_physic_1_1_astral_body.html#a8c43caafe4f528c08feb450cba3c5cd7" target="_top" xlink:title="调整星球速度">
<polygon fill="white" stroke="black" points="375,-39 375,-69 536,-69 536,-39 375,-39"/>
<text text-anchor="start" x="383" y="-57" font-family="Helvetica,sans-Serif" font-size="10.00">SpacePhysic.AstralBody.Change</text>
<text text-anchor="middle" x="455.5" y="-46" font-family="Helvetica,sans-Serif" font-size="10.00">Velocity</text>
</a>
</g>
</g>
<!-- Node2&#45;&gt;Node3 -->
<g id="edge2" class="edge">
<title>Node2&#45;&gt;Node3</title>
<path fill="none" stroke="midnightblue" d="M336.12,-41.08C345.52,-42.1 355.12,-43.15 364.6,-44.18"/>
<polygon fill="midnightblue" stroke="midnightblue" points="364.49,-47.69 374.81,-45.3 365.25,-40.73 364.49,-47.69"/>
</g>
<!-- Node4 -->
<g id="node4" class="node">
<title>Node4</title>
<g id="a_node4"><a xlink:href="class_space_physic_1_1_astral_body.html#a3b69f3ac1f1c3b789f3d9102cdb2a80c" target="_top" xlink:title=" ">
<polygon fill="white" stroke="black" points="372,-0.5 372,-19.5 539,-19.5 539,-0.5 372,-0.5"/>
<text text-anchor="middle" x="455.5" y="-7.5" font-family="Helvetica,sans-Serif" font-size="10.00">SpacePhysic.AstralBody.SetMass</text>
</a>
</g>
</g>
<!-- Node2&#45;&gt;Node4 -->
<g id="edge3" class="edge">
<title>Node2&#45;&gt;Node4</title>
<path fill="none" stroke="midnightblue" d="M336.12,-22.92C344.61,-22 353.28,-21.05 361.87,-20.11"/>
<polygon fill="midnightblue" stroke="midnightblue" points="362.33,-23.58 371.89,-19.02 361.57,-16.63 362.33,-23.58"/>
</g>
</g>
</svg>
