<?xml version="1.0" encoding="UTF-8" standalone="no"?>
<!DOCTYPE svg PUBLIC "-//W3C//DTD SVG 1.1//EN"
 "http://www.w3.org/Graphics/SVG/1.1/DTD/svg11.dtd">
<!-- Generated by graphviz version 2.47.1 (20210417.1919)
 -->
<!-- Title: CustomUI.AstralBodyEditor.VelocityEditorUI Pages: 1 -->
<svg width="378pt" height="1064pt"
 viewBox="0.00 0.00 377.68 1064.00" xmlns="http://www.w3.org/2000/svg" xmlns:xlink="http://www.w3.org/1999/xlink">
<g id="graph0" class="graph" transform="scale(1 1) rotate(0) translate(4 1060)">
<title>CustomUI.AstralBodyEditor.VelocityEditorUI</title>
<polygon fill="white" stroke="transparent" points="-4,4 -4,-1060 373.68,-1060 373.68,4 -4,4"/>
<!-- Node1 -->
<g id="node1" class="node">
<title>Node1</title>
<g id="a_node1"><a xlink:title=" ">
<polygon fill="#bfbfbf" stroke="black" points="20.18,-0.5 20.18,-90.5 159.18,-90.5 159.18,-0.5 20.18,-0.5"/>
<text text-anchor="start" x="28.18" y="-78.5" font-family="Helvetica,sans-Serif" font-size="10.00">CustomUI.AstralBodyEditor.</text>
<text text-anchor="middle" x="89.68" y="-67.5" font-family="Helvetica,sans-Serif" font-size="10.00">VelocityEditorUI</text>
<polyline fill="none" stroke="black" points="20.18,-60.5 159.18,-60.5 "/>
<text text-anchor="start" x="28.18" y="-48.5" font-family="Helvetica,sans-Serif" font-size="10.00">+ float showSize</text>
<text text-anchor="start" x="28.18" y="-37.5" font-family="Helvetica,sans-Serif" font-size="10.00">+ LineRenderer velocityLine</text>
<text text-anchor="start" x="28.18" y="-26.5" font-family="Helvetica,sans-Serif" font-size="10.00">+ float Speed</text>
<polyline fill="none" stroke="black" points="20.18,-19.5 159.18,-19.5 "/>
<text text-anchor="start" x="28.18" y="-7.5" font-family="Helvetica,sans-Serif" font-size="10.00">+ void OnDisable()</text>
</a>
</g>
</g>
<!-- Node2 -->
<g id="node2" class="node">
<title>Node2</title>
<g id="a_node2"><a xlink:title=" ">
<polygon fill="white" stroke="#bfbfbf" points="108.18,-949 108.18,-1006 191.18,-1006 191.18,-949 108.18,-949"/>
<text text-anchor="middle" x="149.68" y="-994" font-family="Helvetica,sans-Serif" font-size="10.00">MonoBehaviour</text>
<polyline fill="none" stroke="#bfbfbf" points="108.18,-987 191.18,-987 "/>
<text text-anchor="middle" x="149.68" y="-975" font-family="Helvetica,sans-Serif" font-size="10.00"> </text>
<polyline fill="none" stroke="#bfbfbf" points="108.18,-968 191.18,-968 "/>
<text text-anchor="middle" x="149.68" y="-956" font-family="Helvetica,sans-Serif" font-size="10.00"> </text>
</a>
</g>
</g>
<!-- Node2&#45;&gt;Node1 -->
<g id="edge1" class="edge">
<title>Node2&#45;&gt;Node1</title>
<path fill="none" stroke="midnightblue" d="M105.41,-942.29C82.6,-921.78 57.04,-893.6 44.68,-862 -53.08,-611.99 41.56,-526.44 42.68,-258 42.9,-204.67 31.16,-189.84 43.68,-138 47.61,-121.75 54.85,-105.1 62.45,-90.53"/>
<polygon fill="none" stroke="midnightblue" points="103.18,-944.99 113.01,-948.94 107.79,-939.72 103.18,-944.99"/>
</g>
<!-- Node4 -->
<g id="node4" class="node">
<title>Node4</title>
<g id="a_node4"><a xlink:href="class_custom_u_i_1_1_vector_u_i.html" target="_top" xlink:title=" ">
<polygon fill="white" stroke="black" points="111.68,-138.5 111.68,-239.5 247.68,-239.5 247.68,-138.5 111.68,-138.5"/>
<text text-anchor="middle" x="179.68" y="-227.5" font-family="Helvetica,sans-Serif" font-size="10.00">CustomUI.VectorUI</text>
<polyline fill="none" stroke="black" points="111.68,-220.5 247.68,-220.5 "/>
<text text-anchor="start" x="119.68" y="-208.5" font-family="Helvetica,sans-Serif" font-size="10.00">+ string header</text>
<text text-anchor="start" x="119.68" y="-197.5" font-family="Helvetica,sans-Serif" font-size="10.00">+ float showSize</text>
<text text-anchor="start" x="119.68" y="-186.5" font-family="Helvetica,sans-Serif" font-size="10.00">+ vectorType thisType</text>
<text text-anchor="start" x="119.68" y="-175.5" font-family="Helvetica,sans-Serif" font-size="10.00">+ string unit</text>
<text text-anchor="start" x="119.68" y="-164.5" font-family="Helvetica,sans-Serif" font-size="10.00">+ LineRenderer vectorArrow</text>
<polyline fill="none" stroke="black" points="111.68,-157.5 247.68,-157.5 "/>
<text text-anchor="middle" x="179.68" y="-145.5" font-family="Helvetica,sans-Serif" font-size="10.00"> </text>
</a>
</g>
</g>
<!-- Node2&#45;&gt;Node4 -->
<g id="edge4" class="edge">
<title>Node2&#45;&gt;Node4</title>
<path fill="none" stroke="midnightblue" d="M151.12,-938.79C156.05,-809.68 172.23,-385.28 177.79,-239.6"/>
<polygon fill="none" stroke="midnightblue" points="147.62,-938.84 150.73,-948.97 154.61,-939.11 147.62,-938.84"/>
</g>
<!-- Node5 -->
<g id="node5" class="node">
<title>Node5</title>
<g id="a_node5"><a xlink:href="class_space_physic_1_1_astral_body.html" target="_top" xlink:title="星体物理实体">
<polygon fill="white" stroke="black" points="200.18,-287.5 200.18,-861.5 361.18,-861.5 361.18,-287.5 200.18,-287.5"/>
<text text-anchor="middle" x="280.68" y="-849.5" font-family="Helvetica,sans-Serif" font-size="10.00">SpacePhysic.AstralBody</text>
<polyline fill="none" stroke="black" points="200.18,-842.5 361.18,-842.5 "/>
<text text-anchor="start" x="208.18" y="-830.5" font-family="Helvetica,sans-Serif" font-size="10.00">+ List&lt; AstralBody &gt;</text>
<text text-anchor="start" x="208.18" y="-819.5" font-family="Helvetica,sans-Serif" font-size="10.00"> affectedPlanets</text>
<text text-anchor="start" x="208.18" y="-808.5" font-family="Helvetica,sans-Serif" font-size="10.00">+ float affectRadius</text>
<text text-anchor="start" x="208.18" y="-797.5" font-family="Helvetica,sans-Serif" font-size="10.00">+ Vector3 angularVelocity</text>
<text text-anchor="start" x="208.18" y="-786.5" font-family="Helvetica,sans-Serif" font-size="10.00">+ List&lt; AstralBody &gt;</text>
<text text-anchor="start" x="208.18" y="-775.5" font-family="Helvetica,sans-Serif" font-size="10.00"> banAffectedPlanets</text>
<text text-anchor="start" x="208.18" y="-764.5" font-family="Helvetica,sans-Serif" font-size="10.00">+ SphereCollider defaultCollider</text>
<text text-anchor="start" x="208.18" y="-753.5" font-family="Helvetica,sans-Serif" font-size="10.00">+ bool enableAffect</text>
<text text-anchor="start" x="208.18" y="-742.5" font-family="Helvetica,sans-Serif" font-size="10.00">+ bool enableTracing</text>
<text text-anchor="start" x="208.18" y="-731.5" font-family="Helvetica,sans-Serif" font-size="10.00">+ Vector3 oriVelocity</text>
<text text-anchor="start" x="208.18" y="-720.5" font-family="Helvetica,sans-Serif" font-size="10.00">+ SphereCollider triggerCollider</text>
<text text-anchor="start" x="208.18" y="-709.5" font-family="Helvetica,sans-Serif" font-size="10.00">+ UnityEvent&lt; Vector3</text>
<text text-anchor="start" x="208.18" y="-698.5" font-family="Helvetica,sans-Serif" font-size="10.00"> &gt; velocityChangedEvent</text>
<text text-anchor="start" x="208.18" y="-687.5" font-family="Helvetica,sans-Serif" font-size="10.00">+ UnityEvent astralBodyDestroy</text>
<text text-anchor="start" x="208.18" y="-676.5" font-family="Helvetica,sans-Serif" font-size="10.00">Event</text>
<text text-anchor="start" x="208.18" y="-665.5" font-family="Helvetica,sans-Serif" font-size="10.00">+ bool isUseScaler</text>
<text text-anchor="start" x="208.18" y="-654.5" font-family="Helvetica,sans-Serif" font-size="10.00">+ float? Mass</text>
<text text-anchor="start" x="208.18" y="-643.5" font-family="Helvetica,sans-Serif" font-size="10.00">+ Rigidbody astralBodyRigidbody</text>
<text text-anchor="start" x="208.18" y="-632.5" font-family="Helvetica,sans-Serif" font-size="10.00">+ Vector3 Force</text>
<text text-anchor="start" x="208.18" y="-621.5" font-family="Helvetica,sans-Serif" font-size="10.00">+ float gravity</text>
<text text-anchor="start" x="208.18" y="-610.5" font-family="Helvetica,sans-Serif" font-size="10.00">+ int meshNum</text>
<text text-anchor="start" x="208.18" y="-599.5" font-family="Helvetica,sans-Serif" font-size="10.00">+ float size</text>
<text text-anchor="start" x="208.18" y="-588.5" font-family="Helvetica,sans-Serif" font-size="10.00">+ double realMass</text>
<text text-anchor="start" x="208.18" y="-577.5" font-family="Helvetica,sans-Serif" font-size="10.00">+ double density</text>
<text text-anchor="start" x="208.18" y="-566.5" font-family="Helvetica,sans-Serif" font-size="10.00">+ Vector3 lastVelocity</text>
<text text-anchor="start" x="208.18" y="-555.5" font-family="Helvetica,sans-Serif" font-size="10.00">+ bool isLoadDone</text>
<polyline fill="none" stroke="black" points="200.18,-548.5 361.18,-548.5 "/>
<text text-anchor="start" x="208.18" y="-536.5" font-family="Helvetica,sans-Serif" font-size="10.00">+ virtual void OnCollision</text>
<text text-anchor="start" x="208.18" y="-525.5" font-family="Helvetica,sans-Serif" font-size="10.00">Enter(Collision other)</text>
<text text-anchor="start" x="208.18" y="-514.5" font-family="Helvetica,sans-Serif" font-size="10.00">+ Transform GetTransform()</text>
<text text-anchor="start" x="208.18" y="-503.5" font-family="Helvetica,sans-Serif" font-size="10.00">+ Vector3 GetPosition()</text>
<text text-anchor="start" x="208.18" y="-492.5" font-family="Helvetica,sans-Serif" font-size="10.00">+ GameObject GetGameObject()</text>
<text text-anchor="start" x="208.18" y="-481.5" font-family="Helvetica,sans-Serif" font-size="10.00">+ bool GetEnableTracing()</text>
<text text-anchor="start" x="208.18" y="-470.5" font-family="Helvetica,sans-Serif" font-size="10.00">+ virtual float GetMass()</text>
<text text-anchor="start" x="208.18" y="-459.5" font-family="Helvetica,sans-Serif" font-size="10.00">+ Rigidbody GetRigidbody()</text>
<text text-anchor="start" x="208.18" y="-448.5" font-family="Helvetica,sans-Serif" font-size="10.00">+ Vector3 GetVelocity()</text>
<text text-anchor="start" x="208.18" y="-437.5" font-family="Helvetica,sans-Serif" font-size="10.00">+ List&lt; AstralBody &gt;</text>
<text text-anchor="start" x="208.18" y="-426.5" font-family="Helvetica,sans-Serif" font-size="10.00"> GetAffectedPlanets()</text>
<text text-anchor="start" x="208.18" y="-415.5" font-family="Helvetica,sans-Serif" font-size="10.00">+ AstralBody GetAstralBody()</text>
<text text-anchor="start" x="208.18" y="-404.5" font-family="Helvetica,sans-Serif" font-size="10.00">+ void ChangeVelocity</text>
<text text-anchor="start" x="208.18" y="-393.5" font-family="Helvetica,sans-Serif" font-size="10.00">(Vector3 velocity)</text>
<text text-anchor="start" x="208.18" y="-382.5" font-family="Helvetica,sans-Serif" font-size="10.00">+ void ChangeVelocity</text>
<text text-anchor="start" x="208.18" y="-371.5" font-family="Helvetica,sans-Serif" font-size="10.00">(double realSpeed)</text>
<text text-anchor="start" x="208.18" y="-360.5" font-family="Helvetica,sans-Serif" font-size="10.00">+ Vector3 CalculateForce()</text>
<text text-anchor="start" x="208.18" y="-349.5" font-family="Helvetica,sans-Serif" font-size="10.00">+ void SetCircleVelocity()</text>
<text text-anchor="start" x="208.18" y="-338.5" font-family="Helvetica,sans-Serif" font-size="10.00">+ void SetCircleVelocityMenu()</text>
<text text-anchor="start" x="208.18" y="-327.5" font-family="Helvetica,sans-Serif" font-size="10.00"># virtual void Start()</text>
<text text-anchor="start" x="208.18" y="-316.5" font-family="Helvetica,sans-Serif" font-size="10.00"># void Generate()</text>
<text text-anchor="start" x="208.18" y="-305.5" font-family="Helvetica,sans-Serif" font-size="10.00"># virtual void FixedUpdate()</text>
<text text-anchor="start" x="208.18" y="-294.5" font-family="Helvetica,sans-Serif" font-size="10.00"># virtual void SetMass()</text>
</a>
</g>
</g>
<!-- Node2&#45;&gt;Node5 -->
<g id="edge7" class="edge">
<title>Node2&#45;&gt;Node5</title>
<path fill="none" stroke="midnightblue" d="M161.81,-939.37C171.2,-910.65 185.09,-868.12 200.1,-822.18"/>
<polygon fill="none" stroke="midnightblue" points="158.46,-938.35 158.69,-948.94 165.12,-940.52 158.46,-938.35"/>
</g>
<!-- Node3 -->
<g id="node3" class="node">
<title>Node3</title>
<g id="a_node3"><a xlink:title=" ">
<polygon fill="white" stroke="#bfbfbf" points="54.18,-546 54.18,-603 89.18,-603 89.18,-546 54.18,-546"/>
<text text-anchor="middle" x="71.68" y="-591" font-family="Helvetica,sans-Serif" font-size="10.00">Text</text>
<polyline fill="none" stroke="#bfbfbf" points="54.18,-584 89.18,-584 "/>
<text text-anchor="middle" x="71.68" y="-572" font-family="Helvetica,sans-Serif" font-size="10.00"> </text>
<polyline fill="none" stroke="#bfbfbf" points="54.18,-565 89.18,-565 "/>
<text text-anchor="middle" x="71.68" y="-553" font-family="Helvetica,sans-Serif" font-size="10.00"> </text>
</a>
</g>
</g>
<!-- Node3&#45;&gt;Node1 -->
<g id="edge2" class="edge">
<title>Node3&#45;&gt;Node1</title>
<path fill="none" stroke="#404040" d="M67.03,-545.98C56.14,-476.81 31.81,-290.33 57.68,-138 59.69,-126.18 63.06,-113.85 66.88,-102.21"/>
<polygon fill="none" stroke="#404040" points="66.88,-102.19 65.07,-95.21 70.81,-90.85 72.63,-97.83 66.88,-102.19"/>
<text text-anchor="middle" x="80.18" y="-186.5" font-family="Helvetica,sans-Serif" font-size="10.00"> +speedUI</text>
</g>
<!-- Node3&#45;&gt;Node4 -->
<g id="edge5" class="edge">
<title>Node3&#45;&gt;Node4</title>
<path fill="none" stroke="#404040" d="M66.22,-545.73C56.39,-488.16 41.11,-353.25 91.68,-258 94.79,-252.14 98.66,-246.62 103.01,-241.47"/>
<polygon fill="none" stroke="#404040" points="103.13,-241.35 104.31,-234.23 111.33,-232.59 110.15,-239.7 103.13,-241.35"/>
<text text-anchor="middle" x="118.68" y="-261" font-family="Helvetica,sans-Serif" font-size="10.00"> +vectorText</text>
</g>
<!-- Node4&#45;&gt;Node1 -->
<g id="edge3" class="edge">
<title>Node4&#45;&gt;Node1</title>
<path fill="none" stroke="#404040" d="M147.95,-138.11C140.36,-126.17 132.21,-113.36 124.49,-101.22"/>
<polygon fill="none" stroke="#404040" points="124.27,-100.88 117.68,-97.97 117.83,-90.76 124.43,-93.67 124.27,-100.88"/>
<text text-anchor="middle" x="160.18" y="-112" font-family="Helvetica,sans-Serif" font-size="10.00"> +velocityUI</text>
</g>
<!-- Node5&#45;&gt;Node1 -->
<g id="edge9" class="edge">
<title>Node5&#45;&gt;Node1</title>
<path fill="none" stroke="#404040" d="M305.67,-287.47C299.28,-234.78 284.69,-182.44 256.68,-138 237.05,-106.85 202.9,-85.49 170.57,-71.29"/>
<polygon fill="none" stroke="#404040" points="170.31,-71.18 163.23,-72.56 159.24,-66.56 166.31,-65.18 170.31,-71.18"/>
<text text-anchor="middle" x="329.18" y="-186.5" font-family="Helvetica,sans-Serif" font-size="10.00"> +editingTarget</text>
</g>
<!-- Node5&#45;&gt;Node4 -->
<g id="edge6" class="edge">
<title>Node5&#45;&gt;Node4</title>
<path fill="none" stroke="#404040" d="M205.3,-287.27C201.95,-274.54 198.79,-262.54 195.91,-251.62"/>
<polygon fill="none" stroke="#404040" points="195.84,-251.36 190.45,-246.58 192.79,-239.75 198.18,-244.54 195.84,-251.36"/>
<text text-anchor="middle" x="227.68" y="-261" font-family="Helvetica,sans-Serif" font-size="10.00"> +astralBody</text>
</g>
<!-- Node6 -->
<g id="node6" class="node">
<title>Node6</title>
<g id="a_node6"><a xlink:href="interface_space_physic_1_1_i_traceable.html" target="_top" xlink:title="可追踪接口">
<polygon fill="white" stroke="black" points="209.68,-899.5 209.68,-1055.5 369.68,-1055.5 369.68,-899.5 209.68,-899.5"/>
<text text-anchor="middle" x="289.68" y="-1043.5" font-family="Helvetica,sans-Serif" font-size="10.00">ITraceable</text>
<polyline fill="none" stroke="black" points="209.68,-1036.5 369.68,-1036.5 "/>
<text text-anchor="middle" x="289.68" y="-1024.5" font-family="Helvetica,sans-Serif" font-size="10.00"> </text>
<polyline fill="none" stroke="black" points="209.68,-1017.5 369.68,-1017.5 "/>
<text text-anchor="start" x="217.68" y="-1005.5" font-family="Helvetica,sans-Serif" font-size="10.00">+ Transform GetTransform()</text>
<text text-anchor="start" x="217.68" y="-994.5" font-family="Helvetica,sans-Serif" font-size="10.00">+ Vector3 GetPosition()</text>
<text text-anchor="start" x="217.68" y="-983.5" font-family="Helvetica,sans-Serif" font-size="10.00">+ GameObject GetGameObject()</text>
<text text-anchor="start" x="217.68" y="-972.5" font-family="Helvetica,sans-Serif" font-size="10.00">+ bool GetEnableTracing()</text>
<text text-anchor="start" x="217.68" y="-961.5" font-family="Helvetica,sans-Serif" font-size="10.00">+ float GetMass()</text>
<text text-anchor="start" x="217.68" y="-950.5" font-family="Helvetica,sans-Serif" font-size="10.00">+ Rigidbody GetRigidbody()</text>
<text text-anchor="start" x="217.68" y="-939.5" font-family="Helvetica,sans-Serif" font-size="10.00">+ Vector3 GetVelocity()</text>
<text text-anchor="start" x="217.68" y="-928.5" font-family="Helvetica,sans-Serif" font-size="10.00">+ List&lt; AstralBody &gt;</text>
<text text-anchor="start" x="217.68" y="-917.5" font-family="Helvetica,sans-Serif" font-size="10.00"> GetAffectedPlanets()</text>
<text text-anchor="start" x="217.68" y="-906.5" font-family="Helvetica,sans-Serif" font-size="10.00">+ AstralBody GetAstralBody()</text>
</a>
</g>
</g>
<!-- Node6&#45;&gt;Node5 -->
<g id="edge8" class="edge">
<title>Node6&#45;&gt;Node5</title>
<path fill="none" stroke="midnightblue" d="M287.72,-889.08C287.52,-880.3 287.32,-871.1 287.1,-861.57"/>
<polygon fill="none" stroke="midnightblue" points="284.22,-889.26 287.95,-899.18 291.22,-889.11 284.22,-889.26"/>
</g>
</g>
</svg>
