<?xml version="1.0" encoding="UTF-8" standalone="no"?>
<!DOCTYPE svg PUBLIC "-//W3C//DTD SVG 1.1//EN"
 "http://www.w3.org/Graphics/SVG/1.1/DTD/svg11.dtd">
<!-- Generated by graphviz version 2.47.1 (20210417.1919)
 -->
<!-- Title: 类继承关系图 Pages: 1 -->
<svg width="380pt" height="66pt"
 viewBox="0.00 0.00 380.00 66.00" xmlns="http://www.w3.org/2000/svg" xmlns:xlink="http://www.w3.org/1999/xlink">
<g id="graph0" class="graph" transform="scale(1 1) rotate(0) translate(4 62)">
<title>类继承关系图</title>
<polygon fill="white" stroke="transparent" points="-4,4 -4,-62 376,-62 376,4 -4,4"/>
<!-- Node0 -->
<g id="node1" class="node">
<title>Node0</title>
<g id="a_node1"><a xlink:href="class_xml_saver_1_1_scene_load_base.html" target="_top" xlink:title=" ">
<polygon fill="white" stroke="black" points="0,-14 0,-44 131,-44 131,-14 0,-14"/>
<text text-anchor="start" x="8" y="-32" font-family="Helvetica,sans-Serif" font-size="10.00">XmlSaver.SceneLoadBase</text>
<text text-anchor="middle" x="65.5" y="-21" font-family="Helvetica,sans-Serif" font-size="10.00">&lt; QuizAstralBody &gt;</text>
</a>
</g>
</g>
<!-- Node1 -->
<g id="node2" class="node">
<title>Node1</title>
<g id="a_node2"><a xlink:href="class_quiz_1_1_quiz_base.html" target="_top" xlink:title="问题管理">
<polygon fill="white" stroke="black" points="167,-19.5 167,-38.5 250,-38.5 250,-19.5 167,-19.5"/>
<text text-anchor="middle" x="208.5" y="-26.5" font-family="Helvetica,sans-Serif" font-size="10.00">Quiz.QuizBase</text>
</a>
</g>
</g>
<!-- Node0&#45;&gt;Node1 -->
<g id="edge1" class="edge">
<title>Node0&#45;&gt;Node1</title>
<path fill="none" stroke="midnightblue" d="M141.51,-29C150.26,-29 158.92,-29 166.94,-29"/>
<polygon fill="midnightblue" stroke="midnightblue" points="141.22,-25.5 131.22,-29 141.22,-32.5 141.22,-25.5"/>
</g>
<!-- Node2 -->
<g id="node3" class="node">
<title>Node2</title>
<g id="a_node3"><a xlink:href="class_quiz_1_1_quiz_editor.html" target="_top" xlink:title="问题编辑器">
<polygon fill="white" stroke="black" points="286,-38.5 286,-57.5 372,-57.5 372,-38.5 286,-38.5"/>
<text text-anchor="middle" x="329" y="-45.5" font-family="Helvetica,sans-Serif" font-size="10.00">Quiz.QuizEditor</text>
</a>
</g>
</g>
<!-- Node1&#45;&gt;Node2 -->
<g id="edge2" class="edge">
<title>Node1&#45;&gt;Node2</title>
<path fill="none" stroke="midnightblue" d="M260.2,-37.13C268.78,-38.5 277.6,-39.92 285.93,-41.26"/>
<polygon fill="midnightblue" stroke="midnightblue" points="260.71,-33.67 250.28,-35.54 259.6,-40.58 260.71,-33.67"/>
</g>
<!-- Node3 -->
<g id="node4" class="node">
<title>Node3</title>
<g id="a_node4"><a xlink:href="class_quiz_1_1_quiz_solver.html" target="_top" xlink:title="解题管理">
<polygon fill="white" stroke="black" points="286,-0.5 286,-19.5 372,-19.5 372,-0.5 286,-0.5"/>
<text text-anchor="middle" x="329" y="-7.5" font-family="Helvetica,sans-Serif" font-size="10.00">Quiz.QuizSolver</text>
</a>
</g>
</g>
<!-- Node1&#45;&gt;Node3 -->
<g id="edge3" class="edge">
<title>Node1&#45;&gt;Node3</title>
<path fill="none" stroke="midnightblue" d="M260.2,-20.87C268.78,-19.5 277.6,-18.08 285.93,-16.74"/>
<polygon fill="midnightblue" stroke="midnightblue" points="259.6,-17.42 250.28,-22.46 260.71,-24.33 259.6,-17.42"/>
</g>
</g>
</svg>
