<?xml version="1.0" encoding="UTF-8" standalone="no"?>
<!DOCTYPE svg PUBLIC "-//W3C//DTD SVG 1.1//EN"
 "http://www.w3.org/Graphics/SVG/1.1/DTD/svg11.dtd">
<!-- Generated by graphviz version 2.47.1 (20210417.1919)
 -->
<!-- Title: CustomPostProcessing.IRenderTexOuter Pages: 1 -->
<svg width="370pt" height="292pt"
 viewBox="0.00 0.00 370.00 292.00" xmlns="http://www.w3.org/2000/svg" xmlns:xlink="http://www.w3.org/1999/xlink">
<g id="graph0" class="graph" transform="scale(1 1) rotate(0) translate(4 288)">
<title>CustomPostProcessing.IRenderTexOuter</title>
<polygon fill="white" stroke="transparent" points="-4,4 -4,-288 366,-288 366,4 -4,4"/>
<!-- Node1 -->
<g id="node1" class="node">
<title>Node1</title>
<g id="a_node1"><a xlink:title="RenderTexture输出接口">
<polygon fill="#bfbfbf" stroke="black" points="95,-215.5 95,-283.5 267,-283.5 267,-215.5 95,-215.5"/>
<text text-anchor="start" x="103" y="-271.5" font-family="Helvetica,sans-Serif" font-size="10.00">CustomPostProcessing.IRender</text>
<text text-anchor="middle" x="181" y="-260.5" font-family="Helvetica,sans-Serif" font-size="10.00">TexOuter</text>
<polyline fill="none" stroke="black" points="95,-253.5 267,-253.5 "/>
<text text-anchor="middle" x="181" y="-241.5" font-family="Helvetica,sans-Serif" font-size="10.00"> </text>
<polyline fill="none" stroke="black" points="95,-234.5 267,-234.5 "/>
<text text-anchor="start" x="103" y="-222.5" font-family="Helvetica,sans-Serif" font-size="10.00">+ RenderTexture GetRenderResult()</text>
</a>
</g>
</g>
<!-- Node2 -->
<g id="node2" class="node">
<title>Node2</title>
<g id="a_node2"><a xlink:href="class_custom_camera_1_1_layer_camera.html" target="_top" xlink:title="层级相机管理">
<polygon fill="white" stroke="black" points="0,-61 0,-118 172,-118 172,-61 0,-61"/>
<text text-anchor="middle" x="86" y="-106" font-family="Helvetica,sans-Serif" font-size="10.00">CustomCamera.LayerCamera</text>
<polyline fill="none" stroke="black" points="0,-99 172,-99 "/>
<text text-anchor="start" x="8" y="-87" font-family="Helvetica,sans-Serif" font-size="10.00">+ RenderTexture renderResultRT</text>
<polyline fill="none" stroke="black" points="0,-80 172,-80 "/>
<text text-anchor="start" x="8" y="-68" font-family="Helvetica,sans-Serif" font-size="10.00">+ RenderTexture GetRenderResult()</text>
</a>
</g>
</g>
<!-- Node1&#45;&gt;Node2 -->
<g id="edge1" class="edge">
<title>Node1&#45;&gt;Node2</title>
<path fill="none" stroke="midnightblue" d="M155.8,-206.59C138.95,-178.57 117.26,-142.49 102.57,-118.05"/>
<polygon fill="none" stroke="midnightblue" points="152.93,-208.61 161.08,-215.38 158.93,-205 152.93,-208.61"/>
</g>
<!-- Node3 -->
<g id="node3" class="node">
<title>Node3</title>
<g id="a_node3"><a xlink:href="class_custom_post_processing_1_1_outline_catcher.html" target="_top" xlink:title="描边抓取">
<polygon fill="white" stroke="black" points="190,-0.5 190,-178.5 362,-178.5 362,-0.5 190,-0.5"/>
<text text-anchor="start" x="198" y="-166.5" font-family="Helvetica,sans-Serif" font-size="10.00">CustomPostProcessing.Outline</text>
<text text-anchor="middle" x="276" y="-155.5" font-family="Helvetica,sans-Serif" font-size="10.00">Catcher</text>
<polyline fill="none" stroke="black" points="190,-148.5 362,-148.5 "/>
<text text-anchor="start" x="198" y="-136.5" font-family="Helvetica,sans-Serif" font-size="10.00">+ Color backgroundColor</text>
<text text-anchor="start" x="198" y="-125.5" font-family="Helvetica,sans-Serif" font-size="10.00">+ Color edgeColor</text>
<text text-anchor="start" x="198" y="-114.5" font-family="Helvetica,sans-Serif" font-size="10.00">+ float edgeOnly</text>
<text text-anchor="start" x="198" y="-103.5" font-family="Helvetica,sans-Serif" font-size="10.00">+ float edgeSize</text>
<text text-anchor="start" x="198" y="-92.5" font-family="Helvetica,sans-Serif" font-size="10.00">+ Camera outlineCamera</text>
<text text-anchor="start" x="198" y="-81.5" font-family="Helvetica,sans-Serif" font-size="10.00">+ Shader outlineShader</text>
<text text-anchor="start" x="198" y="-70.5" font-family="Helvetica,sans-Serif" font-size="10.00">+ Material outlineMaterial</text>
<polyline fill="none" stroke="black" points="190,-63.5 362,-63.5 "/>
<text text-anchor="start" x="198" y="-51.5" font-family="Helvetica,sans-Serif" font-size="10.00">+ RenderTexture GetRenderResult()</text>
<text text-anchor="start" x="198" y="-40.5" font-family="Helvetica,sans-Serif" font-size="10.00">+ void AddTarget(GameObject</text>
<text text-anchor="start" x="198" y="-29.5" font-family="Helvetica,sans-Serif" font-size="10.00"> target)</text>
<text text-anchor="start" x="198" y="-18.5" font-family="Helvetica,sans-Serif" font-size="10.00">+ void RemoveTarget(GameObject</text>
<text text-anchor="start" x="198" y="-7.5" font-family="Helvetica,sans-Serif" font-size="10.00"> target)</text>
</a>
</g>
</g>
<!-- Node1&#45;&gt;Node3 -->
<g id="edge2" class="edge">
<title>Node1&#45;&gt;Node3</title>
<path fill="none" stroke="midnightblue" d="M206.21,-206.58C211.46,-197.83 217.19,-188.31 223.03,-178.59"/>
<polygon fill="none" stroke="midnightblue" points="203.07,-205 200.92,-215.38 209.07,-208.61 203.07,-205"/>
</g>
</g>
</svg>
