<?xml version="1.0" encoding="UTF-8" standalone="no"?>
<!DOCTYPE svg PUBLIC "-//W3C//DTD SVG 1.1//EN"
 "http://www.w3.org/Graphics/SVG/1.1/DTD/svg11.dtd">
<!-- Generated by graphviz version 2.47.1 (20210417.1919)
 -->
<!-- Title: SpacePhysic.ITraceable.GetAffectedPlanets Pages: 1 -->
<svg width="675pt" height="88pt"
 viewBox="0.00 0.00 675.00 88.00" xmlns="http://www.w3.org/2000/svg" xmlns:xlink="http://www.w3.org/1999/xlink">
<g id="graph0" class="graph" transform="scale(1 1) rotate(0) translate(4 84)">
<title>SpacePhysic.ITraceable.GetAffectedPlanets</title>
<polygon fill="white" stroke="transparent" points="-4,4 -4,-84 671,-84 671,4 -4,4"/>
<!-- Node1 -->
<g id="node1" class="node">
<title>Node1</title>
<g id="a_node1"><a xlink:title=" ">
<polygon fill="#bfbfbf" stroke="black" points="527,-24.5 527,-54.5 667,-54.5 667,-24.5 527,-24.5"/>
<text text-anchor="start" x="535" y="-42.5" font-family="Helvetica,sans-Serif" font-size="10.00">SpacePhysic.ITraceable.Get</text>
<text text-anchor="middle" x="597" y="-31.5" font-family="Helvetica,sans-Serif" font-size="10.00">AffectedPlanets</text>
</a>
</g>
</g>
<!-- Node2 -->
<g id="node2" class="node">
<title>Node2</title>
<g id="a_node2"><a xlink:href="class_space_physic_1_1_gravity_tracing.html#a02741a5f2ab9b583440a9ebba2e2d685" target="_top" xlink:title="获取轨道圆锥曲线">
<polygon fill="white" stroke="black" points="349,-24.5 349,-54.5 491,-54.5 491,-24.5 349,-24.5"/>
<text text-anchor="start" x="357" y="-42.5" font-family="Helvetica,sans-Serif" font-size="10.00">SpacePhysic.GravityTracing.</text>
<text text-anchor="middle" x="420" y="-31.5" font-family="Helvetica,sans-Serif" font-size="10.00">GetConicSection</text>
</a>
</g>
</g>
<!-- Node1&#45;&gt;Node2 -->
<g id="edge1" class="edge">
<title>Node1&#45;&gt;Node2</title>
<path fill="none" stroke="midnightblue" d="M516.83,-39.5C508.25,-39.5 499.56,-39.5 491.1,-39.5"/>
<polygon fill="midnightblue" stroke="midnightblue" points="516.84,-43 526.84,-39.5 516.84,-36 516.84,-43"/>
</g>
<!-- Node3 -->
<g id="node3" class="node">
<title>Node3</title>
<g id="a_node3"><a xlink:href="class_quiz_1_1_quiz_astral_body.html#a41716d9876ed4fb8cbb1913d83982d2d" target="_top" xlink:title="更新独立天体数据">
<polygon fill="white" stroke="black" points="171,-49.5 171,-79.5 313,-79.5 313,-49.5 171,-49.5"/>
<text text-anchor="start" x="179" y="-67.5" font-family="Helvetica,sans-Serif" font-size="10.00">Quiz.QuizAstralBody.Update</text>
<text text-anchor="middle" x="242" y="-56.5" font-family="Helvetica,sans-Serif" font-size="10.00">HighCost</text>
</a>
</g>
</g>
<!-- Node2&#45;&gt;Node3 -->
<g id="edge2" class="edge">
<title>Node2&#45;&gt;Node3</title>
<path fill="none" stroke="midnightblue" d="M338.9,-50.88C330.29,-52.1 321.59,-53.34 313.11,-54.54"/>
<polygon fill="midnightblue" stroke="midnightblue" points="339.53,-54.32 348.93,-49.45 338.54,-47.39 339.53,-54.32"/>
</g>
<!-- Node4 -->
<g id="node4" class="node">
<title>Node4</title>
<g id="a_node4"><a xlink:href="class_quiz_1_1_quiz_astral_body.html#a03a56d66cf7a3c2fbbea70a297229e76" target="_top" xlink:title="更新天体数据">
<polygon fill="white" stroke="black" points="171,-0.5 171,-30.5 313,-30.5 313,-0.5 171,-0.5"/>
<text text-anchor="start" x="179" y="-18.5" font-family="Helvetica,sans-Serif" font-size="10.00">Quiz.QuizAstralBody.Update</text>
<text text-anchor="middle" x="242" y="-7.5" font-family="Helvetica,sans-Serif" font-size="10.00">QuizAstralBody</text>
</a>
</g>
</g>
<!-- Node2&#45;&gt;Node4 -->
<g id="edge3" class="edge">
<title>Node2&#45;&gt;Node4</title>
<path fill="none" stroke="midnightblue" d="M338.9,-28.58C330.29,-27.4 321.59,-26.22 313.11,-25.06"/>
<polygon fill="midnightblue" stroke="midnightblue" points="338.55,-32.06 348.93,-29.95 339.5,-25.13 338.55,-32.06"/>
</g>
<!-- Node5 -->
<g id="node5" class="node">
<title>Node5</title>
<g id="a_node5"><a xlink:href="class_quiz_1_1_quiz_astral_body.html#a5a3cf8e859c9f5592c2a2c17f3b814a1" target="_top" xlink:title=" ">
<polygon fill="white" stroke="black" points="0,-0.5 0,-30.5 135,-30.5 135,-0.5 0,-0.5"/>
<text text-anchor="start" x="8" y="-18.5" font-family="Helvetica,sans-Serif" font-size="10.00">Quiz.QuizAstralBody.Fixed</text>
<text text-anchor="middle" x="67.5" y="-7.5" font-family="Helvetica,sans-Serif" font-size="10.00">Update</text>
</a>
</g>
</g>
<!-- Node4&#45;&gt;Node5 -->
<g id="edge4" class="edge">
<title>Node4&#45;&gt;Node5</title>
<path fill="none" stroke="midnightblue" d="M160.56,-15.5C152.09,-15.5 143.55,-15.5 135.25,-15.5"/>
<polygon fill="midnightblue" stroke="midnightblue" points="160.84,-19 170.84,-15.5 160.84,-12 160.84,-19"/>
</g>
</g>
</svg>
