<?xml version="1.0" encoding="UTF-8" standalone="no"?>
<!DOCTYPE svg PUBLIC "-//W3C//DTD SVG 1.1//EN"
 "http://www.w3.org/Graphics/SVG/1.1/DTD/svg11.dtd">
<!-- Generated by graphviz version 2.47.1 (20210417.1919)
 -->
<!-- Title: SpacePhysic.ITraceable.GetTransform Pages: 1 -->
<!--zoomable 235 -->
<svg id="main" version="1.1" xmlns="http://www.w3.org/2000/svg" xmlns:xlink="http://www.w3.org/1999/xlink" xml:space="preserve" onload="init(evt)">
<style type="text/css"><![CDATA[
.edge:hover path { stroke: red; }
.edge:hover polygon { stroke: red; fill: red; }
]]></style>
<script type="text/javascript"><![CDATA[
var edges = document.getElementsByTagName('g');
if (edges && edges.length) {
  for (var i=0;i<edges.length;i++) {
    if (edges[i].id.substr(0,4)=='edge') {
      edges[i].setAttribute('class','edge');
    }
  }
}
]]></script>
        <defs>
                <circle id="rim" cx="0" cy="0" r="7"/>
                <circle id="rim2" cx="0" cy="0" r="3.5"/>
                <g id="zoomPlus">
                        <use xlink:href="#rim" fill="#404040">
                                <set attributeName="fill" to="#808080" begin="zoomplus.mouseover" end="zoomplus.mouseout"/>
                        </use>
                        <path d="M-4,0h8M0,-4v8" fill="none" stroke="white" stroke-width="1.5" pointer-events="none"/>
                </g>
                <g id="zoomMin">
                        <use xlink:href="#rim" fill="#404040">
                                <set attributeName="fill" to="#808080" begin="zoomminus.mouseover" end="zoomminus.mouseout"/>
                        </use>
                        <path d="M-4,0h8" fill="none" stroke="white" stroke-width="1.5" pointer-events="none"/>
                </g>
                <g id="dirArrow">
                        <path fill="none" stroke="white" stroke-width="1.5" d="M0,-3.0v7 M-2.5,-0.5L0,-3.0L2.5,-0.5"/>
                </g>
               <g id="resetDef">
                       <use xlink:href="#rim2" fill="#404040">
                               <set attributeName="fill" to="#808080" begin="reset.mouseover" end="reset.mouseout"/>
                       </use>
               </g>
        </defs>

<script type="text/javascript">
var viewWidth = 726;
var viewHeight = 235;
var sectionId = 'dynsection-6';
</script>
<script xlink:href="svgpan.js"/>
<svg id="graph" class="graph">
<g id="viewport">
<title>SpacePhysic.ITraceable.GetTransform</title>
<polygon fill="white" stroke="transparent" points="-4,4 -4,-231 722,-231 722,4 -4,4"/>
<!-- Node1 -->
<g id="node1" class="node">
<title>Node1</title>
<g id="a_node1"><a xlink:title=" ">
<polygon fill="#bfbfbf" stroke="black" points="578,-73.5 578,-103.5 718,-103.5 718,-73.5 578,-73.5"/>
<text text-anchor="start" x="586" y="-91.5" font-family="Helvetica,sans-Serif" font-size="10.00">SpacePhysic.ITraceable.Get</text>
<text text-anchor="middle" x="648" y="-80.5" font-family="Helvetica,sans-Serif" font-size="10.00">Transform</text>
</a>
</g>
</g>
<!-- Node2 -->
<g id="node2" class="node">
<title>Node2</title>
<g id="a_node2"><a xlink:href="class_space_physic_1_1_gravity_tracing.html#a3d63db3c84aef11ca64e85e99d32cbd3" target="_top" xlink:title="增加追踪实体">
<polygon fill="white" stroke="black" points="400,-122.5 400,-152.5 542,-152.5 542,-122.5 400,-122.5"/>
<text text-anchor="start" x="408" y="-140.5" font-family="Helvetica,sans-Serif" font-size="10.00">SpacePhysic.GravityTracing.</text>
<text text-anchor="middle" x="471" y="-129.5" font-family="Helvetica,sans-Serif" font-size="10.00">AddTracingTarget</text>
</a>
</g>
</g>
<!-- Node1&#45;&gt;Node2 -->
<g id="edge1" class="edge">
<title>Node1&#45;&gt;Node2</title>
<path fill="none" stroke="midnightblue" d="M583.35,-106.32C564.46,-111.61 543.96,-117.35 525.76,-122.45"/>
<polygon fill="midnightblue" stroke="midnightblue" points="584.38,-109.67 593.07,-103.6 582.49,-102.93 584.38,-109.67"/>
</g>
<!-- Node7 -->
<g id="node7" class="node">
<title>Node7</title>
<g id="a_node7"><a xlink:href="class_space_physic_1_1_gravity_tracing.html#a02741a5f2ab9b583440a9ebba2e2d685" target="_top" xlink:title="获取轨道圆锥曲线">
<polygon fill="white" stroke="black" points="400,-49.5 400,-79.5 542,-79.5 542,-49.5 400,-49.5"/>
<text text-anchor="start" x="408" y="-67.5" font-family="Helvetica,sans-Serif" font-size="10.00">SpacePhysic.GravityTracing.</text>
<text text-anchor="middle" x="471" y="-56.5" font-family="Helvetica,sans-Serif" font-size="10.00">GetConicSection</text>
</a>
</g>
</g>
<!-- Node1&#45;&gt;Node7 -->
<g id="edge7" class="edge">
<title>Node1&#45;&gt;Node7</title>
<path fill="none" stroke="midnightblue" d="M567.83,-77.64C559.25,-76.47 550.56,-75.27 542.1,-74.11"/>
<polygon fill="midnightblue" stroke="midnightblue" points="567.45,-81.12 577.84,-79.01 568.4,-74.19 567.45,-81.12"/>
</g>
<!-- Node3 -->
<g id="node3" class="node">
<title>Node3</title>
<g id="a_node3"><a xlink:href="class_space_physic_1_1_gravity_tracing.html#ac99527254282cd4e726c6b6822256583" target="_top" xlink:title=" ">
<polygon fill="white" stroke="black" points="206.5,-196.5 206.5,-226.5 348.5,-226.5 348.5,-196.5 206.5,-196.5"/>
<text text-anchor="start" x="214.5" y="-214.5" font-family="Helvetica,sans-Serif" font-size="10.00">SpacePhysic.GravityTracing.</text>
<text text-anchor="middle" x="277.5" y="-203.5" font-family="Helvetica,sans-Serif" font-size="10.00">Awake</text>
</a>
</g>
</g>
<!-- Node2&#45;&gt;Node3 -->
<g id="edge2" class="edge">
<title>Node2&#45;&gt;Node3</title>
<path fill="none" stroke="midnightblue" d="M432.26,-157.19C412.31,-167.11 387.2,-178.84 364,-187.5 355.48,-190.68 346.34,-193.67 337.33,-196.39"/>
<polygon fill="midnightblue" stroke="midnightblue" points="433.96,-160.25 441.32,-152.63 430.81,-154 433.96,-160.25"/>
</g>
<!-- Node4 -->
<g id="node4" class="node">
<title>Node4</title>
<g id="a_node4"><a xlink:href="class_xml_saver_1_1_scene_load_base.html#a0048dec421f94641813fb6ed80eca811" target="_top" xlink:title=" ">
<polygon fill="white" stroke="black" points="191,-147.5 191,-177.5 364,-177.5 364,-147.5 191,-147.5"/>
<text text-anchor="start" x="199" y="-165.5" font-family="Helvetica,sans-Serif" font-size="10.00">XmlSaver.SceneLoadBase.Generate</text>
<text text-anchor="middle" x="277.5" y="-154.5" font-family="Helvetica,sans-Serif" font-size="10.00">AstralBodiesWithoutPrefab</text>
</a>
</g>
</g>
<!-- Node2&#45;&gt;Node4 -->
<g id="edge3" class="edge">
<title>Node2&#45;&gt;Node4</title>
<path fill="none" stroke="midnightblue" d="M389.85,-147.96C381.31,-149.08 372.6,-150.22 364,-151.34"/>
<polygon fill="midnightblue" stroke="midnightblue" points="390.32,-151.43 399.78,-146.67 389.41,-144.49 390.32,-151.43"/>
</g>
<!-- Node6 -->
<g id="node6" class="node">
<title>Node6</title>
<g id="a_node6"><a xlink:href="class_xml_saver_1_1_scene_load_base.html#a0a4b9b672c83faa8953a3ea9e89886de" target="_top" xlink:title=" ">
<polygon fill="white" stroke="black" points="191,-98.5 191,-128.5 364,-128.5 364,-98.5 191,-98.5"/>
<text text-anchor="start" x="199" y="-116.5" font-family="Helvetica,sans-Serif" font-size="10.00">XmlSaver.SceneLoadBase.Generate</text>
<text text-anchor="middle" x="277.5" y="-105.5" font-family="Helvetica,sans-Serif" font-size="10.00">AstralBodiesWithPrefab</text>
</a>
</g>
</g>
<!-- Node2&#45;&gt;Node6 -->
<g id="edge5" class="edge">
<title>Node2&#45;&gt;Node6</title>
<path fill="none" stroke="midnightblue" d="M389.85,-127.46C381.31,-126.38 372.6,-125.29 364,-124.22"/>
<polygon fill="midnightblue" stroke="midnightblue" points="389.42,-130.93 399.78,-128.7 390.29,-123.98 389.42,-130.93"/>
</g>
<!-- Node5 -->
<g id="node5" class="node">
<title>Node5</title>
<g id="a_node5"><a xlink:href="class_xml_saver_1_1_scene_load_base.html#a858d37d11500dd956eb9c45a5509dc3c" target="_top" xlink:title=" ">
<polygon fill="white" stroke="black" points="0,-128 0,-147 155,-147 155,-128 0,-128"/>
<text text-anchor="middle" x="77.5" y="-135" font-family="Helvetica,sans-Serif" font-size="10.00">XmlSaver.SceneLoadBase.Start</text>
</a>
</g>
</g>
<!-- Node4&#45;&gt;Node5 -->
<g id="edge4" class="edge">
<title>Node4&#45;&gt;Node5</title>
<path fill="none" stroke="midnightblue" d="M180.64,-150.4C171.61,-149.26 162.55,-148.11 153.75,-147"/>
<polygon fill="midnightblue" stroke="midnightblue" points="180.45,-153.9 190.81,-151.68 181.32,-146.95 180.45,-153.9"/>
</g>
<!-- Node6&#45;&gt;Node5 -->
<g id="edge6" class="edge">
<title>Node6&#45;&gt;Node5</title>
<path fill="none" stroke="midnightblue" d="M180.8,-125.1C172.24,-126.14 163.66,-127.18 155.29,-128.19"/>
<polygon fill="midnightblue" stroke="midnightblue" points="181.3,-128.57 190.81,-123.89 180.46,-121.62 181.3,-128.57"/>
</g>
<!-- Node8 -->
<g id="node8" class="node">
<title>Node8</title>
<g id="a_node8"><a xlink:href="class_quiz_1_1_quiz_astral_body.html#a41716d9876ed4fb8cbb1913d83982d2d" target="_top" xlink:title="更新独立天体数据">
<polygon fill="white" stroke="black" points="206.5,-49.5 206.5,-79.5 348.5,-79.5 348.5,-49.5 206.5,-49.5"/>
<text text-anchor="start" x="214.5" y="-67.5" font-family="Helvetica,sans-Serif" font-size="10.00">Quiz.QuizAstralBody.Update</text>
<text text-anchor="middle" x="277.5" y="-56.5" font-family="Helvetica,sans-Serif" font-size="10.00">HighCost</text>
</a>
</g>
</g>
<!-- Node7&#45;&gt;Node8 -->
<g id="edge8" class="edge">
<title>Node7&#45;&gt;Node8</title>
<path fill="none" stroke="midnightblue" d="M389.51,-64.5C375.96,-64.5 361.98,-64.5 348.71,-64.5"/>
<polygon fill="midnightblue" stroke="midnightblue" points="389.78,-68 399.78,-64.5 389.78,-61 389.78,-68"/>
</g>
<!-- Node9 -->
<g id="node9" class="node">
<title>Node9</title>
<g id="a_node9"><a xlink:href="class_quiz_1_1_quiz_astral_body.html#a03a56d66cf7a3c2fbbea70a297229e76" target="_top" xlink:title="更新天体数据">
<polygon fill="white" stroke="black" points="206.5,-0.5 206.5,-30.5 348.5,-30.5 348.5,-0.5 206.5,-0.5"/>
<text text-anchor="start" x="214.5" y="-18.5" font-family="Helvetica,sans-Serif" font-size="10.00">Quiz.QuizAstralBody.Update</text>
<text text-anchor="middle" x="277.5" y="-7.5" font-family="Helvetica,sans-Serif" font-size="10.00">QuizAstralBody</text>
</a>
</g>
</g>
<!-- Node7&#45;&gt;Node9 -->
<g id="edge9" class="edge">
<title>Node7&#45;&gt;Node9</title>
<path fill="none" stroke="midnightblue" d="M401.41,-46.95C380.38,-41.57 357.45,-35.7 337.15,-30.51"/>
<polygon fill="midnightblue" stroke="midnightblue" points="400.69,-50.38 411.24,-49.47 402.42,-43.6 400.69,-50.38"/>
</g>
<!-- Node10 -->
<g id="node10" class="node">
<title>Node10</title>
<g id="a_node10"><a xlink:href="class_quiz_1_1_quiz_astral_body.html#a5a3cf8e859c9f5592c2a2c17f3b814a1" target="_top" xlink:title=" ">
<polygon fill="white" stroke="black" points="10,-0.5 10,-30.5 145,-30.5 145,-0.5 10,-0.5"/>
<text text-anchor="start" x="18" y="-18.5" font-family="Helvetica,sans-Serif" font-size="10.00">Quiz.QuizAstralBody.Fixed</text>
<text text-anchor="middle" x="77.5" y="-7.5" font-family="Helvetica,sans-Serif" font-size="10.00">Update</text>
</a>
</g>
</g>
<!-- Node9&#45;&gt;Node10 -->
<g id="edge10" class="edge">
<title>Node9&#45;&gt;Node10</title>
<path fill="none" stroke="midnightblue" d="M196.01,-15.5C179.12,-15.5 161.49,-15.5 145.17,-15.5"/>
<polygon fill="midnightblue" stroke="midnightblue" points="196.41,-19 206.41,-15.5 196.41,-12 196.41,-19"/>
</g>
</g>
</svg>
        <g id="navigator" transform="translate(0 0)" fill="#404254">
                <rect fill="#f2f5e9" fill-opacity="0.5" stroke="#606060" stroke-width=".5" x="0" y="0" width="60" height="60"/>
                <use id="zoomplus" xlink:href="#zoomPlus" x="17" y="9" onmousedown="handleZoom(evt,'in')"/>
                <use id="zoomminus" xlink:href="#zoomMin" x="42" y="9" onmousedown="handleZoom(evt,'out')"/>
                <use id="reset" xlink:href="#resetDef" x="30" y="36" onmousedown="handleReset()"/>
                <g id="arrowUp" xlink:href="#dirArrow" transform="translate(30 24)" onmousedown="handlePan(0,-1)">
                  <use xlink:href="#rim" fill="#404040">
                        <set attributeName="fill" to="#808080" begin="arrowUp.mouseover" end="arrowUp.mouseout"/>
                  </use>
                  <path fill="none" stroke="white" stroke-width="1.5" d="M0,-3.0v7 M-2.5,-0.5L0,-3.0L2.5,-0.5"/>
                </g>
                <g id="arrowRight" xlink:href="#dirArrow" transform="rotate(90) translate(36 -43)" onmousedown="handlePan(1,0)">
                  <use xlink:href="#rim" fill="#404040">
                        <set attributeName="fill" to="#808080" begin="arrowRight.mouseover" end="arrowRight.mouseout"/>
                  </use>
                  <path fill="none" stroke="white" stroke-width="1.5" d="M0,-3.0v7 M-2.5,-0.5L0,-3.0L2.5,-0.5"/>
                </g>
                <g id="arrowDown" xlink:href="#dirArrow" transform="rotate(180) translate(-30 -48)" onmousedown="handlePan(0,1)">
                  <use xlink:href="#rim" fill="#404040">
                        <set attributeName="fill" to="#808080" begin="arrowDown.mouseover" end="arrowDown.mouseout"/>
                  </use>
                  <path fill="none" stroke="white" stroke-width="1.5" d="M0,-3.0v7 M-2.5,-0.5L0,-3.0L2.5,-0.5"/>
                </g>
                <g id="arrowLeft" xlink:href="#dirArrow" transform="rotate(270) translate(-36 17)" onmousedown="handlePan(-1,0)">
                  <use xlink:href="#rim" fill="#404040">
                        <set attributeName="fill" to="#808080" begin="arrowLeft.mouseover" end="arrowLeft.mouseout"/>
                  </use>
                  <path fill="none" stroke="white" stroke-width="1.5" d="M0,-3.0v7 M-2.5,-0.5L0,-3.0L2.5,-0.5"/>
                </g>
        </g>
        <svg viewBox="0 0 15 15" width="100%" height="30px" preserveAspectRatio="xMaxYMin meet">
         <g id="arrow_out" transform="scale(0.3 0.3)">
          <a xlink:href="interface_space_physic_1_1_i_traceable_a53c8890effec964fa2245908e79016c4_icgraph_org.svg" target="_base">
           <rect id="button" ry="5" rx="5" y="6" x="6" height="38" width="38"
                fill="#f2f5e9" fill-opacity="0.5" stroke="#606060" stroke-width="1.0"/>
           <path id="arrow"
             d="M 11.500037,31.436501 C 11.940474,20.09759 22.043105,11.32322 32.158766,21.979434 L 37.068811,17.246167 C 37.068811,17.246167 37.088388,32 37.088388,32 L 22.160133,31.978069 C 22.160133,31.978069 26.997745,27.140456 26.997745,27.140456 C 18.528582,18.264221 13.291696,25.230495 11.500037,31.436501 z"
             style="fill:#404040;"/>
          </a>
         </g>
        </svg>
</svg>
